<svg fill="none" height="20" viewBox="0 0 20 20" width="20" xmlns="http://www.w3.org/2000/svg"><path d="m19.5833 17.8886-5.841-5.842c.9413-1.2936 1.4476-2.8526 1.4461-4.45241 0-4.18735-3.4069-7.59419-7.59421-7.59419-4.18735 0-7.59419 3.40684-7.59419 7.59419 0 4.18731 3.40684 7.59421 7.59419 7.59421 1.59981.0015 3.15881-.5048 4.45241-1.4461l5.842 5.841zm-11.98911-5.0987c-1.02775.0001-2.03244-.3046-2.88701-.8755-.85458-.571-1.52066-1.3825-1.914-2.33198-.39335-.9495-.4963-1.9943-.29581-3.00231.20048-1.008.69537-1.93391 1.4221-2.66064s1.65264-1.22162 2.66064-1.4221c1.00801-.20049 2.05281-.09754 3.00231.29581.94948.39334 1.76098 1.05942 2.33198 1.914.5709.85457.8756 1.85926.8755 2.88701-.0016 1.37748-.5496 2.69811-1.5236 3.67211s-2.29463 1.522-3.67211 1.5236z" fill="#868e96"/></svg>