<?xml version="1.0" encoding="UTF-8"?>
<svg id="Layer_2" data-name="Layer 2" xmlns="http://www.w3.org/2000/svg" viewBox="0 0 513.46 513.46">
  <defs>
    <style>
      .cls-1 {
        fill: #231f20;
      }

      .cls-2 {
        fill: #fff;
      }
    </style>
  </defs>
  <g id="Layer_1-2" data-name="Layer 1">
    <g>
      <rect class="cls-2" width="513.46" height="513.46"/>
      <g>
        <path class="cls-1" d="M158.93,242.54l-8.98-9.09c-2.85,1.9-6.04,3.36-9.58,4.38-3.54,1.02-7.28,1.53-11.22,1.53-7.59,0-14.3-1.68-20.14-5.04-5.84-3.36-10.42-8.03-13.74-14.01-3.32-5.98-4.98-12.84-4.98-20.58,0-5.84.95-11.17,2.85-15.98,1.9-4.82,4.56-8.99,7.99-12.53,3.43-3.54,7.5-6.28,12.21-8.21,4.71-1.93,9.87-2.9,15.49-2.9,7.59,0,14.28,1.7,20.09,5.09,5.8,3.39,10.33,8.06,13.57,14.01,3.25,5.95,4.87,12.79,4.87,20.52,0,5.25-.77,10.13-2.3,14.61-1.53,4.49-3.69,8.41-6.46,11.77l8.32,8.43-7.99,7.99ZM129.15,227.76c2.26,0,4.36-.31,6.29-.93,1.93-.62,3.74-1.48,5.42-2.57l-9.85-9.96,8.21-7.88,10.29,10.51c1.6-2.33,2.83-4.93,3.67-7.77.84-2.85,1.26-5.98,1.26-9.41,0-5.47-1.09-10.31-3.28-14.5-2.19-4.2-5.2-7.5-9.03-9.91s-8.26-3.61-13.3-3.61-9.36,1.2-13.19,3.61-6.86,5.71-9.09,9.91c-2.23,4.2-3.34,9.03-3.34,14.5s1.11,10.31,3.34,14.5c2.22,4.2,5.29,7.5,9.19,9.91,3.9,2.41,8.37,3.61,13.41,3.61Z"/>
        <path class="cls-1" d="M195.05,239.36c-4.31,0-8.01-.88-11.11-2.63-3.1-1.75-5.49-4.49-7.17-8.21-1.68-3.72-2.52-8.5-2.52-14.34v-30.87h12.26v28.02c0,4.31.51,7.66,1.53,10.07,1.02,2.41,2.42,4.09,4.21,5.04,1.79.95,3.85,1.42,6.19,1.42,4.16.07,7.37-1.28,9.63-4.05,2.26-2.77,3.39-6.75,3.39-11.93v-28.57h12.15v54.73h-11.49l-.55-7.77c-1.75,2.92-4.03,5.16-6.84,6.73-2.81,1.57-6.04,2.35-9.69,2.35Z"/>
        <path class="cls-1" d="M233.91,238.05v-54.73h12.26v9.96c2.19-3.43,5.04-5.98,8.54-7.66,3.5-1.68,7.12-2.52,10.84-2.52v11.71c-3.36,0-6.51.46-9.47,1.37-2.96.91-5.35,2.39-7.17,4.43-1.82,2.04-2.74,4.74-2.74,8.1v29.34h-12.26Z"/>
        <path class="cls-1" d="M287.98,239.36c-6.57,0-11.66-1.46-15.27-4.38-3.61-2.92-5.42-7.04-5.42-12.37,0-5.69,1.92-10.03,5.75-13.03,3.83-2.99,9.18-4.49,16.04-4.49h13.9c-.44-4.01-1.57-7.08-3.39-9.19-1.82-2.12-4.53-3.17-8.1-3.17-2.63,0-4.93.55-6.9,1.64-1.97,1.09-3.65,2.81-5.04,5.14l-10.73-3.94c1.17-2.41,2.72-4.65,4.65-6.73,1.93-2.08,4.38-3.74,7.33-4.98,2.96-1.24,6.51-1.86,10.67-1.86,5.33,0,9.78,1.04,13.36,3.12,3.57,2.08,6.22,5.05,7.94,8.92,1.71,3.87,2.57,8.54,2.57,14.01l-.33,29.99h-11.27l-.33-6.68c-1.46,2.56-3.48,4.53-6.07,5.91-2.59,1.39-5.71,2.08-9.36,2.08ZM289.52,229.07c2.7,0,5.09-.6,7.17-1.81s3.68-2.83,4.82-4.87c1.13-2.04,1.7-4.31,1.7-6.79v-1.09h-10.18c-4.89,0-8.32.68-10.29,2.03-1.97,1.35-2.96,3.27-2.96,5.75,0,2.12.86,3.78,2.57,4.98s4.1,1.81,7.17,1.81Z"/>
        <path class="cls-1" d="M324.44,238.05v-54.73h11.49l.55,7.77c1.75-2.92,4.03-5.16,6.84-6.73,2.81-1.57,6.04-2.35,9.69-2.35,4.38,0,8.12.88,11.22,2.63,3.1,1.75,5.47,4.47,7.12,8.16,1.64,3.69,2.46,8.48,2.46,14.4v30.87h-12.26v-28.02c0-4.38-.49-7.75-1.48-10.13-.98-2.37-2.37-4.03-4.16-4.98-1.79-.95-3.89-1.42-6.29-1.42-4.09-.07-7.26,1.28-9.52,4.05-2.26,2.77-3.39,6.75-3.39,11.93v28.57h-12.26Z"/>
        <path class="cls-1" d="M120.72,332.77c-4.23,0-7.99-.46-11.28-1.37-3.28-.91-6.13-2.19-8.54-3.83-2.41-1.64-4.38-3.47-5.91-5.47-1.53-2.01-2.67-4.14-3.39-6.4l8.87-3.07c1.09,3.21,3.3,6,6.62,8.38,3.32,2.37,7.39,3.56,12.21,3.56,5.91,0,10.54-1.17,13.9-3.5,3.36-2.33,5.04-5.44,5.04-9.3,0-3.57-1.5-6.48-4.49-8.7-2.99-2.22-6.93-3.96-11.82-5.2l-8.43-2.19c-3.43-.88-6.59-2.17-9.47-3.89-2.88-1.71-5.18-3.9-6.9-6.57-1.71-2.66-2.57-5.86-2.57-9.58,0-6.93,2.24-12.35,6.73-16.26,4.49-3.9,10.96-5.86,19.43-5.86,5.03,0,9.38.82,13.03,2.46,3.65,1.64,6.62,3.72,8.92,6.24s3.92,5.24,4.87,8.16l-8.76,3.06c-1.39-3.65-3.72-6.51-7.01-8.59s-7.26-3.12-11.93-3.12-8.78,1.19-11.66,3.56c-2.88,2.37-4.32,5.6-4.32,9.69,0,3.5,1.13,6.18,3.39,8.05s5.22,3.23,8.87,4.1l8.43,2.08c7.44,1.75,13.15,4.65,17.13,8.7,3.98,4.05,5.97,8.41,5.97,13.08,0,4.02-1.02,7.68-3.06,11-2.04,3.32-5.05,5.95-9.03,7.88-3.98,1.93-8.92,2.9-14.83,2.9Z"/>
        <path class="cls-1" d="M158.16,353.35v-76.63h8.21l.44,9.3c2.04-3.28,4.65-5.87,7.83-7.77,3.18-1.9,6.77-2.85,10.78-2.85,4.89,0,9.19,1.2,12.92,3.61,3.72,2.41,6.62,5.77,8.7,10.07,2.08,4.31,3.12,9.3,3.12,15s-1.04,10.6-3.12,14.94c-2.08,4.34-4.98,7.72-8.7,10.13-3.72,2.41-8.03,3.61-12.92,3.61-4.01,0-7.59-.93-10.73-2.79-3.14-1.86-5.73-4.43-7.77-7.72v31.09h-8.76ZM183.45,324.78c3.43,0,6.48-.88,9.14-2.63,2.66-1.75,4.78-4.18,6.35-7.28,1.57-3.1,2.35-6.69,2.35-10.78s-.75-7.59-2.24-10.73c-1.5-3.14-3.58-5.58-6.24-7.33s-5.75-2.63-9.25-2.63c-3.21,0-6.08.88-8.59,2.63-2.52,1.75-4.49,4.18-5.91,7.28-1.42,3.1-2.14,6.7-2.14,10.78s.71,7.59,2.14,10.73c1.42,3.14,3.37,5.58,5.86,7.33,2.48,1.75,5.33,2.63,8.54,2.63Z"/>
        <path class="cls-1" d="M236.32,332.77c-6.42,0-11.44-1.48-15.05-4.43-3.61-2.95-5.42-7.06-5.42-12.31,0-5.54,1.84-9.8,5.53-12.75,3.68-2.96,8.85-4.43,15.49-4.43h15.22c-.37-5.18-1.64-9.07-3.83-11.66-2.19-2.59-5.47-3.89-9.85-3.89-2.99,0-5.57.6-7.72,1.81-2.15,1.2-3.92,3.12-5.31,5.75l-7.88-3.06c1.39-2.55,3.06-4.76,5.04-6.62,1.97-1.86,4.27-3.28,6.9-4.27s5.62-1.48,8.98-1.48c5.11,0,9.32,1,12.64,3.01,3.32,2.01,5.82,4.96,7.5,8.87,1.68,3.91,2.48,8.74,2.41,14.5l-.11,29.67h-8.1l-.44-7.33c-1.61,2.78-3.76,4.91-6.46,6.4-2.7,1.5-5.88,2.24-9.52,2.24ZM236.76,325.11c3.14,0,5.87-.67,8.21-2.03,2.33-1.35,4.14-3.27,5.42-5.75,1.28-2.48,1.92-5.47,1.92-8.98v-2.19h-13.46c-5.11,0-8.74.84-10.89,2.52-2.15,1.68-3.23,4.09-3.23,7.22,0,2.85,1.06,5.09,3.17,6.73,2.12,1.64,5.07,2.46,8.87,2.46Z"/>
        <path class="cls-1" d="M295.98,332.77c-5.4,0-10.18-1.22-14.34-3.67-4.16-2.44-7.41-5.82-9.74-10.13-2.34-4.31-3.5-9.27-3.5-14.89s1.15-10.58,3.45-14.89c2.3-4.3,5.53-7.68,9.69-10.13,4.16-2.44,8.9-3.67,14.23-3.67s9.96,1.2,14.12,3.61c4.16,2.41,7.33,5.8,9.52,10.18l-7.99,3.61c-1.46-2.92-3.58-5.2-6.35-6.84-2.78-1.64-5.95-2.46-9.52-2.46s-6.73.88-9.47,2.63-4.89,4.18-6.46,7.28c-1.57,3.1-2.35,6.66-2.35,10.67s.78,7.57,2.35,10.67c1.57,3.1,3.76,5.53,6.57,7.28,2.81,1.75,6,2.63,9.58,2.63s6.77-.91,9.58-2.74c2.81-1.82,4.94-4.38,6.4-7.66l7.99,3.61c-2.19,4.67-5.36,8.32-9.52,10.95-4.16,2.63-8.9,3.94-14.23,3.94Z"/>
        <path class="cls-1" d="M351.47,332.77c-5.33,0-10.03-1.22-14.12-3.67-4.09-2.44-7.28-5.82-9.58-10.13s-3.45-9.27-3.45-14.89,1.15-10.58,3.45-14.89c2.3-4.3,5.47-7.68,9.52-10.13,4.05-2.44,8.7-3.67,13.96-3.67s9.52,1.26,13.24,3.78c3.72,2.52,6.61,6.04,8.65,10.56,2.04,4.53,3.06,9.85,3.06,15.98h-43.02c.36,5.98,2.26,10.66,5.69,14.01,3.43,3.36,7.77,5.04,13.03,5.04,3.87,0,7.13-.91,9.8-2.74,2.66-1.82,4.72-4.23,6.18-7.23l7.55,3.83c-1.39,2.85-3.23,5.33-5.53,7.44s-5,3.76-8.1,4.93c-3.1,1.17-6.55,1.75-10.35,1.75ZM333.85,298.4h32.95c-.22-3.14-1.04-5.84-2.46-8.1-1.42-2.26-3.27-4.01-5.53-5.25-2.26-1.24-4.82-1.86-7.66-1.86s-5.44.6-7.99,1.81c-2.55,1.2-4.67,2.96-6.35,5.26-1.68,2.3-2.67,5.02-2.96,8.15Z"/>
        <path class="cls-1" d="M403.14,332.77c-4.01,0-7.52-.6-10.51-1.81-2.99-1.2-5.49-2.79-7.5-4.76-2.01-1.97-3.45-4.12-4.32-6.46l7.66-3.17c1.24,2.48,3.1,4.49,5.58,6.02,2.48,1.53,5.22,2.3,8.21,2.3,3.43,0,6.31-.67,8.65-2.03,2.33-1.35,3.5-3.27,3.5-5.75,0-2.26-.86-4.09-2.57-5.47-1.72-1.39-4.25-2.52-7.61-3.39l-5.25-1.42c-4.96-1.31-8.83-3.3-11.6-5.97-2.78-2.66-4.16-5.67-4.16-9.03,0-5.18,1.7-9.21,5.09-12.1,3.39-2.88,8.45-4.32,15.16-4.32,3.21,0,6.13.48,8.76,1.42,2.63.95,4.89,2.28,6.79,4,1.9,1.72,3.28,3.74,4.16,6.07l-7.66,3.39c-.95-2.48-2.52-4.27-4.71-5.36s-4.85-1.64-7.99-1.64c-3.36,0-5.98.71-7.88,2.14-1.9,1.42-2.85,3.41-2.85,5.97,0,1.46.78,2.83,2.35,4.1,1.57,1.28,3.89,2.32,6.95,3.12l5.47,1.42c3.57.88,6.57,2.17,8.98,3.89,2.41,1.71,4.23,3.67,5.47,5.86,1.24,2.19,1.86,4.53,1.86,7.01,0,3.28-.88,6.13-2.63,8.54-1.75,2.41-4.12,4.25-7.12,5.53-2.99,1.28-6.42,1.92-10.29,1.92Z"/>
      </g>
    </g>
  </g>
</svg>