<svg width="90" height="18" viewBox="0 0 115 24" fill="none" xmlns="http://www.w3.org/2000/svg">
<path d="M15.8625 6H6V8.35983H9.5365V18H12.3757V8.35983H15.9123V6H15.8625ZM24.3801 18H27.3687L22.4375 6H19.7975L14.8165 18H17.8549L18.6519 15.9916H23.6827L24.3801 18ZM19.4986 13.6318L21.1424 9.51464L22.7363 13.6318H19.4986ZM35.8863 18H39.1738L36.1354 13.2803C37.3806 12.6276 38.1776 11.4226 38.1776 9.91632C38.1776 7.55649 36.484 6 33.9437 6H28.614V18H31.4532V13.8326H33.346L35.8863 18ZM31.4532 8.35983H33.6448C34.641 8.35983 35.2886 9.01255 35.2886 9.91632C35.2886 10.8201 34.5414 11.4728 33.3958 11.4728H31.503V8.35983H31.4532ZM49.0861 6H39.2236V8.35983H42.7602V18H45.5994V8.35983H49.1359V6H49.0861ZM53.4694 15.6402V13.0795H58.5501V10.7699H53.4694V8.35983H59.098V6H50.6302V18H59.2474V15.6402H53.4694ZM64.1289 15.6402V13.0795H69.2095V10.7699H64.1289V8.35983H69.7574V6H61.2897V18H69.9069V15.6402H64.1289ZM74.7883 15.6402V6H71.9491V18H79.819V15.6402H74.7883ZM93.816 18H95.111L89.881 6H88.735L83.505 18H84.8L86.145 14.887H92.421L93.816 18ZM86.593 13.8326L89.333 7.50628L92.023 13.8326H86.593ZM96.755 18H98V6H96.755V18Z" fill="#3B393E"/>
</svg>
