<svg width="100%" height="100%" viewBox="0 0 92 80" fill="none" xmlns="http://www.w3.org/2000/svg">
<path d="M12.3395 45.8282L12.3453 45.8353L12.3513 45.8421C14.9899 48.8383 18.2977 51.2941 22.0558 53.0513C25.8138 54.8084 29.9389 55.8281 34.1608 56.045C38.3828 56.262 42.6087 55.6714 46.562 54.3112C50.5153 52.9509 54.1088 50.8508 57.1055 48.146C60.1023 45.4411 62.4351 42.192 63.9473 38.6099C65.4596 35.0276 66.1163 31.1952 65.8725 27.3648C65.6287 23.5346 64.4903 19.7964 62.5345 16.3958C60.5789 12.9953 57.8509 10.0103 54.5327 7.63414L54.2416 8.04066L54.514 7.62139C54.3819 7.53557 54.2992 7.41855 54.2656 7.29918C54.2324 7.18123 54.2452 7.05583 54.3066 6.94091C54.3689 6.82426 54.4814 6.71948 54.6357 6.65664C54.7902 6.59375 54.9675 6.58113 55.1337 6.62304C61.1033 8.16157 66.5188 11.0785 70.8465 15.0802C75.174 19.0819 78.263 24.0287 79.8142 29.4284C81.3652 34.8277 81.3265 40.4978 79.7018 45.8796C78.0769 51.2619 74.9204 56.1742 70.5382 60.1277C66.1557 64.0815 60.7001 66.9382 54.7094 68.4102C48.7187 69.8822 42.4049 69.9173 36.3943 68.512C30.3838 67.1067 24.8893 64.3108 20.4529 60.4058C16.0194 56.5034 12.797 51.6296 11.0979 46.2693C11.0676 46.1549 11.0805 46.0339 11.1387 45.9225C11.199 45.8073 11.3081 45.7031 11.4586 45.6389C11.6095 45.5745 11.7842 45.5585 11.9498 45.5962C12.1153 45.6338 12.2509 45.7199 12.3395 45.8282Z" stroke="currentColor"/>
<path d="M79.173 34.2984L79.1732 34.2976C79.4751 32.3624 79.59 30.4094 79.5181 28.4607C80.5105 31.5141 80.9948 34.6892 80.9495 37.882C80.8877 42.2436 79.8388 46.5495 77.8652 50.5361C75.8914 54.5229 73.0337 58.1076 69.4643 61.0686C65.8948 64.0296 61.6894 66.3038 57.1052 67.7491C52.521 69.1945 47.6566 69.7799 42.8109 69.4688C37.9652 69.1576 33.2427 67.9566 28.9333 65.9408C24.624 63.9251 20.8202 61.138 17.7536 57.753C14.6871 54.3681 12.4223 50.4569 11.095 46.2603L11.0952 46.2603L11.0906 46.2469C11.0585 46.1545 11.0595 46.0563 11.0949 45.9633C14.7872 51.838 20.3815 56.5489 27.1235 59.4643C34.0572 62.4625 41.8583 63.4124 49.4207 62.1816C56.9832 60.9508 63.9307 57.6005 69.2736 52.5983C74.6171 47.5956 78.0848 41.1936 79.173 34.2984Z" stroke="currentColor"/>
<path d="M54.2416 8.04066C57.5042 10.3771 60.1826 13.3093 62.1011 16.645C64.0195 19.9808 65.1347 23.6447 65.3735 27.3966C65.6123 31.1485 64.9693 34.9035 63.4867 38.4154C62.004 41.9274 59.7153 45.1169 56.7705 47.7749C53.8257 50.4328 50.2913 52.4991 46.3993 53.8384C42.5072 55.1776 38.3453 55.7594 34.1865 55.5457C30.0277 55.332 25.9659 54.3276 22.2676 52.5984C18.5692 50.8691 15.3178 48.4541 12.7266 45.5117C12.5631 45.3118 12.3277 45.1693 12.0606 45.1086C11.7936 45.0479 11.5115 45.0728 11.2625 45.179C11.0135 45.2852 10.8132 45.4661 10.6957 45.6908C10.5781 45.9154 10.5508 46.17 10.6182 46.4109C12.3454 51.8659 15.6216 56.8194 20.1225 60.7812C24.6235 64.7429 30.1933 67.5756 36.2805 68.9989C42.3677 70.4221 48.7614 70.3866 54.8287 68.8958C60.896 67.4049 66.4266 64.5105 70.8731 60.499C75.3197 56.4875 78.5279 51.4979 80.1804 46.0241C81.8329 40.5503 81.8723 34.7821 80.2947 29.2904C78.7171 23.7987 75.5773 18.7738 71.1859 14.7131C66.7945 10.6524 61.3039 7.69675 55.2574 6.13858C54.9886 6.07045 54.7017 6.08992 54.4472 6.19356C54.1927 6.2972 53.9867 6.4784 53.8655 6.70537C53.7443 6.93233 53.7156 7.19055 53.7843 7.43472C53.8531 7.6789 54.015 7.89342 54.2416 8.04066V8.04066Z" stroke="currentColor" stroke-width="0.5" stroke-linecap="round" stroke-linejoin="round"/>
<path fill-rule="evenodd" clip-rule="evenodd" d="M28.3058 38.4908C29.6606 34.0794 30.5487 30.8565 31.48 25.3899C31.4297 25.4754 38.6822 22.8211 41.8269 21.6372C37.3193 21.0674 31.1492 20.2198 31.2098 20.313C30.3625 16.8339 29.5744 11.3648 27.5903 5C26.7384 9.77507 25.2405 15.2212 24.6167 20.0307C20.7744 21.0302 17.6703 22.0554 14 23.603C18.5113 24.5636 21.3605 25.4915 25.0769 26.3328C26.2018 31.3596 27.0267 34.1804 28.3058 38.4908Z" stroke="currentColor" stroke-width="1.5" stroke-miterlimit="1.5" stroke-linecap="round" stroke-linejoin="round"/>
<path d="M5.74368 25C5.7634 26.313 5.66691 27.6881 5.79423 28.9935" stroke="currentColor" stroke-width="1.5" stroke-miterlimit="1.5" stroke-linecap="round" stroke-linejoin="round"/>
<path d="M2 32.0589C2.7075 32.0704 3.43431 31.955 4.13918 32.0092" stroke="currentColor" stroke-width="1.5" stroke-miterlimit="1.5" stroke-linecap="round" stroke-linejoin="round"/>
<path d="M6.20553 33.9531C6.02084 35.048 6.06105 36.1657 6.05639 37.2745" stroke="currentColor" stroke-width="1.5" stroke-miterlimit="1.5" stroke-linecap="round" stroke-linejoin="round"/>
<path d="M8.37842 31.3775C9.36071 31.4632 10.4029 31.1335 11.3576 31.3631" stroke="currentColor" stroke-width="1.5" stroke-miterlimit="1.5" stroke-linecap="round" stroke-linejoin="round"/>
</svg>
