<svg height="40" width="135" xmlns="http://www.w3.org/2000/svg" xmlns:xlink="http://www.w3.org/1999/xlink"><linearGradient id="a" x1="60.99%" x2="26.536%" y1="4.946%" y2="71.879%"><stop offset="0" stop-color="#00a0ff"/><stop offset=".01" stop-color="#00a1ff"/><stop offset=".26" stop-color="#00beff"/><stop offset=".51" stop-color="#00d2ff"/><stop offset=".76" stop-color="#00dfff"/><stop offset="1" stop-color="#00e3ff"/></linearGradient><linearGradient id="b" x1="107.685%" x2="-130.64%" y1="50%" y2="50%"><stop offset="0" stop-color="#ffe000"/><stop offset=".41" stop-color="#ffbd00"/><stop offset=".78" stop-color="#ffa500"/><stop offset="1" stop-color="#ff9c00"/></linearGradient><linearGradient id="c" x1="86.271%" x2="-50.18%" y1="30.873%" y2="136.109%"><stop offset="0" stop-color="#ff3a44"/><stop offset="1" stop-color="#c31162"/></linearGradient><linearGradient id="d" x1="-18.825%" x2="42.086%" y1="-11.91%" y2="35.079%"><stop offset="0" stop-color="#32a071"/><stop offset=".07" stop-color="#2da771"/><stop offset=".48" stop-color="#15cf74"/><stop offset=".8" stop-color="#06e775"/><stop offset="1" stop-color="#00f076"/></linearGradient><g fill="none"><rect fill="#000" height="40" rx="5" width="135"/><path d="m47.42 10.24a2.72 2.72 0 0 1 -.75 2 2.9 2.9 0 0 1 -2.2.88 3 3 0 0 1 -2.21-.9 3 3 0 0 1 -.91-2.22 3 3 0 0 1 .91-2.23 3.16 3.16 0 0 1 3.44-.65c.36.148.682.377.94.67l-.53.53a2 2 0 0 0 -1.64-.72 2.32 2.32 0 0 0 -2.33 2.4 2.36 2.36 0 0 0 4 1.73 1.93 1.93 0 0 0 .51-1.22h-2.18v-.72h2.91c.022.15.036.3.04.45zm4.58-2.5h-2.7v1.9h2.46v.72h-2.46v1.9h2.7v.74h-3.48v-6h3.48zm3.28 5.26h-.77v-5.26h-1.68v-.74h4.17v.74h-1.72zm4.66 0v-6h.77v6zm4.19 0h-.77v-5.26h-1.68v-.74h4.12v.74h-1.67zm9.48-.78a3.11 3.11 0 0 1 -4.4 0 3 3 0 0 1 -.88-2.22 3 3 0 0 1 .88-2.22 2.93 2.93 0 0 1 2.2-.91 3 3 0 0 1 2.2.91c.58.59.898 1.392.88 2.22a3 3 0 0 1 -.88 2.22zm-3.83-.5a2.29 2.29 0 0 0 3.26 0 2.36 2.36 0 0 0 .67-1.72 2.36 2.36 0 0 0 -.71-1.72 2.29 2.29 0 0 0 -3.26 0 2.36 2.36 0 0 0 -.63 1.72 2.36 2.36 0 0 0 .67 1.72zm5.8 1.28v-6h.93l2.92 4.67v-4.67h.77v6h-.8l-3.05-4.89v4.89z" fill="#fff" stroke="#fff" stroke-width=".2"/><path d="m68.14 21.75a4.26 4.26 0 1 0 4.27 4.25 4.19 4.19 0 0 0 -4.27-4.25zm0 6.83a2.58 2.58 0 1 1 2.4-2.58 2.46 2.46 0 0 1 -2.4 2.58zm-9.32-6.83a4.26 4.26 0 1 0 4.27 4.25 4.19 4.19 0 0 0 -4.27-4.25zm0 6.83a2.58 2.58 0 1 1 2.4-2.58 2.46 2.46 0 0 1 -2.4 2.58zm-11.08-5.52v1.8h4.32a3.77 3.77 0 0 1 -1 2.27 4.42 4.42 0 0 1 -3.34 1.32 4.8 4.8 0 1 1 0-9.6 4.64 4.64 0 0 1 3.28 1.29l1.27-1.27a6.3 6.3 0 0 0 -4.53-1.82 6.61 6.61 0 1 0 0 13.21 6.07 6.07 0 0 0 4.61-1.85 6 6 0 0 0 1.56-4.23 6.27 6.27 0 0 0 -.09-1.12zm45.31 1.4a4 4 0 0 0 -3.64-2.71 4 4 0 0 0 -4 4.25 4.23 4.23 0 0 0 7.76 2.37l-1.45-1a2.41 2.41 0 0 1 -2.09 1.17 2.15 2.15 0 0 1 -2.06-1.29l5.69-2.35zm-5.8 1.42a2.33 2.33 0 0 1 2.23-2.48 1.64 1.64 0 0 1 1.57.9zm-4.62 4.12h1.87v-12.5h-1.87zm-3.06-7.3h-.07a2.94 2.94 0 0 0 -2.24-.95 4.26 4.26 0 0 0 0 8.51 2.88 2.88 0 0 0 2.24-1h.07v.61c0 1.63-.87 2.5-2.27 2.5a2.36 2.36 0 0 1 -2.15-1.51l-1.62.67a4 4 0 0 0 3.77 2.52c2.19 0 4-1.29 4-4.43v-7.62h-1.73zm-2.15 5.88a2.58 2.58 0 0 1 0-5.15 2.39 2.39 0 0 1 2.28 2.57 2.38 2.38 0 0 1 -2.28 2.58zm24.39-11.08h-4.48v12.5h1.87v-4.74h2.61a3.89 3.89 0 1 0 0-7.76zm0 6h-2.61v-4.26h2.65a2.14 2.14 0 0 1 0 4.28zm11.54-1.79a3.49 3.49 0 0 0 -3.33 1.91l1.65.69a1.78 1.78 0 0 1 1.71-.91 1.8 1.8 0 0 1 2 1.61v.12a4.18 4.18 0 0 0 -1.95-.48c-1.78 0-3.6 1-3.6 2.82a2.89 2.89 0 0 0 3.11 2.75 2.65 2.65 0 0 0 2.38-1.22h.06v1h1.8v-4.81c0-2.19-1.66-3.46-3.79-3.46zm-.23 6.85c-.61 0-1.46-.31-1.46-1.06 0-1 1.06-1.34 2-1.34a3.32 3.32 0 0 1 1.7.42 2.26 2.26 0 0 1 -2.2 2zm10.62-6.56-2.14 5.42h-.06l-2.22-5.42h-2l3.33 7.58-1.9 4.21h2l5.07-11.79zm-16.8 8h1.86v-12.5h-1.86z" fill="#fff"/><path d="m10.44 7.54a2 2 0 0 0 -.44 1.4v22.12a1.94 1.94 0 0 0 .47 1.4l.07.08 12.36-12.39v-.3l-12.39-12.38z" fill="url(#a)"/><path d="m27 24.28-4.1-4.13v-.3l4.1-4.13.09.06 4.91 2.78c1.4.79 1.4 2.09 0 2.89l-4.89 2.78z" fill="url(#b)"/><path d="m27.12 24.23-4.22-4.23-12.46 12.46a1.62 1.62 0 0 0 2.07.07z" fill="url(#c)"/><path d="m27.12 15.78-14.61-8.3a1.61 1.61 0 0 0 -2.07.06l12.46 12.46z" fill="url(#d)"/><path d="m27 24.13-14.49 8.25a1.66 1.66 0 0 1 -2 0l-.07.07.07.08a1.66 1.66 0 0 0 2 0l14.61-8.3z" fill="#000" opacity=".2"/><path d="m10.44 32.32a2 2 0 0 1 -.44-1.41v.15a1.94 1.94 0 0 0 .47 1.4l.07-.07zm21.56-11.02-5 2.83.09.1 4.91-2.79a1.75 1.75 0 0 0 1.06-1.44 1.86 1.86 0 0 1 -1.06 1.3z" fill="#000" opacity=".12"/><path d="m12.51 7.62 19.49 11.08c.54.24.933.723 1.06 1.3a1.75 1.75 0 0 0 -1.06-1.44l-19.49-11.08c-1.39-.8-2.51-.14-2.51 1.46v.15c0-1.6 1.12-2.26 2.51-1.47z" fill="#fff" opacity=".25"/></g></svg>