
<?xml version="1.0" encoding="utf-8"?>
<!-- Generator: Adobe Illustrator 15.1.0, SVG Export Plug-In . SVG Version: 6.00 Build 0)  -->
<!DOCTYPE svg PUBLIC "-//W3C//DTD SVG 1.1//EN" "http://www.w3.org/Graphics/SVG/1.1/DTD/svg11.dtd">
<svg version="1.1" xmlns="http://www.w3.org/2000/svg" xmlns:xlink="http://www.w3.org/1999/xlink" x="0px" y="0px" width="462px"
	 height="52px" viewBox="0 0 462 52" enable-background="new 0 0 462 52" xml:space="preserve">
<g id="Layer_3">
	<g>
		<g>
			<path fill-rule="evenodd" clip-rule="evenodd" fill="#F8EBD9" d="M456.531,0.922L5.156,0.953c-2.209,0-4,1.791-4,4v42
				c0,2.209,1.791,4,4,4l451.375-0.031c2.209,0,4-1.791,4-4v-42C460.531,2.713,458.74,0.922,456.531,0.922z M340.722,42.826
				l-4.19,4.096h-135l-68.375,0.031h-8l-4.19-4.096c-8.844-0.254-15.936-7.497-15.936-16.402c0-8.926,7.126-16.183,15.999-16.404
				l4.127-4.098h8l68.375-0.031h135l4.127,4.098c8.873,0.221,15.999,7.478,15.999,16.404
				C356.657,35.329,349.564,42.572,340.722,42.826z"/>
		</g>
	</g>
</g>
<g id="Layer_1">
	<path fill-rule="evenodd" clip-rule="evenodd" fill="none" stroke="#865520" stroke-width="0.75" stroke-miterlimit="10" d="
		M235.71,6.152h100.781c0.134,0.1,0.267,0.2,0.4,0.3c1.1,0.8,2.149,1.7,3.149,2.7c0.4,0.4,0.783,0.817,1.15,1.25
		c4.1,0.133,7.616,1.684,10.55,4.65c0.833,0.833,1.566,1.733,2.2,2.7c0.544,0.827,1.003,1.694,1.375,2.6
		c0.727,1.799,1.102,3.749,1.125,5.85 M424.441,16.203c0.3,0,0.6,0,0.9,0c1.6,0.066,3.166,0.25,4.699,0.55
		c2.134,0.433,4.15,1.133,6.051,2.1c2.466,1.233,4.733,2.883,6.8,4.95c0.833,0.833,1.583,1.684,2.25,2.55
		c3.633-4.566,5.45-9.899,5.45-16h-38.051c-4.267,0.1-7.916,1.667-10.949,4.7c-0.801,0.8-1.5,1.667-2.101,2.6 M396.041,15.152
		c0.399-0.605,0.832-1.188,1.301-1.75c0.399-0.467,0.816-0.917,1.25-1.35c0.633-0.6,1.283-1.167,1.949-1.7h-11.449
		c0.666,0.533,1.3,1.1,1.899,1.7c1.601,1.6,2.884,3.333,3.851,5.2c1.366,2.667,2.066,5.617,2.1,8.85v0.601
		c0.066,3.167,0.917,5.983,2.55,8.45c0.601,0.9,1.3,1.75,2.101,2.551c3.033,3.033,6.683,4.6,10.949,4.699l38.051-0.051
		c0-6.066-1.817-11.398-5.45-16c-0.667,0.867-1.417,1.701-2.25,2.5c-2.066,2.102-4.316,3.783-6.75,5.051
		c-1.934,0.967-3.95,1.666-6.05,2.1c-1.534,0.301-3.117,0.484-4.75,0.551c-0.301,0-0.601,0-0.9,0 M356.441,26.203
		c0,0.066,0,0.134,0,0.2c0,2.244,0.316,4.361,0.95,6.349c0.31,0.963,0.692,1.896,1.149,2.801c0.934,1.832,2.2,3.549,3.801,5.15
		c3.833,3.832,8.449,5.816,13.85,5.949h79 M356.441,26.203c-0.002,0.065-0.002,0.132,0,0.2 M455.191,6.152h-79
		c-5.4,0.133-10.017,2.1-13.85,5.9c-1.601,1.6-2.867,3.35-3.801,5.25 M353.941,35.053c-0.634,0.934-1.367,1.816-2.2,2.65
		c-2.934,2.965-6.45,4.533-10.55,4.699c-0.367,0.4-0.75,0.801-1.15,1.199c-1.033,1.033-2.1,1.951-3.2,2.75
		c-0.133,0.102-0.267,0.201-0.399,0.301h-101.25h3.95 M394.791,35.602c-0.933,1.834-2.199,3.533-3.8,5.102
		c-0.6,0.6-1.217,1.166-1.85,1.699h11.35c-0.666-0.533-1.3-1.1-1.899-1.699c-0.434-0.434-0.834-0.867-1.2-1.301
		c-0.423-0.504-0.814-1.014-1.175-1.525 M239.991,6.152h-0.8"/>
	<path fill-rule="evenodd" clip-rule="evenodd" fill="none" stroke="#865520" stroke-width="0.75" stroke-miterlimit="10" d="
		M235.191,50.803h221.3c2.667,0,4-1.334,4-4v-41.8c0-2.667-1.333-4-4-4h-221.3"/>
	<path fill-rule="evenodd" clip-rule="evenodd" fill="none" stroke="#865520" stroke-width="0.75" stroke-miterlimit="10" d="
		M351.785,37.703c0.801-0.801,1.5-1.65,2.101-2.551c1.633-2.467,2.483-5.283,2.55-8.45v-0.601c0.033-3.233,0.733-6.183,2.1-8.85
		c0.967-1.867,2.25-3.6,3.851-5.2"/>
	<path fill-rule="evenodd" clip-rule="evenodd" fill="none" stroke="#865520" stroke-width="0.75" stroke-miterlimit="10" d="
		M359.491,9.152c1.134-1.133,2.334-2.133,3.601-3h-22.15c5.366,0.133,9.95,2.1,13.75,5.9c0.467,0.467,0.917,0.95,1.35,1.45
		C356.975,11.969,358.125,10.519,359.491,9.152z"/>
	<path fill-rule="evenodd" clip-rule="evenodd" fill="none" stroke="#865520" stroke-width="0.75" stroke-miterlimit="10" d="
		M359.491,43.602c-1.366-1.365-2.517-2.799-3.45-4.299c-0.433,0.467-0.883,0.934-1.35,1.4c-3.8,3.832-8.384,5.816-13.75,5.949h22.2
		C361.875,45.785,360.658,44.77,359.491,43.602z"/>
	<path fill-rule="evenodd" clip-rule="evenodd" fill="none" stroke="#865520" stroke-width="0.75" stroke-miterlimit="10" d="
		M450.691,26.252c2.8,4.466,4.3,9.466,4.5,15v-30.35c-0.134,4.934-1.267,9.434-3.4,13.5
		C451.458,25.036,451.092,25.652,450.691,26.252z"/>
	<path fill-rule="evenodd" clip-rule="evenodd" fill="none" stroke="#865520" stroke-width="0.75" stroke-miterlimit="10" d="
		M446.942,13.502c0,0-0.25,3.417-2,6.75c0.001,0.001-4.251-5.25-12.75-6.667"/>
	<path fill-rule="evenodd" clip-rule="evenodd" fill="none" stroke="#865520" stroke-width="0.75" stroke-miterlimit="10" d="
		M446.942,39.336c0,0-0.25-3.416-2-6.75c0.001-0.002-4.251,5.25-12.75,6.666"/>
	<g>
		<path fill-rule="evenodd" clip-rule="evenodd" fill="none" stroke="#865520" stroke-width="0.75" stroke-miterlimit="10" d="
			M413.841,37.842"/>
		<path fill-rule="evenodd" clip-rule="evenodd" fill="none" stroke="#865520" stroke-width="0.75" stroke-miterlimit="10" d="
			M413.841,14.932"/>
		<path fill-rule="evenodd" clip-rule="evenodd" fill="none" stroke="#865520" stroke-width="0.75" stroke-miterlimit="10" d="
			M408.924,26.388c0-4.511,1.893-8.571,4.917-11.456c-0.354-0.033-0.712-0.054-1.075-0.054c-6.356,0-11.508,5.153-11.508,11.51
			c0,6.356,5.151,11.508,11.508,11.508c0.363,0,0.721-0.021,1.075-0.055C410.816,34.957,408.924,30.898,408.924,26.388z"/>
		<path fill-rule="evenodd" clip-rule="evenodd" fill="none" stroke="#865520" stroke-width="0.75" stroke-miterlimit="10" d="
			M413.841,14.932c-3.024,2.885-4.917,6.945-4.917,11.456c0,4.51,1.893,8.569,4.917,11.454"/>
	</g>
	<path fill-rule="evenodd" clip-rule="evenodd" fill="none" stroke="#865520" stroke-width="0.75" stroke-miterlimit="10" d="
		M377.759,15.975c0.681,1.113,1.02,2.442,1.02,3.988c0,0.68-0.062,1.33-0.186,1.948c0.31-0.495,0.712-0.989,1.206-1.483
		c1.113-1.114,2.272-1.84,3.479-2.18c0.649-0.155,1.206-0.155,1.67,0c0.093,0.402,0.062,0.928-0.093,1.577
		c-0.279,1.268-0.975,2.458-2.088,3.571c-0.495,0.495-0.988,0.896-1.483,1.206c0.587-0.124,1.236-0.186,1.947-0.186
		c1.547,0,2.877,0.31,3.988,0.928c0.589,0.34,0.976,0.726,1.16,1.16c-0.185,0.371-0.571,0.726-1.16,1.066
		c-1.111,0.682-2.441,1.021-3.988,1.021c-0.711,0-1.36-0.062-1.947-0.186c0.525,0.34,1.036,0.758,1.53,1.252
		c1.113,1.113,1.84,2.271,2.181,3.479c0.154,0.648,0.154,1.205,0,1.67c-0.402,0.092-0.929,0.061-1.577-0.094
		c-1.268-0.277-2.459-0.973-3.571-2.086c-0.526-0.527-0.943-1.053-1.253-1.578c0.124,0.619,0.186,1.283,0.186,1.994
		c0,1.547-0.309,2.877-0.927,3.988c-0.34,0.588-0.728,0.975-1.16,1.16c-0.371-0.186-0.727-0.572-1.067-1.16
		c-0.681-1.111-1.02-2.441-1.02-3.988c0-0.711,0.077-1.359,0.232-1.947c-0.372,0.525-0.804,1.035-1.3,1.531
		c-1.112,1.113-2.272,1.84-3.479,2.18c-0.648,0.154-1.205,0.154-1.67,0c-0.092-0.402-0.061-0.928,0.094-1.578
		c0.278-1.268,0.974-2.457,2.088-3.57c0.525-0.525,1.051-0.943,1.575-1.252c-0.617,0.123-1.282,0.186-1.993,0.186
		c-1.546,0-2.876-0.311-3.988-0.928c-0.589-0.34-0.976-0.726-1.16-1.16c0.185-0.371,0.571-0.727,1.16-1.066
		c1.112-0.681,2.442-1.021,3.988-1.021c0.711,0,1.36,0.077,1.947,0.231c-0.525-0.371-1.035-0.804-1.529-1.298
		c-1.114-1.114-1.841-2.273-2.182-3.479c-0.153-0.649-0.153-1.206,0-1.669c0.403-0.092,0.929-0.062,1.577,0.093
		c1.268,0.278,2.459,0.974,3.571,2.087c0.526,0.526,0.943,1.051,1.253,1.577c-0.124-0.619-0.186-1.284-0.186-1.995
		c0-1.546,0.309-2.875,0.928-3.988c0.339-0.588,0.727-0.974,1.159-1.16C377.062,15,377.418,15.387,377.759,15.975z"/>
	<path fill-rule="evenodd" clip-rule="evenodd" fill="none" stroke="#865520" stroke-width="0.75" stroke-miterlimit="10" d="
		M374.79,21.958c0.402,0.618,0.665,1.268,0.788,1.948c0,0.03,0.016,0.077,0.046,0.139c0.001,0.032,0.018,0.062,0.047,0.093
		c0.31-0.155,0.649-0.231,1.021-0.231c0.34,0,0.65,0.062,0.928,0.185c0-0.093,0.015-0.17,0.047-0.232
		c0.186-0.68,0.493-1.329,0.927-1.948"/>
	<path fill-rule="evenodd" clip-rule="evenodd" fill="none" stroke="#865520" stroke-width="0.75" stroke-miterlimit="10" d="
		M372.1,24.647c0.619,0.402,1.253,0.681,1.901,0.835c0.093,0.03,0.186,0.046,0.278,0.046c0,0.03,0.032,0.046,0.093,0.046
		c0.093-0.372,0.279-0.696,0.557-0.974c0.216-0.217,0.448-0.372,0.695-0.464c0-0.03,0-0.061,0-0.093"/>
	
		<line fill-rule="evenodd" clip-rule="evenodd" fill="none" stroke="#865520" stroke-width="0.75" stroke-miterlimit="10" x1="375.624" y1="24.137" x2="375.671" y2="24.137"/>
	<path fill-rule="evenodd" clip-rule="evenodd" fill="none" stroke="#865520" stroke-width="0.75" stroke-miterlimit="10" d="
		M372.146,28.404c0.619-0.402,1.269-0.666,1.948-0.789c0.032,0,0.078,0,0.139,0c0.063-0.062,0.14-0.123,0.232-0.186
		c-0.153-0.309-0.232-0.665-0.232-1.066c0-0.279,0.047-0.542,0.14-0.789"/>
	<path fill-rule="evenodd" clip-rule="evenodd" fill="none" stroke="#865520" stroke-width="0.75" stroke-miterlimit="10" d="
		M374.232,27.615c0.094-0.031,0.186-0.062,0.28-0.094c-0.032-0.029-0.048-0.061-0.048-0.092"/>
	<path fill-rule="evenodd" clip-rule="evenodd" fill="none" stroke="#865520" stroke-width="0.75" stroke-miterlimit="10" d="
		M377.619,24.091c0.278,0.093,0.54,0.263,0.788,0.51c0.278,0.278,0.479,0.587,0.604,0.928c0.03-0.031,0.061-0.046,0.093-0.046
		c0.031-0.031,0.077-0.046,0.139-0.046c0.711-0.155,1.392-0.433,2.041-0.835"/>
	<path fill-rule="evenodd" clip-rule="evenodd" fill="none" stroke="#865520" stroke-width="0.75" stroke-miterlimit="10" d="
		M379.011,25.529c0.093,0.247,0.14,0.525,0.14,0.835c0,0.371-0.062,0.695-0.186,0.972c0.03,0.062,0.092,0.109,0.186,0.141
		c0.061,0,0.139,0.016,0.231,0.045c0.648,0.156,1.282,0.449,1.901,0.883"/>
	<path fill-rule="evenodd" clip-rule="evenodd" fill="none" stroke="#865520" stroke-width="0.75" stroke-miterlimit="10" d="
		M379.15,27.477c-0.094,0-0.171-0.016-0.232-0.047c-0.124,0.248-0.294,0.465-0.511,0.65c-0.216,0.215-0.448,0.4-0.695,0.555
		c0.031,0.094,0.062,0.217,0.093,0.371c0,0.031,0,0.062,0,0.094c0.123,0.68,0.387,1.33,0.788,1.947"/>
	<path fill-rule="evenodd" clip-rule="evenodd" fill="none" stroke="#865520" stroke-width="0.75" stroke-miterlimit="10" d="
		M378.965,27.336c-0.031,0.031-0.047,0.062-0.047,0.094"/>
	<path fill-rule="evenodd" clip-rule="evenodd" fill="none" stroke="#865520" stroke-width="0.75" stroke-miterlimit="10" d="
		M377.805,29.006c-0.093-0.123-0.171-0.23-0.231-0.324c-0.279,0.094-0.572,0.139-0.882,0.139c-0.278,0-0.541-0.045-0.787-0.139
		c-0.063,0.094-0.125,0.186-0.187,0.279c0,0.061-0.016,0.139-0.047,0.23c-0.154,0.65-0.433,1.283-0.834,1.902"/>
	<path fill-rule="evenodd" clip-rule="evenodd" fill="none" stroke="#865520" stroke-width="0.75" stroke-miterlimit="10" d="
		M377.712,28.635c-0.062,0-0.108,0.016-0.139,0.047"/>
	<path fill-rule="evenodd" clip-rule="evenodd" fill="none" stroke="#865520" stroke-width="0.75" stroke-miterlimit="10" d="
		M375.718,28.961c0.031-0.125,0.046-0.232,0.046-0.326c-0.309-0.123-0.587-0.309-0.835-0.555c-0.154-0.156-0.294-0.342-0.416-0.559"
		/>
	<path fill-rule="evenodd" clip-rule="evenodd" fill="none" stroke="#865520" stroke-width="0.75" stroke-miterlimit="10" d="
		M375.904,28.682c-0.063,0-0.109-0.016-0.141-0.047"/>
	<path fill-rule="evenodd" clip-rule="evenodd" fill="none" stroke="#865520" stroke-width="0.75" stroke-miterlimit="10" d="
		M387.991,15.052c3.066,3.067,4.634,6.75,4.7,11.05v0.601c-0.066,4.299-1.634,7.965-4.7,11c-3.1,3.133-6.866,4.699-11.3,4.699
		s-8.217-1.566-11.35-4.699c-3.101-3.102-4.65-6.867-4.65-11.3c0-4.434,1.55-8.217,4.65-11.351c3.133-3.133,6.916-4.7,11.35-4.7
		S384.892,11.919,387.991,15.052z"/>
	<path fill-rule="evenodd" clip-rule="evenodd" fill="none" stroke="#865520" stroke-width="0.75" stroke-miterlimit="10" d="
		M433.457,21.076"/>
	<path fill-rule="evenodd" clip-rule="evenodd" fill="none" stroke="#865520" stroke-width="0.75" stroke-miterlimit="10" d="
		M433.457,31.699"/>
	<path fill-rule="evenodd" clip-rule="evenodd" fill="none" stroke="#865520" stroke-width="0.75" stroke-miterlimit="10" d="
		M433.457,31.699c0.948-1.549,1.505-3.363,1.505-5.311c0-1.949-0.557-3.764-1.505-5.312"/>
	<path fill-rule="evenodd" clip-rule="evenodd" fill="none" stroke="#865520" stroke-width="0.75" stroke-miterlimit="10" d="
		M424.765,16.21c-5.62,0-10.176,4.556-10.176,10.177s4.556,10.177,10.176,10.177"/>
	
		<circle fill-rule="evenodd" clip-rule="evenodd" fill="none" stroke="#865520" stroke-width="0.75" stroke-miterlimit="10" cx="424.766" cy="26.387" r="5.343"/>
	
		<circle fill-rule="evenodd" clip-rule="evenodd" fill="none" stroke="#865520" stroke-width="0.75" stroke-miterlimit="10" cx="376.739" cy="26.399" r="2.396"/>
	<path fill-rule="evenodd" clip-rule="evenodd" fill="none" stroke="#865520" stroke-width="0.75" stroke-miterlimit="10" d="
		M381.595,15.396h0.046c0.154,0.185,0.231,0.386,0.231,0.602c0,0.03,0,0.077,0,0.139c-0.03,0.154-0.108,0.293-0.231,0.417
		c-0.154,0.185-0.34,0.278-0.555,0.278c-0.247,0-0.448-0.093-0.603-0.278c-0.154-0.154-0.231-0.339-0.231-0.555
		c0-0.216,0.077-0.417,0.231-0.602c0.154-0.154,0.355-0.231,0.603-0.231C381.301,15.164,381.471,15.241,381.595,15.396z"/>
	<path fill-rule="evenodd" clip-rule="evenodd" fill="none" stroke="#865520" stroke-width="0.75" stroke-miterlimit="10" d="
		M371.737,15.349c0.153-0.155,0.339-0.216,0.555-0.185l0.046-0.046c0.217,0.031,0.401,0.123,0.557,0.277
		c0.03,0.031,0.061,0.062,0.092,0.092c0.092,0.154,0.14,0.293,0.14,0.416c0.029,0.278-0.032,0.495-0.186,0.648
		c-0.154,0.154-0.372,0.216-0.648,0.185c-0.216,0.031-0.401-0.031-0.555-0.185c-0.155-0.154-0.231-0.355-0.231-0.601
		C371.506,15.704,371.582,15.503,371.737,15.349z"/>
	<path fill-rule="evenodd" clip-rule="evenodd" fill="none" stroke="#865520" stroke-width="0.75" stroke-miterlimit="10" d="
		M366.321,21.319c0.155,0.031,0.294,0.108,0.417,0.232c0.186,0.154,0.277,0.339,0.277,0.555c0,0.247-0.092,0.447-0.277,0.602
		c-0.154,0.154-0.339,0.231-0.555,0.231c-0.217,0-0.418-0.077-0.603-0.231c-0.153-0.154-0.231-0.355-0.231-0.602
		c0-0.216,0.078-0.386,0.231-0.509v-0.046c0.185-0.154,0.386-0.232,0.603-0.232C366.214,21.319,366.261,21.319,366.321,21.319z"/>
	<path fill-rule="evenodd" clip-rule="evenodd" fill="none" stroke="#865520" stroke-width="0.75" stroke-miterlimit="10" d="
		M365.674,30.205c0.154-0.094,0.293-0.139,0.417-0.139c0.277-0.031,0.493,0.029,0.647,0.184c0.155,0.154,0.217,0.371,0.186,0.648
		c0.031,0.217-0.03,0.4-0.186,0.555c-0.154,0.154-0.355,0.232-0.602,0.232c-0.247,0-0.448-0.078-0.602-0.232
		c-0.154-0.154-0.215-0.338-0.186-0.555l-0.046-0.045c0.03-0.217,0.124-0.402,0.277-0.557
		C365.612,30.266,365.643,30.234,365.674,30.205z"/>
	<path fill-rule="evenodd" clip-rule="evenodd" fill="none" stroke="#865520" stroke-width="0.75" stroke-miterlimit="10" d="
		M373.126,37.008c0,0.215-0.079,0.416-0.231,0.602c-0.155,0.154-0.355,0.23-0.603,0.23c-0.216,0-0.387-0.076-0.509-0.23h-0.046
		c-0.155-0.186-0.231-0.387-0.231-0.602c0-0.031,0-0.078,0-0.139c0.03-0.154,0.107-0.293,0.231-0.416
		c0.153-0.186,0.339-0.277,0.555-0.277c0.247,0,0.447,0.092,0.603,0.277C373.047,36.607,373.126,36.791,373.126,37.008z"/>
	<path fill-rule="evenodd" clip-rule="evenodd" fill="none" stroke="#865520" stroke-width="0.75" stroke-miterlimit="10" d="
		M387.193,21.366c0.247,0,0.448,0.077,0.602,0.231c0.155,0.154,0.216,0.34,0.187,0.555l0.046,0.047
		c-0.031,0.216-0.125,0.401-0.278,0.556c-0.03,0.03-0.061,0.062-0.094,0.092c-0.152,0.093-0.291,0.139-0.415,0.139
		c-0.278,0.031-0.494-0.031-0.647-0.185c-0.155-0.154-0.217-0.371-0.186-0.648c-0.031-0.215,0.03-0.401,0.186-0.555
		C386.746,21.442,386.946,21.366,387.193,21.366z"/>
	<path fill-rule="evenodd" clip-rule="evenodd" fill="none" stroke="#865520" stroke-width="0.75" stroke-miterlimit="10" d="
		M380.252,37.102c-0.03-0.279,0.031-0.494,0.185-0.648c0.155-0.154,0.371-0.217,0.649-0.186c0.215-0.031,0.4,0.031,0.555,0.186
		s0.231,0.354,0.231,0.602c0,0.246-0.077,0.447-0.231,0.6c-0.154,0.156-0.34,0.217-0.555,0.186l-0.047,0.047
		c-0.217-0.031-0.401-0.123-0.556-0.277c-0.03-0.031-0.062-0.062-0.093-0.092C380.299,37.363,380.252,37.223,380.252,37.102z"/>
	<path fill-rule="evenodd" clip-rule="evenodd" fill="none" stroke="#865520" stroke-width="0.75" stroke-miterlimit="10" d="
		M388.027,30.898c0,0.217-0.077,0.387-0.232,0.51v0.045c-0.185,0.154-0.385,0.232-0.602,0.232c-0.03,0-0.076,0-0.138,0
		c-0.154-0.031-0.293-0.107-0.417-0.232c-0.185-0.154-0.277-0.338-0.277-0.555c0-0.246,0.093-0.447,0.277-0.602
		c0.154-0.154,0.34-0.23,0.555-0.23c0.217,0,0.417,0.076,0.602,0.23C387.95,30.451,388.027,30.652,388.027,30.898z"/>
	<path fill-rule="evenodd" clip-rule="evenodd" fill="none" stroke="#865520" stroke-width="0.75" stroke-miterlimit="10" d="
		M424.818,25.678c0.247,0,0.448,0.077,0.602,0.231c0.155,0.154,0.216,0.339,0.187,0.555l0.046,0.047
		c-0.031,0.216-0.125,0.401-0.278,0.555c-0.03,0.031-0.061,0.062-0.094,0.092c-0.152,0.094-0.291,0.139-0.415,0.139
		c-0.278,0.031-0.494-0.031-0.647-0.184c-0.155-0.155-0.217-0.371-0.186-0.649c-0.031-0.216,0.03-0.401,0.186-0.555
		C424.371,25.755,424.571,25.678,424.818,25.678z"/>
	<path fill-rule="evenodd" clip-rule="evenodd" fill="none" stroke="#865520" stroke-width="0.75" stroke-miterlimit="10" d="
		M404.818,25.678c0.247,0,0.448,0.077,0.602,0.231c0.155,0.154,0.216,0.339,0.187,0.555l0.046,0.047
		c-0.031,0.216-0.125,0.401-0.278,0.555c-0.03,0.031-0.061,0.062-0.094,0.092c-0.152,0.094-0.291,0.139-0.415,0.139
		c-0.278,0.031-0.494-0.031-0.647-0.184c-0.155-0.155-0.217-0.371-0.186-0.649c-0.031-0.216,0.03-0.401,0.186-0.555
		C404.371,25.755,404.571,25.678,404.818,25.678z"/>
	<path fill-rule="evenodd" clip-rule="evenodd" fill="none" stroke="#865520" stroke-width="0.75" stroke-miterlimit="10" d="
		M442.985,13.345c0.247,0,0.448,0.077,0.602,0.231c0.155,0.154,0.216,0.34,0.187,0.555l0.046,0.047
		c-0.031,0.216-0.125,0.401-0.278,0.556c-0.03,0.03-0.061,0.062-0.094,0.092c-0.152,0.093-0.291,0.139-0.415,0.139
		c-0.278,0.031-0.494-0.031-0.647-0.185c-0.155-0.154-0.217-0.371-0.186-0.648c-0.031-0.215,0.03-0.401,0.186-0.555
		C442.538,13.421,442.738,13.345,442.985,13.345z"/>
	<path fill-rule="evenodd" clip-rule="evenodd" fill="none" stroke="#865520" stroke-width="0.75" stroke-miterlimit="10" d="
		M355.568,8.011c0.247,0,0.448,0.077,0.602,0.231c0.155,0.154,0.216,0.34,0.187,0.555l0.046,0.047
		c-0.031,0.216-0.125,0.401-0.278,0.556c-0.03,0.03-0.061,0.062-0.094,0.092c-0.152,0.093-0.291,0.139-0.415,0.139
		c-0.278,0.031-0.494-0.031-0.647-0.185c-0.155-0.154-0.217-0.371-0.186-0.648c-0.031-0.215,0.03-0.401,0.186-0.555
		C355.121,8.088,355.321,8.011,355.568,8.011z"/>
	<path fill-rule="evenodd" clip-rule="evenodd" fill="none" stroke="#865520" stroke-width="0.75" stroke-miterlimit="10" d="
		M355.568,43.178c0.247,0,0.448,0.076,0.602,0.23c0.155,0.154,0.216,0.34,0.187,0.555l0.046,0.047
		c-0.031,0.217-0.125,0.402-0.278,0.557c-0.03,0.029-0.061,0.061-0.094,0.092c-0.152,0.092-0.291,0.139-0.415,0.139
		c-0.278,0.031-0.494-0.031-0.647-0.186c-0.155-0.154-0.217-0.369-0.186-0.648c-0.031-0.215,0.03-0.4,0.186-0.555
		C355.121,43.254,355.321,43.178,355.568,43.178z"/>
	<path fill-rule="evenodd" clip-rule="evenodd" fill="none" stroke="#865520" stroke-width="0.75" stroke-miterlimit="10" d="
		M442.985,37.928c0.247,0,0.448,0.076,0.602,0.23c0.155,0.154,0.216,0.34,0.187,0.555l0.046,0.047
		c-0.031,0.217-0.125,0.402-0.278,0.557c-0.03,0.029-0.061,0.061-0.094,0.092c-0.152,0.092-0.291,0.139-0.415,0.139
		c-0.278,0.031-0.494-0.031-0.647-0.186c-0.155-0.154-0.217-0.369-0.186-0.648c-0.031-0.215,0.03-0.4,0.186-0.555
		C442.538,38.004,442.738,37.928,442.985,37.928z"/>
	<path fill-rule="evenodd" clip-rule="evenodd" fill="none" stroke="#865520" stroke-width="0.75" stroke-miterlimit="10" d="
		M417.36,13.345c0.247,0,0.448,0.077,0.602,0.231c0.155,0.154,0.216,0.34,0.187,0.555l0.046,0.047
		c-0.031,0.216-0.125,0.401-0.278,0.556c-0.03,0.03-0.061,0.062-0.094,0.092c-0.152,0.093-0.291,0.139-0.415,0.139
		c-0.278,0.031-0.494-0.031-0.647-0.185c-0.155-0.154-0.217-0.371-0.186-0.648c-0.031-0.215,0.03-0.401,0.186-0.555
		C416.913,13.421,417.113,13.345,417.36,13.345z"/>
	<path fill-rule="evenodd" clip-rule="evenodd" fill="none" stroke="#865520" stroke-width="0.75" stroke-miterlimit="10" d="
		M417.36,37.928c0.247,0,0.448,0.076,0.602,0.23c0.155,0.154,0.216,0.34,0.187,0.555l0.046,0.047
		c-0.031,0.217-0.125,0.402-0.278,0.557c-0.03,0.029-0.061,0.061-0.094,0.092c-0.152,0.092-0.291,0.139-0.415,0.139
		c-0.278,0.031-0.494-0.031-0.647-0.186c-0.155-0.154-0.217-0.369-0.186-0.648c-0.031-0.215,0.03-0.4,0.186-0.555
		C416.913,38.004,417.113,37.928,417.36,37.928z"/>
	<path fill-rule="evenodd" clip-rule="evenodd" fill="none" stroke="#865520" stroke-width="0.75" stroke-miterlimit="10" d="
		M438.99,25.076c0.298,0,0.539,0.092,0.725,0.278s0.259,0.408,0.224,0.668l0.055,0.057c-0.037,0.259-0.15,0.481-0.334,0.668
		c-0.037,0.035-0.073,0.073-0.112,0.109c-0.184,0.111-0.351,0.167-0.5,0.167c-0.335,0.037-0.594-0.037-0.777-0.222
		c-0.188-0.186-0.261-0.445-0.224-0.779c-0.037-0.26,0.036-0.482,0.224-0.668C438.453,25.168,438.694,25.076,438.99,25.076z"/>
	<path fill-rule="evenodd" clip-rule="evenodd" fill="none" stroke="#865520" stroke-width="0.75" stroke-miterlimit="10" d="
		M405.725,21.709c0.247,0,0.448,0.077,0.602,0.231c0.155,0.154,0.216,0.34,0.187,0.555l0.046,0.047
		c-0.031,0.216-0.125,0.401-0.278,0.556c-0.03,0.03-0.061,0.062-0.094,0.092c-0.152,0.093-0.291,0.139-0.415,0.139
		c-0.278,0.031-0.494-0.031-0.647-0.185c-0.155-0.154-0.217-0.371-0.186-0.648c-0.031-0.215,0.03-0.401,0.186-0.555
		C405.277,21.786,405.478,21.709,405.725,21.709z"/>
	<path fill-rule="evenodd" clip-rule="evenodd" fill="none" stroke="#865520" stroke-width="0.75" stroke-miterlimit="10" d="
		M405.725,29.709c0.247,0,0.448,0.076,0.602,0.23c0.155,0.154,0.216,0.34,0.187,0.557l0.046,0.047
		c-0.031,0.215-0.125,0.4-0.278,0.555c-0.03,0.031-0.061,0.062-0.094,0.092c-0.152,0.094-0.291,0.139-0.415,0.139
		c-0.278,0.031-0.494-0.031-0.647-0.184c-0.155-0.154-0.217-0.371-0.186-0.648c-0.031-0.217,0.03-0.402,0.186-0.557
		C405.277,29.785,405.478,29.709,405.725,29.709z"/>
</g>
<g id="Layer_1_copy">
	<path fill-rule="evenodd" clip-rule="evenodd" fill="none" stroke="#865520" stroke-width="0.75" stroke-miterlimit="10" d="
		M105.242,26.203c0.023-2.101,0.398-4.051,1.125-5.85c0.372-0.906,0.831-1.773,1.375-2.6c0.634-0.967,1.367-1.867,2.2-2.7
		c2.934-2.966,6.45-4.517,10.55-4.65c0.367-0.433,0.75-0.85,1.15-1.25c1-1,2.05-1.9,3.149-2.7c0.134-0.1,0.267-0.2,0.4-0.3h110.781
		 M62.192,17.652c-0.601-0.933-1.3-1.8-2.101-2.6c-3.033-3.033-6.683-4.6-10.949-4.7H11.092c0,6.1,1.817,11.433,5.45,16
		c0.667-0.866,1.417-1.716,2.25-2.55c2.066-2.066,4.334-3.716,6.8-4.95c1.9-0.967,3.917-1.667,6.051-2.1
		c1.533-0.3,3.1-0.483,4.699-0.55c0.301,0,0.601,0,0.9,0 M37.242,36.553c-0.3,0-0.6,0-0.9,0c-1.633-0.066-3.216-0.25-4.75-0.551
		c-2.1-0.434-4.116-1.133-6.05-2.1c-2.434-1.268-4.684-2.949-6.75-5.051c-0.833-0.799-1.583-1.633-2.25-2.5
		c-3.633,4.601-5.45,9.933-5.45,16l38.051,0.051c4.267-0.1,7.916-1.666,10.949-4.699c0.801-0.801,1.5-1.65,2.101-2.551
		c1.633-2.467,2.483-5.283,2.55-8.45v-0.601c0.033-3.233,0.733-6.183,2.1-8.85c0.967-1.867,2.25-3.6,3.851-5.2
		c0.6-0.6,1.233-1.167,1.899-1.7H61.143c0.666,0.533,1.316,1.1,1.949,1.7c0.434,0.434,0.851,0.883,1.25,1.35
		c0.469,0.562,0.901,1.145,1.301,1.75 M6.492,46.652h79c5.4-0.133,10.017-2.117,13.85-5.949c1.601-1.602,2.867-3.318,3.801-5.15
		c0.457-0.904,0.84-1.838,1.149-2.801c0.634-1.988,0.95-4.105,0.95-6.349c0-0.066,0-0.134,0-0.2 M105.242,26.403
		c0.002-0.068,0.002-0.135,0-0.2 M103.143,17.302c-0.934-1.9-2.2-3.65-3.801-5.25c-3.833-3.8-8.449-5.767-13.85-5.9h-79
		 M232.542,46.652h3.95h-111.25c-0.133-0.1-0.267-0.199-0.399-0.301c-1.101-0.799-2.167-1.717-3.2-2.75
		c-0.4-0.398-0.783-0.799-1.15-1.199c-4.1-0.166-7.616-1.734-10.55-4.699c-0.833-0.834-1.566-1.717-2.2-2.65 M65.467,37.877
		c-0.36,0.512-0.752,1.021-1.175,1.525c-0.366,0.434-0.767,0.867-1.2,1.301c-0.6,0.6-1.233,1.166-1.899,1.699h11.35
		c-0.633-0.533-1.25-1.1-1.85-1.699c-1.601-1.568-2.867-3.268-3.8-5.102 M232.492,6.152h-0.8"/>
	<path fill-rule="evenodd" clip-rule="evenodd" fill="none" stroke="#865520" stroke-width="0.75" stroke-miterlimit="10" d="
		M236.492,50.803H5.192c-2.667,0-4-1.334-4-4v-41.8c0-2.667,1.333-4,4-4h231.3"/>
	<path fill-rule="evenodd" clip-rule="evenodd" fill="none" stroke="#865520" stroke-width="0.75" stroke-miterlimit="10" d="
		M109.898,37.703c-0.801-0.801-1.5-1.65-2.101-2.551c-1.633-2.467-2.483-5.283-2.55-8.45v-0.601c-0.033-3.233-0.733-6.183-2.1-8.85
		c-0.967-1.867-2.25-3.6-3.851-5.2"/>
	<path fill-rule="evenodd" clip-rule="evenodd" fill="none" stroke="#865520" stroke-width="0.75" stroke-miterlimit="10" d="
		M102.192,9.152c-1.134-1.133-2.334-2.133-3.601-3h22.15c-5.366,0.133-9.95,2.1-13.75,5.9c-0.467,0.467-0.917,0.95-1.35,1.45
		C104.709,11.969,103.559,10.519,102.192,9.152z"/>
	<path fill-rule="evenodd" clip-rule="evenodd" fill="none" stroke="#865520" stroke-width="0.75" stroke-miterlimit="10" d="
		M102.192,43.602c1.366-1.365,2.517-2.799,3.45-4.299c0.433,0.467,0.883,0.934,1.35,1.4c3.8,3.832,8.384,5.816,13.75,5.949h-22.2
		C99.809,45.785,101.025,44.77,102.192,43.602z"/>
	<path fill-rule="evenodd" clip-rule="evenodd" fill="none" stroke="#865520" stroke-width="0.75" stroke-miterlimit="10" d="
		M10.992,26.252c-2.8,4.466-4.3,9.466-4.5,15v-30.35c0.134,4.934,1.267,9.434,3.4,13.5C10.226,25.036,10.592,25.652,10.992,26.252z"
		/>
	<path fill-rule="evenodd" clip-rule="evenodd" fill="none" stroke="#865520" stroke-width="0.75" stroke-miterlimit="10" d="
		M14.741,13.502c0,0,0.25,3.417,2,6.75c-0.001,0.001,4.251-5.25,12.75-6.667"/>
	<path fill-rule="evenodd" clip-rule="evenodd" fill="none" stroke="#865520" stroke-width="0.75" stroke-miterlimit="10" d="
		M14.741,39.336c0,0,0.25-3.416,2-6.75c-0.001-0.002,4.251,5.25,12.75,6.666"/>
	<g>
		<path fill-rule="evenodd" clip-rule="evenodd" fill="none" stroke="#865520" stroke-width="0.75" stroke-miterlimit="10" d="
			M47.843,37.842"/>
		<path fill-rule="evenodd" clip-rule="evenodd" fill="none" stroke="#865520" stroke-width="0.75" stroke-miterlimit="10" d="
			M47.843,14.932"/>
		<path fill-rule="evenodd" clip-rule="evenodd" fill="none" stroke="#865520" stroke-width="0.75" stroke-miterlimit="10" d="
			M52.76,26.388c0-4.511-1.893-8.571-4.917-11.456c0.354-0.033,0.712-0.054,1.075-0.054c6.356,0,11.508,5.153,11.508,11.51
			c0,6.356-5.151,11.508-11.508,11.508c-0.363,0-0.721-0.021-1.075-0.055C50.867,34.957,52.76,30.898,52.76,26.388z"/>
		<path fill-rule="evenodd" clip-rule="evenodd" fill="none" stroke="#865520" stroke-width="0.75" stroke-miterlimit="10" d="
			M47.843,14.932c3.024,2.885,4.917,6.945,4.917,11.456c0,4.51-1.893,8.569-4.917,11.454"/>
	</g>
	<path fill-rule="evenodd" clip-rule="evenodd" fill="none" stroke="#865520" stroke-width="0.75" stroke-miterlimit="10" d="
		M83.925,15.975c-0.681,1.113-1.02,2.442-1.02,3.988c0,0.68,0.062,1.33,0.186,1.948c-0.31-0.495-0.712-0.989-1.206-1.483
		c-1.113-1.114-2.272-1.84-3.479-2.18c-0.649-0.155-1.206-0.155-1.67,0c-0.093,0.402-0.062,0.928,0.093,1.577
		c0.279,1.268,0.975,2.458,2.088,3.571c0.495,0.495,0.988,0.896,1.483,1.206c-0.587-0.124-1.236-0.186-1.947-0.186
		c-1.547,0-2.877,0.31-3.988,0.928c-0.589,0.34-0.976,0.726-1.16,1.16c0.185,0.371,0.571,0.726,1.16,1.066
		c1.111,0.682,2.441,1.021,3.988,1.021c0.711,0,1.36-0.062,1.947-0.186c-0.525,0.34-1.036,0.758-1.53,1.252
		c-1.113,1.113-1.84,2.271-2.181,3.479c-0.154,0.648-0.154,1.205,0,1.67c0.402,0.092,0.929,0.061,1.577-0.094
		c1.268-0.277,2.459-0.973,3.571-2.086c0.526-0.527,0.943-1.053,1.253-1.578c-0.124,0.619-0.186,1.283-0.186,1.994
		c0,1.547,0.309,2.877,0.927,3.988c0.34,0.588,0.728,0.975,1.16,1.16c0.371-0.186,0.727-0.572,1.067-1.16
		c0.681-1.111,1.02-2.441,1.02-3.988c0-0.711-0.077-1.359-0.232-1.947c0.372,0.525,0.804,1.035,1.3,1.531
		c1.112,1.113,2.272,1.84,3.479,2.18c0.648,0.154,1.205,0.154,1.67,0c0.092-0.402,0.061-0.928-0.094-1.578
		c-0.278-1.268-0.974-2.457-2.088-3.57c-0.525-0.525-1.051-0.943-1.575-1.252c0.617,0.123,1.282,0.186,1.993,0.186
		c1.546,0,2.876-0.311,3.988-0.928c0.589-0.34,0.976-0.726,1.16-1.16c-0.185-0.371-0.571-0.727-1.16-1.066
		c-1.112-0.681-2.442-1.021-3.988-1.021c-0.711,0-1.36,0.077-1.947,0.231c0.525-0.371,1.035-0.804,1.529-1.298
		c1.114-1.114,1.841-2.273,2.182-3.479c0.153-0.649,0.153-1.206,0-1.669c-0.403-0.092-0.929-0.062-1.577,0.093
		c-1.268,0.278-2.459,0.974-3.571,2.087c-0.526,0.526-0.943,1.051-1.253,1.577c0.124-0.619,0.186-1.284,0.186-1.995
		c0-1.546-0.309-2.875-0.928-3.988c-0.339-0.588-0.727-0.974-1.159-1.16C84.621,15,84.266,15.387,83.925,15.975z"/>
	<path fill-rule="evenodd" clip-rule="evenodd" fill="none" stroke="#865520" stroke-width="0.75" stroke-miterlimit="10" d="
		M86.894,21.958c-0.402,0.618-0.665,1.268-0.788,1.948c0,0.03-0.016,0.077-0.046,0.139c-0.001,0.032-0.018,0.062-0.047,0.093
		c-0.31-0.155-0.649-0.231-1.021-0.231c-0.34,0-0.65,0.062-0.928,0.185c0-0.093-0.015-0.17-0.047-0.232
		c-0.186-0.68-0.493-1.329-0.927-1.948"/>
	<path fill-rule="evenodd" clip-rule="evenodd" fill="none" stroke="#865520" stroke-width="0.75" stroke-miterlimit="10" d="
		M89.584,24.647c-0.619,0.402-1.253,0.681-1.901,0.835c-0.093,0.03-0.186,0.046-0.278,0.046c0,0.03-0.032,0.046-0.093,0.046
		c-0.093-0.372-0.279-0.696-0.557-0.974c-0.216-0.217-0.448-0.372-0.695-0.464c0-0.03,0-0.061,0-0.093"/>
	
		<line fill-rule="evenodd" clip-rule="evenodd" fill="none" stroke="#865520" stroke-width="0.75" stroke-miterlimit="10" x1="86.06" y1="24.137" x2="86.013" y2="24.137"/>
	<path fill-rule="evenodd" clip-rule="evenodd" fill="none" stroke="#865520" stroke-width="0.75" stroke-miterlimit="10" d="
		M89.538,28.404c-0.619-0.402-1.269-0.666-1.948-0.789c-0.032,0-0.078,0-0.139,0c-0.063-0.062-0.14-0.123-0.232-0.186
		c0.153-0.309,0.232-0.665,0.232-1.066c0-0.279-0.047-0.542-0.14-0.789"/>
	<path fill-rule="evenodd" clip-rule="evenodd" fill="none" stroke="#865520" stroke-width="0.75" stroke-miterlimit="10" d="
		M87.451,27.615c-0.094-0.031-0.186-0.062-0.28-0.094c0.032-0.029,0.048-0.061,0.048-0.092"/>
	<path fill-rule="evenodd" clip-rule="evenodd" fill="none" stroke="#865520" stroke-width="0.75" stroke-miterlimit="10" d="
		M84.064,24.091c-0.278,0.093-0.54,0.263-0.788,0.51c-0.278,0.278-0.479,0.587-0.604,0.928c-0.03-0.031-0.061-0.046-0.093-0.046
		c-0.031-0.031-0.077-0.046-0.139-0.046c-0.711-0.155-1.392-0.433-2.041-0.835"/>
	<path fill-rule="evenodd" clip-rule="evenodd" fill="none" stroke="#865520" stroke-width="0.75" stroke-miterlimit="10" d="
		M82.673,25.529c-0.093,0.247-0.14,0.525-0.14,0.835c0,0.371,0.062,0.695,0.186,0.972c-0.03,0.062-0.092,0.109-0.186,0.141
		c-0.061,0-0.139,0.016-0.231,0.045c-0.648,0.156-1.282,0.449-1.901,0.883"/>
	<path fill-rule="evenodd" clip-rule="evenodd" fill="none" stroke="#865520" stroke-width="0.75" stroke-miterlimit="10" d="
		M82.533,27.477c0.094,0,0.171-0.016,0.232-0.047c0.124,0.248,0.294,0.465,0.511,0.65c0.216,0.215,0.448,0.4,0.695,0.555
		c-0.031,0.094-0.062,0.217-0.093,0.371c0,0.031,0,0.062,0,0.094c-0.123,0.68-0.387,1.33-0.788,1.947"/>
	<path fill-rule="evenodd" clip-rule="evenodd" fill="none" stroke="#865520" stroke-width="0.75" stroke-miterlimit="10" d="
		M82.719,27.336c0.031,0.031,0.047,0.062,0.047,0.094"/>
	<path fill-rule="evenodd" clip-rule="evenodd" fill="none" stroke="#865520" stroke-width="0.75" stroke-miterlimit="10" d="
		M83.879,29.006c0.093-0.123,0.171-0.23,0.231-0.324c0.279,0.094,0.572,0.139,0.882,0.139c0.278,0,0.541-0.045,0.787-0.139
		c0.063,0.094,0.125,0.186,0.187,0.279c0,0.061,0.016,0.139,0.047,0.23c0.154,0.65,0.433,1.283,0.834,1.902"/>
	<path fill-rule="evenodd" clip-rule="evenodd" fill="none" stroke="#865520" stroke-width="0.75" stroke-miterlimit="10" d="
		M83.972,28.635c0.062,0,0.108,0.016,0.139,0.047"/>
	<path fill-rule="evenodd" clip-rule="evenodd" fill="none" stroke="#865520" stroke-width="0.75" stroke-miterlimit="10" d="
		M85.966,28.961c-0.031-0.125-0.046-0.232-0.046-0.326c0.309-0.123,0.587-0.309,0.835-0.555c0.154-0.156,0.294-0.342,0.416-0.559"/>
	<path fill-rule="evenodd" clip-rule="evenodd" fill="none" stroke="#865520" stroke-width="0.75" stroke-miterlimit="10" d="
		M85.779,28.682c0.063,0,0.109-0.016,0.141-0.047"/>
	<path fill-rule="evenodd" clip-rule="evenodd" fill="none" stroke="#865520" stroke-width="0.75" stroke-miterlimit="10" d="
		M73.692,15.052c-3.066,3.067-4.634,6.75-4.7,11.05v0.601c0.066,4.299,1.634,7.965,4.7,11c3.1,3.133,6.866,4.699,11.3,4.699
		s8.217-1.566,11.35-4.699c3.101-3.102,4.65-6.867,4.65-11.3c0-4.434-1.55-8.217-4.65-11.351c-3.133-3.133-6.916-4.7-11.35-4.7
		S76.792,11.919,73.692,15.052z"/>
	<path fill-rule="evenodd" clip-rule="evenodd" fill="none" stroke="#865520" stroke-width="0.75" stroke-miterlimit="10" d="
		M28.227,21.076"/>
	<path fill-rule="evenodd" clip-rule="evenodd" fill="none" stroke="#865520" stroke-width="0.75" stroke-miterlimit="10" d="
		M28.227,31.699"/>
	<path fill-rule="evenodd" clip-rule="evenodd" fill="none" stroke="#865520" stroke-width="0.75" stroke-miterlimit="10" d="
		M28.227,31.699c-0.948-1.549-1.505-3.363-1.505-5.311c0-1.949,0.557-3.764,1.505-5.312"/>
	<path fill-rule="evenodd" clip-rule="evenodd" fill="none" stroke="#865520" stroke-width="0.75" stroke-miterlimit="10" d="
		M36.919,16.21c5.62,0,10.176,4.556,10.176,10.177s-4.556,10.177-10.176,10.177"/>
	
		<circle fill-rule="evenodd" clip-rule="evenodd" fill="none" stroke="#865520" stroke-width="0.75" stroke-miterlimit="10" cx="36.918" cy="26.387" r="5.343"/>
	
		<circle fill-rule="evenodd" clip-rule="evenodd" fill="none" stroke="#865520" stroke-width="0.75" stroke-miterlimit="10" cx="84.945" cy="26.399" r="2.396"/>
	<path fill-rule="evenodd" clip-rule="evenodd" fill="none" stroke="#865520" stroke-width="0.75" stroke-miterlimit="10" d="
		M80.089,15.396h-0.046c-0.154,0.185-0.231,0.386-0.231,0.602c0,0.03,0,0.077,0,0.139c0.03,0.154,0.108,0.293,0.231,0.417
		c0.154,0.185,0.34,0.278,0.555,0.278c0.247,0,0.448-0.093,0.603-0.278c0.154-0.154,0.231-0.339,0.231-0.555
		c0-0.216-0.077-0.417-0.231-0.602c-0.154-0.154-0.355-0.231-0.603-0.231C80.383,15.164,80.213,15.241,80.089,15.396z"/>
	<path fill-rule="evenodd" clip-rule="evenodd" fill="none" stroke="#865520" stroke-width="0.75" stroke-miterlimit="10" d="
		M89.946,15.349c-0.153-0.155-0.339-0.216-0.555-0.185l-0.046-0.046c-0.217,0.031-0.401,0.123-0.557,0.277
		c-0.03,0.031-0.061,0.062-0.092,0.092c-0.092,0.154-0.14,0.293-0.14,0.416c-0.029,0.278,0.032,0.495,0.186,0.648
		c0.154,0.154,0.372,0.216,0.648,0.185c0.216,0.031,0.401-0.031,0.555-0.185c0.155-0.154,0.231-0.355,0.231-0.601
		C90.178,15.704,90.102,15.503,89.946,15.349z"/>
	<path fill-rule="evenodd" clip-rule="evenodd" fill="none" stroke="#865520" stroke-width="0.75" stroke-miterlimit="10" d="
		M95.362,21.319c-0.155,0.031-0.294,0.108-0.417,0.232c-0.186,0.154-0.277,0.339-0.277,0.555c0,0.247,0.092,0.447,0.277,0.602
		c0.154,0.154,0.339,0.231,0.555,0.231c0.217,0,0.418-0.077,0.603-0.231c0.153-0.154,0.231-0.355,0.231-0.602
		c0-0.216-0.078-0.386-0.231-0.509v-0.046c-0.185-0.154-0.386-0.232-0.603-0.232C95.47,21.319,95.423,21.319,95.362,21.319z"/>
	<path fill-rule="evenodd" clip-rule="evenodd" fill="none" stroke="#865520" stroke-width="0.75" stroke-miterlimit="10" d="
		M96.01,30.205c-0.154-0.094-0.293-0.139-0.417-0.139c-0.277-0.031-0.493,0.029-0.647,0.184c-0.155,0.154-0.217,0.371-0.186,0.648
		c-0.031,0.217,0.03,0.4,0.186,0.555c0.154,0.154,0.355,0.232,0.602,0.232c0.247,0,0.448-0.078,0.602-0.232
		c0.154-0.154,0.215-0.338,0.186-0.555l0.046-0.045c-0.03-0.217-0.124-0.402-0.277-0.557C96.071,30.266,96.041,30.234,96.01,30.205z
		"/>
	<path fill-rule="evenodd" clip-rule="evenodd" fill="none" stroke="#865520" stroke-width="0.75" stroke-miterlimit="10" d="
		M88.558,37.008c0,0.215,0.079,0.416,0.231,0.602c0.155,0.154,0.355,0.23,0.603,0.23c0.216,0,0.387-0.076,0.509-0.23h0.046
		c0.155-0.186,0.231-0.387,0.231-0.602c0-0.031,0-0.078,0-0.139c-0.03-0.154-0.107-0.293-0.231-0.416
		c-0.153-0.186-0.339-0.277-0.555-0.277c-0.247,0-0.447,0.092-0.603,0.277C88.637,36.607,88.558,36.791,88.558,37.008z"/>
	<path fill-rule="evenodd" clip-rule="evenodd" fill="none" stroke="#865520" stroke-width="0.75" stroke-miterlimit="10" d="
		M74.49,21.366c-0.247,0-0.448,0.077-0.602,0.231c-0.155,0.154-0.216,0.34-0.187,0.555l-0.046,0.047
		c0.031,0.216,0.125,0.401,0.278,0.556c0.03,0.03,0.061,0.062,0.094,0.092c0.152,0.093,0.291,0.139,0.415,0.139
		c0.278,0.031,0.494-0.031,0.647-0.185c0.155-0.154,0.217-0.371,0.186-0.648c0.031-0.215-0.03-0.401-0.186-0.555
		C74.938,21.442,74.737,21.366,74.49,21.366z"/>
	<path fill-rule="evenodd" clip-rule="evenodd" fill="none" stroke="#865520" stroke-width="0.75" stroke-miterlimit="10" d="
		M81.432,37.102c0.03-0.279-0.031-0.494-0.185-0.648c-0.155-0.154-0.371-0.217-0.649-0.186c-0.215-0.031-0.4,0.031-0.555,0.186
		s-0.231,0.354-0.231,0.602c0,0.246,0.077,0.447,0.231,0.6c0.154,0.156,0.34,0.217,0.555,0.186l0.047,0.047
		c0.217-0.031,0.401-0.123,0.556-0.277c0.03-0.031,0.062-0.062,0.093-0.092C81.385,37.363,81.432,37.223,81.432,37.102z"/>
	<path fill-rule="evenodd" clip-rule="evenodd" fill="none" stroke="#865520" stroke-width="0.75" stroke-miterlimit="10" d="
		M73.656,30.898c0,0.217,0.077,0.387,0.232,0.51v0.045c0.185,0.154,0.385,0.232,0.602,0.232c0.03,0,0.076,0,0.138,0
		c0.154-0.031,0.293-0.107,0.417-0.232c0.185-0.154,0.277-0.338,0.277-0.555c0-0.246-0.093-0.447-0.277-0.602
		c-0.154-0.154-0.34-0.23-0.555-0.23c-0.217,0-0.417,0.076-0.602,0.23C73.733,30.451,73.656,30.652,73.656,30.898z"/>
	<path fill-rule="evenodd" clip-rule="evenodd" fill="none" stroke="#865520" stroke-width="0.75" stroke-miterlimit="10" d="
		M36.865,25.678c-0.247,0-0.448,0.077-0.602,0.231c-0.155,0.154-0.216,0.339-0.187,0.555l-0.046,0.047
		c0.031,0.216,0.125,0.401,0.278,0.555c0.03,0.031,0.061,0.062,0.094,0.092c0.152,0.094,0.291,0.139,0.415,0.139
		c0.278,0.031,0.494-0.031,0.647-0.184c0.155-0.155,0.217-0.371,0.186-0.649c0.031-0.216-0.03-0.401-0.186-0.555
		C37.312,25.755,37.112,25.678,36.865,25.678z"/>
	<path fill-rule="evenodd" clip-rule="evenodd" fill="none" stroke="#865520" stroke-width="0.75" stroke-miterlimit="10" d="
		M56.865,25.678c-0.247,0-0.448,0.077-0.602,0.231c-0.155,0.154-0.216,0.339-0.187,0.555l-0.046,0.047
		c0.031,0.216,0.125,0.401,0.278,0.555c0.03,0.031,0.061,0.062,0.094,0.092c0.152,0.094,0.291,0.139,0.415,0.139
		c0.278,0.031,0.494-0.031,0.647-0.184c0.155-0.155,0.217-0.371,0.186-0.649c0.031-0.216-0.03-0.401-0.186-0.555
		C57.312,25.755,57.112,25.678,56.865,25.678z"/>
	<path fill-rule="evenodd" clip-rule="evenodd" fill="none" stroke="#865520" stroke-width="0.75" stroke-miterlimit="10" d="
		M18.698,13.345c-0.247,0-0.448,0.077-0.602,0.231c-0.155,0.154-0.216,0.34-0.187,0.555l-0.046,0.047
		c0.031,0.216,0.125,0.401,0.278,0.556c0.03,0.03,0.061,0.062,0.094,0.092c0.152,0.093,0.291,0.139,0.415,0.139
		c0.278,0.031,0.494-0.031,0.647-0.185c0.155-0.154,0.217-0.371,0.186-0.648c0.031-0.215-0.03-0.401-0.186-0.555
		C19.146,13.421,18.945,13.345,18.698,13.345z"/>
	<path fill-rule="evenodd" clip-rule="evenodd" fill="none" stroke="#865520" stroke-width="0.75" stroke-miterlimit="10" d="
		M106.115,8.011c-0.247,0-0.448,0.077-0.602,0.231c-0.155,0.154-0.216,0.34-0.187,0.555l-0.046,0.047
		c0.031,0.216,0.125,0.401,0.278,0.556c0.03,0.03,0.061,0.062,0.094,0.092c0.152,0.093,0.291,0.139,0.415,0.139
		c0.278,0.031,0.494-0.031,0.647-0.185c0.155-0.154,0.217-0.371,0.186-0.648c0.031-0.215-0.03-0.401-0.186-0.555
		C106.562,8.088,106.362,8.011,106.115,8.011z"/>
	<path fill-rule="evenodd" clip-rule="evenodd" fill="none" stroke="#865520" stroke-width="0.75" stroke-miterlimit="10" d="
		M106.115,43.178c-0.247,0-0.448,0.076-0.602,0.23c-0.155,0.154-0.216,0.34-0.187,0.555l-0.046,0.047
		c0.031,0.217,0.125,0.402,0.278,0.557c0.03,0.029,0.061,0.061,0.094,0.092c0.152,0.092,0.291,0.139,0.415,0.139
		c0.278,0.031,0.494-0.031,0.647-0.186c0.155-0.154,0.217-0.369,0.186-0.648c0.031-0.215-0.03-0.4-0.186-0.555
		C106.562,43.254,106.362,43.178,106.115,43.178z"/>
	<path fill-rule="evenodd" clip-rule="evenodd" fill="none" stroke="#865520" stroke-width="0.75" stroke-miterlimit="10" d="
		M18.698,37.928c-0.247,0-0.448,0.076-0.602,0.23c-0.155,0.154-0.216,0.34-0.187,0.555l-0.046,0.047
		c0.031,0.217,0.125,0.402,0.278,0.557c0.03,0.029,0.061,0.061,0.094,0.092c0.152,0.092,0.291,0.139,0.415,0.139
		c0.278,0.031,0.494-0.031,0.647-0.186c0.155-0.154,0.217-0.369,0.186-0.648c0.031-0.215-0.03-0.4-0.186-0.555
		C19.146,38.004,18.945,37.928,18.698,37.928z"/>
	<path fill-rule="evenodd" clip-rule="evenodd" fill="none" stroke="#865520" stroke-width="0.75" stroke-miterlimit="10" d="
		M44.323,13.345c-0.247,0-0.448,0.077-0.602,0.231c-0.155,0.154-0.216,0.34-0.187,0.555l-0.046,0.047
		c0.031,0.216,0.125,0.401,0.278,0.556c0.03,0.03,0.061,0.062,0.094,0.092c0.152,0.093,0.291,0.139,0.415,0.139
		c0.278,0.031,0.494-0.031,0.647-0.185c0.155-0.154,0.217-0.371,0.186-0.648c0.031-0.215-0.03-0.401-0.186-0.555
		C44.771,13.421,44.57,13.345,44.323,13.345z"/>
	<path fill-rule="evenodd" clip-rule="evenodd" fill="none" stroke="#865520" stroke-width="0.75" stroke-miterlimit="10" d="
		M44.323,37.928c-0.247,0-0.448,0.076-0.602,0.23c-0.155,0.154-0.216,0.34-0.187,0.555l-0.046,0.047
		c0.031,0.217,0.125,0.402,0.278,0.557c0.03,0.029,0.061,0.061,0.094,0.092c0.152,0.092,0.291,0.139,0.415,0.139
		c0.278,0.031,0.494-0.031,0.647-0.186c0.155-0.154,0.217-0.369,0.186-0.648c0.031-0.215-0.03-0.4-0.186-0.555
		C44.771,38.004,44.57,37.928,44.323,37.928z"/>
	<path fill-rule="evenodd" clip-rule="evenodd" fill="none" stroke="#865520" stroke-width="0.75" stroke-miterlimit="10" d="
		M22.693,25.076c-0.298,0-0.539,0.092-0.725,0.278s-0.259,0.408-0.224,0.668l-0.055,0.057c0.037,0.259,0.15,0.481,0.334,0.668
		c0.037,0.035,0.073,0.073,0.112,0.109c0.184,0.111,0.351,0.167,0.5,0.167c0.335,0.037,0.594-0.037,0.777-0.222
		c0.188-0.186,0.261-0.445,0.224-0.779c0.037-0.26-0.036-0.482-0.224-0.668C23.23,25.168,22.989,25.076,22.693,25.076z"/>
	<path fill-rule="evenodd" clip-rule="evenodd" fill="none" stroke="#865520" stroke-width="0.75" stroke-miterlimit="10" d="
		M55.959,21.709c-0.247,0-0.448,0.077-0.602,0.231c-0.155,0.154-0.216,0.34-0.187,0.555l-0.046,0.047
		c0.031,0.216,0.125,0.401,0.278,0.556c0.03,0.03,0.061,0.062,0.094,0.092c0.152,0.093,0.291,0.139,0.415,0.139
		c0.278,0.031,0.494-0.031,0.647-0.185c0.155-0.154,0.217-0.371,0.186-0.648c0.031-0.215-0.03-0.401-0.186-0.555
		C56.406,21.786,56.206,21.709,55.959,21.709z"/>
	<path fill-rule="evenodd" clip-rule="evenodd" fill="none" stroke="#865520" stroke-width="0.75" stroke-miterlimit="10" d="
		M55.959,29.709c-0.247,0-0.448,0.076-0.602,0.23c-0.155,0.154-0.216,0.34-0.187,0.557l-0.046,0.047
		c0.031,0.215,0.125,0.4,0.278,0.555c0.03,0.031,0.061,0.062,0.094,0.092c0.152,0.094,0.291,0.139,0.415,0.139
		c0.278,0.031,0.494-0.031,0.647-0.184c0.155-0.154,0.217-0.371,0.186-0.648c0.031-0.217-0.03-0.402-0.186-0.557
		C56.406,29.785,56.206,29.709,55.959,29.709z"/>
</g>
</svg>
