<svg width="24" height="24" viewBox="0 0 24 24" fill="none" xmlns="http://www.w3.org/2000/svg">
<g clip-path="url(#clip0)">
<path d="M12.625 1C10.3258 1 8.07822 1.68179 6.1665 2.95917C4.25478 4.23654 2.76477 6.05211 1.88491 8.1763C1.00504 10.3005 0.774823 12.6379 1.22338 14.8929C1.67193 17.148 2.7791 19.2193 4.40489 20.8451C6.03067 22.4709 8.10205 23.5781 10.3571 24.0266C12.6121 24.4752 14.9495 24.245 17.0737 23.3651C19.1979 22.4852 21.0135 20.9952 22.2908 19.0835C23.5682 17.1718 24.25 14.9242 24.25 12.625C24.2473 9.54268 23.0217 6.58736 20.8422 4.40783C18.6626 2.2283 15.7073 1.00267 12.625 1ZM19.6 13.7875C19.6031 13.8392 19.5952 13.891 19.5768 13.9394C19.5585 13.9878 19.53 14.0318 19.4934 14.0684C19.4568 14.105 19.4128 14.1335 19.3644 14.1518C19.316 14.1702 19.2642 14.1781 19.2125 14.175H14.175V19.2125C14.1781 19.2642 14.1702 19.316 14.1518 19.3644C14.1335 19.4128 14.105 19.4568 14.0684 19.4934C14.0318 19.53 13.9878 19.5585 13.9394 19.5768C13.891 19.5952 13.8392 19.6031 13.7875 19.6H11.4625C11.4108 19.6031 11.359 19.5952 11.3106 19.5768C11.2622 19.5585 11.2182 19.53 11.1816 19.4934C11.145 19.4568 11.1165 19.4128 11.0982 19.3644C11.0798 19.316 11.0719 19.2642 11.075 19.2125V14.175H6.0375C5.98581 14.1781 5.93404 14.1702 5.88562 14.1518C5.83719 14.1335 5.79322 14.105 5.7566 14.0684C5.71998 14.0318 5.69154 13.9878 5.67316 13.9394C5.65479 13.891 5.6469 13.8392 5.65 13.7875V11.4625C5.6469 11.4108 5.65479 11.359 5.67316 11.3106C5.69154 11.2622 5.71998 11.2182 5.7566 11.1816C5.79322 11.145 5.83719 11.1165 5.88562 11.0982C5.93404 11.0798 5.98581 11.0719 6.0375 11.075H11.075V6.0375C11.0719 5.9858 11.0798 5.93403 11.0982 5.88561C11.1165 5.83719 11.145 5.79322 11.1816 5.75659C11.2182 5.71997 11.2622 5.69153 11.3106 5.67316C11.359 5.65479 11.4108 5.64689 11.4625 5.65H13.7875C13.8392 5.64689 13.891 5.65479 13.9394 5.67316C13.9878 5.69153 14.0318 5.71997 14.0684 5.75659C14.105 5.79322 14.1335 5.83719 14.1518 5.88561C14.1702 5.93403 14.1781 5.9858 14.175 6.0375V11.075H19.2125C19.2642 11.0719 19.316 11.0798 19.3644 11.0982C19.4128 11.1165 19.4568 11.145 19.4934 11.1816C19.53 11.2182 19.5585 11.2622 19.5768 11.3106C19.5952 11.359 19.6031 11.4108 19.6 11.4625V13.7875Z" fill="black"/>
</g>
<defs>
<clipPath id="clip0">
<rect width="24" height="24" fill="white"/>
</clipPath>
</defs>
</svg>
