<svg xmlns="http://www.w3.org/2000/svg" viewBox="0 0 512 512"><path d="M305.8 0H158.7c-27 0-50.3 21.4-50.3 48.4v10.2h-9.3c-27 0-50.3 21.4-50.3 48.4v354.7c0 27 22.3 50.3 50.3 50.3h256c27 0 48.4-22.3 48.4-50.3v-9.3h11.2c27 0 48.4-22.3 48.4-50.3V157.3L305.8 0zm0 54.9l102.4 102.4H305.8V54.9zm58.7 406.8c0 5.6-3.7 10.2-9.3 10.2h-256c-5.6 0-10.2-4.7-10.2-10.2V108c0-4.7 4.7-9.3 10.2-9.3h9.3v314.6c0 27 13 40 40 40h216v8.4zm59.5-58.6c0 5.6-3.7 10.2-9.3 10.2h-256c-5.6 0-10.2-4.7-10.2-10.2V48.4c0-4.7 4.7-9.3 10.2-9.3h108v157.3H424v206.7z"/></svg>