<svg width="16" height="16" viewBox="0 0 16 16" fill="none" xmlns="http://www.w3.org/2000/svg">
<g clip-path="url(#clip0_31633_53457)">
<path d="M2.57129 4.57129C2.17573 4.57129 1.78905 4.45399 1.46015 4.23423C1.13125 4.01447 0.874906 3.70211 0.723531 3.33666C0.572156 2.9712 0.532549 2.56907 0.609719 2.18111C0.68689 1.79315 0.877372 1.43678 1.15708 1.15708C1.43678 0.877372 1.79315 0.68689 2.18111 0.609719C2.56907 0.532549 2.9712 0.572156 3.33666 0.723531C3.70211 0.874906 4.01447 1.13125 4.23423 1.46015C4.45399 1.78905 4.57129 2.17573 4.57129 2.57129C4.57072 3.10155 4.35983 3.60993 3.98488 3.98488C3.60993 4.35983 3.10155 4.57072 2.57129 4.57129Z" fill="currentColor"/>
<path d="M8 4.57129C7.60444 4.57129 7.21776 4.45399 6.88886 4.23423C6.55996 4.01447 6.30362 3.70211 6.15224 3.33666C6.00087 2.9712 5.96126 2.56907 6.03843 2.18111C6.1156 1.79315 6.30608 1.43678 6.58579 1.15708C6.86549 0.877372 7.22186 0.68689 7.60982 0.609719C7.99778 0.532549 8.39992 0.572156 8.76537 0.723531C9.13082 0.874906 9.44318 1.13125 9.66294 1.46015C9.8827 1.78905 10 2.17573 10 2.57129C9.99943 3.10155 9.78854 3.60993 9.41359 3.98488C9.03864 4.35983 8.53026 4.57072 8 4.57129Z" fill="currentColor"/>
<path d="M13.4287 4.57129C13.0331 4.57129 12.6465 4.45399 12.3176 4.23423C11.9887 4.01447 11.7323 3.70211 11.581 3.33666C11.4296 2.9712 11.39 2.56907 11.4671 2.18111C11.5443 1.79315 11.7348 1.43678 12.0145 1.15708C12.2942 0.877372 12.6506 0.68689 13.0385 0.609719C13.4265 0.532549 13.8286 0.572156 14.1941 0.723531C14.5595 0.874906 14.8719 1.13125 15.0917 1.46015C15.3114 1.78905 15.4287 2.17573 15.4287 2.57129C15.4281 3.10155 15.2172 3.60993 14.8423 3.98488C14.4673 4.35983 13.959 4.57072 13.4287 4.57129Z" fill="currentColor"/>
<path d="M2.57129 10C2.17573 10 1.78905 9.8827 1.46015 9.66294C1.13125 9.44318 0.874906 9.13082 0.723531 8.76537C0.572156 8.39992 0.532549 7.99778 0.609719 7.60982C0.68689 7.22186 0.877372 6.86549 1.15708 6.58579C1.43678 6.30608 1.79315 6.1156 2.18111 6.03843C2.56907 5.96126 2.9712 6.00087 3.33666 6.15224C3.70211 6.30362 4.01447 6.55996 4.23423 6.88886C4.45399 7.21776 4.57129 7.60444 4.57129 8C4.57072 8.53026 4.35983 9.03864 3.98488 9.41359C3.60993 9.78854 3.10155 9.99943 2.57129 10Z" fill="currentColor"/>
<path d="M8 10C7.60444 10 7.21776 9.8827 6.88886 9.66294C6.55996 9.44318 6.30362 9.13082 6.15224 8.76537C6.00087 8.39992 5.96126 7.99778 6.03843 7.60982C6.1156 7.22186 6.30608 6.86549 6.58579 6.58579C6.86549 6.30608 7.22186 6.1156 7.60982 6.03843C7.99778 5.96126 8.39992 6.00087 8.76537 6.15224C9.13082 6.30362 9.44318 6.55996 9.66294 6.88886C9.8827 7.21776 10 7.60444 10 8C9.99943 8.53026 9.78854 9.03864 9.41359 9.41359C9.03864 9.78854 8.53026 9.99943 8 10Z" fill="currentColor"/>
<path d="M13.4287 10C13.0331 10 12.6465 9.8827 12.3176 9.66294C11.9887 9.44318 11.7323 9.13082 11.581 8.76537C11.4296 8.39992 11.39 7.99778 11.4671 7.60982C11.5443 7.22186 11.7348 6.86549 12.0145 6.58579C12.2942 6.30608 12.6506 6.1156 13.0385 6.03843C13.4265 5.96126 13.8286 6.00087 14.1941 6.15224C14.5595 6.30362 14.8719 6.55996 15.0917 6.88886C15.3114 7.21776 15.4287 7.60444 15.4287 8C15.4281 8.53026 15.2172 9.03864 14.8423 9.41359C14.4673 9.78854 13.959 9.99943 13.4287 10Z" fill="currentColor"/>
<path d="M2.57129 15.4287C2.17573 15.4287 1.78905 15.3114 1.46015 15.0917C1.13125 14.8719 0.874906 14.5595 0.723531 14.1941C0.572156 13.8286 0.532549 13.4265 0.609719 13.0385C0.68689 12.6506 0.877372 12.2942 1.15708 12.0145C1.43678 11.7348 1.79315 11.5443 2.18111 11.4671C2.56907 11.39 2.9712 11.4296 3.33666 11.581C3.70211 11.7323 4.01447 11.9887 4.23423 12.3176C4.45399 12.6465 4.57129 13.0331 4.57129 13.4287C4.57072 13.959 4.35983 14.4673 3.98488 14.8423C3.60993 15.2172 3.10155 15.4281 2.57129 15.4287Z" fill="currentColor"/>
<path d="M8 15.4287C7.60444 15.4287 7.21776 15.3114 6.88886 15.0917C6.55996 14.8719 6.30362 14.5595 6.15224 14.1941C6.00087 13.8286 5.96126 13.4265 6.03843 13.0385C6.1156 12.6506 6.30608 12.2942 6.58579 12.0145C6.86549 11.7348 7.22186 11.5443 7.60982 11.4671C7.99778 11.39 8.39992 11.4296 8.76537 11.581C9.13082 11.7323 9.44318 11.9887 9.66294 12.3176C9.8827 12.6465 10 13.0331 10 13.4287C9.99943 13.959 9.78854 14.4673 9.41359 14.8423C9.03864 15.2172 8.53026 15.4281 8 15.4287Z" fill="currentColor"/>
<path d="M13.4287 15.4287C13.0331 15.4287 12.6465 15.3114 12.3176 15.0917C11.9887 14.8719 11.7323 14.5595 11.581 14.1941C11.4296 13.8286 11.39 13.4265 11.4671 13.0385C11.5443 12.6506 11.7348 12.2942 12.0145 12.0145C12.2942 11.7348 12.6506 11.5443 13.0385 11.4671C13.4265 11.39 13.8286 11.4296 14.1941 11.581C14.5595 11.7323 14.8719 11.9887 15.0917 12.3176C15.3114 12.6465 15.4287 13.0331 15.4287 13.4287C15.4281 13.959 15.2172 14.4673 14.8423 14.8423C14.4673 15.2172 13.959 15.4281 13.4287 15.4287Z" fill="currentColor"/>
</g>
<defs>
<clipPath id="clip0_31633_53457">
<rect width="16" height="16" fill="white"/>
</clipPath>
</defs>
</svg>
