<svg width="14" height="14" viewBox="0 0 14 14" fill="none" xmlns="http://www.w3.org/2000/svg">
<g clip-path="url(#clip0_9354_152478)">
<path fill-rule="evenodd" clip-rule="evenodd" d="M5.96219 12.2714C5.75702 12.4762 5.42459 12.4759 5.21977 12.2707L0.328523 7.37074C0.123913 7.16578 0.123913 6.83384 0.328522 6.62888L5.21977 1.72888C5.42459 1.52371 5.75702 1.52343 5.96219 1.72825C6.16743 1.93307 6.16771 2.2655 5.96289 2.47074L1.96666 6.47404L13.2996 6.46606C13.5896 6.46585 13.8248 6.70077 13.825 6.99071C13.8252 7.28065 13.5903 7.51585 13.3004 7.51606L1.96512 7.52404L5.96289 11.5289C6.16771 11.7341 6.16743 12.0665 5.96219 12.2714Z" fill="#9B9B9B"/>
</g>
<defs>
<clipPath id="clip0_9354_152478">
<rect width="14" height="14" fill="white" transform="translate(14 14) rotate(180)"/>
</clipPath>
</defs>
</svg>
