<svg width="20" height="20" viewBox="0 0 20 20" fill="none" xmlns="http://www.w3.org/2000/svg">
<g clip-path="url(#clip0_12204_568)">
<path fill-rule="evenodd" clip-rule="evenodd" d="M9.5174 17.5308C9.2243 17.8234 8.7494 17.823 8.4568 17.5299L1.4693 10.5299C1.177 10.2371 1.177 9.7629 1.4693 9.4701L8.4568 2.4701C8.7494 2.177 9.2243 2.1766 9.5174 2.4692C9.8106 2.7618 9.811 3.2367 9.5184 3.5299L3.8095 9.2489L19.9995 9.2375C20.4137 9.2372 20.7497 9.5728 20.75 9.987C20.7503 10.4012 20.4147 10.7372 20.0005 10.7375L3.8073 10.7489L9.5184 16.4701C9.811 16.7633 9.8106 17.2382 9.5174 17.5308Z" fill="#666666"/>
</g>
<defs>
<clipPath id="clip0_12204_568">
<rect width="20" height="20" fill="white" transform="translate(20 20) rotate(180)"/>
</clipPath>
</defs>
</svg>
