<svg width="8" height="12" viewBox="0 0 8 12" fill="none" xmlns="http://www.w3.org/2000/svg">
    <path
        d="M1.3937 10.7726C1.24789 10.632 1.16598 10.4412 1.16598 10.2423C1.16598 10.0435 1.24789 9.85274 1.3937 9.7121L5.2437 5.9996L1.3937 2.2871C1.25203 2.14565 1.17363 1.95619 1.1754 1.75955C1.17718 1.5629 1.25897 1.37479 1.40318 1.23573C1.54739 1.09668 1.74246 1.0178 1.94639 1.01609C2.15032 1.01438 2.34679 1.08998 2.49348 1.2266L6.89337 5.46935C7.03918 5.60999 7.12109 5.80072 7.12109 5.9996C7.12109 6.19847 7.03918 6.3892 6.89337 6.52985L2.49348 10.7726C2.34763 10.9132 2.14983 10.9922 1.94359 10.9922C1.73735 10.9922 1.53956 10.9132 1.3937 10.7726Z"
        fill="#666666" />
</svg>
