<svg width="20" height="20" viewBox="0 0 20 20" fill="none" xmlns="http://www.w3.org/2000/svg">
<g clip-path="url(#clip0_7067_119395)">
<rect width="20" height="20" rx="10" fill="currentColor"/>
<path d="M10 18.75C7.67936 18.75 5.45376 17.8281 3.81282 16.1872C2.17187 14.5462 1.25 12.3206 1.25 10C1.25 7.67936 2.17187 5.45376 3.81282 3.81282C5.45376 2.17187 7.67936 1.25 10 1.25C12.3206 1.25 14.5462 2.17187 16.1872 3.81282C17.8281 5.45376 18.75 7.67936 18.75 10C18.75 12.3206 17.8281 14.5462 16.1872 16.1872C14.5462 17.8281 12.3206 18.75 10 18.75ZM10 20C12.6522 20 15.1957 18.9464 17.0711 17.0711C18.9464 15.1957 20 12.6522 20 10C20 7.34784 18.9464 4.8043 17.0711 2.92893C15.1957 1.05357 12.6522 0 10 0C7.34784 0 4.8043 1.05357 2.92893 2.92893C1.05357 4.8043 0 7.34784 0 10C0 12.6522 1.05357 15.1957 2.92893 17.0711C4.8043 18.9464 7.34784 20 10 20Z" fill="currentColor"/>
<path d="M6.56863 7.2325C6.56691 7.27287 6.57348 7.31316 6.58791 7.3509C6.60235 7.38863 6.62435 7.42302 6.65257 7.45194C6.68079 7.48085 6.71462 7.5037 6.75199 7.51906C6.78936 7.53442 6.82948 7.54197 6.86987 7.54125H7.90113C8.07363 7.54125 8.21112 7.4 8.23362 7.22875C8.34612 6.40875 8.90862 5.81125 9.91112 5.81125C10.7686 5.81125 11.5536 6.24 11.5536 7.27125C11.5536 8.065 11.0861 8.43 10.3474 8.985C9.50612 9.59625 8.83988 10.31 8.88738 11.4688L8.89112 11.74C8.89244 11.822 8.92594 11.9002 8.9844 11.9577C9.04287 12.0153 9.1216 12.0475 9.20362 12.0475H10.2174C10.3003 12.0475 10.3797 12.0146 10.4383 11.956C10.497 11.8974 10.5299 11.8179 10.5299 11.735V11.6037C10.5299 10.7062 10.8711 10.445 11.7924 9.74625C12.5536 9.1675 13.3474 8.525 13.3474 7.17625C13.3474 5.2875 11.7524 4.375 10.0061 4.375C8.42238 4.375 6.68738 5.1125 6.56863 7.2325ZM8.51487 14.4362C8.51487 15.1025 9.04612 15.595 9.77737 15.595C10.5386 15.595 11.0624 15.1025 11.0624 14.4362C11.0624 13.7462 10.5374 13.2613 9.77612 13.2613C9.04612 13.2613 8.51487 13.7462 8.51487 14.4362Z" fill="white"/>
</g>
<defs>
<clipPath id="clip0_7067_119395">
<rect width="20" height="20" rx="10" fill="white"/>
</clipPath>
</defs>
</svg>
