<svg width="24" height="24" viewBox="0 0 24 24" fill="none" xmlns="http://www.w3.org/2000/svg">
<path d="M10.3333 18.0833C10.3333 18.7937 10.9146 19.375 11.625 19.375C12.3354 19.375 12.9167 18.7937 12.9167 18.0833C12.9167 17.3729 12.3354 16.7917 11.625 16.7917C10.9146 16.7917 10.3333 17.3729 10.3333 18.0833ZM10.3333 0V5.16667H12.9167V2.68667C17.2954 3.31958 20.6667 7.06542 20.6667 11.625C20.6667 16.6237 16.6237 20.6667 11.625 20.6667C6.62625 20.6667 2.58333 16.6237 2.58333 11.625C2.58333 9.455 3.34542 7.46583 4.62417 5.91583L11.625 12.9167L13.4462 11.0954L4.66292 2.31208V2.33792C1.83417 4.45625 0 7.81458 0 11.625C0 18.0446 5.1925 23.25 11.625 23.25C18.0446 23.25 23.25 18.0446 23.25 11.625C23.25 5.20542 18.0446 0 11.625 0H10.3333ZM19.375 11.625C19.375 10.9146 18.7937 10.3333 18.0833 10.3333C17.3729 10.3333 16.7917 10.9146 16.7917 11.625C16.7917 12.3354 17.3729 12.9167 18.0833 12.9167C18.7937 12.9167 19.375 12.3354 19.375 11.625ZM3.875 11.625C3.875 12.3354 4.45625 12.9167 5.16667 12.9167C5.87708 12.9167 6.45833 12.3354 6.45833 11.625C6.45833 10.9146 5.87708 10.3333 5.16667 10.3333C4.45625 10.3333 3.875 10.9146 3.875 11.625Z" fill="#323232"/>
</svg>
