<svg width="1920" height="1099" viewBox="0 0 1920 1099" fill="none" xmlns="http://www.w3.org/2000/svg">
    <g clip-path="url(#clip0_4530_24856)">
        <path fill-rule="evenodd" clip-rule="evenodd"
            d="M849.994 0.389746C847.37 1.51345 841.38 10.1286 836.519 19.4928C831.651 29.2316 824.159 49.0837 819.671 63.3173C815.177 77.9256 811.805 98.5264 811.805 109.389C811.805 122.874 813.675 130.74 818.543 134.86C823.037 139.355 829.027 140.478 839.884 138.98C849.62 137.482 858.228 133.362 864.598 126.245C870.588 119.503 875.075 109.015 876.952 97.0282C879.569 82.0455 878.448 75.3033 873.206 63.6919C869.086 55.4514 861.974 45.7126 856.732 41.9669L847.37 34.8501C857.48 10.5031 858.982 2.26259 857.48 1.13889C855.984 0.0151768 852.612 -0.359392 849.994 0.389746ZM956.696 45.338C951.828 56.2005 948.829 70.8087 948.829 82.0455C948.829 92.1589 950.332 107.891 952.202 116.506L955.948 132.238C932.737 136.358 907.649 143.849 884.811 151.716C862.348 159.207 816.673 177.186 783.726 191.045C750.778 204.904 689.378 233.746 647.075 254.722C604.769 276.072 556.098 303.041 538.502 315.027C517.286 329.511 504.432 341.123 499.939 349.862C496.57 356.979 490.954 376.456 487.584 392.938C484.215 409.419 482.343 427.023 483.841 432.267C485.338 438.635 513.792 462.608 576.315 510.927C625.734 549.133 677.4 592.209 691.254 606.442C705.104 621.05 720.082 640.153 724.95 648.768L733.183 664.5C714.466 682.856 702.112 691.091 693.872 694.839C685.639 698.586 671.784 701.959 663.173 701.959C654.188 701.959 642.956 699.708 637.715 697.09C632.473 694.839 624.237 685.474 619.744 676.486C615.251 667.871 609.261 660.755 607.014 660.755C604.394 660.755 600.65 664.5 598.778 668.995C597.28 673.865 593.537 685.848 590.916 696.342C586.049 714.69 586.423 716.193 599.527 746.905C607.014 764.512 614.503 786.234 616.749 795.599C618.621 804.963 621.242 818.823 622.365 826.311C624.611 839.422 623.113 842.048 607.014 859.648C596.906 870.141 574.068 890.367 555.349 904.227C537.004 918.087 508.176 937.564 491.703 947.303C475.229 957.041 452.392 969.024 441.16 974.268C429.928 979.137 411.209 985.502 399.977 988.502C388.746 991.501 373.395 994.119 366.282 994.119C359.168 994.119 346.44 990.753 338.203 987.379C329.966 983.632 317.986 973.894 311.247 965.651C304.882 957.789 296.645 943.555 293.651 934.191C290.281 924.826 287.66 909.844 287.66 900.48C287.66 891.115 290.281 872.76 292.901 859.274C295.897 845.795 300.015 827.814 302.261 818.823L306.379 803.093C341.198 826.311 352.429 832.309 354.302 831.561C355.799 830.806 360.292 823.318 364.41 814.702C368.529 806.085 373.021 799.346 374.893 799.346C376.391 799.346 387.248 806.085 399.228 814.328C419.445 828.562 420.943 828.936 427.307 822.944C431.052 819.197 437.042 808.336 441.16 798.224C448.273 781.365 448.273 780.242 442.283 772.748C438.539 768.634 428.057 760.017 418.697 754.019C409.337 748.401 398.854 743.158 395.485 743.158C391.366 743.158 385.75 749.149 381.257 758.14L373.77 773.122C357.671 763.383 347.188 756.644 340.075 751.775C332.962 746.905 325.848 743.158 324.35 743.158C322.478 743.158 313.868 758.895 304.508 777.617C295.522 796.721 284.291 825.937 279.798 842.422C273.059 866.02 271.562 883.246 271.187 924.826C270.812 974.642 271.187 978.389 281.296 999.736C287.285 1012.1 296.271 1027.08 301.887 1033.07C307.503 1039.07 318.734 1046.93 326.971 1050.68C337.08 1055.55 350.558 1057.79 369.277 1057.79C388.371 1057.79 404.844 1055.18 425.436 1048.06C441.16 1042.81 465.121 1032.7 478.599 1025.21C492.077 1018.09 516.413 1002.36 532.886 990.753C549.359 979.137 573.694 959.286 587.172 946.922C600.65 934.191 616 915.836 621.616 905.723C626.858 895.61 633.971 874.256 637.34 858.152C640.71 842.422 643.331 823.692 643.331 816.953C643.331 810.581 644.454 797.095 645.951 786.982L648.946 769.382C674.779 769.382 684.136 766.008 697.244 757.392C707.354 750.652 720.829 738.289 727.193 730.053C733.557 721.81 741.797 707.202 745.163 697.09C748.909 687.351 751.9 670.119 751.9 658.882C751.9 647.645 748.909 630.04 745.537 620.301L738.799 601.947C753.403 612.061 776.24 631.163 798.704 651.015C821.541 670.868 848.499 691.472 858.602 696.342C869.086 701.211 888.184 706.454 901.659 707.951C919.254 709.447 930.112 708.699 940.97 704.577C949.21 701.211 961.564 692.22 968.675 684.352C975.787 676.486 986.271 660.005 991.887 647.645C997.877 635.284 1005.37 614.308 1009.11 600.823C1014.35 581.346 1015.47 563.367 1015.1 510.927C1014.72 474.969 1010.23 392.189 1005.37 327.388C997.503 225.131 997.129 207.526 1001.62 196.289C1004.24 189.172 1006.49 180.183 1006.49 176.437C1006.49 171.942 1008.73 170.444 1013.98 171.942C1019.97 173.441 1021.46 171.942 1021.46 165.2C1021.46 160.705 1013.23 135.235 1003.12 108.266C993.009 81.2968 982.151 52.4548 978.785 43.4652C975.413 34.8501 970.919 27.7333 969.049 27.7333C966.806 27.7333 961.19 35.5992 956.696 45.338ZM1755.27 144.599C1749.65 160.705 1747.78 172.317 1749.28 181.306C1750.4 188.423 1754.15 232.997 1757.14 280.567C1760.14 328.137 1766.88 427.398 1772.49 501.563C1777.73 575.727 1781.47 652.14 1780.73 671.242C1779.6 704.951 1779.23 706.828 1768.37 715.445C1762.38 720.688 1748.91 727.054 1738.42 730.427C1724.19 734.541 1712.59 735.296 1689 733.045L1658.68 730.053C1672.53 702.333 1678.52 682.108 1681.14 667.122C1684.51 646.521 1684.51 634.16 1680.77 613.934C1678.52 599.7 1673.28 582.095 1669.16 575.353C1665.04 568.985 1657.92 561.494 1653.06 559.246C1648.57 556.999 1639.95 556.25 1633.59 557.748C1627.23 559.246 1613.75 568.986 1601.39 581.346C1589.41 594.082 1575.56 613.559 1568.07 628.916C1556.84 652.14 1554.97 658.882 1554.97 685.1C1554.97 701.585 1556.09 719.559 1557.97 725.558C1560.21 733.793 1559.09 736.418 1552.35 739.792C1547.48 742.036 1535.5 744.28 1525.02 744.28C1514.54 744.28 1502.93 742.41 1498.81 740.54C1494.69 738.289 1487.2 728.924 1481.96 719.185C1476.72 709.821 1470.36 701.959 1467.74 701.959C1465.49 701.959 1459.87 713.942 1455.38 728.924L1447.52 756.27C1460.25 785.112 1467.74 805.711 1472.61 819.945C1477.47 834.179 1482.34 854.405 1483.84 864.891L1486.46 883.621C1455.38 915.088 1433.67 933.817 1418.32 945.426C1402.97 957.041 1379.38 973.52 1365.91 982.136C1352.42 990.372 1327.34 1003.86 1309.75 1012.1C1292.15 1020.34 1270.06 1028.58 1259.95 1031.2C1250.22 1033.45 1236.37 1035.32 1229.25 1035.32C1222.14 1035.32 1209.78 1032.7 1201.92 1029.33C1194.43 1026.33 1184.32 1019.97 1179.83 1015.47L1171.22 1007.23C1219.15 981.014 1244.6 965.277 1259.2 955.164C1273.8 944.678 1296.64 925.574 1310.12 912.088C1328.46 893.733 1336.7 881.75 1342.69 865.646C1348.68 849.909 1350.93 836.056 1350.93 812.458C1350.93 788.111 1348.68 774.999 1341.94 757.018C1337.07 744.28 1328.09 723.307 1321.35 710.195C1314.99 697.464 1309.75 686.222 1309.75 685.1C1309.75 683.978 1315.36 684.352 1322.1 685.474C1330.33 687.351 1335.2 686.603 1337.45 682.856C1339.7 679.109 1331.46 668.62 1307.5 644.274C1289.15 625.92 1272.68 612.061 1270.44 613.184C1268.19 613.934 1264.45 627.418 1261.45 642.401C1256.95 667.122 1256.95 671.242 1262.2 679.483C1265.19 684.726 1273.43 704.203 1279.79 722.558C1286.53 740.914 1300.01 772.748 1310.12 792.98C1327.34 827.44 1328.09 829.684 1322.85 838.674C1319.85 843.918 1306.75 856.656 1294.02 867.516C1280.91 878.003 1258.83 894.488 1244.23 903.853C1229.62 913.211 1202.67 927.825 1184.32 936.809C1151.37 952.172 1150.63 952.546 1149.5 944.304C1148.76 939.808 1151.76 918.461 1156.24 896.732C1160.74 875.011 1167.47 848.039 1171.59 836.804C1176.09 825.563 1183.57 802.719 1188.82 786.234C1195.55 764.138 1198.55 744.28 1200.05 711.324C1201.54 682.108 1199.3 623.672 1193.68 544.638C1188.82 477.216 1186.57 422.529 1188.44 422.154C1190.31 421.405 1202.67 413.914 1216.15 405.298C1229.25 396.309 1247.22 382.075 1256.21 373.46C1271.93 357.729 1272.68 357.354 1280.17 364.096C1287.66 370.089 1288.41 370.089 1295.14 361.1C1299.26 355.856 1302.63 347.989 1302.26 343.495C1302.26 338.625 1298.89 332.633 1294.77 330.385C1288.03 325.89 1287.66 323.643 1291.02 306.038C1293.65 291.43 1293.65 283.564 1290.28 276.072C1287.66 270.454 1282.04 265.21 1277.92 264.46C1273.8 263.712 1265.94 265.21 1260.7 267.458C1255.08 270.079 1246.1 277.945 1240.85 285.437C1234.86 294.426 1231.13 304.165 1231.13 313.529C1231.13 324.392 1233.74 329.635 1243.48 338.251L1255.46 349.113C1222.51 374.21 1206.41 385.446 1198.55 389.941L1184.32 398.182C1179.83 339 1177.58 310.908 1176.46 297.423L1174.22 273.076C1190.69 288.808 1197.8 293.677 1200.42 293.677C1202.67 293.677 1204.92 290.306 1204.92 286.185C1204.92 282.066 1196.68 256.22 1186.57 229.251C1176.46 201.908 1164.48 171.568 1160.36 161.454C1155.87 151.716 1151 143.849 1148.76 143.849C1146.51 143.849 1140.52 156.21 1135.28 171.193C1126.67 194.791 1125.92 200.035 1129.67 211.272C1132.28 218.389 1135.66 253.224 1137.53 288.058C1139.39 322.893 1142.02 367.093 1143.52 385.446L1146.14 419.158C1092.97 449.498 1077.62 460.36 1077.62 462.233C1077.62 464.481 1080.24 465.979 1083.24 465.979C1086.23 465.979 1101.96 460.735 1118.06 454.742C1133.78 448.374 1147.26 443.879 1147.26 444.254C1147.64 445.003 1152.5 514.298 1158.12 598.951C1166.73 727.802 1167.85 758.895 1164.48 791.851C1161.86 818.075 1156.62 842.048 1149.13 863.021C1143.14 880.628 1135.66 909.47 1133.03 927.444C1128.91 954.79 1127.04 960.408 1120.68 962.285C1116.56 963.407 1103.83 966.78 1092.6 969.772C1081.37 973.145 1057.78 977.267 1040.19 979.137C1019.22 981.388 999.372 981.388 982.151 978.763C967.554 976.893 946.212 970.52 933.858 964.903C920.376 958.537 904.283 946.922 892.297 934.191C881.446 922.956 868.712 905.349 863.844 894.862C856.732 879.88 855.236 869.761 855.236 842.422C855.236 822.196 857.854 798.224 861.974 782.487C865.346 768.253 867.216 754.774 865.346 753.271C863.844 751.775 860.478 752.523 857.854 755.148C855.236 757.766 849.994 772.748 845.874 788.111C842.135 803.467 837.641 830.432 836.138 848.039C834.642 866.394 835.39 890.367 837.641 904.227C839.884 917.706 846.996 939.434 853.74 952.92C861.226 968.276 874.701 986.257 890.053 1001.99C908.397 1020.34 920.376 1028.95 937.224 1035.32C954.445 1042.06 969.423 1044.32 1000.87 1045.81C1024.09 1046.56 1051.79 1045.44 1064.52 1042.81C1076.87 1040.57 1097.84 1035.32 1111.32 1031.2C1124.8 1027.08 1135.66 1024.08 1135.66 1024.84C1136.03 1025.59 1140.14 1034.95 1145.01 1045.81C1150.25 1057.05 1159.61 1070.53 1165.6 1076.52C1171.59 1082.52 1183.2 1090.01 1191.07 1093.01C1198.93 1096.76 1216.15 1099 1232.25 1099C1246.84 1099 1268.56 1096.37 1279.79 1093.01C1291.02 1089.64 1314.61 1079.52 1332.21 1070.91C1349.81 1061.92 1379.01 1043.94 1397.35 1031.2C1415.69 1018.09 1443.03 994.119 1458 978.389C1481.96 953.294 1486.83 945.8 1493.57 924.078C1497.69 909.844 1503.3 879.125 1505.55 855.153L1510.04 811.703C1536.25 811.329 1550.1 808.336 1557.97 805.337C1565.45 801.964 1578.18 795.224 1586.05 790.355L1599.9 780.99C1630.23 792.225 1657.18 797.476 1679.64 799.72C1711.84 803.093 1723.07 802.719 1736.17 798.972C1746.28 795.598 1758.64 787.73 1767.62 778.746C1775.48 770.504 1787.09 753.645 1793.08 741.288C1799.08 728.924 1806.56 706.828 1810.31 692.594C1814.79 673.115 1816.67 651.016 1816.67 608.315C1816.3 576.477 1811.8 488.827 1806.56 413.539C1800.95 338.251 1796.08 270.454 1795.7 262.962L1794.58 249.104C1809.18 263.337 1815.54 267.458 1818.17 267.458C1820.41 267.458 1822.66 263.337 1822.66 258.093C1822.66 252.849 1814.42 226.255 1804.31 199.286C1793.83 171.943 1782.98 143.101 1779.98 135.609C1776.61 127.743 1771.74 121.376 1768.75 121.376C1765.75 121.376 1760.14 131.114 1755.27 144.973V144.599ZM1255.08 298.172C1256.58 295.55 1260.33 293.302 1262.94 293.302C1265.94 293.302 1269.68 297.797 1270.81 303.791C1271.93 309.409 1271.93 314.653 1270.81 315.777C1269.31 316.9 1264.82 314.279 1260.7 310.158C1256.21 306.038 1253.96 300.419 1255.08 298.172ZM1604.39 639.03C1614.87 628.167 1625.36 619.177 1627.6 619.177C1629.84 619.177 1633.96 622.923 1636.59 627.792C1639.58 632.287 1644.82 643.524 1648.19 652.888C1651.93 662.253 1653.81 673.49 1652.69 678.359C1651.56 682.856 1641.46 692.594 1630.97 699.708C1611.5 712.446 1611.13 712.446 1600.27 706.08C1594.28 702.707 1586.05 695.213 1581.55 689.595C1574.44 679.857 1574.07 678.359 1579.3 668.995C1582.3 663.376 1593.53 649.892 1604.39 639.03ZM1855.98 217.639C1851.49 229.251 1847.74 244.234 1847.74 250.227C1848.12 256.595 1849.99 274.2 1851.86 289.557C1854.11 304.914 1859.35 374.958 1863.84 445.003C1867.96 515.047 1874.33 607.565 1877.69 651.015C1880.69 694.465 1883.69 763.764 1884.06 805.337C1884.44 853.282 1885.93 881.376 1888.17 881.376C1890.42 881.75 1895.67 872.012 1900.53 860.022C1905.02 848.039 1911.39 825.189 1914.38 809.458C1917.38 793.354 1920 763.009 1920 742.036C1920 720.688 1914.01 619.177 1906.9 516.171C1899.78 413.165 1893.79 328.512 1893.79 327.763C1893.79 327.388 1899.41 331.508 1905.77 337.127L1918.13 346.866C1920.37 325.516 1914.01 304.165 1900.91 268.956C1890.42 240.114 1879.19 212.021 1876.57 206.028C1873.58 200.41 1869.83 195.914 1867.96 195.914C1865.71 195.914 1860.47 205.653 1855.98 217.265V217.639ZM359.168 397.433C352.429 414.663 351.681 421.031 354.676 428.522C356.548 433.766 361.789 456.615 365.908 479.089C370.026 501.938 377.139 530.405 381.257 542.765C385.376 555.126 388.746 565.988 388.746 567.113C388.746 568.236 380.883 571.232 371.149 573.855C361.04 576.477 339.701 585.466 323.227 593.707C306.754 602.322 279.049 618.803 261.453 630.789C243.856 642.775 206.043 673.115 177.215 697.838C148.387 722.559 117.312 746.905 107.953 751.4C98.5931 755.896 81.7455 760.391 70.5138 761.139C52.5433 762.635 48.425 761.513 37.5677 752.897C29.7055 746.531 24.0897 737.541 21.4689 727.054C18.4738 715.445 18.8482 704.951 21.8433 686.977C24.0897 673.49 33.8238 641.651 42.8091 615.807C51.7945 589.961 59.2823 566.738 59.2823 564.115C59.2823 561.869 62.6518 555.126 66.7701 549.133C70.8884 543.515 76.1296 533.401 78.002 526.659C80.4979 518.668 80.4979 514.048 78.002 512.8C75.7557 511.676 71.263 514.673 67.5189 519.167C63.4006 524.411 58.9079 526.284 54.4152 524.786C51.0458 523.288 46.9274 517.669 45.8042 511.676C44.3067 506.058 46.5531 488.078 51.4201 469.725C55.5384 452.119 59.2823 436.013 59.2823 434.14C58.9079 432.267 55.5384 434.515 51.4201 439.759C47.3018 445.003 40.5628 459.986 36.4445 473.47C32.3262 486.954 29.3311 508.305 29.3311 521.04C29.3311 540.144 30.8286 546.136 37.5677 553.628L46.1786 562.243C30.0799 595.205 20.7202 619.178 14.3555 637.532C8.36526 655.511 2.37503 682.856 0.877474 698.212C-0.994471 718.811 0.128695 731.923 4.24699 746.905C7.6165 758.14 15.4787 774.625 21.4689 783.616C27.8335 792.225 39.814 802.719 48.0506 806.833C57.4104 811.329 70.5138 814.328 82.4947 814.328C96.3467 814.328 108.328 811.329 121.057 804.963C131.165 800.094 158.121 780.242 180.959 761.513C203.422 742.784 238.24 715.445 257.709 700.456C277.177 685.474 306.754 666.748 323.227 658.507C339.701 649.892 363.287 640.903 375.641 638.28C388.371 635.659 409.337 634.534 424.313 635.659C439.662 636.782 461.377 641.651 476.727 647.645C490.954 653.263 504.058 656.259 505.555 654.387C507.053 652.888 509.674 638.655 510.797 623.298L513.417 595.205C479.348 580.971 460.628 571.607 450.519 564.865C440.037 558.497 429.18 549.133 425.81 544.263C422.441 539.394 416.076 523.288 411.958 509.054C407.84 494.821 403.347 477.216 402.224 470.473L399.977 458.488C417.199 465.604 423.564 466.728 425.061 464.855C426.559 463.357 425.81 457.364 423.189 451.745C420.194 446.127 408.963 427.023 397.731 409.044C386.499 390.69 375.268 376.082 372.647 376.082C370.026 376.082 364.036 385.821 359.168 397.807V397.433ZM797.582 965.651C793.088 968.65 787.098 975.764 784.1 981.762C781.482 987.379 776.988 1001.99 774.364 1014.34C771.746 1026.71 768 1038.69 766.13 1040.57C764.261 1042.81 763.132 1041.32 763.132 1036.82C763.132 1032.7 759.019 1021.09 754.525 1010.6C749.657 1000.49 740.669 988.128 734.679 983.258C728.689 978.763 720.829 974.642 717.457 975.016C713.718 975.016 707.354 980.633 703.234 987.379C699.114 993.745 695.748 1002.36 695.748 1006.11C695.748 1009.48 700.236 1015.85 706.226 1020.34C712.596 1025.21 719.334 1027.08 724.95 1025.96C732.061 1024.08 734.305 1026.33 740.669 1040.57C744.789 1049.93 750.405 1066.41 753.403 1077.28C756.394 1088.51 760.514 1096.76 763.513 1096.76C766.13 1096.76 770.624 1090.76 772.868 1083.64C775.492 1076.52 781.108 1055.55 785.222 1036.82C789.716 1018.47 795.331 1000.87 797.956 998.24C801.695 994.493 803.946 994.867 809.935 1000.87C814.056 1005.36 819.671 1008.73 822.289 1008.73C824.533 1008.73 827.531 1006.11 828.653 1003.11C829.775 1000.11 830.522 993.371 830.522 988.128C830.522 982.884 826.409 974.642 821.167 969.398C815.925 964.155 810.683 960.034 809.188 960.034C807.311 960.034 802.443 962.659 797.956 965.651H797.582ZM549.359 1047.68C496.57 1066.41 483.091 1072.78 479.348 1080.27C476.727 1085.14 474.481 1091.51 474.481 1094.13C474.481 1096.37 477.476 1098.63 480.845 1098.63C484.589 1098.63 513.792 1088.51 545.615 1076.15C577.438 1063.42 607.389 1051.43 612.256 1049.56C616.749 1047.68 621.99 1042.44 623.862 1037.94C625.734 1033.07 626.483 1028.2 625.734 1026.71C624.985 1024.84 621.99 1023.71 619.369 1024.08C617.123 1024.08 585.3 1034.58 549.359 1047.68ZM1083.61 16.1216C1080.24 21.3656 1075 32.9772 1071.63 42.3414C1068.27 51.7056 1064.15 69.3104 1062.28 81.6715C1060.4 94.0318 1060.77 110.887 1062.65 119.128C1064.52 127.368 1067.89 135.235 1070.51 136.733C1073.13 138.231 1079.12 139.729 1083.98 139.729C1088.48 139.729 1095.22 135.984 1098.96 131.114C1102.71 126.62 1106.83 116.132 1108.32 107.891C1109.82 99.6506 1109.82 91.7849 1108.32 89.9119C1106.83 88.4137 1102.71 91.4101 1099.71 96.6542C1096.72 101.898 1091.1 106.018 1087.73 106.018C1083.98 106.018 1080.24 103.396 1079.12 100.399C1077.99 97.403 1077.25 89.1625 1077.25 82.4202C1077.25 76.0527 1080.62 57.6988 1084.74 42.3414C1089.23 26.9841 1091.85 12.3759 1091.1 10.5031C1090.35 8.25569 1086.98 10.8777 1083.61 16.1216ZM1447.15 37.0975C1426.93 46.0871 1399.22 56.2005 1385.37 59.5716C1371.14 62.9427 1345.69 65.9393 1328.09 66.3138C1305.63 66.3138 1290.28 64.441 1275.68 59.1971C1264.45 55.4514 1247.22 46.4617 1237.49 39.7195C1227.38 32.9772 1218.02 27.3587 1215.77 27.3587C1213.9 27.3587 1210.16 31.8535 1208.29 37.472C1204.92 46.4617 1206.04 50.582 1216.15 66.6884C1222.51 76.8015 1228.87 92.5336 1230.37 101.524C1231.5 110.513 1234.49 117.255 1237.49 117.255C1239.73 117.255 1242.73 113.51 1243.85 108.64C1244.97 104.145 1245.72 96.6542 1245.72 91.7849C1245.72 86.9148 1247.6 84.2932 1250.59 85.0426C1252.83 85.7914 1262.57 88.4137 1271.93 91.4101C1281.29 94.0318 1304.88 95.9048 1324.34 95.53C1347.18 95.53 1370.39 92.5336 1389.87 87.2896C1406.34 83.1697 1433.3 73.8051 1449.76 66.6884C1466.24 59.5716 1482.71 53.5785 1486.46 53.5785C1489.83 53.5785 1492.82 54.3277 1492.82 55.4514C1492.82 56.575 1485.71 66.3138 1476.72 76.8015C1467.74 87.6643 1459.13 100.774 1457.63 106.018C1456.13 111.262 1455.76 115.757 1456.88 116.132C1458 116.881 1460.25 116.506 1462.12 115.757C1463.62 115.008 1475.22 101.524 1488.33 85.7914C1507.42 62.1936 1511.54 55.0768 1511.54 43.0906C1511.54 35.5992 1509.67 26.9841 1507.05 24.3622C1504.43 21.7401 1498.06 19.8673 1492.82 19.8673C1487.58 20.2419 1466.99 27.7333 1447.15 37.0975ZM830.903 77.9256C833.147 71.9321 836.138 69.3105 838.763 70.8087C841.38 72.3069 847.751 76.8015 853.74 80.5473C859.356 84.2932 863.844 88.7878 863.844 91.0354C863.844 92.9083 858.982 97.403 852.612 100.399C846.622 103.396 838.015 106.018 833.895 106.018C828.279 106.018 826.409 103.77 826.783 97.0282C827.157 91.7849 828.653 83.1697 830.903 77.9256ZM909.899 198.162C926.747 192.918 944.342 188.798 949.21 188.798C956.696 188.423 957.444 189.922 957.444 207.901C957.444 227.004 956.322 228.877 932.737 255.846C919.628 271.203 902.781 295.175 895.669 309.035C888.558 323.268 882.568 338.625 882.568 343.869C882.568 349.113 883.69 353.233 885.559 352.859C887.062 352.859 894.547 343.12 902.033 331.508C909.899 319.897 926.366 298.921 938.726 284.687C959.687 261.464 961.19 260.341 961.19 269.705C961.19 275.698 965.303 336.752 970.545 405.673C975.787 474.594 979.907 548.009 979.907 568.611C980.281 599.7 978.785 607.565 973.169 615.432C969.423 620.676 957.07 628.916 945.838 633.786C929.738 640.903 921.879 642.026 906.901 640.153C896.791 639.03 878.074 633.036 865.72 627.418C853.367 621.425 817.047 595.954 785.222 570.484C753.403 545.388 708.85 512.425 686.013 497.442C663.173 482.46 627.232 459.986 605.517 447.625C583.802 435.264 553.103 418.783 537.004 410.917C521.279 402.677 508.176 395.185 508.176 393.312C508.176 391.814 522.029 381.701 539.25 370.464C556.098 359.227 596.157 336.378 627.981 319.897C659.804 303.416 713.718 277.571 747.787 262.214C781.856 246.856 825.287 228.502 844.378 221.011C863.096 213.145 892.678 203.031 909.899 198.162ZM489.457 48.7091C484.964 54.7023 478.973 67.4376 475.978 77.9256C472.983 88.039 469.613 103.396 468.116 111.637L465.87 126.62C453.14 87.2896 445.653 73.4303 438.165 65.9393C429.18 56.9496 422.815 53.9531 415.702 54.3277C408.963 55.0768 402.972 59.5716 397.731 67.8121L390.243 80.1726C403.721 97.403 409.711 100.399 418.697 100.774C430.303 100.774 432.175 102.647 439.662 119.503C444.155 129.616 449.396 145.722 451.643 155.461C454.638 169.32 457.258 173.066 462.5 172.317C466.993 171.943 470.737 164.076 475.604 143.475C478.973 128.118 484.589 106.393 487.584 95.53C490.58 85.0426 494.698 75.3033 496.944 74.1798C499.19 73.0563 504.806 76.0527 510.048 80.5473C516.413 86.1661 520.905 88.039 523.151 85.4166C525.023 83.1697 527.644 76.4274 528.767 70.4339C530.639 62.1936 529.142 56.2005 523.526 48.7091C518.659 42.716 512.294 38.5958 506.678 38.5958C501.062 38.5958 494.323 42.716 489.457 48.7091ZM1647.82 60.3208C1645.2 61.819 1638.46 74.1798 1632.1 87.2896C1626.11 100.774 1618.24 122.499 1614.87 135.984C1611.5 149.468 1608.88 165.2 1608.88 171.568C1608.88 177.561 1611.5 186.55 1614.5 191.045C1618.24 196.788 1623.85 199.66 1631.35 199.66C1637.71 199.66 1647.82 197.039 1653.81 194.042C1660.17 191.045 1667.66 182.805 1670.66 175.314C1673.65 168.197 1676.27 153.589 1676.27 143.475C1676.27 126.994 1674.4 122.874 1661.67 108.64C1648.19 93.6571 1647.82 92.5336 1652.31 81.6715C1654.93 75.3033 1657.18 67.4375 1657.55 63.6919C1657.55 60.3208 1656.43 57.3242 1654.93 57.3242C1653.06 57.3242 1650.06 58.8225 1647.82 60.3208ZM1632.47 134.86C1636.22 128.493 1636.96 128.493 1647.82 137.107C1654.18 142.351 1659.8 148.345 1660.55 150.592C1660.92 152.839 1655.68 157.334 1649.32 160.705C1642.58 164.076 1633.96 165.949 1630.6 164.451C1625.36 162.953 1624.61 159.581 1626.11 151.716C1627.6 146.097 1630.23 138.606 1632.47 134.86ZM629.852 148.719C528.018 186.55 505.555 196.289 501.811 203.781C499.19 208.65 496.944 215.766 496.944 219.138C496.944 222.883 498.067 225.88 499.939 225.88C501.437 225.88 544.866 209.024 596.157 188.798C647.823 168.571 704.73 146.097 723.073 139.355C747.039 129.991 757.516 123.997 761.262 117.255C763.887 112.011 765.008 106.393 763.513 104.895C762.01 103.396 759.393 102.272 757.142 102.272C755.273 102.647 697.992 123.623 629.852 148.719ZM1349.81 161.08C1344.94 172.317 1341.94 186.176 1341.94 197.787C1341.94 207.901 1344.19 241.612 1346.43 272.701C1348.68 303.416 1356.17 403.051 1362.53 493.697C1370.77 606.067 1374.51 686.222 1374.89 745.409C1374.89 812.832 1376.01 832.683 1379.76 832.683C1382 832.683 1387.61 822.944 1392.11 810.955C1396.23 799.346 1402.59 778.746 1405.59 765.26C1410.08 747.653 1411.58 724.803 1411.21 680.979C1410.83 648.019 1405.22 543.14 1398.47 448.374L1386.12 275.323C1402.22 289.183 1408.58 293.302 1410.45 293.302C1412.7 293.302 1414.2 289.557 1414.2 284.687C1414.2 280.193 1410.08 264.46 1405.22 250.227C1400.35 235.619 1389.49 206.028 1380.88 183.554C1372.64 161.454 1363.66 143.475 1361.79 143.475C1359.54 143.475 1354.3 151.341 1349.81 161.08ZM355.424 191.045C351.306 201.158 346.065 216.516 343.819 225.88C341.572 235.245 339.701 251.725 339.701 262.214C339.701 273.076 341.572 286.185 343.444 291.43C346.44 299.296 349.435 300.794 361.415 299.67C373.395 298.921 376.016 297.048 381.257 285.811C384.627 278.694 388.746 268.206 389.869 262.214C390.992 256.595 390.617 252.1 388.371 252.1C386.499 252.1 380.883 256.595 376.391 262.214C371.523 267.832 365.908 270.829 363.287 269.705C360.666 268.206 357.297 261.464 356.174 254.722C354.676 247.605 357.297 230.375 361.789 211.647C366.282 194.791 369.652 179.059 369.652 177.186C369.652 174.939 368.154 173.441 366.282 173.441C364.41 173.441 359.543 181.306 355.424 191.045ZM206.043 179.434C203.422 180.557 198.181 186.925 194.437 193.293C190.319 200.035 183.954 218.389 180.21 234.12L173.097 263.337C162.614 227.004 155.5 213.52 148.013 205.279C139.776 197.039 132.288 192.543 125.549 192.169C117.687 192.169 113.569 194.791 109.451 203.406C106.455 209.399 104.209 218.389 104.958 222.509C105.332 227.004 110.199 234.12 115.815 238.616C124.051 244.983 127.047 245.733 131.914 241.612C136.781 237.866 138.653 239.364 144.643 250.976C148.387 258.842 154.377 274.574 157.747 285.811C163.737 304.914 163.737 306.787 158.121 312.031C154.752 315.402 150.634 328.887 148.387 343.869C146.515 358.103 143.895 377.581 142.771 386.945C141.274 397.433 144.269 423.652 150.259 456.24C155.5 485.082 160.742 519.917 161.865 533.776C162.989 548.009 165.609 559.246 167.481 559.246C169.728 559.246 172.348 549.508 173.471 537.521C174.969 525.91 174.594 504.185 173.097 489.951C171.974 475.343 168.23 452.869 165.609 439.384C162.614 425.9 158.496 409.794 156.25 403.8C153.254 395.185 153.254 391.44 156.998 388.069C159.619 385.446 173.471 379.454 188.072 374.958C208.664 368.216 215.028 364.471 217.649 356.979C219.521 351.735 219.896 343.12 218.398 337.127C216.9 330.385 209.787 322.893 197.432 314.653C182.083 304.914 179.087 301.168 180.959 295.175C182.456 291.055 186.201 274.949 189.57 259.591C192.94 243.86 198.555 226.629 202.299 221.011L208.664 210.897C227.758 227.753 228.132 227.753 233.374 220.262C236.369 216.141 238.615 209.024 238.615 204.155C238.615 199.66 234.497 191.795 229.255 186.55C224.014 181.306 217.649 177.187 215.403 177.561C212.782 177.561 208.664 178.685 206.043 179.434ZM1487.58 200.41C1482.71 211.272 1476.72 230.375 1474.1 242.736C1471.48 255.097 1469.98 273.076 1470.73 282.44C1471.48 291.804 1474.85 302.292 1477.84 306.038C1480.84 309.409 1487.2 312.406 1492.07 312.031C1496.57 312.031 1503.68 308.66 1507.8 304.539C1511.92 300.419 1516.78 290.681 1519.03 282.814C1521.27 273.825 1521.27 267.832 1519.03 265.21C1516.53 262.713 1513.41 264.211 1509.67 269.705C1506.68 274.574 1501.43 278.32 1498.44 278.32C1495.44 278.32 1491.32 274.2 1489.07 268.956C1486.46 262.588 1486.83 252.849 1489.45 237.866C1491.7 226.255 1496.19 209.774 1498.81 201.533C1501.81 193.293 1504.05 185.427 1504.05 183.554C1504.05 182.056 1502.18 180.932 1500.31 180.932C1498.06 180.932 1492.45 189.922 1487.58 200.41ZM1587.54 265.21C1580.8 270.454 1572.56 279.443 1569.57 285.811C1566.57 291.804 1563.96 301.918 1563.96 308.285C1563.96 316.526 1567.32 322.519 1577.06 330.76L1590.16 341.996C1574.07 355.856 1556.09 368.591 1539.62 379.454C1523.15 389.941 1495.82 406.797 1478.97 416.161C1461.75 425.9 1447.89 436.013 1447.89 438.261C1447.89 440.883 1449.76 443.13 1451.64 443.13C1453.88 443.13 1471.1 437.137 1490.2 429.646C1508.92 422.154 1535.88 408.67 1550.1 399.68C1563.96 390.69 1582.3 375.708 1591.29 366.344C1606.63 349.862 1607.01 349.862 1616 356.23C1624.61 362.223 1624.98 362.223 1631.72 353.233C1635.46 347.99 1638.83 340.124 1638.83 335.254C1638.83 330.385 1635.46 325.141 1629.84 322.144C1621.99 318.399 1621.24 316.152 1624.23 306.412C1626.11 300.045 1627.6 289.557 1627.6 282.814C1627.6 276.447 1626.11 267.458 1623.85 263.337C1621.61 258.468 1616.37 255.846 1610.01 255.846C1604.02 255.846 1593.91 259.966 1587.54 265.21ZM1590.53 291.43C1592.78 288.433 1596.15 285.811 1598.03 285.811C1599.9 285.811 1602.52 288.058 1603.64 291.055C1604.76 294.052 1605.14 299.296 1604.39 302.667C1603.27 307.91 1602.52 307.91 1595.03 302.667C1588.29 298.172 1587.17 295.925 1590.53 291.43ZM263.325 402.677C258.458 413.539 252.842 431.519 250.221 442.006C247.975 452.869 246.103 468.6 246.103 476.842C246.103 485.082 248.349 495.944 250.97 501.188C253.216 506.432 258.458 511.676 262.202 512.425C265.571 513.549 271.562 513.549 275.305 512.8C278.675 511.676 284.665 505.309 288.035 498.567C291.404 491.824 295.148 481.711 296.271 475.717C297.394 470.099 297.02 465.604 294.774 465.604C292.901 465.604 288.035 469.35 284.665 473.844C280.172 479.089 275.68 480.961 271.562 479.463C267.443 477.965 264.823 472.721 264.448 466.353C264.073 460.735 264.448 450.996 264.823 445.003C265.197 438.635 268.941 423.652 272.685 411.292C276.428 398.931 279.798 387.694 279.798 385.821C279.798 384.323 277.926 383.199 276.054 383.199C273.808 383.199 268.192 392.189 263.325 402.677ZM1631.35 440.133C1627.23 446.875 1623.85 454.742 1623.85 456.989C1623.85 459.611 1623.11 461.858 1621.99 461.858C1620.86 461.858 1609.63 455.117 1596.9 446.875C1583.8 438.635 1572.19 431.893 1570.69 431.893C1568.82 431.893 1562.84 442.006 1556.46 454.367C1550.47 466.728 1545.23 479.089 1545.23 481.336C1545.23 483.958 1556.46 493.322 1569.57 501.938C1583.05 510.927 1596.15 518.044 1598.77 518.044C1601.02 518.044 1606.63 511.302 1610.75 503.061C1614.87 494.821 1619.37 488.078 1621.24 488.078C1622.73 488.078 1632.84 494.071 1643.7 501.563C1656.05 510.178 1665.42 514.298 1669.91 512.8C1673.28 511.676 1680.39 501.938 1685.63 491.824C1690.87 481.336 1694.99 470.473 1694.99 467.477C1694.99 464.481 1683.76 454.367 1669.91 445.003C1655.68 436.013 1643.33 428.522 1641.46 428.148C1639.95 428.148 1635.46 433.766 1631.35 440.133ZM1061.15 552.504C1057.78 557.373 1051.42 569.36 1046.55 579.473C1039.44 595.205 1038.68 598.202 1043.55 600.074C1046.55 601.198 1058.9 609.064 1070.88 618.054C1082.49 627.043 1094.09 634.16 1095.97 634.16C1098.21 634.16 1105.33 622.923 1112.06 609.438L1124.05 584.342C1103.08 566.363 1089.98 557.373 1081.74 552.504L1066.76 543.889L1061.15 552.504ZM1032.69 754.774C1028.21 759.643 1022.22 772 1019.22 782.113C1016.22 792.599 1012.48 807.588 1010.6 815.824L1007.24 830.806C1000.13 804.589 994.137 790.729 988.895 783.242C984.027 775.373 974.291 766.757 967.927 763.764C957.07 758.895 954.826 759.269 948.829 764.512C945.464 768.253 940.222 775.747 937.598 781.739C933.484 791.851 933.858 793.354 944.342 801.964C951.828 807.962 958.565 810.581 964.929 809.458C973.169 807.588 975.413 809.832 982.905 827.814C987.393 838.674 993.009 855.153 994.885 864.517C997.129 873.882 1000.87 881.376 1003.49 881.75C1005.74 881.75 1010.23 876.881 1012.48 871.264C1015.1 865.646 1019.97 847.291 1023.34 830.806C1026.7 814.328 1030.82 797.095 1032.69 792.599C1034.57 787.73 1037.94 783.242 1039.81 782.113C1042.06 780.991 1046.92 783.242 1051.04 786.982C1055.16 790.355 1060.77 792.225 1063.4 791.103C1065.64 789.981 1069.01 783.99 1070.13 778.372C1071.63 771.252 1070.13 764.512 1066.01 758.14C1062.65 752.897 1055.53 748.027 1050.29 747.279C1043.93 746.531 1037.94 749.149 1032.69 754.774ZM750.405 787.73C747.039 792.98 741.423 803.841 738.051 812.083C734.679 820.319 730.939 841.299 729.818 858.9C728.689 879.125 729.437 893.733 732.435 899.357C735.053 904.975 739.921 907.593 747.039 907.593C752.655 907.593 759.019 906.471 761.636 904.601C763.887 903.098 768.748 895.61 771.746 888.116C775.118 880.254 777.736 870.515 777.736 866.394C777.736 862.273 776.988 858.9 775.866 858.9C774.745 858.9 769.877 863.769 764.635 869.387C755.273 879.506 755.273 879.506 749.657 872.012C746.284 867.89 744.041 859.648 744.041 853.282C744.041 847.291 747.413 829.31 751.526 813.954C756.02 798.598 758.645 784.364 757.897 782.113C757.142 780.242 753.777 782.487 750.405 787.73ZM171.599 841.299C167.855 849.909 162.989 863.769 160.368 872.012C158.121 880.254 156.25 899.357 156.25 914.339C156.25 933.443 157.747 943.181 161.865 946.922C164.86 949.921 171.599 952.546 176.841 952.546C182.831 952.546 189.195 948.799 193.688 942.433C198.181 936.809 202.299 925.948 203.422 918.835C204.545 911.714 204.171 904.975 203.048 903.853C201.55 902.724 197.432 905.723 194.063 910.592C190.693 915.462 185.077 919.209 181.708 919.209C177.964 918.835 174.22 916.21 173.097 913.211C171.974 910.218 171.225 903.098 171.225 897.48C171.225 891.863 173.846 876.881 177.215 864.517C180.585 852.16 183.954 838.3 184.703 833.805C185.452 828.936 184.329 825.189 182.082 825.189C180.21 825.189 175.343 832.309 171.599 841.299ZM1779.98 840.171C1776.23 845.414 1769.87 860.403 1766.13 873.882C1761.63 888.116 1758.64 908.722 1758.64 923.704C1758.64 943.93 1760.14 950.295 1766.13 956.286C1770.24 960.408 1775.86 963.781 1778.48 963.781C1780.73 963.781 1786.72 961.156 1791.58 958.163C1796.08 955.164 1801.69 946.174 1803.94 938.686C1806.56 930.818 1807.31 921.453 1805.81 918.08C1803.94 912.088 1802.44 912.462 1794.21 921.827C1784.85 931.94 1784.85 931.94 1779.23 924.452C1775.86 920.331 1773.61 912.088 1773.61 905.723C1773.61 899.732 1776.99 881.75 1781.1 866.394C1785.59 851.038 1788.22 836.804 1787.46 834.553C1786.72 832.683 1783.35 834.927 1779.98 840.171ZM1639.95 907.967C1636.22 909.47 1629.84 916.21 1626.48 922.575C1623.11 928.573 1617.12 946.548 1613.75 962.285L1607.01 990.753C1595.4 955.164 1587.92 941.678 1579.3 933.069C1571.82 925.574 1562.08 919.209 1557.59 919.209C1551.22 918.835 1547.11 922.956 1541.49 933.817C1537.37 942.052 1534.76 951.043 1535.88 953.668C1536.63 956.286 1542.24 961.156 1547.86 965.277C1553.85 969.024 1561.33 971.275 1565.08 969.772C1569.95 967.902 1573.31 972.023 1580.8 987.379C1585.67 998.24 1592.04 1015.1 1594.65 1024.84C1597.28 1034.58 1600.27 1042.81 1601.39 1042.81C1602.52 1042.81 1605.14 1040.57 1607.76 1037.94C1610.38 1035.32 1615.62 1018.09 1619.74 999.362C1623.86 981.014 1629.1 961.156 1630.97 955.538C1633.22 949.921 1637.71 943.93 1641.08 942.433C1645.07 940.434 1648.19 941.678 1650.44 946.174C1652.31 949.547 1656.43 952.546 1659.43 952.546C1662.42 952.546 1666.91 948.051 1668.78 942.433C1671.78 935.313 1671.78 928.947 1669.16 922.575C1666.91 917.332 1660.92 911.34 1656.05 909.096C1650.81 906.845 1644.07 906.097 1639.95 907.967ZM745.91 359.602C739.921 362.598 729.818 369.714 724.202 375.333C718.212 380.577 709.224 391.814 704.356 400.054C699.114 408.295 695.748 419.158 696.122 424.402C696.87 430.769 700.61 434.89 707.728 437.511C715.214 440.133 727.193 440.133 747.039 436.762C763.132 434.515 780.36 433.391 786.35 434.14C791.966 434.89 796.453 437.512 796.453 439.384C796.453 441.632 777.362 446.501 754.525 450.996C728.689 455.491 705.104 457.738 694.62 456.615C681.518 455.117 676.651 455.865 676.651 459.236C676.651 461.858 679.272 466.728 683.014 470.473C686.76 474.219 697.244 478.34 706.599 479.463C717.831 480.961 736.181 478.714 762.384 472.721C790.837 466.353 802.824 461.858 806.189 456.24C808.814 452.119 812.179 444.628 813.301 439.384C814.803 432.642 813.301 427.023 806.937 419.158L798.33 408.67L708.476 413.539C728.689 395.56 739.921 387.694 745.91 384.323C752.281 381.327 760.888 379.828 765.756 380.952C772.12 382.825 774.745 381.327 776.614 373.835C778.484 368.591 778.484 361.848 776.614 358.852C775.118 355.856 770.25 353.233 765.756 353.608C760.888 353.608 752.281 356.23 745.91 359.602ZM888.931 488.078C885.185 493.322 878.822 508.305 875.075 521.79C870.588 536.023 867.59 556.625 867.59 571.607C867.59 591.834 869.086 598.201 875.075 604.194C879.195 608.315 884.811 611.686 887.436 611.686C889.679 611.686 895.669 609.064 900.537 606.067C905.031 603.071 910.647 594.082 912.891 586.59C915.515 578.724 916.263 569.36 914.76 565.988C912.891 559.996 911.395 560.37 903.529 569.734C895.669 578.724 894.173 579.473 888.558 574.229C884.811 570.858 882.194 562.992 882.568 555.501C882.568 548.384 885.933 529.655 890.053 514.298C894.547 498.941 897.165 484.707 896.417 482.46C895.669 480.587 892.297 482.834 888.931 488.078Z"
            fill="var(--color-calligraphy)" />
    </g>
    <defs>
        <clipPath id="clip0_4530_24856">
            <rect width="1920" height="1099" fill="white" />
        </clipPath>
    </defs>
</svg>
