<svg width="16" height="16" viewBox="0 0 16 16" fill="currentColor" xmlns="http://www.w3.org/2000/svg">
<path d="M12.5 1.75H3.5V13.75L8 9.25L12.5 13.75V1.75ZM12.9125 0.25C13.0563 0.25 13.1938 0.280734 13.325 0.342201C13.5313 0.430987 13.6953 0.570996 13.8172 0.762227C13.9391 0.953459 14 1.16518 14 1.39739V14.6026C14 14.8348 13.9391 15.0465 13.8172 15.2378C13.6953 15.429 13.5313 15.569 13.325 15.6578C13.2063 15.7124 13.0688 15.7398 12.9125 15.7398C12.6125 15.7398 12.3531 15.6305 12.1344 15.4119L8 11.0682L3.86563 15.4119C3.64063 15.6373 3.38125 15.75 3.0875 15.75C2.94375 15.75 2.80625 15.7193 2.675 15.6578C2.46875 15.569 2.30469 15.429 2.18281 15.2378C2.06094 15.0465 2 14.8348 2 14.6026V1.39739C2 1.16518 2.06094 0.953459 2.18281 0.762227C2.30469 0.570996 2.46875 0.430987 2.675 0.342201C2.80625 0.280734 2.94375 0.25 3.0875 0.25H12.9125Z" fill="currentColor"/>
<path d="M12.5 1.75H3.5V13.75L8 9.25L12.5 13.75V1.75Z" />
</svg>
