<svg width="15" height="20" viewBox="0 0 15 20" fill="none" xmlns="http://www.w3.org/2000/svg">
<path d="M1.85125 0.0837748C1.91939 0.0650662 2.04227 0.0392384 2.12414 0.0264901C2.24786 0.00711921 2.8183 0.00298013 8.74814 0L8.74847 1.86672C8.7488 2.89338 8.75575 3.82285 8.76418 3.93212C8.77262 4.04139 8.79395 4.19785 8.81165 4.2798C8.82935 4.36175 8.86408 4.48841 8.88889 4.56126C8.9137 4.63411 8.96216 4.75331 8.9964 4.82616C9.03063 4.89901 9.11316 5.04056 9.17965 5.14073C9.26185 5.2644 9.35927 5.38129 9.48348 5.50497C9.58404 5.60513 9.72578 5.72947 9.79855 5.78113C9.87116 5.83295 10.0013 5.91275 10.0878 5.95861C10.1743 6.0043 10.3083 6.06523 10.3855 6.09371C10.4628 6.12219 10.6043 6.16507 10.8734 6.23245L15 6.24172L14.9917 19.5116L14.9542 19.6026C14.9337 19.6528 14.8965 19.7225 14.8715 19.7578C14.8467 19.793 14.7891 19.8487 14.7436 19.8815C14.6982 19.9142 14.6181 19.9543 14.5658 19.9705C14.5136 19.9868 14.4297 20 14.3798 20C14.3298 20 14.2534 19.9911 14.2102 19.9801C14.1648 19.9687 12.7382 19.199 10.8197 18.1507C8.99805 17.1555 7.50389 16.3411 7.49942 16.3411C7.49496 16.3411 6.8567 16.6886 6.08117 17.1132C5.30565 17.5379 4.38093 18.0439 4.02617 18.2376C3.6714 18.4313 2.81929 18.8962 2.13241 19.2707C1.43677 19.65 0.84334 19.9632 0.792729 19.978C0.732526 19.9954 0.66273 20.0018 0.585988 19.997C0.502795 19.9917 0.439946 19.9755 0.362707 19.9392C0.303496 19.9114 0.223115 19.8561 0.184083 19.8161C0.144884 19.7762 0.0944395 19.7061 0.071946 19.6606C0.0492872 19.6151 0.0238166 19.5257 0.0153816 19.4619C0.00595415 19.3916 0 16.0543 0 10.952C0 6.14222 0.00645033 2.46606 0.0148854 2.34272C0.023155 2.22434 0.0420099 2.06788 0.0567299 1.99503C0.0716152 1.92219 0.109821 1.78444 0.141411 1.68874C0.173167 1.59305 0.240151 1.43676 0.290265 1.34106C0.340214 1.24536 0.423572 1.10811 0.47534 1.03609C0.527108 0.963907 0.636433 0.83659 0.718302 0.753146C0.800172 0.669537 0.926698 0.557119 0.999471 0.503146C1.07224 0.449172 1.19877 0.366887 1.28064 0.320199C1.36251 0.273676 1.49648 0.20894 1.57835 0.176656C1.66022 0.144371 1.78294 0.102483 1.85125 0.0837748Z" fill="currentColor"/>
<path d="M9.99785 3.91556L9.99239 1.95778L9.9871 0H10.708L15 4.29636V5L13.0111 4.99536C11.1559 4.99089 11.0157 4.98858 10.9231 4.96093C10.8685 4.9447 10.7717 4.90646 10.708 4.87599C10.6444 4.8457 10.541 4.78096 10.4782 4.73245C10.4155 4.68377 10.3235 4.59189 10.2739 4.52815C10.2244 4.4644 10.1588 4.3601 10.1282 4.29636C10.0976 4.23262 10.0557 4.12086 9.99785 3.91556Z" fill="currentColor"/>
</svg>
