<svg width="12" height="16" viewBox="0 0 12 16" fill="none" xmlns="http://www.w3.org/2000/svg">
<path d="M0 4C0 3.46957 0.210714 2.96086 0.585786 2.58579C0.960859 2.21071 1.46957 2 2 2H8C8.53043 2 9.03914 2.21071 9.41421 2.58579C9.78929 2.96086 10 3.46957 10 4V15.5C9.99995 15.5904 9.97538 15.6792 9.92889 15.7568C9.8824 15.8343 9.81573 15.8979 9.736 15.9405C9.65627 15.9832 9.56645 16.0035 9.47611 15.9992C9.38577 15.9948 9.29829 15.9661 9.223 15.916L5 13.101L0.777 15.916C0.701705 15.9661 0.61423 15.9948 0.523891 15.9992C0.433553 16.0035 0.343733 15.9832 0.263999 15.9405C0.184266 15.8979 0.117604 15.8343 0.0711141 15.7568C0.024624 15.6792 4.67204e-05 15.5904 0 15.5V4Z" fill="currentColor"/>
<path d="M2.0625 1.11933C2.23803 0.815298 2.69699 0.443498 3.00102 0.267962C3.30505 0.0924257 3.64993 8.91844e-06 4.00099 0L10.001 0C10.5314 0 11.0401 0.210714 11.4152 0.585786C11.7903 0.960859 12.001 1.46957 12.001 2V13.5C12.0009 13.5904 11.9764 13.6792 11.9299 13.7568C11.8834 13.8343 11.8167 13.8979 11.737 13.9405C11.6573 13.9832 11.4564 14.0333 11.366 14.0289C11.2757 14.0246 10.959 13.9405 10.959 13.9405L10.7945 13.8873C10.8096 9.29179 10.8026 6.7151 10.7945 2.11933C10.7945 1.85411 10.6891 1.59976 10.5016 1.41222C10.3141 1.22469 10.0597 1.11933 9.7945 1.11933H2.0625Z" fill="currentColor"/>
</svg>
