<svg width="15" height="20" viewBox="0 0 15 20" fill="none" xmlns="http://www.w3.org/2000/svg">
<path d="M0 2.50004C0 1.83699 0.263396 1.20109 0.732245 0.732245C1.20109 0.263396 1.83699 0 2.50004 0L12.5002 0C13.1633 0 13.7991 0.263396 14.268 0.732245C14.7368 1.20109 15.0002 1.83699 15.0002 2.50004V19.3753C15.0002 19.4884 14.9695 19.5993 14.9113 19.6963C14.8532 19.7932 14.7699 19.8726 14.6702 19.926C14.5706 19.9794 14.4583 20.0047 14.3454 19.9993C14.2324 19.9939 14.1231 19.958 14.029 19.8953L7.50012 16.3765L0.971266 19.8953C0.877146 19.958 0.7678 19.9939 0.654875 19.9993C0.541949 20.0047 0.429673 19.9794 0.330005 19.926C0.230336 19.8726 0.147007 19.7932 0.088894 19.6963C0.0307805 19.5993 5.84015e-05 19.4884 0 19.3753V2.50004ZM3.12505 1.87503C2.79352 1.87503 2.47558 2.00673 2.24115 2.24115C2.00673 2.47558 1.87503 2.79352 1.87503 3.12505V17.4778L7.15387 14.3752C7.25644 14.307 7.37691 14.2706 7.50012 14.2706C7.62333 14.2706 7.7438 14.307 7.84638 14.3752L13.1252 17.4778V3.12505C13.1252 2.79352 12.9935 2.47558 12.7591 2.24115C12.5247 2.00673 12.2067 1.87503 11.8752 1.87503H3.12505Z" fill="currentColor"/>
</svg>
