<svg width="15" height="20" viewBox="0 0 15 20" fill="none" xmlns="http://www.w3.org/2000/svg">
<path d="M1.67336e-07 2.49994V19.3746C-7.92423e-05 19.4831 0.0281057 19.5898 0.0817807 19.6841C0.135456 19.7784 0.212771 19.8572 0.306115 19.9125C0.399459 19.9679 0.505614 19.998 0.614131 19.9999C0.722649 20.0018 0.829787 19.9754 0.925 19.9233L7.5 16.3359L14.075 19.9233C14.1702 19.9754 14.2774 20.0018 14.3859 19.9999C14.4944 19.998 14.6005 19.9679 14.6939 19.9125C14.7872 19.8572 14.8645 19.7784 14.9182 19.6841C14.9719 19.5898 15.0001 19.4831 15 19.3746V2.49994C15 1.83692 14.7366 1.20105 14.2678 0.732216C13.7989 0.263386 13.163 0 12.5 0L2.5 0C1.83696 0 1.20107 0.263386 0.732233 0.732216C0.263392 1.20105 1.67336e-07 1.83692 1.67336e-07 2.49994Z" fill="currentColor"/>
</svg>
