<svg width="15" height="20" viewBox="0 0 15 20" fill="none" xmlns="http://www.w3.org/2000/svg">
<path d="M0 2.5C0 1.83696 0.263392 1.20107 0.732233 0.732233C1.20107 0.263392 1.83696 0 2.5 0L12.5 0C13.163 0 13.7989 0.263392 14.2678 0.732233C14.7366 1.20107 15 1.83696 15 2.5V19.375C14.9999 19.4881 14.9692 19.599 14.9111 19.6959C14.853 19.7929 14.7697 19.8723 14.67 19.9257C14.5703 19.979 14.4581 20.0044 14.3451 19.999C14.2322 19.9936 14.1229 19.9576 14.0287 19.895L7.5 16.3762L0.97125 19.895C0.877132 19.9576 0.767788 19.9936 0.654864 19.999C0.541941 20.0044 0.429666 19.979 0.329999 19.9257C0.230332 19.8723 0.147005 19.7929 0.0888926 19.6959C0.03078 19.599 5.84005e-05 19.4881 0 19.375V2.5ZM3.125 1.875C2.79348 1.875 2.47554 2.0067 2.24112 2.24112C2.0067 2.47554 1.875 2.79348 1.875 3.125V17.4775L7.15375 14.375C7.25633 14.3067 7.37679 14.2703 7.5 14.2703C7.62321 14.2703 7.74367 14.3067 7.84625 14.375L13.125 17.4775V3.125C13.125 2.79348 12.9933 2.47554 12.7589 2.24112C12.5245 2.0067 12.2065 1.875 11.875 1.875H3.125Z" fill="currentColor"/>
</svg>
