<svg width="20" height="20" viewBox="0 0 20 20" fill="none" xmlns="http://www.w3.org/2000/svg">
<path d="M5 18.3327H17.5V16.666H5.01C4.625 16.656 4.16667 16.5035 4.16667 15.8327C4.16667 15.1618 4.625 15.0093 5.01 14.9993H17.5V3.33268C17.5 2.41352 16.7525 1.66602 15.8333 1.66602H5C3.995 1.66602 2.5 2.33185 2.5 4.16602V15.8327C2.5 17.6668 3.995 18.3327 5 18.3327ZM4.16667 6.66602V4.16602C4.16667 3.49518 4.625 3.34268 5 3.33268H15.8333V13.3327H4.16667V6.66602Z" fill="#7C756A"/>
<path d="M6.66602 5H14.166V6.66667H6.66602V5Z" fill="#7C756A"/>
</svg>
