<svg width="16" height="16" viewBox="0 0 16 16" fill="none" xmlns="http://www.w3.org/2000/svg">
<g clip-path="url(#clip0_28152_13052)">
<path d="M13.6361 4.3208C13.9385 4.0184 14.1049 3.6168 14.1049 3.1896C14.1049 2.7624 13.9385 2.3608 13.6361 2.0584L12.3673 0.789601C12.0649 0.487201 11.6633 0.320801 11.2361 0.320801C10.8089 0.320801 10.4073 0.487201 10.1057 0.788801L1.6001 9.268V12.8H5.1305L13.6361 4.3208ZM11.2361 1.9208L12.5057 3.1888L11.2337 4.456L9.9649 3.188L11.2361 1.9208ZM3.2001 11.2V9.932L8.8321 4.3176L10.1009 5.5864L4.4697 11.2H3.2001ZM1.6001 14.4H14.4001V16H1.6001V14.4Z" fill="#9B9B9B"/>
</g>
<defs>
<clipPath id="clip0_28152_13052">
<rect width="16" height="16" fill="white"/>
</clipPath>
</defs>
</svg>
