<svg xmlns="http://www.w3.org/2000/svg" xmlns:xlink="http://www.w3.org/1999/xlink" width="1080" zoomAndPan="magnify" viewBox="0 0 810 809.999993" height="1080" preserveAspectRatio="xMidYMid meet" version="1.0"><defs><clipPath id="42826c6c0d"><path d="M 69.355469 279 L 729 279 L 729 774 L 69.355469 774 Z M 69.355469 279 " clip-rule="nonzero"/></clipPath><clipPath id="8216f9d955"><path d="M 69.355469 114 L 729 114 L 729 300 L 69.355469 300 Z M 69.355469 114 " clip-rule="nonzero"/></clipPath></defs><path fill="#66757f" d="M 622.109375 114.34375 L 663.253906 114.34375 L 663.253906 134.957031 L 622.109375 134.957031 Z M 622.109375 114.34375 " fill-opacity="1" fill-rule="nonzero"/><g clip-path="url(#42826c6c0d)"><path fill="#ccd6dd" d="M 69.355469 279.253906 L 69.355469 691.523438 C 69.355469 737.0625 106.273438 773.980469 151.808594 773.980469 L 646.539062 773.980469 C 692.074219 773.980469 728.992188 737.0625 728.992188 691.523438 L 728.992188 279.253906 Z M 69.355469 279.253906 " fill-opacity="1" fill-rule="nonzero"/></g><g clip-path="url(#8216f9d955)"><path fill="#00bf63" d="M 646.539062 114.34375 L 151.808594 114.34375 C 106.273438 114.34375 69.355469 151.261719 69.355469 196.796875 L 69.355469 299.867188 L 728.992188 299.867188 L 728.992188 196.796875 C 728.992188 151.261719 692.074219 114.34375 646.539062 114.34375 Z M 646.539062 114.34375 " fill-opacity="1" fill-rule="nonzero"/></g><path fill="#292f33" d="M 210.269531 211.867188 C 195.800781 211.867188 184.070312 198.136719 184.070312 181.171875 C 184.070312 164.226562 195.800781 150.480469 210.269531 150.480469 C 224.71875 150.480469 236.449219 164.226562 236.449219 181.171875 C 236.449219 198.117188 224.71875 211.867188 210.269531 211.867188 Z M 333.953125 211.867188 C 319.480469 211.867188 307.753906 198.136719 307.753906 181.171875 C 307.753906 164.226562 319.480469 150.480469 333.953125 150.480469 C 348.402344 150.480469 360.132812 164.226562 360.132812 181.171875 C 360.132812 198.117188 348.402344 211.867188 333.953125 211.867188 Z M 457.632812 211.867188 C 443.164062 211.867188 431.433594 198.136719 431.433594 181.171875 C 431.433594 164.226562 443.164062 150.480469 457.632812 150.480469 C 472.085938 150.480469 483.835938 164.226562 483.835938 181.171875 C 483.8125 198.117188 472.085938 211.867188 457.632812 211.867188 Z M 581.316406 211.867188 C 566.84375 211.867188 555.117188 198.136719 555.117188 181.171875 C 555.117188 164.226562 566.84375 150.480469 581.316406 150.480469 C 595.765625 150.480469 607.515625 164.226562 607.515625 181.171875 C 607.496094 198.117188 595.765625 211.867188 581.316406 211.867188 Z M 581.316406 211.867188 " fill-opacity="1" fill-rule="nonzero"/><path fill="#66757f" d="M 591.191406 35.578125 C 564.867188 35.578125 542.066406 52.109375 529.472656 76.1875 C 516.980469 52.625 494.078125 35.578125 467.507812 35.578125 C 441.183594 35.578125 418.386719 52.109375 405.789062 76.1875 C 393.300781 52.625 370.398438 35.578125 343.828125 35.578125 C 317.503906 35.578125 294.703125 52.109375 282.109375 76.1875 C 269.617188 52.625 246.714844 35.578125 220.144531 35.578125 C 180.277344 35.578125 147.996094 73.074219 147.996094 118.136719 C 147.996094 156.355469 169.539062 187.625 200.953125 199.066406 C 216.597656 204.734375 226.183594 189.851562 224.84375 177.914062 C 223.710938 168.019531 217.136719 161.570312 209.816406 156.929688 C 199.820312 150.601562 189.203125 136.152344 189.203125 118.238281 C 189.203125 95.480469 203.035156 75.054688 220.125 75.054688 C 237.210938 75.054688 251.042969 93.707031 251.042969 114.324219 L 271.988281 114.324219 C 271.925781 115.601562 271.65625 116.816406 271.65625 118.117188 C 271.65625 156.332031 293.199219 187.605469 324.613281 199.042969 C 340.261719 204.714844 349.84375 189.832031 348.503906 177.894531 C 347.371094 168.019531 340.796875 161.570312 333.476562 156.929688 C 323.480469 150.601562 312.863281 136.152344 312.863281 118.238281 C 312.863281 95.480469 326.695312 75.054688 343.785156 75.054688 C 360.875 75.054688 374.746094 93.730469 374.746094 114.34375 L 395.691406 114.34375 C 395.628906 115.621094 395.359375 116.835938 395.359375 118.136719 C 395.359375 156.355469 416.902344 187.625 448.316406 199.066406 C 463.960938 204.734375 473.546875 189.851562 472.207031 177.914062 C 471.074219 168.042969 464.5 161.589844 457.179688 156.953125 C 447.183594 150.625 436.566406 136.171875 436.566406 118.257812 C 436.566406 95.503906 450.398438 75.074219 467.488281 75.074219 C 484.578125 75.074219 498.429688 93.730469 498.429688 114.34375 L 519.371094 114.34375 C 519.308594 115.621094 519.042969 116.835938 519.042969 118.136719 C 519.042969 156.355469 540.582031 187.625 572 199.066406 C 587.644531 204.734375 597.230469 189.851562 595.890625 177.914062 C 594.757812 168.042969 588.179688 161.589844 580.863281 156.953125 C 570.863281 150.625 560.25 136.171875 560.25 118.257812 C 560.25 95.503906 574.082031 75.074219 591.167969 75.074219 C 608.257812 75.074219 622.109375 93.730469 622.109375 114.34375 L 663.253906 114.34375 C 662.824219 73.117188 630.769531 35.578125 591.191406 35.578125 Z M 591.191406 35.578125 " fill-opacity="1" fill-rule="nonzero"/><path fill="#ffffff" d="M 254.878906 341.09375 L 337.332031 341.09375 L 337.332031 423.546875 L 254.878906 423.546875 Z M 357.945312 341.09375 L 440.402344 341.09375 L 440.402344 423.546875 L 357.945312 423.546875 Z M 461.015625 341.09375 L 543.46875 341.09375 L 543.46875 423.546875 L 461.015625 423.546875 Z M 564.082031 341.09375 L 646.539062 341.09375 L 646.539062 423.546875 L 564.082031 423.546875 Z M 151.808594 444.160156 L 234.265625 444.160156 L 234.265625 526.617188 L 151.808594 526.617188 Z M 254.878906 444.160156 L 337.332031 444.160156 L 337.332031 526.617188 L 254.878906 526.617188 Z M 357.945312 444.160156 L 440.402344 444.160156 L 440.402344 526.617188 L 357.945312 526.617188 Z M 461.015625 444.160156 L 543.46875 444.160156 L 543.46875 526.617188 L 461.015625 526.617188 Z M 564.082031 444.160156 L 646.539062 444.160156 L 646.539062 526.617188 L 564.082031 526.617188 Z M 151.808594 547.230469 L 234.265625 547.230469 L 234.265625 629.683594 L 151.808594 629.683594 Z M 254.878906 547.230469 L 337.332031 547.230469 L 337.332031 629.683594 L 254.878906 629.683594 Z M 357.945312 547.230469 L 440.402344 547.230469 L 440.402344 629.683594 L 357.945312 629.683594 Z M 461.015625 547.230469 L 543.46875 547.230469 L 543.46875 629.683594 L 461.015625 629.683594 Z M 564.082031 547.230469 L 646.539062 547.230469 L 646.539062 629.683594 L 564.082031 629.683594 Z M 151.808594 650.296875 L 234.265625 650.296875 L 234.265625 732.753906 L 151.808594 732.753906 Z M 254.878906 650.296875 L 337.332031 650.296875 L 337.332031 732.753906 L 254.878906 732.753906 Z M 357.945312 650.296875 L 440.402344 650.296875 L 440.402344 732.753906 L 357.945312 732.753906 Z M 357.945312 650.296875 " fill-opacity="1" fill-rule="nonzero"/></svg>