<svg width="20" height="20" viewBox="0 0 20 20" fill="none" xmlns="http://www.w3.org/2000/svg">
    <path
        d="M18.75 4.99994C18.75 4.3369 18.4866 3.70102 18.0178 3.23218C17.5489 2.76333 16.913 2.49994 16.25 2.49994H15.625V1.89252C15.625 1.55619 15.3664 1.26752 15.0301 1.25072C14.9456 1.24665 14.8611 1.25978 14.7818 1.28931C14.7026 1.31884 14.6301 1.36417 14.5688 1.42253C14.5076 1.48089 14.4588 1.55108 14.4255 1.62885C14.3922 1.70662 14.375 1.79034 14.375 1.87494V2.49994H5.625V1.89252C5.625 1.55619 5.36641 1.26752 5.03008 1.25072C4.94557 1.24665 4.86112 1.25978 4.78184 1.28931C4.70255 1.31884 4.63009 1.36417 4.56884 1.42253C4.50759 1.48089 4.45883 1.55108 4.42551 1.62885C4.39219 1.70662 4.37501 1.79034 4.375 1.87494V2.49994H3.75C3.08696 2.49994 2.45107 2.76333 1.98223 3.23218C1.51339 3.70102 1.25 4.3369 1.25 4.99994V5.46869C1.25 5.51013 1.26646 5.54988 1.29576 5.57918C1.32507 5.60848 1.36481 5.62494 1.40625 5.62494H18.5938C18.6352 5.62494 18.6749 5.60848 18.7042 5.57918C18.7335 5.54988 18.75 5.51013 18.75 5.46869V4.99994Z"
        fill="#CB955B" />
    <path
        d="M1.25 16.25C1.25 16.913 1.51339 17.5489 1.98223 18.0178C2.45107 18.4866 3.08696 18.75 3.75 18.75H16.25C16.913 18.75 17.5489 18.4866 18.0178 18.0178C18.4866 17.5489 18.75 16.913 18.75 16.25V6.99219C18.75 6.96111 18.7377 6.9313 18.7157 6.90932C18.6937 6.88735 18.6639 6.875 18.6328 6.875H1.36719C1.33611 6.875 1.3063 6.88735 1.28432 6.90932C1.26235 6.9313 1.25 6.96111 1.25 6.99219V16.25ZM14.6875 8.125C14.8729 8.125 15.0542 8.17998 15.2083 8.283C15.3625 8.38601 15.4827 8.53243 15.5536 8.70373C15.6246 8.87504 15.6432 9.06354 15.607 9.2454C15.5708 9.42725 15.4815 9.5943 15.3504 9.72541C15.2193 9.85652 15.0523 9.94581 14.8704 9.98199C14.6885 10.0182 14.5 9.99959 14.3287 9.92864C14.1574 9.85768 14.011 9.73752 13.908 9.58335C13.805 9.42918 13.75 9.24792 13.75 9.0625C13.75 8.81386 13.8488 8.5754 14.0246 8.39959C14.2004 8.22377 14.4389 8.125 14.6875 8.125ZM14.6875 11.25C14.8729 11.25 15.0542 11.305 15.2083 11.408C15.3625 11.511 15.4827 11.6574 15.5536 11.8287C15.6246 12 15.6432 12.1885 15.607 12.3704C15.5708 12.5523 15.4815 12.7193 15.3504 12.8504C15.2193 12.9815 15.0523 13.0708 14.8704 13.107C14.6885 13.1432 14.5 13.1246 14.3287 13.0536C14.1574 12.9827 14.011 12.8625 13.908 12.7083C13.805 12.5542 13.75 12.3729 13.75 12.1875C13.75 11.9389 13.8488 11.7004 14.0246 11.5246C14.2004 11.3488 14.4389 11.25 14.6875 11.25ZM11.5625 8.125C11.7479 8.125 11.9292 8.17998 12.0833 8.283C12.2375 8.38601 12.3577 8.53243 12.4286 8.70373C12.4996 8.87504 12.5182 9.06354 12.482 9.2454C12.4458 9.42725 12.3565 9.5943 12.2254 9.72541C12.0943 9.85652 11.9273 9.94581 11.7454 9.98199C11.5635 10.0182 11.375 9.99959 11.2037 9.92864C11.0324 9.85768 10.886 9.73752 10.783 9.58335C10.68 9.42918 10.625 9.24792 10.625 9.0625C10.625 8.81386 10.7238 8.5754 10.8996 8.39959C11.0754 8.22377 11.3139 8.125 11.5625 8.125ZM11.5625 11.25C11.7479 11.25 11.9292 11.305 12.0833 11.408C12.2375 11.511 12.3577 11.6574 12.4286 11.8287C12.4996 12 12.5182 12.1885 12.482 12.3704C12.4458 12.5523 12.3565 12.7193 12.2254 12.8504C12.0943 12.9815 11.9273 13.0708 11.7454 13.107C11.5635 13.1432 11.375 13.1246 11.2037 13.0536C11.0324 12.9827 10.886 12.8625 10.783 12.7083C10.68 12.5542 10.625 12.3729 10.625 12.1875C10.625 11.9389 10.7238 11.7004 10.8996 11.5246C11.0754 11.3488 11.3139 11.25 11.5625 11.25ZM11.5625 14.375C11.7479 14.375 11.9292 14.43 12.0833 14.533C12.2375 14.636 12.3577 14.7824 12.4286 14.9537C12.4996 15.125 12.5182 15.3135 12.482 15.4954C12.4458 15.6773 12.3565 15.8443 12.2254 15.9754C12.0943 16.1065 11.9273 16.1958 11.7454 16.232C11.5635 16.2682 11.375 16.2496 11.2037 16.1786C11.0324 16.1077 10.886 15.9875 10.783 15.8333C10.68 15.6792 10.625 15.4979 10.625 15.3125C10.625 15.0639 10.7238 14.8254 10.8996 14.6496C11.0754 14.4738 11.3139 14.375 11.5625 14.375ZM8.4375 11.25C8.62292 11.25 8.80418 11.305 8.95835 11.408C9.11252 11.511 9.23268 11.6574 9.30364 11.8287C9.37459 12 9.39316 12.1885 9.35699 12.3704C9.32081 12.5523 9.23152 12.7193 9.10041 12.8504C8.9693 12.9815 8.80225 13.0708 8.6204 13.107C8.43854 13.1432 8.25004 13.1246 8.07873 13.0536C7.90743 12.9827 7.76101 12.8625 7.658 12.7083C7.55498 12.5542 7.5 12.3729 7.5 12.1875C7.5 11.9389 7.59877 11.7004 7.77459 11.5246C7.9504 11.3488 8.18886 11.25 8.4375 11.25ZM8.4375 14.375C8.62292 14.375 8.80418 14.43 8.95835 14.533C9.11252 14.636 9.23268 14.7824 9.30364 14.9537C9.37459 15.125 9.39316 15.3135 9.35699 15.4954C9.32081 15.6773 9.23152 15.8443 9.10041 15.9754C8.9693 16.1065 8.80225 16.1958 8.6204 16.232C8.43854 16.2682 8.25004 16.2496 8.07873 16.1786C7.90743 16.1077 7.76101 15.9875 7.658 15.8333C7.55498 15.6792 7.5 15.4979 7.5 15.3125C7.5 15.0639 7.59877 14.8254 7.77459 14.6496C7.9504 14.4738 8.18886 14.375 8.4375 14.375ZM5.3125 11.25C5.49792 11.25 5.67918 11.305 5.83335 11.408C5.98752 11.511 6.10768 11.6574 6.17864 11.8287C6.24959 12 6.26816 12.1885 6.23199 12.3704C6.19581 12.5523 6.10652 12.7193 5.97541 12.8504C5.8443 12.9815 5.67725 13.0708 5.4954 13.107C5.31354 13.1432 5.12504 13.1246 4.95373 13.0536C4.78243 12.9827 4.63601 12.8625 4.533 12.7083C4.42998 12.5542 4.375 12.3729 4.375 12.1875C4.375 11.9389 4.47377 11.7004 4.64959 11.5246C4.8254 11.3488 5.06386 11.25 5.3125 11.25ZM5.3125 14.375C5.49792 14.375 5.67918 14.43 5.83335 14.533C5.98752 14.636 6.10768 14.7824 6.17864 14.9537C6.24959 15.125 6.26816 15.3135 6.23199 15.4954C6.19581 15.6773 6.10652 15.8443 5.97541 15.9754C5.8443 16.1065 5.67725 16.1958 5.4954 16.232C5.31354 16.2682 5.12504 16.2496 4.95373 16.1786C4.78243 16.1077 4.63601 15.9875 4.533 15.8333C4.42998 15.6792 4.375 15.4979 4.375 15.3125C4.375 15.0639 4.47377 14.8254 4.64959 14.6496C4.8254 14.4738 5.06386 14.375 5.3125 14.375Z"
        fill="#CB955B" />
</svg>
