<svg width="30" height="31" viewBox="0 0 30 31" fill="none" xmlns="http://www.w3.org/2000/svg">
    <path
        d="M14.9958 5.99219C10.0146 5.99219 5.97656 10.0302 5.97656 15.0114C5.97656 19.9926 10.0146 24.0306 14.9958 24.0306C19.977 24.0306 24.0146 19.9926 24.0146 15.0114C24.0146 10.0302 19.9766 5.99219 14.9958 5.99219ZM14.9958 20.0546C12.2102 20.0546 9.95216 17.7966 9.95216 15.0114C9.95216 12.2258 12.2102 9.96779 14.9958 9.96779C17.7814 9.96779 20.039 12.2258 20.039 15.0114C20.039 17.7966 17.781 20.0546 14.9958 20.0546Z"
        fill="#38794B" />
    <path
        d="M15 0.0117188C6.7152 0.0117188 0 6.72892 0 15.0125C0 23.2965 6.7152 30.0117 15 30.0117C23.2848 30.0117 30 23.2965 30 15.0125C30 6.72892 23.2848 0.0117188 15 0.0117188ZM15 26.0361C8.9204 26.0361 3.976 21.0913 3.976 15.0125C3.976 8.93452 8.9208 3.98772 15 3.98772C21.0792 3.98772 26.024 8.93452 26.024 15.0125C26.024 21.0909 21.0792 26.0361 15 26.0361Z"
        fill="#38794B" />
    <path
        d="M14.9937 18.0616C16.6773 18.0616 18.0421 16.6968 18.0421 15.0132C18.0421 13.3297 16.6773 11.9648 14.9937 11.9648C13.3101 11.9648 11.9453 13.3297 11.9453 15.0132C11.9453 16.6968 13.3101 18.0616 14.9937 18.0616Z"
        fill="#38794B" />
</svg>
