<svg width="12" height="13" viewBox="0 0 12 13" fill="none" xmlns="http://www.w3.org/2000/svg">
<g clip-path="url(#clip0_30764_81763)">
<path fill-rule="evenodd" clip-rule="evenodd" d="M0.21967 0.81342C0.512563 0.520527 0.987437 0.520527 1.28033 0.81342L11.7803 11.3134C12.0732 11.6063 12.0732 12.0812 11.7803 12.3741C11.4874 12.667 11.0126 12.667 10.7197 12.3741L0.21967 1.87408C-0.0732233 1.58119 -0.0732233 1.10631 0.21967 0.81342Z" fill="black"/>
<path fill-rule="evenodd" clip-rule="evenodd" d="M11.7803 0.81342C12.0732 1.10631 12.0732 1.58119 11.7803 1.87408L1.28033 12.3741C0.987437 12.667 0.512563 12.667 0.21967 12.3741C-0.0732233 12.0812 -0.0732233 11.6063 0.21967 11.3134L10.7197 0.81342C11.0126 0.520527 11.4874 0.520527 11.7803 0.81342Z" fill="black"/>
</g>
<defs>
<clipPath id="clip0_30764_81763">
<rect width="12" height="12" fill="white" transform="translate(0 0.59375)"/>
</clipPath>
</defs>
</svg>
