<svg width="16" height="16" viewBox="0 0 16 16" fill="none" xmlns="http://www.w3.org/2000/svg">
<path d="M5.00109 11.7414L4.56393 12.1676C4.50565 12.2244 4.43862 12.2528 4.36284 12.2528C4.28707 12.2528 4.22004 12.2244 4.16175 12.1676L0.0874317 8.19617C0.0291439 8.13936 0 8.07402 0 8.00016C0 7.9263 0.0291439 7.86096 0.0874317 7.80415L4.16175 3.83277C4.22004 3.77595 4.28707 3.74754 4.36284 3.74754C4.43862 3.74754 4.50565 3.77595 4.56393 3.83277L5.00109 4.25888C5.05938 4.3157 5.08852 4.38103 5.08852 4.45489C5.08852 4.52875 5.05938 4.59409 5.00109 4.65091L1.56503 8.00016L5.00109 11.3494C5.05938 11.4062 5.08852 11.4716 5.08852 11.5454C5.08852 11.6193 5.05938 11.6846 5.00109 11.7414ZM10.1683 2.64817L6.9071 13.6504C6.88379 13.7243 6.83862 13.7797 6.77158 13.8166C6.70455 13.8535 6.63607 13.8606 6.56612 13.8379L6.02404 13.693C5.94827 13.6703 5.89144 13.6263 5.85355 13.5609C5.81567 13.4956 5.80838 13.426 5.83169 13.3521L9.0929 2.34989C9.11621 2.27603 9.16138 2.22064 9.22842 2.18371C9.29545 2.14678 9.36393 2.13967 9.43388 2.1624L9.97596 2.30728C10.0517 2.33001 10.1086 2.37404 10.1464 2.43937C10.1843 2.50471 10.1916 2.57431 10.1683 2.64817ZM15.9126 8.19617L11.8383 12.1676C11.78 12.2244 11.7129 12.2528 11.6372 12.2528C11.5614 12.2528 11.4944 12.2244 11.4361 12.1676L10.9989 11.7414C10.9406 11.6846 10.9115 11.6193 10.9115 11.5454C10.9115 11.4716 10.9406 11.4062 10.9989 11.3494L14.435 8.00016L10.9989 4.65091C10.9406 4.59409 10.9115 4.52875 10.9115 4.45489C10.9115 4.38103 10.9406 4.3157 10.9989 4.25888L11.4361 3.83277C11.4944 3.77595 11.5614 3.74754 11.6372 3.74754C11.7129 3.74754 11.78 3.77595 11.8383 3.83277L15.9126 7.80415C15.9709 7.86096 16 7.9263 16 8.00016C16 8.07402 15.9709 8.13936 15.9126 8.19617Z" fill="#CED4DA"/>
</svg>
