<svg width="18" height="18" viewBox="0 0 18 18" fill="none" xmlns="http://www.w3.org/2000/svg">
    <path
        d="M6.07582 16.9634L0.695281 11.5815C0.549467 11.4356 0.440113 11.2752 0.36722 11.1002C0.294326 10.9252 0.257892 10.7429 0.257917 10.5533C0.257942 10.3637 0.294424 10.1814 0.367364 10.0064C0.440304 9.83145 0.5497 9.67105 0.695553 9.52523L5.72746 4.51652L3.40902 2.19747L4.76546 0.775771L13.5143 9.52693C13.6601 9.67278 13.7658 9.83321 13.8314 10.0082C13.897 10.1832 13.9298 10.3655 13.9298 10.5551C13.9298 10.7447 13.8969 10.927 13.8313 11.102C13.7656 11.277 13.6599 11.4374 13.514 11.5832L8.13207 16.9637C7.98622 17.1095 7.82579 17.2189 7.65078 17.2918C7.47577 17.3647 7.29347 17.4011 7.10389 17.4011C6.91431 17.4011 6.73202 17.3646 6.55703 17.2916C6.38204 17.2187 6.22164 17.1093 6.07582 16.9634ZM7.10541 5.89483L2.42354 10.5755L11.786 10.5767L7.10541 5.89483ZM15.832 17.4022C15.307 17.4022 14.8622 17.2162 14.4977 16.8442C14.1332 16.4723 13.9509 16.0166 13.951 15.477C13.9511 15.0832 14.0496 14.7114 14.2465 14.3614C14.4434 14.0114 14.6658 13.6687 14.9138 13.3334L15.8327 12.1522L16.7951 13.3336C17.0283 13.6691 17.247 14.0118 17.4512 14.3618C17.6553 14.7118 17.7573 15.0837 17.7573 15.4775C17.7572 16.0171 17.5676 16.4728 17.1883 16.8446C16.8091 17.2164 16.357 17.4023 15.832 17.4022Z"
        fill="currentColor" />
</svg>