<svg width="18" height="18" viewBox="0 0 18 18" fill="none" xmlns="http://www.w3.org/2000/svg">
    <path
        d="M6.07638 16.9634L0.69584 11.5815C0.550026 11.4356 0.440672 11.2752 0.367779 11.1002C0.294885 10.9252 0.258451 10.7429 0.258476 10.5533C0.258501 10.3637 0.294983 10.1814 0.367923 10.0064C0.440863 9.83145 0.550259 9.67105 0.696111 9.52523L5.72802 4.51652L3.40958 2.19747L4.76602 0.775771L13.5149 9.52693C13.6607 9.67278 13.7664 9.83321 13.832 10.0082C13.8976 10.1832 13.9304 10.3655 13.9304 10.5551C13.9303 10.7447 13.8975 10.927 13.8318 11.102C13.7662 11.277 13.6604 11.4374 13.5146 11.5832L8.13263 16.9637C7.98678 17.1095 7.82635 17.2189 7.65134 17.2918C7.47633 17.3647 7.29403 17.4011 7.10445 17.4011C6.91486 17.4011 6.73258 17.3646 6.55759 17.2916C6.3826 17.2187 6.22219 17.1093 6.07638 16.9634ZM7.10597 5.89483L2.4241 10.5755L11.7866 10.5767L7.10597 5.89483ZM15.8326 17.4022C15.3076 17.4022 14.8628 17.2162 14.4983 16.8442C14.1337 16.4723 13.9515 16.0166 13.9516 15.477C13.9516 15.0832 14.0501 14.7114 14.247 14.3614C14.444 14.0114 14.6664 13.6687 14.9144 13.3334L15.8333 12.1522L16.7956 13.3336C17.0289 13.6691 17.2476 14.0118 17.4517 14.3618C17.6558 14.7118 17.7579 15.0837 17.7578 15.4775C17.7578 16.0171 17.5681 16.4728 17.1889 16.8446C16.8097 17.2164 16.3576 17.4023 15.8326 17.4022Z"
        fill="#43A2AC" />
</svg>