<svg width="24" height="24" viewBox="0 0 24 24" fill="none" xmlns="http://www.w3.org/2000/svg">
<path fill-rule="evenodd" clip-rule="evenodd" d="M11.9934 4.44111C7.44002 4.44111 3.78747 7.75782 3.80118 11.8125L3.80119 11.8135V11.8145C3.80113 13.225 4.24845 14.6046 5.08791 15.7837C5.13586 15.844 5.18071 15.9064 5.22233 15.9707L5.22563 15.9757L5.22883 15.9809C5.2962 16.0895 5.37608 16.2358 5.43114 16.3974C5.48152 16.5452 5.53955 16.7862 5.46372 17.0434L5.46332 17.0448L4.75758 19.3975L7.19812 18.5858C7.44076 18.4938 7.70077 18.4468 7.96326 18.4476L7.96457 18.4476L7.96198 19.0773L7.96326 18.4476C8.20901 18.4479 8.45262 18.4897 8.68202 18.571L8.68301 18.5713C8.82152 18.6206 9.37326 18.8095 9.91884 18.9502C10.4552 19.0886 11.4456 19.2564 12.1463 19.2564C16.6769 19.2564 20.2 15.9038 20.2001 11.8206C20.1999 11.3141 20.1417 10.8088 20.0265 10.3135L20.0262 10.3122C19.2578 6.97344 15.9613 4.44111 11.9934 4.44111ZM2.43461 11.8155C2.41903 7.03469 6.71629 3.18164 11.9934 3.18164C16.5987 3.18164 20.4585 6.12281 21.3628 10.0499C21.4981 10.6318 21.5664 11.2251 21.5666 11.8202C21.5666 16.5855 17.4463 20.5158 12.1463 20.5158C11.2839 20.5158 10.1647 20.3215 9.55052 20.1631C8.94637 20.0073 8.35008 19.8029 8.19131 19.7464C8.11787 19.7205 8.03988 19.7071 7.96121 19.707L7.9603 19.707L7.95938 19.707C7.87443 19.7067 7.7903 19.7223 7.71207 19.7528L7.69503 19.7595L4.79705 20.7234C4.67674 20.7689 4.54995 20.7983 4.42054 20.8108L4.3841 20.8143L4.34746 20.8142C4.20282 20.8138 4.05972 20.7869 3.92643 20.7352C3.79313 20.6834 3.6723 20.6078 3.57094 20.5128C3.46957 20.4177 3.38968 20.305 3.3359 20.1813C3.28212 20.0575 3.25551 19.9252 3.25762 19.7919L3.25792 19.773L3.25945 19.7541C3.26645 19.6679 3.28309 19.5827 3.3091 19.4997L4.1269 16.7734C4.11199 16.7302 4.08352 16.6729 4.04572 16.6113C4.02515 16.5799 4.00295 16.5495 3.97919 16.5201L3.96751 16.5056L3.95674 16.4906C2.96399 15.103 2.43476 13.4775 2.43461 11.8155Z" fill="currentColor"/>
<path d="M7.96326 18.4476C7.70077 18.4468 7.44076 18.4938 7.19812 18.5858L4.75758 19.3975L5.46332 17.0448L5.46372 17.0434C5.53955 16.7862 5.48152 16.5452 5.43114 16.3974C5.37608 16.2358 5.2962 16.0895 5.22883 15.9809L5.22563 15.9758L5.22233 15.9707C5.18071 15.9064 5.13586 15.844 5.08791 15.7837C4.24845 14.6046 3.80113 13.225 3.80119 11.8145V11.8135L3.80118 11.8125C3.78747 7.75782 7.44002 4.44111 11.9934 4.44111C15.9613 4.44111 19.2578 6.97344 20.0262 10.3122L20.0265 10.3135C20.1417 10.8088 20.1999 11.3141 20.2001 11.8206M7.96326 18.4476L7.96457 18.4476L7.96198 19.0773L7.96326 18.4476ZM7.96326 18.4476C8.20901 18.4479 8.45262 18.4897 8.68202 18.571L8.68301 18.5713C8.82152 18.6206 9.37326 18.8095 9.91884 18.9502C10.4552 19.0886 11.4456 19.2564 12.1463 19.2564C16.6769 19.2564 20.2 15.9038 20.2001 11.8206M20.2001 11.8206L20.8834 11.8204M11.9934 3.18164C6.71629 3.18164 2.41903 7.03469 2.43461 11.8155C2.43476 13.4775 2.96399 15.103 3.95674 16.4906L3.96751 16.5056L3.97919 16.5201C4.00295 16.5495 4.02515 16.5799 4.04572 16.6113C4.08352 16.6729 4.11199 16.7302 4.1269 16.7734L3.3091 19.4997C3.28309 19.5827 3.26645 19.6679 3.25945 19.7541L3.25792 19.773L3.25762 19.7919C3.25551 19.9252 3.28212 20.0575 3.3359 20.1813C3.38968 20.305 3.46957 20.4177 3.57094 20.5128C3.6723 20.6078 3.79313 20.6834 3.92643 20.7352C4.05972 20.7869 4.20282 20.8138 4.34746 20.8142L4.3841 20.8143L4.42054 20.8108C4.54995 20.7983 4.67674 20.7689 4.79705 20.7234L7.69503 19.7595L7.71207 19.7528C7.7903 19.7223 7.87443 19.7067 7.95938 19.707L7.9603 19.707L7.96121 19.707C8.03988 19.7071 8.11787 19.7205 8.19131 19.7464C8.35008 19.8029 8.94637 20.0073 9.55052 20.1631C10.1647 20.3215 11.2839 20.5158 12.1463 20.5158C17.4463 20.5158 21.5666 16.5855 21.5666 11.8202C21.5664 11.2251 21.4981 10.6318 21.3628 10.0499C20.4585 6.12281 16.5987 3.18164 11.9934 3.18164Z" stroke="currentColor" stroke-width="0.5" stroke-miterlimit="10" stroke-linecap="round"/>
</svg>
