<svg width="15" height="15" viewBox="0 0 15 15" xmlns="http://www.w3.org/2000/svg">
<path d="M7.09961 0.0498047C7.37809 0.0498047 7.64488 0.160509 7.8418 0.357422C8.03871 0.554335 8.14941 0.821132 8.14941 1.09961V2.0498H13.0996C13.3781 2.0498 13.6449 2.16051 13.8418 2.35742C14.0387 2.55434 14.1494 2.82113 14.1494 3.09961V13.0996C14.1494 13.3781 14.0387 13.6449 13.8418 13.8418C13.6449 14.0387 13.3781 14.1494 13.0996 14.1494H7.09961C6.82113 14.1494 6.55433 14.0387 6.35742 13.8418C6.16051 13.6449 6.0498 13.3781 6.0498 13.0996V12.1494H1.09961C0.821132 12.1494 0.554335 12.0387 0.357422 11.8418C0.160509 11.6449 0.0498047 11.3781 0.0498047 11.0996V1.09961C0.0498047 0.821132 0.160509 0.554335 0.357422 0.357422C0.554335 0.160509 0.821132 0.0498047 1.09961 0.0498047H7.09961ZM8.14941 11.0996C8.14941 11.3781 8.03871 11.6449 7.8418 11.8418C7.65668 12.0269 7.40973 12.1341 7.14941 12.1465V13.0498H13.0498V8.64941H10.1348L11.3398 9.85938L11.375 9.89453L10.5996 10.6699L8.14941 8.21973V11.0996ZM1.14941 5.5498H4.06445L2.85938 4.33984L2.82422 4.30469L3.59961 3.5293L6.16992 6.09961L3.59961 8.66992L2.82422 7.89453L2.85938 7.85938L4.06445 6.64941H1.14941V11.0498H7.0498V1.14941H1.14941V5.5498ZM8.14941 7.97949L10.5996 5.5293L11.375 6.30469L11.3398 6.33984L10.1348 7.5498H13.0498V3.14941H8.14941V7.97949Z" fill="currentColor"/>
</svg>
