<svg width="45" height="45" viewBox="0 0 45 45" fill="none" xmlns="http://www.w3.org/2000/svg">
    <path
        d="M0 22.5C0 10.0736 10.0736 0 22.5 0C34.9264 0 45 10.0736 45 22.5C45 34.9264 34.9264 45 22.5 45C10.0736 45 0 34.9264 0 22.5Z"
        fill="#B0B0B0" />
    <path
        d="M20.7374 24.2619C21.2499 24.7494 21.2499 25.5494 20.7374 26.0369C20.2499 26.5244 19.4499 26.5244 18.9624 26.0369C16.5249 23.5994 16.5249 19.6369 18.9624 17.1994L23.3874 12.7744C25.8249 10.3369 29.7874 10.3369 32.2249 12.7744C34.6624 15.2119 34.6624 19.1744 32.2249 21.6119L30.3624 23.4744C30.3749 22.4494 30.2124 21.4244 29.8624 20.4494L30.4499 19.8494C31.9249 18.3869 31.9249 16.0119 30.4499 14.5494C28.9874 13.0744 26.6124 13.0744 25.1499 14.5494L20.7374 18.9619C19.2624 20.4244 19.2624 22.7994 20.7374 24.2619ZM24.2624 18.9619C24.7499 18.4744 25.5499 18.4744 26.0374 18.9619C28.4749 21.3994 28.4749 25.3619 26.0374 27.7994L21.6124 32.2244C19.1749 34.6619 15.2124 34.6619 12.7749 32.2244C10.3374 29.7869 10.3374 25.8244 12.7749 23.3869L14.6374 21.5244C14.6249 22.5494 14.7874 23.5744 15.1374 24.5619L14.5499 25.1494C13.0749 26.6119 13.0749 28.9869 14.5499 30.4494C16.0124 31.9244 18.3874 31.9244 19.8499 30.4494L24.2624 26.0369C25.7374 24.5744 25.7374 22.1994 24.2624 20.7369C23.7499 20.2494 23.7499 19.4494 24.2624 18.9619Z"
        fill="white" />
</svg>
