<svg width="245" height="24" viewBox="0 0 245 24" fill="none" xmlns="http://www.w3.org/2000/svg">
    <path fill-rule="evenodd" clip-rule="evenodd"
        d="M15.499 4.32872C15.3264 4.1714 15.0742 4.0867 14.8086 4.0988C14.5696 4.1109 14.1581 4.1593 13.9058 4.20771C13.6535 4.25611 10.5999 4.89748 7.13464 5.64775C3.6694 6.38592 0.695404 7.05149 0.536076 7.11199C0.363491 7.1846 0.164343 7.37822 0.0846824 7.57185C0.00502174 7.75335 -0.0215308 8.08009 0.0182995 8.29791C0.0714042 8.55205 0.204173 8.72145 0.403332 8.79405C0.589209 8.86666 1.08045 8.84247 1.79737 8.73354C2.39485 8.63675 3.80218 8.34632 4.91741 8.09218C6.01942 7.83808 6.94877 7.63236 6.97532 7.63236C6.98861 7.64445 6.93551 8.61256 6.84257 9.77425C6.74963 10.9481 6.66995 13.7556 6.68324 16.0669C6.68324 18.596 6.74963 20.7137 6.85583 21.4519C6.96206 22.2627 7.0948 22.7346 7.24087 22.8798C7.37362 23.0009 7.65243 23.0977 7.93125 23.0977C8.23662 23.0977 8.48888 23.0009 8.66147 22.8315C8.88719 22.6136 8.92703 22.3716 8.96683 21.2825C9.00667 20.2781 8.96683 19.903 8.79425 19.5762C8.59508 19.2011 8.58182 18.717 8.63492 15.1593C8.67476 12.969 8.78095 10.3188 8.86064 9.2902C8.95357 8.26162 9.09961 7.35402 9.17926 7.26931C9.25894 7.1846 9.89622 6.97888 10.5866 6.79736C11.662 6.51904 11.9143 6.49483 12.3524 6.61585C12.7905 6.73686 12.9632 6.70055 14.0784 6.31332C14.7422 6.08339 15.4061 5.79296 15.5389 5.68405C15.6849 5.55094 15.7778 5.30892 15.7645 5.03059C15.7645 4.74016 15.6716 4.48603 15.499 4.32872ZM20.5044 5.05479C20.2919 4.74016 20.0928 4.61915 19.7874 4.59495C19.4687 4.57074 19.3227 4.61915 19.1767 4.83697C19.0572 4.99428 18.5527 7.2209 18.0349 9.83476C17.5171 12.4244 17.0258 15.0746 16.9462 15.7038C16.8532 16.3331 16.7869 17.8941 16.7736 19.1769C16.7603 21.3551 16.7736 21.5124 17.0391 21.8392C17.1985 22.0207 17.4773 22.2264 17.6764 22.299C17.9154 22.3837 18.1013 22.3837 18.2606 22.2869C18.3801 22.2143 18.7518 21.6697 19.0837 21.0768C19.4953 20.3265 19.96 19.7214 20.6106 19.1043C21.1284 18.6081 22.0444 17.8337 22.6685 17.3859C23.2925 16.9261 23.8103 16.5751 23.8235 16.5872C23.8501 16.5993 23.9165 17.5311 23.9829 18.6686C24.0625 19.8062 24.2086 21.0042 24.3148 21.3309C24.421 21.6697 24.6201 22.0691 24.7662 22.2385C24.899 22.4079 25.1911 22.5894 25.4035 22.6378C25.6823 22.7104 25.8416 22.6862 25.9877 22.541C26.1603 22.3716 26.1603 22.178 25.9877 20.75C25.8814 19.8788 25.7885 18.1241 25.7885 16.8777V14.5905C25.1247 14.046 24.7928 13.8887 24.6334 13.8887C24.4608 13.8887 23.9696 14.0823 23.5315 14.3243C23.0933 14.5542 22.2967 15.0625 21.7524 15.4376C21.208 15.8128 20.2919 16.5267 19.721 17.0108C19.0173 17.6037 18.6854 17.8094 18.6854 17.6763C18.6854 17.5553 18.7784 16.805 18.8846 16.0064C19.0041 15.2077 19.3626 13.2473 19.6945 11.65C20.0264 10.0526 20.4114 8.20111 20.5575 7.53553C20.6902 6.86997 20.8097 6.1318 20.8097 5.90187C20.8097 5.65985 20.6902 5.29681 20.5044 5.05479ZM36.3302 12.8963C36.0115 12.7149 35.5337 12.5454 35.2815 12.5091C35.0292 12.4728 34.6708 12.4849 34.4846 12.5454C34.2988 12.5938 33.914 12.7633 33.6217 12.9327C33.3166 13.1021 32.8917 13.5256 32.5862 13.9492C32.3074 14.3485 31.9622 15.0262 31.8161 15.4618C31.6303 16.0064 31.5506 16.563 31.5506 17.3133L31.5639 18.3661C30.9532 18.3661 30.4354 18.1967 30.0371 18.0031C29.6388 17.8094 29.1741 17.64 29.0015 17.64C28.8422 17.6279 28.6032 17.7247 28.4837 17.8458C28.3509 17.9667 28.2447 18.2572 28.2447 18.5234C28.2447 18.8743 28.3376 19.0438 28.6696 19.3342C28.9085 19.5399 29.3732 19.794 29.7051 19.8909C30.0371 19.9877 30.7408 20.1087 31.2851 20.1571C32.1481 20.2297 32.2808 20.2781 32.4269 20.5443C32.5197 20.7137 32.8517 21.0768 33.1704 21.3672C33.4891 21.6576 33.9937 21.9965 34.2856 22.1175C34.5779 22.2506 35.1753 22.42 35.6134 22.4926C36.0515 22.5652 36.7286 22.5894 37.1402 22.541C37.5383 22.4926 38.0696 22.3837 38.2951 22.2869C38.5341 22.1901 38.7996 22.0086 38.8661 21.8754C38.9325 21.7423 38.999 21.5366 38.999 21.4277C39.0122 21.3067 38.8925 21.0647 38.7335 20.8832L38.4677 20.5443C35.3211 20.6048 35.3079 20.6048 34.7369 20.2418C34.4185 20.0361 34.1395 19.7819 34.113 19.6972C34.0998 19.5883 34.3389 19.3947 34.7105 19.2132C35.0689 19.0438 35.7728 18.5355 36.2905 18.0636C37.0073 17.4101 37.2996 17.0471 37.5251 16.4904C37.7509 15.9459 37.8173 15.5707 37.7773 15.0262C37.7509 14.4211 37.658 14.1791 37.326 13.7556C37.1002 13.4651 36.6489 13.0779 36.3302 12.8963ZM33.6349 17.0108C33.675 16.6598 33.8075 16.079 33.9272 15.7159C34.0466 15.3529 34.2856 14.9294 34.445 14.772C34.6043 14.6268 34.8302 14.4937 34.9495 14.4937C35.0556 14.4937 35.2947 14.6268 35.4805 14.7962C35.6663 14.9657 35.8124 15.1472 35.8124 15.2198C35.8124 15.2924 35.7328 15.5223 35.6399 15.7401C35.5337 15.9459 35.3079 16.2968 35.1221 16.4904C34.9363 16.684 34.5114 17.035 33.5552 17.64L33.6349 17.0108Z"
        fill="#791415" />
    <path fill-rule="evenodd" clip-rule="evenodd"
        d="M53.2916 3.66164C56.5406 3.68038 56.7631 3.68663 57.4561 3.8241C57.8567 3.89908 58.4861 4.06155 58.8549 4.18027C59.2236 4.30524 59.7514 4.51769 60.0311 4.66141C60.3109 4.80513 60.7559 5.08006 61.0166 5.27377C61.2773 5.46747 61.6651 5.8049 61.8686 6.0236C62.072 6.2423 62.3518 6.57972 62.4789 6.76718C62.6125 6.95463 62.8159 7.30455 62.9367 7.54825C63.0639 7.79194 63.2355 8.17935 63.3245 8.42305C63.4072 8.66674 63.5534 9.18537 63.6424 9.57903C63.7315 9.97269 63.8395 10.5788 63.8777 10.9225C63.9158 11.2661 63.9476 12.1347 63.9476 12.8595C63.9476 13.6344 63.9031 14.4967 63.8459 14.9653C63.795 15.4089 63.706 15.9838 63.6488 16.2463C63.5916 16.5149 63.4771 16.9711 63.3881 17.2648C63.3055 17.5585 63.1338 18.0333 63.0066 18.327C62.8858 18.6207 62.7078 18.9831 62.6188 19.1393C62.5298 19.2956 62.3391 19.5892 62.1992 19.7954C62.0593 20.0016 61.7541 20.3641 61.5252 20.6015C61.2964 20.8327 60.9276 21.1639 60.6987 21.3263C60.4698 21.4951 60.0693 21.7387 59.8086 21.8762C59.5479 22.0137 59.0774 22.2136 58.7595 22.3261C58.4416 22.4323 57.9012 22.5761 57.5515 22.6448C57.2018 22.7135 56.4452 22.801 55.8666 22.8322C55.2881 22.8697 53.7176 22.8885 49.9156 22.8572L49.6104 22.701C49.3751 22.5823 49.2607 22.4698 49 21.9824V13.3594C49 5.67992 49.0064 4.70515 49.0954 4.45521C49.1526 4.29899 49.2607 4.10529 49.337 4.02405C49.4133 3.94282 49.5659 3.8241 49.6676 3.75537C49.852 3.64289 50.0109 3.64289 53.2916 3.66164ZM54.3979 13.2532C54.4043 16.7149 54.417 17.6959 54.4806 17.7897C54.5505 17.8896 54.6332 17.9021 55.1672 17.8834C55.714 17.8584 55.8285 17.8334 56.2481 17.6334C56.566 17.4772 56.8203 17.3023 57.0047 17.1023C57.1573 16.9336 57.3798 16.6024 57.5006 16.3587C57.6151 16.115 57.774 15.6401 57.8503 15.2965C57.9775 14.7466 57.9902 14.4842 57.9966 13.1095C57.9966 11.791 57.9775 11.4661 57.8758 11.0474C57.8122 10.7725 57.7041 10.4226 57.6341 10.2664C57.5642 10.1102 57.4307 9.88521 57.329 9.76649C57.2336 9.64777 56.9984 9.45406 56.8076 9.34783C56.6232 9.23536 56.2417 9.09164 55.962 9.02291C55.6822 8.95417 55.2181 8.88544 54.9256 8.86669L54.3979 8.83545V13.2532ZM97.4161 8.86045C97.5877 8.87294 97.8611 8.94793 98.0201 9.02291C98.179 9.09789 98.3189 9.17912 98.338 9.20412C98.3571 9.22911 98.7131 9.42282 99.1327 9.63527C99.5524 9.84147 99.9211 10.0164 99.9593 10.0102C99.9911 10.0102 100.067 10.0852 100.118 10.1726C100.169 10.2601 100.233 10.3289 100.258 10.3289C100.284 10.3289 100.322 10.2976 100.341 10.2664C100.36 10.2289 100.544 10.2539 100.83 10.3351C101.085 10.4101 101.307 10.4851 101.326 10.5101C101.345 10.5351 101.498 10.5913 101.676 10.635C101.848 10.6788 102.235 10.8038 102.534 10.9225C102.833 11.0349 103.234 11.1599 103.424 11.1912C103.615 11.2287 103.99 11.3036 104.251 11.3599C104.512 11.4161 105.001 11.5286 105.332 11.6098C105.662 11.691 106.324 11.816 106.794 11.891C107.265 11.9597 107.678 12.041 107.716 12.0597C107.748 12.0847 108.021 12.1284 108.314 12.1659C108.835 12.2284 108.854 12.2409 108.899 12.4221C108.93 12.5221 108.981 12.9908 109.019 13.4531C109.051 13.9155 109.083 16.1713 109.083 22.6385L108.937 22.7323C108.86 22.7823 108.485 22.851 108.098 22.8947C107.672 22.9385 106.928 22.951 106.19 22.926C105.523 22.9072 104.836 22.8572 104.346 22.7323L104.315 18.3895C104.283 14.1217 104.276 14.0405 104.149 13.7968C104.073 13.6593 103.933 13.4906 103.838 13.4219C103.717 13.3282 103.571 13.2969 103.31 13.2969C103.017 13.2969 102.839 13.3532 101.835 13.8281V18.2958C101.835 22.4948 101.829 22.7635 101.72 22.801C101.663 22.8197 101.18 22.851 100.659 22.8697C100.131 22.8885 99.2154 22.8697 98.6241 22.8322C98.0265 22.7885 97.4352 22.7323 97.0664 22.6385V13.6406H96.5578C96.0936 13.6406 96.03 13.6219 95.852 13.4656C95.7439 13.3719 95.5977 13.1407 95.5278 12.9533C95.4451 12.7346 95.3815 12.3909 95.3625 12.016C95.3434 11.6723 95.3625 11.2349 95.407 10.985C95.4515 10.7413 95.5659 10.3476 95.6549 10.1102C95.7757 9.80398 95.922 9.57278 96.1445 9.33534C96.3861 9.07915 96.5323 8.98542 96.7803 8.91668C96.952 8.86669 97.2381 8.8417 97.4161 8.86045ZM117.793 8.86669C118.194 8.88544 118.741 8.94168 119.001 8.98542C119.262 9.03541 119.675 9.14163 119.923 9.22286C120.165 9.30409 120.54 9.46031 120.75 9.56653C120.96 9.67901 121.309 9.91021 121.532 10.0914C121.761 10.2726 122.091 10.6163 122.276 10.86C122.46 11.0974 122.683 11.4411 122.778 11.6223C122.867 11.8035 123.007 12.1722 123.083 12.4346C123.191 12.822 123.223 13.0782 123.217 13.7031C123.217 14.178 123.172 14.6654 123.109 14.9528C123.058 15.209 122.893 15.6464 122.759 15.9213C122.581 16.265 122.384 16.5399 122.104 16.8149C121.843 17.0711 121.526 17.296 121.195 17.4647C120.915 17.6022 120.413 17.7897 120.082 17.8771C119.536 18.0146 119.313 18.0333 116.064 18.1083L116.109 18.3895C116.134 18.5457 116.185 18.7519 116.229 18.8582C116.274 18.9581 116.401 19.1206 116.509 19.2143C116.624 19.3081 116.859 19.433 117.043 19.483C117.247 19.5393 117.641 19.5767 118.048 19.5767C118.417 19.5767 118.97 19.533 119.288 19.483C119.599 19.4268 120.057 19.3268 120.305 19.2518C120.546 19.1831 120.953 19.0269 121.208 18.9144C121.564 18.7519 121.685 18.7207 121.729 18.7769C121.761 18.8207 121.901 19.0831 122.041 19.358C122.18 19.633 122.352 20.0516 122.428 20.2953C122.505 20.5328 122.562 20.8702 122.562 21.0452C122.562 21.2139 122.53 21.4638 122.498 21.5888C122.46 21.7262 122.346 21.895 122.225 21.9887C122.111 22.0824 121.818 22.2511 121.576 22.3574C121.328 22.4698 120.896 22.6323 120.604 22.726C120.318 22.8135 119.803 22.9322 119.459 22.9947C119.027 23.0697 118.486 23.1009 117.634 23.0947C116.528 23.0947 116.369 23.0822 115.791 22.9322C115.441 22.8385 114.894 22.6385 114.583 22.4886C114.265 22.3324 113.826 22.0699 113.597 21.9012C113.368 21.7325 113.012 21.4263 112.809 21.2264C112.605 21.0202 112.281 20.6327 112.097 20.3578C111.912 20.0829 111.677 19.658 111.575 19.4205C111.474 19.1768 111.346 18.8269 111.289 18.6395C111.232 18.452 111.143 18.0396 111.086 17.7334C111.022 17.3772 110.984 16.8024 110.978 16.1713C110.978 15.5339 111.016 14.9403 111.079 14.5466C111.137 14.203 111.245 13.7218 111.315 13.4844C111.385 13.2407 111.544 12.822 111.671 12.5471C111.791 12.2722 112.039 11.8223 112.23 11.5473C112.415 11.2724 112.796 10.8287 113.082 10.5601C113.362 10.2976 113.801 9.9477 114.055 9.78523C114.309 9.62277 114.665 9.42907 114.85 9.34783C115.034 9.2666 115.39 9.14788 115.644 9.07915C115.899 9.01041 116.325 8.92918 116.585 8.89794C116.846 8.86045 117.393 8.84795 117.793 8.86669ZM116.439 13.4282C116.382 13.4906 116.287 13.6593 116.236 13.7968C116.185 13.9343 116.147 14.2717 116.14 14.5591V15.0778C117.622 15.0778 117.914 15.0528 118.08 14.984C118.207 14.9278 118.34 14.8091 118.397 14.7029C118.448 14.5966 118.493 14.3467 118.493 14.1405C118.493 13.9343 118.455 13.6843 118.404 13.5906C118.353 13.4969 118.238 13.3532 118.143 13.2657C117.997 13.1282 117.908 13.1032 117.488 13.0907C117.107 13.0782 116.948 13.1032 116.776 13.197C116.655 13.2594 116.503 13.3657 116.439 13.4282ZM69.3456 9.05415C70.0259 9.0729 70.7189 9.09789 71.1894 9.14163V22.7635L71.0114 22.8073C70.916 22.8322 69.8542 22.8572 68.6462 22.8572C67.4382 22.8572 66.37 22.8322 66.103 22.7635V15.9838C66.103 10.6225 66.1157 9.19162 66.1793 9.16038C66.2238 9.13538 66.6752 9.09789 67.1838 9.0729C67.6925 9.0479 68.6653 9.04165 69.3456 9.05415ZM75.3857 9.02291C76.5555 9.02291 77.6173 9.03541 77.9606 9.09164L78.9334 13.5969C79.4675 16.0775 79.9253 18.1896 80.0079 18.4832L80.0461 18.327C80.0715 18.2395 80.4148 16.1588 80.8217 13.7031C81.2223 11.2474 81.5593 9.22911 81.5656 9.21661C81.5783 9.21037 81.6991 9.17287 81.839 9.13538C81.9789 9.09789 82.8626 9.05415 83.81 9.03541C84.8845 9.01666 85.7746 9.02916 86.1942 9.0729C86.563 9.11039 86.8745 9.15413 86.8936 9.17287C86.9127 9.19162 86.0353 12.2159 84.9544 15.9026C83.8672 19.583 82.9517 22.6323 82.9199 22.6823C82.8817 22.726 82.6719 22.7948 82.443 22.826C82.2141 22.8635 81.3304 22.9072 80.472 22.926C79.4611 22.951 78.5646 22.9385 77.9288 22.8885C77.3821 22.851 76.8035 22.7698 76.3139 22.6073L74.5146 15.9526C73.5228 12.2909 72.7217 9.25411 72.728 9.20412C72.7407 9.14788 72.8488 9.09164 73.0014 9.0729C73.1413 9.0479 74.2158 9.02916 75.3857 9.02291ZM91.5985 9.05415C92.2788 9.0729 92.9719 9.09789 93.4423 9.14163V22.7635L93.2643 22.8073C93.1689 22.8322 92.1072 22.8572 90.8991 22.8572C89.6911 22.8572 88.623 22.8322 88.3559 22.7635V15.9838C88.3559 9.58528 88.3623 9.19787 88.464 9.16038C88.5276 9.14163 88.979 9.10414 89.4686 9.0729C89.9582 9.0479 90.9182 9.04165 91.5985 9.05415Z"
        fill="#F7991C" />
    <path
        d="M111.899 4.46943C111.982 4.39445 112.007 4.31321 111.982 4.19449V4.18824C111.95 4.05077 111.963 4.01953 112.071 4.01953C112.141 4.01953 112.268 4.09451 112.364 4.18824C112.453 4.28822 112.554 4.47568 112.592 4.61315C112.631 4.75061 112.726 5.0193 112.809 5.20676C112.898 5.39422 112.961 5.59417 112.961 5.64416C112.961 5.69415 113.012 5.81287 113.088 5.9066C113.184 6.04407 113.215 6.17529 113.215 6.50021C113.215 6.75016 113.254 7.03134 113.317 7.17506C113.374 7.31253 113.432 7.64995 113.451 7.92489C113.47 8.19982 113.451 8.83093 113.343 10.2369L112.942 10.643C112.726 10.868 112.44 11.1866 112.313 11.3616C112.192 11.5303 111.995 11.8365 111.887 12.0302C111.766 12.2551 111.632 12.4051 111.55 12.4301C111.467 12.4551 111.187 12.4738 110.927 12.4676C110.666 12.4676 109.992 12.3926 109.432 12.3051C108.873 12.2177 108.301 12.1364 108.161 12.1239C108.021 12.1052 107.824 12.0614 107.716 12.0302C107.614 11.9927 107.137 11.9052 106.667 11.8302C106.196 11.7615 105.478 11.6178 105.077 11.5116C104.677 11.4116 103.958 11.2241 103.488 11.0929C103.017 10.9679 102.553 10.8117 102.458 10.7492C102.356 10.693 102.28 10.593 102.28 10.5305C102.28 10.4743 102.216 10.2556 102.14 10.0494C102.025 9.73697 102.006 9.54327 102 8.86217C102 8.13734 102.019 7.99362 102.178 7.51873C102.28 7.22505 102.451 6.7939 102.56 6.5502C102.674 6.30651 102.954 5.83162 103.189 5.48794C103.418 5.14427 103.672 4.79435 103.755 4.71312C103.882 4.58815 103.888 4.55691 103.806 4.50692C103.742 4.46943 103.784 4.46526 103.933 4.49442C104.06 4.51317 104.13 4.51317 104.098 4.48193C104.066 4.45068 103.869 4.3757 103.653 4.31946C103.443 4.26323 103.31 4.21324 103.361 4.21324C103.411 4.20699 103.844 4.30697 104.314 4.41944C104.829 4.55066 105.567 4.67563 106.158 4.73812C106.768 4.8006 107.709 4.83809 108.638 4.83809C109.7 4.83809 110.259 4.8131 110.577 4.74437C110.819 4.69438 111.194 4.63814 111.403 4.61939C111.632 4.5944 111.829 4.53816 111.899 4.46943Z"
        fill="#EDECEC" />
    <path fill-rule="evenodd" clip-rule="evenodd"
        d="M107.621 1.21484C107.671 1.21484 107.919 1.26483 108.161 1.32732C108.403 1.3898 108.822 1.53352 109.083 1.63975C109.344 1.75222 109.789 1.98967 110.068 2.17087C110.348 2.35208 110.761 2.702 110.99 2.93945C111.219 3.17689 111.486 3.49557 111.594 3.64554C111.721 3.82466 111.757 3.92256 111.702 3.93922C111.664 3.94547 111.626 4.02045 111.626 4.10168C111.626 4.21416 111.582 4.25165 111.359 4.29539C111.206 4.32038 110.984 4.35163 110.863 4.35163C110.742 4.35163 110.323 4.38287 109.941 4.41411C109.56 4.44535 108.911 4.48285 108.511 4.48909C108.11 4.49534 107.392 4.47035 106.921 4.4391C106.451 4.40786 105.732 4.33288 105.332 4.26414C104.868 4.18916 104.543 4.10793 104.442 4.03295C104.353 3.96421 104.276 3.86424 104.264 3.808C104.257 3.75176 104.289 3.70802 104.327 3.70802C104.372 3.71427 104.454 3.66428 104.511 3.6018C104.569 3.53931 104.639 3.39559 104.658 3.28937C104.677 3.17689 104.734 3.07067 104.772 3.05817C104.817 3.04567 105.014 2.98944 105.204 2.92695C105.395 2.86447 105.637 2.83322 105.745 2.84572C105.891 2.87071 105.98 2.83947 106.139 2.702C106.254 2.60203 106.406 2.52079 106.476 2.52079C106.546 2.52079 106.629 2.45831 106.667 2.38333C106.705 2.30209 106.8 2.20212 106.889 2.16463C106.985 2.11464 107.093 1.97092 107.156 1.80221C107.233 1.61059 107.307 1.51686 107.379 1.52102C107.443 1.52102 107.481 1.49603 107.462 1.45854C107.443 1.42105 107.519 1.39605 107.633 1.39605C107.748 1.39605 108.034 1.45229 108.269 1.52102C108.511 1.58976 108.701 1.62725 108.701 1.60225C108.701 1.57101 108.434 1.47728 108.116 1.38355C107.792 1.29607 107.57 1.21484 107.621 1.21484Z"
        fill="#791415" />
    <path
        d="M98.9419 2.16082C98.9165 2.09 98.9801 1.98794 99.1327 1.85464V1.84839C99.2598 1.74217 99.387 1.64844 99.4188 1.64844C99.4569 1.64844 99.5714 1.69843 99.6731 1.75466C99.8448 1.85464 99.8638 1.89838 99.8638 2.14832C99.8575 2.38577 99.8956 2.467 100.074 2.64821C100.194 2.76693 100.506 2.98563 100.773 3.12935C101.046 3.27931 101.294 3.39804 101.326 3.39804C101.358 3.39804 101.466 3.44178 101.561 3.49177C101.663 3.548 102.197 3.74171 102.757 3.92917C103.316 4.11662 103.66 4.25409 103.52 4.24159C103.323 4.2166 103.348 4.23535 103.653 4.31658C103.869 4.37906 104.066 4.45405 104.098 4.48529C104.13 4.51653 104.06 4.51653 103.933 4.49778C103.785 4.46862 103.742 4.47279 103.806 4.51028C103.888 4.56027 103.882 4.59151 103.755 4.71648C103.672 4.79772 103.418 5.14764 103.189 5.49131C102.954 5.83498 102.674 6.30987 102.56 6.55356C102.452 6.79726 102.28 7.22841 102.178 7.52209C102.019 7.99698 102 8.1407 102 8.86553C102.006 9.54663 102.026 9.74033 102.14 10.0528C102.216 10.259 102.28 10.4777 102.28 10.5339C102.28 10.5964 102.375 10.7026 102.49 10.7713C102.598 10.8338 103.043 10.9838 103.469 11.0963C103.895 11.2087 104.238 11.3087 104.232 11.315C104.225 11.3275 103.946 11.2712 103.615 11.2025C103.284 11.1338 102.769 10.9838 102.471 10.8651C102.172 10.7526 101.816 10.6401 101.676 10.6151C101.536 10.5901 101.377 10.5339 101.326 10.4902C101.275 10.4527 101.046 10.3652 100.818 10.3027C100.589 10.2465 100.372 10.1777 100.341 10.1527C100.309 10.1277 100.105 10.0403 99.8956 9.95903C99.6858 9.8778 99.2726 9.6841 98.9737 9.53413C98.6749 9.37792 98.4015 9.2217 98.3697 9.18421C98.3379 9.14672 98.179 9.05924 98.02 8.98426C97.8611 8.90927 97.575 8.70932 97.3842 8.54061C97.1935 8.3719 96.99 8.12195 96.9328 7.98449C96.8756 7.85327 96.8057 7.62832 96.7802 7.49085C96.7484 7.30964 96.7866 7.0722 96.9074 6.61605C96.9964 6.25988 97.1172 5.9537 97.1808 5.89746C97.2444 5.84748 97.3334 5.71626 97.3779 5.61628C97.4224 5.5163 97.6004 5.03516 97.7657 4.55402C97.9374 4.07288 98.1599 3.45427 98.2744 3.17934C98.3824 2.9044 98.5414 2.57323 98.6304 2.44201C98.7258 2.29829 98.8211 2.22331 98.8784 2.24205C98.9483 2.26705 98.961 2.24205 98.9419 2.16082Z"
        fill="#D3D2D1" />
    <path
        d="M103.532 0.298041C103.736 0.241804 104.219 0.173069 104.601 0.148075C104.982 0.123081 105.402 0.0980865 105.522 0.0980865C105.643 0.0918379 105.898 0.154324 106.082 0.241804C106.26 0.329284 106.463 0.473001 106.521 0.572978C106.578 0.666706 106.699 0.804175 106.788 0.879157C106.883 0.95414 107.099 1.05412 107.284 1.09786C107.468 1.1416 107.595 1.20408 107.57 1.23533C107.544 1.27282 107.595 1.28531 107.691 1.26657C107.786 1.25407 107.849 1.26032 107.837 1.29156C107.824 1.31656 108.015 1.38529 108.256 1.44778C108.504 1.50401 108.701 1.57275 108.701 1.60399C108.701 1.62899 108.511 1.59149 108.275 1.52276C108.034 1.45403 107.748 1.39779 107.64 1.39779C107.519 1.39779 107.443 1.42278 107.462 1.46027C107.481 1.49777 107.443 1.52276 107.385 1.52276C107.309 1.51859 107.235 1.61232 107.163 1.80395C107.093 1.96641 106.991 2.11013 106.908 2.14762C106.826 2.18511 106.724 2.27884 106.686 2.36632C106.635 2.4538 106.546 2.52253 106.476 2.52253C106.406 2.52253 106.254 2.60376 106.146 2.70374C105.98 2.84121 105.891 2.87245 105.745 2.84746C105.637 2.83496 105.395 2.8662 105.205 2.92869C105.014 2.99117 104.817 3.04741 104.779 3.05991C104.734 3.0724 104.677 3.17863 104.658 3.2911C104.639 3.39733 104.569 3.54105 104.512 3.60353C104.454 3.66602 104.372 3.71601 104.333 3.70976C104.289 3.70976 104.257 3.7535 104.27 3.80974C104.276 3.86597 104.353 3.96595 104.442 4.03468C104.543 4.10967 104.868 4.1909 105.332 4.26588C105.732 4.33462 106.451 4.4096 106.921 4.44084C107.392 4.47208 108.11 4.49708 108.511 4.49083C108.911 4.48458 109.56 4.44709 109.941 4.41585C110.323 4.3846 110.742 4.35336 110.863 4.35336C110.984 4.35336 111.206 4.32212 111.359 4.29712C111.582 4.25338 111.626 4.21589 111.626 4.10342C111.626 4.01594 111.664 3.9597 111.721 3.9597C111.772 3.9597 111.855 4.03468 111.9 4.12216C111.957 4.24089 111.957 4.30962 111.906 4.3846C111.855 4.45959 111.632 4.52832 111.206 4.59706C110.857 4.65954 110.164 4.73452 109.655 4.77202C109.146 4.80326 108.307 4.822 107.78 4.80326C107.258 4.79076 106.413 4.72203 105.904 4.65329C105.395 4.58456 104.626 4.42834 104.187 4.30962C103.749 4.18465 103.049 3.9722 102.63 3.83473C102.21 3.69726 101.708 3.5223 101.517 3.44107C101.326 3.36609 101.155 3.2911 101.135 3.27236C101.116 3.25361 100.932 3.15364 100.722 3.05366C100.512 2.95368 100.239 2.76623 100.118 2.64125C99.9147 2.43505 99.8956 2.38506 99.9083 2.07888C99.9147 1.89143 99.9465 1.72271 99.9719 1.69772C99.9973 1.67273 100.182 1.56025 100.372 1.44778C100.563 1.32905 100.849 1.19159 101.008 1.13535C101.167 1.07911 101.466 0.99788 101.676 0.966637C101.886 0.929146 102.184 0.897903 102.337 0.897903C102.566 0.897903 102.655 0.860412 102.89 0.64796C103.081 0.479249 103.291 0.366775 103.532 0.298041Z"
        fill="#481514" />
    <path fill-rule="evenodd" clip-rule="evenodd"
        d="M153.227 5.12946C153.697 5.14218 154.301 5.19942 154.561 5.24395C154.822 5.29483 155.26 5.41568 155.533 5.50472C155.8 5.59377 156.2 5.75914 156.416 5.86727C156.638 5.98176 156.988 6.18529 157.197 6.33158C157.407 6.47151 157.775 6.77681 158.017 7.00578C158.252 7.23476 158.614 7.66091 158.811 7.95985C159.007 8.25879 159.414 8.74218 159.712 9.04112C160.011 9.34006 160.379 9.76621 160.532 9.99518C160.684 10.2242 160.9 10.5994 161.199 11.2673L161.319 10.7394C161.383 10.4531 161.51 10.0015 161.593 9.74077C161.682 9.47999 161.853 9.06656 161.98 8.8185C162.101 8.57045 162.317 8.20154 162.456 7.99165C162.596 7.78176 162.933 7.39377 163.193 7.12663C163.46 6.85949 163.93 6.47151 164.248 6.26797C164.565 6.06444 165.035 5.81002 165.296 5.69554C165.556 5.58741 166.013 5.43476 166.312 5.36479C166.611 5.28847 167.093 5.19942 167.392 5.16126C167.69 5.12946 168.129 5.09766 168.376 5.09766C168.624 5.09766 169.062 5.12946 169.361 5.16126C169.659 5.19942 170.142 5.28847 170.441 5.36479C170.739 5.43476 171.197 5.58741 171.457 5.69554C171.717 5.80366 172.187 6.06444 172.505 6.27433C172.816 6.48423 173.261 6.84041 173.49 7.06939C173.718 7.29836 174.068 7.72451 174.264 8.02345C174.461 8.32239 174.83 8.7549 175.071 8.9966C175.319 9.23193 175.636 9.57539 175.77 9.75349C175.91 9.93794 176.126 10.2878 176.259 10.5358C176.392 10.7839 176.596 11.2545 176.913 12.1895L176.92 8.95843C176.92 6.94218 176.945 5.68918 176.983 5.60649C177.021 5.53017 177.18 5.43476 177.377 5.37751C177.618 5.30119 178.076 5.26303 178.952 5.24395C179.74 5.2185 180.4 5.23759 180.762 5.28211C181.08 5.32663 181.417 5.40932 181.715 5.58105L181.779 7.35561L182.35 7.39377C182.668 7.41285 182.985 7.45101 183.062 7.47009C183.195 7.50826 183.246 7.43829 183.671 6.54783C184.034 5.7973 184.18 5.55561 184.307 5.492C184.402 5.45384 184.669 5.38388 184.904 5.34571C185.19 5.29483 185.787 5.28211 186.67 5.30755C187.514 5.33299 188.169 5.38388 188.448 5.44748C188.689 5.49836 188.975 5.59377 189.083 5.65737C189.21 5.7337 189.28 5.82911 189.286 5.94359C189.299 6.05172 189.178 6.36338 188.607 7.45101H189.051C189.293 7.45101 189.718 7.48282 189.985 7.52098C190.258 7.55914 190.589 7.63547 190.722 7.69271C190.855 7.75631 190.97 7.83264 190.982 7.86444C190.995 7.89624 190.138 9.50543 189.077 11.4263C188.01 13.3535 187.152 14.9563 187.165 14.9881C187.184 15.0199 188.188 16.4256 191.605 21.1577L191.427 21.304C191.325 21.3867 191.014 21.6284 190.735 21.8383C190.455 22.0482 189.909 22.3726 189.528 22.5634C189.147 22.7542 188.67 22.9386 188.48 22.9768C188.289 23.015 187.959 23.0341 187.749 23.0213C187.54 23.0023 187.254 22.9323 187.114 22.8623C186.974 22.7924 186.771 22.6333 186.67 22.5189C186.562 22.398 186.365 22.0927 186.225 21.8447C186.072 21.5712 185.92 21.3676 185.844 21.3485C185.774 21.3358 185.653 21.3167 185.571 21.3167C185.494 21.3167 185.298 21.2468 185.126 21.1641C184.961 21.0814 184.732 20.916 184.624 20.7952C184.51 20.6807 184.205 20.1846 183.462 18.8044V20.668C183.462 21.7747 183.436 22.5761 183.398 22.6524C183.348 22.7478 183.227 22.7987 182.871 22.8496C182.573 22.9005 181.95 22.9132 181.08 22.8878C180.33 22.8623 179.606 22.8114 179.111 22.6842L179.079 21.2849L178.87 21.2341C178.762 21.2086 178.507 21.1895 178.317 21.1895C178.126 21.1895 177.79 21.1514 177.58 21.1068C177.364 21.0687 177.129 20.9733 177.053 20.9033C176.92 20.7825 176.913 20.7252 176.92 18.1683L176.729 18.728C176.621 19.0333 176.462 19.4341 176.373 19.6185C176.278 19.7966 176.106 20.1019 175.992 20.2863C175.871 20.4644 175.579 20.827 175.338 21.0814C175.103 21.3295 174.677 21.6984 174.404 21.8892C174.125 22.08 173.661 22.3471 173.363 22.4807C173.064 22.6206 172.549 22.8051 172.219 22.8941C171.743 23.015 171.4 23.0531 170.568 23.0849C169.907 23.104 169.316 23.0849 168.98 23.0404C168.681 22.9959 168.141 22.8623 167.773 22.7415C167.405 22.6143 166.947 22.4298 166.757 22.3217C166.566 22.2136 166.223 21.9846 165.994 21.8192C165.766 21.6538 165.385 21.3104 165.137 21.0623C164.889 20.8079 164.502 20.4772 164.26 20.3245C164.025 20.1719 163.625 19.8475 163.371 19.6058C163.123 19.3704 162.793 19.0143 162.647 18.8298C162.501 18.639 162.228 18.1874 161.688 17.1507L161.58 17.7231C161.523 18.0411 161.383 18.55 161.269 18.868C161.154 19.186 160.964 19.6249 160.837 19.8538C160.71 20.0828 160.456 20.4644 160.265 20.7125C160.075 20.9606 159.719 21.3231 159.477 21.5203C159.236 21.7174 158.811 22.0164 158.531 22.1881C158.252 22.3598 157.75 22.5888 157.419 22.697C157.089 22.8114 156.543 22.945 156.213 23.0086C155.749 23.0849 155.355 23.104 154.529 23.0786C153.621 23.0531 153.348 23.0213 152.814 22.8814C152.465 22.786 151.925 22.5888 151.608 22.4362C151.29 22.2899 150.795 21.9782 150.502 21.7556C150.204 21.533 149.835 21.1959 149.677 21.0114C149.518 20.827 149.143 20.5153 148.845 20.3118C148.546 20.1146 148.089 19.7394 147.822 19.4722C147.555 19.2114 147.218 18.8107 147.066 18.5818C146.914 18.3528 146.666 17.9139 146.513 17.5959C146.367 17.2779 146.177 16.7818 146.088 16.4828C146.005 16.1839 145.891 15.6687 145.834 15.3379C145.777 15.0072 145.713 14.333 145.65 12.9528L145.459 13.3344C145.345 13.5634 145.078 13.9068 144.303 14.6955L144.405 14.9372C144.462 15.0835 144.627 15.268 144.818 15.4079C144.989 15.5351 145.281 15.8086 145.472 16.0121C145.662 16.222 145.91 16.5846 146.031 16.8326C146.145 17.0807 146.285 17.475 146.336 17.7231C146.386 17.9712 146.431 18.5054 146.431 18.9316C146.431 19.4341 146.399 19.822 146.336 20.0765C146.278 20.2863 146.139 20.6298 146.031 20.8333C145.916 21.0432 145.669 21.374 145.472 21.5648C145.281 21.762 144.951 22.0227 144.741 22.1436C144.538 22.2644 144.195 22.4298 143.985 22.4998C143.776 22.5761 143.388 22.6906 143.128 22.7542C142.715 22.8496 142.207 22.8687 139.349 22.8941C136.224 22.9196 136.033 22.9132 135.798 22.8051C135.62 22.716 135.512 22.6079 135.43 22.4298C135.36 22.2644 135.315 22.0164 135.315 21.2531L134.629 21.2341C134.058 21.2213 133.911 21.1959 133.708 21.075C133.575 20.9987 133.416 20.827 133.346 20.6807C133.219 20.4326 133.219 20.2991 133.219 13.0291C133.213 5.79094 133.219 5.63193 133.46 5.32027L136.249 5.30119C137.919 5.28847 139.336 5.30755 139.793 5.35207C140.212 5.39024 140.797 5.47292 141.095 5.54925C141.394 5.61921 141.877 5.79094 142.175 5.93723C142.588 6.13441 142.823 6.30614 143.166 6.6496C143.496 6.98034 143.681 7.2284 143.846 7.57822C144.03 7.97257 144.125 8.09342 144.379 8.25879C144.544 8.37327 144.805 8.58317 144.945 8.73582C145.091 8.88847 145.281 9.12381 145.364 9.26373C145.453 9.40366 145.58 9.67716 145.65 9.86797C145.726 10.0588 145.802 10.3641 145.878 10.8538L145.935 10.6312C145.967 10.5104 146.062 10.1669 146.151 9.86797C146.247 9.56903 146.444 9.08564 146.59 8.7867C146.742 8.48776 146.99 8.07433 147.142 7.86444C147.295 7.65455 147.568 7.34289 147.739 7.16479C147.911 6.99306 148.241 6.70684 148.463 6.52875C148.692 6.35702 149.105 6.09624 149.384 5.94359C149.664 5.7973 150.147 5.59377 150.464 5.492C150.782 5.38388 151.252 5.26939 151.512 5.23123C151.773 5.19306 152.078 5.14854 152.179 5.13582C152.281 5.11674 152.757 5.11674 153.227 5.12946ZM151.131 5.78458C150.833 5.85455 150.363 6.01356 150.083 6.12805C149.804 6.24889 149.378 6.47151 149.13 6.63052C148.883 6.78953 148.476 7.11391 148.216 7.36197C147.962 7.60366 147.6 8.02981 147.415 8.30967C147.225 8.58953 146.983 9.01568 146.875 9.26373C146.768 9.51179 146.609 9.93794 146.526 10.2178C146.45 10.4977 146.336 11.0129 146.285 11.3627C146.228 11.7125 146.17 12.2977 146.145 12.6666C146.126 13.0355 146.132 13.7097 146.17 14.1613C146.202 14.6129 146.291 15.2871 146.367 15.656C146.444 16.0249 146.596 16.5655 146.704 16.8644C146.818 17.1634 147.034 17.6341 147.193 17.9076C147.377 18.2319 147.682 18.6263 148.038 18.9888C148.552 19.5295 148.584 19.5485 148.489 19.3132C148.432 19.1733 148.305 18.8171 148.209 18.5182C148.114 18.2192 147.981 17.6913 147.917 17.3415C147.816 16.8199 147.797 16.4192 147.797 15.1153C147.803 13.6461 147.816 13.468 147.968 12.762C148.057 12.3422 148.228 11.7443 148.343 11.4263C148.457 11.1083 148.698 10.6185 148.876 10.3259C149.048 10.0397 149.353 9.62628 149.543 9.41002C149.734 9.19377 150.09 8.85667 150.337 8.65949C150.585 8.46868 150.998 8.18882 151.258 8.04253C151.519 7.89624 151.989 7.69271 152.306 7.58458C152.624 7.48282 153.151 7.34925 153.481 7.29836C153.812 7.24112 154.428 7.1966 154.847 7.1966C155.266 7.1966 155.806 7.2284 156.054 7.2602C156.302 7.29836 156.721 7.38105 156.988 7.45101C157.261 7.52098 157.642 7.64819 157.832 7.73723L158.182 7.89624C157.89 7.52734 157.667 7.30472 157.502 7.15843C157.331 7.01214 156.981 6.75773 156.721 6.59236C156.46 6.42062 156.016 6.19165 155.736 6.07716C155.457 5.96267 154.942 5.81638 154.593 5.74642C154.244 5.67645 153.716 5.60649 153.418 5.59377C153.119 5.58105 152.605 5.58741 152.275 5.61285C151.944 5.63829 151.43 5.71462 151.131 5.78458ZM166.617 5.75914C166.376 5.81638 165.963 5.94359 165.69 6.05172C165.423 6.15349 164.984 6.36338 164.724 6.52239C164.464 6.67504 164.076 6.9549 163.867 7.13935C163.657 7.3238 163.333 7.64819 163.155 7.85808C162.971 8.07433 162.691 8.47504 162.539 8.7549C162.38 9.03476 162.152 9.56267 162.031 9.93158C161.91 10.3005 161.77 10.8729 161.713 11.2037C161.662 11.5344 161.612 11.9351 161.605 12.0941C161.599 12.2531 161.643 12.6538 161.707 12.9846C161.777 13.3662 161.834 14.0977 161.859 14.9563C161.904 16.3047 161.91 16.3302 162.12 16.8962C162.241 17.2143 162.482 17.704 162.66 17.9966C162.831 18.2828 163.123 18.6835 163.301 18.8871C163.473 19.0842 163.714 19.3196 163.835 19.4086L164.051 19.5676C163.867 19.2242 163.746 18.9252 163.663 18.6772C163.581 18.4291 163.46 17.9775 163.39 17.6595C163.327 17.3415 163.238 16.7118 163.193 16.2602C163.149 15.7577 163.136 15.0962 163.162 14.5747C163.187 14.104 163.263 13.398 163.327 13.0164C163.397 12.6348 163.524 12.0878 163.619 11.8079C163.708 11.528 163.854 11.1401 163.943 10.9492C164.025 10.7584 164.248 10.3704 164.438 10.0906C164.622 9.81073 165.01 9.35278 165.302 9.07292C165.594 8.79306 165.994 8.45596 166.185 8.32875C166.376 8.20154 166.75 7.99801 167.011 7.8708C167.271 7.74995 167.728 7.57822 168.027 7.48918C168.326 7.40649 168.821 7.29836 169.139 7.2602C169.501 7.20932 170.06 7.19024 170.663 7.21568C171.285 7.24112 171.794 7.29836 172.124 7.38105C172.403 7.44465 172.829 7.57822 173.077 7.66727C173.324 7.76267 173.534 7.83264 173.553 7.83264C173.572 7.83264 173.439 7.68635 173.267 7.50826C173.089 7.33017 172.778 7.05031 172.569 6.8913C172.359 6.72592 171.959 6.47787 171.679 6.33158C171.4 6.18529 170.942 5.99448 170.663 5.90543C170.384 5.81638 169.926 5.71462 169.647 5.67645C169.367 5.64465 168.954 5.60013 168.726 5.59377C168.497 5.58105 168.027 5.58741 167.678 5.61285C167.328 5.63829 166.852 5.7019 166.611 5.75914H166.617ZM177.51 5.82274L177.37 5.86091V20.5535C177.618 20.6489 177.987 20.6998 178.355 20.7316L179.022 20.7761V7.57822C179.403 7.41285 179.746 7.36197 180.134 7.34289C180.483 7.33017 180.889 7.30472 181.035 7.292L181.309 7.2602V5.86091C180.94 5.75914 180.318 5.71462 179.689 5.7019C179.06 5.68918 178.342 5.7019 178.101 5.72734C177.86 5.75914 177.593 5.7973 177.51 5.82274ZM184.535 5.90543C184.51 5.93723 184.256 6.43335 183.976 7.02486L183.468 8.08706L183.5 13.2136C186.003 7.95985 186.193 7.5973 186.358 7.52098C186.479 7.46373 186.847 7.41285 187.33 7.39377L188.111 7.35561C188.651 6.36974 188.804 6.06444 188.804 6.039C188.804 6.0072 188.67 5.95631 188.499 5.91815C188.334 5.87999 187.845 5.82911 187.406 5.7973C186.968 5.7655 186.358 5.74006 186.041 5.74642C185.723 5.74642 185.266 5.77186 185.024 5.80366C184.783 5.83547 184.561 5.87999 184.535 5.90543ZM133.702 20.4136C134.013 20.7379 134.051 20.7507 134.636 20.7443H135.258C135.29 8.32875 135.303 7.5019 135.385 7.44465C135.449 7.40649 136.694 7.39377 138.847 7.40649C141.629 7.42557 142.283 7.44465 142.626 7.52734C142.855 7.58458 143.122 7.65455 143.223 7.68635L143.414 7.73723C143.255 7.44465 143.109 7.24112 142.995 7.10119C142.874 6.96126 142.607 6.73229 142.397 6.59872C142.194 6.45879 141.8 6.26797 141.527 6.16621C141.261 6.0708 140.771 5.94359 140.447 5.89271C139.99 5.81638 139.209 5.7973 136.763 5.7973H133.67L133.702 20.4136ZM139.768 11.6298L139.577 11.8397V13.9068C140.289 13.8369 140.644 13.7733 140.829 13.716C141.032 13.6588 141.261 13.5252 141.4 13.3916C141.597 13.2072 141.623 13.1563 141.546 13.1118C141.464 13.0673 141.476 13.0482 141.591 12.9909C141.724 12.9273 141.737 12.8701 141.737 12.4567C141.731 12.1514 141.692 11.9097 141.616 11.7443C141.559 11.6044 141.419 11.4263 141.318 11.35C141.216 11.28 141.032 11.1909 140.911 11.1528C140.79 11.1146 140.555 11.0637 140.397 11.0447C140.117 11.0065 140.111 11.0129 140.041 11.2164C139.996 11.3309 139.876 11.5153 139.768 11.6298ZM153.71 11.8397C153.577 11.9288 153.361 12.1132 153.234 12.2595C153.113 12.3994 152.935 12.6602 152.84 12.8319C152.745 13.0037 152.611 13.3535 152.535 13.6206C152.452 13.9068 152.389 14.3839 152.363 14.8291C152.344 15.2553 152.357 15.7704 152.402 16.0694C152.44 16.3492 152.51 16.5973 152.554 16.6291C152.592 16.6545 152.814 16.6609 153.043 16.6482C153.297 16.6291 153.577 16.5528 153.774 16.4574C153.945 16.3747 154.199 16.1775 154.333 16.0249C154.466 15.8722 154.656 15.5796 154.758 15.3697C154.86 15.1598 154.987 14.7401 155.05 14.4475C155.133 14.0277 155.146 13.6969 155.12 12.9846C155.101 12.4757 155.057 11.9351 155.019 11.7888C154.949 11.5217 154.942 11.5217 154.676 11.5217C154.529 11.5217 154.307 11.5598 154.186 11.6044C154.066 11.6489 153.85 11.7507 153.71 11.8397ZM169.081 11.8588C168.973 11.9415 168.783 12.1196 168.649 12.2531C168.516 12.3931 168.313 12.7047 168.192 12.9528C168.071 13.1945 167.925 13.6397 167.868 13.9386C167.786 14.3521 167.767 14.7019 167.792 15.4333C167.805 15.9931 167.849 16.4447 167.894 16.5273C167.957 16.6482 168.021 16.6736 168.268 16.6736C168.434 16.6736 168.719 16.6291 168.904 16.5782C169.145 16.5083 169.335 16.3874 169.596 16.1457C169.812 15.9422 170.021 15.6687 170.136 15.4333C170.231 15.2235 170.364 14.8609 170.428 14.6383C170.504 14.3266 170.536 13.9768 170.53 13.239C170.523 12.6284 170.491 12.1196 170.434 11.9033L170.345 11.5535C169.907 11.528 169.666 11.5662 169.526 11.6235C169.386 11.6743 169.183 11.7825 169.081 11.8588ZM155.654 12.603C155.685 12.9909 155.685 13.4934 155.647 13.8878C155.609 14.2439 155.533 14.7146 155.482 14.9245C155.425 15.1344 155.304 15.4588 155.209 15.656C155.114 15.8468 154.942 16.1266 154.815 16.2793C154.695 16.4319 154.453 16.6482 154.282 16.769C154.104 16.8835 153.805 17.0235 153.615 17.0807C153.424 17.1379 153.126 17.1825 152.961 17.1825H152.662C152.91 17.6722 153.088 17.9394 153.227 18.0856C153.361 18.2319 153.621 18.4418 153.812 18.55C154.129 18.7217 154.199 18.7408 154.79 18.7408C155.336 18.7408 155.469 18.7153 155.743 18.5818C155.914 18.4991 156.2 18.2828 156.365 18.1047C156.537 17.9266 156.759 17.615 156.854 17.4051C156.956 17.1952 157.083 16.8199 157.146 16.5782C157.229 16.2475 157.254 15.8722 157.254 15.1471C157.254 14.3584 157.229 14.0659 157.121 13.6842C157.051 13.4171 156.918 13.0545 156.829 12.8701C156.74 12.6856 156.556 12.4185 156.422 12.2722C156.295 12.1259 156.06 11.9224 155.901 11.827C155.743 11.7252 155.59 11.6425 155.558 11.6425C155.527 11.6489 155.52 11.7189 155.552 11.8079C155.577 11.8969 155.628 12.2531 155.654 12.603ZM171.057 13.5252C171.038 14.0531 170.981 14.581 170.917 14.8291C170.86 15.0517 170.733 15.4143 170.638 15.6242C170.536 15.8341 170.307 16.1712 170.117 16.3747C169.901 16.61 169.64 16.8199 169.399 16.9344C169.132 17.068 168.872 17.1379 168.554 17.1697C168.3 17.1952 168.097 17.227 168.097 17.2461C168.097 17.2588 168.179 17.4242 168.287 17.6086C168.389 17.7931 168.599 18.0602 168.745 18.2001C168.897 18.3464 169.145 18.5245 169.304 18.6008C169.539 18.7153 169.698 18.7408 170.225 18.7408C170.79 18.7344 170.892 18.7153 171.177 18.569C171.349 18.4736 171.609 18.2765 171.756 18.1238C171.902 17.9712 172.092 17.7167 172.181 17.5641C172.27 17.4051 172.403 17.0743 172.48 16.8326C172.594 16.4828 172.626 16.1775 172.651 15.4333C172.677 14.7083 172.657 14.3457 172.581 13.9386C172.524 13.6397 172.391 13.2072 172.283 12.9846C172.175 12.7556 171.997 12.4567 171.883 12.3167C171.768 12.1768 171.533 11.9669 171.362 11.8524C171.19 11.7379 171.019 11.6425 170.981 11.6425C170.942 11.6489 170.949 11.8143 171.006 12.1386C171.063 12.4694 171.082 12.9273 171.057 13.5252ZM139.755 17.2143C139.584 17.4051 139.584 17.4051 139.577 18.3719V19.345C140.682 19.3068 140.873 19.275 141.083 19.1669C141.235 19.0842 141.432 18.9189 141.527 18.7916C141.68 18.5881 141.705 18.4863 141.724 18.0093C141.743 17.5514 141.731 17.4242 141.616 17.1952C141.54 17.0489 141.4 16.8772 141.305 16.8136C141.21 16.7563 140.975 16.6673 140.784 16.6227C140.594 16.5846 140.359 16.5464 140.27 16.5464C140.136 16.5464 140.085 16.5909 140.016 16.7818C139.971 16.9153 139.85 17.1061 139.755 17.2143ZM184.065 18.9316C184.396 19.5613 184.745 20.1909 184.847 20.3309C184.948 20.4708 185.158 20.6489 185.31 20.7252C185.469 20.8015 185.602 20.8588 185.615 20.8524C185.621 20.8461 185.221 20.051 184.72 19.0906C183.906 17.5323 183.786 17.3351 183.64 17.316C183.487 17.3033 183.475 17.316 183.475 17.5386C183.468 17.7295 183.608 18.0538 184.065 18.9316ZM201.329 5.10402C201.603 5.09766 202.104 5.12946 202.441 5.16762C202.784 5.19942 203.318 5.30119 203.635 5.37751C203.946 5.4602 204.378 5.61285 204.588 5.71462C204.798 5.82274 205.064 5.98812 205.185 6.08988C205.306 6.19165 205.458 6.40154 205.528 6.56055C205.611 6.75773 205.642 6.94854 205.604 7.52734L206.017 7.67999C206.246 7.76267 206.563 7.91532 207.033 8.21426V5.7337L207.205 5.60013C207.3 5.53017 207.497 5.43476 207.637 5.3966C207.802 5.34571 208.431 5.32027 209.479 5.32027C210.819 5.32027 211.118 5.33299 211.397 5.4284C211.581 5.492 211.778 5.60649 211.829 5.68282C211.899 5.79094 211.924 6.01356 211.924 6.60508C211.924 7.18388 211.943 7.38741 212.001 7.38741C212.045 7.38741 212.312 7.41285 212.591 7.44465C212.871 7.47645 213.207 7.54642 213.576 7.70543V16.61L214.446 16.6037C215.278 16.6037 215.329 16.61 215.456 16.75C215.532 16.8263 215.634 16.9789 215.691 17.0871C215.742 17.1888 215.818 17.4623 215.856 17.6913C215.894 17.9139 215.926 18.2383 215.926 18.709L216.51 18.7026C216.904 18.7026 217.126 18.7344 217.184 18.7853C217.228 18.8298 217.152 18.639 217.012 18.3591C216.866 18.0793 216.688 17.6213 216.466 16.8326V5.7655L216.656 5.63193C216.777 5.54925 217.05 5.47292 217.419 5.41568C217.812 5.35843 218.416 5.34571 219.388 5.36479C220.436 5.39024 220.868 5.42204 221.115 5.49836C221.306 5.56197 221.49 5.66373 221.547 5.74642C221.617 5.85455 221.643 6.07716 221.643 7.45101L221.909 7.47645C222.062 7.49554 222.341 7.52734 222.532 7.54642C222.722 7.5655 222.97 7.62911 223.294 7.76903V12.2213C223.294 16.133 223.307 16.6736 223.389 16.6736C223.44 16.6736 223.567 16.6291 223.675 16.5782C223.777 16.521 223.923 16.4001 223.993 16.3047C224.12 16.133 224.12 16.063 224.12 10.962C224.12 5.87999 224.12 5.79094 224.247 5.67009C224.317 5.60013 224.482 5.51108 224.609 5.47292C224.742 5.44112 225.25 5.37751 225.739 5.33299C226.406 5.28211 226.876 5.28211 227.613 5.33299C228.153 5.37115 228.699 5.44112 228.82 5.47928C228.941 5.5238 229.106 5.61921 229.188 5.68918C229.322 5.81638 229.328 5.87363 229.328 7.41921L229.944 7.48918C230.287 7.52734 230.656 7.5973 230.961 7.73723L230.986 6.66868C231.011 5.66373 231.018 5.60013 231.297 5.32027H234.556C237.363 5.32027 237.884 5.33299 238.392 5.4284C238.716 5.492 239.231 5.63193 239.536 5.74642C239.84 5.86091 240.26 6.0708 240.469 6.21073C240.679 6.35066 240.984 6.6178 241.155 6.81497C241.32 7.00578 241.555 7.36833 241.663 7.62274C241.835 7.99801 241.917 8.10614 242.127 8.22062C242.267 8.29695 242.54 8.51956 242.731 8.71674C242.934 8.92027 243.169 9.25101 243.283 9.48635C243.397 9.70896 243.531 10.0715 243.588 10.2814C243.645 10.5167 243.683 10.9429 243.683 11.3945C243.683 11.8588 243.652 12.2595 243.582 12.5076C243.531 12.7174 243.391 13.0736 243.283 13.3026C243.143 13.5825 242.921 13.8687 242.095 14.7019L242.203 14.9436C242.28 15.1026 242.451 15.2934 242.699 15.4715C242.908 15.6305 243.22 15.9231 243.391 16.133C243.563 16.3429 243.766 16.6545 243.848 16.8326C243.931 17.0044 244.045 17.3351 244.109 17.5641C244.198 17.8821 244.223 18.2001 244.217 18.9634C244.211 19.8157 244.191 20.0001 244.071 20.3309C243.995 20.5408 243.836 20.8524 243.728 21.0242C243.613 21.1959 243.353 21.4948 243.143 21.692C242.927 21.8892 242.553 22.15 242.286 22.2835C242.019 22.4107 241.594 22.5761 241.333 22.6461C241.073 22.716 240.615 22.8051 240.317 22.8369C240.012 22.875 238.456 22.9068 236.76 22.9068C233.857 22.9068 233.736 22.9005 233.533 22.7796C233.419 22.7097 233.285 22.5507 233.235 22.4298C233.177 22.2962 233.139 22.01 233.139 21.2531H232.517C232.002 21.2531 231.85 21.2277 231.615 21.1068C231.462 21.0305 231.285 20.8906 231.221 20.8079C231.158 20.7189 231.075 20.4899 231.043 20.2991C231.005 20.1019 230.973 19.663 230.967 18.6772L230.884 19.0906C230.84 19.3132 230.726 19.6885 230.637 19.9174C230.541 20.1401 230.376 20.4835 230.262 20.668C230.148 20.8588 229.887 21.1832 229.678 21.3994C229.468 21.6157 229.112 21.921 228.884 22.0736C228.655 22.2326 228.287 22.4425 228.058 22.5443C227.829 22.6461 227.372 22.7987 227.042 22.8878C226.533 23.0213 226.241 23.0531 225.231 23.0786C224.285 23.104 223.891 23.0849 223.421 23.0023C223.091 22.945 222.532 22.7987 222.182 22.6779C221.833 22.5634 221.319 22.328 221.039 22.1563C220.715 21.9655 220.309 21.6348 219.928 21.2531C219.597 20.9224 219.083 20.4899 218.784 20.2927C218.486 20.0955 218.041 19.7203 217.8 19.4595C217.368 19.0015 217.355 18.9952 217.431 19.2305C217.476 19.3641 217.539 19.7648 217.577 20.121C217.622 20.5662 217.628 20.986 217.584 21.4439C217.546 21.8065 217.476 22.239 217.419 22.398C217.368 22.5507 217.273 22.7288 217.215 22.7924C217.107 22.8941 216.847 22.9005 213.468 22.8878C209.898 22.875 209.835 22.8687 209.657 22.7415C209.555 22.6651 209.409 22.4807 209.326 22.328C209.231 22.1563 209.155 21.8892 209.098 21.2468H208.621C208.361 21.2468 208.031 21.2022 207.891 21.1514C207.751 21.1005 207.63 21.0623 207.618 21.0623C207.611 21.0623 207.605 21.1514 207.605 21.2659C207.605 21.3803 207.548 21.5902 207.478 21.7302C207.415 21.8701 207.249 22.0673 207.116 22.169C206.983 22.2708 206.703 22.4362 206.494 22.5316C206.284 22.627 205.884 22.7606 205.604 22.8305C205.325 22.9005 204.886 22.9895 204.632 23.0277C204.378 23.0659 203.769 23.0977 203.267 23.0977C202.771 23.0913 202.181 23.0659 201.952 23.0277C201.723 22.9895 201.253 22.8623 200.904 22.7415C200.555 22.6206 200.04 22.3917 199.761 22.2199C199.443 22.0355 199.017 21.6856 198.617 21.2913C198.268 20.9478 197.779 20.5344 197.537 20.3754C197.29 20.2227 196.832 19.8284 196.515 19.5104C196.165 19.1542 195.81 18.7153 195.613 18.3909C195.429 18.092 195.187 17.6341 195.079 17.3733C194.971 17.1061 194.806 16.5782 194.705 16.1966C194.609 15.8086 194.495 15.1662 194.45 14.7655C194.406 14.3076 194.387 13.6143 194.406 12.921C194.431 12.1768 194.489 11.5853 194.571 11.1401C194.647 10.7712 194.781 10.2432 194.876 9.96338C194.965 9.68352 195.136 9.25101 195.251 9.00932C195.365 8.76126 195.6 8.34783 195.778 8.08706C195.95 7.81992 196.293 7.40649 196.528 7.15843C196.769 6.91038 197.163 6.55419 197.41 6.36974C197.652 6.19165 198.109 5.91179 198.427 5.75914C198.738 5.60649 199.214 5.42204 199.475 5.35207C199.735 5.28211 200.148 5.19942 200.396 5.16762C200.637 5.13582 201.063 5.11038 201.329 5.10402ZM200.237 5.67645C199.977 5.71462 199.576 5.81002 199.348 5.88635C199.119 5.96903 198.732 6.13441 198.49 6.25525C198.243 6.3761 197.874 6.61144 197.665 6.76409C197.455 6.9231 197.093 7.24748 196.871 7.48918C196.642 7.73087 196.337 8.09978 196.191 8.30967C196.051 8.51956 195.842 8.87575 195.727 9.10472C195.613 9.32734 195.422 9.80437 195.314 10.1542C195.2 10.504 195.054 11.0765 194.99 11.4263C194.908 11.8906 194.876 12.3994 194.876 13.3344C194.87 14.1104 194.901 14.8037 194.952 15.1153C195.003 15.3952 195.111 15.8913 195.194 16.2284C195.283 16.5591 195.473 17.0871 195.619 17.4051C195.772 17.7167 195.988 18.1174 196.102 18.2955C196.223 18.4673 196.464 18.7789 196.642 18.9825C196.82 19.1924 197.042 19.415 197.137 19.4786L197.315 19.5994C197.08 19.0779 196.934 18.6708 196.845 18.3591C196.75 18.0411 196.629 17.4814 196.572 17.1189C196.508 16.6927 196.47 16.0312 196.47 15.3061C196.47 14.6765 196.502 13.9132 196.547 13.6206C196.585 13.3217 196.699 12.7938 196.788 12.4439C196.877 12.0941 197.036 11.6044 197.137 11.3627C197.239 11.1146 197.41 10.7584 197.512 10.5676C197.62 10.3704 197.849 10.027 198.014 9.80437C198.179 9.5754 198.528 9.18741 198.782 8.94571C199.043 8.69766 199.424 8.386 199.634 8.24607C199.843 8.10614 200.243 7.88988 200.523 7.75631C200.802 7.62911 201.272 7.45737 201.571 7.38105C202.028 7.25384 202.276 7.23476 203.191 7.2284C203.781 7.2284 204.461 7.24748 204.696 7.27292L205.128 7.3238C205.179 7.0185 205.147 6.84677 205.077 6.70684C205.014 6.57964 204.842 6.40154 204.683 6.29342C204.524 6.19165 204.137 6.02628 203.826 5.92451C203.508 5.82911 203.025 5.71462 202.746 5.67645C202.466 5.63829 202.022 5.60013 201.761 5.58741C201.501 5.58105 201.158 5.57469 200.999 5.58741C200.84 5.59377 200.497 5.63193 200.237 5.67645ZM207.63 5.88635L207.503 5.92451C207.484 17.3669 207.497 19.9683 207.542 20.121C207.573 20.2545 207.688 20.4454 207.796 20.5535C207.973 20.7316 208.012 20.7443 208.526 20.7443H209.066C209.066 10.1097 209.085 7.78812 209.13 7.70543C209.161 7.63547 209.282 7.54642 209.396 7.51462C209.511 7.47645 209.86 7.41921 210.178 7.38741C210.489 7.34925 210.914 7.3238 211.111 7.3238H211.48V5.92451C211.06 5.81638 210.368 5.77186 209.669 5.75914C208.971 5.74642 208.253 5.7655 208.081 5.7973C207.904 5.82911 207.707 5.86727 207.63 5.88635ZM217.241 5.94359L216.891 5.99448C216.917 16.2411 216.923 16.7372 217.025 17.1189C217.088 17.3415 217.234 17.7295 217.349 17.9775C217.463 18.2192 217.685 18.5945 217.844 18.8044C218.003 19.0143 218.27 19.3068 218.441 19.4531C218.613 19.5994 218.765 19.7203 218.784 19.7203C218.803 19.7203 218.746 19.4595 218.657 19.1351L218.505 18.55C218.467 10.3641 218.473 7.92168 218.492 7.84536C218.517 7.74995 218.619 7.66727 218.797 7.60366C218.949 7.54642 219.356 7.47645 219.705 7.44465C220.055 7.41285 220.531 7.38741 220.766 7.38741H221.198C221.198 6.0708 221.185 5.98176 221.084 5.95631C221.026 5.93723 220.76 5.89271 220.499 5.86091C220.239 5.82911 219.553 5.80366 218.975 5.80366C218.397 5.81002 217.851 5.82911 217.755 5.84819C217.666 5.87363 217.431 5.91179 217.241 5.94359ZM224.812 5.92451L224.59 5.98812C224.564 15.8341 224.552 16.2411 224.45 16.4574C224.393 16.5909 224.253 16.7563 224.152 16.839C224.044 16.9217 223.834 17.0298 223.675 17.0743L223.389 17.1634C223.358 17.9521 223.377 18.0793 223.485 18.2447C223.561 18.3782 223.739 18.5118 223.974 18.6263C224.272 18.7662 224.431 18.798 224.818 18.798C225.2 18.798 225.358 18.7662 225.606 18.639C225.778 18.5563 225.974 18.41 226.038 18.3273C226.152 18.1747 226.152 17.9394 226.152 13.0291C226.152 10.2051 226.171 7.84536 226.197 7.78812C226.222 7.73087 226.317 7.64819 226.406 7.60366C226.495 7.55914 226.807 7.48918 227.105 7.45101C227.404 7.41285 227.924 7.38741 228.261 7.38741H228.884L228.852 5.96267C228.553 5.86727 227.772 5.83547 226.915 5.82274C226.057 5.81638 225.288 5.81638 225.2 5.83547C225.111 5.84819 224.939 5.88635 224.812 5.92451ZM231.488 20.3627C231.799 20.7379 231.812 20.7443 232.441 20.7443H233.076C233.076 8.5132 233.089 7.55914 233.165 7.47645C233.247 7.38741 233.628 7.38105 236.614 7.40013C239.752 7.42557 240.006 7.43829 240.571 7.55914C240.901 7.63547 241.181 7.69271 241.193 7.68635C241.2 7.67999 241.092 7.51462 240.952 7.3238C240.806 7.12663 240.571 6.87858 240.425 6.75773C240.279 6.64324 239.987 6.45879 239.777 6.35066C239.567 6.24889 239.123 6.08352 238.792 5.99448L238.189 5.82911L231.494 5.78458L231.488 20.3627ZM206.157 11.757C206.036 11.8842 205.89 11.9669 205.795 11.9669C205.706 11.9669 205.541 11.916 205.426 11.8461C205.318 11.7761 204.994 11.6616 204.715 11.5853C204.321 11.4772 204.099 11.4517 203.73 11.4772C203.464 11.4962 203.089 11.5789 202.873 11.6616C202.632 11.7507 202.365 11.9224 202.143 12.1323C201.952 12.3104 201.704 12.6284 201.59 12.8319C201.482 13.0418 201.342 13.398 201.279 13.6206C201.19 13.9386 201.164 14.2821 201.158 15.0517C201.158 15.6114 201.177 16.1775 201.202 16.3111C201.247 16.5146 201.285 16.5528 201.457 16.5909C201.571 16.61 201.882 16.6291 202.143 16.6227C202.403 16.6227 202.816 16.5782 203.064 16.521C203.318 16.4637 203.629 16.3429 203.794 16.2348C203.953 16.1266 204.15 16.0439 204.239 16.0439C204.347 16.0439 204.499 16.1457 204.715 16.3747C204.899 16.5719 205.16 16.9471 205.325 17.2779C205.49 17.5959 205.649 17.9584 205.693 18.092C205.731 18.2256 205.788 18.3273 205.827 18.3273C205.858 18.3273 205.903 18.3019 205.922 18.2637C205.941 18.2319 206.017 18.2001 206.093 18.2001C206.176 18.2001 206.328 18.2955 206.436 18.41C206.544 18.5245 206.709 18.728 206.805 18.868L206.97 19.1224C206.97 12.4439 206.964 10.5104 206.951 10.5104C206.944 10.5104 206.811 10.7457 206.652 11.0256C206.494 11.3118 206.271 11.6362 206.157 11.757ZM237.586 11.6171L237.389 11.8079L237.395 13.875C237.763 13.8814 238.043 13.8496 238.253 13.8114C238.462 13.7733 238.761 13.6715 238.919 13.5825C239.078 13.4998 239.256 13.3535 239.313 13.2708C239.389 13.1627 239.402 13.1182 239.345 13.1182C239.307 13.1182 239.332 13.0545 239.415 12.9719C239.548 12.8447 239.561 12.781 239.542 12.3803C239.529 12.0941 239.472 11.8524 239.389 11.6807C239.288 11.4962 239.167 11.3881 238.913 11.2609C238.723 11.1655 238.418 11.0765 238.233 11.0574C237.91 11.0256 237.903 11.0256 237.84 11.2291C237.808 11.3372 237.694 11.5153 237.586 11.6171ZM237.605 17.1697L237.395 17.4369V19.345C238.157 19.345 238.481 19.3196 238.602 19.2878C238.723 19.256 238.926 19.1606 239.046 19.0779C239.167 19.0015 239.332 18.8044 239.409 18.6454C239.523 18.4291 239.555 18.2574 239.555 17.9139C239.555 17.615 239.517 17.3924 239.434 17.2143C239.364 17.0743 239.243 16.9153 239.161 16.8581C239.078 16.8072 238.913 16.7245 238.792 16.6863C238.672 16.6482 238.424 16.5973 238.246 16.5782C237.929 16.5337 237.922 16.5401 237.865 16.7182C237.84 16.8199 237.719 17.0235 237.605 17.1697ZM203.172 17.0362C202.936 17.0934 202.454 17.1443 202.098 17.1443L201.457 17.1507C201.634 17.5005 201.819 17.7549 201.99 17.9394C202.206 18.1747 202.447 18.3528 202.771 18.5118C203.241 18.7408 203.254 18.7408 204.01 18.7344C204.48 18.7344 204.88 18.6962 205.045 18.639L205.312 18.55C204.975 17.7167 204.747 17.2779 204.588 17.0425C204.429 16.8072 204.283 16.6164 204.251 16.6164C204.226 16.6164 204.073 16.6863 203.902 16.7754C203.737 16.8581 203.413 16.9789 203.172 17.0362ZM213.639 18.6454L215.513 18.6517C215.43 17.933 215.361 17.5832 215.303 17.4051L215.195 17.0871L213.646 17.0553L213.639 18.6454Z"
        fill="#3C9389" />
</svg>
