<svg width="60" height="60" viewBox="0 0 60 60" fill="none" xmlns="http://www.w3.org/2000/svg">
<path d="M30 60C46.5685 60 60 46.5685 60 30C60 13.4315 46.5685 0 30 0C13.4315 0 0 13.4315 0 30C0 46.5685 13.4315 60 30 60Z" fill="#B0B0B0"/>
<path d="M51.2614 51.1938C48.5829 53.8724 45.3909 56.0096 41.6855 57.6056C37.9802 59.2016 34.0851 59.9996 30.0003 59.9996C25.9155 59.9996 22.0204 59.2072 18.315 57.6223C14.6097 56.0375 11.4233 53.9003 8.75586 51.2105C10.2291 43.9114 14.1632 34.2853 19.5204 34.2853C22.4445 37.1424 25.9378 38.571 30.0003 38.571C34.0628 38.571 37.5561 37.1424 40.4802 34.2853C45.8373 34.2853 49.7882 43.8947 51.2614 51.1938Z" fill="#EDEDED"/>
<path d="M42.8574 23.571C42.8574 20.0219 41.6018 16.9918 39.0907 14.4806C36.5795 11.9694 33.5494 10.7139 30.0003 10.7139C26.4512 10.7139 23.421 11.9694 20.9099 14.4806C18.3987 16.9918 17.1431 20.0219 17.1431 23.571C17.1431 27.1201 18.3987 30.1503 20.9099 32.6614C23.421 35.1726 26.4512 36.4282 30.0003 36.4282C33.5494 36.4282 36.5795 35.1726 39.0907 32.6614C41.6018 30.1503 42.8574 27.1201 42.8574 23.571Z" fill="#EDEDED"/>
</svg>
