<svg width="24" height="24" viewBox="0 0 24 24" fill="none" xmlns="http://www.w3.org/2000/svg">
<g clip-path="url(#clip0)">
<path d="M4.84375 1H0.96875C0.434 1 0 1.434 0 1.96875V21.3438C0 21.8785 0.434 22.3125 0.96875 22.3125H4.84375V1Z" fill="currentColor"/>
<path d="M6.78125 1V22.3125H22.2812C22.816 22.3125 23.25 21.8785 23.25 21.3438V1.96875C23.25 1.434 22.816 1 22.2812 1H6.78125ZM10.6562 4.875H13.5625V6.8125H10.6562V4.875ZM13.5625 18.4375H10.6562V16.5H13.5625V18.4375ZM16.4688 14.5625H12.5938V12.625H16.4688V14.5625ZM19.375 10.6875H13.5625V8.75H19.375V10.6875Z" fill="currentColor"/>
</g>
<defs>
<clipPath id="clip0">
<rect width="23.25" height="23.25" fill="currentColor"/>
</clipPath>
</defs>
</svg>
