<svg width="20" height="20" viewBox="0 0 20 20" fill="none" xmlns="http://www.w3.org/2000/svg">
<g clip-path="url(#clip0_20659_51325)">
<path d="M15.5729 14.4271H20V20H14.4271V16.6146L10 11.9271L5.57292 16.6146V20H0V14.4271H4.42708L8.90625 10V6.45833C8.24653 6.21528 7.70833 5.80729 7.29167 5.23438C6.875 4.66146 6.66667 4.02778 6.66667 3.33333C6.66667 2.39583 6.98785 1.6059 7.63021 0.963542C8.27257 0.321181 9.0625 0 10 0C10.9375 0 11.7274 0.321181 12.3698 0.963542C13.0122 1.6059 13.3333 2.39583 13.3333 3.33333C13.3333 4.02778 13.125 4.66146 12.7083 5.23438C12.2917 5.80729 11.7535 6.21528 11.0938 6.45833V10L15.5729 14.4271Z" fill="#7C756A"/>
</g>
<defs>
<clipPath id="clip0_20659_51325">
<rect width="20" height="20" fill="white"/>
</clipPath>
</defs>
</svg>
