<svg width="16" height="16" viewBox="0 0 16 16" fill="none" xmlns="http://www.w3.org/2000/svg">
    <g clip-path="url(#clip0_3191_13633)">
        <path
            d="M0 8C0.166853 7.92708 0.399255 7.81771 0.697207 7.67188C0.995158 7.52604 1.54637 7.19271 2.35084 6.67188C3.15531 6.15104 3.89721 5.59375 4.57654 5C5.00559 4.625 5.41378 4.19792 5.80112 3.71875C6.18845 3.23958 6.51024 2.78906 6.76648 2.36719C7.02272 1.94531 7.24916 1.55208 7.44581 1.1875C7.64246 0.822917 7.7825 0.536458 7.86592 0.328125L8.00894 0C8.03277 0.0833333 8.07449 0.195312 8.13408 0.335938C8.19367 0.476562 8.33073 0.755208 8.54525 1.17188C8.75978 1.58854 8.9892 1.99219 9.23352 2.38281C9.47784 2.77344 9.79963 3.21354 10.1989 3.70312C10.5981 4.19271 11.0123 4.625 11.4413 5C12.1088 5.59375 12.8238 6.14062 13.5866 6.64062C14.3493 7.14062 14.9453 7.48958 15.3743 7.6875L16 8C15.8331 8.07292 15.6007 8.1849 15.3028 8.33594C15.0048 8.48698 14.4536 8.82031 13.6492 9.33594C12.8447 9.85156 12.1088 10.4062 11.4413 11C11.0123 11.375 10.6011 11.8021 10.2078 12.2812C9.81452 12.7604 9.48976 13.2109 9.23352 13.6328C8.97728 14.0547 8.75084 14.4479 8.55419 14.8125C8.35754 15.1771 8.2175 15.4635 8.13408 15.6719L8.00894 16C7.97318 15.9167 7.92551 15.8047 7.86592 15.6641C7.80633 15.5234 7.66927 15.2448 7.45475 14.8281C7.24022 14.4115 7.0108 14.0078 6.76648 13.6172C6.52216 13.2266 6.20335 12.7865 5.81006 12.2969C5.41676 11.8073 5.00559 11.375 4.57654 11C3.89721 10.4062 3.17318 9.85938 2.40447 9.35938C1.63575 8.85938 1.04879 8.50781 0.643575 8.30469C0.238361 8.10156 0.0238361 8 0 8Z"
            fill="#2CA4AB" />
    </g>
    <defs>
        <clipPath id="clip0_3191_13633">
            <rect width="16" height="16" fill="white" />
        </clipPath>
    </defs>
</svg>
