<svg width="14" height="15" viewBox="0 0 14 15" fill="none" xmlns="http://www.w3.org/2000/svg">
    <path
        d="M0 7.5C0.145996 7.4362 0.349348 7.34049 0.610056 7.21289C0.870764 7.08529 1.35307 6.79362 2.05698 6.33789C2.76089 5.88216 3.41006 5.39453 4.00447 4.875C4.37989 4.54688 4.73706 4.17318 5.07598 3.75391C5.4149 3.33464 5.69646 2.94043 5.92067 2.57129C6.14488 2.20215 6.34302 1.85807 6.51508 1.53906C6.68715 1.22005 6.80968 0.969401 6.88268 0.787109L7.00782 0.5C7.02868 0.572917 7.06518 0.670898 7.11732 0.793945C7.16946 0.916992 7.28939 1.16081 7.4771 1.52539C7.6648 1.88997 7.86555 2.24316 8.07933 2.58496C8.29311 2.92676 8.57467 3.31185 8.92402 3.74023C9.27337 4.16862 9.63575 4.54688 10.0112 4.875C10.5952 5.39453 11.2209 5.87305 11.8883 6.31055C12.5557 6.74805 13.0771 7.05339 13.4525 7.22656L14 7.5C13.854 7.5638 13.6507 7.66178 13.3899 7.79395C13.1292 7.92611 12.6469 8.21777 11.943 8.66895C11.2391 9.12012 10.5952 9.60547 10.0112 10.125C9.63575 10.4531 9.27598 10.8268 8.93184 11.2461C8.58771 11.6654 8.30354 12.0596 8.07933 12.4287C7.85512 12.7979 7.65698 13.1419 7.48492 13.4609C7.31285 13.7799 7.19032 14.0306 7.11732 14.2129L7.00782 14.5C6.97654 14.4271 6.93482 14.3291 6.88268 14.2061C6.83054 14.083 6.71061 13.8392 6.52291 13.4746C6.3352 13.11 6.13445 12.7568 5.92067 12.415C5.70689 12.0732 5.42793 11.6882 5.0838 11.2598C4.73967 10.8314 4.37989 10.4531 4.00447 10.125C3.41006 9.60547 2.77654 9.12695 2.10391 8.68945C1.43128 8.25195 0.917691 7.94434 0.563129 7.7666C0.208566 7.58887 0.0208566 7.5 0 7.5Z"
        fill="#2CA4AB" />
</svg>
