<svg width="20" height="20" viewBox="0 0 20 20" fill="none" xmlns="http://www.w3.org/2000/svg">
<path fill-rule="evenodd" clip-rule="evenodd" d="M12.9167 12.9167V16.8056C12.9167 17.3213 12.7118 17.8158 12.3472 18.1805C11.9825 18.5451 11.4879 18.75 10.9722 18.75H3.19444C2.67875 18.75 2.18417 18.5451 1.81951 18.1805C1.45486 17.8158 1.25 17.3213 1.25 16.8056V9.02778C1.25 8.51208 1.45486 8.0175 1.81951 7.65285C2.18417 7.28819 2.67875 7.08333 3.19444 7.08333H7.08333V3.19444C7.08333 2.67875 7.28819 2.18417 7.65285 1.81951C8.0175 1.45486 8.51208 1.25 9.02778 1.25H16.8056C17.3213 1.25 17.8158 1.45486 18.1805 1.81951C18.5451 2.18417 18.75 2.67875 18.75 3.19444V10.9722C18.75 11.4879 18.5451 11.9825 18.1805 12.3472C17.8158 12.7118 17.3213 12.9167 16.8056 12.9167H12.9167ZM9.02778 7.08333H12.9167V10.9722H16.8056V3.19444H9.02778V7.08333ZM3.19444 9.02778V16.8056H10.9722V12.9167H7.08333V9.02778H3.19444Z" fill="#7C756A"/>
</svg>
