<svg width="16" height="16" viewBox="0 0 16 16" fill="none" xmlns="http://www.w3.org/2000/svg">
<path d="M6.77966 7.3368C6.56669 7.35527 6.36838 7.45292 6.2239 7.61047C6.07942 7.76803 5.99927 7.97402 5.99927 8.18779C5.99927 8.40156 6.07942 8.60756 6.2239 8.76511C6.36838 8.92267 6.56669 9.02032 6.77966 9.03879C6.88691 9.03435 6.99224 9.00881 7.08961 8.96363C7.18699 8.91844 7.27449 8.85449 7.34713 8.77545C7.41976 8.69641 7.4761 8.60382 7.51291 8.50298C7.54972 8.40215 7.56628 8.29504 7.56166 8.18779C7.56689 8.08041 7.55074 7.97305 7.51415 7.87195C7.47756 7.77086 7.42126 7.67803 7.34851 7.59887C7.27576 7.5197 7.18802 7.45577 7.09037 7.41078C6.99272 7.36579 6.8871 7.34065 6.77966 7.3368ZM9.57799 7.3368C9.40658 7.32226 9.23477 7.35981 9.08505 7.44455C8.93534 7.52928 8.8147 7.65724 8.73893 7.81169C8.66315 7.96613 8.63578 8.13985 8.66038 8.31011C8.68499 8.48037 8.76043 8.63923 8.87683 8.7659C8.99323 8.89257 9.14516 8.98114 9.31274 9.02002C9.48032 9.0589 9.65573 9.04628 9.81601 8.9838C9.97629 8.92133 10.114 8.81191 10.211 8.66988C10.3081 8.52785 10.36 8.35982 10.36 8.18779C10.3646 8.08055 10.3481 7.97344 10.3112 7.8726C10.2744 7.77176 10.2181 7.67918 10.1455 7.60013C10.0728 7.52109 9.98532 7.45715 9.88795 7.41196C9.79057 7.36678 9.68524 7.34123 9.57799 7.3368Z" fill="#C8C8C8"/>
<path d="M13.179 0.666504H2.90565C2.69876 0.667007 2.49398 0.708256 2.30303 0.787897C2.11207 0.867538 1.93867 0.984011 1.79273 1.13067C1.64679 1.27732 1.53116 1.45128 1.45245 1.64263C1.37374 1.83397 1.33349 2.03894 1.33399 2.24584V12.6137C1.33349 12.8206 1.37374 13.0256 1.45245 13.2169C1.53116 13.4083 1.64679 13.5822 1.79273 13.7289C1.93867 13.8755 2.11207 13.992 2.30303 14.0716C2.49398 14.1513 2.69876 14.1925 2.90565 14.193H11.5996L11.1933 12.7747L12.1746 13.687L13.1023 14.5432L14.7506 15.9998V2.24584C14.7511 2.03894 14.7109 1.83397 14.6322 1.64263C14.5535 1.45128 14.4378 1.27732 14.2919 1.13067C14.146 0.984011 13.9726 0.867538 13.7816 0.787897C13.5906 0.708256 13.3859 0.667007 13.179 0.666504V0.666504ZM10.2196 10.6792C10.2196 10.6792 9.94365 10.3495 9.71365 10.0582C10.2694 9.92729 10.7609 9.60413 11.1013 9.14583C10.8254 9.32942 10.5297 9.48116 10.2196 9.59816C9.86299 9.75039 9.48997 9.86101 9.10798 9.92783C8.45137 10.0487 7.77797 10.0461 7.12232 9.92016C6.73826 9.84469 6.36188 9.73435 5.99787 9.59049C5.69045 9.47307 5.39726 9.32134 5.12387 9.13816C5.45197 9.58689 5.92653 9.90689 6.46554 10.0428C6.23554 10.3342 5.95443 10.6817 5.95443 10.6817C5.49902 10.694 5.04757 10.5941 4.63983 10.3909C4.23208 10.1877 3.88053 9.88736 3.6161 9.51638C3.64061 7.96127 4.01811 6.43204 4.7201 5.04417C5.33753 4.55924 6.09029 4.27796 6.87443 4.23917L6.95109 4.33117C6.21159 4.51313 5.52136 4.85606 4.92965 5.3355C4.92965 5.3355 5.09832 5.2435 5.38198 5.11317C5.93293 4.86073 6.52027 4.69686 7.12232 4.62761C7.1644 4.61887 7.20714 4.61374 7.25009 4.61228C7.76385 4.54534 8.28378 4.54019 8.79876 4.59694C9.60967 4.6899 10.3945 4.94081 11.109 5.3355C10.5487 4.87946 9.89807 4.54759 9.19998 4.36183L9.30731 4.23917C10.0915 4.27796 10.8442 4.55924 11.4616 5.04417C12.1636 6.43204 12.5411 7.96127 12.5656 9.51638C12.2988 9.88657 11.9457 10.186 11.5368 10.3886C11.128 10.5913 10.6758 10.691 10.2196 10.6792Z" fill="#C8C8C8"/>
</svg>
