<svg width="200" height="200" viewBox="0 0 200 200" fill="none" xmlns="http://www.w3.org/2000/svg">
<path d="M84.7549 91.705C82.0927 91.9359 79.6139 93.1566 77.8079 95.126C76.0019 97.0954 75 99.6704 75 102.343C75 105.015 76.0019 107.59 77.8079 109.559C79.6139 111.528 82.0927 112.749 84.7549 112.98C86.0955 112.925 87.4121 112.605 88.6293 112.04C89.8465 111.476 90.9403 110.676 91.8482 109.688C92.7561 108.7 93.4603 107.543 93.9205 106.282C94.3806 105.022 94.5877 103.683 94.5298 102.343C94.5952 101 94.3934 99.6582 93.936 98.3945C93.4786 97.1308 92.7748 95.9705 91.8655 94.9809C90.9562 93.9913 89.8593 93.1922 88.6387 92.6298C87.4181 92.0675 86.0979 91.7531 84.7549 91.705V91.705ZM119.734 91.705C117.591 91.5233 115.444 91.9927 113.572 93.0519C111.701 94.1111 110.193 95.7106 109.246 97.6411C108.299 99.5717 107.956 101.743 108.264 103.871C108.571 106 109.514 107.985 110.969 109.569C112.424 111.152 114.324 112.259 116.418 112.745C118.513 113.231 120.706 113.074 122.709 112.293C124.713 111.512 126.434 110.144 127.647 108.369C128.86 106.593 129.509 104.493 129.509 102.343C129.567 101.002 129.36 99.6631 128.9 98.4026C128.439 97.1421 127.735 95.9848 126.827 94.9967C125.919 94.0087 124.826 93.2094 123.608 92.6446C122.391 92.0797 121.075 91.7605 119.734 91.705V91.705Z" fill="#F2F9FF"/>
<path d="M164.729 8.33344H36.3127C33.7265 8.33972 31.1669 8.85534 28.7799 9.85085C26.393 10.8464 24.2255 12.3023 22.4012 14.1355C20.5769 15.9686 19.1316 18.1432 18.1477 20.535C17.1638 22.9267 16.6606 25.4889 16.6669 28.0751V157.674C16.6606 160.26 17.1638 162.822 18.1477 165.214C19.1316 167.605 20.5769 169.78 22.4012 171.613C24.2255 173.446 26.393 174.902 28.7799 175.898C31.1669 176.893 33.7265 177.409 36.3127 177.415H144.988L139.908 159.686L152.175 171.09L163.771 181.792L184.375 200V28.0751C184.381 25.4889 183.878 22.9267 182.894 20.535C181.91 18.1432 180.465 15.9686 178.641 14.1355C176.817 12.3023 174.649 10.8464 172.262 9.85085C169.875 8.85534 167.316 8.33972 164.729 8.33344V8.33344ZM127.738 133.492C127.738 133.492 124.288 129.371 121.413 125.729C128.359 124.093 134.503 120.054 138.758 114.325C135.31 116.62 131.613 118.517 127.738 119.979C123.279 121.882 118.617 123.265 113.842 124.1C105.634 125.611 97.2167 125.579 89.021 124.004C84.2203 123.061 79.5156 121.681 74.9655 119.883C71.1227 118.416 67.4579 116.519 64.0405 114.229C68.1416 119.838 74.0737 123.838 80.8113 125.537C77.9363 129.179 74.4224 133.524 74.4224 133.524C68.7298 133.677 63.0868 132.428 57.9899 129.888C52.8931 127.348 48.4986 123.594 45.1933 118.957C45.4996 99.518 50.2184 80.4026 58.9933 63.0542C66.7112 56.9926 76.1207 53.4766 85.9224 52.9917L86.8807 54.1417C77.6369 56.4162 69.009 60.7029 61.6127 66.6959C61.6127 66.6959 63.721 65.5459 67.2669 63.9167C74.1537 60.7613 81.4954 58.7129 89.021 57.8473C89.547 57.738 90.0814 57.6739 90.6182 57.6556C97.0402 56.8188 103.539 56.7545 109.977 57.4639C120.113 58.6259 129.924 61.7623 138.854 66.6959C131.851 60.9954 123.718 56.847 114.992 54.525L116.333 52.9917C126.135 53.4766 135.545 56.9926 143.263 63.0542C152.038 80.4026 156.756 99.518 157.063 118.957C153.728 123.584 149.313 127.327 144.202 129.86C139.092 132.393 133.44 133.64 127.738 133.492V133.492Z" fill="#F2F9FF"/>
</svg>
