<svg width="20" height="20" viewBox="0 0 20 20" fill="none" xmlns="http://www.w3.org/2000/svg">
    <path
        d="M16.5625 3.125H3.4375C2.85753 3.12562 2.30149 3.35629 1.89139 3.76639C1.48129 4.17649 1.25062 4.73253 1.25 5.3125V14.6875C1.25062 15.2675 1.48129 15.8235 1.89139 16.2336C2.30149 16.6437 2.85753 16.8744 3.4375 16.875H16.5625C17.1425 16.8744 17.6985 16.6437 18.1086 16.2336C18.5187 15.8235 18.7494 15.2675 18.75 14.6875V5.3125C18.7494 4.73253 18.5187 4.17649 18.1086 3.76639C17.6985 3.35629 17.1425 3.12562 16.5625 3.125ZM16.0086 6.74336L10.3836 11.1184C10.2739 11.2036 10.1389 11.2499 10 11.2499C9.86107 11.2499 9.72609 11.2036 9.61641 11.1184L3.99141 6.74336C3.92532 6.69345 3.86981 6.63091 3.8281 6.55936C3.78639 6.48781 3.75932 6.40869 3.74846 6.32659C3.73759 6.24449 3.74315 6.16104 3.76482 6.08111C3.78648 6.00118 3.82381 5.92635 3.87465 5.86097C3.92548 5.79559 3.9888 5.74096 4.06093 5.70027C4.13306 5.65957 4.21255 5.63362 4.2948 5.62391C4.37704 5.6142 4.4604 5.62094 4.54002 5.64372C4.61964 5.66651 4.69394 5.70489 4.75859 5.75664L10 9.8332L15.2414 5.75664C15.3725 5.65766 15.5372 5.61425 15.7 5.6358C15.8629 5.65734 16.0107 5.74211 16.1115 5.87177C16.2123 6.00142 16.258 6.16555 16.2387 6.32866C16.2195 6.49176 16.1368 6.64073 16.0086 6.74336Z"
        fill="white" />
</svg>
