<svg width="15" height="17" viewBox="0 0 15 17" fill="none" xmlns="http://www.w3.org/2000/svg">
<path d="M2.29167 11.6667C3.34041 11.6667 4.22237 12.3718 4.49463 13.3333H13.9583C14.3035 13.3333 14.5833 13.6132 14.5833 13.9583C14.5833 14.3035 14.3035 14.5833 13.9583 14.5833H4.49463C4.22237 15.5449 3.34041 16.25 2.29167 16.25C1.02602 16.25 0 15.224 0 13.9583C0 12.6926 1.02602 11.6667 2.29167 11.6667ZM13.3333 8.125C13.3333 7.54968 12.867 7.08333 12.2917 7.08333C11.7163 7.08333 11.25 7.54968 11.25 8.125C11.25 8.70032 11.7163 9.16667 12.2917 9.16667C12.867 9.16667 13.3333 8.70032 13.3333 8.125ZM7.29167 0C8.34044 0 9.22237 0.70512 9.49463 1.66667H13.9583C14.3035 1.66667 14.5833 1.94649 14.5833 2.29167C14.5833 2.63684 14.3035 2.91667 13.9583 2.91667H9.49463C9.22237 3.87821 8.34044 4.58333 7.29167 4.58333C6.24289 4.58333 5.36096 3.87821 5.0887 2.91667H0.625C0.279822 2.91667 0 2.63684 0 2.29167C0 1.94649 0.279822 1.66667 0.625 1.66667H5.0887C5.36096 0.70512 6.24289 0 7.29167 0ZM7.29167 1.25C6.71635 1.25 6.25 1.71636 6.25 2.29167C6.25 2.86697 6.71635 3.33333 7.29167 3.33333C7.86698 3.33333 8.33333 2.86697 8.33333 2.29167C8.33333 1.71636 7.86698 1.25 7.29167 1.25ZM1.25 13.9583C1.25 14.5336 1.71636 15 2.29167 15C2.86697 15 3.33333 14.5336 3.33333 13.9583C3.33333 13.383 2.86697 12.9167 2.29167 12.9167C1.71636 12.9167 1.25 13.383 1.25 13.9583ZM14.5833 8.125C14.5833 9.39068 13.5573 10.4167 12.2917 10.4167C11.2429 10.4167 10.361 9.71156 10.0887 8.75H0.625C0.279822 8.75 0 8.47018 0 8.125C0 7.77982 0.279822 7.5 0.625 7.5H10.0887C10.361 6.53844 11.2429 5.83333 12.2917 5.83333C13.5573 5.83333 14.5833 6.85932 14.5833 8.125Z" fill="currentColor"/>
</svg>
