<svg aria-hidden="true" focusable="false" data-prefix="fas" data-icon="location-crosshairs" class="svg-inline--fa fa-location-crosshairs" role="img" xmlns="http://www.w3.org/2000/svg" viewBox="0 0 512 512"><path fill="currentColor" d="M480 224h-34.88C431.6 143.6 368.4 80.38 288 66.88V31.1c0-17.67-14.33-31.1-31.1-31.1S224 14.33 224 31.1V66.88C143.6 80.38 80.38 143.6 66.88 224H31.1C14.33 224 0 238.3 0 255.1S14.33 288 31.1 288h34.88C80.38 368.4 143.6 431.6 224 445.1v34.88C224 497.7 238.3 511.1 255.1 511.1S288 497.7 288 480v-34.88C368.4 431.6 431.6 368.4 445.1 288h34.88C497.7 288 512 273.7 512 256S497.7 224 480 224zM256 384c-70.75 0-128-57.25-128-128s57.25-128 128-128s128 57.25 128 128S326.8 384 256 384zM256 168C207.4 168 168 207.4 168 256s39.38 88 88 88S344 304.6 344 256S304.6 168 256 168z"></path></svg>