<svg width="12" height="12" viewBox="0 0 12 12" xmlns="http://www.w3.org/2000/svg">
<path d="M4.18848 1.40039C4.30064 1.4003 4.41205 1.42181 4.51562 1.46484C4.61907 1.50783 4.71299 1.57098 4.79199 1.65039L6.04102 2.90039H10.5C10.7254 2.90039 10.9412 2.99001 11.1006 3.14941C11.26 3.30882 11.3496 3.52457 11.3496 3.75V9.75C11.3496 9.97543 11.26 10.1912 11.1006 10.3506C10.9412 10.51 10.7254 10.5996 10.5 10.5996H1.5C1.27457 10.5996 1.05882 10.51 0.899414 10.3506C0.740008 10.1912 0.650391 9.97543 0.650391 9.75V2.25C0.650391 2.02457 0.740008 1.80882 0.899414 1.64941C1.05882 1.49001 1.27457 1.40039 1.5 1.40039H4.18848ZM1.59961 9.65039H10.4004V3.84961H5.64648L5.61719 3.82031L5.40039 3.59863L4.14648 2.34961H1.59961V9.65039Z" fill="currentColor"/>
</svg>
