<svg width="24" height="24" viewBox="0 0 24 24" fill="none" xmlns="http://www.w3.org/2000/svg">
<path d="M16.008 16.2015C16.3137 15.1309 16.5159 13.8871 16.5929 12.693C16.5946 12.6618 16.5899 12.6305 16.579 12.6013C16.5682 12.572 16.5514 12.5452 16.5298 12.5227C16.5082 12.5001 16.4821 12.4822 16.4533 12.4702C16.4245 12.4581 16.3935 12.4521 16.3623 12.4525H12.6872C12.6572 12.4522 12.6273 12.4579 12.5994 12.4691C12.5715 12.4804 12.5461 12.497 12.5246 12.5181C12.5032 12.5392 12.4861 12.5643 12.4743 12.592C12.4625 12.6197 12.4563 12.6494 12.4561 12.6795V15.5395C12.4567 15.5972 12.4791 15.6526 12.5188 15.6946C12.5585 15.7366 12.6125 15.7621 12.6702 15.766C13.7058 15.8497 14.7291 16.0472 15.7215 16.3551C15.7798 16.3726 15.8428 16.3663 15.8965 16.3375C15.9502 16.3087 15.9903 16.2598 16.008 16.2015Z" fill="black"/>
<path d="M15.12 17.8988C14.3327 17.669 13.526 17.5116 12.71 17.4287C12.6785 17.4252 12.6466 17.4283 12.6163 17.4378C12.586 17.4472 12.5581 17.4629 12.5342 17.4838C12.5103 17.5046 12.491 17.5302 12.4776 17.559C12.4641 17.5877 12.4568 17.6189 12.4561 17.6506V21.0246C12.4573 21.0649 12.469 21.1041 12.4901 21.1384C12.5112 21.1727 12.5408 21.201 12.5761 21.2203C12.6115 21.2396 12.6512 21.2494 12.6915 21.2487C12.7317 21.2479 12.7711 21.2366 12.8057 21.216C13.628 20.7366 14.3055 19.9313 14.9178 18.8665C15.0181 18.6927 15.1707 18.3933 15.2628 18.2102C15.2771 18.1807 15.2847 18.1485 15.285 18.1157C15.2854 18.083 15.2785 18.0506 15.2649 18.0208C15.2512 17.9911 15.2311 17.9647 15.2061 17.9436C15.1811 17.9225 15.1517 17.9072 15.12 17.8988Z" fill="black"/>
<path d="M10.554 17.438C9.73899 17.5156 8.93291 17.6683 8.14602 17.8942C8.00949 17.9335 7.95208 18.1217 8.01414 18.2453C8.10672 18.4295 8.22101 18.6648 8.31876 18.8406C8.99109 20.0301 9.70685 20.78 10.4516 21.216C10.4862 21.2366 10.5255 21.2479 10.5658 21.2487C10.606 21.2494 10.6458 21.2396 10.6811 21.2203C10.7164 21.201 10.7461 21.1727 10.7672 21.1384C10.7882 21.1041 10.8 21.0649 10.8012 21.0246V17.649C10.8009 17.6182 10.7941 17.5878 10.7811 17.5599C10.768 17.532 10.7492 17.5071 10.7257 17.4871C10.7023 17.4671 10.6748 17.4524 10.6452 17.4439C10.6156 17.4354 10.5845 17.4334 10.554 17.438Z" fill="black"/>
<path d="M10.57 12.4525H6.89495C6.86375 12.4521 6.83281 12.4581 6.80403 12.4701C6.77524 12.4822 6.74924 12.5 6.72762 12.5225C6.706 12.545 6.68922 12.5717 6.67833 12.6009C6.66744 12.6301 6.66266 12.6613 6.66429 12.6924C6.74083 13.885 6.94201 15.1314 7.24662 16.2009C7.25526 16.2302 7.26963 16.2575 7.28888 16.2812C7.30813 16.3048 7.33189 16.3245 7.35878 16.3389C7.38567 16.3533 7.41515 16.3623 7.44553 16.3652C7.4759 16.3682 7.50656 16.3651 7.53572 16.3561C8.52804 16.0483 9.55138 15.8512 10.587 15.7686C10.6448 15.7648 10.699 15.7394 10.7388 15.6974C10.7785 15.6554 10.801 15.5999 10.8017 15.5421V12.68C10.8015 12.6499 10.7953 12.62 10.7835 12.5922C10.7718 12.5644 10.7546 12.5393 10.7331 12.5181C10.7116 12.497 10.6861 12.4803 10.6581 12.469C10.6301 12.4578 10.6002 12.4521 10.57 12.4525Z" fill="black"/>
<path d="M12.7111 5.82128C13.5266 5.74487 14.3322 5.58651 15.116 5.34859C15.1474 5.34009 15.1766 5.32477 15.2015 5.30374C15.2264 5.2827 15.2463 5.25645 15.26 5.22685C15.2736 5.19724 15.2805 5.16501 15.2803 5.13243C15.2801 5.09984 15.2727 5.0677 15.2587 5.03828C15.1661 4.85365 15.0379 4.58938 14.9396 4.41302C14.304 3.27524 13.5877 2.48139 12.8068 2.03403C12.7722 2.01354 12.7328 2.00241 12.6926 2.00173C12.6524 2.00105 12.6128 2.01085 12.5775 2.03015C12.5422 2.04946 12.5126 2.07761 12.4915 2.11184C12.4704 2.14607 12.4586 2.1852 12.4572 2.22538V5.5989C12.4579 5.63063 12.4652 5.66185 12.4787 5.6906C12.4921 5.71934 12.5114 5.74498 12.5353 5.76589C12.5591 5.7868 12.5871 5.80252 12.6174 5.81205C12.6476 5.82159 12.6796 5.82473 12.7111 5.82128Z" fill="black"/>
<path d="M12.6872 10.7975H16.3623C16.3932 10.798 16.424 10.7922 16.4526 10.7804C16.4812 10.7686 16.5072 10.7511 16.5288 10.7289C16.5504 10.7067 16.5672 10.6803 16.5782 10.6514C16.5893 10.6225 16.5943 10.5916 16.5929 10.5606C16.5164 9.38304 16.3204 8.08856 16.0158 7.03249C16.0068 7.00345 15.9923 6.97646 15.9729 6.95307C15.9536 6.92967 15.9298 6.91033 15.9029 6.89616C15.876 6.88198 15.8466 6.87325 15.8164 6.87046C15.7862 6.86768 15.7557 6.87089 15.7267 6.87993C14.744 7.17678 13.7205 7.41934 12.6707 7.50053C12.6133 7.50379 12.5593 7.52863 12.5195 7.57008C12.4797 7.61152 12.457 7.66649 12.4561 7.72395V10.5741C12.4571 10.6344 12.4821 10.6917 12.5254 10.7336C12.5688 10.7755 12.627 10.7985 12.6872 10.7975Z" fill="black"/>
<path d="M10.4516 2.03454C9.6541 2.47775 8.94299 3.29799 8.30686 4.43267C8.20808 4.60902 8.09017 4.8521 7.99656 5.03621C7.98264 5.06564 7.97534 5.09776 7.97517 5.13032C7.975 5.16287 7.98196 5.19507 7.99556 5.22465C8.00917 5.25423 8.02909 5.28046 8.05392 5.30152C8.07875 5.32257 8.1079 5.33793 8.1393 5.34651C8.9227 5.58881 9.72947 5.74777 10.5462 5.82076C10.5777 5.82421 10.6096 5.82108 10.6398 5.81157C10.6701 5.80207 10.698 5.78639 10.7219 5.76554C10.7457 5.74469 10.765 5.71911 10.7785 5.69043C10.792 5.66174 10.7993 5.63057 10.8002 5.59889V2.22589C10.7985 2.18592 10.7866 2.14705 10.7655 2.11305C10.7444 2.07905 10.7149 2.05107 10.6799 2.03182C10.6448 2.01257 10.6054 2.0027 10.5654 2.00318C10.5254 2.00366 10.4862 2.01446 10.4516 2.03454Z" fill="black"/>
<path d="M10.5865 7.50106C9.53662 7.4209 8.5121 7.17835 7.53051 6.88045C7.50151 6.87142 7.47101 6.86821 7.44077 6.87099C7.41052 6.87378 7.38113 6.88251 7.35426 6.89668C7.3274 6.91086 7.30361 6.9302 7.28424 6.9536C7.26487 6.97699 7.25032 7.00398 7.24141 7.03302C6.93679 8.08909 6.74078 9.38357 6.66424 10.5612C6.6629 10.5921 6.66789 10.623 6.67893 10.6519C6.68996 10.6809 6.7068 10.7072 6.72841 10.7294C6.75001 10.7516 6.77593 10.7691 6.80456 10.7809C6.83319 10.7927 6.86394 10.7986 6.8949 10.798H10.5699C10.5999 10.7985 10.6296 10.7931 10.6574 10.7821C10.6852 10.771 10.7106 10.7546 10.7321 10.7338C10.7536 10.7129 10.7707 10.688 10.7826 10.6606C10.7944 10.6331 10.8007 10.6035 10.8011 10.5736V7.72448C10.8002 7.66702 10.7775 7.61205 10.7377 7.57061C10.6979 7.52916 10.6439 7.50432 10.5865 7.50106Z" fill="black"/>
<path d="M19.8165 3.4335C18.7427 2.34907 17.4652 1.48749 16.0574 0.898272C14.6496 0.309049 13.1393 0.00379124 11.6132 3.50916e-05C10.0871 -0.00372106 8.57526 0.294098 7.16459 0.876384C5.75392 1.45867 4.4722 2.31394 3.39307 3.39307C2.31394 4.47221 1.45867 5.75392 0.876383 7.16459C0.294098 8.57526 -0.00372106 10.0871 3.50916e-05 11.6132C0.00379124 13.1393 0.309049 14.6496 0.898271 16.0574C1.48749 17.4652 2.34907 18.7427 3.4335 19.8165C4.5073 20.9009 5.78479 21.7625 7.19258 22.3517C8.60036 22.941 10.1107 23.2462 11.6368 23.25C13.1629 23.2537 14.6747 22.9559 16.0854 22.3736C17.4961 21.7913 18.7778 20.9361 19.8569 19.8569C20.9361 18.7778 21.7913 17.4961 22.3736 16.0854C22.9559 14.6748 23.2537 13.1629 23.25 11.6368C23.2462 10.1107 22.941 8.60037 22.3517 7.19258C21.7625 5.78479 20.9009 4.5073 19.8165 3.4335ZM7.51865 20.6678C7.28563 20.3405 7.07018 20.0011 6.87321 19.651C6.76978 19.4602 6.6229 19.1721 6.52516 18.972C6.50275 18.9245 6.47068 18.8822 6.43099 18.8479C6.3913 18.8135 6.34487 18.7878 6.29468 18.7724C6.24448 18.757 6.19163 18.7523 6.1395 18.7585C6.08737 18.7647 6.03711 18.7818 5.99195 18.8085C5.76957 18.9332 5.47478 19.1044 5.26118 19.2445C4.81327 18.9041 4.40445 18.515 4.04221 18.0845C4.54316 17.7309 5.06874 17.4136 5.61493 17.135C5.71113 17.0833 5.75819 17.0243 5.72768 16.9188C5.3275 15.5338 5.08309 14.1084 4.99898 12.6692C4.99647 12.6116 4.97204 12.5572 4.93068 12.5171C4.88933 12.477 4.83419 12.4543 4.77659 12.4535H1.84215C1.81721 12.4538 1.793 12.4451 1.774 12.4289C1.75499 12.4127 1.74246 12.3903 1.73872 12.3656C1.70622 12.1201 1.6917 11.8726 1.69528 11.625C1.69174 11.3779 1.70661 11.1309 1.73975 10.886C1.74349 10.8613 1.75602 10.8388 1.77503 10.8227C1.79404 10.8065 1.81824 10.7978 1.84319 10.798H4.77763C4.89606 10.798 4.99329 10.7298 4.9995 10.6103C5.08249 9.17707 5.32534 7.75759 5.72354 6.37828C5.73837 6.32794 5.73517 6.27399 5.71449 6.22575C5.69382 6.17751 5.65696 6.13799 5.61028 6.11401C5.07581 5.84015 4.56025 5.53088 4.06703 5.18827C4.42735 4.75787 4.82809 4.36302 5.26377 4.00911C5.47478 4.14771 5.74991 4.30442 5.97023 4.42854C6.01878 4.45614 6.07248 4.47348 6.12801 4.47948C6.18353 4.48548 6.23969 4.48003 6.29302 4.46345C6.34635 4.44687 6.39571 4.41952 6.43804 4.38309C6.48037 4.34666 6.51478 4.30193 6.53912 4.25167C6.63635 4.05152 6.74599 3.82862 6.85253 3.63726C7.05034 3.28281 7.26683 2.93909 7.50106 2.60757C8.79058 2.00006 10.1996 1.68837 11.625 1.69528C13.1217 1.69528 14.516 2.0573 15.7898 2.64998C16.0147 2.96577 16.2219 3.29382 16.4104 3.63261C16.5444 3.87361 16.6866 4.16892 16.8066 4.42492C16.8194 4.45218 16.8377 4.47653 16.8604 4.49648C16.883 4.51643 16.9094 4.53156 16.9381 4.54095C16.9667 4.55034 16.997 4.55379 17.027 4.55109C17.057 4.54839 17.0862 4.5396 17.1127 4.52525C17.391 4.37475 17.6925 4.2015 17.9578 4.02721C18.3947 4.3846 18.7965 4.78291 19.1576 5.21671C18.6779 5.5494 18.1757 5.84852 17.6547 6.11194C17.608 6.13595 17.5711 6.17558 17.5505 6.22395C17.5299 6.27232 17.5269 6.32638 17.542 6.37673C17.9466 7.74667 18.1871 9.15984 18.2583 10.5865C18.261 10.6437 18.2856 10.6977 18.327 10.7374C18.3684 10.777 18.4234 10.7993 18.4806 10.7996L21.4089 10.796C21.4338 10.7957 21.458 10.8044 21.477 10.8206C21.496 10.8368 21.5086 10.8592 21.5123 10.8839C21.5726 11.3754 21.5726 11.8725 21.5123 12.364C21.5088 12.3889 21.4964 12.4116 21.4773 12.428C21.4583 12.4444 21.434 12.4532 21.4089 12.453H18.4781C18.4204 12.4536 18.3652 12.4763 18.3238 12.5165C18.2825 12.5566 18.2581 12.6111 18.2557 12.6687C18.1751 14.0927 17.9345 15.5031 17.5384 16.8733C17.5234 16.9242 17.5265 16.9788 17.5471 17.0277C17.5678 17.0766 17.6047 17.1169 17.6516 17.1417C17.9102 17.2756 18.1983 17.4251 18.4465 17.5772C18.6948 17.7292 18.9404 17.8916 19.1773 18.0602C18.8189 18.492 18.4206 18.889 17.9878 19.2461C17.8616 19.1628 17.7116 19.0682 17.5823 18.9906C17.4934 18.9389 17.3294 18.8473 17.2384 18.7961C17.0408 18.6855 16.8309 18.7682 16.7321 18.972C16.6333 19.1757 16.4823 19.4679 16.3768 19.6572C16.1824 20.0052 15.9691 20.3424 15.7381 20.6673C14.4648 21.2636 13.1217 21.5547 11.625 21.5547C10.1283 21.5547 8.79244 21.2636 7.51865 20.6678Z" fill="black"/>
</svg>
