<?xml version="1.0" encoding="iso-8859-1"?>
<!-- Uploaded to: SVG Repo, www.svgrepo.com, Generator: SVG Repo Mixer Tools -->
<!DOCTYPE svg PUBLIC "-//W3C//DTD SVG 1.1//EN" "http://www.w3.org/Graphics/SVG/1.1/DTD/svg11.dtd">
<svg fill="#000000" version="1.1" id="Capa_1" xmlns="http://www.w3.org/2000/svg" xmlns:xlink="http://www.w3.org/1999/xlink" 
	 width="800px" height="800px" viewBox="0 0 415.881 415.881"
	 xml:space="preserve">
<g>
	<g>
		<path d="M179.641,189.565c2.455,0,4.869,0.193,7.223,0.561l36.999-36.998c-13.193-7.048-28.249-11.051-44.221-11.051
			c-51.92,0-94.162,42.241-94.162,94.162c0,51.921,42.242,94.162,94.162,94.162s94.161-42.241,94.161-94.162
			c0-15.973-4.002-31.027-11.051-44.22l-36.997,36.999c0.367,2.354,0.56,4.766,0.56,7.222c0,25.736-20.937,46.674-46.672,46.674
			c-25.736,0-46.674-20.938-46.674-46.674S153.905,189.565,179.641,189.565z"/>
		<path d="M290.454,164.316c13.488,20.712,21.338,45.417,21.338,71.922c0,72.87-59.281,132.153-132.15,132.153
			c-72.869,0-132.153-59.283-132.153-132.152s59.283-132.153,132.152-132.153c26.508,0,51.211,7.851,71.924,21.34l34.104-34.104
			c-29.738-21.817-66.402-34.724-106.027-34.724c-99.055,0-179.641,80.587-179.641,179.641c0,99.054,80.586,179.642,179.641,179.642
			c99.054,0,179.638-80.588,179.638-179.642c0-39.626-12.904-76.29-34.721-106.026L290.454,164.316z"/>
		<path d="M415.415,56.64c-1.119-3.539-4.119-6.157-7.775-6.793l-35.449-6.157l-6.156-35.45c-0.637-3.656-3.256-6.655-6.793-7.774
			c-3.537-1.122-7.402-0.178-10.027,2.447l-27.412,27.411c-1.863,1.864-2.91,4.393-2.912,7.029l0.002,40.896l-148.1,148.096
			c-5.176,5.177-5.176,13.566,0,18.743c5.178,5.175,13.568,5.177,18.744,0L337.632,96.991h40.896c2.635,0,5.164-1.047,7.027-2.911
			l27.412-27.413C415.593,64.044,416.536,60.177,415.415,56.64z"/>
	</g>
</g>
</svg>