<svg xmlns="http://www.w3.org/2000/svg" xmlns:xlink="http://www.w3.org/1999/xlink" width="1080" zoomAndPan="magnify" viewBox="0 0 810 809.999993" height="1080" preserveAspectRatio="xMidYMid meet" version="1.0"><defs><clipPath id="f7e748c8af"><path d="M 40.5 40.5 L 769.5 40.5 L 769.5 769.5 L 40.5 769.5 Z M 40.5 40.5 " clip-rule="nonzero"/></clipPath><clipPath id="b78f792f35"><path d="M 90 40.5 L 769.5 40.5 L 769.5 717 L 90 717 Z M 90 40.5 " clip-rule="nonzero"/></clipPath></defs><g clip-path="url(#f7e748c8af)"><path fill="#ec3655" d="M 769.535156 405 C 769.535156 606.320312 606.320312 769.535156 405 769.535156 C 203.679688 769.535156 40.464844 606.320312 40.464844 405 C 40.464844 203.644531 203.679688 40.464844 405 40.464844 C 606.320312 40.464844 769.535156 203.644531 769.535156 405 " fill-opacity="1" fill-rule="nonzero"/></g><path fill="#ffffff" d="M 669.042969 405 C 669.042969 550.835938 550.835938 669.042969 405 669.042969 C 259.164062 669.042969 140.957031 550.835938 140.957031 405 C 140.957031 259.164062 259.164062 140.957031 405 140.957031 C 550.835938 140.957031 669.042969 259.164062 669.042969 405 " fill-opacity="1" fill-rule="nonzero"/><path fill="#ec3655" d="M 577.402344 405 C 577.402344 500.242188 500.242188 577.402344 405 577.402344 C 309.796875 577.402344 232.597656 500.242188 232.597656 405 C 232.597656 309.796875 309.796875 232.597656 405 232.597656 C 500.242188 232.597656 577.402344 309.796875 577.402344 405 " fill-opacity="1" fill-rule="nonzero"/><path fill="#ffffff" d="M 493.222656 405 C 493.222656 453.722656 453.722656 493.222656 405 493.222656 C 356.277344 493.222656 316.777344 453.722656 316.777344 405 C 316.777344 356.277344 356.277344 316.777344 405 316.777344 C 453.722656 316.777344 493.222656 356.277344 493.222656 405 " fill-opacity="1" fill-rule="nonzero"/><path fill="#3abdc4" d="M 673.453125 133.132812 L 549.699219 256.921875 L 614.808594 282.273438 L 739.589844 157.53125 L 673.453125 133.132812 " fill-opacity="1" fill-rule="nonzero"/><path fill="#3abdc4" d="M 673.453125 133.132812 L 549.699219 256.921875 L 524.308594 191.8125 L 649.089844 67.027344 L 673.453125 133.132812 " fill-opacity="1" fill-rule="nonzero"/><path stroke-linecap="butt" transform="matrix(0.367439, 0, 0, -0.367439, -376.176393, 1186.176416)" fill="none" stroke-linejoin="miter" d="M 2110.595726 2243.004919 L 2117.803546 2127.095105 L 2233.702728 2119.802238 " stroke="#51558f" stroke-width="60" stroke-opacity="1" stroke-miterlimit="10"/><g clip-path="url(#b78f792f35)"><path stroke-linecap="butt" transform="matrix(0.367439, 0, 0, -0.367439, -376.176393, 1186.176416)" fill="none" stroke-linejoin="miter" d="M 2913.395832 2922.602344 L 2117.803546 2127.095105 " stroke="#51558f" stroke-width="60" stroke-opacity="1" stroke-miterlimit="10"/></g></svg>