<svg width="20" height="20" viewBox="0 0 20 20" fill="none" xmlns="http://www.w3.org/2000/svg">
<path d="M5.43359 13.8037L10 16.4834L14.5664 13.8037V10.9102L14.6162 10.8818L15.9502 10.1084L16.0996 10.0215V14.7314L16.0508 14.7607L10.0508 18.2812L10 18.3115L9.94922 18.2812L3.94922 14.7607L3.90039 14.7314V10.0215L4.0498 10.1084L5.38379 10.8818L5.43359 10.9102V13.8037Z" fill="currentColor" stroke="currentColor" stroke-width="0.2"/>
<path d="M2.8877 6.54785L3.62109 6.96387L4.90625 7.69238L10 10.5791L15.0938 7.69238L16.3789 6.96387L17.1113 6.54785L10 2.78613L2.8877 6.54785ZM19.0996 11.5449H17.6143V7.99316L10.0488 12.2822L10 12.3105L9.95117 12.2822L0.951172 7.18066L0.900391 7.15234V5.89648L0.953125 5.86816L9.95312 1.10645L10 1.08203L10.0469 1.10645L19.0469 5.86816L19.0996 5.89648V11.5449Z" fill="currentColor" stroke="currentColor" stroke-width="0.2"/>
</svg>