<svg width="16" height="16" viewBox="0 0 16 16" fill="none" xmlns="http://www.w3.org/2000/svg">
    <path
        d="M8.66659 1.99935C11.2666 1.99935 13.3333 4.06602 13.3333 6.66602C13.3333 8.53268 12.2666 10.1327 10.6666 10.866V13.9993H5.99993V11.9993H5.33326C4.59993 11.9993 3.99993 11.3993 3.99993 10.666V8.66602H2.99993C2.73326 8.66602 2.53326 8.33268 2.73326 8.13268L3.99993 6.46602C4.13326 3.93268 6.13326 1.99935 8.66659 1.99935ZM8.66659 0.666016C5.59993 0.666016 3.0666 2.93268 2.73326 5.93268L1.6666 7.33268C1.2666 7.86602 1.2666 8.53268 1.53326 9.06602C1.79993 9.53268 2.19993 9.86601 2.6666 9.93268V10.666C2.6666 11.9327 3.53326 12.9327 4.6666 13.266V15.3327H11.9999V11.666C13.6666 10.5327 14.6666 8.73268 14.6666 6.66602C14.6666 3.33268 11.9999 0.666016 8.66659 0.666016ZM6.6666 6.66602C6.2666 6.66602 5.99993 6.39935 5.99993 5.99935C5.99993 5.59935 6.2666 5.33268 6.6666 5.33268C7.0666 5.33268 7.33326 5.59935 7.33326 5.99935C7.33326 6.39935 7.0666 6.66602 6.6666 6.66602ZM8.66659 6.66602C8.26659 6.66602 7.99993 6.39935 7.99993 5.99935C7.99993 5.59935 8.26659 5.33268 8.66659 5.33268C9.0666 5.33268 9.33326 5.59935 9.33326 5.99935C9.33326 6.39935 9.0666 6.66602 8.66659 6.66602ZM10.6666 6.66602C10.3333 6.66602 9.99993 6.39935 9.99993 5.99935C9.99993 5.59935 10.3333 5.33268 10.6666 5.33268C10.9999 5.33268 11.3333 5.59935 11.3333 5.99935C11.3333 6.39935 10.9999 6.66602 10.6666 6.66602Z"
        fill="var(--text-color)" />
</svg>
