<svg width="16" height="17" viewBox="0 0 16 17" fill="none" xmlns="http://www.w3.org/2000/svg">
    <path
        d="M5.38202 16.401L1.88202 16.4005C1.40077 16.4005 0.98881 16.2291 0.646147 15.8863C0.303484 15.5436 0.132184 15.1315 0.132247 14.6503L0.133055 8.5253C0.1332 7.43155 0.341147 6.4071 0.756898 5.45194C1.17265 4.49679 1.73422 3.66561 2.4416 2.95842C3.14899 2.25122 3.98031 1.68987 4.93557 1.27437C5.89084 0.858871 6.91534 0.651194 8.00909 0.651338C9.10284 0.651482 10.1273 0.85943 11.0824 1.27518C12.0376 1.69093 12.8688 2.2525 13.576 2.95988C14.2832 3.66727 14.8445 4.49859 15.26 5.45386C15.6755 6.40912 15.8832 7.43363 15.8831 8.52738L15.8822 14.6524C15.8822 15.1336 15.7108 15.5456 15.368 15.8882C15.0253 16.2309 14.6133 16.4022 14.132 16.4021L10.632 16.4017L10.6329 9.40168L14.1329 9.40215L14.1331 8.52715C14.1333 6.8209 13.5392 5.37342 12.3508 4.18472C11.1624 2.99602 9.71511 2.40156 8.00886 2.40134C6.30261 2.40111 4.85514 2.99519 3.66644 4.18358C2.47774 5.37196 1.88328 6.81928 1.88306 8.52553L1.88294 9.40053L5.38294 9.40099L5.38202 16.401ZM3.63271 11.1508L1.88271 11.1505L1.88225 14.6505L3.63225 14.6508L3.63271 11.1508ZM12.3827 11.1519L12.3822 14.6519L14.1322 14.6521L14.1327 11.1521L12.3827 11.1519Z"
        fill="currentColor" />
</svg>