<svg width="16" height="17" viewBox="0 0 16 17" fill="none" xmlns="http://www.w3.org/2000/svg">
    <path
        d="M5.3822 16.401L1.8822 16.4005C1.40095 16.4005 0.988993 16.2291 0.64633 15.8863C0.303667 15.5436 0.132367 15.1315 0.132431 14.6503L0.133239 8.5253C0.133383 7.43155 0.34133 6.4071 0.757081 5.45194C1.17283 4.49679 1.7344 3.66561 2.44179 2.95842C3.14917 2.25122 3.98049 1.68987 4.93576 1.27437C5.89102 0.858871 6.91553 0.651194 8.00928 0.651338C9.10303 0.651482 10.1275 0.85943 11.0826 1.27518C12.0378 1.69093 12.869 2.2525 13.5762 2.95988C14.2834 3.66727 14.8447 4.49859 15.2602 5.45386C15.6757 6.40912 15.8834 7.43363 15.8832 8.52738L15.8824 14.6524C15.8824 15.1336 15.711 15.5456 15.3682 15.8882C15.0255 16.2309 14.6134 16.4022 14.1322 16.4021L10.6322 16.4017L10.6331 9.40168L14.1331 9.40215L14.1332 8.52715C14.1335 6.8209 13.5394 5.37342 12.351 4.18472C11.1626 2.99602 9.7153 2.40156 8.00905 2.40134C6.3028 2.40111 4.85532 2.99519 3.66662 4.18358C2.47793 5.37196 1.88346 6.81928 1.88324 8.52553L1.88312 9.40053L5.38312 9.40099L5.3822 16.401ZM3.63289 11.1508L1.88289 11.1505L1.88243 14.6505L3.63243 14.6508L3.63289 11.1508ZM12.3829 11.1519L12.3824 14.6519L14.1324 14.6521L14.1329 11.1521L12.3829 11.1519Z"
        fill="#43A2AC" />
</svg>