<svg width="16" height="16" viewBox="0 0 16 16" fill="none" xmlns="http://www.w3.org/2000/svg">
<g clip-path="url(#clip0_9291_103538)">
<path d="M8 1.33333C6.23189 1.33333 4.5362 2.03571 3.28595 3.28595C2.03571 4.5362 1.33333 6.23189 1.33333 8V9.33333H2.66667C3.02029 9.33333 3.35943 9.47381 3.60948 9.72386C3.85952 9.97391 4 10.313 4 10.6667V14.6667C4 15.0203 3.85952 15.3594 3.60948 15.6095C3.35943 15.8595 3.02029 16 2.66667 16H1.33333C0.979711 16 0.640573 15.8595 0.390524 15.6095C0.140476 15.3594 0 15.0203 0 14.6667V8C-1.56548e-08 6.94943 0.206926 5.90914 0.608964 4.93853C1.011 3.96793 1.60028 3.08601 2.34315 2.34315C3.08601 1.60028 3.96793 1.011 4.93853 0.608964C5.90914 0.206926 6.94943 0 8 0C9.05058 0 10.0909 0.206926 11.0615 0.608964C12.0321 1.011 12.914 1.60028 13.6569 2.34315C14.3997 3.08601 14.989 3.96793 15.391 4.93853C15.7931 5.90914 16 6.94943 16 8V14.6667C16 15.0203 15.8595 15.3594 15.6095 15.6095C15.3594 15.8595 15.0203 16 14.6667 16H13.3333C12.9797 16 12.6406 15.8595 12.3905 15.6095C12.1405 15.3594 12 15.0203 12 14.6667V10.6667C12 10.313 12.1405 9.97391 12.3905 9.72386C12.6406 9.47381 12.9797 9.33333 13.3333 9.33333H14.6667V8C14.6667 6.23189 13.9643 4.5362 12.714 3.28595C11.4638 2.03571 9.76811 1.33333 8 1.33333Z" fill="#CED4DA"/>
</g>
<defs>
<clipPath id="clip0_9291_103538">
<rect width="16" height="16" fill="white"/>
</clipPath>
</defs>
</svg>
