<svg width="20" height="16" viewBox="0 0 20 16" fill="none" xmlns="http://www.w3.org/2000/svg">
    <path
        d="M1.66732 1.21458L2.73398 0.15625L16.6673 14.0896L15.609 15.1563L13.0423 12.5896C12.084 12.9063 11.0673 13.0729 10.0007 13.0729C5.83398 13.0729 2.27565 10.4813 0.833984 6.82292C1.40898 5.35625 2.32565 4.06458 3.49232 3.03958L1.66732 1.21458ZM10.0007 4.32292C10.6637 4.32292 11.2996 4.58631 11.7684 5.05515C12.2373 5.52399 12.5007 6.15988 12.5007 6.82292C12.5007 7.11458 12.4507 7.39792 12.359 7.65625L9.16732 4.46458C9.42565 4.37292 9.70898 4.32292 10.0007 4.32292ZM10.0007 0.572917C14.1673 0.572917 17.7256 3.16458 19.1673 6.82292C18.484 8.55625 17.3256 10.0563 15.834 11.1479L14.6507 9.95625C15.784 9.17292 16.7173 8.10625 17.3506 6.82292C15.9756 4.02292 13.134 2.23958 10.0007 2.23958C9.09232 2.23958 8.20065 2.38958 7.36732 2.65625L6.08398 1.38125C7.28398 0.864583 8.60898 0.572917 10.0007 0.572917ZM2.65065 6.82292C4.02565 9.62292 6.86732 11.4063 10.0007 11.4063C10.5757 11.4063 11.1423 11.3479 11.6673 11.2313L9.76732 9.32292C8.57565 9.19792 7.62565 8.24792 7.50065 7.05625L4.66732 4.21458C3.84232 4.92292 3.15065 5.80625 2.65065 6.82292Z"
        fill="#8B8B8B" />
</svg>
