<svg width="22" height="24" viewBox="0 0 38 40" fill="none" xmlns="http://www.w3.org/2000/svg">
<path d="M3.99868 10.0508C4.62965 9.8563 5.32678 10.0794 5.72458 10.6263C6.16658 11.2341 6.11428 12.0702 5.6 12.6181L4.1913 13.6616C3.52383 14.2161 3.13552 15.0373 3.13043 15.9051V31.8181C3.14948 34.4103 5.25124 36.5043 7.84348 36.5138H15.8435V36.5486C16.7079 36.5486 17.4087 37.2493 17.4087 38.1138C17.4087 38.9782 16.7079 39.679 15.8435 39.679H7.84348C3.51561 39.6694 0.00956438 36.1634 0 31.8355V15.9051C0.0276706 14.0642 0.891751 12.3361 2.34783 11.2094L3.7913 10.1312L3.99868 10.0508ZM14.2435 1.59204C16.8843 -0.530679 20.6462 -0.530679 23.287 1.59204L35.3043 11.1746C36.7283 12.3199 37.5643 14.043 37.5826 15.8703L37.5652 31.8181C37.5652 36.15 34.0536 39.6616 29.7217 39.6616H26.2435C24.1468 39.6616 22.4444 37.967 22.4348 35.8703V28.6703L22.4185 28.489C22.3331 28.0184 21.9213 27.6616 21.4261 27.6616H16.2087C15.9381 27.6616 15.6789 27.7702 15.4892 27.9632C15.2995 28.1561 15.1953 28.4172 15.2 28.6877V31.4355C15.2 32.3 14.4992 33.0007 13.6348 33.0007C12.7703 33.0007 12.0696 32.3 12.0696 31.4355V28.6877C12.0696 27.5853 12.5075 26.5281 13.287 25.7486C14.0665 24.9691 15.1237 24.5312 16.2261 24.5312H21.4435C23.7323 24.5407 25.5826 26.3989 25.5826 28.6877V35.8703C25.5826 36.2353 25.8785 36.5312 26.2435 36.5312H29.8087C32.402 36.5312 34.5043 34.4289 34.5043 31.8355V15.9051C34.4916 15.0226 34.083 14.1925 33.3913 13.6442L21.3739 4.0616C19.8585 2.81401 17.6719 2.81401 16.1565 4.0616L12.2957 6.94856C11.5801 7.46242 10.5834 7.29891 10.0696 6.58334C9.5557 5.86777 9.71921 4.87112 10.4348 4.35725L14.2435 1.59204Z" fill="black"/>
</svg>
