<svg width="24" height="24" viewBox="0 0 40 40" fill="none" xmlns="http://www.w3.org/2000/svg">
<path d="M20 0C31.028 0 40 8.97 40 20C40 31.028 31.028 40 20 40C13.746 40 7.966 37.154 4.146 32.196C3.656 31.558 3.774 30.644 4.412 30.156C5.046 29.664 5.958 29.786 6.45 30.42C9.716 34.66 14.654 37.092 20 37.092C29.424 37.092 37.092 29.426 37.092 20C37.092 10.576 29.424 2.908 20 2.908C10.576 2.908 2.908 10.576 2.908 20C2.908 20.876 2.974 21.746 3.104 22.598C3.224 23.39 2.68 24.132 1.886 24.254C1.088 24.386 0.35 23.832 0.23 23.038C0.078 22.042 0 21.02 0 20C0 8.97 8.972 0 20 0ZM20.0204 26.0918C20.8484 26.0918 21.5204 26.7638 21.5204 27.5918C21.5204 28.4198 20.8484 29.0918 20.0204 29.0918C19.1924 29.0918 18.5104 28.4198 18.5104 27.5918C18.5104 26.7638 19.1724 26.0918 20.0004 26.0918H20.0204ZM20 10.9082C20.828 10.9082 21.5 11.5802 21.5 12.4082V21.2482C21.5 22.0762 20.828 22.7482 20 22.7482C19.172 22.7482 18.5 22.0762 18.5 21.2482V12.4082C18.5 11.5802 19.172 10.9082 20 10.9082Z" fill="black"/>
</svg>
