<svg width="15" height="15" viewBox="0 0 15 15" fill="none" xmlns="http://www.w3.org/2000/svg">
<g clip-path="url(#clip0_6501_163491)">
<path d="M7.5 1.00962C9.23438 1.00962 10.8642 1.68389 12.0901 2.90986C13.3161 4.13582 13.9904 5.76562 13.9904 7.5C13.9904 9.23438 13.3161 10.8642 12.0901 12.0901C10.8642 13.3161 9.23438 13.9904 7.5 13.9904C5.76562 13.9904 4.13582 13.3161 2.90986 12.0901C1.68389 10.8642 1.00962 9.23438 1.00962 7.5C1.00962 5.76562 1.68389 4.13582 2.90986 2.90986C4.13582 1.68389 5.76562 1.00962 7.5 1.00962ZM7.5 0C3.35697 0 0 3.35697 0 7.5C0 11.643 3.35697 15 7.5 15C11.643 15 15 11.643 15 7.5C15 3.35697 11.643 0 7.5 0Z" fill="#CED4DA"/>
<path d="M6.75 4.49737C6.75 4.06923 7.08859 3.75 7.49636 3.75C7.91141 3.75 8.25 4.06923 8.25 4.49737C8.25 4.92551 7.91141 5.2485 7.49636 5.2485C7.08859 5.2485 6.75 4.92551 6.75 4.49737ZM6.80097 5.83813H8.19175V11.25H6.80097V5.83813Z" fill="#CED4DA"/>
</g>
<defs>
<clipPath id="clip0_6501_163491">
<rect width="15" height="15" fill="white"/>
</clipPath>
</defs>
</svg>
