<svg width="24" height="24" viewBox="0 0 24 24" fill="none" xmlns="http://www.w3.org/2000/svg">
<path d="M15.1297 21.3585L14.8995 22.3425C14.162 22.6508 13.4069 22.9152 12.6382 23.1345C12.1676 23.2699 11.6818 23.3455 11.1922 23.3595C10.8572 23.385 10.5205 23.3415 10.203 23.2316C9.88555 23.1216 9.59401 22.9477 9.34648 22.7205C9.14474 22.5118 8.98649 22.2651 8.88091 21.9947C8.77534 21.7243 8.72454 21.4357 8.73148 21.1455C8.73229 20.8978 8.75286 20.6505 8.79298 20.406C8.83423 20.1488 8.90098 19.8263 8.99323 19.4355L10.6185 12.8918C10.6995 12.5325 10.7797 12.147 10.8562 11.7375C10.9263 11.3917 10.9647 11.0403 10.971 10.6875C11.0195 10.2835 10.9187 9.87562 10.6875 9.54075C10.3486 9.30769 9.9363 9.20634 9.52798 9.25575C9.22538 9.26451 8.92417 9.30041 8.62798 9.36301C8.25448 9.43501 7.97073 9.49676 7.77673 9.54825L8.00698 8.56351C8.70298 8.24297 9.4223 7.97571 10.1587 7.76401C10.6486 7.6126 11.1556 7.52389 11.6677 7.50001C11.9976 7.46977 12.3301 7.5074 12.6448 7.61059C12.9596 7.71379 13.2498 7.88035 13.4977 8.10001C13.8922 8.54311 14.0962 9.1238 14.0655 9.71625C14.0604 9.96902 14.0398 10.2212 14.004 10.4715C13.9628 10.7931 13.9012 11.1117 13.8195 11.4255L12.186 17.97C12.086 18.37 11.9967 18.7628 11.9182 19.1483C11.8503 19.4597 11.8118 19.7768 11.8035 20.0955C11.7779 20.3119 11.7996 20.5312 11.8671 20.7384C11.9346 20.9456 12.0462 21.1357 12.1942 21.2955C12.5675 21.5426 13.0134 21.6563 13.4595 21.618C13.7391 21.6111 14.0179 21.5861 14.2942 21.543C14.5782 21.5093 14.858 21.4475 15.1297 21.3585Z" fill="black"/>
<path d="M14.25 5.25C15.4926 5.25 16.5 4.24264 16.5 3C16.5 1.75736 15.4926 0.75 14.25 0.75C13.0074 0.75 12 1.75736 12 3C12 4.24264 13.0074 5.25 14.25 5.25Z" fill="black"/>
</svg>
