<svg width="20" height="20" viewBox="0 0 20 20" fill="none" xmlns="http://www.w3.org/2000/svg">
<path d="M3.33325 5.55567L10 8.88891L16.6667 5.55567L10 2.22244L3.33325 5.55567ZM10.5433 0.129163L19.4246 4.65792C19.9646 4.93347 20.159 5.55789 19.859 6.05455C19.7544 6.22516 19.6044 6.36327 19.4257 6.45342L10.5433 10.9822C10.3748 11.0672 10.1887 11.1114 10 11.1114C9.81127 11.1114 9.62517 11.0672 9.45666 10.9822L0.575439 6.45342C0.0354325 6.17787 -0.159014 5.55345 0.14099 5.0568C0.245599 4.88618 0.395648 4.74807 0.574328 4.65792L9.45666 0.129163C9.79444 -0.0430543 10.2056 -0.0430543 10.5433 0.129163ZM10.5433 15.4243C10.3752 15.5106 10.189 15.5557 10 15.5557C9.81102 15.5557 9.62475 15.5106 9.45666 15.4243L0.575439 10.8166C0.0354325 10.5366 -0.159014 9.9011 0.14099 9.39667C0.244912 9.22382 0.394979 9.08338 0.574328 8.99113C0.703875 8.92374 0.847751 8.88856 0.993778 8.88856C1.1398 8.88856 1.28368 8.92374 1.41323 8.99113L9.45777 13.1632C9.79444 13.3388 10.2056 13.3388 10.5433 13.1632L18.5868 8.99113C18.7162 8.92393 18.8599 8.88885 19.0057 8.88885C19.1515 8.88885 19.2952 8.92393 19.4246 8.99113C19.9646 9.27112 20.159 9.90666 19.859 10.4111C19.7551 10.5839 19.605 10.7244 19.4257 10.8166L10.5433 15.4243ZM10.5433 19.8686C10.3752 19.955 10.189 20 10 20C9.81102 20 9.62475 19.955 9.45666 19.8686L0.575439 15.2609C0.0354325 14.981 -0.159014 14.3454 0.14099 13.841C0.244912 13.6681 0.394979 13.5277 0.574328 13.4354C0.703875 13.3681 0.847751 13.3329 0.993778 13.3329C1.1398 13.3329 1.28368 13.3681 1.41323 13.4354L9.45777 17.6075C9.79444 17.7831 10.2056 17.7831 10.5433 17.6075L18.5868 13.4354C18.7162 13.3682 18.8599 13.3332 19.0057 13.3332C19.1515 13.3332 19.2952 13.3682 19.4246 13.4354C19.9646 13.7154 20.159 14.351 19.859 14.8554C19.7551 15.0282 19.605 15.1687 19.4257 15.2609L10.5433 19.8686Z" fill="currentColor"/>
</svg>
