<svg width="16" height="17" viewBox="0 0 16 17" fill="none" xmlns="http://www.w3.org/2000/svg">
<path d="M13.6058 7.95957C13.6058 7.95957 15.0061 7.24406 15.7084 7.95957C16.0954 8.35387 16.0963 8.99385 15.7084 9.38721C15.0061 10.0993 13.6058 9.38721 13.6058 9.38721V7.95957ZM0.289447 7.95957C0.989861 7.24406 2.39203 7.95957 2.39203 7.95957V9.38721C2.39203 9.38721 0.991888 10.0993 0.289447 9.38721C-0.0985235 8.99389 -0.0970446 8.3544 0.289447 7.95957ZM8.6998 0.82139C9.15863 1.28903 8.6998 2.96284 8.6998 2.96284H7.29807C7.29807 2.96284 6.91014 1.21797 7.29807 0.82139C7.68443 0.426424 8.31285 0.427024 8.6998 0.82139ZM3.03683 2.60594C3.89676 2.60594 4.52967 4.13351 4.52967 4.13351L3.53444 5.13999C3.53444 5.13999 2.0416 4.39048 2.0416 3.62669C2.0416 3.06491 2.48524 2.60594 3.03683 2.60594ZM11.4682 4.12637C11.4682 4.12637 12.2041 2.60594 12.954 2.60594C13.5076 2.60594 13.9563 3.06294 13.9563 3.62669C13.9563 4.47518 12.4634 5.13999 12.4634 5.13999L11.4682 4.12637ZM7.99893 4.39048C9.11422 4.39048 10.1838 4.84172 10.9724 5.64492C11.7611 6.44812 12.2041 7.53749 12.2041 8.67339C12.2041 10.2581 11.3561 11.6429 10.1015 12.3852V13.6701C10.1015 13.8594 10.0277 14.041 9.89624 14.1749C9.76481 14.3087 9.58654 14.3839 9.40066 14.3839H6.59721C6.41133 14.3839 6.23306 14.3087 6.10163 14.1749C5.97019 14.041 5.89635 13.8594 5.89635 13.6701V12.3852C4.6418 11.6429 3.79376 10.2581 3.79376 8.67339C3.79376 7.53749 4.2368 6.44812 5.02543 5.64492C5.81405 4.84172 6.88365 4.39048 7.99893 4.39048ZM9.40066 15.0978V15.8116C9.40066 16.0009 9.32682 16.1825 9.19538 16.3163C9.06394 16.4502 8.88568 16.5254 8.6998 16.5254H7.29807C7.11219 16.5254 6.93393 16.4502 6.80249 16.3163C6.67105 16.1825 6.59721 16.0009 6.59721 15.8116V15.0978H9.40066ZM7.29807 12.9563H8.6998V11.4359C9.91229 11.1218 10.8024 10.0011 10.8024 8.67339C10.8024 7.91613 10.507 7.18987 9.98127 6.65441C9.45552 6.11894 8.74246 5.81812 7.99893 5.81812C7.25541 5.81812 6.54235 6.11894 6.0166 6.65441C5.49085 7.18987 5.19549 7.91613 5.19549 8.67339C5.19549 10.0011 6.08558 11.1218 7.29807 11.4359V12.9563Z" fill="#DDC22E"/>
<path d="M7.29807 12.9563H8.6998V11.4359C9.91229 11.1218 10.8024 10.0011 10.8024 8.67339C10.8024 7.91613 10.507 7.18987 9.98127 6.65441C9.45552 6.11894 8.74246 5.81812 7.99893 5.81812C7.25541 5.81812 6.54235 6.11894 6.0166 6.65441C5.49085 7.18987 5.19549 7.91613 5.19549 8.67339C5.19549 10.0011 6.08558 11.1218 7.29807 11.4359V12.9563Z" fill="#DDC22E"/>
</svg>
