<svg width="20" height="21" viewBox="0 0 20 21" fill="none" xmlns="http://www.w3.org/2000/svg">
    <path
        d="M17.0105 9.41869C17.0105 9.41869 18.7609 8.52429 19.6387 9.41869C20.1225 9.91157 20.1236 10.7115 19.6387 11.2032C18.7609 12.0934 17.0105 11.2032 17.0105 11.2032V9.41869ZM0.364983 9.41869C1.2405 8.52429 2.99322 9.41869 2.99322 9.41869V11.2032C2.99322 11.2032 1.24303 12.0934 0.364983 11.2032C-0.119981 10.7116 -0.118132 9.91222 0.364983 9.41869ZM10.8779 0.49595C11.4515 1.0805 10.8779 3.17277 10.8779 3.17277H9.12576C9.12576 3.17277 8.64085 0.991673 9.12576 0.49595C9.60871 0.00224254 10.3942 0.00299232 10.8779 0.49595ZM3.79921 2.72663C4.87412 2.72663 5.66526 4.6361 5.66526 4.6361L4.42123 5.89421C4.42123 5.89421 2.55518 4.95732 2.55518 4.00259C2.55518 3.30036 3.10973 2.72663 3.79921 2.72663ZM14.3384 4.62718C14.3384 4.62718 15.2583 2.72663 16.1957 2.72663C16.8876 2.72663 17.4485 3.2979 17.4485 4.00259C17.4485 5.06319 15.5825 5.89421 15.5825 5.89421L14.3384 4.62718ZM10.0018 4.95732C11.3959 4.95732 12.7329 5.52136 13.7187 6.52537C14.7045 7.52937 15.2583 8.89109 15.2583 10.311C15.2583 12.2918 14.1983 14.0228 12.6301 14.9508V16.5569C12.6301 16.7935 12.5378 17.0205 12.3735 17.1878C12.2092 17.3552 11.9863 17.4492 11.754 17.4492H8.24969C8.01734 17.4492 7.7945 17.3552 7.63021 17.1878C7.46591 17.0205 7.37361 16.7935 7.37361 16.5569V14.9508C5.80543 14.0228 4.74537 12.2918 4.74537 10.311C4.74537 8.89109 5.29918 7.52937 6.28496 6.52537C7.27074 5.52136 8.60774 4.95732 10.0018 4.95732ZM11.754 18.3414V19.2337C11.754 19.4703 11.6617 19.6973 11.4974 19.8646C11.3331 20.032 11.1103 20.126 10.8779 20.126H9.12576C8.89341 20.126 8.67058 20.032 8.50628 19.8646C8.34199 19.6973 8.24969 19.4703 8.24969 19.2337V18.3414H11.754ZM9.12576 15.6646H10.8779V13.7641C12.3935 13.3715 13.5062 11.9706 13.5062 10.311C13.5062 9.36438 13.137 8.45657 12.4798 7.78723C11.8226 7.1179 10.9312 6.74187 10.0018 6.74187C9.07244 6.74187 8.18111 7.1179 7.52392 7.78723C6.86673 8.45657 6.49753 9.36438 6.49753 10.311C6.49753 11.9706 7.61015 13.3715 9.12576 13.7641V15.6646Z"
        fill="currentColor" />
</svg>