<svg width="16" height="16" viewBox="0 0 16 16" fill="none" xmlns="http://www.w3.org/2000/svg">
    <path
        d="M13.3334 7.33268H15.3334V8.66602H13.3334V7.33268ZM0.666748 7.33268H2.66675V8.66602H0.666748V7.33268ZM8.66675 0.666016V2.66602H7.33341V0.666016H8.66675ZM3.28008 2.33268L4.70008 3.75935L3.75341 4.69935L2.33341 3.28602L3.28008 2.33268ZM11.3001 3.75268L12.7134 2.33268L13.6667 3.28602L12.2467 4.69935L11.3001 3.75268ZM8.00008 3.99935C9.06095 3.99935 10.0784 4.42078 10.8285 5.17092C11.5787 5.92107 12.0001 6.93848 12.0001 7.99935C12.0001 9.47935 11.1934 10.7727 10.0001 11.466V12.666C10.0001 12.8428 9.92984 13.0124 9.80482 13.1374C9.67979 13.2624 9.51023 13.3327 9.33341 13.3327H6.66675C6.48994 13.3327 6.32037 13.2624 6.19534 13.1374C6.07032 13.0124 6.00008 12.8428 6.00008 12.666V11.466C4.80675 10.7727 4.00008 9.47935 4.00008 7.99935C4.00008 6.93848 4.42151 5.92107 5.17165 5.17092C5.9218 4.42078 6.93922 3.99935 8.00008 3.99935ZM9.33341 13.9993V14.666C9.33341 14.8428 9.26318 15.0124 9.13815 15.1374C9.01313 15.2624 8.84356 15.3327 8.66675 15.3327H7.33341C7.1566 15.3327 6.98703 15.2624 6.86201 15.1374C6.73699 15.0124 6.66675 14.8428 6.66675 14.666V13.9993H9.33341ZM7.33341 11.9993H8.66675V10.5793C9.82008 10.286 10.6667 9.23935 10.6667 7.99935C10.6667 7.2921 10.3858 6.61383 9.8857 6.11373C9.3856 5.61363 8.70732 5.33268 8.00008 5.33268C7.29284 5.33268 6.61456 5.61363 6.11446 6.11373C5.61437 6.61383 5.33341 7.2921 5.33341 7.99935C5.33341 9.23935 6.18008 10.286 7.33341 10.5793V11.9993Z"
        fill="var(--text-color)" />
</svg>
