<svg width="24" height="24" viewBox="0 0 24 24" fill="none" xmlns="http://www.w3.org/2000/svg">
<path d="M15.7779 3.00034C14.9928 3.00841 14.1875 3.16173 13.3996 3.47621L13.3638 3.49139L13.3281 3.50982C12.8286 3.76416 12.3734 4.08233 11.9687 4.45939C9.79086 2.57576 6.32358 2.43905 3.95147 4.57755L3.92761 4.59922L3.90593 4.62199C1.82502 6.79551 1.87376 10.1428 3.12111 12.7877L3.13195 12.8083L3.14279 12.83C4.61185 15.5503 7.35505 17.8618 9.85492 19.7621L9.86142 19.7675L9.86683 19.7719C10.0277 19.8898 10.3042 20.1335 10.6235 20.3735C10.9427 20.6134 11.3033 20.8764 11.831 20.9773L11.9492 21L12.0684 20.9902C12.6223 20.9425 12.8395 20.738 13.2034 20.509C13.5672 20.2799 13.97 19.9892 14.3839 19.671C15.1996 19.0439 16.0437 18.321 16.5996 17.8055C16.6067 17.7988 16.6185 17.7893 16.6256 17.7827C16.6267 17.7817 16.6277 17.7804 16.6288 17.7795C17.7997 16.7804 18.9595 15.6286 19.9426 14.2739C19.9429 14.2735 19.9434 14.2732 19.9437 14.2728C19.9455 14.2703 19.9473 14.2677 19.9491 14.2652C21.5084 12.1658 22.2648 9.33669 21.3627 6.54935L21.3464 6.49948L21.3247 6.45286C20.3118 4.26313 18.1333 2.97614 15.7779 3.00034ZM15.8061 4.71522C17.5031 4.67618 18.9907 5.58488 19.7291 7.13901C20.4114 9.31482 19.8216 11.5317 18.5508 13.2386L18.5475 13.243L18.5443 13.2473C17.659 14.469 16.5868 15.5384 15.4755 16.4841L15.4614 16.4971L15.4473 16.5101C14.9468 16.976 14.0998 17.7016 13.3259 18.2966C12.939 18.594 12.568 18.8599 12.2798 19.0413C12.1715 19.1095 12.0685 19.156 11.9839 19.1919C11.895 19.1434 11.7822 19.075 11.6652 18.9871C11.4296 18.81 11.1787 18.5839 10.9053 18.3822C10.9011 18.3789 10.8966 18.3757 10.8923 18.3724C8.46629 16.5272 5.91088 14.2866 4.68207 12.0278C3.68446 9.8966 3.728 7.34571 5.13734 5.84689C7.05364 4.14306 9.9006 4.51347 11.3205 6.26206L12.0121 7.113L12.6809 6.24472C13.0657 5.74547 13.525 5.36381 14.0825 5.07401C14.6669 4.84572 15.2475 4.72805 15.8061 4.71522Z" fill="currentColor"/>
</svg>
