<svg width="25" height="24" viewBox="0 0 25 24" fill="none" xmlns="http://www.w3.org/2000/svg">
<path d="M20.25 10H18.25V6C18.25 4.4087 17.6179 2.88258 16.4927 1.75736C15.3674 0.632141 13.8413 0 12.25 0C10.6587 0 9.13259 0.632141 8.00737 1.75736C6.88215 2.88258 6.25001 4.4087 6.25001 6V10H4.25001C3.71958 10 3.21087 10.2107 2.8358 10.5858C2.46073 10.9609 2.25001 11.4696 2.25001 12V22C2.25001 22.5304 2.46073 23.0391 2.8358 23.4142C3.21087 23.7893 3.71958 24 4.25001 24H20.25C20.7804 24 21.2892 23.7893 21.6642 23.4142C22.0393 23.0391 22.25 22.5304 22.25 22V12C22.25 11.4696 22.0393 10.9609 21.6642 10.5858C21.2892 10.2107 20.7804 10 20.25 10ZM14.25 10H10.25V6C10.25 5.46957 10.4607 4.96086 10.8358 4.58579C11.2109 4.21071 11.7196 4 12.25 4C12.7804 4 13.2892 4.21071 13.6642 4.58579C14.0393 4.96086 14.25 5.46957 14.25 6V10Z" fill="black"/>
</svg>
