<svg xmlns="http://www.w3.org/2000/svg" xmlns:xlink="http://www.w3.org/1999/xlink" version="1.1" viewBox="0 0 1000 1000"
    xml:space="preserve">
    <rect x="0" y="0" width="100%" height="100%" fill="rgba(255,255,255,0)" />
    <g transform="matrix(74.2241 0 0 73.982 495.5451 496.3309)">
        <path
            style="stroke: none; stroke-width: 0; stroke-dasharray: none; stroke-linecap: butt; stroke-dashoffset: 0; stroke-linejoin: miter; stroke-miterlimit: 4; is-custom-font: none; font-file-url: none; fill: rgb(0,0,0); fill-rule: evenodd; opacity: 1;"
            vector-effect="non-scaling-stroke" transform=" translate(-7.5, -7.475)"
            d="M 7.5 0.875 C 5.49797 0.875 3.875 2.49797 3.875 4.5 C 3.875 6.15288 4.98124 7.54738 6.49373 7.98351 C 5.2997 8.12901 4.27557 8.55134 3.50407 9.31167 C 2.52216 10.2794 2.02502 11.72 2.02502 13.5999 C 2.02502 13.8623 2.23769 14.0749 2.50002 14.0749 C 2.76236 14.0749 2.97502 13.8623 2.97502 13.5999 C 2.97502 11.8799 3.42786 10.7206 4.17091 9.9883 C 4.91536 9.25463 6.02674 8.87499 7.49995 8.87499 C 8.97317 8.87499 10.0846 9.25463 10.8291 9.98831 C 11.5721 10.7206 12.025 11.8799 12.025 13.5999 C 12.025 13.8623 12.2376 14.0749 12.5 14.0749 C 12.7623 14.075 12.975 13.8623 12.975 13.6 C 12.975 11.72 12.4778 10.2794 11.4959 9.31166 C 10.7244 8.55135 9.70025 8.12903 8.50625 7.98352 C 10.0187 7.5474 11.125 6.15289 11.125 4.5 C 11.125 2.49797 9.50203 0.875 7.5 0.875 Z M 4.825 4.5 C 4.825 3.02264 6.02264 1.825 7.5 1.825 C 8.97736 1.825 10.175 3.02264 10.175 4.5 C 10.175 5.97736 8.97736 7.175 7.5 7.175 C 6.02264 7.175 4.825 5.97736 4.825 4.5 Z"
            stroke-linecap="round" />
    </g>
    <g transform="matrix(22.6232 0 0 23.0388 692.41 722.2007)" id="291576">
        <g style="" vector-effect="non-scaling-stroke">
            <g transform="matrix(1 0 0 1 0 0.0046)" id="Icons">
                <path
                    style="stroke: none; stroke-width: 1; stroke-dasharray: none; stroke-linecap: butt; stroke-dashoffset: 0; stroke-linejoin: miter; stroke-miterlimit: 4; is-custom-font: none; font-file-url: none; fill: rgb(86,181,78); fill-rule: nonzero; opacity: 1;"
                    transform=" translate(-12, -12.0046)"
                    d="M 23 12 A 11 11 0 0 1 1 12 a 10.827 10.827 0 0 1 0.29 -2.5 a 11 11 0 0 1 21.42 0 A 10.827 10.827 0 0 1 23 12 Z"
                    stroke-linecap="round" />
            </g>
            <g transform="matrix(1 0 0 1 0 -2.5)" id="Icons">
                <ellipse
                    style="stroke: none; stroke-width: 1; stroke-dasharray: none; stroke-linecap: butt; stroke-dashoffset: 0; stroke-linejoin: miter; stroke-miterlimit: 4; is-custom-font: none; font-file-url: none; fill: rgb(96,204,90); fill-rule: nonzero; opacity: 1;"
                    cx="0" cy="0" rx="10.71" ry="8.5" />
            </g>
            <g transform="matrix(1 0 0 1 0 0)" id="Layer_4">
                <path
                    style="stroke: none; stroke-width: 1; stroke-dasharray: none; stroke-linecap: butt; stroke-dashoffset: 0; stroke-linejoin: miter; stroke-miterlimit: 4; is-custom-font: none; font-file-url: none; fill: rgb(108,46,124); fill-rule: nonzero; opacity: 1;"
                    transform=" translate(-12, -12)"
                    d="M 12 0 A 12 12 0 1 0 24 12 A 12.013 12.013 0 0 0 12 0 Z m 0 22 A 10 10 0 1 1 22 12 A 10.011 10.011 0 0 1 12 22 Z"
                    stroke-linecap="round" />
            </g>
            <g transform="matrix(1 0 0 1 0 0.506)" id="Layer_4">
                <path
                    style="stroke: none; stroke-width: 1; stroke-dasharray: none; stroke-linecap: butt; stroke-dashoffset: 0; stroke-linejoin: miter; stroke-miterlimit: 4; is-custom-font: none; font-file-url: none; fill: rgb(108,46,124); fill-rule: nonzero; opacity: 1;"
                    transform=" translate(-12, -12.506)"
                    d="M 16.293 8.293 L 10 14.586 L 7.707 12.293 a 1 1 0 0 0 -1.414 1.414 l 3 3 a 1 1 0 0 0 1.414 0 l 7 -7 a 1 1 0 0 0 -1.414 -1.414 Z"
                    stroke-linecap="round" />
            </g>
        </g>
    </g>
</svg>
