<svg width="330" height="55" viewBox="0 0 330 55" fill="none" xmlns="http://www.w3.org/2000/svg">
    <path
        d="M45.8639 41.4615L47.0431 41.7637C46.8363 44.3425 46.3604 46.5989 45.6157 48.533C44.8709 50.467 43.8365 51.9176 42.5126 52.8846C41.6023 53.5695 40.4439 54.0934 39.0371 54.456C37.6303 54.8187 36.2029 55 34.7548 55C32.4379 55 30.1416 54.6575 27.8659 53.9725C25.6317 53.3278 23.3768 52.5019 21.1011 51.4945C18.8669 50.5275 16.55 49.5604 14.1502 48.5934C13.9019 48.5129 13.633 48.4121 13.3434 48.2912C13.0537 48.2107 12.8262 48.1703 12.6607 48.1703C11.8746 48.6135 11.0057 48.9761 10.0541 49.2582C9.14382 49.5403 8.27495 49.6813 7.44746 49.6813C6.61997 49.6813 5.91659 49.5403 5.33735 49.2582C4.79947 48.9761 4.53054 48.5129 4.53054 47.8681C4.53054 46.619 5.66834 45.9945 7.94396 45.9945C9.39207 45.9945 10.9643 46.3571 12.6607 47.0824C14.2329 46.6794 15.5776 46.2162 16.6947 45.6923C17.8533 45.2088 19.0324 44.7454 20.2323 44.3022C21.4321 43.859 22.8803 43.5769 24.5766 43.456L24.6387 44.4231C23.3147 44.544 22.1562 44.7656 21.1632 45.0879C20.2116 45.4505 19.2393 45.8333 18.2463 46.2363C17.2947 46.6392 16.1568 47.022 14.8329 47.3846C18.391 47.4651 21.4529 47.5256 24.0181 47.5659C26.6247 47.6465 28.9416 47.6264 30.969 47.5055C33.0377 47.3846 35.0031 47.1429 36.8649 46.7802C39.1406 46.2967 40.9404 45.6722 42.2643 44.9066C43.6297 44.141 44.8295 42.9926 45.8639 41.4615ZM23.4595 0C28.1348 0 32.2309 0.8663 35.7478 2.5989C39.2647 4.33151 41.9954 6.82967 43.94 10.0934C45.8846 13.3168 46.8569 17.2454 46.8569 21.8791C46.8569 26.392 45.8639 30.3407 43.8779 33.7253C41.892 37.1099 39.1198 39.7491 35.5616 41.6429C32.0447 43.5366 27.99 44.4835 23.3974 44.4835C18.7221 44.4835 14.626 43.6173 11.1091 41.8846C7.59226 40.152 4.86153 37.6538 2.91692 34.3901C0.972312 31.1264 0 27.1978 0 22.6044C0 18.0915 0.992994 14.1429 2.97898 10.7582C5.00635 7.37363 7.77845 4.73443 11.2953 2.84066C14.8122 0.946887 18.8669 0 23.4595 0ZM23.2112 1.08791C21.1426 1.08791 19.3428 1.99451 17.8118 3.8077C16.2809 5.62088 15.1017 8.11905 14.2743 11.3022C13.4468 14.4854 13.0331 18.1722 13.0331 22.3626C13.0331 26.6338 13.5089 30.3608 14.4605 33.544C15.4121 36.6868 16.6947 39.1245 18.3083 40.8571C19.922 42.5494 21.7011 43.3956 23.6457 43.3956C25.7144 43.3956 27.5142 42.489 29.0451 40.6758C30.576 38.8626 31.7552 36.3645 32.5826 33.1813C33.4101 29.9579 33.8239 26.2711 33.8239 22.1209C33.8239 17.8096 33.348 14.0824 32.3964 10.9396C31.4449 7.79671 30.1622 5.37912 28.5486 3.68682C26.935 1.95421 25.1558 1.08791 23.2112 1.08791ZM83.1104 11.6044V37.0494C83.1104 38.8626 83.3586 40.2124 83.8551 41.0989C84.3931 41.9451 85.3033 42.3681 86.5859 42.3681V43.6374C85.3033 43.5165 84.0207 43.456 82.738 43.456C80.6693 43.456 78.7454 43.5165 76.9662 43.6374C75.1872 43.7582 73.5115 43.9799 71.9392 44.3022V39.9506C70.9462 41.5623 69.6016 42.7308 67.9052 43.456C66.2503 44.141 64.3055 44.4835 62.0713 44.4835C60.1682 44.4835 58.6579 44.2418 57.5408 43.7582C56.4651 43.3151 55.6376 42.7509 55.0583 42.0659C54.4377 41.3407 53.9826 40.3736 53.6929 39.1648C53.4034 37.956 53.2585 36.3242 53.2585 34.2692V18.8571C53.2585 17.044 53.0102 15.7143 52.5137 14.8681C52.0172 13.9817 51.1071 13.5385 49.783 13.5385V12.2692C51.1071 12.3901 52.3896 12.4506 53.6309 12.4506C55.6997 12.4506 57.6236 12.3901 59.4026 12.2692C61.2232 12.1081 62.8989 11.8865 64.4297 11.6044V37.533C64.4297 38.3791 64.5332 39.0843 64.74 39.6484C64.947 40.2124 65.2779 40.6355 65.733 40.9176C66.1882 41.1997 66.7674 41.3407 67.4707 41.3407C68.2569 41.3407 68.981 41.1593 69.6429 40.7967C70.3049 40.4341 70.8429 39.9305 71.2565 39.2857C71.7117 38.6008 71.9392 37.8352 71.9392 36.989V18.8571C71.9392 17.044 71.6909 15.7143 71.1945 14.8681C70.698 13.9817 69.7878 13.5385 68.4637 13.5385V12.2692C69.7878 12.3901 71.0703 12.4506 72.3116 12.4506C74.3804 12.4506 76.3043 12.3901 78.0833 12.2692C79.9039 12.1081 81.5796 11.8865 83.1104 11.6044ZM111.663 11.4231C113.153 11.4231 114.311 11.7454 115.139 12.3901C115.966 12.9945 116.546 13.7802 116.877 14.7473C117.208 15.6739 117.373 16.6008 117.373 17.5275C117.373 19.3407 116.835 20.7912 115.76 21.8791C114.725 22.9267 113.36 23.4506 111.663 23.4506C109.843 23.4506 108.457 23.0476 107.505 22.2418C106.595 21.4359 106.14 20.3882 106.14 19.0989C106.14 17.7289 106.429 16.6008 107.009 15.7143C107.629 14.8278 108.395 14.0824 109.305 13.478C108.56 13.478 107.898 13.619 107.319 13.9011C106.823 14.1026 106.347 14.3846 105.892 14.7473C105.436 15.1099 105.043 15.533 104.713 16.0165C104.381 16.4597 104.113 16.9634 103.906 17.5275C103.74 18.0915 103.657 18.6758 103.657 19.2802V37.4121C103.657 39.3462 104.071 40.6557 104.899 41.3407C105.726 42.0256 107.091 42.3681 108.995 42.3681V43.6374C108.043 43.597 106.616 43.5568 104.713 43.5165C102.851 43.4359 100.927 43.3956 98.9407 43.3956C97.0789 43.3956 95.1962 43.4359 93.2931 43.5165C91.3898 43.5568 89.9623 43.597 89.0108 43.6374V42.3681C90.2933 42.3681 91.183 42.0659 91.6795 41.4615C92.2172 40.8571 92.4863 39.7088 92.4863 38.0165V18.8571C92.4863 17.044 92.238 15.7143 91.7415 14.8681C91.245 13.9817 90.3347 13.5385 89.0108 13.5385V12.2692C90.3347 12.3901 91.6174 12.4506 92.8586 12.4506C94.9273 12.4506 96.8512 12.3901 98.6304 12.2692C100.451 12.1081 102.127 11.8865 103.657 11.6044V15.956C104.195 14.9084 104.857 14.0623 105.643 13.4176C106.429 12.7326 107.319 12.2289 108.312 11.9066C109.346 11.5842 110.463 11.4231 111.663 11.4231ZM127.269 44.0604C125.324 44.0604 123.731 43.6978 122.49 42.9725C121.249 42.2473 120.338 41.3003 119.759 40.1319C119.221 38.9634 118.952 37.7344 118.952 36.4451C118.952 34.7527 119.345 33.3827 120.132 32.3352C120.918 31.2473 121.931 30.381 123.173 29.7363C124.455 29.0513 125.8 28.4871 127.207 28.044C128.613 27.6008 129.937 27.1777 131.179 26.7747C132.461 26.3316 133.496 25.8278 134.282 25.2637C135.068 24.6593 135.461 23.8937 135.461 22.967V17.5879C135.461 16.9432 135.337 16.2381 135.089 15.4725C134.882 14.707 134.468 14.0421 133.847 13.478C133.227 12.9139 132.296 12.6319 131.054 12.6319C130.392 12.6319 129.751 12.7326 129.131 12.9341C128.551 13.0952 128.034 13.337 127.579 13.6593C129.027 14.1832 130.082 14.9286 130.744 15.8956C131.406 16.8223 131.737 17.8498 131.737 18.978C131.737 20.5898 131.158 21.859 129.999 22.7857C128.841 23.7124 127.476 24.1758 125.903 24.1758C124.248 24.1758 122.966 23.6722 122.055 22.6648C121.145 21.6575 120.69 20.4085 120.69 18.9176C120.69 17.6685 121 16.6209 121.621 15.7747C122.283 14.8883 123.255 14.0824 124.538 13.3571C125.779 12.6722 127.269 12.1887 129.006 11.9066C130.744 11.5842 132.565 11.4231 134.468 11.4231C136.495 11.4231 138.378 11.6245 140.116 12.0275C141.853 12.3901 143.343 13.196 144.584 14.4451C145.453 15.3316 146.011 16.4396 146.26 17.7692C146.508 19.0989 146.632 20.8113 146.632 22.9066V39.1044C146.632 40.1118 146.694 40.7967 146.818 41.1593C146.984 41.522 147.253 41.7033 147.625 41.7033C147.956 41.7033 148.266 41.6025 148.556 41.4011C148.887 41.1997 149.197 40.9981 149.487 40.7967L150.108 41.8242C149.197 42.5898 148.06 43.1538 146.694 43.5165C145.37 43.8791 143.963 44.0604 142.474 44.0604C140.695 44.0604 139.309 43.859 138.316 43.456C137.364 43.0129 136.681 42.4487 136.268 41.7637C135.895 41.0385 135.688 40.2728 135.647 39.467C134.778 40.7967 133.682 41.9047 132.358 42.7912C131.075 43.6374 129.379 44.0604 127.269 44.0604ZM133.165 39.2253C133.62 39.2253 134.013 39.1648 134.344 39.044C134.716 38.8827 135.089 38.6008 135.461 38.1978V25.4451C135.171 25.9689 134.778 26.4926 134.282 27.0165C133.826 27.5 133.351 28.0036 132.854 28.5275C132.358 29.0513 131.882 29.6154 131.427 30.2198C131.013 30.8242 130.661 31.5294 130.372 32.3352C130.124 33.1008 129.999 34.0074 129.999 35.0549C129.999 36.586 130.289 37.6739 130.868 38.3187C131.489 38.9231 132.254 39.2253 133.165 39.2253ZM176.376 11.4231C178.278 11.4231 179.768 11.6648 180.844 12.1484C181.962 12.5916 182.809 13.1557 183.389 13.8407C184.01 14.5659 184.464 15.533 184.754 16.7418C185.043 17.9506 185.189 19.5824 185.189 21.6374V38.0165C185.189 39.7088 185.437 40.8571 185.934 41.4615C186.47 42.0659 187.381 42.3681 188.664 42.3681V43.6374C187.836 43.597 186.574 43.5568 184.878 43.5165C183.223 43.4359 181.589 43.3956 179.976 43.3956C178.238 43.3956 176.54 43.4359 174.886 43.5165C173.231 43.5568 171.99 43.597 171.163 43.6374V42.3681C172.238 42.3681 172.983 42.0659 173.397 41.4615C173.81 40.8571 174.018 39.7088 174.018 38.0165V18.3736C174.018 17.5275 173.914 16.8223 173.707 16.2582C173.499 15.6942 173.169 15.2711 172.714 14.989C172.3 14.707 171.721 14.5659 170.977 14.5659C170.232 14.5659 169.507 14.7473 168.804 15.1099C168.142 15.4725 167.583 15.9964 167.129 16.6813C166.714 17.3261 166.508 18.0714 166.508 18.9176V38.0165C166.508 39.7088 166.714 40.8571 167.129 41.4615C167.583 42.0659 168.328 42.3681 169.363 42.3681V43.6374C168.576 43.597 167.417 43.5568 165.887 43.5165C164.356 43.4359 162.784 43.3956 161.171 43.3956C159.433 43.3956 157.674 43.4359 155.895 43.5165C154.116 43.5568 152.771 43.597 151.861 43.6374V42.3681C153.143 42.3681 154.033 42.0659 154.53 41.4615C155.067 40.8571 155.337 39.7088 155.337 38.0165V18.8571C155.337 17.044 155.089 15.7143 154.592 14.8681C154.095 13.9817 153.185 13.5385 151.861 13.5385V12.2692C153.185 12.3901 154.467 12.4506 155.709 12.4506C157.777 12.4506 159.701 12.3901 161.481 12.2692C163.301 12.1081 164.977 11.8865 166.508 11.6044V15.956C167.501 14.3443 168.825 13.196 170.48 12.511C172.176 11.7857 174.142 11.4231 176.376 11.4231ZM198.098 34.0879C200.042 34.0879 201.551 34.5311 202.628 35.4176C203.704 36.2637 204.242 37.5531 204.242 39.2857C204.242 41.0184 203.704 42.3278 202.628 43.2143C201.551 44.0604 200.042 44.4835 198.098 44.4835C196.112 44.4835 194.58 44.0604 193.505 43.2143C192.47 42.3278 191.954 41.0184 191.954 39.2857C191.954 37.5531 192.47 36.2637 193.505 35.4176C194.58 34.5311 196.112 34.0879 198.098 34.0879ZM224.674 11.4231C226.494 11.4231 228.108 11.6044 229.515 11.967C230.921 12.3297 232.038 12.7528 232.867 13.2363C233.984 13.881 234.873 14.7473 235.535 15.8352C236.238 16.8827 236.59 18.1118 236.59 19.522C236.59 21.1739 236.032 22.5641 234.915 23.6923C233.797 24.8206 232.37 25.3846 230.632 25.3846C228.811 25.3846 227.405 24.881 226.412 23.8736C225.419 22.8663 224.923 21.5568 224.923 19.9451C224.923 18.414 225.419 17.1245 226.412 16.0769C227.445 14.989 228.646 14.2637 230.012 13.9011C229.722 13.6996 229.369 13.5385 228.957 13.4176C228.584 13.2564 228.108 13.1758 227.529 13.1758C226.04 13.1758 224.819 13.619 223.867 14.5055C222.957 15.3517 222.232 16.4799 221.695 17.8901C221.199 19.3003 220.847 20.8113 220.64 22.4231C220.432 24.0349 220.33 25.6063 220.33 27.1374C220.33 29.9579 220.722 32.1538 221.509 33.7253C222.294 35.2967 223.287 36.3846 224.488 36.989C225.687 37.5934 226.887 37.8956 228.088 37.8956C228.666 37.8956 229.349 37.8151 230.136 37.6538C230.963 37.4926 231.852 37.13 232.804 36.5659C233.756 35.9615 234.686 35.0549 235.597 33.8462L236.652 34.2088C236.156 35.8206 235.349 37.4322 234.232 39.044C233.155 40.6154 231.749 41.925 230.012 42.9725C228.274 43.9799 226.164 44.4835 223.681 44.4835C220.909 44.4835 218.384 43.9597 216.11 42.9121C213.875 41.8645 212.076 40.1319 210.71 37.7143C209.385 35.2967 208.724 32.0531 208.724 27.9835C208.724 24.1154 209.427 20.9725 210.834 18.5549C212.24 16.097 214.144 14.304 216.544 13.1758C218.985 12.0073 221.695 11.4231 224.674 11.4231ZM255.949 11.4231C259.176 11.4231 261.969 11.967 264.327 13.0549C266.726 14.1026 268.588 15.8352 269.913 18.2527C271.236 20.6703 271.899 23.914 271.899 27.9835C271.899 32.0531 271.236 35.2967 269.913 37.7143C268.588 40.1319 266.726 41.8645 264.327 42.9121C261.969 43.9597 259.176 44.4835 255.949 44.4835C252.762 44.4835 249.969 43.9597 247.571 42.9121C245.17 41.8645 243.308 40.1319 241.985 37.7143C240.66 35.2967 239.999 32.0531 239.999 27.9835C239.999 23.914 240.66 20.6703 241.985 18.2527C243.308 15.8352 245.17 14.1026 247.571 13.0549C249.969 11.967 252.762 11.4231 255.949 11.4231ZM255.949 12.6319C254.708 12.6319 253.673 13.8407 252.846 16.2582C252.017 18.6758 251.605 22.5843 251.605 27.9835C251.605 33.3827 252.017 37.2912 252.846 39.7088C253.673 42.086 254.708 43.2747 255.949 43.2747C257.19 43.2747 258.224 42.086 259.052 39.7088C259.879 37.2912 260.293 33.3827 260.293 27.9835C260.293 22.5843 259.879 18.6758 259.052 16.2582C258.224 13.8407 257.19 12.6319 255.949 12.6319ZM299.031 11.4231C300.933 11.4231 302.423 11.6648 303.499 12.1484C304.617 12.5916 305.464 13.1557 306.044 13.8407C306.665 14.5659 307.119 15.533 307.409 16.7418C307.698 17.9506 307.844 19.5824 307.844 21.6374V38.0165C307.844 39.7088 308.05 40.8571 308.464 41.4615C308.877 42.0659 309.622 42.3681 310.699 42.3681V43.6374C309.912 43.597 308.733 43.5568 307.161 43.5165C305.63 43.4359 304.12 43.3956 302.631 43.3956C301.017 43.3956 299.444 43.4359 297.914 43.5165C296.382 43.5568 295.223 43.597 294.438 43.6374V42.3681C295.265 42.3681 295.844 42.0659 296.176 41.4615C296.507 40.8571 296.673 39.7088 296.673 38.0165V18.3736C296.673 17.5275 296.589 16.8223 296.424 16.2582C296.258 15.6942 295.99 15.2711 295.618 14.989C295.286 14.707 294.831 14.5659 294.252 14.5659C293.507 14.5659 292.783 14.7473 292.08 15.1099C291.418 15.4725 290.859 15.9964 290.404 16.6813C289.99 17.3261 289.784 18.0714 289.784 18.9176V38.0165C289.784 39.7088 289.948 40.8571 290.28 41.4615C290.611 42.0659 291.189 42.3681 292.018 42.3681V43.6374C291.314 43.597 290.238 43.5568 288.791 43.5165C287.383 43.4359 285.936 43.3956 284.446 43.3956C282.709 43.3956 280.949 43.4359 279.171 43.5165C277.391 43.5568 276.046 43.597 275.137 43.6374V42.3681C276.419 42.3681 277.309 42.0659 277.806 41.4615C278.343 40.8571 278.613 39.7088 278.613 38.0165V18.8571C278.613 17.044 278.364 15.7143 277.868 14.8681C277.371 13.9817 276.461 13.5385 275.137 13.5385V12.2692C276.461 12.3901 277.744 12.4506 278.985 12.4506C281.053 12.4506 282.977 12.3901 284.757 12.2692C286.577 12.1081 288.252 11.8865 289.784 11.6044V15.956C290.735 14.3443 291.996 13.196 293.569 12.511C295.141 11.7857 296.961 11.4231 299.031 11.4231ZM317.712 11.4231C319.614 11.4231 321.103 11.6648 322.18 12.1484C323.297 12.5916 324.144 13.1557 324.725 13.8407C325.345 14.5659 325.8 15.533 326.09 16.7418C326.379 17.9506 326.525 19.5824 326.525 21.6374V38.0165C326.525 39.7088 326.773 40.8571 327.269 41.4615C327.806 42.0659 328.717 42.3681 330 42.3681V43.6374C329.171 43.597 327.91 43.5568 326.214 43.5165C324.559 43.4359 322.925 43.3956 321.311 43.3956C319.698 43.3956 318.124 43.4359 316.595 43.5165C315.063 43.5568 313.904 43.597 313.119 43.6374V42.3681C313.946 42.3681 314.525 42.0659 314.857 41.4615C315.187 40.8571 315.353 39.7088 315.353 38.0165V18.3736C315.353 17.5275 315.249 16.8223 315.043 16.2582C314.835 15.6942 314.505 15.2711 314.05 14.989C313.636 14.707 313.057 14.5659 312.312 14.5659C311.568 14.5659 310.843 14.7876 310.14 15.2308C309.478 15.6739 308.919 16.2582 308.464 16.9835C308.05 17.6684 307.802 18.4341 307.72 19.2802L307.285 16.8626C308.402 14.7271 309.85 13.2967 311.63 12.5714C313.45 11.8059 315.477 11.4231 317.712 11.4231Z"
        fill="currentColor" />
</svg>
