<svg width="24" height="24" viewBox="0 0 24 24" fill="none" xmlns="http://www.w3.org/2000/svg">
<path d="M9.37778 12C9.37778 13.62 10.6364 14.9333 12.1889 14.9333C13.7414 14.9333 15 13.62 15 12C15 10.38 13.7414 9.06668 12.1889 9.06668C10.6364 9.06668 9.37778 10.38 9.37778 12Z" fill="black"/>
<path d="M9.37778 2.93333C9.37778 4.55337 10.6364 5.86667 12.1889 5.86667C13.7414 5.86667 15 4.55337 15 2.93333C15 1.3133 13.7414 -5.50142e-08 12.1889 -1.22878e-07C10.6364 -1.90741e-07 9.37778 1.3133 9.37778 2.93333Z" fill="black"/>
<path d="M9.37778 21.0667C9.37778 22.6867 10.6364 24 12.1889 24C13.7414 24 15 22.6867 15 21.0667C15 19.4466 13.7414 18.1333 12.1889 18.1333C10.6364 18.1333 9.37778 19.4466 9.37778 21.0667Z" fill="black"/>
</svg>
