<svg width="16" height="16" viewBox="0 0 16 16" fill="none" xmlns="http://www.w3.org/2000/svg">
<path d="M8 8.75C8.41422 8.75 8.75 8.41422 8.75 8C8.75 7.58577 8.41422 7.25 8 7.25C7.58577 7.25 7.25 7.58577 7.25 8C7.25 8.41422 7.58577 8.75 8 8.75Z" fill="currentColor" stroke="currentColor" stroke-width="2" stroke-linecap="round" stroke-linejoin="round"/>
<path d="M13.25 8.75C13.6642 8.75 14 8.41422 14 8C14 7.58577 13.6642 7.25 13.25 7.25C12.8358 7.25 12.5 7.58577 12.5 8C12.5 8.41422 12.8358 8.75 13.25 8.75Z" fill="currentColor" stroke="currentColor" stroke-width="2" stroke-linecap="round" stroke-linejoin="round"/>
<path d="M2.75 8.75C3.16421 8.75 3.5 8.41422 3.5 8C3.5 7.58577 3.16421 7.25 2.75 7.25C2.33579 7.25 2 7.58577 2 8C2 8.41422 2.33579 8.75 2.75 8.75Z" fill="currentColor" stroke="currentColor" stroke-width="2" stroke-linecap="round" stroke-linejoin="round"/>
</svg>
