<svg width="24" height="24" viewBox="0 0 24 24" fill="currentColor" xmlns="http://www.w3.org/2000/svg">
<path d="M2.90625 9C1.30781 9 0 10.3078 0 11.9062C0 13.5047 1.30781 14.8125 2.90625 14.8125C4.50469 14.8125 5.8125 13.5047 5.8125 11.9062C5.8125 10.3078 4.50469 9 2.90625 9ZM20.3438 9C18.7453 9 17.4375 10.3078 17.4375 11.9062C17.4375 13.5047 18.7453 14.8125 20.3438 14.8125C21.9422 14.8125 23.25 13.5047 23.25 11.9062C23.25 10.3078 21.9422 9 20.3438 9ZM11.625 9C10.0266 9 8.71875 10.3078 8.71875 11.9062C8.71875 13.5047 10.0266 14.8125 11.625 14.8125C13.2234 14.8125 14.5312 13.5047 14.5312 11.9062C14.5312 10.3078 13.2234 9 11.625 9Z" fill="currentColor"/>
</svg>
