<svg width="24" height="24" viewBox="0 0 24 24" fill="none" xmlns="http://www.w3.org/2000/svg">
    <path
        d="M12.3036 14.9464C14.2607 14.9464 15.8622 13.3416 15.8622 11.3804V3.56607C15.8622 1.60487 14.2607 0 12.3036 0C10.3464 0 8.74492 1.60487 8.74492 3.56607V11.3804C8.74492 13.3416 10.3464 14.9464 12.3036 14.9464ZM18.5904 11.0307C18.5904 14.5967 15.5657 17.0931 12.3036 17.0931C9.04146 17.0931 6.01678 14.5967 6.01678 11.0307H4C4 15.0721 7.20305 18.4599 11.1174 18.9951V23.25H13.4898V18.9951C17.4041 18.4008 20.6071 15.0721 20.6071 11.0307H18.5904Z" />
</svg>