<svg width="24" height="24" viewBox="0 0 24 24" fill="none" xmlns="http://www.w3.org/2000/svg">
<path d="M12.3 4.65V0L6.4875 5.8125L12.3 11.625V6.975C16.1479 6.975 19.275 10.1021 19.275 13.95C19.275 17.7979 16.1479 20.925 12.3 20.925C8.45213 20.925 5.325 17.7979 5.325 13.95H3C3 19.0883 7.16175 23.25 12.3 23.25C17.4383 23.25 21.6 19.0883 21.6 13.95C21.6 8.81175 17.4383 4.65 12.3 4.65ZM11.0213 17.4375H10.0331V13.6477L8.859 14.0081V13.206L10.9166 12.4736H11.0213V17.4375ZM15.9968 15.3915C15.9968 15.7635 15.9619 16.089 15.8805 16.3448C15.7991 16.6005 15.6829 16.833 15.5434 17.0074C15.4039 17.1818 15.2179 17.3096 15.0203 17.391C14.8226 17.4724 14.5901 17.5072 14.3344 17.5072C14.0786 17.5072 13.8577 17.4724 13.6485 17.391C13.4392 17.3096 13.2649 17.1818 13.1138 17.0074C12.9626 16.833 12.8464 16.6121 12.765 16.3448C12.6836 16.0774 12.6371 15.7635 12.6371 15.3915V14.5312C12.6371 14.1593 12.672 13.8338 12.7534 13.578C12.8348 13.3223 12.951 13.0898 13.0905 12.9154C13.23 12.741 13.416 12.6131 13.6136 12.5317C13.8113 12.4504 14.0438 12.4155 14.2995 12.4155C14.5553 12.4155 14.7761 12.4504 14.9854 12.5317C15.1946 12.6131 15.369 12.741 15.5201 12.9154C15.6713 13.0898 15.7875 13.3106 15.8689 13.578C15.9503 13.8454 15.9968 14.1593 15.9968 14.5312V15.3915ZM15.0086 14.3918C15.0086 14.1709 14.997 13.9849 14.9621 13.8337C14.9272 13.6826 14.8808 13.5664 14.8226 13.4734C14.7645 13.3804 14.6948 13.3106 14.6018 13.2758C14.5088 13.2409 14.4158 13.2176 14.3111 13.2176C14.2065 13.2176 14.1019 13.2409 14.0205 13.2758C13.9391 13.3106 13.8577 13.3804 13.7996 13.4734C13.7415 13.5664 13.695 13.6826 13.6601 13.8337C13.6252 13.9849 13.6136 14.1709 13.6136 14.3918V15.5194C13.6136 15.7403 13.6252 15.9263 13.6601 16.0774C13.695 16.2285 13.7415 16.3564 13.7996 16.4494C13.8577 16.5424 13.9275 16.6121 14.0205 16.647C14.1135 16.6819 14.2065 16.7051 14.3111 16.7051C14.4158 16.7051 14.5204 16.6819 14.6018 16.647C14.6831 16.6121 14.7645 16.5424 14.8226 16.4494C14.8808 16.3564 14.9273 16.2285 14.9505 16.0774C14.9738 15.9263 14.997 15.7403 14.997 15.5194V14.3918H15.0086Z" fill="black"/>
</svg>
