<svg xmlns="http://www.w3.org/2000/svg" xmlns:xlink="http://www.w3.org/1999/xlink" width="1080" zoomAndPan="magnify" viewBox="0 0 810 809.999993" height="1080" preserveAspectRatio="xMidYMid meet" version="1.0"><defs><clipPath id="7e12a03407"><path d="M 179.414062 29.023438 L 630.914062 29.023438 L 630.914062 781.273438 L 179.414062 781.273438 Z M 179.414062 29.023438 " clip-rule="nonzero"/></clipPath></defs><path fill="#232846" d="M 567.570312 768.730469 L 241.484375 768.730469 C 213.804688 768.730469 191.320312 746.253906 191.320312 718.582031 L 191.320312 91.71875 C 191.320312 63.996094 213.804688 41.566406 241.484375 41.566406 L 567.570312 41.566406 C 595.296875 41.566406 617.734375 63.996094 617.734375 91.71875 L 617.734375 718.582031 C 617.734375 746.253906 595.296875 768.730469 567.570312 768.730469 " fill-opacity="1" fill-rule="nonzero"/><path fill="#b9e2e2" d="M 492.320312 41.566406 L 492.320312 66.640625 C 492.320312 80.453125 481.050781 91.71875 467.234375 91.71875 L 341.820312 91.71875 C 328.054688 91.71875 316.734375 80.453125 316.734375 66.640625 L 316.734375 41.566406 L 492.320312 41.566406 " fill-opacity="1" fill-rule="nonzero"/><path fill="#f03e51" d="M 304.832031 267.238281 L 254.664062 267.238281 C 247.757812 267.238281 242.121094 261.605469 242.121094 254.703125 L 242.121094 204.550781 C 242.121094 197.648438 247.757812 192.015625 254.664062 192.015625 L 304.832031 192.015625 C 311.738281 192.015625 317.371094 197.648438 317.371094 204.550781 L 317.371094 254.703125 C 317.371094 261.605469 311.738281 267.238281 304.832031 267.238281 " fill-opacity="1" fill-rule="nonzero"/><path fill="#524da9" d="M 430.246094 267.238281 L 380.082031 267.238281 C 373.171875 267.238281 367.539062 261.605469 367.539062 254.703125 L 367.539062 204.550781 C 367.539062 197.648438 373.171875 192.015625 380.082031 192.015625 L 430.246094 192.015625 C 437.15625 192.015625 442.789062 197.648438 442.789062 204.550781 L 442.789062 254.703125 C 442.789062 261.605469 437.15625 267.238281 430.246094 267.238281 " fill-opacity="1" fill-rule="nonzero"/><path fill="#f4b323" d="M 555.664062 267.238281 L 505.496094 267.238281 C 498.589844 267.238281 492.957031 261.605469 492.957031 254.703125 L 492.957031 204.550781 C 492.957031 197.648438 498.589844 192.015625 505.496094 192.015625 L 555.664062 192.015625 C 562.574219 192.015625 568.207031 197.648438 568.207031 204.550781 L 568.207031 254.703125 C 568.207031 261.605469 562.574219 267.238281 555.664062 267.238281 " fill-opacity="1" fill-rule="nonzero"/><path fill="#5ac7be" d="M 304.832031 405.148438 L 254.664062 405.148438 C 247.757812 405.148438 242.121094 399.515625 242.121094 392.613281 L 242.121094 342.464844 C 242.121094 335.558594 247.757812 329.925781 254.664062 329.925781 L 304.832031 329.925781 C 311.738281 329.925781 317.371094 335.558594 317.371094 342.464844 L 317.371094 392.613281 C 317.371094 399.515625 311.738281 405.148438 304.832031 405.148438 " fill-opacity="1" fill-rule="nonzero"/><path fill="#45bc5d" d="M 430.246094 405.148438 L 380.082031 405.148438 C 373.171875 405.148438 367.539062 399.515625 367.539062 392.613281 L 367.539062 342.464844 C 367.539062 335.558594 373.171875 329.925781 380.082031 329.925781 L 430.246094 329.925781 C 437.15625 329.925781 442.789062 335.558594 442.789062 342.464844 L 442.789062 392.613281 C 442.789062 399.515625 437.15625 405.148438 430.246094 405.148438 " fill-opacity="1" fill-rule="nonzero"/><path fill="#ffffff" d="M 555.664062 405.148438 L 505.496094 405.148438 C 498.589844 405.148438 492.957031 399.515625 492.957031 392.613281 L 492.957031 342.464844 C 492.957031 335.558594 498.589844 329.925781 505.496094 329.925781 L 555.664062 329.925781 C 562.574219 329.925781 568.207031 335.558594 568.207031 342.464844 L 568.207031 392.613281 C 568.207031 399.515625 562.574219 405.148438 555.664062 405.148438 " fill-opacity="1" fill-rule="nonzero"/><path fill="#426abc" d="M 304.832031 543.058594 L 254.664062 543.058594 C 247.757812 543.058594 242.121094 537.429688 242.121094 530.523438 L 242.121094 480.375 C 242.121094 473.46875 247.757812 467.835938 254.664062 467.835938 L 304.832031 467.835938 C 311.738281 467.835938 317.371094 473.46875 317.371094 480.375 L 317.371094 530.523438 C 317.371094 537.429688 311.738281 543.058594 304.832031 543.058594 " fill-opacity="1" fill-rule="nonzero"/><path fill="#524da9" d="M 430.246094 543.058594 L 380.082031 543.058594 C 373.171875 543.058594 367.539062 537.429688 367.539062 530.523438 L 367.539062 480.375 C 367.539062 473.46875 373.171875 467.835938 380.082031 467.835938 L 430.246094 467.835938 C 437.15625 467.835938 442.789062 473.46875 442.789062 480.375 L 442.789062 530.523438 C 442.789062 537.429688 437.15625 543.058594 430.246094 543.058594 " fill-opacity="1" fill-rule="nonzero"/><path fill="#111625" d="M 492.320312 731.121094 L 316.734375 731.121094 C 309.828125 731.121094 304.195312 725.488281 304.195312 718.582031 C 304.195312 711.675781 309.828125 706.042969 316.734375 706.042969 L 492.320312 706.042969 C 499.277344 706.042969 504.859375 711.675781 504.859375 718.582031 C 504.859375 725.488281 499.277344 731.121094 492.320312 731.121094 " fill-opacity="1" fill-rule="nonzero"/><g clip-path="url(#7e12a03407)"><path fill="#b9e2e2" d="M 242.121094 54.105469 C 221.351562 54.105469 204.496094 70.953125 204.496094 91.71875 L 204.496094 718.582031 C 204.496094 739.347656 221.351562 756.195312 242.121094 756.195312 L 568.207031 756.195312 C 588.976562 756.195312 605.832031 739.347656 605.832031 718.582031 L 605.832031 91.71875 C 605.832031 70.953125 588.976562 54.105469 568.207031 54.105469 Z M 568.207031 781.269531 L 242.121094 781.269531 C 207.535156 781.269531 179.414062 753.15625 179.414062 718.582031 L 179.414062 91.71875 C 179.414062 57.140625 207.535156 29.03125 242.121094 29.03125 L 568.207031 29.03125 C 602.792969 29.03125 630.914062 57.140625 630.914062 91.71875 L 630.914062 718.582031 C 630.914062 753.15625 602.792969 781.269531 568.207031 781.269531 " fill-opacity="1" fill-rule="nonzero"/></g></svg>