<svg width="24" height="24" viewBox="0 0 24 24" fill="none" xmlns="http://www.w3.org/2000/svg">
<path d="M18 0H6C4.7595 0 3.75 1.0095 3.75 2.25V21.75C3.75 22.9905 4.7595 24 6 24H18C19.2405 24 20.25 22.9905 20.25 21.75V2.25C20.25 1.0095 19.2405 0 18 0ZM12 22.5C11.1727 22.5 10.5 21.8272 10.5 21C10.5 20.1728 11.1727 19.5 12 19.5C12.8273 19.5 13.5 20.1728 13.5 21C13.5 21.8272 12.8273 22.5 12 22.5ZM18 17.25C18 17.6647 17.664 18 17.25 18H6.75C6.336 18 6 17.6647 6 17.25V3.75C6 3.33525 6.336 3 6.75 3H17.25C17.664 3 18 3.33525 18 3.75V17.25Z" fill="black"/>
<path d="M9.96975 13.2803L7.1895 10.5L9.96975 7.71975L11.0302 8.78025L9.3105 10.5L11.0302 12.2197L9.96975 13.2803Z" fill="black"/>
<path d="M14.0303 13.2803L12.9697 12.2197L14.6895 10.5L12.9697 8.78025L14.0303 7.71975L16.8105 10.5L14.0303 13.2803Z" fill="black"/>
</svg>
