<svg xmlns="http://www.w3.org/2000/svg" xmlns:xlink="http://www.w3.org/1999/xlink" width="1080" zoomAndPan="magnify" viewBox="0 0 810 809.999993" height="1080" preserveAspectRatio="xMidYMid meet" version="1.0"><path fill="#fade3f" d="M 579.222656 398.992188 C 579.222656 497.550781 510.898438 575.882812 412.339844 575.882812 C 313.78125 575.882812 231 503.667969 231 405.109375 C 231 306.550781 305.777344 234.335938 404.335938 234.335938 C 510.78125 234.335938 579.222656 300.433594 579.222656 398.992188 Z M 419.851562 48.265625 C 414.457031 39.917969 391.929688 39.085938 385.808594 48.542969 C 379.511719 58.273438 385.199219 192.34375 402.835938 192.339844 C 422.117188 192.335938 424.503906 55.460938 419.851562 48.265625 Z M 239.453125 88.703125 C 230.609375 84.171875 210.683594 94.714844 210.109375 105.964844 C 209.523438 117.542969 281.480469 230.804688 296.757812 221.984375 C 313.453125 212.339844 247.082031 92.605469 239.453125 88.703125 Z M 103.441406 213.921875 C 93.519531 214.421875 81.53125 233.515625 86.664062 243.539062 C 91.941406 253.859375 210.894531 315.972656 219.710938 300.695312 C 229.347656 283.996094 112 213.492188 103.441406 213.921875 Z M 48.265625 390.367188 C 39.917969 395.761719 39.085938 418.292969 48.542969 424.410156 C 58.273438 430.707031 192.34375 425.023438 192.339844 407.382812 C 192.335938 388.101562 55.460938 385.71875 48.265625 390.367188 Z M 88.703125 570.765625 C 84.171875 579.609375 94.714844 599.539062 105.964844 600.109375 C 117.542969 600.695312 230.804688 528.738281 221.984375 513.464844 C 212.339844 496.765625 92.605469 563.140625 88.703125 570.765625 Z M 213.921875 706.777344 C 214.421875 716.699219 233.515625 728.6875 243.539062 723.554688 C 253.859375 718.277344 315.972656 599.328125 300.695312 590.511719 C 283.992188 580.871094 213.492188 698.21875 213.921875 706.777344 Z M 390.367188 761.957031 C 395.761719 770.300781 418.292969 771.132812 424.410156 761.679688 C 430.707031 751.945312 425.023438 617.875 407.382812 617.878906 C 388.101562 617.882812 385.71875 754.761719 390.367188 761.957031 Z M 570.765625 721.519531 C 579.609375 726.046875 599.539062 715.503906 600.109375 704.257812 C 600.695312 692.679688 528.738281 579.414062 513.464844 588.238281 C 496.765625 597.878906 563.140625 717.613281 570.765625 721.519531 Z M 706.777344 596.300781 C 716.699219 595.800781 728.6875 576.707031 723.554688 566.679688 C 718.277344 556.359375 599.328125 494.246094 590.507812 509.527344 C 580.871094 526.226562 698.21875 596.730469 706.777344 596.300781 Z M 761.957031 419.851562 C 770.300781 414.457031 771.132812 391.929688 761.679688 385.808594 C 751.945312 379.511719 617.875 385.199219 617.878906 402.835938 C 617.882812 422.117188 754.761719 424.503906 761.957031 419.851562 Z M 721.519531 239.453125 C 726.046875 230.609375 715.503906 210.683594 704.257812 210.109375 C 692.679688 209.523438 579.414062 281.480469 588.238281 296.757812 C 597.878906 313.453125 717.613281 247.082031 721.519531 239.453125 Z M 596.300781 103.445312 C 595.800781 93.519531 576.707031 81.53125 566.679688 86.664062 C 556.359375 91.941406 494.246094 210.894531 509.527344 219.710938 C 526.226562 229.347656 596.730469 112 596.300781 103.445312 Z M 596.300781 103.445312 " fill-opacity="1" fill-rule="nonzero"/></svg>