<svg width="45" height="51" viewBox="0 0 45 51" fill="none" xmlns="http://www.w3.org/2000/svg">
<g clip-path="url(#clip0_13990_1329)">
<path d="M2.57148 1.2749H42.4286C43.1387 1.2749 43.7143 1.84575 43.7143 2.5499V49.7249H2.57148C1.86141 49.7249 1.28577 49.1541 1.28577 48.4499V2.5499C1.28577 1.84575 1.86141 1.2749 2.57148 1.2749Z" stroke="#72603F" stroke-width="2"/>
<path d="M42.4286 1.2749H2.57148C1.8614 1.2749 1.28577 1.84574 1.28577 2.5499V43.3499C1.28577 44.0541 1.8614 44.6249 2.57148 44.6249H42.4286C43.1387 44.6249 43.7143 44.0541 43.7143 43.3499V2.5499C43.7143 1.84574 43.1387 1.2749 42.4286 1.2749Z" stroke="#72603F" stroke-width="2"/>
<path d="M38.5714 6.375H6.42859V39.525H38.5714V6.375Z" stroke="#72603F" stroke-width="2"/>
<mask id="mask0_13990_1329" style="mask-type:luminance" maskUnits="userSpaceOnUse" x="18" y="8" width="10" height="10">
<path d="M27.0912 11.7069L23.9093 8.55146C23.4072 8.05354 22.5931 8.05354 22.091 8.55146L18.909 11.7069C18.4069 12.2048 18.4069 13.0121 18.909 13.51L22.091 16.6655C22.5931 17.1634 23.4072 17.1634 23.9093 16.6655L27.0912 13.51C27.5933 13.0121 27.5933 12.2048 27.0912 11.7069Z" fill="white"/>
</mask>
<g mask="url(#mask0_13990_1329)">
<path d="M27.0912 11.7069L23.9093 8.55146C23.4072 8.05354 22.5931 8.05354 22.091 8.55146L18.909 11.7069C18.4069 12.2048 18.4069 13.0121 18.909 13.51L22.091 16.6655C22.5931 17.1634 23.4072 17.1634 23.9093 16.6655L27.0912 13.51C27.5933 13.0121 27.5933 12.2048 27.0912 11.7069Z" stroke="#72603F" stroke-width="2"/>
</g>
<mask id="mask1_13990_1329" style="mask-type:luminance" maskUnits="userSpaceOnUse" x="16" y="15" width="14" height="14">
<path d="M29.3641 21.328L23.9093 15.9187C23.4072 15.4207 22.5931 15.4207 22.091 15.9187L16.6362 21.328C16.1341 21.8259 16.1341 22.6332 16.6362 23.1311L22.091 28.5405C22.5931 29.0384 23.4072 29.0384 23.9093 28.5405L29.3641 23.1311C29.8662 22.6332 29.8662 21.8259 29.3641 21.328Z" fill="white"/>
</mask>
<g mask="url(#mask1_13990_1329)">
<path d="M29.3641 21.328L23.9093 15.9187C23.4072 15.4207 22.5931 15.4207 22.091 15.9187L16.6362 21.328C16.1341 21.8259 16.1341 22.6332 16.6362 23.1311L22.091 28.5405C22.5931 29.0384 23.4072 29.0384 23.9093 28.5405L29.3641 23.1311C29.8662 22.6332 29.8662 21.8259 29.3641 21.328Z" stroke="#72603F" stroke-width="4"/>
</g>
<mask id="mask2_13990_1329" style="mask-type:luminance" maskUnits="userSpaceOnUse" x="18" y="27" width="10" height="10">
<path d="M27.0912 30.9491L23.9093 27.7937C23.4072 27.2957 22.5931 27.2957 22.091 27.7937L18.909 30.9491C18.4069 31.447 18.4069 32.2543 18.909 32.7522L22.091 35.9077C22.5931 36.4056 23.4072 36.4056 23.9093 35.9077L27.0912 32.7522C27.5933 32.2543 27.5933 31.447 27.0912 30.9491Z" fill="white"/>
</mask>
<g mask="url(#mask2_13990_1329)">
<path d="M27.0912 30.9491L23.9093 27.7937C23.4072 27.2957 22.5931 27.2957 22.091 27.7937L18.909 30.9491C18.4069 31.447 18.4069 32.2543 18.909 32.7522L22.091 35.9077C22.5931 36.4056 23.4072 36.4056 23.9093 35.9077L27.0912 32.7522C27.5933 32.2543 27.5933 31.447 27.0912 30.9491Z" stroke="#72603F" stroke-width="4"/>
</g>
<path d="M15.4286 31.875H12.8572V34.425H15.4286V31.875Z" fill="none"/>
<path d="M12.8572 29.325H10.2858V31.875H12.8572V29.325Z" fill="none"/>
<path d="M29.5714 14.0249H32.1428V11.4749H29.5714V14.0249Z" fill="none"/>
<path d="M32.1428 16.575H34.7142V14.025H32.1428V16.575Z" fill="none"/>
<path d="M32.1428 29.325V31.875H34.7143V29.325H32.1428Z" fill="none"/>
<path d="M29.5714 31.875V34.425H32.1428V31.875H29.5714Z" fill="none"/>
<path d="M12.8572 16.5749V14.0249H10.2857V16.5749H12.8572Z" fill="none"/>
<path d="M15.4286 14.0251V11.4751H12.8572V14.0251H15.4286Z" fill="none"/>
</g>
</svg>
