<svg width="80" height="61" viewBox="0 0 80 61" fill="none" xmlns="http://www.w3.org/2000/svg">
    <path
        d="M41.7839 38.6116C46.8399 38.6116 50.9771 34.4657 50.9771 29.3993V9.21235C50.9771 4.14592 46.8399 0 41.7839 0C36.7279 0 32.5907 4.14592 32.5907 9.21235V29.3993C32.5907 34.4657 36.7279 38.6116 41.7839 38.6116ZM58.0248 28.4959C58.0248 37.7083 50.211 44.1571 41.7839 44.1571C33.3568 44.1571 25.543 37.7081 25.543 28.4959H20.333C20.333 38.9362 28.6076 47.6882 38.7196 49.0707V60.0625H44.8483V49.0707C54.9602 47.5353 63.2348 38.9362 63.2348 28.4959H58.0248Z" />
    <line x1="1.58254" y1="56.9407" x2="78.5825" y2="3.94068" stroke="var(--color-background-inverse)"
        stroke-width="5" />
</svg>