<?xml version="1.0" encoding="UTF-8"?>
<svg width="800px" height="800px" fill="currentColor" version="1.1" viewBox="0 0 512 512" xml:space="preserve" xmlns="http://www.w3.org/2000/svg">


		<path d="m187.52 380.72h-85.179c-7.407 0-13.431 6.024-13.431 13.431v66.999c0 7.407 6.026 13.432 13.431 13.432h85.179c7.407 0 13.431-6.025 13.431-13.432v-66.999c0-7.406-6.025-13.431-13.431-13.431zm-4.54 75.891h-76.098v-57.918h76.098v57.918z"/>




		<path d="m441.62 26.951h-16.46v-17.965c0-4.964-4.023-8.986-8.986-8.986s-8.986 4.022-8.986 8.986v17.965h-27.496v-17.965c0-4.964-4.023-8.986-8.986-8.986s-8.986 4.022-8.986 8.986v17.965h-27.496v-17.965c0-4.964-4.023-8.986-8.986-8.986s-8.986 4.022-8.986 8.986v17.965h-27.498v-17.965c0-4.964-4.023-8.986-8.986-8.986s-8.986 4.022-8.986 8.986v17.965h-27.496v-17.965c0-4.964-4.023-8.986-8.986-8.986s-8.986 4.022-8.986 8.986v17.965h-27.496v-17.965c0-4.964-4.023-8.986-8.986-8.986s-8.986 4.022-8.986 8.986v17.965h-27.496v-17.965c0-4.964-4.023-8.986-8.986-8.986s-8.986 4.022-8.986 8.986v17.965h-27.495v-17.965c0-4.964-4.023-8.986-8.986-8.986s-8.986 4.022-8.986 8.986v17.965h-19.329c-12.861 0-23.324 10.463-23.324 23.326v438.4c0 12.861 10.463 23.324 23.324 23.324h372.04c12.861 0 23.326-10.462 23.326-23.324v-342.51c0-4.963-4.023-8.986-8.986-8.986s-8.986 4.022-8.986 8.986v215.28c-21.534 23.898-52.076 37.54-84.313 37.54l-0.767-0.011c-2.474-0.037-4.741 0.935-6.445 2.648-1.705 1.715-2.647 4.041-2.616 6.459l0.01 0.567c5e-3 0.337 0.012 0.675 0.012 1.012 0 32.263-13.663 62.825-37.594 84.362h-245.44c-3.08 0-5.588-2.507-5.588-5.587v-437.93c0-3.082 2.507-5.588 5.588-5.588h19.092v24.049c0 4.964 4.023 8.986 8.986 8.986s8.986-4.022 8.986-8.986v-24.05h27.496v24.049c0 4.964 4.023 8.986 8.986 8.986s8.986-4.022 8.986-8.986v-24.049h27.495v24.049c0 4.964 4.023 8.986 8.986 8.986s8.986-4.022 8.986-8.986v-24.049h27.496v24.049c0 4.964 4.023 8.986 8.986 8.986s8.986-4.022 8.986-8.986v-24.049h27.496v24.049c0 4.964 4.023 8.986 8.986 8.986s8.986-4.022 8.986-8.986v-24.049h27.496v24.049c0 4.964 4.023 8.986 8.986 8.986s8.986-4.022 8.986-8.986v-24.049h27.496v24.049c0 4.964 4.023 8.986 8.986 8.986s8.986-4.022 8.986-8.986v-24.049h27.496v24.049c0 4.964 4.023 8.986 8.986 8.986s8.986-4.022 8.986-8.986v-24.049h16.225c3.082 0 5.588 2.507 5.588 5.588v24.569c0 4.964 4.023 8.986 8.986 8.986s8.986-4.022 8.986-8.986v-24.803c5e-3 -12.861-10.459-23.326-23.321-23.326zm5.351 408.46v53.265c0 2.951-2.401 5.352-5.353 5.352h-53.264c24.689-13.524 45.093-33.928 58.617-58.617zm-76.334-18.688c27.252-1.649 53.114-11.708 74.199-28.615-4.667 25.486-16.884 48.964-35.529 67.716-18.574 18.68-41.875 31.013-67.215 35.868 17.022-21.296 27.072-47.444 28.545-74.969z"/>




		<path d="m416.17 151.69h-318.28c-4.963 0-8.986 4.022-8.986 8.986s4.023 8.986 8.986 8.986h318.28c4.963 0 8.986-4.022 8.986-8.986s-4.023-8.986-8.986-8.986z"/>




		<path d="m416.17 192.54h-318.28c-4.963 0-8.986 4.022-8.986 8.986s4.023 8.986 8.986 8.986h318.28c4.963 0 8.986-4.022 8.986-8.986s-4.023-8.986-8.986-8.986z"/>




		<path d="m416.17 233.4h-318.28c-4.963 0-8.986 4.022-8.986 8.986s4.023 8.986 8.986 8.986h318.28c4.963 0 8.986-4.022 8.986-8.986 1e-3 -4.964-4.023-8.986-8.986-8.986z"/>




		<path d="m416.17 274.26h-318.28c-4.963 0-8.986 4.022-8.986 8.986s4.023 8.986 8.986 8.986h318.28c4.963 0 8.986-4.022 8.986-8.986 1e-3 -4.963-4.023-8.986-8.986-8.986z"/>




		<path d="m416.17 315.11h-318.28c-4.963 0-8.986 4.022-8.986 8.986s4.023 8.986 8.986 8.986h318.28c4.963 0 8.986-4.022 8.986-8.986 1e-3 -4.964-4.023-8.986-8.986-8.986z"/>




		<circle cx="455.95" cy="110.36" r="9.792"/>


</svg>
