<svg width="16" height="16" viewBox="0 0 16 16" fill="none" xmlns="http://www.w3.org/2000/svg">
<path d="M15.3057 2.43095L13.4167 0.541951C13.2543 0.387143 13.0386 0.300781 12.8142 0.300781C12.5899 0.300781 12.3742 0.387143 12.2118 0.541951L10.5321 2.22673H1.52108C1.25027 2.22673 0.990557 2.33431 0.799068 2.5258C0.607578 2.71729 0.5 2.97701 0.5 3.24781V14.4797C0.5 14.7505 0.607578 15.0102 0.799068 15.2017C0.990557 15.3932 1.25027 15.5008 1.52108 15.5008H12.753C13.0238 15.5008 13.2835 15.3932 13.475 15.2017C13.6665 15.0102 13.774 14.7505 13.774 14.4797V5.16745L15.3057 3.63583C15.4653 3.47597 15.5549 3.25929 15.5549 3.03339C15.5549 2.80748 15.4653 2.59081 15.3057 2.43095ZM8.07131 9.44067L5.93215 9.91547L6.44269 7.79673L11.3183 2.91086L12.9674 4.5599L8.07131 9.44067ZM13.9387 3.55792L12.2692 1.92935L12.8142 1.38434L14.4633 3.03339L13.9387 3.55792Z" fill="currentColor"/>
</svg>
