<svg width="16" height="16" fill="none" xmlns="http://www.w3.org/2000/svg">
    <path d="M9.5 5H13v1H9.5V5zM9.5 7.5H13v1H9.5v-1zM9.5 10H13v1H9.5v-1z" fill="var(--text-color)" />
    <path
        d="M14 2.5H2a1 1 0 00-1 1v9a1.001 1.001 0 001 1h12a1.002 1.002 0 001-1v-9a1.001 1.001 0 00-1-1zm-12 1h5.5v9H2v-9zm6.5 9v-9H14l.001 9H8.5z"
        fill="var(--text-color)" />
    <path
        d="M4.255 9.943h.88v.833h-.88v-.833zm.587-4.722c1.567.06 2.25 1.56 1.318 2.686-.243.278-.636.46-.829.694-.196.23-.196.509-.196.786h-.88c0-.464 0-.855.197-1.133.193-.278.586-.442.83-.625.708-.622.533-1.503-.44-1.575a.904.904 0 00-.622.244.812.812 0 00-.258.59h-.879c0-.443.186-.867.515-1.18.33-.312.777-.487 1.244-.487z"
        fill="var(--text-color)" />
</svg>
