<?xml version="1.0" encoding="UTF-8"?>
<svg width="800px" height="800px" version="1.1" viewBox="0 0 512 512" xml:space="preserve" xmlns="http://www.w3.org/2000/svg">
<g fill="#379acc">
	<path d="m317.99 503.02h-248.17c-8.049 0-14.574-6.525-14.574-14.574v-437.93c0-8.049 6.525-14.574 14.574-14.574h371.57c8.049 0 14.574 6.525 14.574 14.574v314.54c0 76.196-61.769 137.97-137.97 137.97z"/>
	<path d="m441.61 503.02h-372.04c-7.92 0-14.339-6.42-14.339-14.339v-438.4c0-7.92 6.42-14.339 14.339-14.339h372.04c7.92 0 14.339 6.42 14.339 14.339v438.4c0 7.918-6.42 14.339-14.339 14.339z"/>
</g>
<g fill="currentColor">
	<path d="m146.89 35.937-12.521 33.035c0 4.964 4.023 8.986 8.986 8.986s8.986-4.022 8.986-8.986l12.521-33.035h-17.972z"/>
	<path d="m192.36 35.937-12.519 33.035c0 4.964 4.023 8.986 8.986 8.986s8.986-4.022 8.986-8.986l12.521-33.035h-17.974z"/>
	<path d="m237.83 35.937-12.521 33.035c0 4.964 4.023 8.986 8.986 8.986s8.986-4.022 8.986-8.986l12.521-33.035h-17.972z"/>
	<path d="m101.42 35.937-12.52 33.036c0 4.964 4.023 8.986 8.986 8.986s8.986-4.022 8.986-8.986l12.521-33.035c0-1e-3 -17.973-1e-3 -17.973-1e-3z"/>
	<path d="m419.7 35.937-12.521 33.035c0 4.964 4.023 8.986 8.986 8.986s8.986-4.022 8.986-8.986l12.521-33.035h-17.972z"/>
	<path d="m374.23 35.937-12.521 33.035c0 4.964 4.023 8.986 8.986 8.986s8.986-4.022 8.986-8.986l12.521-33.035h-17.972z"/>
	<path d="m283.3 35.937-12.521 33.035c0 4.964 4.023 8.986 8.986 8.986s8.986-4.022 8.986-8.986l12.521-33.035h-17.972z"/>
	<path d="m328.77 35.937-12.521 33.035c0 4.964 4.023 8.986 8.986 8.986s8.986-4.022 8.986-8.986l12.521-33.035h-17.972z"/>
</g>
<path d="m455.95 488.68v-123.81l-5e-3 0.665-136.06 137.48h121.72c7.92 0 14.34-6.421 14.34-14.339z" fill="#BCBEC0"/>
<path d="m187.52 465.59h-85.179c-2.455 0-4.445-1.99-4.445-4.445v-66.999c0-2.455 1.99-4.446 4.445-4.446h85.179c2.455 0 4.445 1.99 4.445 4.446v66.999c1e-3 2.455-1.99 4.445-4.445 4.445z" fill="#A7A9AC"/>
<path d="m362.66 407.98c-0.282 0-0.561-8e-3 -0.842-0.011 7e-3 0.566 0.022 1.131 0.022 1.699 0 37.394-16.766 70.867-43.184 93.33 75.834-0.633 137.13-62.214 137.3-138.16-22.464 26.393-55.921 43.141-93.293 43.141z" fill="#D1D3D4"/>
<path d="m102.34 380.72c-7.407 0-13.431 6.024-13.431 13.431v66.999c0 7.407 6.025 13.432 13.431 13.432h85.179c7.407 0 13.431-6.025 13.431-13.432v-66.999c0-7.407-6.025-13.431-13.431-13.431h-85.179zm80.639 75.891h-76.098v-57.919h76.098v57.919z"/>
<path d="m455.95 137.18c-4.963 0-8.986 4.022-8.986 8.986v215.28c-21.534 23.898-52.076 37.54-84.313 37.54l-0.767-0.011c-2.474-0.037-4.741 0.935-6.445 2.648-1.705 1.715-2.647 4.041-2.616 6.459l0.01 0.567c5e-3 0.337 0.012 0.675 0.012 1.012 0 32.263-13.663 62.825-37.594 84.362h-245.44c-3.08 0-5.588-2.507-5.588-5.587v-437.93c0-3.082 2.507-5.588 5.588-5.588h19.092v24.049c0 4.964 4.023 8.986 8.986 8.986s8.986-4.022 8.986-8.986v-24.05h27.496v24.049c0 4.964 4.023 8.986 8.986 8.986s8.986-4.022 8.986-8.986v-24.049h27.495v24.049c0 4.964 4.023 8.986 8.986 8.986s8.986-4.022 8.986-8.986v-24.049h27.496v24.049c0 4.964 4.023 8.986 8.986 8.986s8.986-4.022 8.986-8.986v-24.049h27.496v24.049c0 4.964 4.023 8.986 8.986 8.986s8.986-4.022 8.986-8.986v-24.049h27.496v24.049c0 4.964 4.023 8.986 8.986 8.986s8.986-4.022 8.986-8.986v-24.049h27.496v24.049c0 4.964 4.023 8.986 8.986 8.986s8.986-4.022 8.986-8.986v-24.049h27.496v24.049c0 4.964 4.023 8.986 8.986 8.986s8.986-4.022 8.986-8.986v-24.049h16.225c3.082 0 5.588 2.507 5.588 5.588v24.569c0 4.964 4.023 8.986 8.986 8.986s8.986-4.022 8.986-8.986v-24.803c0-12.861-10.463-23.326-23.326-23.326h-16.46v-17.965c0-4.964-4.023-8.986-8.986-8.986s-8.986 4.022-8.986 8.986v17.965h-27.496v-17.965c0-4.964-4.023-8.986-8.986-8.986s-8.986 4.022-8.986 8.986v17.965h-27.496v-17.965c0-4.964-4.023-8.986-8.986-8.986s-8.986 4.022-8.986 8.986v17.965h-27.493v-17.965c0-4.964-4.023-8.986-8.986-8.986s-8.986 4.022-8.986 8.986v17.965h-27.496v-17.965c0-4.964-4.023-8.986-8.986-8.986s-8.986 4.022-8.986 8.986v17.965h-27.496v-17.965c0-4.964-4.023-8.986-8.986-8.986s-8.986 4.022-8.986 8.986v17.965h-27.496v-17.965c0-4.964-4.023-8.986-8.986-8.986s-8.986 4.022-8.986 8.986v17.965h-27.495v-17.965c0-4.964-4.023-8.986-8.986-8.986s-8.986 4.022-8.986 8.986v17.965h-19.329c-12.861 0-23.324 10.463-23.324 23.326v438.4c0 12.861 10.463 23.324 23.324 23.324h372.04c12.861 0 23.326-10.462 23.326-23.324v-342.51c-1e-3 -4.962-4.024-8.986-8.987-8.986zm-85.32 279.54c27.252-1.649 53.114-11.708 74.199-28.615-4.667 25.486-16.884 48.964-35.529 67.716-18.574 18.68-41.875 31.013-67.215 35.868 17.022-21.297 27.072-47.444 28.545-74.969zm76.334 71.953c0 2.951-2.401 5.352-5.353 5.352h-53.264c24.689-13.523 45.094-33.928 58.617-58.617v53.265z"/>
<path d="m416.17 151.69h-318.28c-4.963 0-8.986 4.022-8.986 8.986s4.023 8.986 8.986 8.986h318.28c4.963 0 8.986-4.022 8.986-8.986 1e-3 -4.964-4.023-8.986-8.986-8.986z"/>
<path d="m416.17 192.54h-318.28c-4.963 0-8.986 4.022-8.986 8.986s4.023 8.986 8.986 8.986h318.28c4.963 0 8.986-4.022 8.986-8.986 1e-3 -4.964-4.023-8.986-8.986-8.986z"/>
<path d="m416.17 233.4h-318.28c-4.963 0-8.986 4.022-8.986 8.986s4.023 8.986 8.986 8.986h318.28c4.963 0 8.986-4.022 8.986-8.986 1e-3 -4.964-4.023-8.986-8.986-8.986z"/>
<path d="m416.17 274.26h-318.28c-4.963 0-8.986 4.022-8.986 8.986s4.023 8.986 8.986 8.986h318.28c4.963 0 8.986-4.022 8.986-8.986s-4.023-8.986-8.986-8.986z"/>
<path d="m425.16 324.1c0-4.964-4.023-8.986-8.986-8.986h-318.28c-4.963 0-8.986 4.022-8.986 8.986s4.023 8.986 8.986 8.986h318.28c4.963 0 8.987-4.022 8.987-8.986z"/>
<circle cx="455.95" cy="110.36" r="9.792"/>
</svg>
