<svg width="16" height="16" viewBox="0 0 16 16" fill="none" xmlns="http://www.w3.org/2000/svg">
    <path
        d="M12.6597 14.4927H1.5133V3.34631H8.21125L9.22455 2.33301H1.5133C1.24456 2.33301 0.986821 2.43977 0.79679 2.6298C0.606758 2.81983 0.5 3.07757 0.5 3.34631V14.4927C0.5 14.7614 0.606758 15.0191 0.79679 15.2092C0.986821 15.3992 1.24456 15.506 1.5133 15.506H12.6597C12.9284 15.506 13.1861 15.3992 13.3762 15.2092C13.5662 15.0191 13.673 14.7614 13.673 14.4927V6.89288L12.6597 7.90618V14.4927Z"
        fill="currentColor" stroke="currentColor" stroke-width="0.5" />
    <path
        d="M15.4656 2.25279L13.7582 0.54537C13.6824 0.469388 13.5924 0.409103 13.4932 0.36797C13.3941 0.326837 13.2879 0.305664 13.1806 0.305664C13.0733 0.305664 12.967 0.326837 12.8679 0.36797C12.7688 0.409103 12.6788 0.469388 12.603 0.54537L5.65679 7.5321L5.0944 9.9691C5.07044 10.0872 5.07296 10.2092 5.10178 10.3262C5.13059 10.4433 5.18499 10.5525 5.26105 10.646C5.33712 10.7395 5.43296 10.815 5.54168 10.867C5.65041 10.9191 5.76931 10.9463 5.88985 10.9469C5.95214 10.9538 6.01501 10.9538 6.07731 10.9469L8.53457 10.4048L15.4656 3.40795C15.5416 3.33218 15.6018 3.24216 15.643 3.14305C15.6841 3.04393 15.7053 2.93768 15.7053 2.83037C15.7053 2.72306 15.6841 2.61681 15.643 2.5177C15.6018 2.41858 15.5416 2.32856 15.4656 2.25279ZM8.00765 9.46751L6.1533 9.8779L6.58396 8.03876L11.8126 2.77464L13.2414 4.2034L8.00765 9.46751ZM13.8139 3.63088L12.3851 2.20212L13.1704 1.40161L14.6093 2.8405L13.8139 3.63088Z"
        fill="currentColor" stroke="currentColor" stroke-width="0.3" />
</svg>