<svg viewBox="1.928 0.875 11.023 13.01" width="11.023" height="13.01" xmlns="http://www.w3.org/2000/svg"><path d="M3.451.875a1.5 1.5 0 0 0-1.5 1.5v10a1.5 1.5 0 0 0 1.5 1.5h8a1.5 1.5 0 0 0 1.5-1.5V4.789c0-.398-.158-.779-.439-1.061l-2.414-2.414A1.5 1.5 0 0 0 9.037.875H3.451Z" fill="#00abff" fill-rule="evenodd" clip-rule="evenodd"/><path d="M2.928 2.385a.5.5 0 0 1 .5-.5h5.586a.5.5 0 0 1 .354.146l2.414 2.414a.5.5 0 0 1 .146.354v7.586a.5.5 0 0 1-.5.5h-8a.5.5 0 0 1-.5-.5v-10Zm.5-1.5a1.5 1.5 0 0 0-1.5 1.5v10a1.5 1.5 0 0 0 1.5 1.5h8a1.5 1.5 0 0 0 1.5-1.5V4.799c0-.398-.158-.779-.439-1.061l-2.414-2.414A1.5 1.5 0 0 0 9.014.885H3.428Zm1 3a.5.5 0 0 0 0 1h3a.5.5 0 1 0 0-1h-3Zm0 3a.5.5 0 0 0 0 1h6a.5.5 0 0 0 0-1h-6Zm0 3a.5.5 0 0 0 0 1h6a.5.5 0 0 0 0-1h-6Z" fill-rule="evenodd" clip-rule="evenodd" fill="#000000"/></svg>
