<svg width="25" height="24" viewBox="0 0 25 24" fill="currentColor" xmlns="http://www.w3.org/2000/svg">
    <path
        d="M22.402 22.456c.113 0 .208.038.283.114.095.075.142.17.142.283a.35.35 0 0 1-.142.284.385.385 0 0 1-.283.113h-4.055c-.623 0-1.247-.198-1.871-.595a3.99 3.99 0 0 1-1.418-1.503 11.088 11.088 0 0 1-3.034.425h-.283a10.464 10.464 0 0 1-4.111-.936 11.166 11.166 0 0 1-3.318-2.324 11.204 11.204 0 0 1-2.24-3.403c-.548-1.285-.822-2.665-.822-4.14 0-1.455.274-2.826.822-4.11a10.76 10.76 0 0 1 2.24-3.403A11.165 11.165 0 0 1 7.63.936 10.462 10.462 0 0 1 11.74 0h.284c1.494 0 2.893.284 4.197.85a11.012 11.012 0 0 1 3.43 2.326 10.591 10.591 0 0 1 2.326 3.43 10.34 10.34 0 0 1 .85 4.168c0 1.55-.312 3.025-.936 4.424a10.76 10.76 0 0 1-2.636 3.6l1.53 3.658h1.617zm-.397-11.682a9.516 9.516 0 0 0-.794-3.856 9.867 9.867 0 0 0-2.127-3.175 9.867 9.867 0 0 0-3.175-2.127 9.584 9.584 0 0 0-3.885-.794h-.283a4.882 4.882 0 0 0-1.815.397 4.565 4.565 0 0 0-1.474.936 4.216 4.216 0 0 0-.993 1.36 3.742 3.742 0 0 0-.368 1.645v7.4H14.179c.34 0 .68.067 1.021.2.36.113.69.283.992.51.303.207.577.463.823.765.245.284.444.595.595.936l1.304 3.034a9.86 9.86 0 0 0 2.269-3.29 9.69 9.69 0 0 0 .822-3.94zm-9.98 9.98c.472 0 .926-.027 1.36-.084.454-.076.898-.17 1.333-.284l-2.949-7.003H7.091v3.034c0 .586.123 1.134.368 1.644.246.51.577.964.993 1.361.416.397.907.718 1.474.964.567.227 1.172.35 1.815.369h.283z">
    </path>
</svg>