<svg width="24" height="24" viewBox="0 0 24 24" fill="none" xmlns="http://www.w3.org/2000/svg">
<path d="M8.1375 16.275H10.4625V6.975H8.1375V16.275ZM11.625 0C5.208 0 0 5.208 0 11.625C0 18.042 5.208 23.25 11.625 23.25C18.042 23.25 23.25 18.042 23.25 11.625C23.25 5.208 18.042 0 11.625 0ZM11.625 20.925C6.49838 20.925 2.325 16.7516 2.325 11.625C2.325 6.49838 6.49838 2.325 11.625 2.325C16.7516 2.325 20.925 6.49838 20.925 11.625C20.925 16.7516 16.7516 20.925 11.625 20.925ZM12.7875 16.275H15.1125V6.975H12.7875V16.275Z" fill="#323232"/>
</svg>
