<svg width="20" height="21" viewBox="0 0 20 21" fill="none" xmlns="http://www.w3.org/2000/svg">
    <path fill-rule="evenodd" clip-rule="evenodd"
        d="M2.5 4.26562C2.5 3.60258 2.76339 2.9667 3.23223 2.49786C3.70107 2.02902 4.33696 1.76563 5 1.76562H11.6667C13.2138 1.76562 14.6975 2.38021 15.7915 3.47417C16.8854 4.56813 17.5 6.05186 17.5 7.59896V15.9323C17.5 16.5953 17.2366 17.2312 16.7678 17.7001C16.2989 18.1689 15.663 18.4323 15 18.4323H5C4.33696 18.4323 3.70107 18.1689 3.23223 17.7001C2.76339 17.2312 2.5 16.5953 2.5 15.9323V4.26562ZM10.8333 3.43229H5C4.77899 3.43229 4.56702 3.52009 4.41074 3.67637C4.25446 3.83265 4.16667 4.04461 4.16667 4.26562V15.9323C4.16667 16.1533 4.25446 16.3653 4.41074 16.5215C4.56702 16.6778 4.77899 16.7656 5 16.7656H15C15.221 16.7656 15.433 16.6778 15.5893 16.5215C15.7455 16.3653 15.8333 16.1533 15.8333 15.9323V7.59896H10.8333V3.43229ZM15.4867 5.93229C15.2188 5.31973 14.8076 4.78048 14.2879 4.35992C13.7681 3.93936 13.155 3.64981 12.5 3.51562V5.93229H15.4867Z"
        fill="currentColor" />
</svg>
