<svg width="20" height="20" viewBox="0 0 20 20" fill="none" xmlns="http://www.w3.org/2000/svg">
    <path fill-rule="evenodd" clip-rule="evenodd"
        d="M9.99919 1.16602C7.32982 1.16602 5.16586 3.32998 5.16586 5.99935C5.16586 8.20319 6.64085 10.0625 8.6575 10.644C7.06546 10.838 5.69995 11.4011 4.67129 12.4149C3.36207 13.7052 2.69922 15.626 2.69922 18.1325C2.69922 18.4824 2.98278 18.7659 3.33255 18.7659C3.68234 18.7659 3.96589 18.4824 3.96589 18.1325C3.96589 15.8392 4.56967 14.2935 5.56041 13.3171C6.55301 12.3389 8.03485 11.8327 9.99913 11.8327C11.9634 11.8327 13.4453 12.3389 14.438 13.3171C15.4287 14.2935 16.0325 15.8392 16.0325 18.1325C16.0325 18.4824 16.316 18.7659 16.6659 18.7659C17.0156 18.766 17.2992 18.4824 17.2992 18.1327C17.2992 15.626 16.6363 13.7052 15.3271 12.4149C14.2984 11.4011 12.9329 10.8381 11.3409 10.644C13.3575 10.0625 14.8325 8.2032 14.8325 5.99935C14.8325 3.32998 12.6686 1.16602 9.99919 1.16602ZM6.43253 5.99935C6.43253 4.02954 8.02938 2.43268 9.99919 2.43268C11.969 2.43268 13.5659 4.02954 13.5659 5.99935C13.5659 7.96916 11.969 9.56602 9.99919 9.56602C8.02938 9.56602 6.43253 7.96916 6.43253 5.99935Z"
        fill="currentColor" stroke="currentColor" />
</svg>
