<svg width="16" height="17" viewBox="0 0 16 17" fill="none" xmlns="http://www.w3.org/2000/svg">
    <path
        d="M1.8822 16.4005C1.40095 16.4005 0.988993 16.2291 0.64633 15.8863C0.303667 15.5436 0.132367 15.1315 0.132431 14.6503L0.134046 2.4003C0.13411 1.91905 0.305519 1.50709 0.648272 1.16443C0.991026 0.821766 1.40303 0.650466 1.88428 0.65053L14.1343 0.652146C14.6155 0.652209 15.0275 0.823618 15.3701 1.16637C15.7128 1.50912 15.8841 1.92113 15.884 2.40238L15.8824 14.6524C15.8824 15.1336 15.711 15.5456 15.3682 15.8882C15.0255 16.2309 14.6134 16.4022 14.1322 16.4021L1.8822 16.4005ZM1.88243 14.6505L14.1324 14.6521L14.134 2.40215L1.88405 2.40053L1.88243 14.6505ZM2.75766 12.9006L13.2577 12.902L9.97699 8.5266L7.35153 12.0263L5.38312 9.40099L2.75766 12.9006Z"
        fill="currentColor" />
</svg>