<svg width="16" height="17" viewBox="0 0 16 17" fill="none" xmlns="http://www.w3.org/2000/svg">
    <path
        d="M1.88202 16.4005C1.40077 16.4005 0.98881 16.2291 0.646147 15.8863C0.303484 15.5436 0.132184 15.1315 0.132247 14.6503L0.133863 2.4003C0.133927 1.91905 0.305335 1.50709 0.648089 1.16443C0.990843 0.821766 1.40284 0.650466 1.88409 0.65053L14.1341 0.652146C14.6153 0.652209 15.0273 0.823618 15.37 1.16637C15.7126 1.50912 15.8839 1.92113 15.8839 2.40238L15.8822 14.6524C15.8822 15.1336 15.7108 15.5456 15.368 15.8882C15.0253 16.2309 14.6133 16.4022 14.132 16.4021L1.88202 16.4005ZM1.88225 14.6505L14.1322 14.6521L14.1339 2.40215L1.88386 2.40053L1.88225 14.6505ZM2.75748 12.9006L13.2575 12.902L9.97681 8.5266L7.35134 12.0263L5.38294 9.40099L2.75748 12.9006Z"
        fill="#43A2AC" />
</svg>