<svg width="16" height="16" viewBox="0 0 16 16" fill="none" xmlns="http://www.w3.org/2000/svg">
<path d="M9.94482 0.633301C9.98321 0.640874 10.0208 0.652507 10.0571 0.66748C10.13 0.697542 10.1966 0.741681 10.2524 0.797363L15.2026 5.74756C15.315 5.86 15.3783 6.01245 15.3784 6.17139C15.3784 6.33049 15.3151 6.48367 15.2026 6.59619C14.6972 7.10158 14.0746 7.21338 13.6284 7.21338C13.4688 7.21336 13.3245 7.19716 13.2046 7.1792L10.144 10.2397C10.2203 10.56 10.2714 10.8859 10.2944 11.2144L10.3052 11.4946C10.3119 12.1756 10.1748 13.037 9.54541 13.6665C9.43297 13.7789 9.28056 13.8422 9.12158 13.8423C8.96248 13.8423 8.80929 13.779 8.69678 13.6665L5.93799 10.9097L2.82764 14.021C2.72123 14.1274 2.40793 14.3581 2.1001 14.5366C1.94552 14.6263 1.78599 14.7064 1.6499 14.7515C1.58226 14.7739 1.51471 14.7892 1.45361 14.7905C1.39367 14.7918 1.32383 14.7799 1.27197 14.728C1.22014 14.6762 1.20817 14.6063 1.20947 14.5464C1.21084 14.4853 1.22616 14.4177 1.24854 14.3501C1.2936 14.214 1.37378 14.0545 1.46338 13.8999C1.6418 13.5921 1.87236 13.2785 1.979 13.1724L5.08936 10.061L2.3335 7.30322C2.22101 7.19071 2.15771 7.03752 2.15771 6.87842C2.15778 6.71941 2.22107 6.56705 2.3335 6.45459C3.05307 5.73515 4.07579 5.65804 4.78564 5.70557L5.04541 5.729C5.28566 5.75633 5.52393 5.79896 5.75928 5.85498L8.81982 2.79541C8.79844 2.6551 8.78607 2.51356 8.78564 2.37158C8.78564 1.92629 8.89746 1.30377 9.40381 0.797363C9.51623 0.685225 9.66885 0.62262 9.82764 0.622559L9.94482 0.633301ZM9.98682 2.37158C9.98731 2.51008 10.0062 2.64762 10.0405 2.78174L10.0493 2.79053V2.82178C10.0787 2.92191 10.0824 3.02769 10.0581 3.12939C10.0323 3.23723 9.97636 3.3352 9.89795 3.41357L9.89893 3.41455L6.36377 6.94873C6.28495 7.02721 6.18494 7.08248 6.07666 7.10791C5.97518 7.13166 5.86973 7.12765 5.77002 7.09814H5.76611L5.73877 7.09033H5.73682C5.6439 7.0625 5.55012 7.03775 5.45557 7.01611L5.45459 7.01514C5.20831 6.95772 4.9578 6.92 4.70557 6.90186V6.90088C4.3521 6.87748 4.01099 6.90111 3.72021 6.9917L9.00635 12.2778C9.09632 11.9866 9.12055 11.6467 9.09717 11.2935L9.0708 11.0317C9.03784 10.7709 8.98375 10.5125 8.90869 10.2603V10.2593L8.90479 10.2485V10.2476C8.87036 10.1428 8.86596 10.0297 8.89111 9.92236C8.91655 9.81386 8.9716 9.71417 9.05029 9.63525L12.5864 6.1001C12.668 6.01827 12.7714 5.96148 12.8843 5.93701C12.9929 5.91354 13.1058 5.92165 13.2104 5.9585L13.3032 5.97998C13.3856 5.99608 13.5006 6.01218 13.6284 6.01221C13.6731 6.01221 13.7179 6.00838 13.7622 6.00439L9.99365 2.23682C9.98959 2.28157 9.98682 2.32687 9.98682 2.37158Z" fill="currentColor" stroke="currentColor" stroke-width="0.2"/>
</svg>
