<svg width="11" height="11" viewBox="0 0 11 11" fill="none" xmlns="http://www.w3.org/2000/svg">
<path d="M6.58789 0.0996094C6.65012 0.0994982 6.71198 0.111108 6.76953 0.134766C6.82724 0.158565 6.88061 0.194199 6.9248 0.238281L10.6367 3.9502C10.7257 4.03922 10.7763 4.16026 10.7764 4.28613C10.7764 4.41209 10.7258 4.53299 10.6367 4.62207C10.2515 5.0073 9.7779 5.09269 9.43945 5.09277C9.32376 5.09277 9.21834 5.08109 9.12988 5.06836L6.85254 7.3457C6.9082 7.5827 6.94585 7.8235 6.96289 8.06641V8.06738C6.99784 8.60154 6.942 9.37831 6.39453 9.92578C6.30551 10.0148 6.18446 10.0644 6.05859 10.0645C5.93275 10.0645 5.81171 10.0147 5.72266 9.92578L3.6709 7.875L1.35547 10.1914C1.27312 10.2736 1.03601 10.4469 0.804688 10.5811C0.688206 10.6486 0.567353 10.7105 0.462891 10.7451C0.411126 10.7623 0.357873 10.7742 0.308594 10.7754C0.260366 10.7765 0.199121 10.7665 0.15332 10.7207C0.107906 10.6749 0.0985364 10.6145 0.0996094 10.5664C0.100747 10.5171 0.112738 10.4639 0.129883 10.4121C0.164496 10.3076 0.225404 10.1859 0.292969 10.0693C0.426991 9.83819 0.601191 9.60178 0.683594 9.51953L2.99902 7.20312L0.949219 5.15234C0.860284 5.06329 0.810547 4.94227 0.810547 4.81641C0.810597 4.69052 0.860215 4.5695 0.949219 4.48047C1.49681 3.93288 2.27419 3.87633 2.80859 3.91211C3.05112 3.92911 3.29169 3.96596 3.52832 4.02148L5.80566 1.74512C5.79071 1.6429 5.78157 1.53987 5.78125 1.43652V1.43555C5.78132 1.09777 5.86697 0.624277 6.25293 0.238281C6.34188 0.14956 6.46227 0.0997196 6.58789 0.0996094ZM6.73242 1.43555C6.73274 1.53539 6.74626 1.63465 6.77051 1.73145L6.7793 1.74023V1.77051C6.80157 1.8488 6.80414 1.93137 6.78516 2.01074C6.76471 2.09612 6.72129 2.17429 6.65918 2.23633L4.00781 4.88672C3.94549 4.94878 3.86685 4.99253 3.78125 5.0127C3.70187 5.03134 3.61915 5.0284 3.54102 5.00586H3.53809L3.52441 5.00195L3.51465 4.99902H3.5127C3.44362 4.97834 3.374 4.95945 3.30371 4.94336H3.30273C3.21102 4.92197 3.11843 4.90473 3.02539 4.89062L2.74512 4.85938C2.49766 4.84297 2.26006 4.85701 2.05469 4.91406L5.95996 8.81836C5.99888 8.67689 6.01885 8.52075 6.02148 8.35645L6.01562 8.12891C5.99704 7.86868 5.94933 7.6114 5.875 7.36133L5.87207 7.35156V7.35059C5.84497 7.2678 5.84147 7.17852 5.86133 7.09375C5.88146 7.00784 5.925 6.9287 5.9873 6.86621L8.63965 4.21484C8.70424 4.15009 8.78657 4.10526 8.87598 4.08594C8.96156 4.06751 9.05033 4.07364 9.13281 4.10254L9.19922 4.11816H9.2002C9.26091 4.13003 9.34551 4.1416 9.43945 4.1416C9.45384 4.1416 9.46811 4.13921 9.48242 4.13867L6.73438 1.3916C6.73381 1.40626 6.73243 1.42089 6.73242 1.43555Z" fill="currentColor" stroke="currentColor" stroke-width="0.2"/>
</svg>
