<svg width="20" height="20" viewBox="0 0 20 20" fill="none" xmlns="http://www.w3.org/2000/svg">
    <path
        d="M16.9336 7.66829C16.0482 8.20163 15.1042 8.53984 14.1016 8.68293C13.099 8.82602 12.3438 8.74146 11.8359 8.42927C11.8229 8.42927 11.7806 8.40325 11.709 8.35122C11.6374 8.29919 11.5625 8.25041 11.4844 8.20488C11.4062 8.15935 11.3281 8.13659 11.25 8.13659V13.6C11.8229 12.9366 12.474 12.3837 13.2031 11.9415C13.6068 11.6943 14.0723 11.5154 14.5996 11.4049C15.127 11.2943 15.625 11.2455 16.0938 11.2585C16.5625 11.2715 17.002 11.3008 17.4121 11.3463C17.8223 11.3919 18.1445 11.4472 18.3789 11.5122L18.75 11.5902C18.7109 11.6683 18.6491 11.7724 18.5645 11.9024C18.4798 12.0325 18.3073 12.2764 18.0469 12.6341C17.7865 12.9919 17.5195 13.3333 17.2461 13.6585C16.9727 13.9837 16.6309 14.3317 16.2207 14.7024C15.8105 15.0732 15.4036 15.3821 15 15.6293C13.3073 16.6439 12.0573 17.1772 11.25 17.2293V18.7512C11.25 19.0894 11.1296 19.3821 10.8887 19.6293C10.6478 19.8764 10.3516 20 10 20C9.64844 20 9.35221 19.8764 9.11133 19.6293C8.87044 19.3821 8.75 19.0894 8.75 18.7512V17.4634C8.13802 17.5415 7.42513 17.4829 6.61133 17.2878C5.79753 17.0927 5.04557 16.7935 4.35547 16.3902C3.95182 16.1561 3.56771 15.8341 3.20312 15.4244C2.83854 15.0146 2.54232 14.6049 2.31445 14.1951C2.08659 13.7854 1.88802 13.3854 1.71875 12.9951C1.54948 12.6049 1.42904 12.2959 1.35742 12.0683C1.28581 11.8407 1.25 11.7203 1.25 11.7073C1.35417 11.6683 1.49089 11.626 1.66016 11.5805C1.82943 11.535 2.1582 11.4699 2.64648 11.3854C3.13477 11.3008 3.60352 11.2553 4.05273 11.2488C4.50195 11.2423 4.99349 11.3008 5.52734 11.4244C6.0612 11.548 6.51693 11.7528 6.89453 12.039C7.27214 12.3252 7.89062 13.1122 8.75 14.4V9.38537C8.67188 9.38537 8.59375 9.40813 8.51562 9.45366C8.4375 9.49919 8.36263 9.54797 8.29102 9.6C8.2194 9.65203 8.17708 9.68455 8.16406 9.69756C7.65625 9.99675 6.90104 10.0748 5.89844 9.93171C4.89583 9.78862 3.95182 9.45041 3.06641 8.91707C2.66276 8.66992 2.27865 8.33171 1.91406 7.90244C1.54948 7.47317 1.25977 7.06341 1.04492 6.67317C0.830078 6.28293 0.634766 5.86341 0.458984 5.41463C0.283203 4.96585 0.169271 4.65691 0.117188 4.4878C0.0651042 4.3187 0.0260417 4.18862 0 4.09756C0.0911458 4.07154 0.218099 4.03902 0.380859 4C0.54362 3.96098 0.859375 3.9122 1.32812 3.85366C1.79688 3.79512 2.24609 3.7626 2.67578 3.7561C3.10547 3.74959 3.59049 3.80163 4.13086 3.9122C4.67122 4.02276 5.14323 4.20163 5.54688 4.44878C6.35417 4.93008 7.05404 5.5122 7.64648 6.19512C8.23893 6.87805 8.60677 7.5252 8.75 8.13659V4.99512C8.75 4.96911 8.75651 4.91707 8.76953 4.83902C8.18359 4.68293 7.65625 4.44878 7.1875 4.13659C6.73177 3.82439 6.32161 3.34634 5.95703 2.70244C5.59245 2.05854 5.34505 1.48943 5.21484 0.995122L5 0.253659C5.0651 0.24065 5.15625 0.217886 5.27344 0.185366C5.39062 0.152846 5.61523 0.113821 5.94727 0.0682927C6.2793 0.0227642 6.59831 0 6.9043 0C7.21029 0 7.55859 0.0422764 7.94922 0.126829C8.33984 0.211382 8.67839 0.35122 8.96484 0.546341C9.60286 0.962602 10.1432 1.50569 10.5859 2.17561C11.0286 2.84553 11.25 3.36911 11.25 3.74634V6.8878C11.3932 6.27642 11.7611 5.62927 12.3535 4.94634C12.946 4.26341 13.6458 3.6813 14.4531 3.2C14.8568 2.95285 15.3223 2.77398 15.8496 2.66341C16.377 2.55285 16.875 2.50407 17.3438 2.51707C17.8125 2.53008 18.252 2.55935 18.6621 2.60488C19.0723 2.65041 19.3945 2.69919 19.6289 2.75122L20 2.84878C19.974 2.93984 19.9382 3.06667 19.8926 3.22927C19.847 3.39187 19.7331 3.70081 19.5508 4.1561C19.3685 4.61138 19.1699 5.03415 18.9551 5.42439C18.7402 5.81463 18.4505 6.22439 18.0859 6.65366C17.7214 7.08293 17.3372 7.42114 16.9336 7.66829Z"
        fill="#38794B" />
</svg>
