<svg width="24" height="24" viewBox="0 0 40 40" fill="none" xmlns="http://www.w3.org/2000/svg">
<path d="M20 0C31.028 0 40 8.97 40 20C40 31.028 31.028 40 20 40C17.21 40 14.51 39.438 11.974 38.324C11.242 38.004 10.91 37.15 11.23 36.418C11.55 35.682 12.402 35.352 13.138 35.674C15.304 36.624 17.612 37.106 20 37.106C29.43 37.106 37.104 29.43 37.104 20C37.104 10.568 29.43 2.896 20 2.896C10.568 2.896 2.896 10.568 2.896 20C2.896 23.694 4.052 27.208 6.244 30.168C6.718 30.81 6.584 31.716 5.942 32.192C5.298 32.67 4.392 32.538 3.916 31.89C1.354 28.432 0 24.32 0 20C0 8.97 8.972 0 20 0ZM17.7278 12.0608C18.1738 12.0728 18.9898 12.3768 19.3198 12.5068C21.3584 13.2974 25.1314 15.8082 26.8888 17.5098L27.1938 17.8188L27.3518 17.9888C27.5398 18.1868 27.7718 18.4388 27.8258 18.5068C28.1598 18.9328 28.3418 19.4628 28.3418 20.0008C28.3418 20.5108 28.1818 21.0028 27.8818 21.4168C27.8258 21.492 27.6239 21.7182 27.443 21.9143L27.3138 22.0528L27.2158 22.1568C25.5878 23.9088 21.5578 26.5568 19.5218 27.4148C19.5109 27.4203 18.5082 27.8373 17.8858 27.9236L17.7118 27.9388H17.6398C16.7558 27.9388 15.9198 27.4328 15.5078 26.6368C15.3362 26.3037 15.1698 25.5284 15.0911 25.1257L15.0497 24.9063L15.0438 24.8728C14.8538 23.7168 14.7458 21.9388 14.7497 19.9988C14.7458 17.9468 14.8658 16.1048 15.0758 14.9468C15.0778 14.9308 15.2778 13.8848 15.4278 13.5328C15.6318 13.0388 16.0158 12.6148 16.5018 12.3508C16.8938 12.1448 17.3038 12.0548 17.7278 12.0608ZM17.9978 15.1008C17.9678 15.2388 17.9398 15.3748 17.9238 15.4668C17.7498 16.4288 17.6418 18.1668 17.6438 19.9988C17.6418 21.7648 17.7378 23.4128 17.9018 24.4028C17.9218 24.5268 17.9598 24.7168 18.0018 24.9008C18.1458 24.8428 18.3018 24.7848 18.3998 24.7448C20.2518 23.9648 23.8798 21.4948 25.0938 20.1828C25.1038 20.1848 25.2078 20.0668 25.2098 20.0628C25.2278 20.0428 25.2478 20.0208 25.2698 20.0008L25.2558 19.9858L25.2418 19.9708L25.0738 19.7928C23.8198 18.4508 19.9978 15.8748 18.2638 15.2008C18.2018 15.1768 18.1058 15.1408 17.9978 15.1008Z" fill="black"/>
</svg>
