<svg width="16" height="16" viewBox="0 0 16 16" xmlns="http://www.w3.org/2000/svg">
<path d="M7.75 0C8.00693 0 8.25333 0.102065 8.43501 0.28374C8.61669 0.465416 8.71875 0.711821 8.71875 0.96875V6.78125H14.5312C14.7882 6.78125 15.0346 6.88331 15.2163 7.06499C15.3979 7.24667 15.5 7.49307 15.5 7.75C15.5 8.00693 15.3979 8.25333 15.2163 8.43501C15.0346 8.61669 14.7882 8.71875 14.5312 8.71875H8.71875V14.5312C8.71875 14.7882 8.61669 15.0346 8.43501 15.2163C8.25333 15.3979 8.00693 15.5 7.75 15.5C7.49307 15.5 7.24667 15.3979 7.06499 15.2163C6.88331 15.0346 6.78125 14.7882 6.78125 14.5312V8.71875H0.96875C0.711821 8.71875 0.465416 8.61669 0.28374 8.43501C0.102065 8.25333 0 8.00693 0 7.75C0 7.49307 0.102065 7.24667 0.28374 7.06499C0.465416 6.88331 0.711821 6.78125 0.96875 6.78125H6.78125V0.96875C6.78125 0.711821 6.88331 0.465416 7.06499 0.28374C7.24667 0.102065 7.49307 0 7.75 0Z" fill="currentColor"/>
</svg>
