<svg width="24" height="20" viewBox="0 0 24 20" fill="none" xmlns="http://www.w3.org/2000/svg">
<path d="M13.2857 0C7.78321 0 3.32143 4.46179 3.32143 9.96429H0L4.30679 14.2711L4.38429 14.4261L8.85714 9.96429H5.53571C5.53571 5.67964 9.00107 2.21429 13.2857 2.21429C17.5704 2.21429 21.0357 5.67964 21.0357 9.96429C21.0357 14.2489 17.5704 17.7143 13.2857 17.7143C11.1489 17.7143 9.21143 16.8396 7.81643 15.4336L6.24429 17.0057C8.04893 18.8104 10.5289 19.9286 13.2857 19.9286C18.7882 19.9286 23.25 15.4668 23.25 9.96429C23.25 4.46179 18.7882 0 13.2857 0ZM12.1786 5.53571V11.0714L16.9171 13.8836L17.7143 12.5439L13.8393 10.2411V5.53571H12.1786Z" fill="black"/>
</svg>
