<svg width="123" height="135" viewBox="0 0 123 135" fill="none" xmlns="http://www.w3.org/2000/svg">
<path d="M59.8239 124.68V124.68H59.8305H61.4205C67.102 124.68 72.7311 123.885 78.3072 122.294C80.1281 125.714 82.777 128.551 86.2476 130.804C89.7782 133.096 93.3228 134.25 96.8778 134.25H108.962H119.615C120.31 134.25 120.902 134.013 121.374 133.536C121.951 133.06 122.25 132.453 122.25 131.729C122.25 131.005 121.951 130.398 121.374 129.922C120.902 129.446 120.31 129.209 119.615 129.209H110.72L102.263 108.601C108.587 102.765 113.493 95.9096 116.982 88.0379L116.982 88.0367C120.494 80.003 122.25 71.5347 122.25 62.6342C122.25 54.168 120.654 46.1872 117.46 38.6943C114.269 31.0975 109.905 24.5286 104.37 18.9901C98.8353 13.3448 92.3962 8.89368 85.054 5.63733C77.7066 2.37861 69.8278 0.75 61.4205 0.75H59.8305V0.749912L59.8239 0.750088C51.6286 0.967232 43.9098 2.75892 36.6699 6.12576L36.6686 6.12636C29.5398 9.49103 23.3136 13.942 17.9919 19.4792C12.6691 25.0175 8.46541 31.5319 5.38014 39.02C2.29294 46.4046 0.75 54.2768 0.75 62.6342C0.75 71.0994 2.29285 79.0259 5.38038 86.4111C8.46564 93.7908 12.6689 100.304 17.9902 105.95L17.9919 105.951C23.3136 111.488 29.5398 115.939 36.6686 119.304L36.6699 119.305C43.9098 122.672 51.6286 124.463 59.8239 124.68ZM112.706 40.6712L112.707 40.6742C115.661 47.5623 117.139 54.8815 117.139 62.6342C117.139 70.4942 115.609 77.9755 112.548 85.0804L112.547 85.0833C109.639 92.0754 105.505 98.2327 100.145 103.557L92.9742 86.5419L92.973 86.5392C92.1157 84.5715 90.9905 82.7675 89.5978 81.1278C88.2077 79.383 86.6557 77.9084 84.9415 76.7056C83.2263 75.3941 81.3499 74.4095 79.3132 73.7524C77.3806 72.9867 75.4439 72.6024 73.5046 72.6024H61.4205H34.0043V30.5195C34.0043 27.2029 34.6857 24.1038 36.0474 21.2189L36.0488 21.2158C37.4138 18.2168 39.2497 15.6492 41.5563 13.5101L41.5564 13.5102L41.5607 13.5059C43.8685 11.2589 46.5969 9.49196 49.7489 8.20587L49.7489 8.20597L49.7555 8.20305C52.9038 6.81138 56.2627 6.06127 59.8342 5.95367H61.4205C69.1249 5.95367 76.3511 7.46069 83.1018 10.4734L83.1049 10.4748C89.8595 13.3816 95.7684 17.4181 100.833 22.5848C105.898 27.7514 109.856 33.7795 112.706 40.6712ZM69.0153 118.993C66.5903 119.315 64.0588 119.477 61.4205 119.477H59.8342C56.2611 119.369 52.901 118.673 49.752 117.388C46.5988 115.994 43.8692 114.172 41.5607 111.925C39.25 109.674 37.4125 107.104 36.0474 104.212C34.6857 101.327 34.0043 98.2276 34.0043 94.911V77.8061H59.8222L76.1855 117.45C73.8445 118.064 71.4544 118.578 69.0153 118.993Z" stroke="#E1E1E1" stroke-width="0.5"/>
</svg>
