<svg width="31" height="31" viewBox="0 0 31 31" fill="none" xmlns="http://www.w3.org/2000/svg">
<path d="M15.5 0L26.4602 4.53984L31 15.5L26.4602 26.4602L15.5 31L4.53984 26.4602L0 15.5L4.53984 4.53984L15.5 0Z" fill="#141414"/>
<g clip-path="url(#clip0_4016:37152)">
<path fill-rule="evenodd" clip-rule="evenodd" d="M7.3406 13.9376C5.95144 12.5484 3.54546 12.5954 3.21812 14.5325C2.91772 16.3101 3.45346 18.2015 4.82529 19.5733C6.84515 21.5932 9.27784 24.0259 11.2977 26.0457C12.6695 27.4176 14.5608 27.9532 16.3384 27.6528C18.2755 27.3254 18.3224 24.9194 16.9333 23.5303L7.3406 13.9376Z" fill="url(#paint0_linear_4016:37152)"/>
<path fill-rule="evenodd" clip-rule="evenodd" d="M16.9351 7.46509C18.3243 6.07593 18.2768 3.67046 16.3397 3.34312C14.5621 3.04272 12.6707 3.57846 11.2989 4.95029L4.82645 11.4227C3.74569 12.5035 3.13838 13.9695 3.13845 15.4981C3.1383 17.0268 3.7457 18.4926 4.82653 19.5735C6.94184 21.6888 9.08925 23.8362 9.08925 23.8362L8.90207 23.649V23.649C6.65125 21.3982 6.65119 17.749 8.90198 15.4982C11.4794 12.9209 14.7288 9.67145 16.9351 7.46509Z" fill="white"/>
<path fill-rule="evenodd" clip-rule="evenodd" d="M25.9223 11.4274C28.1731 13.6782 28.1732 17.3276 25.9223 19.5785L25.9199 19.576C25.9198 19.576 25.9198 19.576 25.9198 19.576L19.4474 26.0484C17.1966 28.2992 13.5472 28.2993 11.2964 26.0484L21.8443 15.5005L11.2991 4.95518C13.5499 2.70432 17.1991 2.70421 19.4499 4.95501L25.9223 11.4274Z" fill="url(#paint1_linear_4016:37152)"/>
<path fill-rule="evenodd" clip-rule="evenodd" d="M11.2924 26.0379C12.3733 27.1188 13.8394 27.726 15.368 27.726C16.8966 27.7259 18.3626 27.1187 19.4435 26.0378C19.8375 25.6438 20.2372 25.2441 20.6313 24.85C21.7122 23.7692 22.3194 22.3031 22.3195 20.7745C22.3194 19.246 21.7122 17.7799 20.6313 16.699L11.2924 26.0379Z" fill="url(#paint2_linear_4016:37152)"/>
<path fill-rule="evenodd" clip-rule="evenodd" d="M30.7984 24.458L28.1721 24.2283V24.2283C26.3884 22.4446 23.0413 19.0975 20.8729 16.9291C19.6858 15.742 17.8177 15.5786 16.4425 16.5415C14.6924 17.767 12.6166 19.2205 12.6166 19.2205L15.2428 19.4502V19.4502C17.0266 21.2339 20.3737 24.581 22.5421 26.7494C23.7291 27.9365 25.5972 28.0999 26.9724 27.1369C28.7226 25.9115 30.7984 24.458 30.7984 24.458Z" fill="white"/>
</g>
<defs>
<linearGradient id="paint0_linear_4016:37152" x1="12.6184" y1="21.8342" x2="7.49095" y2="16.7068" gradientUnits="userSpaceOnUse">
<stop stop-color="white"/>
<stop offset="1" stop-color="#B6CCF8"/>
</linearGradient>
<linearGradient id="paint1_linear_4016:37152" x1="22.9625" y1="13.4157" x2="19.8941" y2="22.7005" gradientUnits="userSpaceOnUse">
<stop stop-color="white"/>
<stop offset="1" stop-color="#B6CCF8"/>
</linearGradient>
<linearGradient id="paint2_linear_4016:37152" x1="17.2506" y1="24.527" x2="20.2349" y2="21.5427" gradientUnits="userSpaceOnUse">
<stop stop-color="white"/>
<stop offset="1" stop-color="#B6CCF8"/>
</linearGradient>
<clipPath id="clip0_4016:37152">
<rect width="27" height="27" fill="white" transform="translate(3 2)"/>
</clipPath>
</defs>
</svg>
