<svg width="24" height="30" viewBox="0 0 24 30" fill="none" xmlns="http://www.w3.org/2000/svg">
    <path fill-rule="evenodd" clip-rule="evenodd"
        d="M13.9448 0L12.6797 1.85968L14.7663 3.32953L13.5284 5.1492L15.9683 6.86794L17.2334 5.00826L15.1468 3.53841L16.3847 1.71874L13.9448 0Z"
        fill="#AF772A" />
    <path
        d="M9.59116 3.8895C11.466 4.12798 12.7754 3.01711 13.1918 2.46875C12.6774 3.41592 11.5752 5.23548 9.95857 5.16071C8.26383 5.08232 7.82756 4.78682 6.21094 5.75892C6.28442 5.31026 6.06397 3.44085 9.59116 3.8895Z"
        fill="#16A085" />
    <path fill-rule="evenodd" clip-rule="evenodd"
        d="M17.2717 7.81268C17.2327 8.11779 17.2236 8.47811 17.3265 8.75711C17.5394 9.33499 19.1924 11.9365 19.3045 12.1127C19.3087 12.1193 19.3122 12.1252 19.3159 12.1322C19.8027 13.0615 20.111 15.4036 17.7673 17.7303C14.8042 20.6721 13.2626 20.8652 9.78697 19.3768C9.6803 19.3311 9.55508 19.3496 9.46796 19.4262L5.46278 22.9492C5.36092 23.0388 5.20471 23.0245 5.12086 22.9178C5.04278 22.8185 5.05661 22.6754 5.15228 22.5928L8.16314 19.9952C8.27669 19.8972 8.30012 19.7303 8.21794 19.6049L6.01199 16.2377C5.92755 16.1088 5.95486 15.9369 6.07507 15.8405L7.63616 14.5889C7.85523 14.4132 8.17373 14.6091 8.11587 14.8838L8.0915 14.9996C8.07612 15.0726 8.08861 15.1488 8.12653 15.2131L9.58233 17.6821C9.6011 17.714 9.62453 17.7414 9.65397 17.7638C11.1064 18.866 15.1117 19.7805 17.5879 16.281C17.6091 16.251 17.625 16.2168 17.6308 16.1805C17.6617 15.9875 17.7086 15.3487 16.959 15.4122H13.7993C12.991 15.4122 11.3861 14.1917 12.5501 11.8229C13.6345 9.61585 15.4758 8.17891 16.824 7.46322C17.0481 7.34425 17.3038 7.561 17.2717 7.81268ZM16.7446 13.188L14.949 10.7898C14.804 10.5961 14.5043 10.6477 14.4554 10.8848C14.1716 12.2593 14.5757 13.5351 16.5654 13.5449C16.5804 13.545 16.5958 13.5435 16.6105 13.5405C16.771 13.5078 16.8428 13.3192 16.7446 13.188Z"
        fill="#AF772A" />
    <path
        d="M11.4317 25.1261V5.08594L8.125 7.92745L9.30073 9.12387V24.5278C9.30073 27.818 13.1953 27.818 15.6938 25.5747C12.872 27.1301 11.6767 25.9237 11.4317 25.1261Z"
        fill="#3999CD" />
    <path fill-rule="evenodd" clip-rule="evenodd"
        d="M23.6777 14.9995L23.2291 15.6158C23.1546 15.7181 23.1145 15.8413 23.1145 15.9678V24.0007C23.1145 24.1441 23.0648 24.2823 22.9667 24.3868C21.5489 25.8968 17.0426 29.1855 11.9451 29.906C6.66916 30.6516 4.67028 26.7654 3.86197 25.1203C3.17491 23.722 2.32859 20.4328 2.09013 19.4775L0 17.9089L1.49594 15.8447L3.97984 17.7087L2.4839 19.773L2.18676 19.55C4.32151 23.8671 10.1843 31.0209 17.9332 25.7486C18.0931 25.6397 18.1912 25.4494 18.1911 25.256C18.1897 20.3844 18.1547 18.525 18.1336 17.3985C18.1243 16.9045 18.1177 16.5515 18.1177 16.1471C18.1177 15.1972 21.1554 14.4335 23.0724 14.04C23.6071 13.9302 23.9989 14.5582 23.6777 14.9995Z"
        fill="#9C2F45" />
</svg>
