<svg width="143" height="24" viewBox="0 0 143 24" fill="none" xmlns="http://www.w3.org/2000/svg">
    <path opacity="0.973" fill-rule="evenodd" clip-rule="evenodd"
        d="M7.35036 0.267578C12.3282 0.365967 15.0704 2.8637 15.577 7.76079C15.8477 10.1749 15.59 12.5279 14.804 14.8196C13.4467 17.6892 11.1461 19.1372 7.90248 19.1635C4.10675 19.1036 1.65907 17.2937 0.559241 13.7336C-0.188886 10.6957 -0.0784612 7.69129 0.890516 4.72007C2.1043 1.90685 4.25759 0.422764 7.35036 0.267578ZM7.46079 3.5255C9.72394 3.55981 11.0674 4.68195 11.4913 6.89201C11.8128 8.659 11.8496 10.4327 11.6017 12.2133C11.1685 14.8871 9.60413 16.0635 6.90866 15.7427C5.33434 15.1297 4.43261 13.9894 4.20326 12.3219C3.70149 9.94653 3.88556 7.62971 4.75538 5.37165C5.37608 4.34302 6.27792 3.7276 7.46079 3.5255Z"
        fill="currentColor" />
    <path opacity="0.956" fill-rule="evenodd" clip-rule="evenodd"
        d="M100.659 0.37525C102.627 0.324101 104.577 0.468861 106.512 0.809639C106.493 5.91382 106.512 11.0179 106.567 16.1219C106.686 16.7639 107.072 17.1259 107.726 17.2078C108.284 17.1257 108.836 17.0171 109.383 16.882C109.425 17.4112 109.499 17.9361 109.603 18.4567C109.359 18.6827 109.065 18.8276 108.72 18.8911C107.586 19.1739 106.482 19.1014 105.407 18.6739C104.757 18.246 104.408 17.6487 104.358 16.882C104.303 12.0677 104.284 7.25326 104.303 2.4386C103.511 2.37909 102.72 2.30665 101.929 2.2214C101.284 2.25496 100.677 2.41786 100.107 2.71009C99.8054 2.99527 99.6033 3.3392 99.4995 3.74177C99.3604 4.42256 99.3052 5.11031 99.3339 5.80511C100.217 5.80511 101.101 5.80511 101.984 5.80511C101.984 6.4567 101.984 7.10828 101.984 7.75987C101.101 7.75987 100.217 7.75987 99.3339 7.75987C99.3339 11.416 99.3339 15.072 99.3339 18.7282C98.5974 18.7282 97.8619 18.7282 97.1254 18.7282C97.1254 15.072 97.1254 11.416 97.1254 7.75987C96.4264 7.75987 95.7263 7.75987 95.0273 7.75987C95.0273 7.10828 95.0273 6.4567 95.0273 5.80511C95.7263 5.80511 96.4264 5.80511 97.1254 5.80511C96.9962 4.43212 97.2358 3.12895 97.8432 1.89561C98.5863 1.03248 99.5249 0.525657 100.659 0.37525Z"
        fill="currentColor" />
    <path opacity="0.965" fill-rule="evenodd" clip-rule="evenodd"
        d="M71.8377 0.484553C73.3582 0.420915 74.8677 0.511377 76.3651 0.756046C78.2357 1.25668 79.3952 2.43311 79.8435 4.28546C80.3338 7.44955 79.0639 9.58522 76.0338 10.6927C76.3651 10.9995 76.714 11.2891 77.0829 11.5615C78.5736 13.9145 80.0643 16.2673 81.5551 18.6203C80.6739 18.7468 79.7905 18.765 78.9049 18.6746C77.2253 16.1864 75.5877 13.6705 73.991 11.1271C73.154 10.906 72.307 10.725 71.4512 10.5841C71.396 13.2988 71.3772 16.0137 71.396 18.7289C70.6595 18.7289 69.924 18.7289 69.1875 18.7289C69.1875 12.756 69.1875 6.7832 69.1875 0.810345C70.0886 0.717711 70.972 0.609114 71.8377 0.484553ZM72.0585 2.4393C72.9795 2.42128 73.8993 2.4393 74.8192 2.4936C76.5031 2.86511 77.4241 3.89679 77.5798 5.58863C77.4671 7.52741 76.4369 8.66768 74.4879 9.00944C73.4576 9.06374 72.4274 9.08177 71.396 9.06374C71.396 6.89179 71.396 4.71985 71.396 2.5479C71.6433 2.57994 71.8642 2.54367 72.0585 2.4393Z"
        fill="currentColor" />
    <path opacity="0.946" fill-rule="evenodd" clip-rule="evenodd"
        d="M143.059 17.7513C143.059 17.9685 143.059 18.1857 143.059 18.4029C141.718 18.9666 140.318 19.1656 138.863 19.0001C137.915 18.7961 137.307 18.2351 137.041 17.3169C136.927 16.8528 136.853 16.3823 136.82 15.9051C136.765 13.1904 136.746 10.4755 136.765 7.76032C136.102 7.76032 135.44 7.76032 134.777 7.76032C134.777 7.10874 134.777 6.45715 134.777 5.80557C135.44 5.80557 136.102 5.80557 136.765 5.80557C136.746 4.9722 136.765 4.13958 136.82 3.30783C137.495 3.08054 138.176 2.86335 138.863 2.65625C138.973 3.70356 139.01 4.75326 138.973 5.80557C140.152 5.80557 141.329 5.80557 142.507 5.80557C142.507 6.45715 142.507 7.10874 142.507 7.76032C141.329 7.76032 140.152 7.76032 138.973 7.76032C138.955 10.3307 138.973 12.9009 139.029 15.4707C138.987 16.4784 139.466 17.0576 140.464 17.2083C141.234 17.0826 141.988 16.9017 142.728 16.6653C142.797 17.0506 142.908 17.4126 143.059 17.7513Z"
        fill="currentColor" />
    <path opacity="0.965" fill-rule="evenodd" clip-rule="evenodd"
        d="M37.9384 5.48242C38.5652 5.5036 39.1726 5.6122 39.7605 5.80821C39.7323 6.86269 39.6219 7.9125 39.4292 8.95754C39.3835 9.00716 39.3283 9.04344 39.2635 9.06613C38.2749 8.59232 37.3179 8.64662 36.3925 9.22903C36.0578 9.50693 35.8185 9.85086 35.6747 10.2607C35.6195 13.084 35.6011 15.9075 35.6195 18.7313C34.4416 18.7313 33.2638 18.7313 32.0859 18.7313C32.0859 14.4236 32.0859 10.1159 32.0859 5.80821C33.0091 5.77227 33.9293 5.80843 34.8466 5.91681C34.9751 6.42244 35.104 6.92926 35.233 7.43717C35.8135 6.33958 36.7154 5.688 37.9384 5.48242Z"
        fill="currentColor" />
    <path opacity="0.975" fill-rule="evenodd" clip-rule="evenodd"
        d="M60.4622 5.48318C61.5094 5.42236 62.54 5.51283 63.5541 5.75467C64.8314 6.43601 65.5123 7.50385 65.5969 8.95829C65.6521 12.216 65.6706 15.4739 65.6521 18.732C64.5111 18.732 63.37 18.732 62.229 18.732C62.2771 15.8325 62.2219 12.9365 62.0633 10.0443C61.7661 8.80224 60.9747 8.31355 59.6892 8.5782C58.7244 8.83927 58.0802 9.43655 57.7568 10.3701C57.7016 13.1572 57.6831 15.9445 57.7016 18.732C56.5237 18.732 55.3459 18.732 54.168 18.732C54.168 14.4243 54.168 10.1167 54.168 5.80897C55.125 5.80897 56.082 5.80897 57.039 5.80897C57.1184 6.36206 57.2473 6.90504 57.4255 7.43793C58.2294 6.44383 59.2417 5.79225 60.4622 5.48318Z"
        fill="currentColor" />
    <path opacity="0.953" fill-rule="evenodd" clip-rule="evenodd"
        d="M87.5179 5.47915C91.3154 5.16031 93.2655 6.86159 93.3704 10.5832C93.3229 11.163 93.2677 11.7423 93.2047 12.3208C90.4143 12.5363 87.5985 12.6088 84.7572 12.538C84.7396 13.8119 85.0896 14.9702 85.8063 16.0131C86.6731 16.8005 87.7034 17.1988 88.8982 17.2077C90.0565 17.1358 91.1056 16.7738 92.0453 16.1217C92.3534 16.6378 92.6482 17.1627 92.9287 17.6963C90.7367 19.1052 88.3814 19.431 85.8615 18.6737C83.8617 17.6804 82.7762 16.0694 82.604 13.8411C82.3666 11.9367 82.5874 10.0905 83.2665 8.30268C84.1808 6.61453 85.5976 5.67332 87.5179 5.47915ZM87.5179 7.4339C90.0499 7.17251 91.2646 8.29464 91.1619 10.8004C89.0638 10.8004 86.9657 10.8004 84.8677 10.8004C84.8831 8.98771 85.7665 7.86557 87.5179 7.4339Z"
        fill="currentColor" />
    <path opacity="0.952" fill-rule="evenodd" clip-rule="evenodd"
        d="M116.007 5.48311C119.83 5.17155 121.781 6.89107 121.859 10.6415C121.807 11.2029 121.752 11.7641 121.694 12.3247C118.903 12.5403 116.087 12.6127 113.246 12.5419C113.229 13.8159 113.579 14.9742 114.295 16.017C115.162 16.8045 116.192 17.2027 117.387 17.2116C118.545 17.1397 119.595 16.7778 120.534 16.1256C120.842 16.6418 121.137 17.1667 121.418 17.7003C119.226 19.1092 116.869 19.435 114.35 18.6777C113.081 18.1528 112.178 17.2659 111.645 16.017C111.019 14.0641 110.872 12.0732 111.203 10.0442C111.711 7.38997 113.312 5.86961 116.007 5.48311ZM116.007 7.43786C118.54 7.17766 119.755 8.29991 119.651 10.8044C117.553 10.8044 115.455 10.8044 113.357 10.8044C113.372 8.99167 114.255 7.86954 116.007 7.43786Z"
        fill="currentColor" />
    <path opacity="0.949" fill-rule="evenodd" clip-rule="evenodd"
        d="M128.924 5.47983C130.365 5.40598 131.764 5.60504 133.12 6.07712C133.306 6.1148 133.416 6.2234 133.452 6.40291C133.296 7.01007 133.056 7.57109 132.734 8.08616C128.563 6.4521 126.41 7.8277 126.274 12.2129C126.164 13.7532 126.605 15.1107 127.599 16.2853C129.396 17.4554 131.199 17.4373 133.01 16.231C133.315 16.7871 133.517 17.3662 133.617 17.9685C131.816 19.0088 129.884 19.3165 127.82 18.8916C125.573 18.1634 124.34 16.6251 124.121 14.2762C123.744 12.0964 124.003 9.99693 124.894 7.97757C125.828 6.49598 127.172 5.66336 128.924 5.47983Z"
        fill="currentColor" />
    <path opacity="0.969" fill-rule="evenodd" clip-rule="evenodd"
        d="M44.8937 5.5897C46.1512 5.54811 47.4027 5.60241 48.6481 5.7526C50.1628 6.15615 51.0647 7.11549 51.3535 8.63043C51.425 9.19003 51.4802 9.75104 51.5192 10.3137C51.345 12.3563 51.2898 14.4016 51.3535 16.4494C51.4186 17.2216 51.5475 17.9817 51.74 18.73C50.7802 18.7659 49.8232 18.7298 48.869 18.6214C48.6846 18.1123 48.5005 17.6054 48.3169 17.101C47.0817 18.6554 45.4622 19.2527 43.4582 18.8929C41.1372 18.2577 40.1249 16.7554 40.4215 14.3861C40.7854 12.9422 41.6872 11.9828 43.1269 11.5083C44.7151 11.0707 46.3346 10.9078 47.9856 11.0196C48.0039 10.4754 47.9855 9.9324 47.9304 9.39061C47.7417 8.84317 47.3552 8.5354 46.7709 8.46753C45.1487 8.34894 43.5843 8.58427 42.0779 9.17341C41.7218 8.33993 41.4088 7.48929 41.1393 6.62138C42.3512 6.10641 43.6027 5.76259 44.8937 5.5897ZM46.2188 13.0829C46.8077 13.0829 47.3967 13.0829 47.9856 13.0829C48.2931 14.953 47.4834 15.9666 45.5563 16.1236C44.3823 16.0371 43.8854 15.4217 44.0655 14.2775C44.1523 13.9427 44.3547 13.7075 44.6729 13.5716C45.1838 13.3496 45.6991 13.1867 46.2188 13.0829Z"
        fill="currentColor" />
    <path opacity="0.974" fill-rule="evenodd" clip-rule="evenodd"
        d="M17.9483 5.80859C19.0893 5.80859 20.2305 5.80859 21.3715 5.80859C21.3267 8.74354 21.3819 11.6757 21.5371 14.605C21.6926 15.573 22.2632 16.0436 23.2487 16.0167C24.3555 15.9245 25.1469 15.3816 25.6228 14.3878C25.6781 11.5283 25.6965 8.6685 25.6781 5.80859C26.856 5.80859 28.0337 5.80859 29.2116 5.80859C29.1932 9.21149 29.2116 12.6142 29.2669 16.0167C29.3186 16.9342 29.4475 17.8392 29.6533 18.7317C28.7692 18.7497 27.8858 18.7317 27.0031 18.6774C26.7572 18.0967 26.5548 17.4994 26.3958 16.8855C24.5837 19.1526 22.32 19.7137 19.6047 18.5688C18.6335 17.7734 18.0997 16.7417 18.0035 15.4738C17.9483 12.2522 17.9299 9.03057 17.9483 5.80859Z"
        fill="currentColor" />
    <path opacity="0.967" fill-rule="evenodd" clip-rule="evenodd"
        d="M4.58804 19.4892C5.50898 19.4712 6.42915 19.4892 7.34865 19.5435C9.43458 20.0654 11.5326 20.5359 13.6429 20.9552C14.9389 21.0484 16.2271 20.9941 17.5077 20.7923C17.5444 21.8447 17.5075 22.8944 17.3973 23.9417C16.1279 24.247 14.8396 24.3376 13.5324 24.2132C11.2675 23.792 9.02225 23.2853 6.79653 22.6928C6.01252 22.4855 5.23954 22.5036 4.47761 22.7471C4.44084 22.2222 4.40396 21.6973 4.36719 21.1724C4.37304 20.5846 4.44669 20.0235 4.58804 19.4892Z"
        fill="currentColor" />
</svg>
