<svg width="100%" height="100%" viewBox="0 0 174 31" fill="none" xmlns="http://www.w3.org/2000/svg">
    <g clip-path="url(#clip0_32649_66700)">
        <path fill-rule="evenodd" clip-rule="evenodd"
            d="M15.1778 0.5L13.8008 2.35968L16.0719 3.82954L14.7245 5.6492L17.3802 7.36794L18.757 5.50826L16.486 4.03841L17.8333 2.21874L15.1778 0.5Z"
            fill="#AF772A" />
        <path
            d="M10.4408 4.38951C12.4813 4.62799 13.9065 3.51711 14.3597 2.96875C13.7999 3.91592 12.6002 5.73548 10.8406 5.66071C8.99607 5.58232 8.52127 5.28682 6.76172 6.25892C6.84169 5.81026 6.60176 3.94085 10.4408 4.38951Z"
            fill="#16A085" />
        <path fill-rule="evenodd" clip-rule="evenodd"
            d="M18.8278 8.14494C18.7664 8.47712 18.7273 8.92399 18.8604 9.25588C19.0934 9.83665 20.9095 12.4616 21.0151 12.6139C21.0185 12.6188 21.0212 12.6232 21.0242 12.6284C21.5549 13.5558 21.8935 15.9001 19.3403 18.2291C16.0998 21.1848 14.4214 21.3657 10.6003 19.8542C10.517 19.8212 10.4191 19.8345 10.3508 19.8897L5.9296 23.4629C5.82816 23.5448 5.67419 23.5316 5.59043 23.4337L5.56743 23.4068C5.48751 23.3134 5.50157 23.1775 5.59915 23.1002L8.94235 20.4501C9.03388 20.3775 9.05269 20.2524 8.98614 20.1589L6.50478 16.679C6.43638 16.5832 6.45832 16.4542 6.55517 16.3828L8.50825 14.9441C8.68214 14.8161 8.93207 14.9617 8.88568 15.1641L8.8026 15.5266C8.79004 15.5814 8.80015 15.6386 8.83098 15.6866L10.4398 18.1935C10.4549 18.217 10.4735 18.2371 10.4969 18.2536C12.0686 19.3611 16.4524 20.2908 19.1541 16.7679C19.1712 16.7456 19.184 16.72 19.1891 16.6931C19.2222 16.5189 19.297 15.8458 18.4605 15.911H15.0214C14.1417 15.911 12.3949 14.6905 13.6617 12.3217C14.888 10.0289 17.0031 8.56713 18.482 7.88181C18.6616 7.79861 18.8618 7.96034 18.8278 8.14494ZM18.2279 13.6876L16.1687 11.1608C16.0536 11.0196 15.8184 11.0574 15.7731 11.2297C15.3963 12.6616 15.786 14.034 18.0332 14.0437C18.0487 14.0438 18.0649 14.0423 18.0801 14.0394L18.0861 14.0383C18.2575 14.0063 18.3337 13.8176 18.2279 13.6876Z"
            fill="#AF772A" />
        <path
            d="M12.4409 25.6261V5.58594L8.8418 8.42748L10.1215 9.62384V25.0278C10.1215 28.318 14.3604 28.318 17.0797 26.0747C14.0085 27.6301 12.7075 26.4237 12.4409 25.6261Z"
            fill="#3999CD" />
        <path fill-rule="evenodd" clip-rule="evenodd"
            d="M26.0275 15.1781L25.2508 16.1584C25.1905 16.2346 25.1579 16.3268 25.1579 16.4216V24.559C25.1579 24.6663 25.1175 24.7695 25.0391 24.8478C23.5447 26.3381 18.6006 29.6813 13.0011 30.4085C7.25872 31.1541 5.08314 27.2678 4.20337 25.6227C3.45558 24.2244 2.53443 20.9353 2.2749 19.9799L0 18.4114L1.62819 16.3472L4.33167 18.2112L2.70348 20.2754L2.38008 20.0524C4.71028 24.382 11.1217 31.565 19.5921 26.2048C19.7199 26.1239 19.7993 25.9812 19.7992 25.8371C19.7981 20.9068 19.7598 19.0336 19.7366 17.9011C19.7265 17.407 19.7193 17.0539 19.7193 16.6496C19.7193 15.6295 23.5322 14.8242 25.5526 14.4614C25.9774 14.3851 26.2849 14.8531 26.0275 15.1781Z"
            fill="#9C2F45" />
        <mask id="mask0_32649_66700" style="mask-type:luminance" maskUnits="userSpaceOnUse" x="32" y="5" width="143"
            height="23">
            <path d="M174.405 5.5H32.5371V28H174.405V5.5Z" fill="white" />
        </mask>
        <g mask="url(#mask0_32649_66700)">
            <path opacity="0.973" fill-rule="evenodd" clip-rule="evenodd"
                d="M39.8279 5.75C44.7663 5.84225 47.4868 8.18386 47.9894 12.7749C48.2579 15.0381 48.0023 17.2441 47.2225 19.3926C45.8759 22.0828 43.5936 23.4404 40.3757 23.465C36.61 23.4088 34.1817 21.712 33.0905 18.3744C32.3483 15.5265 32.4578 12.7098 33.4193 9.92429C34.6234 7.28686 36.7596 5.8955 39.8279 5.75ZM39.9374 8.80432C42.1827 8.83646 43.5154 9.8885 43.936 11.9604C44.255 13.617 44.2915 15.2798 44.0456 16.9491C43.6158 19.4558 42.0638 20.5586 39.3897 20.2579C37.8278 19.6832 36.9332 18.6142 36.7057 17.0509C36.208 14.824 36.3905 12.652 37.2534 10.5351C37.8692 9.57071 38.7639 8.99375 39.9374 8.80432Z"
                fill="black" />
            <path opacity="0.956" fill-rule="evenodd" clip-rule="evenodd"
                d="M132.397 5.85312C134.349 5.80523 136.284 5.94087 138.203 6.26037C138.185 11.0456 138.203 15.8306 138.258 20.6156C138.377 21.2175 138.76 21.5569 139.409 21.6337C139.962 21.5567 140.51 21.4549 141.051 21.3283C141.093 21.8244 141.166 22.3165 141.27 22.8045C141.029 23.0163 140.736 23.1522 140.395 23.2118C139.269 23.4768 138.174 23.4089 137.108 23.0081C136.462 22.6071 136.116 22.047 136.067 21.3283C136.012 16.8148 135.993 12.3013 136.012 7.78759C135.226 7.73177 134.441 7.66384 133.657 7.58391C133.018 7.61541 132.415 7.76809 131.85 8.04205C131.551 8.30937 131.35 8.63187 131.247 9.00923C131.109 9.64748 131.054 10.2923 131.083 10.9437C131.959 10.9437 132.836 10.9437 133.712 10.9437C133.712 11.5545 133.712 12.1653 133.712 12.7763C132.836 12.7763 131.959 12.7763 131.083 12.7763C131.083 16.2039 131.083 19.6314 131.083 23.0591C130.351 23.0591 129.622 23.0591 128.892 23.0591C128.892 19.6314 128.892 16.2039 128.892 12.7763C128.198 12.7763 127.503 12.7763 126.811 12.7763C126.811 12.1653 126.811 11.5545 126.811 10.9437C127.503 10.9437 128.198 10.9437 128.892 10.9437C128.764 9.65648 129.001 8.43473 129.603 7.27844C130.341 6.4693 131.272 5.99412 132.397 5.85312Z"
                fill="black" />
            <path opacity="0.965" fill-rule="evenodd" clip-rule="evenodd"
                d="M103.805 5.95594C105.314 5.89637 106.811 5.98112 108.297 6.21051C110.152 6.6799 111.303 7.78272 111.747 9.5193C112.234 12.4857 110.974 14.4878 107.967 15.5262C108.297 15.8137 108.643 16.0852 109.009 16.3407C110.487 18.5465 111.967 20.7524 113.445 22.9582C112.572 23.0768 111.695 23.0939 110.817 23.0091C109.15 20.6765 107.525 18.3179 105.941 15.9334C105.111 15.7261 104.271 15.5564 103.422 15.4244C103.367 17.9693 103.348 20.5146 103.367 23.06C102.636 23.06 101.906 23.06 101.176 23.06C101.176 17.4605 101.176 11.861 101.176 6.2614C102.07 6.17462 102.946 6.07272 103.805 5.95594ZM104.024 7.78862C104.938 7.77169 105.85 7.78862 106.763 7.83951C108.433 8.18772 109.347 9.15501 109.501 10.741C109.39 12.5586 108.367 13.6277 106.434 13.948C105.412 13.9989 104.39 14.0159 103.367 13.9989C103.367 11.9628 103.367 9.92655 103.367 7.8904C103.612 7.9204 103.831 7.88644 104.024 7.78862Z"
                fill="black" />
            <path opacity="0.946" fill-rule="evenodd" clip-rule="evenodd"
                d="M174.465 22.1437C174.465 22.3474 174.465 22.551 174.465 22.7547C173.134 23.2831 171.746 23.4697 170.301 23.3146C169.361 23.1232 168.758 22.5973 168.494 21.7365C168.382 21.3015 168.308 20.8604 168.275 20.4129C168.22 17.868 168.201 15.3227 168.22 12.7772C167.564 12.7772 166.906 12.7772 166.248 12.7772C166.248 12.1664 166.248 11.5555 166.248 10.9446C166.906 10.9446 167.564 10.9446 168.22 10.9446C168.201 10.1633 168.22 9.38279 168.275 8.60301C168.945 8.3899 169.62 8.18633 170.301 7.99219C170.411 8.97404 170.448 9.95815 170.411 10.9446C171.58 10.9446 172.748 10.9446 173.917 10.9446C173.917 11.5555 173.917 12.1664 173.917 12.7772C172.748 12.7772 171.58 12.7772 170.411 12.7772C170.393 15.1869 170.411 17.5965 170.467 20.0057C170.424 20.9505 170.9 21.4934 171.89 21.6347C172.654 21.5169 173.402 21.3473 174.136 21.1257C174.206 21.4868 174.315 21.8262 174.465 22.1437Z"
                fill="black" />
            <path opacity="0.965" fill-rule="evenodd" clip-rule="evenodd"
                d="M70.1733 10.6406C70.7951 10.6606 71.3976 10.7623 71.9809 10.9461C71.953 11.9347 71.8434 12.9188 71.6523 13.8986C71.6069 13.9451 71.5521 13.9791 71.4879 14.0004C70.5071 13.5562 69.5577 13.6071 68.6396 14.1531C68.3076 14.4137 68.0702 14.7361 67.9276 15.1203C67.8727 17.7671 67.8544 20.4142 67.8727 23.0615C66.7042 23.0615 65.5358 23.0615 64.3672 23.0615C64.3672 19.0229 64.3672 14.9846 64.3672 10.9461C65.283 10.9123 66.1959 10.9463 67.1059 11.0479C67.2334 11.5219 67.3613 11.9971 67.4893 12.4732C68.0652 11.4442 68.9599 10.8334 70.1733 10.6406Z"
                fill="black" />
            <path opacity="0.975" fill-rule="evenodd" clip-rule="evenodd"
                d="M92.5198 10.6422C93.5587 10.5852 94.5812 10.67 95.5872 10.8967C96.8544 11.5355 97.5299 12.5366 97.6139 13.9002C97.6686 16.9543 97.6869 20.0085 97.6686 23.063C96.5366 23.063 95.4046 23.063 94.2726 23.063C94.3203 20.3447 94.2656 17.6297 94.1082 14.9182C93.8134 13.7538 93.0282 13.2957 91.7529 13.5438C90.7958 13.7885 90.1567 14.3485 89.8358 15.2237C89.781 17.8366 89.7628 20.4497 89.781 23.063C88.6125 23.063 87.444 23.063 86.2754 23.063C86.2754 19.0245 86.2754 14.9862 86.2754 10.9476C87.2248 10.9476 88.1743 10.9476 89.1238 10.9476C89.2024 11.4662 89.3304 11.9752 89.5072 12.4749C90.3047 11.5428 91.3089 10.932 92.5198 10.6422Z"
                fill="black" />
            <path opacity="0.953" fill-rule="evenodd" clip-rule="evenodd"
                d="M119.361 10.6369C123.128 10.338 125.063 11.933 125.167 15.4221C125.12 15.9656 125.065 16.5086 125.003 17.051C122.235 17.253 119.441 17.321 116.622 17.2546C116.605 18.4489 116.952 19.5348 117.662 20.5125C118.523 21.2507 119.545 21.624 120.731 21.6324C121.88 21.565 122.92 21.2257 123.853 20.6143C124.158 21.0983 124.451 21.5903 124.729 22.0905C122.554 23.4114 120.217 23.7167 117.717 23.0068C115.734 22.0756 114.657 20.5653 114.486 18.4763C114.25 16.6908 114.47 14.9601 115.143 13.284C116.05 11.7014 117.456 10.819 119.361 10.6369ZM119.361 12.4695C121.873 12.2245 123.078 13.2765 122.976 15.6256C120.895 15.6256 118.814 15.6256 116.731 15.6256C116.747 13.9262 117.624 12.8742 119.361 12.4695Z"
                fill="black" />
            <path opacity="0.952" fill-rule="evenodd" clip-rule="evenodd"
                d="M147.626 10.6352C151.418 10.3431 153.354 11.9552 153.432 15.4712C153.38 15.9976 153.325 16.5236 153.268 17.0493C150.499 17.2513 147.706 17.3193 144.887 17.2528C144.87 18.4472 145.217 19.5331 145.927 20.5107C146.788 21.2489 147.81 21.6223 148.995 21.6307C150.144 21.5633 151.184 21.224 152.118 20.6126C152.423 21.0965 152.716 21.5885 152.994 22.0888C150.819 23.4097 148.481 23.7152 145.982 23.0051C144.723 22.513 143.827 21.6816 143.298 20.5107C142.677 18.6799 142.532 16.8134 142.86 14.9112C143.364 12.4228 144.953 10.9975 147.626 10.6352ZM147.626 12.4677C150.139 12.2239 151.344 13.2759 151.241 15.6238C149.16 15.6238 147.077 15.6238 144.996 15.6238C145.011 13.9244 145.888 12.8725 147.626 12.4677Z"
                fill="black" />
            <path opacity="0.949" fill-rule="evenodd" clip-rule="evenodd"
                d="M160.441 10.639C161.871 10.5698 163.26 10.7565 164.604 11.199C164.789 11.2343 164.898 11.3361 164.933 11.5044C164.778 12.0737 164.541 12.5997 164.221 13.0825C160.083 11.5506 157.947 12.8402 157.812 16.9513C157.702 18.3953 158.141 19.668 159.127 20.7692C160.909 21.8661 162.698 21.8492 164.494 20.7183C164.797 21.2396 164.997 21.7825 165.097 22.3472C163.31 23.3224 161.393 23.6109 159.346 23.2126C157.117 22.53 155.894 21.0877 155.676 18.8856C155.302 16.8422 155.559 14.8739 156.443 12.9806C157.369 11.5917 158.703 10.8111 160.441 10.639Z"
                fill="black" />
            <path opacity="0.969" fill-rule="evenodd" clip-rule="evenodd"
                d="M77.0746 10.7393C78.3222 10.7003 79.5637 10.7511 80.7994 10.8919C82.302 11.2703 83.1967 12.1697 83.4833 13.5899C83.5542 14.1146 83.609 14.6405 83.6477 15.168C83.4748 17.083 83.4201 19.0004 83.4833 20.9203C83.5479 21.6441 83.6757 22.3568 83.8668 23.0582C82.9145 23.092 81.9651 23.058 81.0184 22.9564C80.8355 22.4791 80.6528 22.004 80.4706 21.5311C79.2453 22.9884 77.6386 23.5483 75.6504 23.211C73.3478 22.6155 72.3436 21.207 72.6379 18.9858C72.9988 17.6322 73.8935 16.7328 75.3218 16.2879C76.8975 15.8777 78.5042 15.725 80.142 15.8297C80.1602 15.3196 80.1419 14.8106 80.0873 14.3026C79.9 13.7894 79.5166 13.5009 78.937 13.4372C77.3276 13.326 75.7757 13.5466 74.2811 14.0989C73.9279 13.3175 73.6174 12.5201 73.3499 11.7064C74.5522 11.2236 75.7939 10.9014 77.0746 10.7393ZM78.3893 17.7642C78.9735 17.7642 79.5578 17.7642 80.142 17.7642C80.4472 19.5173 79.6438 20.4676 77.7319 20.6148C76.5673 20.5337 76.0744 19.9568 76.253 18.884C76.3391 18.5702 76.54 18.3496 76.8555 18.2223C77.3625 18.0141 77.8737 17.8615 78.3893 17.7642Z"
                fill="black" />
            <path opacity="0.974" fill-rule="evenodd" clip-rule="evenodd"
                d="M50.3428 10.9453C51.4748 10.9453 52.6069 10.9453 53.7389 10.9453C53.6944 13.6968 53.7491 16.4457 53.9032 19.1919C54.0575 20.0994 54.6236 20.5406 55.6013 20.5154C56.6993 20.429 57.4844 19.9199 57.9566 18.9883C58.0114 16.3075 58.0297 13.6265 58.0114 10.9453C59.18 10.9453 60.3484 10.9453 61.5169 10.9453C61.4986 14.1355 61.5169 17.3256 61.5718 20.5154C61.6231 21.3756 61.7509 22.224 61.9552 23.0607C61.0779 23.0775 60.2015 23.0607 59.3259 23.0098C59.082 22.4654 58.8812 21.9055 58.7234 21.3299C56.9257 23.4553 54.68 23.9814 51.9861 22.9079C51.0226 22.1623 50.493 21.1951 50.3977 20.0064C50.3428 16.9862 50.3245 13.9659 50.3428 10.9453Z"
                fill="black" />
            <path opacity="0.967" fill-rule="evenodd" clip-rule="evenodd"
                d="M37.0882 23.7719C38.0019 23.7551 38.9147 23.7719 39.8269 23.8229C41.8963 24.3121 43.9778 24.7534 46.0713 25.1464C47.3571 25.2338 48.6351 25.1829 49.9056 24.9937C49.9419 25.9802 49.9054 26.9644 49.796 27.9462C48.5366 28.2325 47.2587 28.3174 45.9618 28.2007C43.7148 27.8059 41.4873 27.3308 39.2793 26.7754C38.5014 26.581 37.7345 26.598 36.9787 26.8262C36.9422 26.3342 36.9056 25.842 36.8691 25.35C36.8749 24.7989 36.9479 24.2729 37.0882 23.7719Z"
                fill="black" />
        </g>
    </g>
    <defs>
        <clipPath id="clip0_32649_66700">
            <rect width="174" height="30" fill="white" transform="translate(0 0.5)" />
        </clipPath>
    </defs>
</svg>