<svg xmlns="http://www.w3.org/2000/svg" viewBox="0 0 24.8 30" width="24" height="30">
    <polygon points="13.56 5.07 15.73 6.68 16.89 5.02 14.96 3.48 16.18 1.74 13.9 0 12.76 1.77 14.72 3.25 13.56 5.07" />
    <path d="M19.43,15.14l.28-1.4a7.83,7.83,0,0,0-1.34-3.16C17.48,9.08,17,8.32,17,8.29a1.71,1.71,0,0,1,.29-.87q.23-.37.18-.45a.15.15,0,0,0-.13-.06q-.78,0-2.91,2.22-2.3,2.4-2.45,3.95a1.93,1.93,0,0,0,.61,1.74,3.17,3.17,0,0,0,1.66.76,3.41,3.41,0,0,0,.66.05,14.22,14.22,0,0,0,2.38-.28,1,1,0,0,1,.21.5c0,.41-.4,1-1.19,1.64a4.83,4.83,0,0,1-3.25,1.24,6,6,0,0,1-1.7-.26V5L7.84,8A2.32,2.32,0,0,1,9.07,9.22a5.15,5.15,0,0,1,.19,1.67v6.57l-.37-.22L8.72,17a13.64,13.64,0,0,1-1-1.7,1.15,1.15,0,0,1-.11-.4,7.28,7.28,0,0,0,.24-.79c-.74.48-1.22.81-1.46,1s-.55.59-.55.82a.61.61,0,0,0,.09.31,17.34,17.34,0,0,1,1.75,3.43c0,.48-.55,1.14-1.65,2L4.39,22.91c-.2-.26-.39-.53-.59-.81-1-1.41-1.59-2.33-1.87-2.77l0,0,.23.23,1.23-1.74L1.13,16.1,0,17.87l1.71,1.29a10.62,10.62,0,0,0,.54,2.15,25.45,25.45,0,0,0,1.88,4.53,8,8,0,0,0,2.93,3.39q3.38,1.72,8.8-.42a25.29,25.29,0,0,0,6.65-3.74,1.19,1.19,0,0,0,.3-.39,7.69,7.69,0,0,0,.37-2.79q0-3.59.06-5.37a3.3,3.3,0,0,1,.37-1.43,5.61,5.61,0,0,1,.69-.79c.35-.37.51-.57.5-.61A17,17,0,0,0,19.43,15.14Zm-4.84-2.49a1.71,1.71,0,0,1-.53-1.18,1.85,1.85,0,0,1,.44-1.16c1.05,1.46,1.86,2.58,2.41,3.37A3.55,3.55,0,0,1,14.59,12.65Zm3.35,13.08c-.36.7-1.45,1.26-3.27,1.69a9,9,0,0,1-6.2-.73,12.44,12.44,0,0,1-3.91-3.56l2.34-1.7A17.49,17.49,0,0,0,8.68,20a3.93,3.93,0,0,0,.58-.73v4A4.64,4.64,0,0,0,10,26a2.78,2.78,0,0,0,2.41,1.17,5.28,5.28,0,0,0,2.45-.63c.71-.38,1.07-.69,1.07-.92a.06.06,0,0,0-.05-.06s-.35.13-.95.37a4.13,4.13,0,0,1-1.46.38,1.76,1.76,0,0,1-1.86-1.14,6.08,6.08,0,0,1-.19-1.86V19.89a3.73,3.73,0,0,0,1.65.45,4.69,4.69,0,0,0,3.08-1.24,14.75,14.75,0,0,0,2-2.28,46.07,46.07,0,0,0,0,4.84A12,12,0,0,1,17.94,25.73Z" />
    <path d="M6.34,5.14a1.38,1.38,0,0,1,.86-.51,5.37,5.37,0,0,1,.71.08,5.06,5.06,0,0,0,.73.07,5.72,5.72,0,0,0,3.61-1.23,1.77,1.77,0,0,0,.83-1.38c0-.07,0-.11-.08-.11l-.06,0-.15.18a2.94,2.94,0,0,1-1.23.8,6.15,6.15,0,0,1-2.29.4,4.17,4.17,0,0,1-.84-.11,4.83,4.83,0,0,0-.83-.1,1.47,1.47,0,0,0-1,.63A1.83,1.83,0,0,0,6,5a.38.38,0,0,0,.09.28A.33.33,0,0,1,6.34,5.14Z" />
</svg>