<svg width="12" height="12" viewBox="0 0 12 12" fill="none" xmlns="http://www.w3.org/2000/svg">
<path d="M6 11.25C4.60761 11.25 3.27226 10.6969 2.28769 9.71231C1.30312 8.72774 0.75 7.39239 0.75 6C0.75 4.60761 1.30312 3.27226 2.28769 2.28769C3.27226 1.30312 4.60761 0.75 6 0.75C7.39239 0.75 8.72774 1.30312 9.71231 2.28769C10.6969 3.27226 11.25 4.60761 11.25 6C11.25 7.39239 10.6969 8.72774 9.71231 9.71231C8.72774 10.6969 7.39239 11.25 6 11.25ZM6 12C7.5913 12 9.11742 11.3679 10.2426 10.2426C11.3679 9.11742 12 7.5913 12 6C12 4.4087 11.3679 2.88258 10.2426 1.75736C9.11742 0.632141 7.5913 0 6 0C4.4087 0 2.88258 0.632141 1.75736 1.75736C0.632141 2.88258 0 4.4087 0 6C0 7.5913 0.632141 9.11742 1.75736 10.2426C2.88258 11.3679 4.4087 12 6 12Z" fill="#9B9B9B"/>
<path d="M3.94157 4.3395C3.94054 4.36372 3.94448 4.3879 3.95314 4.41054C3.9618 4.43318 3.975 4.45381 3.99193 4.47116C4.00886 4.48851 4.02916 4.50222 4.05158 4.51143C4.07401 4.52065 4.09808 4.52518 4.12232 4.52475H4.74107C4.84457 4.52475 4.92707 4.44 4.94057 4.33725C5.00807 3.84525 5.34557 3.48675 5.94707 3.48675C6.46157 3.48675 6.93257 3.744 6.93257 4.36275C6.93257 4.839 6.65207 5.058 6.20882 5.391C5.70407 5.75775 5.30432 6.186 5.33282 6.88125L5.33507 7.044C5.33585 7.09321 5.35595 7.14013 5.39103 7.17465C5.42611 7.20916 5.47335 7.22851 5.52257 7.2285H6.13082C6.18054 7.2285 6.22824 7.20875 6.2634 7.17358C6.29856 7.13842 6.31832 7.09073 6.31832 7.041V6.96225C6.31832 6.42375 6.52307 6.267 7.07582 5.84775C7.53257 5.5005 8.00882 5.115 8.00882 4.30575C8.00882 3.1725 7.05182 2.625 6.00407 2.625C5.05382 2.625 4.01282 3.0675 3.94157 4.3395ZM5.10932 8.66175C5.10932 9.0615 5.42807 9.357 5.86682 9.357C6.32357 9.357 6.63782 9.0615 6.63782 8.66175C6.63782 8.24775 6.32282 7.95675 5.86607 7.95675C5.42807 7.95675 5.10932 8.24775 5.10932 8.66175Z" fill="#9B9B9B"/>
</svg>
