<svg width="26" height="27" viewBox="0 0 26 27" fill="none" xmlns="http://www.w3.org/2000/svg">
    <g clip-path="url(#clip0_5606_9026)">
        <path
            d="M13 24.9727C9.98316 24.9727 7.08989 23.7742 4.95666 21.641C2.82343 19.5078 1.625 16.6145 1.625 13.5977C1.625 10.5808 2.82343 7.68754 4.95666 5.55432C7.08989 3.42109 9.98316 2.22266 13 2.22266C16.0168 2.22266 18.9101 3.42109 21.0433 5.55432C23.1766 7.68754 24.375 10.5808 24.375 13.5977C24.375 16.6145 23.1766 19.5078 21.0433 21.641C18.9101 23.7742 16.0168 24.9727 13 24.9727ZM13 26.5977C16.4478 26.5977 19.7544 25.228 22.1924 22.79C24.6304 20.3521 26 17.0455 26 13.5977C26 10.1498 24.6304 6.84324 22.1924 4.40527C19.7544 1.9673 16.4478 0.597656 13 0.597656C9.55219 0.597656 6.24558 1.9673 3.80761 4.40527C1.36964 6.84324 0 10.1498 0 13.5977C0 17.0455 1.36964 20.3521 3.80761 22.79C6.24558 25.228 9.55219 26.5977 13 26.5977Z"
            fill="currentColor" />
        <path
            d="M8.53941 9.99991C8.53718 10.0524 8.54572 10.1048 8.56448 10.1538C8.58325 10.2029 8.61185 10.2476 8.64854 10.2852C8.68522 10.3228 8.7292 10.3525 8.77778 10.3724C8.82636 10.3924 8.87852 10.4022 8.93103 10.4013H10.2717C10.4959 10.4013 10.6747 10.2177 10.7039 9.99503C10.8502 8.92903 11.5814 8.15228 12.8847 8.15228C13.9994 8.15228 15.0199 8.70966 15.0199 10.0503C15.0199 11.0822 14.4122 11.5567 13.4518 12.2782C12.3582 13.0728 11.492 14.0007 11.5538 15.507L11.5587 15.8597C11.5604 15.9663 11.6039 16.0679 11.6799 16.1427C11.7559 16.2175 11.8583 16.2594 11.9649 16.2594H13.2828C13.3905 16.2594 13.4939 16.2166 13.57 16.1404C13.6462 16.0642 13.689 15.9609 13.689 15.8532V15.6825C13.689 14.5158 14.1327 14.1762 15.3303 13.2678C16.3199 12.5154 17.3518 11.6802 17.3518 9.92678C17.3518 7.47141 15.2783 6.28516 13.0082 6.28516C10.9493 6.28516 8.69378 7.24391 8.53941 9.99991ZM11.0695 19.3648C11.0695 20.2309 11.7602 20.8712 12.7108 20.8712C13.7004 20.8712 14.3813 20.2309 14.3813 19.3648C14.3813 18.4678 13.6988 17.8373 12.7092 17.8373C11.7602 17.8373 11.0695 18.4678 11.0695 19.3648Z"
            fill="currentColor" />
    </g>
    <defs>
        <clipPath id="clip0_5606_9026">
            <rect width="26" height="26" fill="currentColor" transform="translate(0 0.597656)" />
        </clipPath>
    </defs>
</svg>
