<svg width="133.54" height="21.384" viewBox="0 0 133.54 21.384" xmlns="http://www.w3.org/2000/svg"><g id="svgGroup" stroke-linecap="round" fill-rule="evenodd" font-size="9pt" stroke="#000" stroke-width="0.25mm" fill="black" style="stroke:#000;stroke-width:0.25mm;fill:black"><path d="M 61.226 16.28 L 59.048 16.28 L 55.44 5.368 L 57.266 4.73 L 60.214 14.036 L 62.898 5.654 L 65.032 5.654 L 67.65 14.036 L 70.576 4.73 L 72.336 5.368 L 68.706 16.28 L 66.528 16.28 L 63.888 7.766 L 61.226 16.28 Z M 14.586 20.944 L 15.026 19.294 A 2.18 2.18 0 0 0 15.282 19.42 Q 15.415 19.476 15.571 19.524 A 4.08 4.08 0 0 0 15.686 19.558 A 2.973 2.973 0 0 0 16.187 19.65 A 3.819 3.819 0 0 0 16.566 19.668 Q 17.49 19.668 18.216 19.074 A 2.641 2.641 0 0 0 18.641 18.62 Q 19.138 17.964 19.602 16.742 L 20.108 15.422 L 19.052 15.422 L 14.586 5.368 L 16.346 4.576 L 20.614 14.102 L 23.936 4.664 L 25.762 5.368 L 21.56 16.852 Q 20.922 18.612 20.174 19.602 Q 19.426 20.592 18.524 20.988 A 4.719 4.719 0 0 1 17.06 21.359 A 5.729 5.729 0 0 1 16.522 21.384 Q 15.862 21.384 15.367 21.252 Q 15.024 21.161 14.782 21.048 A 1.895 1.895 0 0 1 14.586 20.944 Z M 14.256 15.73 L 12.342 16.5 L 10.626 12.1 L 3.498 12.1 L 1.782 16.456 L 0 15.73 L 6.028 0.88 L 8.316 0.88 L 14.256 15.73 Z M 98.692 15.356 L 99.528 13.706 Q 100.1 14.19 100.969 14.509 A 5.296 5.296 0 0 0 102.643 14.825 A 6.042 6.042 0 0 0 102.828 14.828 A 5.965 5.965 0 0 0 103.506 14.792 Q 104.246 14.707 104.687 14.421 Q 105.314 14.014 105.314 13.376 A 1.567 1.567 0 0 0 105.245 12.904 A 1.367 1.367 0 0 0 105.083 12.562 A 1.405 1.405 0 0 0 104.879 12.321 Q 104.656 12.108 104.287 11.898 A 4.908 4.908 0 0 0 104.236 11.869 A 6.262 6.262 0 0 0 103.797 11.651 Q 103.256 11.404 102.454 11.132 A 10.256 10.256 0 0 1 101.487 10.749 Q 101.021 10.534 100.653 10.295 A 4.254 4.254 0 0 1 100.045 9.823 A 2.491 2.491 0 0 1 99.32 8.504 A 3.695 3.695 0 0 1 99.242 7.722 A 2.666 2.666 0 0 1 100.111 5.739 A 3.842 3.842 0 0 1 100.397 5.489 A 3.908 3.908 0 0 1 101.725 4.819 Q 102.287 4.652 102.962 4.6 A 8.256 8.256 0 0 1 103.598 4.576 Q 104.698 4.576 105.556 4.807 Q 106.414 5.038 107.096 5.39 L 106.546 7.018 A 5.396 5.396 0 0 0 105.739 6.63 A 6.642 6.642 0 0 0 105.193 6.446 A 5.505 5.505 0 0 0 104.207 6.26 A 7.004 7.004 0 0 0 103.51 6.226 A 4.539 4.539 0 0 0 102.864 6.269 Q 102.185 6.367 101.772 6.688 A 2.051 2.051 0 0 0 101.473 6.968 Q 101.319 7.148 101.245 7.34 A 0.996 0.996 0 0 0 101.178 7.7 A 1.083 1.083 0 0 0 101.507 8.481 A 1.558 1.558 0 0 0 101.64 8.602 Q 102.102 8.976 103.444 9.416 A 14.906 14.906 0 0 1 104.558 9.834 Q 105.862 10.388 106.48 11.022 A 2.991 2.991 0 0 1 107.335 13.056 A 3.937 3.937 0 0 1 107.338 13.222 A 3.052 3.052 0 0 1 107.104 14.435 Q 106.818 15.103 106.183 15.588 A 3.656 3.656 0 0 1 106.095 15.653 A 4.411 4.411 0 0 1 104.692 16.307 Q 104.106 16.47 103.414 16.521 A 8.893 8.893 0 0 1 102.762 16.544 A 8.798 8.798 0 0 1 101.472 16.454 A 6.809 6.809 0 0 1 100.419 16.214 Q 99.374 15.884 98.692 15.356 Z M 88.462 15.334 L 88.462 16.28 L 86.614 16.28 L 86.614 0 L 88.594 0 L 88.594 6.028 Q 89.034 5.522 89.881 5.049 A 3.648 3.648 0 0 1 91.032 4.648 A 4.933 4.933 0 0 1 91.894 4.576 Q 93.214 4.576 94.369 5.269 A 4.912 4.912 0 0 1 95.948 6.802 A 6.042 6.042 0 0 1 96.228 7.271 A 5.651 5.651 0 0 1 96.777 8.82 Q 96.917 9.503 96.931 10.287 A 9.74 9.74 0 0 1 96.932 10.45 A 7.329 7.329 0 0 1 96.781 11.965 A 6.105 6.105 0 0 1 96.492 12.936 A 6.461 6.461 0 0 1 95.796 14.257 A 5.606 5.606 0 0 1 95.315 14.861 Q 94.578 15.664 93.654 16.104 A 4.401 4.401 0 0 1 92.033 16.535 A 4.226 4.226 0 0 1 91.762 16.544 Q 90.772 16.544 89.903 16.181 A 6.66 6.66 0 0 1 89.176 15.827 Q 88.812 15.62 88.521 15.383 A 4.013 4.013 0 0 1 88.462 15.334 Z M 83.908 11.374 L 75.9 11.374 Q 76.084 12.87 76.899 13.755 A 3.295 3.295 0 0 0 77.022 13.882 A 3.112 3.112 0 0 0 78.699 14.72 A 4.405 4.405 0 0 0 79.464 14.784 Q 80.454 14.784 81.246 14.575 Q 82.038 14.366 82.764 14.036 L 83.226 15.73 A 8.969 8.969 0 0 1 82.272 16.088 A 11.41 11.41 0 0 1 81.444 16.313 A 8.561 8.561 0 0 1 80.324 16.493 A 11.446 11.446 0 0 1 79.222 16.544 Q 76.758 16.544 75.317 14.971 Q 73.876 13.398 73.876 10.56 A 7.779 7.779 0 0 1 74.059 8.839 A 6.345 6.345 0 0 1 74.525 7.491 A 5.421 5.421 0 0 1 75.629 5.933 A 5.035 5.035 0 0 1 76.34 5.357 A 4.631 4.631 0 0 1 78.597 4.593 A 5.765 5.765 0 0 1 79.046 4.576 A 6.282 6.282 0 0 1 80.249 4.685 Q 80.985 4.829 81.573 5.161 A 3.787 3.787 0 0 1 81.785 5.291 Q 82.874 6.006 83.424 7.216 A 6.201 6.201 0 0 1 83.958 9.386 A 7.356 7.356 0 0 1 83.974 9.878 A 16.545 16.545 0 0 1 83.91 11.351 A 15.362 15.362 0 0 1 83.908 11.374 Z M 133.474 11.374 L 125.466 11.374 Q 125.65 12.87 126.465 13.755 A 3.295 3.295 0 0 0 126.588 13.882 A 3.112 3.112 0 0 0 128.265 14.72 A 4.405 4.405 0 0 0 129.03 14.784 Q 130.02 14.784 130.812 14.575 Q 131.604 14.366 132.33 14.036 L 132.792 15.73 A 8.969 8.969 0 0 1 131.838 16.088 A 11.41 11.41 0 0 1 131.01 16.313 A 8.561 8.561 0 0 1 129.89 16.493 A 11.446 11.446 0 0 1 128.788 16.544 Q 126.324 16.544 124.883 14.971 Q 123.442 13.398 123.442 10.56 A 7.779 7.779 0 0 1 123.625 8.839 A 6.345 6.345 0 0 1 124.091 7.491 A 5.421 5.421 0 0 1 125.195 5.933 A 5.035 5.035 0 0 1 125.906 5.357 A 4.631 4.631 0 0 1 128.163 4.593 A 5.765 5.765 0 0 1 128.612 4.576 A 6.282 6.282 0 0 1 129.815 4.685 Q 130.551 4.829 131.139 5.161 A 3.787 3.787 0 0 1 131.351 5.291 Q 132.44 6.006 132.99 7.216 A 6.201 6.201 0 0 1 133.524 9.386 A 7.356 7.356 0 0 1 133.54 9.878 A 16.545 16.545 0 0 1 133.476 11.351 A 15.362 15.362 0 0 1 133.474 11.374 Z M 41.756 12.342 L 41.756 6.974 L 39.776 6.974 L 39.776 5.258 L 41.8 5.258 L 42.218 1.65 L 43.736 1.65 L 43.736 5.258 L 46.904 5.258 L 46.904 6.974 L 43.736 6.974 L 43.736 12.496 A 4.743 4.743 0 0 0 43.773 13.111 Q 43.861 13.782 44.159 14.153 A 1.222 1.222 0 0 0 44.275 14.278 Q 44.814 14.784 45.562 14.784 Q 46.112 14.784 46.607 14.608 A 5.661 5.661 0 0 0 47.306 14.307 A 5.009 5.009 0 0 0 47.52 14.19 L 48.07 15.774 Q 47.63 16.038 46.882 16.291 Q 46.134 16.544 45.32 16.544 A 4.032 4.032 0 0 1 44.18 16.391 A 3.065 3.065 0 0 1 42.713 15.455 Q 41.756 14.366 41.756 12.342 Z M 115.918 12.342 L 115.918 6.974 L 113.938 6.974 L 113.938 5.258 L 115.962 5.258 L 116.38 1.65 L 117.898 1.65 L 117.898 5.258 L 121.066 5.258 L 121.066 6.974 L 117.898 6.974 L 117.898 12.496 A 4.743 4.743 0 0 0 117.935 13.111 Q 118.023 13.782 118.321 14.153 A 1.222 1.222 0 0 0 118.437 14.278 Q 118.976 14.784 119.724 14.784 Q 120.274 14.784 120.769 14.608 A 5.661 5.661 0 0 0 121.468 14.307 A 5.009 5.009 0 0 0 121.682 14.19 L 122.232 15.774 Q 121.792 16.038 121.044 16.291 Q 120.296 16.544 119.482 16.544 A 4.032 4.032 0 0 1 118.342 16.391 A 3.065 3.065 0 0 1 116.875 15.455 Q 115.918 14.366 115.918 12.342 Z M 35.574 5.764 L 35.574 4.84 L 37.378 4.84 L 37.378 13.508 A 2.673 2.673 0 0 0 37.4 13.868 Q 37.457 14.282 37.656 14.491 A 0.652 0.652 0 0 0 37.785 14.597 Q 38.192 14.85 38.676 14.85 L 38.258 16.39 Q 36.146 16.39 35.706 14.674 A 4.688 4.688 0 0 1 35.022 15.428 A 6.27 6.27 0 0 1 34.331 15.961 Q 33.462 16.544 32.12 16.544 Q 30.69 16.544 29.524 15.818 A 5.048 5.048 0 0 1 27.893 14.162 A 6.143 6.143 0 0 1 27.665 13.761 A 5.99 5.99 0 0 1 27.086 12.014 A 8.062 8.062 0 0 1 26.972 10.626 A 7.291 7.291 0 0 1 27.191 8.807 A 6.153 6.153 0 0 1 27.665 7.546 Q 28.358 6.182 29.579 5.379 A 4.905 4.905 0 0 1 32.042 4.586 A 6.025 6.025 0 0 1 32.384 4.576 A 4.969 4.969 0 0 1 33.439 4.684 A 4.115 4.115 0 0 1 34.177 4.917 A 5.72 5.72 0 0 1 35.12 5.422 A 4.863 4.863 0 0 1 35.574 5.764 Z M 111.958 16.28 L 109.978 16.28 L 109.978 4.84 L 111.958 4.84 L 111.958 16.28 Z M 35.398 13.354 L 35.398 7.216 Q 34.804 6.798 34.089 6.545 Q 33.374 6.292 32.582 6.292 A 3.503 3.503 0 0 0 31.488 6.458 A 3.085 3.085 0 0 0 30.723 6.831 A 3.586 3.586 0 0 0 29.619 8.024 A 4.392 4.392 0 0 0 29.458 8.327 A 4.546 4.546 0 0 0 29.072 9.576 A 6.089 6.089 0 0 0 28.996 10.56 A 5.625 5.625 0 0 0 29.112 11.723 A 4.475 4.475 0 0 0 29.458 12.749 A 3.872 3.872 0 0 0 30.141 13.749 A 3.453 3.453 0 0 0 30.734 14.245 Q 31.548 14.784 32.56 14.784 Q 33.396 14.784 34.144 14.377 A 4.279 4.279 0 0 0 35.182 13.596 A 3.976 3.976 0 0 0 35.398 13.354 Z M 88.594 7.788 L 88.594 13.904 A 3.958 3.958 0 0 0 89.393 14.385 A 4.796 4.796 0 0 0 89.782 14.542 A 4.282 4.282 0 0 0 91.138 14.783 A 4.849 4.849 0 0 0 91.234 14.784 A 3.738 3.738 0 0 0 92.337 14.626 A 3.244 3.244 0 0 0 93.137 14.256 A 3.509 3.509 0 0 0 94.27 13.066 A 4.322 4.322 0 0 0 94.435 12.76 A 4.591 4.591 0 0 0 94.841 11.43 A 6.045 6.045 0 0 0 94.908 10.516 Q 94.908 9.243 94.468 8.318 A 3.815 3.815 0 0 0 94.435 8.25 Q 93.962 7.304 93.181 6.798 Q 92.4 6.292 91.454 6.292 Q 90.508 6.292 89.749 6.765 A 5.182 5.182 0 0 0 89.192 7.162 Q 88.92 7.387 88.72 7.626 A 2.847 2.847 0 0 0 88.594 7.788 Z M 7.062 2.948 L 4.158 10.34 L 9.944 10.34 L 7.062 2.948 Z M 75.878 9.768 L 82.148 9.768 A 5.358 5.358 0 0 0 82.059 8.759 Q 81.95 8.191 81.707 7.746 A 2.733 2.733 0 0 0 81.312 7.194 Q 80.476 6.292 79.002 6.292 A 2.988 2.988 0 0 0 77.877 6.498 A 2.755 2.755 0 0 0 76.89 7.183 A 3.336 3.336 0 0 0 76.243 8.215 Q 76.058 8.668 75.956 9.223 A 7.045 7.045 0 0 0 75.878 9.768 Z M 125.444 9.768 L 131.714 9.768 A 5.358 5.358 0 0 0 131.625 8.759 Q 131.516 8.191 131.273 7.746 A 2.733 2.733 0 0 0 130.878 7.194 Q 130.042 6.292 128.568 6.292 A 2.988 2.988 0 0 0 127.443 6.498 A 2.755 2.755 0 0 0 126.456 7.183 A 3.336 3.336 0 0 0 125.809 8.215 Q 125.624 8.668 125.522 9.223 A 7.045 7.045 0 0 0 125.444 9.768 Z M 51.59 16.544 Q 50.996 16.544 50.556 16.104 Q 50.116 15.664 50.116 15.07 A 1.897 1.897 0 0 1 50.167 14.617 A 1.304 1.304 0 0 1 50.512 13.992 A 1.315 1.315 0 0 1 51.182 13.637 A 1.939 1.939 0 0 1 51.59 13.596 Q 52.162 13.596 52.613 14.036 A 1.53 1.53 0 0 1 52.937 14.482 A 1.37 1.37 0 0 1 53.064 15.07 A 1.693 1.693 0 0 1 52.996 15.56 A 1.327 1.327 0 0 1 52.646 16.137 A 1.421 1.421 0 0 1 51.727 16.539 A 1.893 1.893 0 0 1 51.59 16.544 Z M 110.008 2.483 A 1.314 1.314 0 0 0 110.968 2.882 A 1.799 1.799 0 0 0 111.297 2.853 A 1.242 1.242 0 0 0 111.98 2.497 A 1.271 1.271 0 0 0 112.293 1.954 A 1.652 1.652 0 0 0 112.354 1.496 Q 112.354 0.924 111.947 0.517 A 1.623 1.623 0 0 0 111.934 0.504 A 1.333 1.333 0 0 0 110.968 0.11 A 1.818 1.818 0 0 0 110.604 0.145 A 1.245 1.245 0 0 0 109.956 0.484 A 1.229 1.229 0 0 0 109.632 1.063 A 1.757 1.757 0 0 0 109.582 1.496 A 1.318 1.318 0 0 0 109.69 2.028 A 1.462 1.462 0 0 0 109.989 2.464 A 1.644 1.644 0 0 0 110.008 2.483 Z" vector-effect="non-scaling-stroke"/></g></svg>