<svg width="118" height="21" viewBox="0 0 118 21" fill="none" xmlns="http://www.w3.org/2000/svg">
<path d="M17.468 15.318C17.3947 16.286 17.2187 17.1147 16.94 17.804C16.676 18.4933 16.3167 19.014 15.862 19.366C15.5393 19.6153 15.1287 19.806 14.63 19.938C14.146 20.07 13.64 20.136 13.112 20.136C12.2173 20.136 11.3447 19.9967 10.494 19.718C9.64333 19.4393 8.56533 19.0067 7.26 18.42L5.808 17.804C5.52933 17.7013 5.35333 17.65 5.28 17.65C4.98667 17.8113 4.67133 17.9433 4.334 18.046C4.01133 18.1487 3.71067 18.2 3.432 18.2C3.124 18.2 2.87467 18.1413 2.684 18.024C2.49333 17.9213 2.398 17.76 2.398 17.54C2.398 17.32 2.50067 17.1513 2.706 17.034C2.91133 16.9167 3.212 16.858 3.608 16.858C4.12133 16.858 4.67867 16.99 5.28 17.254C5.83733 17.1073 6.38733 16.9093 6.93 16.66C7.062 16.616 7.20867 16.5573 7.37 16.484C7.546 16.4107 7.744 16.3373 7.964 16.264C6.512 16.1173 5.24333 15.714 4.158 15.054C3.08733 14.394 2.25867 13.492 1.672 12.348C1.08533 11.204 0.792 9.86933 0.792 8.344C0.792 6.73067 1.144 5.30067 1.848 4.054C2.552 2.80733 3.53467 1.83933 4.796 1.15C6.05733 0.460666 7.49467 0.115999 9.108 0.115999C10.7653 0.115999 12.2173 0.431332 13.464 1.062C14.7107 1.69267 15.6787 2.60933 16.368 3.812C17.0573 5 17.402 6.42267 17.402 8.08C17.402 9.664 17.0647 11.072 16.39 12.304C15.7153 13.536 14.7693 14.504 13.552 15.208C12.3347 15.8973 10.9413 16.264 9.372 16.308C9.03467 16.352 8.70467 16.4253 8.382 16.528C8.074 16.6307 7.78067 16.7407 7.502 16.858C6.91533 17.0927 6.43133 17.2613 6.05 17.364L6.908 17.386C8.16933 17.43 9.24 17.452 10.12 17.452C11.6453 17.452 12.892 17.3493 13.86 17.144C14.6813 16.968 15.3267 16.7407 15.796 16.462C16.2653 16.1833 16.6833 15.7653 17.05 15.208L17.468 15.318ZM5.412 8.256C5.412 9.78133 5.58067 11.1233 5.918 12.282C6.25533 13.4407 6.71 14.3353 7.282 14.966C7.854 15.5967 8.48467 15.912 9.174 15.912C9.89267 15.912 10.5233 15.5893 11.066 14.944C11.6233 14.284 12.0487 13.3673 12.342 12.194C12.6353 11.0207 12.782 9.67867 12.782 8.168C12.782 6.64267 12.6133 5.30067 12.276 4.142C11.9387 2.98333 11.484 2.08867 10.912 1.458C10.34 0.827332 9.70933 0.511999 9.02 0.511999C8.30133 0.511999 7.66333 0.841999 7.106 1.502C6.56333 2.14733 6.14533 3.05667 5.852 4.23C5.55867 5.40333 5.412 6.74533 5.412 8.256ZM30.2533 13.602C30.2533 14.2767 30.3413 14.768 30.5173 15.076C30.7079 15.384 31.0306 15.538 31.4853 15.538V16C31.0306 15.956 30.5759 15.934 30.1213 15.934C28.5959 15.934 27.3199 16.0367 26.2933 16.242V14.658C25.6333 15.758 24.4673 16.308 22.7953 16.308C21.6219 16.308 20.7933 16.0147 20.3093 15.428C20.0893 15.164 19.9279 14.812 19.8253 14.372C19.7226 13.9173 19.6713 13.3233 19.6713 12.59V6.98C19.6713 6.30533 19.5759 5.814 19.3853 5.506C19.2093 5.198 18.8939 5.044 18.4393 5.044V4.582C18.8939 4.626 19.3486 4.648 19.8033 4.648C21.3286 4.648 22.6046 4.54533 23.6313 4.34V13.778C23.6313 14.2473 23.7119 14.5993 23.8733 14.834C24.0493 15.054 24.3279 15.164 24.7093 15.164C25.1346 15.164 25.5013 15.0173 25.8093 14.724C26.1319 14.416 26.2933 14.0347 26.2933 13.58V6.98C26.2933 6.30533 26.1979 5.814 26.0073 5.506C25.8313 5.198 25.5159 5.044 25.0613 5.044V4.582C25.5159 4.626 25.9706 4.648 26.4253 4.648C27.9506 4.648 29.2266 4.54533 30.2533 4.34V13.602ZM40.3748 4.274C41.0935 4.274 41.6068 4.494 41.9148 4.934C42.2375 5.374 42.3988 5.89467 42.3988 6.496C42.3988 7.156 42.2081 7.684 41.8268 8.08C41.4601 8.46133 40.9761 8.652 40.3748 8.652C39.7441 8.652 39.2601 8.51267 38.9228 8.234C38.5855 7.94067 38.4168 7.552 38.4168 7.068C38.4168 6.20267 38.7908 5.52067 39.5388 5.022C39.2748 5.022 39.0401 5.07333 38.8348 5.176C38.4681 5.33733 38.1601 5.60133 37.9108 5.968C37.6615 6.32 37.5368 6.70867 37.5368 7.134V13.734C37.5368 14.4233 37.6761 14.9 37.9548 15.164C38.2481 15.4133 38.7395 15.538 39.4288 15.538V16C39.2381 16 39.0768 15.9927 38.9448 15.978C37.4048 15.934 36.3781 15.912 35.8648 15.912C35.4101 15.912 34.3908 15.934 32.8068 15.978C32.6895 15.9927 32.5355 16 32.3448 16V15.538C32.7995 15.538 33.1148 15.428 33.2908 15.208C33.4815 14.9733 33.5768 14.5553 33.5768 13.954V6.98C33.5768 6.30533 33.4815 5.814 33.2908 5.506C33.1148 5.198 32.7995 5.044 32.3448 5.044V4.582C32.8141 4.626 33.2688 4.648 33.7088 4.648C35.2341 4.648 36.5101 4.54533 37.5368 4.34V5.924C38.0941 4.824 39.0401 4.274 40.3748 4.274ZM45.7966 16.154C44.8579 16.154 44.1466 15.9047 43.6626 15.406C43.1933 14.8927 42.9586 14.2547 42.9586 13.492C42.9586 12.832 43.1273 12.2893 43.4646 11.864C43.8166 11.424 44.2273 11.0867 44.6966 10.852C45.1659 10.6173 45.7746 10.3753 46.5226 10.126C47.3146 9.862 47.8939 9.62 48.2606 9.4C48.6273 9.18 48.8106 8.872 48.8106 8.476V6.518C48.8106 6.04867 48.6933 5.63067 48.4586 5.264C48.2239 4.89733 47.8206 4.714 47.2486 4.714C46.7939 4.714 46.3833 4.83867 46.0166 5.088C46.5153 5.264 46.8819 5.528 47.1166 5.88C47.3659 6.21733 47.4906 6.59867 47.4906 7.024C47.4906 7.596 47.2853 8.058 46.8746 8.41C46.4786 8.74733 45.9946 8.916 45.4226 8.916C44.8506 8.916 44.3959 8.74 44.0586 8.388C43.7359 8.02133 43.5746 7.55933 43.5746 7.002C43.5746 6.562 43.6846 6.18067 43.9046 5.858C44.1246 5.53533 44.4693 5.242 44.9386 4.978C45.7599 4.50867 46.9333 4.274 48.4586 4.274C49.2653 4.274 49.9619 4.35467 50.5486 4.516C51.1353 4.66267 51.6339 4.94867 52.0446 5.374C52.3379 5.682 52.5286 6.07067 52.6166 6.54C52.7193 6.99467 52.7706 7.63267 52.7706 8.454V14.35C52.7706 14.7167 52.7926 14.966 52.8366 15.098C52.8953 15.23 52.9906 15.296 53.1226 15.296C53.2253 15.296 53.3353 15.2667 53.4526 15.208C53.5699 15.1347 53.6799 15.054 53.7826 14.966L54.0026 15.34C53.3719 15.8827 52.4699 16.154 51.2966 16.154C50.4166 16.154 49.8006 16.0073 49.4486 15.714C49.0966 15.406 48.9059 14.9953 48.8766 14.482C48.1873 15.5967 47.1606 16.154 45.7966 16.154ZM47.9966 14.394C48.3046 14.394 48.5759 14.2693 48.8106 14.02V9.378C48.6786 9.598 48.4366 9.884 48.0846 10.236C47.6886 10.6173 47.3879 10.9913 47.1826 11.358C46.9773 11.71 46.8746 12.194 46.8746 12.81C46.8746 13.866 47.2486 14.394 47.9966 14.394ZM63.3141 4.274C64.4874 4.274 65.3161 4.56733 65.8001 5.154C66.0201 5.418 66.1814 5.77733 66.2841 6.232C66.3868 6.672 66.4381 7.25867 66.4381 7.992V13.954C66.4381 14.5553 66.5261 14.9733 66.7021 15.208C66.8928 15.428 67.2154 15.538 67.6701 15.538V16C66.0861 15.9413 65.0594 15.912 64.5901 15.912C64.0914 15.912 63.0501 15.9413 61.4661 16V15.538C61.8474 15.538 62.1114 15.428 62.2581 15.208C62.4048 14.9733 62.4781 14.5553 62.4781 13.954V6.804C62.4781 6.33467 62.3901 5.99 62.2141 5.77C62.0528 5.53533 61.7814 5.418 61.4001 5.418C60.9748 5.418 60.6008 5.572 60.2781 5.88C59.9701 6.17333 59.8161 6.54733 59.8161 7.002V13.954C59.8161 14.5553 59.8894 14.9733 60.0361 15.208C60.1828 15.428 60.4468 15.538 60.8281 15.538V16C59.3614 15.9413 58.3934 15.912 57.9241 15.912C57.4254 15.912 56.3254 15.9413 54.6241 16V15.538C55.0788 15.538 55.3941 15.428 55.5701 15.208C55.7608 14.9733 55.8561 14.5553 55.8561 13.954V6.98C55.8561 6.30533 55.7608 5.814 55.5701 5.506C55.3941 5.198 55.0788 5.044 54.6241 5.044V4.582C55.0934 4.626 55.5481 4.648 55.9881 4.648C57.5134 4.648 58.7894 4.54533 59.8161 4.34V5.924C60.4761 4.824 61.6421 4.274 63.3141 4.274ZM71.0141 12.524C71.7181 12.524 72.2534 12.6853 72.6201 13.008C73.0014 13.3307 73.1921 13.8 73.1921 14.416C73.1921 15.032 73.0014 15.5013 72.6201 15.824C72.2534 16.1467 71.7181 16.308 71.0141 16.308C70.3101 16.308 69.7674 16.1467 69.3861 15.824C69.0194 15.5013 68.8361 15.032 68.8361 14.416C68.8361 13.8 69.0194 13.3307 69.3861 13.008C69.7674 12.6853 70.3101 12.524 71.0141 12.524ZM80.4351 4.274C81.0364 4.274 81.5864 4.34 82.0851 4.472C82.5984 4.58933 83.0164 4.74333 83.3391 4.934C83.7498 5.16867 84.0724 5.484 84.3071 5.88C84.5418 6.276 84.6591 6.72333 84.6591 7.222C84.6591 7.838 84.4611 8.35133 84.0651 8.762C83.6691 9.158 83.1631 9.356 82.5471 9.356C81.9164 9.356 81.4178 9.18 81.0511 8.828C80.6991 8.46133 80.5231 7.97733 80.5231 7.376C80.5231 6.848 80.6918 6.386 81.0291 5.99C81.3811 5.57933 81.8138 5.308 82.3271 5.176C82.1071 5 81.8138 4.912 81.4471 4.912C80.5084 4.912 79.8484 5.418 79.4671 6.43C79.0858 7.42733 78.8951 8.61533 78.8951 9.994C78.8951 11.402 79.1591 12.4067 79.6871 13.008C80.2151 13.6093 80.8678 13.91 81.6451 13.91C82.7158 13.91 83.6031 13.4187 84.3071 12.436L84.6811 12.568C84.3584 13.5947 83.8084 14.4747 83.0311 15.208C82.2684 15.9413 81.2858 16.308 80.0831 16.308C78.4844 16.308 77.2011 15.8313 76.2331 14.878C75.2651 13.9247 74.7811 12.3993 74.7811 10.302C74.7811 8.29267 75.2944 6.78933 76.3211 5.792C77.3624 4.78 78.7338 4.274 80.4351 4.274ZM91.5215 4.274C93.3255 4.274 94.7189 4.75067 95.7015 5.704C96.6842 6.64267 97.1755 8.17533 97.1755 10.302C97.1755 12.4287 96.6842 13.9613 95.7015 14.9C94.7189 15.8387 93.3255 16.308 91.5215 16.308C89.7175 16.308 88.3242 15.8387 87.3415 14.9C86.3589 13.9613 85.8675 12.4287 85.8675 10.302C85.8675 8.17533 86.3589 6.64267 87.3415 5.704C88.3242 4.75067 89.7175 4.274 91.5215 4.274ZM91.5215 4.714C91.0522 4.714 90.6782 5.176 90.3995 6.1C90.1209 7.024 89.9815 8.42467 89.9815 10.302C89.9815 12.1793 90.1209 13.58 90.3995 14.504C90.6782 15.4133 91.0522 15.868 91.5215 15.868C91.9909 15.868 92.3649 15.4133 92.6435 14.504C92.9222 13.58 93.0615 12.1793 93.0615 10.302C93.0615 8.42467 92.9222 7.024 92.6435 6.1C92.3649 5.176 91.9909 4.714 91.5215 4.714ZM116.539 13.954C116.539 14.5553 116.627 14.9733 116.803 15.208C116.994 15.428 117.317 15.538 117.771 15.538V16C116.187 15.9413 115.161 15.912 114.691 15.912C114.222 15.912 113.254 15.9413 111.787 16V15.538C112.081 15.538 112.286 15.428 112.403 15.208C112.521 14.988 112.579 14.57 112.579 13.954V6.804C112.579 6.33467 112.491 5.99 112.315 5.77C112.154 5.53533 111.883 5.418 111.501 5.418C111.12 5.418 110.768 5.57933 110.445 5.902C110.137 6.22467 109.947 6.606 109.873 7.046C109.903 7.398 109.917 7.71333 109.917 7.992V13.954C109.917 14.57 109.991 14.988 110.137 15.208C110.284 15.428 110.548 15.538 110.929 15.538V16C109.463 15.9413 108.509 15.912 108.069 15.912C107.6 15.912 106.632 15.9413 105.165 16V15.538C105.459 15.538 105.664 15.428 105.781 15.208C105.899 14.9733 105.957 14.5553 105.957 13.954V6.804C105.957 6.33467 105.891 5.99 105.759 5.77C105.627 5.53533 105.407 5.418 105.099 5.418C104.674 5.418 104.3 5.572 103.977 5.88C103.669 6.17333 103.515 6.54733 103.515 7.002V13.954C103.515 14.57 103.574 14.988 103.691 15.208C103.809 15.428 104.014 15.538 104.307 15.538V16C102.958 15.9413 102.063 15.912 101.623 15.912C101.125 15.912 100.025 15.9413 98.3233 16V15.538C98.778 15.538 99.0933 15.428 99.2693 15.208C99.46 14.9733 99.5553 14.5553 99.5553 13.954V6.98C99.5553 6.30533 99.46 5.814 99.2693 5.506C99.0933 5.198 98.778 5.044 98.3233 5.044V4.582C98.7927 4.626 99.2473 4.648 99.6873 4.648C101.213 4.648 102.489 4.54533 103.515 4.34V5.924C104.131 4.824 105.224 4.274 106.793 4.274C107.967 4.274 108.795 4.56733 109.279 5.154C109.499 5.418 109.661 5.76267 109.763 6.188C110.13 5.484 110.614 4.99267 111.215 4.714C111.831 4.42067 112.565 4.274 113.415 4.274C114.589 4.274 115.417 4.56733 115.901 5.154C116.121 5.418 116.283 5.77733 116.385 6.232C116.488 6.672 116.539 7.25867 116.539 7.992V13.954Z" fill="black"/>
</svg>
