<svg width="12" height="16" viewBox="0 0 12 16" fill="none" xmlns="http://www.w3.org/2000/svg">
<rect x="-0.00488281" y="0.0117188" width="12" height="15" rx="2" fill="#272727"/>
<path d="M5.85226 3.01172C4.75512 3.01172 3.85226 3.90047 3.85226 4.98047C3.85226 5.50359 4.0694 5.98172 4.42369 6.33609C3.5494 6.89859 2.99512 7.86047 2.99512 8.91797C2.99512 10.6223 4.40655 12.0117 6.13797 12.0117C7.14369 12.0117 8.13797 11.753 8.99512 11.258L8.42369 10.2848C7.72655 10.6786 6.93797 10.8867 6.13797 10.8867C5.0294 10.8867 4.13797 10.0148 4.13797 8.91797C4.13696 8.48472 4.28157 8.0633 4.54928 7.71941C4.81698 7.37551 5.19273 7.12845 5.61797 7.01672L8.59512 6.22922L8.29798 5.14359L5.75512 5.82422C5.32655 5.76797 4.99512 5.41922 4.99512 4.98047C4.99512 4.50797 5.37226 4.13672 5.85226 4.13672C6.00083 4.13672 6.13797 4.17609 6.28083 4.24922L6.85226 3.27609C6.5494 3.10172 6.20083 3.01172 5.85226 3.01172Z" fill="white"/>
</svg>
