<svg width="12" height="15" viewBox="0 0 12 15" fill="none" xmlns="http://www.w3.org/2000/svg">
    <rect x="0.5" y="0.5" width="11" height="14" rx="1.5" stroke="currentColor" />
    <path
        d="M10 4.2608C10 3.8184 9.7008 3.5 9.33066 3.5H2.66934C2.29987 3.5 2 3.8184 2 4.2608C2 4.7032 2.29987 5.0608 2.66934 5.0608H9.33066C9.7008 5.0608 10 4.7032 10 4.2608ZM10 7.4744C10 7.032 9.7008 6.7144 9.33066 6.7144H2.66934C2.29987 6.7144 2 7.032 2 7.4744C2 7.9168 2.29987 8.2744 2.66934 8.2744H9.33066C9.7008 8.2744 10 7.9168 10 7.4744ZM10 10.6992C10 10.2568 9.7008 9.94 9.33066 9.94H2.66934C2.29987 9.94 2 10.2568 2 10.6992V10.7C2 11.1424 2.29987 11.5 2.66934 11.5H9.33066C9.7008 11.5 10 11.1424 10 10.6992Z"
        fill="currentColor" />
</svg>
