<svg width="20" height="24" viewBox="0 0 36 40" fill="none" xmlns="http://www.w3.org/2000/svg">
<path d="M25.7068 0C32.1335 0 35.9826 3.90287 36 10.4194V29.5806C36 36.0971 32.1684 40 25.7242 40H20.0116C19.279 39.9181 18.7245 39.2904 18.7245 38.543C18.7245 37.7957 19.279 37.168 20.0116 37.0861H25.7068C30.6183 37.0861 33.0914 34.5607 33.0914 29.5806V10.4194C33.0914 5.43929 30.6183 2.91391 25.7068 2.91391H10.2758C5.3643 2.91391 2.87373 5.43929 2.87373 10.4194V29.5806C2.87373 34.5607 5.3643 37.0861 10.2758 37.0861C11.0084 37.168 11.5629 37.7957 11.5629 38.543C11.5629 39.2904 11.0084 39.9181 10.2758 40C3.84906 40 0 36.0971 0 29.5806V10.4194C0 3.88521 3.84906 0 10.2758 0H25.7068ZM25.1843 27.0199C25.9731 27.0199 26.6125 27.6682 26.6125 28.468C26.6125 29.2678 25.9731 29.9161 25.1843 29.9161H10.7634C9.97468 29.9161 9.33527 29.2678 9.33527 28.468C9.33527 27.6682 9.97468 27.0199 10.7634 27.0199H25.1843ZM25.1843 18.543C25.7354 18.4814 26.2728 18.7449 26.5674 19.2211C26.862 19.6974 26.862 20.3026 26.5674 20.7789C26.2728 21.2551 25.7354 21.5186 25.1843 21.457H10.7634C10.0308 21.375 9.47628 20.7474 9.47628 20C9.47628 19.2526 10.0308 18.625 10.7634 18.543H25.1843ZM16.2671 10.0839C16.9997 10.1658 17.5542 10.7935 17.5542 11.5408C17.5542 12.2882 16.9997 12.9159 16.2671 12.9978H10.7808C10.0482 12.9159 9.4937 12.2882 9.4937 11.5408C9.4937 10.7935 10.0482 10.1658 10.7808 10.0839H16.2671Z" fill="black"/>
</svg>
