<svg width="24" height="24" viewBox="0 0 24 24" fill="currentColor" xmlns="http://www.w3.org/2000/svg">
<path d="M3 0.622768V22.6272C3 22.7924 3.06681 22.9508 3.18572 23.0676C3.30464 23.1844 3.46592 23.25 3.63409 23.25H20.9659C21.1341 23.25 21.2954 23.1844 21.4143 23.0676C21.5332 22.9508 21.6 22.7924 21.6 22.6272V0.622768C21.6 0.4576 21.5332 0.299196 21.4143 0.182404C21.2954 0.0656128 21.1341 0 20.9659 0H3.63409C3.46592 0 3.30464 0.0656128 3.18572 0.182404C3.06681 0.299196 3 0.4576 3 0.622768ZM13.1455 14.1161H7.22727V12.4554H13.1455V14.1161ZM17.3727 9.96429H7.22727V8.30357H17.3727V9.96429ZM17.3727 5.8125H7.22727V4.15179H17.3727V5.8125Z" fill="currentColor"/>
</svg>
