<svg width="13" height="16" viewBox="0 0 13 16" fill="none" xmlns="http://www.w3.org/2000/svg">
<path d="M1.23416 2.07615C1.27959 2.06307 1.36152 2.04501 1.4161 2.0361C1.49857 2.02256 1.87887 2.01966 5.83209 2.01758L5.83231 3.32264C5.83253 4.0404 5.83717 4.69021 5.84279 4.76661C5.84841 4.843 5.86264 4.95238 5.87443 5.00968C5.88623 5.06697 5.90939 5.15552 5.92593 5.20645C5.94247 5.25738 5.97477 5.34072 5.9976 5.39165C6.02042 5.44258 6.07544 5.54154 6.11977 5.61157C6.17457 5.69803 6.23951 5.77975 6.32232 5.86622C6.38936 5.93624 6.48385 6.02317 6.53237 6.05929C6.58077 6.09551 6.66755 6.15131 6.72522 6.18337C6.78288 6.21531 6.8722 6.25791 6.92369 6.27782C6.97518 6.29773 7.06956 6.32771 7.24896 6.37482L10 6.3813L9.99449 15.6585L9.96946 15.7222C9.95578 15.7573 9.93098 15.806 9.91433 15.8307C9.89779 15.8553 9.85942 15.8942 9.82909 15.9171C9.79877 15.94 9.74541 15.9681 9.71056 15.9794C9.67572 15.9907 9.61982 16 9.58652 16C9.55322 16 9.50228 15.9938 9.4735 15.9861C9.44318 15.9781 8.49217 15.44 7.21313 14.7071C5.9987 14.0113 5.00259 13.442 4.99961 13.442C4.99664 13.442 4.57114 13.6849 4.05412 13.9818C3.5371 14.2787 2.92062 14.6324 2.68411 14.7679C2.4476 14.9033 1.87953 15.2283 1.42161 15.4901C0.957847 15.7553 0.562226 15.9743 0.528486 15.9846C0.488351 15.9968 0.44182 16.0013 0.390659 15.9979C0.335197 15.9942 0.293297 15.9829 0.241805 15.9575C0.202331 15.9381 0.148744 15.8994 0.122722 15.8714C0.0965896 15.8435 0.0629597 15.7945 0.047964 15.7627C0.0328581 15.7309 0.0158777 15.6684 0.0102544 15.6238C0.00396944 15.5746 0 13.2415 0 9.67434C0 6.31173 0.00430022 3.74165 0.00992359 3.65542C0.0154367 3.57266 0.0280066 3.46328 0.0378199 3.41235C0.0477435 3.36142 0.073214 3.26512 0.0942741 3.19821C0.115444 3.13131 0.160101 3.02204 0.19351 2.95514C0.226809 2.88824 0.282381 2.79228 0.316893 2.74193C0.351405 2.69147 0.424289 2.60246 0.478868 2.54412C0.533448 2.48567 0.617799 2.40707 0.666314 2.36934C0.714829 2.3316 0.79918 2.27408 0.853759 2.24144C0.908339 2.20891 0.997651 2.16365 1.05223 2.14108C1.10681 2.11851 1.18863 2.08923 1.23416 2.07615Z" fill="#22A5AD"/>
<path d="M6.66523 4.75503L6.66159 3.3863L6.65807 2.01758H7.1387L10 5.02125V5.51318L8.6741 5.50994C7.43729 5.50682 7.34379 5.5052 7.28204 5.48587C7.24565 5.47452 7.18115 5.44779 7.1387 5.42649C7.09625 5.40531 7.02733 5.36005 6.98543 5.32613C6.94365 5.2921 6.88234 5.22786 6.84926 5.1833C6.81629 5.13874 6.77252 5.06582 6.75212 5.02125C6.73172 4.97669 6.70383 4.89856 6.66523 4.75503Z" fill="#22A5AD"/>
<path d="M2.16406 1.11933C2.33959 0.815298 2.79855 0.443498 3.10258 0.267962C3.40661 0.0924257 3.75149 8.91844e-06 4.10255 0L10.1026 0C10.633 0 11.1417 0.210714 11.5168 0.585786C11.8918 0.960859 12.1026 1.46957 12.1026 2V13.5C12.1025 13.5904 12.0779 13.6792 12.0314 13.7568C11.985 13.8343 11.9183 13.8979 11.8386 13.9405C11.7588 13.9832 11.5579 14.0333 11.4676 14.0289C11.3772 14.0246 11.0605 13.9405 11.0605 13.9405L10.8961 13.8873C10.9112 9.29179 10.9041 6.7151 10.8961 2.11933C10.8961 1.85411 10.7907 1.59976 10.6032 1.41222C10.4156 1.22469 10.1613 1.11933 9.89606 1.11933H2.16406Z" fill="#22A5AD"/>
<rect x="7.70703" y="0.015625" width="5.99936" height="1" transform="rotate(45 7.70703 0.015625)" fill="#22A5AD"/>
<rect x="9.46094" y="0.0585938" width="3.42781" height="1.68076" transform="rotate(45 9.46094 0.0585938)" fill="#22A5AD"/>
</svg>
