<svg width="12" height="16" viewBox="0 0 12 16" fill="none" xmlns="http://www.w3.org/2000/svg">
<rect x="0.49707" y="0.510742" width="11" height="14" rx="1.5" stroke="#666666"/>
<path d="M5.85421 3.01074C4.75707 3.01074 3.85421 3.89949 3.85421 4.97949C3.85421 5.50262 4.07136 5.98074 4.42564 6.33512C3.55136 6.89762 2.99707 7.85949 2.99707 8.91699C2.99707 10.6214 4.4085 12.0107 6.13993 12.0107C7.14564 12.0107 8.13993 11.752 8.99707 11.257L8.42564 10.2839C7.7285 10.6776 6.93993 10.8857 6.13993 10.8857C5.03136 10.8857 4.13993 10.0139 4.13993 8.91699C4.13891 8.48374 4.28353 8.06233 4.55123 7.71843C4.81893 7.37453 5.19468 7.12747 5.61993 7.01574L8.59707 6.22824L8.29993 5.14262L5.75707 5.82324C5.3285 5.76699 4.99707 5.41824 4.99707 4.97949C4.99707 4.50699 5.37421 4.13574 5.85421 4.13574C6.00278 4.13574 6.13993 4.17512 6.28278 4.24824L6.85421 3.27512C6.55136 3.10074 6.20278 3.01074 5.85421 3.01074Z" fill="#666666"/>
</svg>
