<svg width="18" height="17" viewBox="0 0 18 17" fill="none" xmlns="http://www.w3.org/2000/svg">
    <path
        d="M12.358 4.37418L10.9579 2.98243C10.8121 2.83659 10.6037 2.77826 10.3912 2.83242C10.3412 2.84493 10.2912 2.86576 10.2454 2.89493C10.0495 3.01577 9.94536 3.21995 9.96203 3.44079C9.97036 3.58247 10.0412 3.71581 10.1412 3.81998L10.8079 4.48252H4.24921C3.38249 4.48252 2.56995 4.82004 1.95324 5.43674C1.33654 6.04927 0.999023 6.86182 0.999023 7.72854V8.39524C0.999023 8.71609 1.26154 8.97861 1.58239 8.97861C1.90324 8.97861 2.16576 8.71609 2.16576 8.39524V7.72854C2.16576 7.17434 2.38243 6.65347 2.77829 6.25762C3.17415 5.86176 3.69501 5.64508 4.24921 5.64508H10.7246L10.0579 6.30762C9.95786 6.40763 9.89119 6.53263 9.87869 6.67014C9.86203 6.84515 9.92453 7.016 10.0495 7.141C10.1579 7.24934 10.3079 7.31185 10.4621 7.31185C10.6162 7.31185 10.7621 7.25351 10.8746 7.141L12.358 5.66592C12.533 5.49508 12.6288 5.26173 12.6288 5.02005C12.6247 4.7742 12.5288 4.54502 12.358 4.37418Z"
        fill="currentColor" stroke="currentColor" stroke-width="0.2" />
    <path
        d="M16.4166 7.98242C16.0957 7.98242 15.8332 8.24494 15.8332 8.56579V9.23249C15.8332 9.78669 15.6165 10.3076 15.2207 10.7034C14.8248 11.0993 14.304 11.3159 13.7498 11.3159H7.27439L7.9411 10.6534C8.0411 10.5534 8.10777 10.4284 8.12027 10.2867C8.13694 10.1117 8.07444 9.94087 7.94943 9.81586C7.84109 9.70752 7.69108 9.64502 7.53691 9.64502C7.38273 9.64502 7.23689 9.70335 7.12438 9.81586L5.64097 11.2909C5.46596 11.4618 5.37012 11.6951 5.37012 11.9368C5.37012 12.1827 5.46596 12.4118 5.64097 12.5827L7.04105 13.9744C7.18689 14.1203 7.39523 14.1786 7.60774 14.1244C7.65775 14.1119 7.70775 14.0911 7.75359 14.0619C7.94943 13.9411 8.0536 13.7369 8.03693 13.5161C8.0286 13.3744 7.95776 13.2411 7.85776 13.1369L7.19105 12.4743H13.7498C15.5415 12.4743 16.9999 11.0159 16.9999 9.22416V8.55745C16.9999 8.24494 16.7374 7.98242 16.4166 7.98242Z"
        fill="currentColor" stroke="currentColor" stroke-width="0.2" />
</svg>