<svg width="11" height="14" viewBox="0 0 11 14" fill="none" xmlns="http://www.w3.org/2000/svg">
<path d="M5.13333 2.66667V0L1.925 3.33333L5.13333 6.66667V4C6.15442 4 7.13368 4.42143 7.85569 5.17157C8.57771 5.92172 8.98333 6.93913 8.98333 8C8.98333 9.06087 8.57771 10.0783 7.85569 10.8284C7.13368 11.5786 6.15442 12 5.13333 12C4.11225 12 3.13299 11.5786 2.41097 10.8284C1.68896 10.0783 1.28333 9.06087 1.28333 8H0C0 9.41449 0.540832 10.771 1.50352 11.7712C2.46621 12.7714 3.77189 13.3333 5.13333 13.3333C6.49478 13.3333 7.80046 12.7714 8.76315 11.7712C9.72583 10.771 10.2667 9.41449 10.2667 8C10.2667 6.58551 9.72583 5.22896 8.76315 4.22876C7.80046 3.22857 6.49478 2.66667 5.13333 2.66667Z" fill="currentColor"/>
</svg>
