<svg width="24" height="24" viewBox="0 0 24 24" fill="none" xmlns="http://www.w3.org/2000/svg">
    <path
        d="M14.4582 11.7635C15.0504 10.8785 15.2921 9.80492 15.1364 8.75158C14.9807 7.69823 14.4387 6.74049 13.6158 6.06472C12.793 5.38895 11.7481 5.04348 10.6846 5.09555C9.62107 5.14762 8.61497 5.5935 7.86205 6.34642C7.10912 7.09934 6.66325 8.10545 6.61118 9.16897C6.55911 10.2325 6.90457 11.2773 7.58034 12.1002C8.25611 12.9231 9.21385 13.4651 10.2672 13.6208C11.3205 13.7765 12.3941 13.5348 13.2791 12.9426L16.1302 15.7926L16.2074 15.8594L16.2166 15.8663C16.3858 15.989 16.5949 16.0437 16.8026 16.0196C17.0102 15.9954 17.2012 15.8941 17.3376 15.7357C17.4741 15.5774 17.5461 15.3736 17.5394 15.1646C17.5327 14.9557 17.4477 14.7569 17.3013 14.6077L14.4571 11.7635H14.4582ZM10.8943 6.75668C11.5895 6.75668 12.2563 7.03286 12.7479 7.52448C13.2395 8.01609 13.5157 8.68286 13.5157 9.3781C13.5157 10.0733 13.2395 10.7401 12.7479 11.2317C12.2563 11.7233 11.5895 11.9995 10.8943 11.9995C10.1991 11.9995 9.53229 11.7233 9.04068 11.2317C8.54906 10.7401 8.27288 10.0733 8.27288 9.3781C8.27288 8.68286 8.54906 8.01609 9.04068 7.52448C9.53229 7.03286 10.1991 6.75668 10.8943 6.75668V6.75668ZM4.87879 0.484375C4.11529 0.484375 3.38305 0.787675 2.84318 1.32755C2.3033 1.86743 2 2.59966 2 3.36316V20.6359C2 21.3994 2.3033 22.1316 2.84318 22.6715C3.38305 23.2114 4.11529 23.5147 4.87879 23.5147H20.1364C20.3654 23.5147 20.5851 23.4237 20.747 23.2617C20.909 23.0998 21 22.8801 21 22.651C21 22.422 20.909 22.2023 20.747 22.0404C20.5851 21.8784 20.3654 21.7874 20.1364 21.7874H4.87879C4.57339 21.7874 4.28049 21.6661 4.06454 21.4501C3.84859 21.2342 3.72727 20.9413 3.72727 20.6359H20.1364C20.3654 20.6359 20.5851 20.5449 20.747 20.3829C20.909 20.221 21 20.0013 21 19.7723V3.36316C21 2.98512 20.9255 2.61077 20.7809 2.2615C20.6362 1.91223 20.4241 1.59487 20.1568 1.32755C19.8895 1.06023 19.5721 0.848182 19.2229 0.70351C18.8736 0.558837 18.4993 0.484375 18.1212 0.484375H4.87879ZM19.2727 18.9086H3.72727V3.36316C3.72727 3.05776 3.84859 2.76487 4.06454 2.54892C4.28049 2.33297 4.57339 2.21165 4.87879 2.21165H18.1212C18.4266 2.21165 18.7195 2.33297 18.9355 2.54892C19.1514 2.76487 19.2727 3.05776 19.2727 3.36316V18.9086Z"
        fill="currentColor" />
</svg>