<svg width="24" height="24" viewBox="0 0 24 24" fill="currentColor" xmlns="http://www.w3.org/2000/svg">
<path d="M23.5 21.4663L16.4907 14.4559C17.6203 12.9036 18.2279 11.0328 18.2261 9.11303C18.2261 4.08821 14.1378 0 9.11303 0C4.08821 0 0 4.08821 0 9.11303C0 14.1378 4.08821 18.2261 9.11303 18.2261C11.0328 18.2279 12.9036 17.6203 14.4559 16.4907L21.4663 23.5L23.5 21.4663ZM9.11303 15.3479C7.87973 15.348 6.6741 14.9824 5.64861 14.2973C4.62312 13.6121 3.82382 12.6383 3.35181 11.4989C2.87979 10.3595 2.75626 9.10574 2.99684 7.89613C3.23742 6.68653 3.83129 5.57544 4.70336 4.70336C5.57544 3.83129 6.68653 3.23742 7.89613 2.99684C9.10574 2.75626 10.3595 2.87979 11.4989 3.35181C12.6383 3.82382 13.6121 4.62312 14.2973 5.64861C14.9824 6.6741 15.348 7.87973 15.3479 9.11303C15.3459 10.766 14.6884 12.3507 13.5196 13.5196C12.3507 14.6884 10.766 15.3459 9.11303 15.3479Z" fill="currentColor"/>
</svg>
