<svg width="24" height="24" viewBox="0 0 40 40" fill="none" xmlns="http://www.w3.org/2000/svg">
<path d="M39.5111 37.2131L32.6363 30.4917L32.4752 30.2466C32.1756 29.9483 31.7659 29.7803 31.3383 29.7803C30.9107 29.7803 30.5011 29.9483 30.2015 30.2466C24.359 35.6067 15.3563 35.898 9.16401 30.9274C2.97172 25.9568 1.51134 17.2667 5.75137 10.6203C9.9914 3.97394 18.6161 1.43369 25.9057 4.68427C33.1953 7.93485 36.8876 15.9676 34.534 23.4552C34.3645 23.9961 34.5031 24.5844 34.8975 24.9983C35.2919 25.4123 35.8822 25.5891 36.4461 25.4622C37.01 25.3352 37.4618 24.9238 37.6313 24.3829C40.4448 15.4973 36.1955 5.93511 27.6322 1.88212C19.069 -2.17088 8.76168 0.501648 3.37811 8.17083C-2.00546 15.84 -0.849642 26.2043 6.09786 32.559C13.0454 38.9137 23.6996 39.3518 31.1683 33.5898L37.2553 39.541C37.884 40.153 38.9003 40.153 39.529 39.541C40.157 38.9204 40.157 37.9212 39.529 37.3006L39.5111 37.2131Z" fill="black"/>
</svg>
