<svg width="22" height="24" viewBox="0 0 38 40" fill="none" xmlns="http://www.w3.org/2000/svg">
<path d="M1.74619 10.3267C2.15473 10.2476 2.57872 10.3307 2.92429 10.5578C3.60694 11.011 3.80487 11.9079 3.37402 12.5955L3.26099 12.8177C2.83384 13.796 3.21538 14.9531 4.18354 15.4941C4.9669 15.9628 5.6117 16.6228 6.05443 17.4089C7.43306 19.8819 6.57748 22.9763 4.11159 24.4357C3.06895 25.0182 2.70666 26.3154 3.30207 27.3342L4.54333 29.4247C4.82576 29.9228 5.30407 30.2869 5.8677 30.4328C6.43134 30.5787 7.03153 30.4938 7.52956 30.1976C8.33259 29.7428 9.24568 29.5062 10.174 29.5125C13.1546 29.5125 15.5708 31.872 15.5708 34.7826C15.5807 35.9594 16.5604 36.9083 17.7655 36.9082L17.7475 36.9433C18.3066 36.9433 18.8233 37.2346 19.1029 37.7075C19.3825 38.1804 19.3825 38.763 19.1029 39.2358C18.8233 39.7087 18.3066 40 17.7475 40C14.7669 40 12.3507 37.6405 12.3507 34.7299C12.3555 34.3594 12.256 33.9948 12.0629 33.6759C11.4593 32.6555 10.1253 32.3024 9.07664 32.8854L8.75694 33.0423C6.28302 34.1593 3.31308 33.2958 1.88091 30.9881L0.657637 28.8977C-0.720994 26.4247 0.134593 23.3302 2.60048 21.8709C2.92732 21.6831 3.19974 21.4171 3.39201 21.0979C3.7528 20.6069 3.88246 19.989 3.74856 19.399C3.61466 18.8089 3.22987 18.3024 2.69043 18.0061L2.39063 17.8154C0.15712 16.29 -0.573604 13.3493 0.747584 10.9794L0.900799 10.789C1.12398 10.553 1.41936 10.39 1.74619 10.3267ZM34.0032 15.4038C34.7123 15.1553 35.5194 15.4249 35.9167 16.0738C36.3565 16.7969 36.1153 17.7311 35.377 18.1643C35.0502 18.352 34.7778 18.618 34.5855 18.9372C34.2923 19.4259 34.2111 20.0087 34.3597 20.5562C34.5083 21.1036 34.8745 21.5706 35.377 21.8533C37.9226 23.3434 38.7584 26.561 37.2479 29.0558L36.0246 31.1462L35.8293 31.439C34.2672 33.6201 31.2558 34.3336 28.8289 33.0435C28.156 32.6467 27.3153 32.6386 26.6344 33.0222C25.9535 33.4058 25.54 34.1205 25.5549 34.888C25.4687 35.6736 24.7899 36.2693 23.9808 36.2693C23.1717 36.2693 22.4929 35.6736 22.4067 34.888C22.4454 33.0462 23.4661 31.3577 25.0988 30.4349C26.7315 29.512 28.7392 29.4886 30.394 30.3733C30.8912 30.6653 31.4884 30.7477 32.049 30.6017C32.6086 30.4484 33.0857 30.0896 33.3802 29.6004L34.6035 27.5099C34.8958 27.0239 34.9766 26.4437 34.8279 25.8991C34.6792 25.3545 34.3133 24.8907 33.812 24.6113C32.969 24.1097 32.289 23.3848 31.8511 22.5209C30.4725 20.0479 31.3281 16.9534 33.794 15.4941L34.0032 15.4038ZM18.9888 13.4036C20.781 13.3989 22.5015 14.0909 23.7705 15.3268C25.0395 16.5628 25.7528 18.241 25.7528 19.9912L25.7416 20.3901C25.5935 22.9023 23.9903 25.1296 21.5897 26.1061C19.0628 27.134 16.1505 26.5732 14.2123 24.6856C12.2741 22.7979 11.6921 19.9555 12.7379 17.4852C13.7838 15.0148 16.2513 13.4036 18.9888 13.4036ZM18.9888 16.4954C17.0017 16.4954 15.3909 18.0684 15.3909 20.0088C15.3909 21.9492 17.0017 23.5222 18.9888 23.5222C20.9758 23.5222 22.5866 21.9492 22.5866 20.0088L22.5747 19.7206C22.4246 17.915 20.8764 16.4954 18.9888 16.4954ZM20.23 0C23.2106 0 25.6268 2.3595 25.6268 5.27009C25.622 5.64056 25.7215 6.00519 25.9146 6.32411C26.2012 6.81785 26.678 7.1792 27.2389 7.32768C27.7998 7.47616 28.3982 7.39945 28.9009 7.11462C31.4333 5.76836 34.6022 6.60386 36.0966 9.01186C36.5096 9.7467 36.2557 10.6689 35.5209 11.1023C34.7743 11.5186 33.824 11.2768 33.3802 10.5578L33.2389 10.3508C32.5816 9.49922 31.3634 9.24069 30.394 9.7848C28.742 10.6681 26.7379 10.6466 25.1063 9.7279C23.4747 8.80922 22.4515 7.12634 22.4067 5.28766C22.4262 4.71184 22.2055 4.15295 21.7952 3.739C21.3848 3.32504 20.82 3.09147 20.23 3.09179H17.7655C17.1739 3.09161 16.6074 3.32463 16.1942 3.73802C15.781 4.15142 15.5562 4.71018 15.5708 5.28766C15.5541 7.13636 14.5301 8.83638 12.8836 9.74894C11.2371 10.6615 9.21746 10.6484 7.58353 9.71454L7.51157 9.64427L7.33849 9.52275C6.74352 9.04225 6.58893 8.19435 7.00787 7.53623C7.46489 6.81829 8.43138 6.59807 9.16659 7.04436C9.49476 7.23135 9.8661 7.3341 10.2459 7.343C10.8281 7.36677 11.3961 7.16348 11.8247 6.77793C12.2533 6.39238 12.5072 5.85623 12.5306 5.28766C12.5195 2.43089 14.8413 0.0856831 17.7655 0H20.23Z" fill="black"/>
</svg>
