<svg width="24" height="24" viewBox="0 0 24 24" fill="none" xmlns="http://www.w3.org/2000/svg">
<path d="M18.5075 16.4337C17.6205 16.4337 16.8268 16.7839 16.2199 17.3325L7.89797 12.4887C7.95632 12.2203 8.00301 11.9518 8.00301 11.6717C8.00301 11.3916 7.95632 11.1231 7.89797 10.8547L16.1265 6.05761C16.7568 6.64119 17.5855 7.00301 18.5075 7.00301C20.445 7.00301 22.009 5.43901 22.009 3.50151C22.009 1.56401 20.445 0 18.5075 0C16.57 0 15.006 1.56401 15.006 3.50151C15.006 3.78163 15.0527 4.05008 15.1111 4.31852L6.88253 9.11559C6.25226 8.532 5.42357 8.17018 4.50151 8.17018C2.56401 8.17018 1 9.73419 1 11.6717C1 13.6092 2.56401 15.1732 4.50151 15.1732C5.42357 15.1732 6.25226 14.8114 6.88253 14.2278L15.1928 19.0832C15.1344 19.3283 15.0994 19.5851 15.0994 19.8419C15.0994 21.721 16.6284 23.25 18.5075 23.25C20.3867 23.25 21.9157 21.721 21.9157 19.8419C21.9157 17.9627 20.3867 16.4337 18.5075 16.4337Z" fill="black"/>
</svg>
