<svg width="20" height="13" viewBox="0 0 20 13" fill="none" xmlns="http://www.w3.org/2000/svg">
    <path
        d="M10.0007 4.09375C10.6637 4.09375 11.2996 4.35714 11.7684 4.82598C12.2373 5.29482 12.5007 5.93071 12.5007 6.59375C12.5007 7.25679 12.2373 7.89268 11.7684 8.36152C11.2996 8.83036 10.6637 9.09375 10.0007 9.09375C9.33761 9.09375 8.70172 8.83036 8.23288 8.36152C7.76404 7.89268 7.50065 7.25679 7.50065 6.59375C7.50065 5.93071 7.76404 5.29482 8.23288 4.82598C8.70172 4.35714 9.33761 4.09375 10.0007 4.09375ZM10.0007 0.34375C14.1673 0.34375 17.7256 2.93542 19.1673 6.59375C17.7256 10.2521 14.1673 12.8438 10.0007 12.8438C5.83398 12.8438 2.27565 10.2521 0.833984 6.59375C2.27565 2.93542 5.83398 0.34375 10.0007 0.34375ZM2.65065 6.59375C4.02565 9.39375 6.86732 11.1771 10.0007 11.1771C13.134 11.1771 15.9756 9.39375 17.3506 6.59375C15.9756 3.79375 13.134 2.01042 10.0007 2.01042C6.86732 2.01042 4.02565 3.79375 2.65065 6.59375Z"
        fill="#8B8B8B" />
</svg>
