<svg width="24" height="24" viewBox="0 0 24 24" fill="none" xmlns="http://www.w3.org/2000/svg">
<path d="M12.8195 9.0203L9.26504 6.3515V16.8402L12.8195 14.1714L16.2575 11.5959L12.8195 9.0203ZM12.8195 9.0203L9.26504 6.3515V16.8402L12.8195 14.1714L16.2575 11.5959L12.8195 9.0203ZM12.8195 9.0203L9.26504 6.3515V16.8402L12.8195 14.1714L16.2575 11.5959L12.8195 9.0203ZM10.4305 2.35414V0C8.08797 0.233083 5.95526 1.16541 4.23045 2.57556L5.88534 4.24211C7.17895 3.23985 8.72895 2.56391 10.4305 2.35414ZM4.24211 5.88534L2.57556 4.23045C1.16541 5.95526 0.233083 8.08797 0 10.4305H2.35414C2.56391 8.72895 3.23985 7.17895 4.24211 5.88534ZM2.35414 12.7613H0C0.233083 15.1038 1.16541 17.2365 2.57556 18.9613L4.24211 17.2947C3.23985 16.0128 2.56391 14.4628 2.35414 12.7613ZM4.23045 20.6162C5.95526 22.0263 8.09962 22.9586 10.4305 23.1917V20.8376C8.72895 20.6278 7.17895 19.9519 5.88534 18.9496L4.23045 20.6162ZM23.25 11.5959C23.25 17.6094 18.6816 22.5741 12.8195 23.1917V20.8376C17.388 20.2316 20.9192 16.3158 20.9192 11.5959C20.9192 6.87594 17.388 2.96015 12.8195 2.35414V0C18.6816 0.617669 23.25 5.58233 23.25 11.5959Z" fill="#323232"/>
</svg>
