<svg width="16" height="16" viewBox="0 0 16 16" fill="none" xmlns="http://www.w3.org/2000/svg">
<g clip-path="url(#clip0_9291_103557)">
<path fill-rule="evenodd" clip-rule="evenodd" d="M0.643078 2.4C0 3.51384 0 5.00923 0 8C0 10.9908 0 12.4862 0.643078 13.6C1.06437 14.3297 1.6703 14.9356 2.4 15.357C3.51384 16 5.00923 16 8 16C10.9908 16 12.4862 16 13.6 15.357C14.3297 14.9356 14.9356 14.3297 15.357 13.6C16 12.4862 16 10.9908 16 8C16 5.00923 16 3.51384 15.357 2.4C14.9356 1.6703 14.3297 1.06437 13.6 0.643078C12.4862 0 10.9908 0 8 0C5.00923 0 3.51384 0 2.4 0.643078C1.6703 1.06437 1.06437 1.6703 0.643078 2.4ZM5.6 8C5.6 8.66272 5.06274 9.2 4.4 9.2C3.73726 9.2 3.2 8.66272 3.2 8C3.2 7.33726 3.73726 6.8 4.4 6.8C5.06274 6.8 5.6 7.33726 5.6 8ZM9.2 8C9.2 8.66272 8.66272 9.2 8 9.2C7.33726 9.2 6.8 8.66272 6.8 8C6.8 7.33726 7.33726 6.8 8 6.8C8.66272 6.8 9.2 7.33726 9.2 8ZM11.6 9.2C12.2627 9.2 12.8 8.66272 12.8 8C12.8 7.33726 12.2627 6.8 11.6 6.8C10.9373 6.8 10.4 7.33726 10.4 8C10.4 8.66272 10.9373 9.2 11.6 9.2Z" fill="#CED4DA"/>
</g>
<defs>
<clipPath id="clip0_9291_103557">
<rect width="16" height="16" fill="white"/>
</clipPath>
</defs>
</svg>
