<svg width="24" height="24" viewBox="0 0 24 24" fill="none" xmlns="http://www.w3.org/2000/svg">
<path d="M12.3782 1.46694L15.5157 7.82276L22.5313 8.84373C22.6863 8.86607 22.8319 8.93136 22.9517 9.03221C23.0714 9.13305 23.1606 9.26541 23.209 9.41431C23.2574 9.5632 23.2631 9.72267 23.2256 9.87467C23.188 10.0267 23.1086 10.1651 22.9964 10.2743L17.9188 15.2177L19.1174 22.2051C19.1438 22.3594 19.1265 22.5181 19.0675 22.6631C19.0085 22.8081 18.9101 22.9338 18.7834 23.0258C18.6568 23.1179 18.5069 23.1726 18.3507 23.1839C18.1945 23.1953 18.0383 23.1627 17.8997 23.0898L11.6256 19.7959L5.35045 23.0929C5.21172 23.1654 5.05549 23.1977 4.89937 23.1862C4.74326 23.1746 4.59347 23.1197 4.46688 23.0277C4.34029 22.9356 4.24193 22.81 4.1829 22.665C4.12387 22.52 4.1065 22.3614 4.13276 22.2071L5.33129 15.2238L0.253691 10.2803C0.141494 10.1711 0.0621178 10.0327 0.0245516 9.88072C-0.0130146 9.72873 -0.00726922 9.56925 0.0411371 9.42036C0.0895434 9.27147 0.178676 9.1391 0.29844 9.03826C0.418204 8.93742 0.563813 8.87212 0.718776 8.84978L7.73439 7.82377L10.8719 1.46795C10.9414 1.32754 11.0486 1.20933 11.1816 1.12664C11.3146 1.04395 11.4681 1.00007 11.6247 0.99997C11.7814 0.999865 11.9349 1.04353 12.068 1.12604C12.2012 1.20855 12.3086 1.32663 12.3782 1.46694Z" fill="black"/>
</svg>
