<svg width="12" height="12" viewBox="0 0 12 12" fill="none" xmlns="http://www.w3.org/2000/svg">
    <g clip-path="url(#clip0_5830_112861)">
        <path fill-rule="evenodd" clip-rule="evenodd"
            d="M6 8C6.53043 8 7.03914 7.78929 7.41421 7.41421C7.78929 7.03914 8 6.53043 8 6C8 5.46957 7.78929 4.96086 7.41421 4.58579C7.03914 4.21071 6.53043 4 6 4C5.46957 4 4.96086 4.21071 4.58579 4.58579C4.21071 4.96086 4 5.46957 4 6C4 6.53043 4.21071 7.03914 4.58579 7.41421C4.96086 7.78929 5.46957 8 6 8ZM6 9C6.79565 9 7.55871 8.68393 8.12132 8.12132C8.68393 7.55871 9 6.79565 9 6C9 5.20435 8.68393 4.44129 8.12132 3.87868C7.55871 3.31607 6.79565 3 6 3C5.20435 3 4.44129 3.31607 3.87868 3.87868C3.31607 4.44129 3 5.20435 3 6C3 6.79565 3.31607 7.55871 3.87868 8.12132C4.44129 8.68393 5.20435 9 6 9Z"
            fill="currentColor" />
        <path fill-rule="evenodd" clip-rule="evenodd"
            d="M5.5 0H6.5V2.031C6.16795 1.98958 5.83205 1.98958 5.5 2.031V0ZM3.547 2.84L2.111 1.404L1.404 2.111L2.84 3.547C3.04536 3.28286 3.28286 3.04536 3.547 2.84ZM2.031 5.5H0V6.5H2.031C1.98958 6.16795 1.98958 5.83205 2.031 5.5ZM2.84 8.453L1.404 9.889L2.111 10.596L3.547 9.16C3.28286 8.95464 3.04536 8.71714 2.84 8.453ZM5.5 9.969V12H6.5V9.969C6.16796 10.0105 5.83204 10.0105 5.5 9.969ZM8.453 9.16L9.889 10.596L10.596 9.889L9.16 8.453C8.95464 8.71714 8.71714 8.95464 8.453 9.16ZM9.969 6.5H12V5.5H9.969C10.0105 5.83204 10.0105 6.16796 9.969 6.5ZM9.16 3.547L10.596 2.111L9.889 1.404L8.453 2.84C8.717 3.045 8.9545 3.283 9.16 3.547Z"
            fill="currentColor" />
    </g>
    <defs>
        <clipPath id="clip0_5830_112861">
            <rect width="12" height="12" fill="white" />
        </clipPath>
    </defs>
</svg>
