<svg width="20" height="20" viewBox="0 0 20 20" fill="none" xmlns="http://www.w3.org/2000/svg">
    <g clip-path="url(#clip0_3249_20120)">
        <path
            d="M5.21186 4.02585L3.94068 5.29704L2.28814 3.68687L3.55932 2.41568L5.21186 4.02585ZM2.71186 9.15297V10.975H0V9.15297H2.71186ZM10.8475 0.169922V2.83941H9.02542V0.169922H10.8475ZM17.5847 3.68687L15.9746 5.29704L14.7034 4.02585L16.3136 2.41568L17.5847 3.68687ZM14.661 16.0598L15.9322 14.8309L17.5847 16.4411L16.3136 17.7123L14.661 16.0598ZM17.161 9.15297H19.8729V10.975H17.161V9.15297ZM9.95763 4.61907C11.4548 4.61907 12.7331 5.14874 13.7924 6.20806C14.8517 7.26738 15.3814 8.54563 15.3814 10.0428C15.3814 11.54 14.8517 12.8182 13.7924 13.8775C12.7331 14.9369 11.4548 15.4665 9.95763 15.4665C8.46045 15.4665 7.1822 14.9369 6.12288 13.8775C5.06356 12.8182 4.5339 11.54 4.5339 10.0428C4.5339 8.54563 5.06356 7.26738 6.12288 6.20806C7.1822 5.14874 8.46045 4.61907 9.95763 4.61907ZM9.02542 19.9581V17.2886H10.8475V19.9581H9.02542ZM2.28814 16.4411L3.94068 14.7886L5.21186 16.0598L3.55932 17.7123L2.28814 16.4411Z"
            fill="#FFB300" />
    </g>
    <defs>
        <clipPath id="clip0_3249_20120">
            <rect width="20" height="20" fill="white" />
        </clipPath>
    </defs>
</svg>
