<svg xmlns="http://www.w3.org/2000/svg" xmlns:xlink="http://www.w3.org/1999/xlink" fill="none" width="48px"
    height="48px" viewBox="0 0 48 48" version="1.1">
    <g id="surface1">
        <path fill="black"
            d="M 47.445312 2.945312 C 43.648438 0.992188 39.636719 0 35.523438 0 C 31.550781 0 27.675781 0.921875 24 2.742188 C 20.324219 0.921875 16.449219 0 12.476562 0 C 8.363281 0 4.351562 0.992188 0.554688 2.945312 C 0.214844 3.117188 0 3.46875 0 3.851562 L 0 46.980469 C 0.0625 48.035156 1.054688 48.109375 1.488281 47.886719 C 8.511719 44.308594 16.460938 44.28125 23.46875 47.886719 C 23.613281 47.960938 23.882812 48.015625 23.992188 47.996094 C 24.175781 48.007812 24.363281 47.972656 24.53125 47.886719 C 31.542969 44.28125 39.503906 44.28125 46.511719 47.886719 C 46.660156 47.960938 46.820312 48 46.980469 48 C 47.164062 48 48 47.808594 48 46.980469 L 48 3.851562 C 48 3.46875 47.785156 3.117188 47.445312 2.945312 Z M 22.914062 45.359375 C 16.210938 42.394531 8.746094 42.394531 2.042969 45.359375 L 2.042969 4.484375 C 8.722656 1.242188 16.238281 1.246094 22.914062 4.484375 Z M 45.957031 45.359375 C 42.605469 43.878906 39.105469 43.125 35.523438 43.125 C 31.941406 43.125 28.4375 43.878906 25.085938 45.359375 L 25.085938 4.484375 C 31.765625 1.242188 39.277344 1.242188 45.957031 4.484375 Z M 45.957031 45.359375 " />
    </g>
</svg>