<svg xmlns="http://www.w3.org/2000/svg" viewBox="0 0 490 490"><path d="M484.34 30.049C445.59 10.109 404.632 0 362.624 0c-40.53 0-80.083 9.414-117.618 27.985C207.471 9.414 167.917 0 127.377 0 85.369 0 44.411 10.109 5.661 30.049A10.417 10.417 0 0 0 0 39.32v440.255c.644 10.778 10.755 11.531 15.191 9.27 71.713-36.544 152.85-36.805 224.382 0 1.497.773 4.249 1.301 5.347 1.116a10.4 10.4 0 0 0 5.517-1.116c71.554-36.816 152.819-36.816 224.373 0a10.387 10.387 0 0 0 4.764 1.155c1.884 0 10.426-1.968 10.426-10.426V39.32c0-3.904-2.178-7.483-5.66-9.271zM233.913 463.04c-68.418-30.254-144.645-30.263-213.063 0V45.765c68.184-33.069 144.91-33.058 213.063 0V463.04zm235.236 0c-34.208-15.129-69.965-22.786-106.525-22.786-36.561 0-72.318 7.657-106.526 22.786V45.765c68.174-33.069 144.878-33.069 213.051 0V463.04z"/></svg>