<svg width="18" height="18" viewBox="0 0 24 24" fill="none" xmlns="http://www.w3.org/2000/svg">
<path d="M5.74054 0H18.2595C21.4297 0 24 2.57027 24 5.74054V18.2595C24 21.4297 21.4297 24 18.2595 24H5.74054C2.57027 24 0 21.4297 0 18.2595V5.74054C0 2.57027 2.57027 0 5.74054 0Z" fill="white"/>
<path d="M5.74054 0H18.2595C21.4297 0 24 2.57027 24 5.74054V18.2595C24 21.4297 21.4297 24 18.2595 24H5.74054C2.57027 24 0 21.4297 0 18.2595V5.74054C0 2.57027 2.57027 0 5.74054 0Z" fill="url(#paint0_linear_4698_42966)"/>
<path d="M5.74054 0H18.2595C21.4297 0 24 2.57027 24 5.74054V18.2595C24 21.4297 21.4297 24 18.2595 24H5.74054C2.57027 24 0 21.4297 0 18.2595V5.74054C0 2.57027 2.57027 0 5.74054 0Z" fill="url(#paint1_linear_4698_42966)"/>
<path d="M5.74054 0H18.2595C21.4297 0 24 2.57027 24 5.74054V18.2595C24 21.4297 21.4297 24 18.2595 24H5.74054C2.57027 24 0 21.4297 0 18.2595V5.74054C0 2.57027 2.57027 0 5.74054 0Z" fill="url(#paint2_radial_4698_42966)" fill-opacity="0.8"/>
<path d="M5.74054 0H18.2595C21.4297 0 24 2.57027 24 5.74054V18.2595C24 21.4297 21.4297 24 18.2595 24H5.74054C2.57027 24 0 21.4297 0 18.2595V5.74054C0 2.57027 2.57027 0 5.74054 0Z" fill="url(#paint3_radial_4698_42966)" fill-opacity="0.8"/>
<path d="M5.74054 0H18.2595C21.4297 0 24 2.57027 24 5.74054V18.2595C24 21.4297 21.4297 24 18.2595 24H5.74054C2.57027 24 0 21.4297 0 18.2595V5.74054C0 2.57027 2.57027 0 5.74054 0Z" fill="url(#paint4_radial_4698_42966)" fill-opacity="0.8"/>
<path fill-rule="evenodd" clip-rule="evenodd" d="M15.0402 9.95808C14.4889 10.5095 14.2132 10.7851 13.8727 10.7851C13.5321 10.7851 13.2565 10.5095 12.7051 9.95808L10.0213 7.2743C9.46998 6.72294 9.19431 6.44727 8.85377 6.44727C8.51323 6.44727 8.23755 6.72294 7.6862 7.2743L4.10242 10.8581C3.55106 11.4095 3.27539 11.6851 3.27539 12.0257C3.27539 12.3662 3.55106 12.6419 4.10242 13.1932L7.6862 16.777C8.23755 17.3284 8.51323 17.604 8.85377 17.604C9.19431 17.604 9.46998 17.3284 10.0213 16.777L12.7051 14.0932C13.2565 13.5419 13.5321 13.2662 13.8727 13.2662C14.2132 13.2662 14.4889 13.5419 15.0402 14.0932L15.8511 14.904C16.4024 15.4554 16.6781 15.7311 17.0186 15.7311C17.3592 15.7311 17.6348 15.4554 18.1862 14.904L19.897 13.1932C20.4484 12.6419 20.724 12.3662 20.724 12.0257C20.724 11.6851 20.4484 11.4095 19.897 10.8581L18.1862 9.14727C17.6348 8.59592 17.3592 8.32024 17.0186 8.32024C16.6781 8.32024 16.4024 8.59592 15.8511 9.14727L15.0402 9.95808Z" fill="white"/>
<path fill-rule="evenodd" clip-rule="evenodd" d="M15.0402 9.95808C14.4889 10.5095 14.2132 10.7851 13.8727 10.7851C13.5321 10.7851 13.2565 10.5095 12.7051 9.95808L10.0213 7.2743C9.46998 6.72294 9.19431 6.44727 8.85377 6.44727C8.51323 6.44727 8.23755 6.72294 7.6862 7.2743L4.10242 10.8581C3.55106 11.4095 3.27539 11.6851 3.27539 12.0257C3.27539 12.3662 3.55106 12.6419 4.10242 13.1932L7.6862 16.777C8.23755 17.3284 8.51323 17.604 8.85377 17.604C9.19431 17.604 9.46998 17.3284 10.0213 16.777L12.7051 14.0932C13.2565 13.5419 13.5321 13.2662 13.8727 13.2662C14.2132 13.2662 14.4889 13.5419 15.0402 14.0932L15.8511 14.904C16.4024 15.4554 16.6781 15.7311 17.0186 15.7311C17.3592 15.7311 17.6348 15.4554 18.1862 14.904L19.897 13.1932C20.4484 12.6419 20.724 12.3662 20.724 12.0257C20.724 11.6851 20.4484 11.4095 19.897 10.8581L18.1862 9.14727C17.6348 8.59592 17.3592 8.32024 17.0186 8.32024C16.6781 8.32024 16.4024 8.59592 15.8511 9.14727L15.0402 9.95808Z" fill="white"/>
<defs>
<linearGradient id="paint0_linear_4698_42966" x1="24" y1="24" x2="0" y2="0" gradientUnits="userSpaceOnUse">
<stop stop-color="#BDD0FC" stop-opacity="0.15"/>
<stop offset="1" stop-color="#9D47EF" stop-opacity="0.01"/>
</linearGradient>
<linearGradient id="paint1_linear_4698_42966" x1="18.8907" y1="-5.40985" x2="9.57022" y2="18.139" gradientUnits="userSpaceOnUse">
<stop stop-color="#35F787"/>
<stop offset="0.3229" stop-color="#3CFF8B"/>
<stop offset="0.599" stop-color="#62D6F4"/>
<stop offset="0.9479" stop-color="#00A3FF"/>
</linearGradient>
<radialGradient id="paint2_radial_4698_42966" cx="0" cy="0" r="1" gradientUnits="userSpaceOnUse" gradientTransform="translate(19.8811 7.42005) rotate(134.885) scale(23.4037 39.0119)">
<stop stop-color="#8FF087"/>
<stop offset="1" stop-color="#83EE41" stop-opacity="0"/>
</radialGradient>
<radialGradient id="paint3_radial_4698_42966" cx="0" cy="0" r="1" gradientUnits="userSpaceOnUse" gradientTransform="translate(6.48329 -0.000879715) rotate(32.719) scale(19.3051 28.2126)">
<stop offset="0.00462769" stop-color="#75F3AC"/>
<stop offset="1" stop-color="#41EEBA" stop-opacity="0"/>
</radialGradient>
<radialGradient id="paint4_radial_4698_42966" cx="0" cy="0" r="1" gradientUnits="userSpaceOnUse" gradientTransform="translate(20.6683 6.62534) rotate(127.932) scale(22.0302 35.9951)">
<stop stop-color="#6AFF52"/>
<stop offset="1" stop-color="#00FFF0" stop-opacity="0"/>
</radialGradient>
</defs>
</svg>
