<svg width="20" height="20" viewBox="0 0 20 20" fill="none" xmlns="http://www.w3.org/2000/svg">
    <g clip-path="url(#clip0_3248_18860)">
        <path
            d="M18.7356 11.25H8.74537C8.40716 11.25 8.11448 11.1296 7.86732 10.8887C7.62017 10.6478 7.49659 10.3548 7.49659 10.0098C7.49659 9.66471 7.62017 9.36849 7.86732 9.12109C8.11448 8.8737 8.40716 8.75 8.74537 8.75H18.7356C19.0738 8.75 19.3665 8.8737 19.6137 9.12109C19.8608 9.36849 19.9844 9.66471 19.9844 10.0098C19.9844 10.3548 19.8608 10.6478 19.6137 10.8887C19.3665 11.1296 19.0738 11.25 18.7356 11.25ZM18.7356 3.75H8.74537C8.40716 3.75 8.11448 3.62956 7.86732 3.38867C7.62017 3.14779 7.49659 2.85482 7.49659 2.50977C7.49659 2.16471 7.62017 1.86849 7.86732 1.62109C8.11448 1.3737 8.40716 1.25 8.74537 1.25H18.7356C19.0738 1.25 19.3665 1.3737 19.6137 1.62109C19.8608 1.86849 19.9844 2.16471 19.9844 2.50977C19.9844 2.85482 19.8608 3.14779 19.6137 3.38867C19.3665 3.62956 19.0738 3.75 18.7356 3.75ZM3.75025 20H1.25269C0.901467 20 0.605532 19.8763 0.364882 19.6289C0.124231 19.3815 0.00390625 19.0885 0.00390625 18.75V16.25C0.00390625 15.9115 0.124231 15.6185 0.364882 15.3711C0.605532 15.1237 0.901467 15 1.25269 15H3.75025C4.08846 15 4.38114 15.1237 4.6283 15.3711C4.87545 15.6185 4.99903 15.9115 4.99903 16.25V18.75C4.99903 19.1016 4.87545 19.3978 4.6283 19.6387C4.38114 19.8796 4.08846 20 3.75025 20ZM3.75025 12.5H1.25269C0.901467 12.5 0.605532 12.3796 0.364882 12.1387C0.124231 11.8978 0.00390625 11.6016 0.00390625 11.25V8.75C0.00390625 8.41146 0.124231 8.11849 0.364882 7.87109C0.605532 7.6237 0.901467 7.5 1.25269 7.5H3.75025C4.08846 7.5 4.38114 7.6237 4.6283 7.87109C4.87545 8.11849 4.99903 8.41146 4.99903 8.75V11.25C4.99903 11.6016 4.87545 11.8978 4.6283 12.1387C4.38114 12.3796 4.08846 12.5 3.75025 12.5ZM3.75025 5H1.25269C0.901467 5 0.605532 4.87956 0.364882 4.63867C0.124231 4.39779 0.00390625 4.10156 0.00390625 3.75V1.25C0.00390625 0.911458 0.124231 0.61849 0.364882 0.371094C0.605532 0.123698 0.901467 0 1.25269 0H3.75025C4.08846 0 4.38114 0.123698 4.6283 0.371094C4.87545 0.61849 4.99903 0.911458 4.99903 1.25V3.75C4.99903 4.10156 4.87545 4.39779 4.6283 4.63867C4.38114 4.87956 4.08846 5 3.75025 5ZM8.74537 16.25H18.7356C19.0738 16.25 19.3665 16.3737 19.6137 16.6211C19.8608 16.8685 19.9844 17.1647 19.9844 17.5098C19.9844 17.8548 19.8608 18.1478 19.6137 18.3887C19.3665 18.6296 19.0738 18.75 18.7356 18.75H8.74537C8.39415 18.75 8.09822 18.6296 7.85756 18.3887C7.61691 18.1478 7.49659 17.8548 7.49659 17.5098C7.49659 17.1647 7.61691 16.8685 7.85756 16.6211C8.09822 16.3737 8.39415 16.25 8.74537 16.25Z"
            fill="#2CA4AB" />
    </g>
    <defs>
        <clipPath id="clip0_3248_18860">
            <rect width="20" height="20" fill="white" />
        </clipPath>
    </defs>
</svg>
