<?xml version="1.0" encoding="utf-8"?>
<svg viewBox="-5 -5 1473.1173 1599.4076" xmlns="http://www.w3.org/2000/svg">
  <g transform="matrix(-1, 0, 0, -1, 1486.11731, 1554.326538)">
    <path d="m867.20567.4227c89.45-7.31733 168.44703 67.8533 178.56703 154.76 18.25 93.412-12.1 187.411-58.73503 267.74-24.835 55.204-62.136 113.96-48.687 176.84 46.812 12.947 105.14203-1.596 156.29203 3.269 83.64 1.948 169.32-3.629 251.13 16.287 54.96 25.792 90.98 84.905 105.34 142.28-3.5 52.644-84.51 95.832-30.02 149.36 47.38 46.553 21.64 103.302-22.49 140.412-40.67 54.73 50.39 112.71 8.47 168.84-30.43 42.42-90.69 73.95-75.17 135.35 7.1 61.69-53.36 101.55-97.19 133.04-77.18 38.53-167.56 28.5-251.25503 30.49-140.11-4.42-281.42-6.19-418.52-38.51-65.784-12.46-131.88-23.51-197.46-36.9l-1.935-622.477c55.352 7.866 99.96-31.753 129.24-74.413 64.804-87.312 99.96-191.1 146.391-288.1 43.382-65.348 127.94-96.117 153.269-175.12 36.043-83.668 39.88-176.1 49.535-265.38-4.062-11.536 31.497-18.048 23.221-17.7693z" fill="#fff"/>
    <path d="m885.00586-40.027344c-5.35644-.142459-10.77817.0097-16.23047.320313-1.38768-.01908-2.10173.122706-2.92383.15039a40.004 40.004 0 0 0 -.29492.02539c-.53916.03963-1.07134.04372-1.61133.08789l.35547.01758a40.004 40.004 0 0 0 -13.83008 3.533203c.91282-.17774 1.31105.120586 1.70899 0-.64419.220238-3.10243 1.167585-4.87305 1.798828.4647-.343624.79222-.52756 1.15625-.751953a40.004 40.004 0 0 0 -1.85742 1.011719c-1.82529.66053-2.39597.784754-4.70899 1.740234-5.4779 2.262854-12.03887 4.755703-20.67968 12.068359-4.32041 3.656328-9.60924 8.8214-13.64453 17.9355472-2.17321 4.9084281-3.37321 11.1854241-3.52735 17.5917968-9.72879 90.507627-14.3139 177.905617-46.33789 252.244137a40.004 40.004 0 0 0 -1.35547 3.61329c-9.17461 28.61627-29.64569 50.14269-57.95508 74.65039-28.30938 24.50769-63.83451 50.31777-90.54882 90.55859a40.004 40.004 0 0 0 -2.75391 4.85156c-47.83359 99.93019-82.54269 200.84142-142.43164 281.53125a40.004 40.004 0 0 0 -.85938 1.20313c-12.54617 18.27937-28.13639 35.06774-43.80273 45.34375s-29.89752 14.50978-46.83008 12.10351a40.004 40.004 0 0 0 -45.62695 39.72656l1.93555 622.47658a40.004 40.004 0 0 0 31.99804 39.0683c66.37878 13.5531 132.52361 24.6131 197.61328 36.9356 142.32213 33.3505 285.94154 34.8715 425.10743 39.2617a40.004 40.004 0 0 0 2.21093.01c79.8179-1.8978 177.3426 10.6516 268.1699-34.6914a40.004 40.004 0 0 0 5.4746-3.3028c21.332-15.3261 49.7535-34.2349 73.9121-60.7304 24.1586-26.4956 44.8123-64.7399 39.6758-109.3692a40.004 40.004 0 0 0 -.957-5.2285c-4.3471-17.198-.5712-23.5129 12.6328-39.7832 13.1332-16.183 36.2342-34.709 55.9336-62.0234 16.4952-22.2091 21.1445-49.9746 18.0703-71.7071-3.0829-21.7944-11.1272-38.7903-17.3848-53.0507-6.2575-14.2604-10.7343-25.8317-11.7402-32.3477-.7695-4.9845-1.1278-6.114.4688-8.6953 24.9255-21.9833 45.9654-49.6496 54.3535-83.93946 8.8737-36.2752-1.8216-80.2759-33.8906-111.78516a40.004 40.004 0 0 0 0-.002c-8.1695-8.02532-6.8188-8.68162-6.8203-10.02539 0-1.34378 1.2844-7.07005 6.7051-16.47071 10.8415-18.80131 38.9605-45.69381 42.0176-91.67578a40.004 40.004 0 0 0 -1.1094-12.36523c-16.6139-66.38062-56.9965-135.85703-127.1504-168.7793a40.004 40.004 0 0 0 -7.5312-2.6543c-89.6568-21.82624-178.3165-15.528-259.502-17.4082-45.4049-3.93407-88.0454 1.74112-119.47263 1.25781 3.54094-36.12595 25.45383-76.77688 46.42973-123.18164 49.0748-85.16617 83.0093-187.82134 62.3417-293.60742l.4727 3.04297c-11.7974-101.277669-96.41368-187.815813-200.50204-190.584134zm-40.08008 73.625a40.004 40.004 0 0 0 14.96875 6.150391l.008.002a40.004 40.004 0 0 0 .0859.01172c-2.83826-.104348-7.49358.348432-15.0625-6.164063zm37.75 6.429688c60.75257 2.326598 116.18367 58.108707 123.36522 119.781246a40.004 40.004 0 0 0 .4746 3.04297c15.6815 80.2651-10.45462 164.86014-54.07029 239.98828a40.004 40.004 0 0 0 -1.88672 3.67188c-23.04367 51.22218-69.00102 118.9612-51.32226 201.61719a40.004 40.004 0 0 0 28.45117 30.18554c62.45743 17.27413 122.3517.65498 163.168 4.53711a40.004 40.004 0 0 0 2.8554.16992c84.4049 1.96582 165.5068-2.59187 238.3243 14.20899 36.0419 18.6151 64.8072 61.74872 77.8632 106.05078-3.7895 9.30508-15.9526 27.98741-30.1933 52.68359-8.458 14.66785-17.4275 33.06569-17.4024 56.51954.025 23.45384 11.6824 48.27108 30.7578 67.00976 15.3078 15.04162 15.4336 22.69291 12.25 35.70703-3.1837 13.01505-15.1411 30.99823-32.4511 45.55473a40.004 40.004 0 0 0 -6.3633 6.7558c-16.4464 22.1321-20.6846 50.0369-17.3652 71.5391 3.3194 21.5021 11.3631 38.195 17.5468 52.2871s10.5018 25.5376 11.4317 32.1113 1.264 7.0017-3.086 12.8262a40.004 40.004 0 0 0 -.4531.6191c-10.6617 14.8626-32.7195 33.2183-53.373 58.668-19.9904 24.6326-37.9663 63.0482-28.9746 105.5684 1.6092 16.5433-4.4255 28.9306-19.3731 45.3242-14.5632 15.9719-36.84 31.9624-58.4062 47.4453-62.8933 30.2139-144.5908 23.2346-230.58012 25.1836-140.32589-4.4175-278.57289-6.5123-409.74805-37.4356a40.004 40.004 0 0 0 -1.73437-.3691c-55.48721-10.5097-110.61626-20.011-165.00586-30.5371l-1.71289-551.29298c20.75413-4.0296 39.88325-12.34494 56.2168-23.0586 27.79566-18.23199 49.14899-42.58421 65.88281-66.96484 68.42598-92.68097 103.94928-197.57314 148.14062-290.5332 16.82407-24.31912 44.51329-46.13094 74.85547-72.39844 30.72321-26.59736 64.64776-59.45025 81.07031-108.69531 36.64706-86.01964 41.99147-175.41483 50.19336-257.757814.21719.0069.43725-.02199.6543-.01367zm-17.39062.304687a40.004 40.004 0 0 0 3.26172.05273l-.002.01367c-.36209.01219-1.27779.09572-3.25976-.06641z"/>
    <path d="m58 848.9057c0-32.79 26.58137-59.371 59.37067-59.371h185.724c32.789 0 59.371 26.581 59.371 59.371v579.105c0 32.79-26.582 59.37-59.371 59.37h-185.724c-32.7893 0-59.37067-26.58-59.37067-59.37z" fill="#fff"/>
    <path d="m117.37109 749.53516c-54.406917 0-99.37109 44.96363-99.37109 99.37109v579.10355c0 54.4074 44.964986 99.3711 99.37109 99.3711h185.72266c54.40601 0 99.37109-44.9632 99.37109-99.3711v-579.10355c0-54.40797-44.96427-99.37109-99.37109-99.37109zm0 80h185.72266c11.17118 0 19.37109 8.19906 19.37109 19.37109v579.10355c0 11.172-8.1991 19.3711-19.37109 19.3711h-185.72266c-11.17249 0-19.37109-8.1986-19.37109-19.3711v-579.10355c0-11.17254 8.19941-19.37109 19.37109-19.37109z"/>
  </g>
</svg>