<svg width="20" height="20" viewBox="0 0 20 20" fill="none" xmlns="http://www.w3.org/2000/svg">
    <path
        d="M12.9846 14.0007L10.0013 12.084L7.01797 14.0007L7.91797 10.5673L5.1763 8.33398L8.71797 8.11732L10.0013 4.83398L11.2846 8.11732L14.8263 8.33398L12.0846 10.5673M16.668 10.0007C16.668 9.07565 17.418 8.33398 18.3346 8.33398V5.00065C18.3346 4.07565 17.5846 3.33398 16.668 3.33398H3.33464C2.89261 3.33398 2.46868 3.50958 2.15612 3.82214C1.84356 4.1347 1.66797 4.55862 1.66797 5.00065V8.33398C2.59297 8.33398 3.33464 9.08398 3.33464 10.0007C3.33464 10.4427 3.15904 10.8666 2.84648 11.1792C2.53392 11.4917 2.11 11.6673 1.66797 11.6673V15.0007C1.66797 15.4427 1.84356 15.8666 2.15612 16.1792C2.46868 16.4917 2.89261 16.6673 3.33464 16.6673H16.668C17.11 16.6673 17.5339 16.4917 17.8465 16.1792C18.159 15.8666 18.3346 15.4427 18.3346 15.0007V11.6673C17.8926 11.6673 17.4687 11.4917 17.1561 11.1792C16.8436 10.8666 16.668 10.4427 16.668 10.0007Z"
        fill="#C2EDEF" />
</svg>
