<svg width="21" height="21" viewBox="0 0 21 21" fill="none" xmlns="http://www.w3.org/2000/svg">
<path fill-rule="evenodd" clip-rule="evenodd" d="M20 10.499V3.37402C20 2.74413 19.7498 2.14004 19.3044 1.69464C18.859 1.24925 18.2549 0.999023 17.625 0.999023H10.5C9.87011 0.999023 9.26602 1.24925 8.82062 1.69464C8.37522 2.14004 8.125 2.74413 8.125 3.37402V10.499C8.125 11.1289 8.37522 11.733 8.82062 12.1784C9.26602 12.6238 9.87011 12.874 10.5 12.874H17.625C18.2549 12.874 18.859 12.6238 19.3044 12.1784C19.7498 11.733 20 11.1289 20 10.499Z" stroke="currentColor" stroke-width="1.1875" stroke-linecap="round" stroke-linejoin="round"/>
<path d="M6.9375 12.8779H3.375M5.75 8.12793H3.375C2.74511 8.12793 2.14102 8.37815 1.69562 8.82355C1.25022 9.26895 1 9.87304 1 10.5029V17.6279C1 18.2578 1.25022 18.8619 1.69562 19.3073C2.14102 19.7527 2.74511 20.0029 3.375 20.0029H3.37856L10.5036 19.9911C11.1328 19.9901 11.736 19.7395 12.1806 19.2942C12.6253 18.8489 12.875 18.2453 12.875 17.6161V15.2494L5.75 8.12793Z" stroke="currentColor" stroke-width="1.1875" stroke-linecap="round" stroke-linejoin="round"/>
<path d="M8.71875 14.6553L7.53125 15.8428C7.13463 16.2382 6.14662 16.832 4.5625 17.624" stroke="currentColor" stroke-width="1.1875" stroke-linecap="round" stroke-linejoin="round"/>
<path d="M16.4375 8.12402H11.6875M4.5625 12.8776C4.95912 14.2622 5.55287 15.2526 6.34375 15.8451C7.13463 16.4377 8.125 17.0303 9.3125 17.624L4.5625 12.8776ZM14.0625 3.37402L10.5 10.499L14.0625 3.37402ZM14.0625 3.37402L17.625 10.499L14.0625 3.37402Z" stroke="currentColor" stroke-width="1.1875" stroke-linecap="round" stroke-linejoin="round"/>
</svg>
