<svg width="24" height="24" viewBox="0 0 24 24" fill="none" xmlns="http://www.w3.org/2000/svg">
<path d="M17 11.94C16.8933 12.3573 16.586 13.3877 16.078 15.031H17.938C17.4587 13.4917 17.1893 12.621 17.13 12.419C17.072 12.218 17.028 12.058 17 11.94Z" fill="black"/>
<path d="M22 8H12C11.4696 8 10.9609 8.21071 10.5858 8.58579C10.2107 8.96086 10 9.46957 10 10V19C10 19.5304 10.2107 20.0391 10.5858 20.4142C10.9609 20.7893 11.4696 21 12 21H18L22 24V21C22.5304 21 23.0391 20.7893 23.4142 20.4142C23.7893 20.0391 24 19.5304 24 19V10C24 9.46957 23.7893 8.96086 23.4142 8.58579C23.0391 8.21071 22.5304 8 22 8ZM18.819 18L18.3 16.3H15.7L15.181 18H13.55L16.07 10.832H17.92L20.45 18H18.819Z" fill="black"/>
<path d="M12 0H2C1.46957 0 0.960859 0.210714 0.585786 0.585786C0.210714 0.960859 0 1.46957 0 2L0 11C0 11.5304 0.210714 12.0391 0.585786 12.4142C0.960859 12.7893 1.46957 13 2 13V16L6 13H9V10C9.00416 9.86823 9.01752 9.73691 9.04 9.607C8.33704 9.33022 7.67072 8.96818 7.056 8.529C6.0875 9.19811 5.01115 9.69569 3.874 10C3.70254 9.48713 3.44262 9.00823 3.106 8.585C4.10594 8.40409 5.06646 8.04939 5.944 7.537C5.53915 7.09546 5.19265 6.60377 4.913 6.074C4.68191 5.63879 4.49691 5.18064 4.361 4.707C3.89 4.707 3.618 4.723 3.218 4.755V3.308C3.6029 3.34942 3.9899 3.36812 4.377 3.364H6.145V2.884C6.14595 2.71614 6.12987 2.54861 6.097 2.384H7.7C7.66775 2.54432 7.65167 2.70747 7.652 2.871V3.359H9.552C9.9391 3.3633 10.3261 3.3446 10.711 3.303V4.755C10.359 4.723 10.047 4.707 9.576 4.707C9.46497 5.24253 9.28445 5.76125 9.039 6.25C8.80215 6.72091 8.50352 7.1581 8.151 7.55C8.61298 7.82244 9.10491 8.04056 9.617 8.2C9.89402 7.82896 10.2535 7.5274 10.6671 7.31914C11.0806 7.11089 11.537 7.00163 12 7H14V2C14 1.46957 13.7893 0.960859 13.4142 0.585786C13.0391 0.210714 12.5304 0 12 0V0Z" fill="black"/>
<path d="M7.01602 6.642C7.50244 6.08839 7.84579 5.42401 8.01602 4.707H5.90002C6.10593 5.43452 6.48942 6.09945 7.01602 6.642Z" fill="black"/>
</svg>
