<svg width="12" height="12" viewBox="0 0 12 12" xmlns="http://www.w3.org/2000/svg">
<g clip-path="url(#clip0_14088_232407)">
<path d="M1.33333 1.975H3.08333V1.4C3.08333 1.095 3.20625 0.802494 3.42504 0.586827C3.64383 0.37116 3.94058 0.25 4.25 0.25H7.75C8.05942 0.25 8.35616 0.37116 8.57496 0.586827C8.79375 0.802494 8.91667 1.095 8.91667 1.4V1.975H10.6667C10.8214 1.975 10.9697 2.03558 11.0791 2.14341C11.1885 2.25125 11.25 2.3975 11.25 2.55C11.25 2.7025 11.1885 2.84875 11.0791 2.95659C10.9697 3.06442 10.8214 3.125 10.6667 3.125H10.0833V10.6C10.0833 10.905 9.96042 11.1975 9.74162 11.4132C9.52283 11.6288 9.22609 11.75 8.91667 11.75H3.08333C2.77391 11.75 2.47717 11.6288 2.25838 11.4132C2.03958 11.1975 1.91667 10.905 1.91667 10.6V3.125H1.33333C1.17862 3.125 1.03025 3.06442 0.920854 2.95659C0.811458 2.84875 0.75 2.7025 0.75 2.55C0.75 2.3975 0.811458 2.25125 0.920854 2.14341C1.03025 2.03558 1.17862 1.975 1.33333 1.975ZM3.08333 3.125V10.6H8.91667V3.125H3.08333ZM4.25 1.975H7.75V1.4H4.25V1.975ZM4.25 4.275H5.41667V9.45H4.25V4.275ZM6.58333 4.275H7.75V9.45H6.58333V4.275Z" fill="currentColor"/>
</g>
<defs>
<clipPath id="clip0_14088_232407">
<rect width="12" height="12" fill="white"/>
</clipPath>
</defs>
</svg>
