<svg width="16" height="16" viewBox="0 0 16 16" fill="none" xmlns="http://www.w3.org/2000/svg">
<path d="M10.6459 0.749999C10.4418 0.633332 10.19 0.639332 9.9904 0.767999L4.98131 4H2.58333C1.15863 4 0 5.196 0 6.66667C0 8.13733 1.15863 9.33333 2.58333 9.33333H4.98131L9.99104 12.5653C10.0957 12.6327 10.2139 12.6667 10.3333 12.6667C10.4412 12.6667 10.549 12.6387 10.6459 12.5833C10.8519 12.4653 10.9792 12.242 10.9792 12V1.33333C10.9792 1.09133 10.8519 0.867999 10.6459 0.749999Z" fill="#C8C8C8"/>
<path d="M15.5 6H12.9167V7.33333H15.5V6Z" fill="#C8C8C8"/>
<path d="M14.1397 2.08951L11.9017 3.42291L12.5474 4.57771L14.7854 3.24431L14.1397 2.08951Z" fill="#C8C8C8"/>
<path d="M12.5471 8.7556L11.9014 9.9104L14.1394 11.2438L14.7851 10.089L12.5471 8.7556Z" fill="#C8C8C8"/>
<path d="M4.97417 10.6667H2.706L4.47236 14.698C4.70615 15.2387 5.31969 15.4807 5.84346 15.24C6.36723 14.9987 6.60167 14.3653 6.36852 13.8247L4.97417 10.6667Z" fill="#C8C8C8"/>
</svg>
