<svg width="16" height="16" viewBox="0 0 16 16" fill="none" xmlns="http://www.w3.org/2000/svg">
<path fill-rule="evenodd" clip-rule="evenodd" d="M9.58503 0.51991C9.12546 0.182458 8.57019 0.000488281 8.00003 0.000488281C7.42988 0.000488281 6.8746 0.182458 6.41503 0.51991L5.48703 1.19991C5.33419 1.31223 5.15649 1.38599 4.96903 1.41491L3.83003 1.58991C3.26695 1.67647 2.74614 1.94035 2.34331 2.34318C1.94047 2.74602 1.67659 3.26683 1.59003 3.82991L1.41503 4.96991C1.38611 5.15737 1.31236 5.33507 1.20003 5.48791L0.520032 6.41591C0.18258 6.87548 0.000610352 7.43075 0.000610352 8.00091C0.000610352 8.57107 0.18258 9.12634 0.520032 9.58591L1.20003 10.5139C1.31303 10.6669 1.38603 10.8439 1.41503 11.0319L1.59003 12.1699C1.67659 12.733 1.94047 13.2538 2.34331 13.6566C2.74614 14.0595 3.26695 14.3233 3.83003 14.4099L4.96803 14.5849C5.15503 14.6139 5.33303 14.6869 5.48603 14.7999L6.41403 15.4799C6.8736 15.8174 7.42888 15.9993 7.99903 15.9993C8.56919 15.9993 9.12446 15.8174 9.58403 15.4799L10.512 14.7999C10.6647 14.6873 10.8425 14.6135 11.03 14.5849L12.168 14.4099C12.7314 14.3235 13.2526 14.0596 13.6556 13.6565C14.0587 13.2535 14.3226 12.7323 14.409 12.1689L14.584 11.0309C14.613 10.8439 14.686 10.6659 14.799 10.5129L15.479 9.58491C15.8165 9.12534 15.9985 8.57007 15.9985 7.99991C15.9985 7.42975 15.8165 6.87448 15.479 6.41491L14.799 5.48691C14.6867 5.33405 14.613 5.15636 14.584 4.96891L14.41 3.82991C14.3235 3.26683 14.0596 2.74602 13.6568 2.34318C13.2539 1.94035 12.7331 1.67647 12.17 1.58991L11.032 1.41491C10.8446 1.38595 10.6669 1.3122 10.514 1.19991L9.58503 0.51991ZM7.30303 1.72791C7.71803 1.42291 8.28303 1.42291 8.69703 1.72791L9.62503 2.40791C9.97303 2.66391 10.377 2.83091 10.805 2.89691L11.941 3.07091C12.451 3.14891 12.85 3.54891 12.928 4.05791L13.102 5.19491C13.168 5.62191 13.335 6.02591 13.591 6.37491L14.271 7.30191C14.576 7.71691 14.576 8.28191 14.271 8.69591L13.591 9.62391C13.3352 9.97204 13.1675 10.3769 13.102 10.8039L12.928 11.9399C12.8902 12.1881 12.774 12.4178 12.5965 12.5953C12.4189 12.7729 12.1893 12.8891 11.941 12.9269L10.804 13.1009C10.377 13.1663 9.97217 13.3341 9.62403 13.5899L8.69703 14.2699C8.28203 14.5749 7.71703 14.5749 7.30303 14.2699L6.37503 13.5899C6.0269 13.3341 5.62205 13.1663 5.19503 13.1009L4.05903 12.9269C3.8108 12.8891 3.58116 12.7729 3.4036 12.5953C3.22605 12.4178 3.10988 12.1881 3.07203 11.9399L2.89803 10.8029C2.83259 10.3759 2.66482 9.97104 2.40903 9.62291L1.72903 8.69591C1.58069 8.49379 1.5007 8.24962 1.5007 7.99891C1.5007 7.7482 1.58069 7.50403 1.72903 7.30191L2.40903 6.37391C2.66503 6.02591 2.83203 5.62191 2.89803 5.19391L3.07203 4.05791C3.15003 3.54791 3.55003 3.14891 4.05903 3.07091L5.19603 2.89691C5.62305 2.83147 6.0279 2.6637 6.37603 2.40791L7.30303 1.72791V1.72791ZM11.28 6.77991C11.4125 6.63774 11.4846 6.44969 11.4812 6.25539C11.4778 6.06109 11.3991 5.8757 11.2617 5.73829C11.1242 5.60088 10.9389 5.52216 10.7446 5.51874C10.5503 5.51531 10.3622 5.58743 10.22 5.71991L7.00003 8.93991L5.78003 7.71991C5.63786 7.58743 5.44981 7.51531 5.25551 7.51874C5.06121 7.52216 4.87582 7.60088 4.73841 7.73829C4.601 7.8757 4.52229 8.06109 4.51886 8.25539C4.51543 8.44969 4.58755 8.63774 4.72003 8.77991L6.47003 10.5299C6.61066 10.6704 6.80128 10.7493 7.00003 10.7493C7.19878 10.7493 7.38941 10.6704 7.53003 10.5299L11.28 6.77991V6.77991Z" fill="currentColor"/>
</svg>
