<svg width="12" height="15" viewBox="0 0 12 15" fill="none" xmlns="http://www.w3.org/2000/svg">
    <rect x="0.5" y="0.5" width="11" height="14" rx="1.5" stroke="currentColor" />
    <path
        d="M2.75 3.5C2.33579 3.5 2 3.83579 2 4.25C2 4.66421 2.33579 5 2.75 5C3.16421 5 3.5 4.66421 3.5 4.25C3.5 3.83579 3.16421 3.5 2.75 3.5Z"
        fill="currentColor" />
    <path
        d="M2.75 6.75C2.33579 6.75 2 7.08579 2 7.5C2 7.91421 2.33579 8.25 2.75 8.25C3.16421 8.25 3.5 7.91421 3.5 7.5C3.5 7.08579 3.16421 6.75 2.75 6.75Z"
        fill="currentColor" />
    <path
        d="M2.75 10C2.33579 10 2 10.3358 2 10.75C2 11.1642 2.33579 11.5 2.75 11.5C3.16421 11.5 3.5 11.1642 3.5 10.75C3.5 10.3358 3.16421 10 2.75 10Z"
        fill="currentColor" />
    <path
        d="M5 3.5C4.58579 3.5 4.25 3.83579 4.25 4.25C4.25 4.66421 4.58579 5 5 5H9.25C9.66421 5 10 4.66421 10 4.25C10 3.83579 9.66421 3.5 9.25 3.5H5Z"
        fill="currentColor" />
    <path
        d="M5 6.75C4.58579 6.75 4.25 7.08579 4.25 7.5C4.25 7.91421 4.58579 8.25 5 8.25H9.25C9.66421 8.25 10 7.91421 10 7.5C10 7.08579 9.66421 6.75 9.25 6.75H5Z"
        fill="currentColor" />
    <path
        d="M5 10C4.58579 10 4.25 10.3358 4.25 10.75C4.25 11.1642 4.58579 11.5 5 11.5H9.25C9.66421 11.5 10 11.1642 10 10.75C10 10.3358 9.66421 10 9.25 10H5Z"
        fill="currentColor" />
</svg>
