<svg width="46" height="45" viewBox="0 0 46 45" fill="none" xmlns="http://www.w3.org/2000/svg">
<path d="M0.5 22.5C0.5 10.0736 10.5736 0 23 0C35.4264 0 45.5 10.0736 45.5 22.5C45.5 34.9264 35.4264 45 23 45C10.5736 45 0.5 34.9264 0.5 22.5Z" fill="black"/>
<path d="M33.7661 17.1347C33.7681 16.8658 33.695 16.6017 33.5548 16.3722C33.4147 16.1427 33.2132 15.957 32.9732 15.8359C32.7455 15.7137 32.488 15.6585 32.2303 15.6766C31.9726 15.6947 31.7253 15.7855 31.5171 15.9384L28.4158 17.9204C28.3646 17.9531 28.2975 17.9163 28.2975 17.8556V15.5351C28.2975 15.1725 28.1534 14.8248 27.8971 14.5684C27.6407 14.312 27.2929 14.168 26.9303 14.168H14.6259C13.9007 14.168 13.2052 14.456 12.6925 14.9688C12.1797 15.4816 11.8916 16.1771 11.8916 16.9023V27.8395C11.8916 28.5647 12.1797 29.2602 12.6925 29.7729C13.2052 30.2857 13.9007 30.5738 14.6259 30.5738H26.9303C27.2929 30.5738 27.6407 30.4298 27.8971 30.1734C28.1534 29.917 28.2975 29.5693 28.2975 29.2067V26.8871C28.2975 26.8262 28.3649 26.7894 28.4161 26.8225L31.4693 28.7965C31.6814 28.959 31.9353 29.0581 32.2014 29.0823C32.4676 29.1065 32.7351 29.0548 32.9732 28.9332C33.2175 28.8102 33.4217 28.6201 33.5622 28.3853C33.7026 28.1505 33.7733 27.8806 33.7661 27.6071V17.1347ZM32.3639 27.6759C32.3559 27.6809 32.3462 27.6823 32.3367 27.6823C32.3016 27.6817 32.2694 27.6774 32.2212 27.6413L27.0486 24.3399C26.9974 24.3072 26.9303 24.344 26.9303 24.4048V29.1298C26.9303 29.1723 26.8959 29.2067 26.8534 29.2067H14.6259C14.2633 29.2067 13.9156 29.0627 13.6592 28.8063C13.4028 28.5499 13.2588 28.2021 13.2588 27.8395V16.9023C13.2588 16.5397 13.4028 16.1919 13.6592 15.9356C13.9156 15.6792 14.2633 15.5351 14.6259 15.5351H26.8534C26.8959 15.5351 26.9303 15.5696 26.9303 15.612V20.3368C26.9303 20.3975 26.9975 20.4343 27.0487 20.4015L32.2622 17.0595C32.2751 17.0501 32.2906 17.045 32.3066 17.045C32.3193 17.045 32.3316 17.0481 32.3425 17.0541C32.3484 17.0573 32.3544 17.0605 32.3602 17.0638C32.3712 17.0699 32.3805 17.0786 32.3873 17.0892C32.3959 17.1028 32.4 17.1187 32.3989 17.1347V27.6071C32.4 27.6231 32.3959 27.639 32.3873 27.6526C32.3813 27.662 32.3733 27.67 32.3639 27.6759Z" fill="white" stroke="white" stroke-width="0.8"/>
</svg>
