<svg width="32" height="32" viewBox="0 0 32 32" fill="currentColor" xmlns="http://www.w3.org/2000/svg">
    <path
        d="M30.2218 9.19109C30.2244 8.84145 30.1293 8.49803 29.9471 8.1996C29.7649 7.90117 29.5029 7.65962 29.1907 7.5022C28.8947 7.34328 28.5598 7.27146 28.2247 7.29506C27.8896 7.31865 27.5681 7.43671 27.2973 7.63554L23.2645 10.2128C23.198 10.2553 23.1107 10.2075 23.1107 10.1285V7.11109C23.1107 6.63959 22.9234 6.18741 22.59 5.85401C22.2566 5.52061 21.8044 5.33331 21.3329 5.33331H5.3329C4.38991 5.33331 3.48554 5.70791 2.81874 6.37471C2.15195 7.04151 1.77734 7.94588 1.77734 8.88887V23.1111C1.77734 24.0541 2.15195 24.9585 2.81874 25.6252C3.48554 26.292 4.38991 26.6666 5.3329 26.6666H21.3329C21.8044 26.6666 22.2566 26.4793 22.59 26.1459C22.9234 25.8125 23.1107 25.3604 23.1107 24.8889V21.8726C23.1107 21.7934 23.1984 21.7456 23.265 21.7886L27.2351 24.3555C27.511 24.5668 27.8411 24.6956 28.1872 24.7271C28.5333 24.7586 28.8812 24.6914 29.1907 24.5333C29.5084 24.3733 29.774 24.1261 29.9566 23.8208C30.1392 23.5155 30.2312 23.1645 30.2218 22.8089V9.19109ZM28.3985 22.8983C28.388 22.9048 28.3754 22.9067 28.3631 22.9066C28.3175 22.9059 28.2756 22.9003 28.2129 22.8533L21.4867 18.5604C21.4201 18.5179 21.3329 18.5657 21.3329 18.6447V24.7889C21.3329 24.8441 21.2881 24.8889 21.2329 24.8889H5.3329C4.8614 24.8889 4.40922 24.7016 4.07582 24.3682C3.74242 24.0348 3.55512 23.5826 3.55512 23.1111V8.88887C3.55512 8.41737 3.74242 7.96519 4.07582 7.63179C4.40922 7.29839 4.8614 7.11109 5.3329 7.11109H21.2329C21.2881 7.11109 21.3329 7.15586 21.3329 7.21109V13.3549C21.3329 13.4339 21.4203 13.4817 21.4869 13.4391L28.2662 9.09331C28.283 9.08103 28.3032 9.07442 28.324 9.07442C28.3404 9.07442 28.3564 9.07852 28.3706 9.08625C28.3783 9.09043 28.3861 9.09466 28.3937 9.0989C28.408 9.10677 28.4201 9.11813 28.4289 9.13199C28.4401 9.14958 28.4454 9.17029 28.444 9.19109V22.8089C28.4454 22.8297 28.4401 22.8504 28.4289 22.868C28.4211 22.8803 28.4107 22.8906 28.3985 22.8983Z"
        fill="currentColor" stroke="currentColor" />
</svg>