<svg width="20" height="20" viewBox="0 0 20 20" fill="none" xmlns="http://www.w3.org/2000/svg">
    <g clip-path="url(#clip0_5529_7511)">
        <path
            d="M17.0012 2.90756C16.0843 1.98216 14.9924 1.24849 13.7891 0.749318C12.5858 0.250144 11.2952 -0.00455534 9.9925 6.16632e-05C4.53375 6.16632e-05 0.085 4.44756 0.08 9.90756C0.08 11.6563 0.5375 13.3576 1.40125 14.8638L0 20.0001L5.255 18.6226C6.70876 19.4137 8.33741 19.8284 9.9925 19.8288H9.9975C15.4575 19.8288 19.905 15.3813 19.91 9.91631C19.9112 8.61387 19.6548 7.32405 19.1553 6.12116C18.6559 4.91827 17.9246 3.8261 17.0012 2.90756ZM9.9925 18.1513C8.51625 18.1518 7.06713 17.7546 5.7975 17.0013L5.4975 16.8213L2.38 17.6388L3.2125 14.5976L3.0175 14.2838C2.19226 12.9717 1.75581 11.4526 1.75875 9.90256C1.75875 5.37006 5.455 1.67256 9.9975 1.67256C11.0797 1.67062 12.1515 1.8829 13.1513 2.29718C14.151 2.71145 15.0589 3.31951 15.8225 4.08631C16.5888 4.85012 17.1963 5.75809 17.6099 6.75785C18.0235 7.75761 18.2351 8.82937 18.2325 9.91131C18.2275 14.4601 14.5312 18.1513 9.9925 18.1513ZM14.5113 11.9838C14.265 11.8601 13.0487 11.2613 12.82 11.1763C12.5925 11.0951 12.4262 11.0526 12.2638 11.3001C12.0975 11.5463 11.6225 12.1076 11.48 12.2688C11.3375 12.4351 11.19 12.4538 10.9425 12.3313C10.6962 12.2063 9.8975 11.9463 8.9525 11.1001C8.215 10.4438 7.72125 9.63131 7.57375 9.38506C7.43125 9.13756 7.56 9.00506 7.68375 8.88131C7.7925 8.77131 7.93 8.59131 8.05375 8.44881C8.17875 8.30631 8.22 8.20131 8.30125 8.03631C8.3825 7.86881 8.34375 7.72631 8.2825 7.60256C8.22 7.47881 7.72625 6.25756 7.5175 5.76506C7.3175 5.27881 7.11375 5.34631 6.96125 5.34006C6.81875 5.33131 6.6525 5.33131 6.48625 5.33131C6.3607 5.33443 6.23716 5.36347 6.12337 5.4166C6.00958 5.46973 5.90799 5.54581 5.825 5.64006C5.5975 5.88756 4.96125 6.48631 4.96125 7.70756C4.96125 8.92881 5.84875 10.1026 5.97375 10.2688C6.09625 10.4351 7.71625 12.9338 10.2025 14.0088C10.79 14.2651 11.2525 14.4163 11.6138 14.5313C12.2075 14.7213 12.7437 14.6926 13.1712 14.6313C13.6462 14.5588 14.635 14.0313 14.8438 13.4526C15.0487 12.8726 15.0488 12.3776 14.9862 12.2738C14.925 12.1688 14.7587 12.1076 14.5113 11.9838Z"
            fill="currentColor" />
    </g>
    <defs>
        <clipPath id="clip0_5529_7511">
            <rect width="20" height="20" fill="white" />
        </clipPath>
    </defs>
</svg>
