<svg xmlns="http://www.w3.org/2000/svg" viewBox="0 0 495 495" fill="currentColor"><path d="M338.196 146.196l-7.999 8a7.5 7.5 0 0 0 0 10.606c1.464 1.465 3.384 2.197 5.303 2.197s3.839-.732 5.303-2.197l8-8a7.5 7.5 0 0 0-10.607-10.606zm-23.999 24l-168 168a7.5 7.5 0 0 0 5.303 12.803 7.474 7.474 0 0 0 5.303-2.197l168-168a7.5 7.5 0 1 0-10.606-10.606z"/><path d="M485.286 72.095a15.483 15.483 0 0 0-16.797 3.406l-32.876 32.876-38.08-10.203-10.203-38.08 33.552-33.552c4.431-4.431 5.758-10.799 3.465-16.621a15.61 15.61 0 0 0-13.99-9.872c-15.153-.53-30.085 3.23-44.376 11.177-16.95 9.427-30.566 24.162-38.34 41.493-7.68 17.122-9.568 34.962-5.63 53.095L75.692 352.132A68.01 68.01 0 0 0 71.5 352C32.075 352 0 384.074 0 423.5S32.075 495 71.5 495s71.5-32.075 71.5-71.5c0-1.374-.044-2.764-.133-4.192L389.185 172.99c18.161 3.945 36.031 2.043 53.183-5.669 17.329-7.792 32.034-21.367 41.406-38.223 7.662-13.78 11.436-28.188 11.217-42.823a15.523 15.523 0 0 0-9.705-14.18zm-14.621 49.713c-7.813 14.051-20.046 25.355-34.448 31.832-15.477 6.959-30.991 8.211-47.426 3.825a7.505 7.505 0 0 0-7.237 1.943L129.792 411.169a7.498 7.498 0 0 0-2.152 6.118c.242 2.216.36 4.248.36 6.212 0 31.154-25.346 56.5-56.5 56.5S15 454.654 15 423.5 40.346 367 71.5 367c1.964 0 3.996.118 6.212.36a7.507 7.507 0 0 0 6.118-2.152l251.761-251.761a7.5 7.5 0 0 0 1.943-7.237c-4.379-16.411-3.139-31.9 3.792-47.352 6.458-14.397 17.802-26.658 31.943-34.522 12.039-6.695 23.992-9.74 36.562-9.295.166.005.416.014.558.377.114.289.013.39-.115.518L373.66 52.549a7.498 7.498 0 0 0-1.941 7.244l12.445 46.445a7.502 7.502 0 0 0 5.304 5.304l46.445 12.445a7.502 7.502 0 0 0 7.244-1.941l35.938-35.938c.123-.123.239-.24.554-.111.337.137.34.332.343.503.182 12.143-2.869 23.692-9.327 35.308z"/><path d="M71.5 376C45.309 376 24 397.308 24 423.5S45.309 471 71.5 471s47.5-21.309 47.5-47.5S97.691 376 71.5 376zm0 80C53.58 456 39 441.42 39 423.5S53.58 391 71.5 391s32.5 14.58 32.5 32.5S89.42 456 71.5 456z"/></svg>