<?xml version="1.0" standalone="no"?>
<!DOCTYPE svg PUBLIC "-//W3C//DTD SVG 1.1//EN" "http://www.w3.org/Graphics/SVG/1.1/DTD/svg11.dtd" >
<svg>
<metadata>
Created by FontForge 20090622 at Sat Feb 23 09:57:10 2019
 By deploy user
&#194;&#169; 2015 Apple Inc. All rights reserved.
</metadata>
<defs>
<font id="SFProText-Regular" horiz-adv-x="1800" >
  <font-face
    font-family="SF Pro Text"
    font-weight="400"
    font-stretch="normal"
    units-per-em="2048"
    panose-1="0 0 5 0 0 0 0 0 0 0"
    ascent="1638"
    descent="-410"
    x-height="1078"
    cap-height="1443"
    bbox="-626 -573 2698 2205"
    underline-thickness="120"
    underline-position="-250"
    unicode-range="U+000D-U+1F189"
  />
<missing-glyph horiz-adv-x="2048"
d="M100 -210h1848v-284h-1848v284zM100 222h1848v-284h-1848v284zM100 654h1848v-284h-1848v284zM100 1086h1848v-284h-1848v284zM100 1518h1848v-284h-1848v284zM100 1950h1848v-284h-1848v284z" />
    <glyph glyph-name="uni2460" unicode="&#x31;&#x25cb;"
d="M869 388v571h-6l-166 -114v117l172 119h130v-693h-130zM900 78q134 0 250 50.5t201.5 137.5t134.5 204t49 250t-49 250t-134.5 204t-201.5 137.5t-250 50.5t-250 -50.5t-201.5 -137.5t-134.5 -204t-49 -250t49 -250t134.5 -204t201.5 -137.5t250 -50.5zM900 -50
q-106 0 -204.5 27.5t-184 78t-156 121t-121 156t-78 184t-27.5 204.5t27.5 204.5t78 184t121 156t156 121t184 78t204.5 27.5t204.5 -27.5t184 -78t156 -121t121 -156t78 -184t27.5 -204.5t-27.5 -204.5t-78 -184t-121 -156t-156 -121t-184 -78t-204.5 -27.5z" />
    <glyph glyph-name="uni2461" unicode="&#x32;&#x25cb;"
d="M658 878v6q0 39 15 77t45 67.5t75.5 47.5t107.5 18q55 0 99.5 -14.5t76 -40.5t48.5 -61.5t17 -76.5q0 -35 -10.5 -64t-28 -55t-40.5 -50.5l-47 -49.5l-174 -185v-6h313v-103h-492v77l268 280q15 15 29.5 31.5t26.5 34.5t19 37.5t7 41.5q0 46 -32.5 74.5t-81.5 28.5
q-28 0 -50 -9t-37 -24t-22.5 -34.5t-7.5 -41.5v-6h-124zM900 78q134 0 250 50.5t201.5 137.5t134.5 204t49 250t-49 250t-134.5 204t-201.5 137.5t-250 50.5t-250 -50.5t-201.5 -137.5t-134.5 -204t-49 -250t49 -250t134.5 -204t201.5 -137.5t250 -50.5zM900 -50
q-106 0 -204.5 27.5t-184 78t-156 121t-121 156t-78 184t-27.5 204.5t27.5 204.5t78 184t121 156t156 121t184 78t204.5 27.5t204.5 -27.5t184 -78t156 -121t121 -156t78 -184t27.5 -204.5t-27.5 -204.5t-78 -184t-121 -156t-156 -121t-184 -78t-204.5 -27.5z" />
    <glyph glyph-name="uni2462" unicode="&#x33;&#x25cb;"
d="M820 794h77q25 0 47 8t37.5 21.5t24.5 32.5t9 41q-1 44 -34 71.5t-84 27.5q-53 0 -85 -27t-34 -62h-122q1 39 17.5 72.5t47.5 59t76 40.5t103 15q55 0 99.5 -13.5t76.5 -37.5t49.5 -56.5t18.5 -71.5q1 -37 -12.5 -65.5t-34 -48.5t-44.5 -32t-44 -15v-6q24 -3 51.5 -13.5
t50.5 -30.5t38.5 -50.5t16.5 -72.5q1 -48 -20 -86t-58 -65t-86.5 -41t-105.5 -14q-60 0 -106.5 15t-79 40.5t-50.5 59.5t-19 73h120q4 -38 41.5 -63.5t94.5 -26.5q63 0 101.5 32t38.5 81q-2 48 -38.5 79t-97.5 31h-81v98zM900 78q134 0 250 50.5t201.5 137.5t134.5 204
t49 250t-49 250t-134.5 204t-201.5 137.5t-250 50.5t-250 -50.5t-201.5 -137.5t-134.5 -204t-49 -250t49 -250t134.5 -204t201.5 -137.5t250 -50.5zM900 -50q-106 0 -204.5 27.5t-184 78t-156 121t-121 156t-78 184t-27.5 204.5t27.5 204.5t78 184t121 156t156 121t184 78
t204.5 27.5t204.5 -27.5t184 -78t156 -121t121 -156t78 -184t27.5 -204.5t-27.5 -204.5t-78 -184t-121 -156t-156 -121t-184 -78t-204.5 -27.5z" />
    <glyph glyph-name="uni2463" unicode="&#x34;&#x25cb;"
d="M1064 1081v-458h91v-102h-91v-133h-123v133h-352v103q66 115 139.5 228.5l146.5 228.5h189zM941 623v361h-6l-116 -175.5t-109 -181.5v-4h231zM900 78q134 0 250 50.5t201.5 137.5t134.5 204t49 250t-49 250t-134.5 204t-201.5 137.5t-250 50.5t-250 -50.5t-201.5 -137.5
t-134.5 -204t-49 -250t49 -250t134.5 -204t201.5 -137.5t250 -50.5zM900 -50q-106 0 -204.5 27.5t-184 78t-156 121t-121 156t-78 184t-27.5 204.5t27.5 204.5t78 184t121 156t156 121t184 78t204.5 27.5t204.5 -27.5t184 -78t156 -121t121 -156t78 -184t27.5 -204.5
t-27.5 -204.5t-78 -184t-121 -156t-156 -121t-184 -78t-204.5 -27.5z" />
    <glyph glyph-name="uni2464" unicode="&#x35;&#x25cb;"
d="M773 562q4 -23 17 -39t31.5 -27t40.5 -16t46 -5q26 0 51 9.5t44.5 27.5t31 44t11.5 60q0 30 -11 54t-30 41.5t-44.5 26.5t-53.5 9q-26 0 -46.5 -6.5t-36 -16.5t-26.5 -22t-17 -23h-114l32 402h434v-102h-329l-17 -195h6q6 8 18 18.5t30.5 19.5t43 15.5t55.5 6.5
q47 0 89.5 -15t74.5 -44t50.5 -70.5t18.5 -95.5q0 -55 -19.5 -100t-55 -77t-85.5 -49.5t-110 -17.5q-55 0 -100 14.5t-78 39.5t-52 59t-21 74h121zM900 78q134 0 250 50.5t201.5 137.5t134.5 204t49 250t-49 250t-134.5 204t-201.5 137.5t-250 50.5t-250 -50.5
t-201.5 -137.5t-134.5 -204t-49 -250t49 -250t134.5 -204t201.5 -137.5t250 -50.5zM900 -50q-106 0 -204.5 27.5t-184 78t-156 121t-121 156t-78 184t-27.5 204.5t27.5 204.5t78 184t121 156t156 121t184 78t204.5 27.5t204.5 -27.5t184 -78t156 -121t121 -156t78 -184
t27.5 -204.5t-27.5 -204.5t-78 -184t-121 -156t-156 -121t-184 -78t-204.5 -27.5z" />
    <glyph glyph-name="uni2465" unicode="&#x36;&#x25cb;"
d="M1158 616q0 -53 -19 -97.5t-53 -76.5t-81.5 -49.5t-104.5 -17.5q-58 0 -105.5 18t-82 50.5t-53.5 78t-19 101.5q0 63 23.5 123.5t74.5 132.5q2 4 13 19l26 36l32.5 45l33.5 45l27.5 36.5t15.5 19.5h149q-4 -4 -18.5 -22l-34 -43.5l-42 -55l-42.5 -55.5l-35 -45.5
t-19 -25.5q-14 -19 -24 -37l8 -2q20 20 52 32t67 12q46 0 84.5 -16.5t66.5 -46.5t44 -70.5t16 -88.5zM765 612q0 -29 10 -53.5t28 -42.5t42.5 -28t53.5 -10t53.5 10t42.5 28t28 42.5t10 53.5q0 28 -10 52.5t-28 42.5t-42.5 28.5t-53.5 10.5t-53.5 -10.5t-42.5 -28.5
t-28 -42.5t-10 -52.5zM900 78q134 0 250 50.5t201.5 137.5t134.5 204t49 250t-49 250t-134.5 204t-201.5 137.5t-250 50.5t-250 -50.5t-201.5 -137.5t-134.5 -204t-49 -250t49 -250t134.5 -204t201.5 -137.5t250 -50.5zM900 -50q-106 0 -204.5 27.5t-184 78t-156 121
t-121 156t-78 184t-27.5 204.5t27.5 204.5t78 184t121 156t156 121t184 78t204.5 27.5t204.5 -27.5t184 -78t156 -121t121 -156t78 -184t27.5 -204.5t-27.5 -204.5t-78 -184t-121 -156t-156 -121t-184 -78t-204.5 -27.5z" />
    <glyph glyph-name="uni2466" unicode="&#x37;&#x25cb;"
d="M1163 1071v-105l-296 -588h-137l301 584v6h-359v103h491zM900 78q134 0 250 50.5t201.5 137.5t134.5 204t49 250t-49 250t-134.5 204t-201.5 137.5t-250 50.5t-250 -50.5t-201.5 -137.5t-134.5 -204t-49 -250t49 -250t134.5 -204t201.5 -137.5t250 -50.5zM900 -50
q-106 0 -204.5 27.5t-184 78t-156 121t-121 156t-78 184t-27.5 204.5t27.5 204.5t78 184t121 156t156 121t184 78t204.5 27.5t204.5 -27.5t184 -78t156 -121t121 -156t78 -184t27.5 -204.5t-27.5 -204.5t-78 -184t-121 -156t-156 -121t-184 -78t-204.5 -27.5z" />
    <glyph glyph-name="uni2467" unicode="&#x38;&#x25cb;"
d="M900 467q31 0 58 9t46 24.5t30 37.5t11 48q0 53 -40.5 86t-104.5 33q-32 0 -58.5 -9t-46 -25t-30.5 -38t-11 -47q0 -26 11 -48t30.5 -37.5t46 -24.5t58.5 -9zM900 793q54 0 87.5 29.5t33.5 75.5t-33.5 74.5t-87.5 28.5t-87.5 -28.5t-33.5 -74.5t33.5 -75.5t87.5 -29.5z
M898 375q-61 0 -111.5 14.5t-86.5 41t-55.5 64t-19.5 83.5q0 65 41.5 112t109.5 61v5q-57 18 -89.5 58.5t-32.5 96.5q0 40 18 73.5t51 58t78 38t99 13.5t99 -13.5t78 -38t51 -58t18 -73.5q0 -55 -32.5 -96.5t-89.5 -58.5v-5q34 -7 61.5 -22.5t47.5 -38t31 -51t11 -60.5
q0 -46 -20 -83.5t-57 -64.5t-88 -41.5t-112 -14.5zM900 78q134 0 250 50.5t201.5 137.5t134.5 204t49 250t-49 250t-134.5 204t-201.5 137.5t-250 50.5t-250 -50.5t-201.5 -137.5t-134.5 -204t-49 -250t49 -250t134.5 -204t201.5 -137.5t250 -50.5zM900 -50
q-106 0 -204.5 27.5t-184 78t-156 121t-121 156t-78 184t-27.5 204.5t27.5 204.5t78 184t121 156t156 121t184 78t204.5 27.5t204.5 -27.5t184 -78t156 -121t121 -156t78 -184t27.5 -204.5t-27.5 -204.5t-78 -184t-121 -156t-156 -121t-184 -78t-204.5 -27.5z" />
    <glyph glyph-name="uni2468" unicode="&#x39;&#x25cb;"
d="M641 853q0 53 19 97.5t53 76.5t81.5 49.5t104.5 17.5q58 0 105.5 -18t82 -50.5t53.5 -78.5t19 -101q0 -63 -23.5 -123.5t-74.5 -132.5q-2 -4 -13 -19l-26 -36l-32.5 -45l-33.5 -45l-27.5 -36.5t-15.5 -19.5h-149q4 4 18.5 22l34 43.5l42 55l42.5 55.5l35 45.5t19 25.5
q14 19 24 37l-8 2q-20 -20 -52 -32t-67 -12q-46 0 -84.5 16.5t-66.5 46.5t-44 70.5t-16 88.5zM1034 857q0 28 -10 52.5t-28 42.5t-42.5 28.5t-53.5 10.5t-53.5 -10.5t-42.5 -28.5t-28 -42.5t-10 -52.5q0 -29 10 -53.5t28 -42.5t42.5 -28t53.5 -10t53.5 10t42.5 28t28 42.5
t10 53.5zM900 78q134 0 250 50.5t201.5 137.5t134.5 204t49 250t-49 250t-134.5 204t-201.5 137.5t-250 50.5t-250 -50.5t-201.5 -137.5t-134.5 -204t-49 -250t49 -250t134.5 -204t201.5 -137.5t250 -50.5zM900 -50q-106 0 -204.5 27.5t-184 78t-156 121t-121 156t-78 184
t-27.5 204.5t27.5 204.5t78 184t121 156t156 121t184 78t204.5 27.5t204.5 -27.5t184 -78t156 -121t121 -156t78 -184t27.5 -204.5t-27.5 -204.5t-78 -184t-121 -156t-156 -121t-184 -78t-204.5 -27.5z" />
    <glyph glyph-name="uni24B6" unicode="A&#x25cb;"
d="M1000 688l-95 287h-10l-95 -287h200zM578 408l248 693h148l248 -693h-132l-62 186h-256l-62 -186h-132zM900 78q134 0 250 50.5t201.5 137.5t134.5 204t49 250t-49 250t-134.5 204t-201.5 137.5t-250 50.5t-250 -50.5t-201.5 -137.5t-134.5 -204t-49 -250t49 -250
t134.5 -204t201.5 -137.5t250 -50.5zM900 -50q-106 0 -204.5 27.5t-184 78t-156 121t-121 156t-78 184t-27.5 204.5t27.5 204.5t78 184t121 156t156 121t184 78t204.5 27.5t204.5 -27.5t184 -78t156 -121t121 -156t78 -184t27.5 -204.5t-27.5 -204.5t-78 -184t-121 -156
t-156 -121t-184 -78t-204.5 -27.5z" />
    <glyph glyph-name="uni24B7" unicode="B&#x25cb;"
d="M663 1081h294q97 0 154 -45.5t57 -125.5q0 -62 -34 -100t-88 -52v-5q34 -4 63 -16.5t51 -34t34.5 -51.5t12.5 -68q0 -46 -18.5 -82.5t-52 -61.5t-80 -38t-102.5 -13h-291v693zM792 790h98q78 0 114 25t36 74q0 45 -29 70t-82 25h-137v-194zM792 485h111q92 0 131.5 25.5
t39.5 78.5q0 52 -35 81.5t-101 29.5h-146v-215zM900 78q134 0 250 50.5t201.5 137.5t134.5 204t49 250t-49 250t-134.5 204t-201.5 137.5t-250 50.5t-250 -50.5t-201.5 -137.5t-134.5 -204t-49 -250t49 -250t134.5 -204t201.5 -137.5t250 -50.5zM900 -50q-106 0 -204.5 27.5
t-184 78t-156 121t-121 156t-78 184t-27.5 204.5t27.5 204.5t78 184t121 156t156 121t184 78t204.5 27.5t204.5 -27.5t184 -78t156 -121t121 -156t78 -184t27.5 -204.5t-27.5 -204.5t-78 -184t-121 -156t-156 -121t-184 -78t-204.5 -27.5z" />
    <glyph glyph-name="uni24B8" unicode="C&#x25cb;"
d="M1200 606q-8 -52 -33 -94.5t-64.5 -73t-91.5 -47t-113 -16.5q-73 0 -132.5 26t-102 73t-66 113.5t-23.5 146.5t23.5 146.5t66 114t102 73.5t132.5 26q63 0 115.5 -17.5t92 -49t64.5 -75.5t32 -98h-130q-4 30 -19 54.5t-37.5 42.5t-52 28t-63.5 10q-44 0 -79.5 -18.5
t-61 -52t-39.5 -80.5t-14 -104t14 -104t39.5 -80.5t61 -51.5t79.5 -18q33 0 61.5 9.5t51 26t37 40t18.5 50.5h132zM900 78q134 0 250 50.5t201.5 137.5t134.5 204t49 250t-49 250t-134.5 204t-201.5 137.5t-250 50.5t-250 -50.5t-201.5 -137.5t-134.5 -204t-49 -250t49 -250
t134.5 -204t201.5 -137.5t250 -50.5zM900 -50q-106 0 -204.5 27.5t-184 78t-156 121t-121 156t-78 184t-27.5 204.5t27.5 204.5t78 184t121 156t156 121t184 78t204.5 27.5t204.5 -27.5t184 -78t156 -121t121 -156t78 -184t27.5 -204.5t-27.5 -204.5t-78 -184t-121 -156
t-156 -121t-184 -78t-204.5 -27.5z" />
    <glyph glyph-name="uni24B9" unicode="D&#x25cb;"
d="M912 1081q163 0 243 -89.5t80 -255.5t-80 -257t-243 -91h-256v693h256zM786 491h110q106 0 155.5 60.5t49.5 182.5t-49.5 183t-155.5 61h-110v-487zM900 78q134 0 250 50.5t201.5 137.5t134.5 204t49 250t-49 250t-134.5 204t-201.5 137.5t-250 50.5t-250 -50.5
t-201.5 -137.5t-134.5 -204t-49 -250t49 -250t134.5 -204t201.5 -137.5t250 -50.5zM900 -50q-106 0 -204.5 27.5t-184 78t-156 121t-121 156t-78 184t-27.5 204.5t27.5 204.5t78 184t121 156t156 121t184 78t204.5 27.5t204.5 -27.5t184 -78t156 -121t121 -156t78 -184
t27.5 -204.5t-27.5 -204.5t-78 -184t-121 -156t-156 -121t-184 -78t-204.5 -27.5z" />
    <glyph glyph-name="uni24BA" unicode="E&#x25cb;"
d="M1135 388h-459v693h459v-103h-330v-190h311v-98h-311v-199h330v-103zM900 78q134 0 250 50.5t201.5 137.5t134.5 204t49 250t-49 250t-134.5 204t-201.5 137.5t-250 50.5t-250 -50.5t-201.5 -137.5t-134.5 -204t-49 -250t49 -250t134.5 -204t201.5 -137.5t250 -50.5z
M900 -50q-106 0 -204.5 27.5t-184 78t-156 121t-121 156t-78 184t-27.5 204.5t27.5 204.5t78 184t121 156t156 121t184 78t204.5 27.5t204.5 -27.5t184 -78t156 -121t121 -156t78 -184t27.5 -204.5t-27.5 -204.5t-78 -184t-121 -156t-156 -121t-184 -78t-204.5 -27.5z" />
    <glyph glyph-name="uni24BB" unicode="F&#x25cb;"
d="M707 388v693h454v-104h-323v-205h295v-102h-295v-282h-131zM900 78q134 0 250 50.5t201.5 137.5t134.5 204t49 250t-49 250t-134.5 204t-201.5 137.5t-250 50.5t-250 -50.5t-201.5 -137.5t-134.5 -204t-49 -250t49 -250t134.5 -204t201.5 -137.5t250 -50.5zM900 -50
q-106 0 -204.5 27.5t-184 78t-156 121t-121 156t-78 184t-27.5 204.5t27.5 204.5t78 184t121 156t156 121t184 78t204.5 27.5t204.5 -27.5t184 -78t156 -121t121 -156t78 -184t27.5 -204.5t-27.5 -204.5t-78 -184t-121 -156t-156 -121t-184 -78t-204.5 -27.5z" />
    <glyph glyph-name="uni24BC" unicode="G&#x25cb;"
d="M1071 661h-160v95h284v-122q0 -57 -19 -104.5t-56 -82t-92 -53.5t-128 -19t-133 26t-103 73t-66.5 113.5t-23.5 146.5t23.5 146.5t66.5 114t103 73.5t133 26q61 0 113 -16.5t91 -46.5t64 -72.5t32 -94.5h-130q-4 27 -18.5 50t-37 39.5t-51.5 26t-61 9.5q-45 0 -81 -18
t-61.5 -51.5t-39.5 -80.5t-14 -105t14 -105t39.5 -80t61.5 -51t81 -18q83 0 126 34.5t43 89.5v57zM900 78q134 0 250 50.5t201.5 137.5t134.5 204t49 250t-49 250t-134.5 204t-201.5 137.5t-250 50.5t-250 -50.5t-201.5 -137.5t-134.5 -204t-49 -250t49 -250t134.5 -204
t201.5 -137.5t250 -50.5zM900 -50q-106 0 -204.5 27.5t-184 78t-156 121t-121 156t-78 184t-27.5 204.5t27.5 204.5t78 184t121 156t156 121t184 78t204.5 27.5t204.5 -27.5t184 -78t156 -121t121 -156t78 -184t27.5 -204.5t-27.5 -204.5t-78 -184t-121 -156t-156 -121
t-184 -78t-204.5 -27.5z" />
    <glyph glyph-name="uni24BD" unicode="H&#x25cb;"
d="M1061 388v304h-321v-304h-130v693h130v-286h321v286h130v-693h-130zM900 78q134 0 250 50.5t201.5 137.5t134.5 204t49 250t-49 250t-134.5 204t-201.5 137.5t-250 50.5t-250 -50.5t-201.5 -137.5t-134.5 -204t-49 -250t49 -250t134.5 -204t201.5 -137.5t250 -50.5z
M900 -50q-106 0 -204.5 27.5t-184 78t-156 121t-121 156t-78 184t-27.5 204.5t27.5 204.5t78 184t121 156t156 121t184 78t204.5 27.5t204.5 -27.5t184 -78t156 -121t121 -156t78 -184t27.5 -204.5t-27.5 -204.5t-78 -184t-121 -156t-156 -121t-184 -78t-204.5 -27.5z" />
    <glyph glyph-name="uni24BE" unicode="I&#x25cb;"
d="M834 388v693h132v-693h-132zM900 78q134 0 250 50.5t201.5 137.5t134.5 204t49 250t-49 250t-134.5 204t-201.5 137.5t-250 50.5t-250 -50.5t-201.5 -137.5t-134.5 -204t-49 -250t49 -250t134.5 -204t201.5 -137.5t250 -50.5zM900 -50q-106 0 -204.5 27.5t-184 78
t-156 121t-121 156t-78 184t-27.5 204.5t27.5 204.5t78 184t121 156t156 121t184 78t204.5 27.5t204.5 -27.5t184 -78t156 -121t121 -156t78 -184t27.5 -204.5t-27.5 -204.5t-78 -184t-121 -156t-156 -121t-184 -78t-204.5 -27.5z" />
    <glyph glyph-name="uni24BF" unicode="J&#x25cb;"
d="M762 576q1 -41 28 -66t72 -25q54 0 80.5 30t26.5 85v481h130v-477q0 -112 -62.5 -170.5t-173.5 -58.5q-56 0 -98 16t-71 43t-43.5 63.5t-14.5 78.5h126zM900 78q134 0 250 50.5t201.5 137.5t134.5 204t49 250t-49 250t-134.5 204t-201.5 137.5t-250 50.5t-250 -50.5
t-201.5 -137.5t-134.5 -204t-49 -250t49 -250t134.5 -204t201.5 -137.5t250 -50.5zM900 -50q-106 0 -204.5 27.5t-184 78t-156 121t-121 156t-78 184t-27.5 204.5t27.5 204.5t78 184t121 156t156 121t184 78t204.5 27.5t204.5 -27.5t184 -78t156 -121t121 -156t78 -184
t27.5 -204.5t-27.5 -204.5t-78 -184t-121 -156t-156 -121t-184 -78t-204.5 -27.5z" />
    <glyph glyph-name="uni24C0" unicode="K&#x25cb;"
d="M952 784l274 -396h-158l-212 312l-78 -84v-228h-130v693h130v-317h5l287 317h145zM900 78q134 0 250 50.5t201.5 137.5t134.5 204t49 250t-49 250t-134.5 204t-201.5 137.5t-250 50.5t-250 -50.5t-201.5 -137.5t-134.5 -204t-49 -250t49 -250t134.5 -204t201.5 -137.5
t250 -50.5zM900 -50q-106 0 -204.5 27.5t-184 78t-156 121t-121 156t-78 184t-27.5 204.5t27.5 204.5t78 184t121 156t156 121t184 78t204.5 27.5t204.5 -27.5t184 -78t156 -121t121 -156t78 -184t27.5 -204.5t-27.5 -204.5t-78 -184t-121 -156t-156 -121t-184 -78
t-204.5 -27.5z" />
    <glyph glyph-name="uni24C1" unicode="L&#x25cb;"
d="M1168 388h-446v693h131v-586h315v-107zM900 78q134 0 250 50.5t201.5 137.5t134.5 204t49 250t-49 250t-134.5 204t-201.5 137.5t-250 50.5t-250 -50.5t-201.5 -137.5t-134.5 -204t-49 -250t49 -250t134.5 -204t201.5 -137.5t250 -50.5zM900 -50q-106 0 -204.5 27.5
t-184 78t-156 121t-121 156t-78 184t-27.5 204.5t27.5 204.5t78 184t121 156t156 121t184 78t204.5 27.5t204.5 -27.5t184 -78t156 -121t121 -156t78 -184t27.5 -204.5t-27.5 -204.5t-78 -184t-121 -156t-156 -121t-184 -78t-204.5 -27.5z" />
    <glyph glyph-name="uni24C2" unicode="M&#x25cb;"
d="M551 388v693h132l216 -533h4l216 533h130v-693h-117v473h-6l-180 -453h-91l-181 453h-6v-473h-117zM900 78q134 0 250 50.5t201.5 137.5t134.5 204t49 250t-49 250t-134.5 204t-201.5 137.5t-250 50.5t-250 -50.5t-201.5 -137.5t-134.5 -204t-49 -250t49 -250t134.5 -204
t201.5 -137.5t250 -50.5zM900 -50q-106 0 -204.5 27.5t-184 78t-156 121t-121 156t-78 184t-27.5 204.5t27.5 204.5t78 184t121 156t156 121t184 78t204.5 27.5t204.5 -27.5t184 -78t156 -121t121 -156t78 -184t27.5 -204.5t-27.5 -204.5t-78 -184t-121 -156t-156 -121
t-184 -78t-204.5 -27.5z" />
    <glyph glyph-name="uni24C3" unicode="N&#x25cb;"
d="M614 388v693h111l331 -482h6v482h124v-693h-111l-332 484h-5v-484h-124zM900 78q134 0 250 50.5t201.5 137.5t134.5 204t49 250t-49 250t-134.5 204t-201.5 137.5t-250 50.5t-250 -50.5t-201.5 -137.5t-134.5 -204t-49 -250t49 -250t134.5 -204t201.5 -137.5t250 -50.5z
M900 -50q-106 0 -204.5 27.5t-184 78t-156 121t-121 156t-78 184t-27.5 204.5t27.5 204.5t78 184t121 156t156 121t184 78t204.5 27.5t204.5 -27.5t184 -78t156 -121t121 -156t78 -184t27.5 -204.5t-27.5 -204.5t-78 -184t-121 -156t-156 -121t-184 -78t-204.5 -27.5z" />
    <glyph glyph-name="uni24C4" unicode="O&#x25cb;"
d="M900 480q40 0 75.5 16.5t62 49t41.5 79.5t15 109t-15 109.5t-41.5 80t-62 49t-75.5 16.5q-41 0 -76 -16.5t-61.5 -49t-41.5 -80t-15 -109.5t15 -109t41.5 -79.5t61.5 -49t76 -16.5zM900 375q-68 0 -127 24t-103.5 69.5t-70 112.5t-25.5 153t25.5 153t70 113t103.5 70
t127 24q67 0 126.5 -24t104 -70t70 -113t25.5 -153t-25.5 -153t-70 -112.5t-104 -69.5t-126.5 -24zM900 78q134 0 250 50.5t201.5 137.5t134.5 204t49 250t-49 250t-134.5 204t-201.5 137.5t-250 50.5t-250 -50.5t-201.5 -137.5t-134.5 -204t-49 -250t49 -250t134.5 -204
t201.5 -137.5t250 -50.5zM900 -50q-106 0 -204.5 27.5t-184 78t-156 121t-121 156t-78 184t-27.5 204.5t27.5 204.5t78 184t121 156t156 121t184 78t204.5 27.5t204.5 -27.5t184 -78t156 -121t121 -156t78 -184t27.5 -204.5t-27.5 -204.5t-78 -184t-121 -156t-156 -121
t-184 -78t-204.5 -27.5z" />
    <glyph glyph-name="uni24C5" unicode="P&#x25cb;"
d="M962 1081q57 0 102 -17.5t76 -48t47.5 -72t16.5 -89.5q0 -49 -16.5 -90t-47.5 -71t-76.5 -47t-102.5 -17h-153v-241h-129v693h283zM1071 854q0 60 -34 93t-97 33h-132v-251h132q63 0 97 32.5t34 92.5zM900 78q134 0 250 50.5t201.5 137.5t134.5 204t49 250t-49 250
t-134.5 204t-201.5 137.5t-250 50.5t-250 -50.5t-201.5 -137.5t-134.5 -204t-49 -250t49 -250t134.5 -204t201.5 -137.5t250 -50.5zM900 -50q-106 0 -204.5 27.5t-184 78t-156 121t-121 156t-78 184t-27.5 204.5t27.5 204.5t78 184t121 156t156 121t184 78t204.5 27.5
t204.5 -27.5t184 -78t156 -121t121 -156t78 -184t27.5 -204.5t-27.5 -204.5t-78 -184t-121 -156t-156 -121t-184 -78t-204.5 -27.5z" />
    <glyph glyph-name="uni24C6" unicode="Q&#x25cb;"
d="M1072 319l-56 76q-55 -20 -116 -20q-68 0 -127 24t-103.5 69.5t-70 112.5t-25.5 153t25.5 153t70 113t103.5 70t127 24q67 0 126.5 -24t104 -70t70 -113t25.5 -153q0 -98 -32.5 -170t-87.5 -118l94 -127h-128zM900 480q28 0 49 7l-84 115h126l44 -60q27 32 43 80.5
t16 111.5q0 62 -15 109.5t-41.5 80t-62 49t-75.5 16.5q-41 0 -76 -16.5t-61.5 -49t-41.5 -80t-15 -109.5t15 -109t41.5 -79.5t61.5 -49t76 -16.5zM900 78q134 0 250 50.5t201.5 137.5t134.5 204t49 250t-49 250t-134.5 204t-201.5 137.5t-250 50.5t-250 -50.5t-201.5 -137.5
t-134.5 -204t-49 -250t49 -250t134.5 -204t201.5 -137.5t250 -50.5zM900 -50q-106 0 -204.5 27.5t-184 78t-156 121t-121 156t-78 184t-27.5 204.5t27.5 204.5t78 184t121 156t156 121t184 78t204.5 27.5t204.5 -27.5t184 -78t156 -121t121 -156t78 -184t27.5 -204.5
t-27.5 -204.5t-78 -184t-121 -156t-156 -121t-184 -78t-204.5 -27.5z" />
    <glyph glyph-name="uni24C7" unicode="R&#x25cb;"
d="M934 1081q58 0 104.5 -15.5t78.5 -43.5t49 -68t17 -89q0 -37 -11 -68.5t-29 -56t-42 -42t-51 -27.5l146 -283h-146l-128 263h-142v-263h-128v693h282zM912 747q65 0 101 28.5t36 85.5q0 59 -36.5 89.5t-96.5 30.5h-136v-234h132zM900 78q134 0 250 50.5t201.5 137.5
t134.5 204t49 250t-49 250t-134.5 204t-201.5 137.5t-250 50.5t-250 -50.5t-201.5 -137.5t-134.5 -204t-49 -250t49 -250t134.5 -204t201.5 -137.5t250 -50.5zM900 -50q-106 0 -204.5 27.5t-184 78t-156 121t-121 156t-78 184t-27.5 204.5t27.5 204.5t78 184t121 156
t156 121t184 78t204.5 27.5t204.5 -27.5t184 -78t156 -121t121 -156t78 -184t27.5 -204.5t-27.5 -204.5t-78 -184t-121 -156t-156 -121t-184 -78t-204.5 -27.5z" />
    <glyph glyph-name="uni24C8" unicode="S&#x25cb;"
d="M747 582q5 -48 47.5 -77.5t110.5 -29.5q67 0 106.5 27.5t39.5 75.5q0 36 -27 58.5t-88 37.5l-117 26q-88 20 -134 68t-46 121q0 46 19.5 84t54.5 65t84 42t108 15q58 0 106.5 -14.5t83.5 -41.5t54.5 -64.5t20.5 -82.5h-124q-4 48 -42.5 76t-99.5 28q-60 0 -97 -27.5
t-37 -72.5q0 -65 100 -87l117 -26q100 -23 146.5 -69.5t46.5 -124.5q0 -50 -20 -89.5t-56.5 -67t-89 -42.5t-117.5 -15q-62 0 -113 14.5t-87 41.5t-56 65t-21 86h127zM900 78q134 0 250 50.5t201.5 137.5t134.5 204t49 250t-49 250t-134.5 204t-201.5 137.5t-250 50.5
t-250 -50.5t-201.5 -137.5t-134.5 -204t-49 -250t49 -250t134.5 -204t201.5 -137.5t250 -50.5zM900 -50q-106 0 -204.5 27.5t-184 78t-156 121t-121 156t-78 184t-27.5 204.5t27.5 204.5t78 184t121 156t156 121t184 78t204.5 27.5t204.5 -27.5t184 -78t156 -121t121 -156
t78 -184t27.5 -204.5t-27.5 -204.5t-78 -184t-121 -156t-156 -121t-184 -78t-204.5 -27.5z" />
    <glyph glyph-name="uni24C9" unicode="T&#x25cb;"
d="M834 368v588h-210v105h552v-105h-210v-588h-132zM900 78q134 0 250 50.5t201.5 137.5t134.5 204t49 250t-49 250t-134.5 204t-201.5 137.5t-250 50.5t-250 -50.5t-201.5 -137.5t-134.5 -204t-49 -250t49 -250t134.5 -204t201.5 -137.5t250 -50.5zM900 -50
q-106 0 -204.5 27.5t-184 78t-156 121t-121 156t-78 184t-27.5 204.5t27.5 204.5t78 184t121 156t156 121t184 78t204.5 27.5t204.5 -27.5t184 -78t156 -121t121 -156t78 -184t27.5 -204.5t-27.5 -204.5t-78 -184t-121 -156t-156 -121t-184 -78t-204.5 -27.5z" />
    <glyph glyph-name="uni24CA" unicode="U&#x25cb;"
d="M900 462q72 0 115 40.5t43 115.5v443h130v-454q0 -57 -20.5 -103.5t-58 -79.5t-90.5 -51t-119 -18t-119 18t-90.5 51t-58 79.5t-20.5 103.5v454h130v-443q0 -75 43 -115.5t115 -40.5zM900 78q134 0 250 50.5t201.5 137.5t134.5 204t49 250t-49 250t-134.5 204
t-201.5 137.5t-250 50.5t-250 -50.5t-201.5 -137.5t-134.5 -204t-49 -250t49 -250t134.5 -204t201.5 -137.5t250 -50.5zM900 -50q-106 0 -204.5 27.5t-184 78t-156 121t-121 156t-78 184t-27.5 204.5t27.5 204.5t78 184t121 156t156 121t184 78t204.5 27.5t204.5 -27.5
t184 -78t156 -121t121 -156t78 -184t27.5 -204.5t-27.5 -204.5t-78 -184t-121 -156t-156 -121t-184 -78t-204.5 -27.5z" />
    <glyph glyph-name="uni24CB" unicode="V&#x25cb;"
d="M572 1061h151l174 -555h6l174 555h151l-250 -693h-156zM900 78q134 0 250 50.5t201.5 137.5t134.5 204t49 250t-49 250t-134.5 204t-201.5 137.5t-250 50.5t-250 -50.5t-201.5 -137.5t-134.5 -204t-49 -250t49 -250t134.5 -204t201.5 -137.5t250 -50.5zM900 -50
q-106 0 -204.5 27.5t-184 78t-156 121t-121 156t-78 184t-27.5 204.5t27.5 204.5t78 184t121 156t156 121t184 78t204.5 27.5t204.5 -27.5t184 -78t156 -121t121 -156t78 -184t27.5 -204.5t-27.5 -204.5t-78 -184t-121 -156t-156 -121t-184 -78t-204.5 -27.5z" />
    <glyph glyph-name="uni24CC" unicode="W&#x25cb;"
d="M758 368h-119l-195 693h143l117 -518h6l133 518h114l133 -518h6l117 518h143l-195 -693h-119l-140 501h-4zM900 78q134 0 250 50.5t201.5 137.5t134.5 204t49 250t-49 250t-134.5 204t-201.5 137.5t-250 50.5t-250 -50.5t-201.5 -137.5t-134.5 -204t-49 -250t49 -250
t134.5 -204t201.5 -137.5t250 -50.5zM900 -50q-106 0 -204.5 27.5t-184 78t-156 121t-121 156t-78 184t-27.5 204.5t27.5 204.5t78 184t121 156t156 121t184 78t204.5 27.5t204.5 -27.5t184 -78t156 -121t121 -156t78 -184t27.5 -204.5t-27.5 -204.5t-78 -184t-121 -156
t-156 -121t-184 -78t-204.5 -27.5z" />
    <glyph glyph-name="uni24CD" unicode="X&#x25cb;"
d="M981 733l230 -345h-152l-161 253h-6l-163 -253h-143l229 349l-227 344h155l159 -256h6l158 256h148zM900 78q134 0 250 50.5t201.5 137.5t134.5 204t49 250t-49 250t-134.5 204t-201.5 137.5t-250 50.5t-250 -50.5t-201.5 -137.5t-134.5 -204t-49 -250t49 -250
t134.5 -204t201.5 -137.5t250 -50.5zM900 -50q-106 0 -204.5 27.5t-184 78t-156 121t-121 156t-78 184t-27.5 204.5t27.5 204.5t78 184t121 156t156 121t184 78t204.5 27.5t204.5 -27.5t184 -78t156 -121t121 -156t78 -184t27.5 -204.5t-27.5 -204.5t-78 -184t-121 -156
t-156 -121t-184 -78t-204.5 -27.5z" />
    <glyph glyph-name="uni24CE" unicode="Y&#x25cb;"
d="M835 383v273l-243 420h145l162 -297h5l162 297h142l-242 -418v-275h-131zM900 78q134 0 250 50.5t201.5 137.5t134.5 204t49 250t-49 250t-134.5 204t-201.5 137.5t-250 50.5t-250 -50.5t-201.5 -137.5t-134.5 -204t-49 -250t49 -250t134.5 -204t201.5 -137.5t250 -50.5z
M900 -50q-106 0 -204.5 27.5t-184 78t-156 121t-121 156t-78 184t-27.5 204.5t27.5 204.5t78 184t121 156t156 121t184 78t204.5 27.5t204.5 -27.5t184 -78t156 -121t121 -156t78 -184t27.5 -204.5t-27.5 -204.5t-78 -184t-121 -156t-156 -121t-184 -78t-204.5 -27.5z" />
    <glyph glyph-name="uni24CF" unicode="Z&#x25cb;"
d="M635 471l361 499v7h-350v104h509v-83l-360 -499v-7h370v-104h-530v83zM900 78q134 0 250 50.5t201.5 137.5t134.5 204t49 250t-49 250t-134.5 204t-201.5 137.5t-250 50.5t-250 -50.5t-201.5 -137.5t-134.5 -204t-49 -250t49 -250t134.5 -204t201.5 -137.5t250 -50.5z
M900 -50q-106 0 -204.5 27.5t-184 78t-156 121t-121 156t-78 184t-27.5 204.5t27.5 204.5t78 184t121 156t156 121t184 78t204.5 27.5t204.5 -27.5t184 -78t156 -121t121 -156t78 -184t27.5 -204.5t-27.5 -204.5t-78 -184t-121 -156t-156 -121t-184 -78t-204.5 -27.5z" />
    <glyph glyph-name="uni24EA" unicode="&#x30;&#x25cb;"
d="M900 486q66 0 105 64.5t39 184.5t-39 184.5t-105 64.5t-105 -64.5t-39 -184.5t39 -184.5t105 -64.5zM900 376q-59 0 -108 24t-84.5 69.5t-55.5 112.5t-20 153t20 153t55.5 112.5t84.5 69.5t108 24q58 0 107.5 -24t85 -69.5t55.5 -112.5t20 -153t-20 -153t-55.5 -112.5
t-85 -69.5t-107.5 -24zM900 78q134 0 250 50.5t201.5 137.5t134.5 204t49 250t-49 250t-134.5 204t-201.5 137.5t-250 50.5t-250 -50.5t-201.5 -137.5t-134.5 -204t-49 -250t49 -250t134.5 -204t201.5 -137.5t250 -50.5zM900 -50q-106 0 -204.5 27.5t-184 78t-156 121
t-121 156t-78 184t-27.5 204.5t27.5 204.5t78 184t121 156t156 121t184 78t204.5 27.5t204.5 -27.5t184 -78t156 -121t121 -156t78 -184t27.5 -204.5t-27.5 -204.5t-78 -184t-121 -156t-156 -121t-184 -78t-204.5 -27.5z" />
    <glyph glyph-name="uni1F130" unicode="A&#x25a1;"
d="M1000 668l-95 287h-10l-95 -287h200zM578 388l248 693h148l248 -693h-132l-62 186h-256l-62 -186h-132zM1384 1464q54 0 101 -20t82 -54.5t55 -81t20 -98.5v-976q0 -53 -20 -99t-55 -80.5t-82 -54.5t-101 -20h-968q-53 0 -100 20t-82 54.5t-55.5 80.5t-20.5 99v976
q0 52 20.5 98.5t55.5 81t82 54.5t100 20h968zM1513 1208q0 28 -11.5 53t-31 44t-45.5 30t-55 11h-940q-29 0 -55 -11t-45.5 -29.5t-31 -44t-11.5 -53.5v-972q0 -28 11.5 -53t31 -44t45.5 -30t55 -11h940q29 0 55 11t45.5 30t31 44t11.5 53v972z" />
    <glyph glyph-name="uni1F131" unicode="B&#x25a1;"
d="M663 1081h294q97 0 154 -45.5t57 -125.5q0 -62 -34 -100t-88 -52v-5q34 -4 63 -16.5t51 -34t34.5 -51.5t12.5 -68q0 -46 -18.5 -82.5t-52 -61.5t-80 -38t-102.5 -13h-291v693zM792 790h98q78 0 114 25t36 74q0 45 -29 70t-82 25h-137v-194zM792 485h111q92 0 131.5 25.5
t39.5 78.5q0 52 -35 81.5t-101 29.5h-146v-215zM1384 1464q54 0 101 -20t82 -54.5t55 -81t20 -98.5v-976q0 -53 -20 -99t-55 -80.5t-82 -54.5t-101 -20h-968q-53 0 -100 20t-82 54.5t-55.5 80.5t-20.5 99v976q0 52 20.5 98.5t55.5 81t82 54.5t100 20h968zM1513 1208
q0 28 -11.5 53t-31 44t-45.5 30t-55 11h-940q-29 0 -55 -11t-45.5 -29.5t-31 -44t-11.5 -53.5v-972q0 -28 11.5 -53t31 -44t45.5 -30t55 -11h940q29 0 55 11t45.5 30t31 44t11.5 53v972z" />
    <glyph glyph-name="uni1F132" unicode="C&#x25a1;"
d="M1200 606q-8 -52 -33 -94.5t-64.5 -73t-91.5 -47t-113 -16.5q-73 0 -132.5 26t-102 73t-66 113.5t-23.5 146.5t23.5 146.5t66 114t102 73.5t132.5 26q63 0 115.5 -17.5t92 -49t64.5 -75.5t32 -98h-130q-4 30 -19 54.5t-37.5 42.5t-52 28t-63.5 10q-44 0 -79.5 -18.5
t-61 -52t-39.5 -80.5t-14 -104t14 -104t39.5 -80.5t61 -51.5t79.5 -18q33 0 61.5 9.5t51 26t37 40t18.5 50.5h132zM1384 1464q54 0 101 -20t82 -54.5t55 -81t20 -98.5v-976q0 -53 -20 -99t-55 -80.5t-82 -54.5t-101 -20h-968q-53 0 -100 20t-82 54.5t-55.5 80.5t-20.5 99
v976q0 52 20.5 98.5t55.5 81t82 54.5t100 20h968zM1513 1208q0 28 -11.5 53t-31 44t-45.5 30t-55 11h-940q-29 0 -55 -11t-45.5 -29.5t-31 -44t-11.5 -53.5v-972q0 -28 11.5 -53t31 -44t45.5 -30t55 -11h940q29 0 55 11t45.5 30t31 44t11.5 53v972z" />
    <glyph glyph-name="uni1F133" unicode="D&#x25a1;"
d="M889 1081q163 0 243 -89.5t80 -255.5t-80 -257t-243 -91h-256v693h256zM763 491h110q106 0 155.5 60.5t49.5 182.5t-49.5 183t-155.5 61h-110v-487zM1384 1464q54 0 101 -20t82 -54.5t55 -81t20 -98.5v-976q0 -53 -20 -99t-55 -80.5t-82 -54.5t-101 -20h-968
q-53 0 -100 20t-82 54.5t-55.5 80.5t-20.5 99v976q0 52 20.5 98.5t55.5 81t82 54.5t100 20h968zM1513 1208q0 28 -11.5 53t-31 44t-45.5 30t-55 11h-940q-29 0 -55 -11t-45.5 -29.5t-31 -44t-11.5 -53.5v-972q0 -28 11.5 -53t31 -44t45.5 -30t55 -11h940q29 0 55 11t45.5 30
t31 44t11.5 53v972z" />
    <glyph glyph-name="uni1F134" unicode="E&#x25a1;"
d="M1135 388h-459v693h459v-103h-330v-190h311v-98h-311v-199h330v-103zM1384 1464q54 0 101 -20t82 -54.5t55 -81t20 -98.5v-976q0 -53 -20 -99t-55 -80.5t-82 -54.5t-101 -20h-968q-53 0 -100 20t-82 54.5t-55.5 80.5t-20.5 99v976q0 52 20.5 98.5t55.5 81t82 54.5t100 20
h968zM1513 1208q0 28 -11.5 53t-31 44t-45.5 30t-55 11h-940q-29 0 -55 -11t-45.5 -29.5t-31 -44t-11.5 -53.5v-972q0 -28 11.5 -53t31 -44t45.5 -30t55 -11h940q29 0 55 11t45.5 30t31 44t11.5 53v972z" />
    <glyph glyph-name="uni1F135" unicode="F&#x25a1;"
d="M707 388v693h454v-104h-323v-205h295v-102h-295v-282h-131zM1384 1464q54 0 101 -20t82 -54.5t55 -81t20 -98.5v-976q0 -53 -20 -99t-55 -80.5t-82 -54.5t-101 -20h-968q-53 0 -100 20t-82 54.5t-55.5 80.5t-20.5 99v976q0 52 20.5 98.5t55.5 81t82 54.5t100 20h968z
M1513 1208q0 28 -11.5 53t-31 44t-45.5 30t-55 11h-940q-29 0 -55 -11t-45.5 -29.5t-31 -44t-11.5 -53.5v-972q0 -28 11.5 -53t31 -44t45.5 -30t55 -11h940q29 0 55 11t45.5 30t31 44t11.5 53v972z" />
    <glyph glyph-name="uni1F136" unicode="G&#x25a1;"
d="M1071 661h-160v95h284v-122q0 -57 -19 -104.5t-56 -82t-92 -53.5t-128 -19t-133 26t-103 73t-66.5 113.5t-23.5 146.5t23.5 146.5t66.5 114t103 73.5t133 26q61 0 113 -16.5t91 -46.5t64 -72.5t32 -94.5h-130q-4 27 -18.5 50t-37 39.5t-51.5 26t-61 9.5q-45 0 -81 -18
t-61.5 -51.5t-39.5 -80.5t-14 -105t14 -105t39.5 -80t61.5 -51t81 -18q83 0 126 34.5t43 89.5v57zM1384 1464q54 0 101 -20t82 -54.5t55 -81t20 -98.5v-976q0 -53 -20 -99t-55 -80.5t-82 -54.5t-101 -20h-968q-53 0 -100 20t-82 54.5t-55.5 80.5t-20.5 99v976
q0 52 20.5 98.5t55.5 81t82 54.5t100 20h968zM1513 1208q0 28 -11.5 53t-31 44t-45.5 30t-55 11h-940q-29 0 -55 -11t-45.5 -29.5t-31 -44t-11.5 -53.5v-972q0 -28 11.5 -53t31 -44t45.5 -30t55 -11h940q29 0 55 11t45.5 30t31 44t11.5 53v972z" />
    <glyph glyph-name="uni1F137" unicode="H&#x25a1;"
d="M1061 388v304h-321v-304h-130v693h130v-286h321v286h130v-693h-130zM1384 1464q54 0 101 -20t82 -54.5t55 -81t20 -98.5v-976q0 -53 -20 -99t-55 -80.5t-82 -54.5t-101 -20h-968q-53 0 -100 20t-82 54.5t-55.5 80.5t-20.5 99v976q0 52 20.5 98.5t55.5 81t82 54.5t100 20
h968zM1513 1208q0 28 -11.5 53t-31 44t-45.5 30t-55 11h-940q-29 0 -55 -11t-45.5 -29.5t-31 -44t-11.5 -53.5v-972q0 -28 11.5 -53t31 -44t45.5 -30t55 -11h940q29 0 55 11t45.5 30t31 44t11.5 53v972z" />
    <glyph glyph-name="uni1F138" unicode="I&#x25a1;"
d="M834 388v693h132v-693h-132zM1384 1464q54 0 101 -20t82 -54.5t55 -81t20 -98.5v-976q0 -53 -20 -99t-55 -80.5t-82 -54.5t-101 -20h-968q-53 0 -100 20t-82 54.5t-55.5 80.5t-20.5 99v976q0 52 20.5 98.5t55.5 81t82 54.5t100 20h968zM1513 1208q0 28 -11.5 53t-31 44
t-45.5 30t-55 11h-940q-29 0 -55 -11t-45.5 -29.5t-31 -44t-11.5 -53.5v-972q0 -28 11.5 -53t31 -44t45.5 -30t55 -11h940q29 0 55 11t45.5 30t31 44t11.5 53v972z" />
    <glyph glyph-name="uni1F139" unicode="J&#x25a1;"
d="M762 576q1 -41 28 -66t72 -25q54 0 80.5 30t26.5 85v481h130v-477q0 -112 -62.5 -170.5t-173.5 -58.5q-56 0 -98 16t-71 43t-43.5 63.5t-14.5 78.5h126zM1384 1464q54 0 101 -20t82 -54.5t55 -81t20 -98.5v-976q0 -53 -20 -99t-55 -80.5t-82 -54.5t-101 -20h-968
q-53 0 -100 20t-82 54.5t-55.5 80.5t-20.5 99v976q0 52 20.5 98.5t55.5 81t82 54.5t100 20h968zM1513 1208q0 28 -11.5 53t-31 44t-45.5 30t-55 11h-940q-29 0 -55 -11t-45.5 -29.5t-31 -44t-11.5 -53.5v-972q0 -28 11.5 -53t31 -44t45.5 -30t55 -11h940q29 0 55 11t45.5 30
t31 44t11.5 53v972z" />
    <glyph glyph-name="uni1F13A" unicode="K&#x25a1;"
d="M952 784l274 -396h-158l-212 312l-78 -84v-228h-130v693h130v-317h5l287 317h145zM1384 1464q54 0 101 -20t82 -54.5t55 -81t20 -98.5v-976q0 -53 -20 -99t-55 -80.5t-82 -54.5t-101 -20h-968q-53 0 -100 20t-82 54.5t-55.5 80.5t-20.5 99v976q0 52 20.5 98.5t55.5 81
t82 54.5t100 20h968zM1513 1208q0 28 -11.5 53t-31 44t-45.5 30t-55 11h-940q-29 0 -55 -11t-45.5 -29.5t-31 -44t-11.5 -53.5v-972q0 -28 11.5 -53t31 -44t45.5 -30t55 -11h940q29 0 55 11t45.5 30t31 44t11.5 53v972z" />
    <glyph glyph-name="uni1F13B" unicode="L&#x25a1;"
d="M1178 388h-446v693h131v-586h315v-107zM1384 1464q54 0 101 -20t82 -54.5t55 -81t20 -98.5v-976q0 -53 -20 -99t-55 -80.5t-82 -54.5t-101 -20h-968q-53 0 -100 20t-82 54.5t-55.5 80.5t-20.5 99v976q0 52 20.5 98.5t55.5 81t82 54.5t100 20h968zM1513 1208
q0 28 -11.5 53t-31 44t-45.5 30t-55 11h-940q-29 0 -55 -11t-45.5 -29.5t-31 -44t-11.5 -53.5v-972q0 -28 11.5 -53t31 -44t45.5 -30t55 -11h940q29 0 55 11t45.5 30t31 44t11.5 53v972z" />
    <glyph glyph-name="uni1F13C" unicode="M&#x25a1;"
d="M551 388v693h132l216 -533h4l216 533h130v-693h-117v473h-6l-180 -453h-91l-181 453h-6v-473h-117zM1384 1464q54 0 101 -20t82 -54.5t55 -81t20 -98.5v-976q0 -53 -20 -99t-55 -80.5t-82 -54.5t-101 -20h-968q-53 0 -100 20t-82 54.5t-55.5 80.5t-20.5 99v976
q0 52 20.5 98.5t55.5 81t82 54.5t100 20h968zM1513 1208q0 28 -11.5 53t-31 44t-45.5 30t-55 11h-940q-29 0 -55 -11t-45.5 -29.5t-31 -44t-11.5 -53.5v-972q0 -28 11.5 -53t31 -44t45.5 -30t55 -11h940q29 0 55 11t45.5 30t31 44t11.5 53v972z" />
    <glyph glyph-name="uni1F13D" unicode="N&#x25a1;"
d="M614 388v693h111l331 -482h6v482h124v-693h-111l-332 484h-5v-484h-124zM1384 1464q54 0 101 -20t82 -54.5t55 -81t20 -98.5v-976q0 -53 -20 -99t-55 -80.5t-82 -54.5t-101 -20h-968q-53 0 -100 20t-82 54.5t-55.5 80.5t-20.5 99v976q0 52 20.5 98.5t55.5 81t82 54.5
t100 20h968zM1513 1208q0 28 -11.5 53t-31 44t-45.5 30t-55 11h-940q-29 0 -55 -11t-45.5 -29.5t-31 -44t-11.5 -53.5v-972q0 -28 11.5 -53t31 -44t45.5 -30t55 -11h940q29 0 55 11t45.5 30t31 44t11.5 53v972z" />
    <glyph glyph-name="uni1F13E" unicode="O&#x25a1;"
d="M900 480q40 0 75.5 16.5t62 49t41.5 79.5t15 109t-15 109.5t-41.5 80t-62 49t-75.5 16.5q-41 0 -76 -16.5t-61.5 -49t-41.5 -80t-15 -109.5t15 -109t41.5 -79.5t61.5 -49t76 -16.5zM900 375q-68 0 -127 24t-103.5 69.5t-70 112.5t-25.5 153t25.5 153t70 113t103.5 70
t127 24q67 0 126.5 -24t104 -70t70 -113t25.5 -153t-25.5 -153t-70 -112.5t-104 -69.5t-126.5 -24zM1384 1464q54 0 101 -20t82 -54.5t55 -81t20 -98.5v-976q0 -53 -20 -99t-55 -80.5t-82 -54.5t-101 -20h-968q-53 0 -100 20t-82 54.5t-55.5 80.5t-20.5 99v976
q0 52 20.5 98.5t55.5 81t82 54.5t100 20h968zM1513 1208q0 28 -11.5 53t-31 44t-45.5 30t-55 11h-940q-29 0 -55 -11t-45.5 -29.5t-31 -44t-11.5 -53.5v-972q0 -28 11.5 -53t31 -44t45.5 -30t55 -11h940q29 0 55 11t45.5 30t31 44t11.5 53v972z" />
    <glyph glyph-name="uni1F13F" unicode="P&#x25a1;"
d="M962 1081q57 0 102 -17.5t76 -48t47.5 -72t16.5 -89.5q0 -49 -16.5 -90t-47.5 -71t-76.5 -47t-102.5 -17h-153v-241h-129v693h283zM1071 854q0 60 -34 93t-97 33h-132v-251h132q63 0 97 32.5t34 92.5zM1384 1464q54 0 101 -20t82 -54.5t55 -81t20 -98.5v-976
q0 -53 -20 -99t-55 -80.5t-82 -54.5t-101 -20h-968q-53 0 -100 20t-82 54.5t-55.5 80.5t-20.5 99v976q0 52 20.5 98.5t55.5 81t82 54.5t100 20h968zM1513 1208q0 28 -11.5 53t-31 44t-45.5 30t-55 11h-940q-29 0 -55 -11t-45.5 -29.5t-31 -44t-11.5 -53.5v-972
q0 -28 11.5 -53t31 -44t45.5 -30t55 -11h940q29 0 55 11t45.5 30t31 44t11.5 53v972z" />
    <glyph glyph-name="uni1F140" unicode="Q&#x25a1;"
d="M1072 319l-56 76q-55 -20 -116 -20q-68 0 -127 24t-103.5 69.5t-70 112.5t-25.5 153t25.5 153t70 113t103.5 70t127 24q67 0 126.5 -24t104 -70t70 -113t25.5 -153q0 -98 -32.5 -170t-87.5 -118l94 -127h-128zM900 480q28 0 49 7l-84 115h126l44 -60q27 32 43 80.5
t16 111.5q0 62 -15 109.5t-41.5 80t-62 49t-75.5 16.5q-41 0 -76 -16.5t-61.5 -49t-41.5 -80t-15 -109.5t15 -109t41.5 -79.5t61.5 -49t76 -16.5zM1384 1464q54 0 101 -20t82 -54.5t55 -81t20 -98.5v-976q0 -53 -20 -99t-55 -80.5t-82 -54.5t-101 -20h-968q-53 0 -100 20
t-82 54.5t-55.5 80.5t-20.5 99v976q0 52 20.5 98.5t55.5 81t82 54.5t100 20h968zM1513 1208q0 28 -11.5 53t-31 44t-45.5 30t-55 11h-940q-29 0 -55 -11t-45.5 -29.5t-31 -44t-11.5 -53.5v-972q0 -28 11.5 -53t31 -44t45.5 -30t55 -11h940q29 0 55 11t45.5 30t31 44t11.5 53
v972z" />
    <glyph glyph-name="uni1F141" unicode="R&#x25a1;"
d="M934 1081q58 0 104.5 -15.5t78.5 -43.5t49 -68t17 -89q0 -37 -11 -68.5t-29 -56t-42 -42t-51 -27.5l146 -283h-146l-128 263h-142v-263h-128v693h282zM912 747q65 0 101 28.5t36 85.5q0 59 -36.5 89.5t-96.5 30.5h-136v-234h132zM1384 1464q54 0 101 -20t82 -54.5t55 -81
t20 -98.5v-976q0 -53 -20 -99t-55 -80.5t-82 -54.5t-101 -20h-968q-53 0 -100 20t-82 54.5t-55.5 80.5t-20.5 99v976q0 52 20.5 98.5t55.5 81t82 54.5t100 20h968zM1513 1208q0 28 -11.5 53t-31 44t-45.5 30t-55 11h-940q-29 0 -55 -11t-45.5 -29.5t-31 -44t-11.5 -53.5
v-972q0 -28 11.5 -53t31 -44t45.5 -30t55 -11h940q29 0 55 11t45.5 30t31 44t11.5 53v972z" />
    <glyph glyph-name="uni1F142" unicode="S&#x25a1;"
d="M747 582q5 -48 47.5 -77.5t110.5 -29.5q67 0 106.5 27.5t39.5 75.5q0 36 -27 58.5t-88 37.5l-117 26q-88 20 -134 68t-46 121q0 46 19.5 84t54.5 65t84 42t108 15q58 0 106.5 -14.5t83.5 -41.5t54.5 -64.5t20.5 -82.5h-124q-4 48 -42.5 76t-99.5 28q-60 0 -97 -27.5
t-37 -72.5q0 -65 100 -87l117 -26q100 -23 146.5 -69.5t46.5 -124.5q0 -50 -20 -89.5t-56.5 -67t-89 -42.5t-117.5 -15q-62 0 -113 14.5t-87 41.5t-56 65t-21 86h127zM1384 1464q54 0 101 -20t82 -54.5t55 -81t20 -98.5v-976q0 -53 -20 -99t-55 -80.5t-82 -54.5t-101 -20
h-968q-53 0 -100 20t-82 54.5t-55.5 80.5t-20.5 99v976q0 52 20.5 98.5t55.5 81t82 54.5t100 20h968zM1513 1208q0 28 -11.5 53t-31 44t-45.5 30t-55 11h-940q-29 0 -55 -11t-45.5 -29.5t-31 -44t-11.5 -53.5v-972q0 -28 11.5 -53t31 -44t45.5 -30t55 -11h940q29 0 55 11
t45.5 30t31 44t11.5 53v972z" />
    <glyph glyph-name="uni1F143" unicode="T&#x25a1;"
d="M834 388v588h-210v105h552v-105h-210v-588h-132zM1384 1464q54 0 101 -20t82 -54.5t55 -81t20 -98.5v-976q0 -53 -20 -99t-55 -80.5t-82 -54.5t-101 -20h-968q-53 0 -100 20t-82 54.5t-55.5 80.5t-20.5 99v976q0 52 20.5 98.5t55.5 81t82 54.5t100 20h968zM1513 1208
q0 28 -11.5 53t-31 44t-45.5 30t-55 11h-940q-29 0 -55 -11t-45.5 -29.5t-31 -44t-11.5 -53.5v-972q0 -28 11.5 -53t31 -44t45.5 -30t55 -11h940q29 0 55 11t45.5 30t31 44t11.5 53v972z" />
    <glyph glyph-name="uni1F144" unicode="U&#x25a1;"
d="M900 482q72 0 115 40.5t43 115.5v443h130v-454q0 -57 -20.5 -103.5t-58 -79.5t-90.5 -51t-119 -18t-119 18t-90.5 51t-58 79.5t-20.5 103.5v454h130v-443q0 -75 43 -115.5t115 -40.5zM1384 1464q54 0 101 -20t82 -54.5t55 -81t20 -98.5v-976q0 -53 -20 -99t-55 -80.5
t-82 -54.5t-101 -20h-968q-53 0 -100 20t-82 54.5t-55.5 80.5t-20.5 99v976q0 52 20.5 98.5t55.5 81t82 54.5t100 20h968zM1513 1208q0 28 -11.5 53t-31 44t-45.5 30t-55 11h-940q-29 0 -55 -11t-45.5 -29.5t-31 -44t-11.5 -53.5v-972q0 -28 11.5 -53t31 -44t45.5 -30
t55 -11h940q29 0 55 11t45.5 30t31 44t11.5 53v972z" />
    <glyph glyph-name="uni1F145" unicode="V&#x25a1;"
d="M572 1081h151l174 -555h6l174 555h151l-250 -693h-156zM1384 1464q54 0 101 -20t82 -54.5t55 -81t20 -98.5v-976q0 -53 -20 -99t-55 -80.5t-82 -54.5t-101 -20h-968q-53 0 -100 20t-82 54.5t-55.5 80.5t-20.5 99v976q0 52 20.5 98.5t55.5 81t82 54.5t100 20h968z
M1513 1208q0 28 -11.5 53t-31 44t-45.5 30t-55 11h-940q-29 0 -55 -11t-45.5 -29.5t-31 -44t-11.5 -53.5v-972q0 -28 11.5 -53t31 -44t45.5 -30t55 -11h940q29 0 55 11t45.5 30t31 44t11.5 53v972z" />
    <glyph glyph-name="uni1F146" unicode="W&#x25a1;"
d="M758 388h-119l-195 693h143l117 -518h6l133 518h114l133 -518h6l117 518h143l-195 -693h-119l-140 501h-4zM1384 1464q54 0 101 -20t82 -54.5t55 -81t20 -98.5v-976q0 -53 -20 -99t-55 -80.5t-82 -54.5t-101 -20h-968q-53 0 -100 20t-82 54.5t-55.5 80.5t-20.5 99v976
q0 52 20.5 98.5t55.5 81t82 54.5t100 20h968zM1513 1208q0 28 -11.5 53t-31 44t-45.5 30t-55 11h-940q-29 0 -55 -11t-45.5 -29.5t-31 -44t-11.5 -53.5v-972q0 -28 11.5 -53t31 -44t45.5 -30t55 -11h940q29 0 55 11t45.5 30t31 44t11.5 53v972z" />
    <glyph glyph-name="uni1F147" unicode="X&#x25a1;"
d="M981 733l230 -345h-152l-161 253h-6l-163 -253h-143l229 349l-227 344h155l159 -256h6l158 256h148zM1384 1464q54 0 101 -20t82 -54.5t55 -81t20 -98.5v-976q0 -53 -20 -99t-55 -80.5t-82 -54.5t-101 -20h-968q-53 0 -100 20t-82 54.5t-55.5 80.5t-20.5 99v976
q0 52 20.5 98.5t55.5 81t82 54.5t100 20h968zM1513 1208q0 28 -11.5 53t-31 44t-45.5 30t-55 11h-940q-29 0 -55 -11t-45.5 -29.5t-31 -44t-11.5 -53.5v-972q0 -28 11.5 -53t31 -44t45.5 -30t55 -11h940q29 0 55 11t45.5 30t31 44t11.5 53v972z" />
    <glyph glyph-name="uni1F148" unicode="Y&#x25a1;"
d="M835 388v273l-243 420h145l162 -297h5l162 297h142l-242 -418v-275h-131zM1384 1464q54 0 101 -20t82 -54.5t55 -81t20 -98.5v-976q0 -53 -20 -99t-55 -80.5t-82 -54.5t-101 -20h-968q-53 0 -100 20t-82 54.5t-55.5 80.5t-20.5 99v976q0 52 20.5 98.5t55.5 81t82 54.5
t100 20h968zM1513 1208q0 28 -11.5 53t-31 44t-45.5 30t-55 11h-940q-29 0 -55 -11t-45.5 -29.5t-31 -44t-11.5 -53.5v-972q0 -28 11.5 -53t31 -44t45.5 -30t55 -11h940q29 0 55 11t45.5 30t31 44t11.5 53v972z" />
    <glyph glyph-name="uni1F149" unicode="Z&#x25a1;"
d="M635 471l361 499v7h-350v104h509v-83l-360 -499v-7h370v-104h-530v83zM1384 1464q54 0 101 -20t82 -54.5t55 -81t20 -98.5v-976q0 -53 -20 -99t-55 -80.5t-82 -54.5t-101 -20h-968q-53 0 -100 20t-82 54.5t-55.5 80.5t-20.5 99v976q0 52 20.5 98.5t55.5 81t82 54.5
t100 20h968zM1513 1208q0 28 -11.5 53t-31 44t-45.5 30t-55 11h-940q-29 0 -55 -11t-45.5 -29.5t-31 -44t-11.5 -53.5v-972q0 -28 11.5 -53t31 -44t45.5 -30t55 -11h940q29 0 55 11t45.5 30t31 44t11.5 53v972z" />
    <glyph glyph-name="plus.uc.whitecircle" unicode="&#x2b;&#x25cb;"
d="M954 465h-108v217h-212v102h212v209h108v-209h212v-102h-212v-217zM900 78q134 0 250 50.5t201.5 137.5t134.5 204t49 250t-49 250t-134.5 204t-201.5 137.5t-250 50.5t-250 -50.5t-201.5 -137.5t-134.5 -204t-49 -250t49 -250t134.5 -204t201.5 -137.5t250 -50.5z
M900 -50q-106 0 -204.5 27.5t-184 78t-156 121t-121 156t-78 184t-27.5 204.5t27.5 204.5t78 184t121 156t156 121t184 78t204.5 27.5t204.5 -27.5t184 -78t156 -121t121 -156t78 -184t27.5 -204.5t-27.5 -204.5t-78 -184t-121 -156t-156 -121t-184 -78t-204.5 -27.5z" />
    <glyph glyph-name="minus.uc.whitecircle" unicode="&#x2212;&#x25cb;"
d="M645 677v104h510v-104h-510zM900 78q134 0 250 50.5t201.5 137.5t134.5 204t49 250t-49 250t-134.5 204t-201.5 137.5t-250 50.5t-250 -50.5t-201.5 -137.5t-134.5 -204t-49 -250t49 -250t134.5 -204t201.5 -137.5t250 -50.5zM900 -50q-106 0 -204.5 27.5t-184 78
t-156 121t-121 156t-78 184t-27.5 204.5t27.5 204.5t78 184t121 156t156 121t184 78t204.5 27.5t204.5 -27.5t184 -78t156 -121t121 -156t78 -184t27.5 -204.5t-27.5 -204.5t-78 -184t-121 -156t-156 -121t-184 -78t-204.5 -27.5z" />
    <glyph glyph-name="multiply.uc.whitecircle" unicode="&#xd7;&#x25cb;"
d="M1063 958l77 -73l-163 -156l163 -156l-77 -73l-163 156l-163 -156l-77 73l163 156l-163 156l77 73l163 -156zM900 78q134 0 250 50.5t201.5 137.5t134.5 204t49 250t-49 250t-134.5 204t-201.5 137.5t-250 50.5t-250 -50.5t-201.5 -137.5t-134.5 -204t-49 -250t49 -250
t134.5 -204t201.5 -137.5t250 -50.5zM900 -50q-106 0 -204.5 27.5t-184 78t-156 121t-121 156t-78 184t-27.5 204.5t27.5 204.5t78 184t121 156t156 121t184 78t204.5 27.5t204.5 -27.5t184 -78t156 -121t121 -156t78 -184t27.5 -204.5t-27.5 -204.5t-78 -184t-121 -156
t-156 -121t-184 -78t-204.5 -27.5z" />
    <glyph glyph-name="divide.uc.whitecircle" unicode="&#xf7;&#x25cb;"
d="M645 683v91h510v-91h-510zM821 934q0 34 22.5 55t55.5 21q35 0 58.5 -21t23.5 -55q0 -32 -23.5 -52.5t-58.5 -20.5q-33 0 -55.5 20.5t-22.5 52.5zM821 527q0 34 22.5 55t56.5 21q35 0 58 -21t23 -55q0 -32 -23 -52.5t-58 -20.5q-34 0 -56.5 20.5t-22.5 52.5zM900 78
q134 0 250 50.5t201.5 137.5t134.5 204t49 250t-49 250t-134.5 204t-201.5 137.5t-250 50.5t-250 -50.5t-201.5 -137.5t-134.5 -204t-49 -250t49 -250t134.5 -204t201.5 -137.5t250 -50.5zM900 -50q-106 0 -204.5 27.5t-184 78t-156 121t-121 156t-78 184t-27.5 204.5
t27.5 204.5t78 184t121 156t156 121t184 78t204.5 27.5t204.5 -27.5t184 -78t156 -121t121 -156t78 -184t27.5 -204.5t-27.5 -204.5t-78 -184t-121 -156t-156 -121t-184 -78t-204.5 -27.5z" />
    <glyph glyph-name="equal.uc.whitecircle" unicode="&#x3d;&#x25cb;"
d="M659 567v95h482v-95h-482zM659 795v96h482v-96h-482zM900 78q134 0 250 50.5t201.5 137.5t134.5 204t49 250t-49 250t-134.5 204t-201.5 137.5t-250 50.5t-250 -50.5t-201.5 -137.5t-134.5 -204t-49 -250t49 -250t134.5 -204t201.5 -137.5t250 -50.5zM900 -50
q-106 0 -204.5 27.5t-184 78t-156 121t-121 156t-78 184t-27.5 204.5t27.5 204.5t78 184t121 156t156 121t184 78t204.5 27.5t204.5 -27.5t184 -78t156 -121t121 -156t78 -184t27.5 -204.5t-27.5 -204.5t-78 -184t-121 -156t-156 -121t-184 -78t-204.5 -27.5z" />
    <glyph glyph-name="greater.uc.whitecircle" unicode="&#x3e;&#x25cb;"
d="M1166 680l-482 -246v122l337 167v5l-337 173v124l482 -261v-84zM900 78q134 0 250 50.5t201.5 137.5t134.5 204t49 250t-49 250t-134.5 204t-201.5 137.5t-250 50.5t-250 -50.5t-201.5 -137.5t-134.5 -204t-49 -250t49 -250t134.5 -204t201.5 -137.5t250 -50.5zM900 -50
q-106 0 -204.5 27.5t-184 78t-156 121t-121 156t-78 184t-27.5 204.5t27.5 204.5t78 184t121 156t156 121t184 78t204.5 27.5t204.5 -27.5t184 -78t156 -121t121 -156t78 -184t27.5 -204.5t-27.5 -204.5t-78 -184t-121 -156t-156 -121t-184 -78t-204.5 -27.5z" />
    <glyph glyph-name="less.uc.whitecircle" unicode="&#x3c;&#x25cb;"
d="M635 764l481 261v-124l-338 -173v-5l338 -167v-122l-481 246v84zM900 78q134 0 250 50.5t201.5 137.5t134.5 204t49 250t-49 250t-134.5 204t-201.5 137.5t-250 50.5t-250 -50.5t-201.5 -137.5t-134.5 -204t-49 -250t49 -250t134.5 -204t201.5 -137.5t250 -50.5zM900 -50
q-106 0 -204.5 27.5t-184 78t-156 121t-121 156t-78 184t-27.5 204.5t27.5 204.5t78 184t121 156t156 121t184 78t204.5 27.5t204.5 -27.5t184 -78t156 -121t121 -156t78 -184t27.5 -204.5t-27.5 -204.5t-78 -184t-121 -156t-156 -121t-184 -78t-204.5 -27.5z" />
    <glyph glyph-name="numbersign.whitecircle" unicode="&#x23;&#x25cb;"
d="M1075 802l-30 -139h107l-19 -90h-107l-40 -190h-98l41 190h-131l-40 -190h-98l40 190h-105l18 90h106l30 139h-101l18 90h103l38 184h97l-38 -184h130l39 184h97l-38 -184h111l-18 -90h-112zM809 653h144l33 153h-144zM900 78q134 0 250 50.5t201.5 137.5t134.5 204
t49 250t-49 250t-134.5 204t-201.5 137.5t-250 50.5t-250 -50.5t-201.5 -137.5t-134.5 -204t-49 -250t49 -250t134.5 -204t201.5 -137.5t250 -50.5zM900 -50q-106 0 -204.5 27.5t-184 78t-156 121t-121 156t-78 184t-27.5 204.5t27.5 204.5t78 184t121 156t156 121t184 78
t204.5 27.5t204.5 -27.5t184 -78t156 -121t121 -156t78 -184t27.5 -204.5t-27.5 -204.5t-78 -184t-121 -156t-156 -121t-184 -78t-204.5 -27.5z" />
    <glyph glyph-name="uni25BC.whitecircle" unicode="&#x25bc;&#x25cb;"
d="M900 402l-313 543h627zM900 78q134 0 250 50.5t201.5 137.5t134.5 204t49 250t-49 250t-134.5 204t-201.5 137.5t-250 50.5t-250 -50.5t-201.5 -137.5t-134.5 -204t-49 -250t49 -250t134.5 -204t201.5 -137.5t250 -50.5zM900 -50q-106 0 -204.5 27.5t-184 78t-156 121
t-121 156t-78 184t-27.5 204.5t27.5 204.5t78 184t121 156t156 121t184 78t204.5 27.5t204.5 -27.5t184 -78t156 -121t121 -156t78 -184t27.5 -204.5t-27.5 -204.5t-78 -184t-121 -156t-156 -121t-184 -78t-204.5 -27.5z" />
    <glyph glyph-name="uni25B2.whitecircle" unicode="&#x25b2;&#x25cb;"
d="M587 513l313 543l314 -543h-627zM900 78q134 0 250 50.5t201.5 137.5t134.5 204t49 250t-49 250t-134.5 204t-201.5 137.5t-250 50.5t-250 -50.5t-201.5 -137.5t-134.5 -204t-49 -250t49 -250t134.5 -204t201.5 -137.5t250 -50.5zM900 -50q-106 0 -204.5 27.5t-184 78
t-156 121t-121 156t-78 184t-27.5 204.5t27.5 204.5t78 184t121 156t156 121t184 78t204.5 27.5t204.5 -27.5t184 -78t156 -121t121 -156t78 -184t27.5 -204.5t-27.5 -204.5t-78 -184t-121 -156t-156 -121t-184 -78t-204.5 -27.5z" />
    <glyph glyph-name="uni25C0.whitecircle" unicode="&#x25c0;&#x25cb;"
d="M573 729l543 313v-627zM900 78q134 0 250 50.5t201.5 137.5t134.5 204t49 250t-49 250t-134.5 204t-201.5 137.5t-250 50.5t-250 -50.5t-201.5 -137.5t-134.5 -204t-49 -250t49 -250t134.5 -204t201.5 -137.5t250 -50.5zM900 -50q-106 0 -204.5 27.5t-184 78t-156 121
t-121 156t-78 184t-27.5 204.5t27.5 204.5t78 184t121 156t156 121t184 78t204.5 27.5t204.5 -27.5t184 -78t156 -121t121 -156t78 -184t27.5 -204.5t-27.5 -204.5t-78 -184t-121 -156t-156 -121t-184 -78t-204.5 -27.5z" />
    <glyph glyph-name="uni25B6.whitecircle" unicode="&#x25b6;&#x25cb;"
d="M684 1042l543 -313l-543 -314v627zM900 78q134 0 250 50.5t201.5 137.5t134.5 204t49 250t-49 250t-134.5 204t-201.5 137.5t-250 50.5t-250 -50.5t-201.5 -137.5t-134.5 -204t-49 -250t49 -250t134.5 -204t201.5 -137.5t250 -50.5zM900 -50q-106 0 -204.5 27.5t-184 78
t-156 121t-121 156t-78 184t-27.5 204.5t27.5 204.5t78 184t121 156t156 121t184 78t204.5 27.5t204.5 -27.5t184 -78t156 -121t121 -156t78 -184t27.5 -204.5t-27.5 -204.5t-78 -184t-121 -156t-156 -121t-184 -78t-204.5 -27.5z" />
    <glyph glyph-name="question.whitecircle" unicode="&#x3f;&#x25cb;"
d="M798 454q0 35 25 56t63 21q41 0 65.5 -21t24.5 -56q0 -32 -24.5 -53.5t-65.5 -21.5q-38 0 -63 21.5t-25 53.5zM824 639q-3 57 24.5 94.5t71.5 67.5q19 13 34 24.5t25.5 23.5t16.5 26t6 33q0 24 -9 41t-23.5 28t-33.5 16t-40 5q-54 0 -81.5 -30.5t-27.5 -75.5h-119
q-1 56 19.5 95t54 63t75.5 34.5t85 10.5q45 0 86.5 -11t73 -33.5t50.5 -56.5t19 -80q0 -33 -9 -57.5t-24 -43.5t-34 -34t-38 -28l-39.5 -29.5t-27 -25t-15 -27.5t-4.5 -36v-27h-116v33zM900 78q134 0 250 50.5t201.5 137.5t134.5 204t49 250t-49 250t-134.5 204
t-201.5 137.5t-250 50.5t-250 -50.5t-201.5 -137.5t-134.5 -204t-49 -250t49 -250t134.5 -204t201.5 -137.5t250 -50.5zM900 -50q-106 0 -204.5 27.5t-184 78t-156 121t-121 156t-78 184t-27.5 204.5t27.5 204.5t78 184t121 156t156 121t184 78t204.5 27.5t204.5 -27.5
t184 -78t156 -121t121 -156t78 -184t27.5 -204.5t-27.5 -204.5t-78 -184t-121 -156t-156 -121t-184 -78t-204.5 -27.5z" />
    <glyph glyph-name="exclam.whitecircle" unicode="&#x21;&#x25cb;"
d="M811 454q0 35 24.5 56.5t64.5 21.5t64.5 -21.5t24.5 -56.5q0 -32 -24.5 -53.5t-64.5 -21.5t-64.5 21.5t-24.5 53.5zM971 1081l-15 -454h-111l-15 454h141zM900 78q134 0 250 50.5t201.5 137.5t134.5 204t49 250t-49 250t-134.5 204t-201.5 137.5t-250 50.5t-250 -50.5
t-201.5 -137.5t-134.5 -204t-49 -250t49 -250t134.5 -204t201.5 -137.5t250 -50.5zM900 -50q-106 0 -204.5 27.5t-184 78t-156 121t-121 156t-78 184t-27.5 204.5t27.5 204.5t78 184t121 156t156 121t184 78t204.5 27.5t204.5 -27.5t184 -78t156 -121t121 -156t78 -184
t27.5 -204.5t-27.5 -204.5t-78 -184t-121 -156t-156 -121t-184 -78t-204.5 -27.5z" />
    <glyph glyph-name="uni2717.whitecircle" unicode="&#x2717;&#x25cb;"
d="M1163 1064l82 -81l-258 -259l258 -259l-82 -83l-259 258l-259 -258l-83 83l258 259l-259 260l82 82l261 -260zM900 78q134 0 250 50.5t201.5 137.5t134.5 204t49 250t-49 250t-134.5 204t-201.5 137.5t-250 50.5t-250 -50.5t-201.5 -137.5t-134.5 -204t-49 -250t49 -250
t134.5 -204t201.5 -137.5t250 -50.5zM900 -50q-106 0 -204.5 27.5t-184 78t-156 121t-121 156t-78 184t-27.5 204.5t27.5 204.5t78 184t121 156t156 121t184 78t204.5 27.5t204.5 -27.5t184 -78t156 -121t121 -156t78 -184t27.5 -204.5t-27.5 -204.5t-78 -184t-121 -156
t-156 -121t-184 -78t-204.5 -27.5z" />
    <glyph glyph-name="uni2713.whitecircle" unicode="&#x2713;&#x25cb;"
d="M777 406l-288 285l88 87l199 -198l459 458l88 -88zM900 78q134 0 250 50.5t201.5 137.5t134.5 204t49 250t-49 250t-134.5 204t-201.5 137.5t-250 50.5t-250 -50.5t-201.5 -137.5t-134.5 -204t-49 -250t49 -250t134.5 -204t201.5 -137.5t250 -50.5zM900 -50
q-106 0 -204.5 27.5t-184 78t-156 121t-121 156t-78 184t-27.5 204.5t27.5 204.5t78 184t121 156t156 121t184 78t204.5 27.5t204.5 -27.5t184 -78t156 -121t121 -156t78 -184t27.5 -204.5t-27.5 -204.5t-78 -184t-121 -156t-156 -121t-184 -78t-204.5 -27.5z" />
    <glyph glyph-name="zero.whitesquare" unicode="&#x30;&#x25a1;"
d="M900 486q66 0 105 64.5t39 184.5t-39 184.5t-105 64.5t-105 -64.5t-39 -184.5t39 -184.5t105 -64.5zM900 376q-59 0 -108 24t-84.5 69.5t-55.5 112.5t-20 153t20 153t55.5 112.5t84.5 69.5t108 24q58 0 107.5 -24t85 -69.5t55.5 -112.5t20 -153t-20 -153t-55.5 -112.5
t-85 -69.5t-107.5 -24zM1384 1464q54 0 101 -20t82 -54.5t55 -81t20 -98.5v-976q0 -53 -20 -99t-55 -80.5t-82 -54.5t-101 -20h-968q-53 0 -100 20t-82 54.5t-55.5 80.5t-20.5 99v976q0 52 20.5 98.5t55.5 81t82 54.5t100 20h968zM1513 1208q0 28 -11.5 53t-31 44t-45.5 30
t-55 11h-940q-29 0 -55 -11t-45.5 -29.5t-31 -44t-11.5 -53.5v-972q0 -28 11.5 -53t31 -44t45.5 -30t55 -11h940q29 0 55 11t45.5 30t31 44t11.5 53v972z" />
    <glyph glyph-name="one.whitesquare" unicode="&#x31;&#x25a1;"
d="M879 388v571h-6l-166 -114v117l172 119h130v-693h-130zM1384 1464q54 0 101 -20t82 -54.5t55 -81t20 -98.5v-976q0 -53 -20 -99t-55 -80.5t-82 -54.5t-101 -20h-968q-53 0 -100 20t-82 54.5t-55.5 80.5t-20.5 99v976q0 52 20.5 98.5t55.5 81t82 54.5t100 20h968z
M1513 1208q0 28 -11.5 53t-31 44t-45.5 30t-55 11h-940q-29 0 -55 -11t-45.5 -29.5t-31 -44t-11.5 -53.5v-972q0 -28 11.5 -53t31 -44t45.5 -30t55 -11h940q29 0 55 11t45.5 30t31 44t11.5 53v972z" />
    <glyph glyph-name="two.whitesquare" unicode="&#x32;&#x25a1;"
d="M658 878v6q0 39 15 77t45 67.5t75.5 47.5t107.5 18q55 0 99.5 -14.5t76 -40.5t48.5 -61.5t17 -76.5q0 -35 -10.5 -64t-28 -55t-40.5 -50.5l-47 -49.5l-174 -185v-6h313v-103h-492v77l268 280q15 15 29.5 31.5t26.5 34.5t19 37.5t7 41.5q0 46 -32.5 74.5t-81.5 28.5
q-28 0 -50 -9t-37 -24t-22.5 -34.5t-7.5 -41.5v-6h-124zM1384 1464q54 0 101 -20t82 -54.5t55 -81t20 -98.5v-976q0 -53 -20 -99t-55 -80.5t-82 -54.5t-101 -20h-968q-53 0 -100 20t-82 54.5t-55.5 80.5t-20.5 99v976q0 52 20.5 98.5t55.5 81t82 54.5t100 20h968zM1513 1208
q0 28 -11.5 53t-31 44t-45.5 30t-55 11h-940q-29 0 -55 -11t-45.5 -29.5t-31 -44t-11.5 -53.5v-972q0 -28 11.5 -53t31 -44t45.5 -30t55 -11h940q29 0 55 11t45.5 30t31 44t11.5 53v972z" />
    <glyph glyph-name="three.whitesquare" unicode="&#x33;&#x25a1;"
d="M820 794h77q25 0 47 8t37.5 21.5t24.5 32.5t9 41q-1 44 -34 71.5t-84 27.5q-53 0 -85 -27t-34 -62h-122q1 39 17.5 72.5t47.5 59t76 40.5t103 15q55 0 99.5 -13.5t76.5 -37.5t49.5 -56.5t18.5 -71.5q1 -37 -12.5 -65.5t-34 -48.5t-44.5 -32t-44 -15v-6q24 -3 51.5 -13.5
t50.5 -30.5t38.5 -50.5t16.5 -72.5q1 -48 -20 -86t-58 -65t-86.5 -41t-105.5 -14q-60 0 -106.5 15t-79 40.5t-50.5 59.5t-19 73h120q4 -38 41.5 -63.5t94.5 -26.5q63 0 101.5 32t38.5 81q-2 48 -38.5 79t-97.5 31h-81v98zM1384 1464q54 0 101 -20t82 -54.5t55 -81t20 -98.5
v-976q0 -53 -20 -99t-55 -80.5t-82 -54.5t-101 -20h-968q-53 0 -100 20t-82 54.5t-55.5 80.5t-20.5 99v976q0 52 20.5 98.5t55.5 81t82 54.5t100 20h968zM1513 1208q0 28 -11.5 53t-31 44t-45.5 30t-55 11h-940q-29 0 -55 -11t-45.5 -29.5t-31 -44t-11.5 -53.5v-972
q0 -28 11.5 -53t31 -44t45.5 -30t55 -11h940q29 0 55 11t45.5 30t31 44t11.5 53v972z" />
    <glyph glyph-name="four.whitesquare" unicode="&#x34;&#x25a1;"
d="M1084 1081v-458h91v-102h-91v-133h-123v133h-352v103q66 115 139.5 228.5l146.5 228.5h189zM961 623v361h-6l-116 -175.5t-109 -181.5v-4h231zM1384 1464q54 0 101 -20t82 -54.5t55 -81t20 -98.5v-976q0 -53 -20 -99t-55 -80.5t-82 -54.5t-101 -20h-968q-53 0 -100 20
t-82 54.5t-55.5 80.5t-20.5 99v976q0 52 20.5 98.5t55.5 81t82 54.5t100 20h968zM1513 1208q0 28 -11.5 53t-31 44t-45.5 30t-55 11h-940q-29 0 -55 -11t-45.5 -29.5t-31 -44t-11.5 -53.5v-972q0 -28 11.5 -53t31 -44t45.5 -30t55 -11h940q29 0 55 11t45.5 30t31 44t11.5 53
v972z" />
    <glyph glyph-name="five.whitesquare" unicode="&#x35;&#x25a1;"
d="M773 562q4 -23 17 -39t31.5 -27t40.5 -16t46 -5q26 0 51 9.5t44.5 27.5t31 44t11.5 60q0 30 -11 54t-30 41.5t-44.5 26.5t-53.5 9q-26 0 -46.5 -6.5t-36 -16.5t-26.5 -22t-17 -23h-114l32 402h434v-102h-329l-17 -195h6q6 8 18 18.5t30.5 19.5t43 15.5t55.5 6.5
q47 0 89.5 -15t74.5 -44t50.5 -70.5t18.5 -95.5q0 -55 -19.5 -100t-55 -77t-85.5 -49.5t-110 -17.5q-55 0 -100 14.5t-78 39.5t-52 59t-21 74h121zM1384 1464q54 0 101 -20t82 -54.5t55 -81t20 -98.5v-976q0 -53 -20 -99t-55 -80.5t-82 -54.5t-101 -20h-968q-53 0 -100 20
t-82 54.5t-55.5 80.5t-20.5 99v976q0 52 20.5 98.5t55.5 81t82 54.5t100 20h968zM1513 1208q0 28 -11.5 53t-31 44t-45.5 30t-55 11h-940q-29 0 -55 -11t-45.5 -29.5t-31 -44t-11.5 -53.5v-972q0 -28 11.5 -53t31 -44t45.5 -30t55 -11h940q29 0 55 11t45.5 30t31 44t11.5 53
v972z" />
    <glyph glyph-name="six.whitesquare" unicode="&#x36;&#x25a1;"
d="M1158 616q0 -53 -19 -97.5t-53 -76.5t-81.5 -49.5t-104.5 -17.5q-58 0 -105.5 18t-82 50.5t-53.5 78t-19 101.5q0 63 23.5 123.5t74.5 132.5q2 4 13 19l26 36l32.5 45l33.5 45l27.5 36.5t15.5 19.5h149q-4 -4 -18.5 -22l-34 -43.5l-42 -55l-42.5 -55.5l-35 -45.5
t-19 -25.5q-14 -19 -24 -37l8 -2q20 20 52 32t67 12q46 0 84.5 -16.5t66.5 -46.5t44 -70.5t16 -88.5zM765 612q0 -29 10 -53.5t28 -42.5t42.5 -28t53.5 -10t53.5 10t42.5 28t28 42.5t10 53.5q0 28 -10 52.5t-28 42.5t-42.5 28.5t-53.5 10.5t-53.5 -10.5t-42.5 -28.5
t-28 -42.5t-10 -52.5zM1384 1464q54 0 101 -20t82 -54.5t55 -81t20 -98.5v-976q0 -53 -20 -99t-55 -80.5t-82 -54.5t-101 -20h-968q-53 0 -100 20t-82 54.5t-55.5 80.5t-20.5 99v976q0 52 20.5 98.5t55.5 81t82 54.5t100 20h968zM1513 1208q0 28 -11.5 53t-31 44t-45.5 30
t-55 11h-940q-29 0 -55 -11t-45.5 -29.5t-31 -44t-11.5 -53.5v-972q0 -28 11.5 -53t31 -44t45.5 -30t55 -11h940q29 0 55 11t45.5 30t31 44t11.5 53v972z" />
    <glyph glyph-name="seven.whitesquare" unicode="&#x37;&#x25a1;"
d="M1153 1081v-105l-296 -588h-137l301 584v6h-359v103h491zM1384 1464q54 0 101 -20t82 -54.5t55 -81t20 -98.5v-976q0 -53 -20 -99t-55 -80.5t-82 -54.5t-101 -20h-968q-53 0 -100 20t-82 54.5t-55.5 80.5t-20.5 99v976q0 52 20.5 98.5t55.5 81t82 54.5t100 20h968z
M1513 1208q0 28 -11.5 53t-31 44t-45.5 30t-55 11h-940q-29 0 -55 -11t-45.5 -29.5t-31 -44t-11.5 -53.5v-972q0 -28 11.5 -53t31 -44t45.5 -30t55 -11h940q29 0 55 11t45.5 30t31 44t11.5 53v972z" />
    <glyph glyph-name="eight.whitesquare" unicode="&#x38;&#x25a1;"
d="M900 467q31 0 58 9t46 24.5t30 37.5t11 48q0 53 -40.5 86t-104.5 33q-32 0 -58.5 -9t-46 -25t-30.5 -38t-11 -47q0 -26 11 -48t30.5 -37.5t46 -24.5t58.5 -9zM900 793q54 0 87.5 29.5t33.5 75.5t-33.5 74.5t-87.5 28.5t-87.5 -28.5t-33.5 -74.5t33.5 -75.5t87.5 -29.5z
M898 375q-61 0 -111.5 14.5t-86.5 41t-55.5 64t-19.5 83.5q0 65 41.5 112t109.5 61v5q-57 18 -89.5 58.5t-32.5 96.5q0 40 18 73.5t51 58t78 38t99 13.5t99 -13.5t78 -38t51 -58t18 -73.5q0 -55 -32.5 -96.5t-89.5 -58.5v-5q34 -7 61.5 -22.5t47.5 -38t31 -51t11 -60.5
q0 -46 -20 -83.5t-57 -64.5t-88 -41.5t-112 -14.5zM1384 1464q54 0 101 -20t82 -54.5t55 -81t20 -98.5v-976q0 -53 -20 -99t-55 -80.5t-82 -54.5t-101 -20h-968q-53 0 -100 20t-82 54.5t-55.5 80.5t-20.5 99v976q0 52 20.5 98.5t55.5 81t82 54.5t100 20h968zM1513 1208
q0 28 -11.5 53t-31 44t-45.5 30t-55 11h-940q-29 0 -55 -11t-45.5 -29.5t-31 -44t-11.5 -53.5v-972q0 -28 11.5 -53t31 -44t45.5 -30t55 -11h940q29 0 55 11t45.5 30t31 44t11.5 53v972z" />
    <glyph glyph-name="nine.whitesquare" unicode="&#x39;&#x25a1;"
d="M641 853q0 53 19 97.5t53 76.5t81.5 49.5t104.5 17.5q58 0 105.5 -18t82 -50.5t53.5 -78.5t19 -101q0 -63 -23.5 -123.5t-74.5 -132.5q-2 -4 -13 -19l-26 -36l-32.5 -45l-33.5 -45l-27.5 -36.5t-15.5 -19.5h-149q4 4 18.5 22l34 43.5l42 55l42.5 55.5l35 45.5t19 25.5
q14 19 24 37l-8 2q-20 -20 -52 -32t-67 -12q-46 0 -84.5 16.5t-66.5 46.5t-44 70.5t-16 88.5zM1034 857q0 28 -10 52.5t-28 42.5t-42.5 28.5t-53.5 10.5t-53.5 -10.5t-42.5 -28.5t-28 -42.5t-10 -52.5q0 -29 10 -53.5t28 -42.5t42.5 -28t53.5 -10t53.5 10t42.5 28t28 42.5
t10 53.5zM1384 1464q54 0 101 -20t82 -54.5t55 -81t20 -98.5v-976q0 -53 -20 -99t-55 -80.5t-82 -54.5t-101 -20h-968q-53 0 -100 20t-82 54.5t-55.5 80.5t-20.5 99v976q0 52 20.5 98.5t55.5 81t82 54.5t100 20h968zM1513 1208q0 28 -11.5 53t-31 44t-45.5 30t-55 11h-940
q-29 0 -55 -11t-45.5 -29.5t-31 -44t-11.5 -53.5v-972q0 -28 11.5 -53t31 -44t45.5 -30t55 -11h940q29 0 55 11t45.5 30t31 44t11.5 53v972z" />
    <glyph glyph-name="plus.uc.whitesquare" unicode="&#x2b;&#x25a1;"
d="M954 465h-108v217h-212v102h212v209h108v-209h212v-102h-212v-217zM1384 1464q54 0 101 -20t82 -54.5t55 -81t20 -98.5v-976q0 -53 -20 -99t-55 -80.5t-82 -54.5t-101 -20h-968q-53 0 -100 20t-82 54.5t-55.5 80.5t-20.5 99v976q0 52 20.5 98.5t55.5 81t82 54.5t100 20
h968zM1513 1208q0 28 -11.5 53t-31 44t-45.5 30t-55 11h-940q-29 0 -55 -11t-45.5 -29.5t-31 -44t-11.5 -53.5v-972q0 -28 11.5 -53t31 -44t45.5 -30t55 -11h940q29 0 55 11t45.5 30t31 44t11.5 53v972z" />
    <glyph glyph-name="minus.uc.whitesquare" unicode="&#x2212;&#x25a1;"
d="M645 677v104h510v-104h-510zM1384 1464q54 0 101 -20t82 -54.5t55 -81t20 -98.5v-976q0 -53 -20 -99t-55 -80.5t-82 -54.5t-101 -20h-968q-53 0 -100 20t-82 54.5t-55.5 80.5t-20.5 99v976q0 52 20.5 98.5t55.5 81t82 54.5t100 20h968zM1513 1208q0 28 -11.5 53t-31 44
t-45.5 30t-55 11h-940q-29 0 -55 -11t-45.5 -29.5t-31 -44t-11.5 -53.5v-972q0 -28 11.5 -53t31 -44t45.5 -30t55 -11h940q29 0 55 11t45.5 30t31 44t11.5 53v972z" />
    <glyph glyph-name="multiply.uc.whitesquare" unicode="&#xd7;&#x25a1;"
d="M1063 958l77 -73l-163 -156l163 -156l-77 -73l-163 156l-163 -156l-77 73l163 156l-163 156l77 73l163 -156zM1384 1464q54 0 101 -20t82 -54.5t55 -81t20 -98.5v-976q0 -53 -20 -99t-55 -80.5t-82 -54.5t-101 -20h-968q-53 0 -100 20t-82 54.5t-55.5 80.5t-20.5 99v976
q0 52 20.5 98.5t55.5 81t82 54.5t100 20h968zM1513 1208q0 28 -11.5 53t-31 44t-45.5 30t-55 11h-940q-29 0 -55 -11t-45.5 -29.5t-31 -44t-11.5 -53.5v-972q0 -28 11.5 -53t31 -44t45.5 -30t55 -11h940q29 0 55 11t45.5 30t31 44t11.5 53v972z" />
    <glyph glyph-name="divide.uc.whitesquare" unicode="&#xf7;&#x25a1;"
d="M645 683v91h510v-91h-510zM821 934q0 34 22.5 55t55.5 21q35 0 58.5 -21t23.5 -55q0 -32 -23.5 -52.5t-58.5 -20.5q-33 0 -55.5 20.5t-22.5 52.5zM821 527q0 34 22.5 55t56.5 21q35 0 58 -21t23 -55q0 -32 -23 -52.5t-58 -20.5q-34 0 -56.5 20.5t-22.5 52.5zM1384 1464
q54 0 101 -20t82 -54.5t55 -81t20 -98.5v-976q0 -53 -20 -99t-55 -80.5t-82 -54.5t-101 -20h-968q-53 0 -100 20t-82 54.5t-55.5 80.5t-20.5 99v976q0 52 20.5 98.5t55.5 81t82 54.5t100 20h968zM1513 1208q0 28 -11.5 53t-31 44t-45.5 30t-55 11h-940q-29 0 -55 -11
t-45.5 -29.5t-31 -44t-11.5 -53.5v-972q0 -28 11.5 -53t31 -44t45.5 -30t55 -11h940q29 0 55 11t45.5 30t31 44t11.5 53v972z" />
    <glyph glyph-name="equal.uc.whitesquare" unicode="&#x3d;&#x25a1;"
d="M659 567v95h482v-95h-482zM659 795v96h482v-96h-482zM1384 1464q54 0 101 -20t82 -54.5t55 -81t20 -98.5v-976q0 -53 -20 -99t-55 -80.5t-82 -54.5t-101 -20h-968q-53 0 -100 20t-82 54.5t-55.5 80.5t-20.5 99v976q0 52 20.5 98.5t55.5 81t82 54.5t100 20h968zM1513 1208
q0 28 -11.5 53t-31 44t-45.5 30t-55 11h-940q-29 0 -55 -11t-45.5 -29.5t-31 -44t-11.5 -53.5v-972q0 -28 11.5 -53t31 -44t45.5 -30t55 -11h940q29 0 55 11t45.5 30t31 44t11.5 53v972z" />
    <glyph glyph-name="greater.uc.whitesquare" unicode="&#x3e;&#x25a1;"
d="M1166 680l-482 -246v122l337 167v5l-337 173v124l482 -261v-84zM1384 1464q54 0 101 -20t82 -54.5t55 -81t20 -98.5v-976q0 -53 -20 -99t-55 -80.5t-82 -54.5t-101 -20h-968q-53 0 -100 20t-82 54.5t-55.5 80.5t-20.5 99v976q0 52 20.5 98.5t55.5 81t82 54.5t100 20h968z
M1513 1208q0 28 -11.5 53t-31 44t-45.5 30t-55 11h-940q-29 0 -55 -11t-45.5 -29.5t-31 -44t-11.5 -53.5v-972q0 -28 11.5 -53t31 -44t45.5 -30t55 -11h940q29 0 55 11t45.5 30t31 44t11.5 53v972z" />
    <glyph glyph-name="less.uc.whitesquare" unicode="&#x3c;&#x25a1;"
d="M635 764l481 261v-124l-338 -173v-5l338 -167v-122l-481 246v84zM1384 1464q54 0 101 -20t82 -54.5t55 -81t20 -98.5v-976q0 -53 -20 -99t-55 -80.5t-82 -54.5t-101 -20h-968q-53 0 -100 20t-82 54.5t-55.5 80.5t-20.5 99v976q0 52 20.5 98.5t55.5 81t82 54.5t100 20h968
zM1513 1208q0 28 -11.5 53t-31 44t-45.5 30t-55 11h-940q-29 0 -55 -11t-45.5 -29.5t-31 -44t-11.5 -53.5v-972q0 -28 11.5 -53t31 -44t45.5 -30t55 -11h940q29 0 55 11t45.5 30t31 44t11.5 53v972z" />
    <glyph glyph-name="numbersign.whitesquare" unicode="&#x23;&#x25a1;"
d="M1075 802l-30 -139h107l-19 -90h-107l-40 -190h-98l41 190h-131l-40 -190h-98l40 190h-105l18 90h106l30 139h-101l18 90h103l38 184h97l-38 -184h130l39 184h97l-38 -184h111l-18 -90h-112zM809 653h144l33 153h-144zM1384 1464q54 0 101 -20t82 -54.5t55 -81t20 -98.5
v-976q0 -53 -20 -99t-55 -80.5t-82 -54.5t-101 -20h-968q-53 0 -100 20t-82 54.5t-55.5 80.5t-20.5 99v976q0 52 20.5 98.5t55.5 81t82 54.5t100 20h968zM1513 1208q0 28 -11.5 53t-31 44t-45.5 30t-55 11h-940q-29 0 -55 -11t-45.5 -29.5t-31 -44t-11.5 -53.5v-972
q0 -28 11.5 -53t31 -44t45.5 -30t55 -11h940q29 0 55 11t45.5 30t31 44t11.5 53v972z" />
    <glyph glyph-name="uni25BC.whitesquare" unicode="&#x25bc;&#x25a1;"
d="M901 402l-314 543h628zM1384 1464q54 0 101 -20t82 -54.5t55 -81t20 -98.5v-976q0 -53 -20 -99t-55 -80.5t-82 -54.5t-101 -20h-968q-53 0 -100 20t-82 54.5t-55.5 80.5t-20.5 99v976q0 52 20.5 98.5t55.5 81t82 54.5t100 20h968zM1513 1208q0 28 -11.5 53t-31 44
t-45.5 30t-55 11h-940q-29 0 -55 -11t-45.5 -29.5t-31 -44t-11.5 -53.5v-972q0 -28 11.5 -53t31 -44t45.5 -30t55 -11h940q29 0 55 11t45.5 30t31 44t11.5 53v972z" />
    <glyph glyph-name="uni25B2.whitesquare" unicode="&#x25b2;&#x25a1;"
d="M587 513l313 543l314 -543h-627zM1384 1464q54 0 101 -20t82 -54.5t55 -81t20 -98.5v-976q0 -53 -20 -99t-55 -80.5t-82 -54.5t-101 -20h-968q-53 0 -100 20t-82 54.5t-55.5 80.5t-20.5 99v976q0 52 20.5 98.5t55.5 81t82 54.5t100 20h968zM1513 1208q0 28 -11.5 53
t-31 44t-45.5 30t-55 11h-940q-29 0 -55 -11t-45.5 -29.5t-31 -44t-11.5 -53.5v-972q0 -28 11.5 -53t31 -44t45.5 -30t55 -11h940q29 0 55 11t45.5 30t31 44t11.5 53v972z" />
    <glyph glyph-name="uni25C0.whitesquare" unicode="&#x25c0;&#x25a1;"
d="M573 729l543 313v-627zM1384 1464q54 0 101 -20t82 -54.5t55 -81t20 -98.5v-976q0 -53 -20 -99t-55 -80.5t-82 -54.5t-101 -20h-968q-53 0 -100 20t-82 54.5t-55.5 80.5t-20.5 99v976q0 52 20.5 98.5t55.5 81t82 54.5t100 20h968zM1513 1208q0 28 -11.5 53t-31 44
t-45.5 30t-55 11h-940q-29 0 -55 -11t-45.5 -29.5t-31 -44t-11.5 -53.5v-972q0 -28 11.5 -53t31 -44t45.5 -30t55 -11h940q29 0 55 11t45.5 30t31 44t11.5 53v972z" />
    <glyph glyph-name="uni25B6.whitesquare" unicode="&#x25b6;&#x25a1;"
d="M684 1042l543 -313l-543 -314v627zM1384 1464q54 0 101 -20t82 -54.5t55 -81t20 -98.5v-976q0 -53 -20 -99t-55 -80.5t-82 -54.5t-101 -20h-968q-53 0 -100 20t-82 54.5t-55.5 80.5t-20.5 99v976q0 52 20.5 98.5t55.5 81t82 54.5t100 20h968zM1513 1208q0 28 -11.5 53
t-31 44t-45.5 30t-55 11h-940q-29 0 -55 -11t-45.5 -29.5t-31 -44t-11.5 -53.5v-972q0 -28 11.5 -53t31 -44t45.5 -30t55 -11h940q29 0 55 11t45.5 30t31 44t11.5 53v972z" />
    <glyph glyph-name="question.whitesquare" unicode="&#x3f;&#x25a1;"
d="M798 454q0 35 25 56t63 21q41 0 65.5 -21t24.5 -56q0 -32 -24.5 -53.5t-65.5 -21.5q-38 0 -63 21.5t-25 53.5zM668 892q-1 56 19.5 95t54 63t75.5 34.5t85 10.5q45 0 86.5 -11t73 -33.5t50.5 -56.5t19 -80q0 -33 -9 -57.5t-24 -43.5t-34 -34t-38 -28l-39.5 -29.5t-27 -25
t-15 -27.5t-4.5 -36v-27h-116v33q-3 57 24.5 94.5t71.5 67.5q19 13 34 24.5t25.5 23.5t16.5 26t6 33q0 24 -9 41t-23.5 28t-33.5 16t-40 5q-54 0 -81.5 -30.5t-27.5 -75.5h-119zM1384 1464q54 0 101 -20t82 -54.5t55 -81t20 -98.5v-976q0 -53 -20 -99t-55 -80.5t-82 -54.5
t-101 -20h-968q-53 0 -100 20t-82 54.5t-55.5 80.5t-20.5 99v976q0 52 20.5 98.5t55.5 81t82 54.5t100 20h968zM1513 1208q0 28 -11.5 53t-31 44t-45.5 30t-55 11h-940q-29 0 -55 -11t-45.5 -29.5t-31 -44t-11.5 -53.5v-972q0 -28 11.5 -53t31 -44t45.5 -30t55 -11h940
q29 0 55 11t45.5 30t31 44t11.5 53v972z" />
    <glyph glyph-name="exclam.whitesquare" unicode="&#x21;&#x25a1;"
d="M811 454q0 35 24.5 56.5t64.5 21.5t64.5 -21.5t24.5 -56.5q0 -32 -24.5 -53.5t-64.5 -21.5t-64.5 21.5t-24.5 53.5zM971 1081l-15 -454h-111l-15 454h141zM1384 1464q54 0 101 -20t82 -54.5t55 -81t20 -98.5v-976q0 -53 -20 -99t-55 -80.5t-82 -54.5t-101 -20h-968
q-53 0 -100 20t-82 54.5t-55.5 80.5t-20.5 99v976q0 52 20.5 98.5t55.5 81t82 54.5t100 20h968zM1513 1208q0 28 -11.5 53t-31 44t-45.5 30t-55 11h-940q-29 0 -55 -11t-45.5 -29.5t-31 -44t-11.5 -53.5v-972q0 -28 11.5 -53t31 -44t45.5 -30t55 -11h940q29 0 55 11t45.5 30
t31 44t11.5 53v972z" />
    <glyph glyph-name="uni2717.whitesquare" unicode="&#x2717;&#x25a1;"
d="M1163 1064l82 -81l-258 -259l258 -259l-82 -83l-259 258l-259 -258l-83 83l258 259l-259 260l82 82l261 -260zM1384 1464q54 0 101 -20t82 -54.5t55 -81t20 -98.5v-976q0 -53 -20 -99t-55 -80.5t-82 -54.5t-101 -20h-968q-53 0 -100 20t-82 54.5t-55.5 80.5t-20.5 99v976
q0 52 20.5 98.5t55.5 81t82 54.5t100 20h968zM1513 1208q0 28 -11.5 53t-31 44t-45.5 30t-55 11h-940q-29 0 -55 -11t-45.5 -29.5t-31 -44t-11.5 -53.5v-972q0 -28 11.5 -53t31 -44t45.5 -30t55 -11h940q29 0 55 11t45.5 30t31 44t11.5 53v972z" />
    <glyph glyph-name="uni2713.whitesquare" unicode="&#x2713;&#x25a1;"
d="M777 406l-288 285l88 87l199 -198l459 458l88 -88zM1384 1464q54 0 101 -20t82 -54.5t55 -81t20 -98.5v-976q0 -53 -20 -99t-55 -80.5t-82 -54.5t-101 -20h-968q-53 0 -100 20t-82 54.5t-55.5 80.5t-20.5 99v976q0 52 20.5 98.5t55.5 81t82 54.5t100 20h968zM1513 1208
q0 28 -11.5 53t-31 44t-45.5 30t-55 11h-940q-29 0 -55 -11t-45.5 -29.5t-31 -44t-11.5 -53.5v-972q0 -28 11.5 -53t31 -44t45.5 -30t55 -11h940q29 0 55 11t45.5 30t31 44t11.5 53v972z" />
    <glyph glyph-name=".notdef" horiz-adv-x="2048"
d="M100 -210h1848v-284h-1848v284zM100 222h1848v-284h-1848v284zM100 654h1848v-284h-1848v284zM100 1086h1848v-284h-1848v284zM100 1518h1848v-284h-1848v284zM100 1950h1848v-284h-1848v284z" />
    <glyph glyph-name=".null" horiz-adv-x="0"
 />
    <glyph glyph-name="nonmarkingreturn" unicode="&#xd;" horiz-adv-x="0"
 />
    <glyph glyph-name="space" unicode=" " horiz-adv-x="578"
 />
    <glyph glyph-name="exclam" unicode="!" horiz-adv-x="637"
d="M418 1444l-17 -964h-166l-17 964h200zM319 -18q-30 0 -55.5 10.5t-44 29t-29 44t-10.5 55.5q0 31 10.5 56.5t29 44t44 29t55.5 10.5t55.5 -10.5t44 -29t28.5 -44t10 -56.5q0 -30 -10 -55.5t-28.5 -44t-44 -29t-55.5 -10.5z" />
    <glyph glyph-name="quotedbl" unicode="&#x22;" horiz-adv-x="895"
d="M179 904v539h160v-539h-160zM556 904v539h160v-539h-160z" />
    <glyph glyph-name="numbersign" unicode="#" horiz-adv-x="1296"
d="M979 901l-70 -344h216l-29 -144h-216l-84 -413h-144l85 413h-307l-84 -413h-143l84 413h-216l31 144h216l69 344h-216l29 143h216l82 399h143l-81 -399h306l82 399h144l-83 -399h216l-30 -143h-216zM458 554h309l71 349h-310z" />
    <glyph glyph-name="dollar" unicode="$" horiz-adv-x="1328"
d="M598 -137v134q-102 7 -184.5 39.5t-141 84.5t-90.5 121.5t-32 152.5h171q8 -101 80.5 -164.5t196.5 -78.5v520l-80 22q-162 43 -247.5 138.5t-85.5 234.5q0 82 28.5 150t82 119t130 83t172.5 41v140h134v-139q93 -8 169.5 -39.5t131 -83t85.5 -120t34 -149.5h-170
q-2 47 -20.5 87.5t-51 71.5t-78 51t-100.5 27v-489l86 -21q185 -50 272.5 -144t87.5 -244q0 -89 -30 -161t-87 -124.5t-140 -84t-189 -40.5v-135h-134zM1005 394q0 100 -65.5 160.5t-207.5 90.5v-496q131 7 202 70.5t71 174.5zM357 1077q0 -89 61 -147.5t180 -83.5v460
q-53 -3 -97 -21.5t-76 -49t-50 -71t-18 -87.5z" />
    <glyph glyph-name="percent" unicode="%" horiz-adv-x="1610"
d="M695 1121q0 -77 -22.5 -140.5t-63.5 -110t-97.5 -72t-123.5 -25.5q-68 0 -124.5 25.5t-97 72t-63.5 110t-23 140.5q0 76 23 140t63.5 110t97 71.5t124.5 25.5q67 0 123.5 -25.5t97.5 -71.5t63.5 -110t22.5 -140zM388 901q33 0 60 16t46.5 44.5t30 69t10.5 90.5
q0 102 -39.5 160.5t-107.5 58.5t-108 -59.5t-40 -159.5q0 -50 10.5 -90.5t30 -69.5t47 -44.5t60.5 -15.5zM188 0l551 752l506 691h182l-560 -766l-495 -677h-184zM1530 323q0 -77 -22.5 -140.5t-63.5 -110t-97.5 -72t-123.5 -25.5q-68 0 -124.5 25.5t-97 72t-63.5 110
t-23 140.5q0 76 23 140t63.5 110t97 71.5t124.5 25.5q67 0 123.5 -25.5t97.5 -71.5t63.5 -110t22.5 -140zM1223 103q33 0 60 16t46.5 44.5t30 69t10.5 90.5q0 102 -39.5 160.5t-107.5 58.5t-108 -59.5t-40 -159.5q0 -50 10.5 -90.5t30 -69.5t47 -44.5t60.5 -15.5z" />
    <glyph glyph-name="ampersand" unicode="&#x26;" horiz-adv-x="1457"
d="M1070 144q-93 -81 -214 -126t-253 -45q-108 0 -197.5 30.5t-154 85t-100.5 130t-36 166.5q0 129 70 227.5t216 175.5l27 13.5l29 14.5q-50 52 -84.5 97t-56 85.5t-31 78.5t-9.5 77q0 69 28 128.5t77 102.5t116.5 67.5t146.5 24.5q80 0 147.5 -24t116.5 -67.5t76.5 -103
t27.5 -130.5q0 -56 -17.5 -104.5t-55 -93.5t-96.5 -88t-143 -87l361 -388q34 67 51 160t17 228v25h168v-26q0 -169 -29.5 -293t-89.5 -216l251 -269h-226zM505 682q-105 -54 -157.5 -127t-52.5 -158q0 -61 23.5 -111t66 -86t102.5 -55.5t132 -19.5q49 0 98 9.5t94 27
t84 42.5t69 56l-408 446q-8 -3 -24 -11t-27 -13zM603 881q66 34 111.5 65t74 62.5t41.5 65t13 72.5q0 42 -14.5 76.5t-40.5 59.5t-62.5 38.5t-80.5 13.5q-43 0 -79 -14t-62.5 -39t-41 -60t-14.5 -77q0 -30 8 -59t26.5 -60t48 -66.5t72.5 -77.5z" />
    <glyph glyph-name="quotesingle" unicode="'" horiz-adv-x="518"
d="M179 904v539h160v-539h-160z" />
    <glyph glyph-name="parenleft" unicode="(" horiz-adv-x="728"
d="M449 -277q-65 81 -115 179.5t-84.5 211t-52.5 235t-18 251.5q0 128 16 240.5t50 214.5t87 197t127 190h145q-54 -64 -99.5 -158t-78.5 -205.5t-51.5 -234.5t-18.5 -244q0 -117 14.5 -227t44.5 -217t76 -214t110 -219h-152z" />
    <glyph glyph-name="parenright" unicode=")" horiz-adv-x="728"
d="M126 -277q64 112 110 219t76 214t44.5 217t14.5 227q0 122 -18 245t-51 234.5t-78.5 205.5t-99.5 157h146q74 -95 127 -190t86.5 -197t49.5 -214.5t16 -240.5t-18 -250.5t-52.5 -234.5t-85 -211.5t-114.5 -180.5h-153v0z" />
    <glyph glyph-name="asterisk" unicode="*" horiz-adv-x="1032"
d="M568 973l16 -289h-136l16 290l-244 -159l-67 116l260 131l-260 132l67 118l244 -163l-16 294h136l-16 -294l244 163l67 -118l-259 -132l259 -131l-67 -116z" />
    <glyph glyph-name="plus" unicode="+" horiz-adv-x="1328"
d="M738 71h-148v435h-435v148h435v435h148v-435h435v-148h-435v-435z" />
    <glyph glyph-name="comma" unicode="," horiz-adv-x="608"
d="M135 -367l96 569h202l-148 -569h-150z" />
    <glyph glyph-name="hyphen" unicode="&#x2011;" horiz-adv-x="966"
d="M155 499v163h656v-163h-656z" />
    <glyph glyph-name="hyphen" unicode="-" horiz-adv-x="966"
d="M155 499v163h656v-163h-656z" />
    <glyph glyph-name="period" unicode="." horiz-adv-x="608"
d="M304 -10q-27 0 -50.5 10.5t-41 28t-28 41t-10.5 50.5t10.5 50.5t28 41.5t41 28t50.5 10t50.5 -10t41.5 -28t28 -41.5t10 -50.5t-10 -50.5t-28 -41t-41.5 -28t-50.5 -10.5z" />
    <glyph glyph-name="slash" unicode="/" horiz-adv-x="712"
d="M60 -325l440 1768h152l-442 -1768h-150z" />
    <glyph glyph-name="zero" unicode="0" horiz-adv-x="1290"
d="M646 -34q-122 0 -217 50.5t-160.5 147.5t-100 237.5t-34.5 320.5q0 178 34.5 318.5t100.5 237.5t161 148t216 51q120 0 215 -51t160.5 -148.5t100 -238.5t34.5 -320q0 -180 -34 -320t-99.5 -236t-160.5 -146.5t-216 -50.5zM646 123q80 0 141.5 39t103 115t63 188
t21.5 257q0 144 -21.5 255t-63.5 187t-103.5 115.5t-140.5 39.5t-140.5 -39.5t-104 -116t-64.5 -187.5t-22 -254q0 -145 22 -256.5t64 -187.5t103.5 -115.5t141.5 -39.5z" />
    <glyph glyph-name="one" unicode="1" horiz-adv-x="955"
d="M506 1243h-16l-367 -266v190l384 276h179v-1443h-180v1243z" />
    <glyph glyph-name="two" unicode="2" horiz-adv-x="1237"
d="M152 1037q0 96 34.5 176.5t96 139t146 91.5t185.5 33q97 0 180.5 -31t145 -85.5t96.5 -128.5t35 -160q0 -56 -14.5 -109t-49.5 -112.5t-93.5 -132t-147.5 -167.5l-347 -373v-16h676v-162h-934v124l499 545q70 76 114.5 131t70.5 99.5t36 83t10 82.5q0 54 -21.5 100.5
t-59.5 81t-89.5 54t-111.5 19.5q-63 0 -115.5 -20.5t-89.5 -57.5t-57.5 -89t-20.5 -116v-1h-174v1v0z" />
    <glyph glyph-name="three" unicode="3" horiz-adv-x="1284"
d="M456 819h175q61 0 112.5 19t89 53t58 81t20.5 103q0 55 -20 100t-56.5 77.5t-87.5 50t-113 17.5t-113 -17t-88.5 -48.5t-60 -77.5t-28.5 -104h-175q7 94 43 168.5t97 127t145 80.5t187 28q94 0 177 -29.5t144 -80.5t96.5 -120t35.5 -148q0 -130 -67 -218.5t-186 -117.5
v-16q73 -9 131.5 -38.5t99.5 -76t62.5 -108t21.5 -135.5q0 -89 -39.5 -166.5t-108 -134.5t-161 -89.5t-199.5 -32.5q-110 0 -201 29.5t-158 83t-105.5 129t-43.5 168.5h174q6 -58 32.5 -104.5t70 -79.5t101.5 -51t128 -18q71 0 131 20t103 56t67 86t24 109q0 63 -23 113
t-66 85t-104.5 54t-138.5 19h-183v154z" />
    <glyph glyph-name="four" unicode="4" horiz-adv-x="1318"
d="M820 299h-703v164l114 195l145.5 235l170 265l188.5 285h261v-983h205v-161h-205v-299h-176v299zM301 459h520v817h-12l-118 -175.5l-127 -198l-132 -213l-131 -218.5v-12z" />
    <glyph glyph-name="five" unicode="5" horiz-adv-x="1267"
d="M637 -34q-102 0 -188.5 30.5t-150.5 85.5t-102 132t-44 170h177q6 -59 31.5 -106.5t66 -82t94.5 -53t118 -18.5q72 0 131.5 23.5t102 67t65.5 104.5t23 135t-23.5 135.5t-65.5 105.5t-100.5 68t-129.5 24q-99 0 -176 -42t-122 -120h-169l79 818h805v-161h-664l-41 -463
h16q105 123 305 123q103 0 188.5 -35.5t147 -99.5t96 -153t34.5 -195q0 -110 -36.5 -200.5t-103 -155.5t-159.5 -101t-205 -36z" />
    <glyph glyph-name="six" unicode="6" horiz-adv-x="1305"
d="M671 -33q-164 0 -284.5 84t-188.5 244q-70 164 -70 402q0 186 37 331t108 245t174.5 152t235.5 52q92 0 171 -26.5t140.5 -75t103 -118.5t58.5 -157h-185q-15 51 -42 91t-64.5 68t-84 43t-99.5 15q-176 0 -273.5 -152t-104.5 -440h16q54 106 154 164t230 58
q103 0 190 -36t150 -100.5t98.5 -153t35.5 -193.5q0 -109 -37.5 -200t-104.5 -157t-160 -103t-204 -37zM669 125q69 0 129 25.5t103.5 70t68.5 105.5t25 132q0 74 -24 135t-66.5 105t-102 68.5t-131.5 24.5t-132 -24t-103.5 -67.5t-68 -103.5t-24.5 -132t25 -134
t68.5 -107.5t103.5 -71.5t129 -26z" />
    <glyph glyph-name="seven" unicode="7" horiz-adv-x="1167"
d="M869 1268v14h-772v161h955v-167l-642 -1276h-189z" />
    <glyph glyph-name="eight" unicode="8" horiz-adv-x="1308"
d="M654 -34q-115 0 -210.5 31t-164.5 86.5t-107 132.5t-38 170q0 70 21.5 132t60.5 110t94.5 80.5t123.5 45.5v16q-55 15 -99.5 45t-76 72t-48.5 94t-17 111q0 84 34 155t95 122t146 79.5t186 28.5t186 -28.5t146 -79.5t95 -122t34 -155q0 -59 -16.5 -111t-48 -94t-76 -72
t-100.5 -45v-16q68 -13 123.5 -45.5t94.5 -80.5t60.5 -110t21.5 -132q0 -93 -38 -170t-107 -132.5t-164.5 -86.5t-210.5 -31zM654 120q75 0 137 20.5t107 57t69.5 88t24.5 113.5t-24.5 113.5t-69.5 88t-107 57t-137 20.5t-137 -20.5t-107 -57t-69.5 -88t-24.5 -113.5
t24.5 -113.5t69.5 -88t107 -57t137 -20.5zM654 830q64 0 116 17.5t89.5 50t58 77.5t20.5 100q0 56 -20.5 101.5t-57.5 78t-89.5 50.5t-116.5 18t-116.5 -18t-89.5 -50.5t-57.5 -78t-20.5 -101.5q0 -55 20.5 -100t58 -77.5t89.5 -50t116 -17.5z" />
    <glyph glyph-name="nine" unicode="9" horiz-adv-x="1305"
d="M622 -33q-92 0 -171 26.5t-140.5 75t-103 118.5t-58.5 157h185q15 -51 42 -91t64.5 -68t84 -43t99.5 -15q176 0 273 152t105 440h-8h-4h-4q-54 -106 -154 -164t-230 -58q-103 0 -190 36t-150 100.5t-98.5 153t-35.5 193.5q0 109 37.5 200t104.5 157t160 103t204 37
q163 0 284 -83.5t189 -244.5q70 -164 70 -402q0 -186 -37 -331t-108 -245t-174.5 -152t-235.5 -52zM634 653q72 0 132 24t103.5 67.5t68 103.5t24.5 132t-25 134t-68.5 107.5t-103.5 71.5t-129 26t-129 -25.5t-103.5 -70t-68.5 -105.5t-25 -132q0 -74 24 -135t66.5 -105
t102 -68.5t131.5 -24.5z" />
    <glyph glyph-name="colon" unicode=":" horiz-adv-x="608"
d="M304 -10q-27 0 -50.5 10.5t-41 28t-28 41t-10.5 50.5t10.5 50.5t28 41.5t41 28t50.5 10t50.5 -10t41.5 -28t28 -41.5t10 -50.5t-10 -50.5t-28 -41t-41.5 -28t-50.5 -10.5zM304 759q-27 0 -50.5 10.5t-41 28t-28 41t-10.5 50.5t10.5 50.5t28 41.5t41 28t50.5 10t50.5 -10
t41.5 -28t28 -41.5t10 -50.5t-10 -50.5t-28 -41t-41.5 -28t-50.5 -10.5z" />
    <glyph glyph-name="semicolon" unicode=";" horiz-adv-x="608"
d="M304 759q-27 0 -50.5 10.5t-41 28t-28 41t-10.5 50.5t10.5 50.5t28 41.5t41 28t50.5 10t50.5 -10t41.5 -28t28 -41.5t10 -50.5t-10 -50.5t-28 -41t-41.5 -28t-50.5 -10.5zM110 -367l96 569h202l-148 -569h-150z" />
    <glyph glyph-name="less" unicode="&#x3c;" horiz-adv-x="1328"
d="M396 605v-16l708 -386v-186l-880 509v142l880 509v-186z" />
    <glyph glyph-name="equal" unicode="=" horiz-adv-x="1328"
d="M160 312v149h1008v-149h-1008zM160 700v149h1008v-149h-1008z" />
    <glyph glyph-name="greater" unicode="&#x3e;" horiz-adv-x="1328"
d="M224 1177l880 -509v-142l-880 -509v186l708 386v16l-708 386v186z" />
    <glyph glyph-name="question" unicode="?" horiz-adv-x="1050"
d="M80 1066q4 81 33 151.5t83.5 123t134.5 83t185 30.5q94 0 172.5 -27.5t134 -76t86.5 -115t31 -143.5q0 -118 -56 -202.5t-153 -142.5q-48 -28 -79 -53.5t-50 -53t-26.5 -59t-7.5 -70.5v-65h-175v92q0 49 11.5 91.5t36.5 79.5t63 69.5t89 63.5q43 27 74 52.5t50 54
t28 61.5t9 73q0 46 -17.5 85.5t-49.5 68.5t-77 45t-101 16q-57 0 -102.5 -16t-79 -46t-53 -73t-23.5 -97h-171zM494 -18q-30 0 -55.5 10.5t-44 29t-29 44t-10.5 55.5q0 31 10.5 56.5t29 44t44 29t55.5 10.5t55.5 -10.5t44 -29t28.5 -44t10 -56.5q0 -30 -10 -55.5t-28.5 -44
t-44 -29t-55.5 -10.5z" />
    <glyph glyph-name="at" unicode="@" horiz-adv-x="1880"
d="M934 875q-101 0 -157 -73.5t-56 -205.5q0 -131 56 -205.5t155 -74.5q51 0 93 19.5t71 56t45 88.5t16 116t-15.5 115.5t-45 88t-70.5 56t-92 19.5zM969 1435q177 0 324.5 -54t253.5 -151.5t165 -232.5t59 -298q0 -122 -26.5 -220.5t-75.5 -168t-118.5 -107t-155.5 -37.5
q-44 0 -82 12.5t-67.5 35t-48 53t-22.5 67.5h-16q-32 -77 -97 -118t-153 -41q-78 0 -142 30.5t-110 86.5t-71 134.5t-25 173.5q0 91 25.5 167t71.5 130.5t110 85t141 30.5q79 0 142 -37.5t92 -103.5h16v122h151v-587q0 -53 29.5 -82t83.5 -29q47 0 85.5 28.5t65.5 81.5
t41.5 128t14.5 167q0 135 -49 247t-138 192.5t-213 124.5t-274 44q-147 0 -270 -53t-212.5 -148t-139.5 -226t-50 -287q0 -160 50 -290t141.5 -221.5t221.5 -141t291 -49.5q51 0 101 3.5t94 9.5t80 15t60 20v-126q-68 -23 -155 -36t-182 -13q-194 0 -349.5 58.5
t-265.5 167.5t-169 263t-59 346q0 186 60 339.5t169 263.5t261 170.5t336 60.5z" />
    <glyph glyph-name="A" unicode="A" horiz-adv-x="1380"
d="M977 413h-574l-145 -413h-189l532 1443h178l532 -1443h-189zM456 566h468l-226 644h-16z" />
    <glyph glyph-name="B" unicode="B" horiz-adv-x="1346"
d="M184 0v1443h552q99 0 178.5 -25t134.5 -72t84.5 -113.5t29.5 -149.5q0 -56 -19.5 -108t-53 -94t-79 -71t-97.5 -38v-16q74 -9 133.5 -38.5t101.5 -75t64.5 -105.5t22.5 -132q0 -95 -33 -170.5t-96 -127.5t-154 -79.5t-206 -27.5h-563zM364 821h288q329 0 329 231
q0 111 -74 171.5t-209 60.5h-334v-463zM720 159q164 0 247.5 64.5t83.5 190.5t-87 189t-261 63h-339v-507h356z" />
    <glyph glyph-name="C" unicode="C" horiz-adv-x="1466"
d="M765 -34q-147 0 -265 52.5t-200.5 150.5t-127 238t-44.5 314q0 175 44 315t126.5 238t200.5 150.5t265 52.5q114 0 213.5 -34t176.5 -96t127.5 -148.5t66.5 -190.5h-183q-18 70 -55 126t-89 95.5t-117 60.5t-140 21q-104 0 -187.5 -41.5t-142 -118t-90 -185.5t-31.5 -245
t31.5 -245t90 -185.5t142.5 -117.5t188 -41q75 0 140.5 18.5t117.5 53.5t88.5 85t53.5 113h183q-18 -99 -68 -179.5t-126 -137.5t-175 -88t-214 -31z" />
    <glyph glyph-name="D" unicode="D" horiz-adv-x="1487"
d="M679 1443q160 0 286.5 -49t214.5 -141.5t134 -226.5t46 -304q0 -171 -46 -305t-133.5 -226.5t-214 -141.5t-287.5 -49h-495v1443h495zM364 162h303q121 0 215.5 37.5t159.5 109.5t99.5 175.5t34.5 235.5t-34.5 236.5t-100 176.5t-160 110t-214.5 38h-303v-1119z" />
    <glyph glyph-name="E" unicode="E" horiz-adv-x="1220"
d="M1078 0h-894v1443h894v-162h-714v-463h677v-160h-677v-496h714v-162z" />
    <glyph glyph-name="F" unicode="F" horiz-adv-x="1172"
d="M184 0v1443h876v-162h-696v-496h639v-160h-639v-625h-180z" />
    <glyph glyph-name="G" unicode="G" horiz-adv-x="1529"
d="M1395 558q0 -134 -44 -243t-124 -186.5t-193.5 -120t-251.5 -42.5q-150 0 -270.5 53t-206 151.5t-131.5 238.5t-46 313q0 171 46.5 310.5t132 238t206.5 152.5t269 54q120 0 222 -32.5t180.5 -92.5t130 -146t71.5 -193h-183q-47 147 -153.5 222.5t-267.5 75.5
q-107 0 -194 -41.5t-148 -118.5t-94 -185.5t-33 -243.5q0 -137 32.5 -246t93.5 -185.5t148 -117.5t196 -41q97 0 176.5 29.5t136.5 83.5t88.5 129t31.5 167v35h-406v158h585v-176v0z" />
    <glyph glyph-name="H" unicode="H" horiz-adv-x="1520"
d="M1156 0v657h-792v-657h-180v1443h180v-624h792v624h180v-1443h-180z" />
    <glyph glyph-name="I" unicode="I" horiz-adv-x="548"
d="M184 0v1443h180v-1443h-180z" />
    <glyph glyph-name="J" unicode="J" horiz-adv-x="1102"
d="M265 337q1 -45 18.5 -83t48 -65t72.5 -42t93 -15q116 0 178.5 68.5t62.5 202.5v1040h180v-1041q0 -103 -29 -184t-83 -137t-132 -85.5t-176 -29.5q-91 0 -166.5 27t-130 75.5t-85 117t-30.5 151.5h179z" />
    <glyph glyph-name="K" unicode="K" horiz-adv-x="1349"
d="M184 0v1443h180v-701h16l632 701h226l-577 -623l630 -820h-233l-521 695l-173 -191v-504h-180z" />
    <glyph glyph-name="L" unicode="L" horiz-adv-x="1163"
d="M1060 0h-876v1443h180v-1281h696v-162z" />
    <glyph glyph-name="M" unicode="M" horiz-adv-x="1790"
d="M1438 0v1102h-12l-455 -1092h-152l-455 1092h-12v-1102h-168v1443h209l494 -1194h16l494 1194h209v-1443h-168z" />
    <glyph glyph-name="N" unicode="N" horiz-adv-x="1520"
d="M184 0v1443h175l783 -1123h16v1123h178v-1443h-175l-783 1119h-16v-1119h-178z" />
    <glyph glyph-name="O" unicode="O" horiz-adv-x="1579"
d="M791 1477q154 0 276 -53t207.5 -151t131 -237.5t45.5 -313.5q0 -173 -45 -312.5t-130.5 -238t-208 -152t-276.5 -53.5q-155 0 -278 53t-208.5 151.5t-131 238.5t-45.5 313q0 174 46 313.5t132.5 238t209 151t275.5 52.5zM791 1311q-110 0 -198.5 -41.5t-150.5 -118
t-95.5 -185.5t-33.5 -244q0 -134 32.5 -243t94 -186t150 -119t201.5 -42q111 0 199 42t149.5 119t94 186t32.5 243q0 135 -32.5 244t-94 185.5t-149.5 118t-199 41.5z" />
    <glyph glyph-name="P" unicode="P" horiz-adv-x="1301"
d="M729 1443q102 0 187 -34.5t146 -96t95 -147.5t34 -189q0 -101 -34.5 -186t-96 -146t-146.5 -95t-187 -34h-363v-515h-180v1443h545zM364 675h318q155 0 239.5 78.5t84.5 222.5q0 149 -83 228t-241 79h-318v-608z" />
    <glyph glyph-name="Q" unicode="Q" horiz-adv-x="1579"
d="M791 -34q-154 0 -277 52t-208.5 150t-131.5 237.5t-46 315.5q0 175 46 315t132.5 238t209 150.5t275.5 52.5q152 0 274.5 -52.5t208 -151t131.5 -238.5t46 -314q0 -108 -17 -203t-49.5 -175.5t-80.5 -144t-109 -107.5l183 -254h-202l-127 173q-117 -44 -258 -44zM792 132
q81 0 154 22l-191 259h204l131 -174q85 68 130.5 192t45.5 290q0 136 -33 245t-95 185.5t-150 118t-197 41.5q-110 0 -198.5 -41t-150.5 -117.5t-95.5 -186t-33.5 -245.5q0 -137 33 -246t95.5 -185t151 -117t199.5 -41z" />
    <glyph glyph-name="R" unicode="R" horiz-adv-x="1338"
d="M364 731h355q140 0 215 71t75 205q0 65 -20.5 116t-59 86.5t-93.5 54.5t-125 19h-347v-552zM364 0h-180v1443h551q104 0 189 -30.5t145 -87t93 -136t33 -176.5q0 -75 -20 -141.5t-57.5 -119.5t-91 -92.5t-121.5 -60.5l334 -599h-211l-309 571h-355v-571z" />
    <glyph glyph-name="S" unicode="S" horiz-adv-x="1305"
d="M297 377q8 -57 38.5 -102.5t78.5 -77.5t112.5 -49.5t141.5 -17.5q73 0 134.5 18.5t106.5 51.5t70.5 78.5t25.5 99.5q0 93 -69.5 153t-219.5 98l-185 48q-98 25 -168.5 60t-116.5 82.5t-67.5 108.5t-21.5 138q0 92 37 167.5t104 129.5t161 84t208 30q105 0 194 -29.5
t156 -82.5t106.5 -126.5t45.5 -160.5h-181q-19 112 -105 174t-222 62q-72 0 -131 -17.5t-100.5 -49t-64.5 -76t-23 -99.5q0 -42 15.5 -76t49 -61.5t86 -50t127.5 -41.5l151 -40q112 -28 191.5 -64.5t130 -85.5t74 -111.5t23.5 -141.5q0 -99 -38 -179.5t-108 -137t-169.5 -87
t-223.5 -30.5q-115 0 -210.5 29t-165.5 83t-111.5 130t-48.5 169h182z" />
    <glyph glyph-name="T" unicode="T" horiz-adv-x="1298"
d="M559 0v1281h-465v162h1110v-162h-465v-1281h-180z" />
    <glyph glyph-name="U" unicode="U" horiz-adv-x="1524"
d="M369 508q0 -82 26 -151t76.5 -119t123.5 -78t167 -28t167 28t123 78t76.5 119t26.5 151v935h180v-947q0 -116 -39 -213t-113 -167.5t-180.5 -110t-240.5 -39.5t-240.5 39.5t-180.5 110t-113 167.5t-39 213v947h180v-935z" />
    <glyph glyph-name="V" unicode="V" horiz-adv-x="1380"
d="M601 0l-532 1443h189l424 -1210h16l424 1210h189l-532 -1443h-178z" />
    <glyph glyph-name="W" unicode="W" horiz-adv-x="1982"
d="M653 0h-170l-393 1443h188l287 -1173h12l323 1173h182l323 -1173h12l287 1173h188l-393 -1443h-170l-332 1139h-12z" />
    <glyph glyph-name="X" unicode="X" horiz-adv-x="1390"
d="M584 726v0l-488 717h217l380 -574h16l386 574h205l-500 -725v0l489 -718h-216l-378 569h-16l-385 -569h-204z" />
    <glyph glyph-name="Y" unicode="Y" horiz-adv-x="1344"
d="M582 0v621l-512 822h205l389 -641h16l389 641h205l-512 -822v-621h-180z" />
    <glyph glyph-name="Z" unicode="Z" horiz-adv-x="1355"
d="M144 128l817 1137v16h-789v162h1022v-128l-813 -1137v-16h830v-162h-1067v128z" />
    <glyph glyph-name="bracketleft" unicode="[" horiz-adv-x="757"
d="M631 1444v-136h-284v-1413h296v-135h-464v1684h452z" />
    <glyph glyph-name="backslash" unicode="\" horiz-adv-x="712"
d="M60 1443h152l440 -1768h-150z" />
    <glyph glyph-name="bracketright" unicode="]" horiz-adv-x="757"
d="M578 -240h-464v135h297v1413h-284v136h451v-1684z" />
    <glyph glyph-name="asciicircum" unicode="^" horiz-adv-x="984"
d="M264 780h-163l296 639h190l296 -639h-163l-220 500h-16z" />
    <glyph glyph-name="underscore" unicode="_" horiz-adv-x="916"
d="M-10 -235v128h936v-128h-936z" />
    <glyph glyph-name="grave" unicode="`" horiz-adv-x="1093"
d="M588 1263l-278 338h220l252 -338h-194z" />
    <glyph glyph-name="a" unicode="a" horiz-adv-x="1130"
d="M494 132q66 0 122.5 20.5t98 56.5t64.5 85.5t23 107.5v99l-290 -19q-124 -8 -180 -51.5t-56 -124.5q0 -41 16.5 -73.5t45.5 -55t69 -34t87 -11.5zM462 -19q-78 0 -145 22.5t-115.5 64t-76 101t-27.5 133.5q0 146 102 227t291 92l311 19v98q0 100 -61.5 153t-182.5 53
q-97 0 -161 -35t-82 -99h-174q9 65 43.5 118t90 90.5t129.5 58t160 20.5q99 0 175 -24.5t128.5 -71t79.5 -113t27 -150.5v-738h-164v159h-16q-53 -87 -138 -132.5t-194 -45.5z" />
    <glyph glyph-name="b" unicode="b" horiz-adv-x="1258"
d="M698 -19q-113 0 -204 50t-142 141h-16v-172h-164v1506h172v-598h16q22 43 57 78t79 60t95 38t107 13q103 0 186.5 -39.5t142.5 -112.5t91 -176t32 -230q0 -126 -32 -229t-91.5 -176t-143 -113t-185.5 -40zM658 942q-74 0 -132.5 -28t-100 -80t-63.5 -127t-22 -168
t22 -168t63.5 -127t100 -80t132.5 -28t132 27.5t98.5 79.5t62 126.5t21.5 169.5q0 94 -21.5 169t-62 127t-98.5 79.5t-132 27.5z" />
    <glyph glyph-name="c" unicode="c" horiz-adv-x="1146"
d="M880 748q-11 40 -33.5 75.5t-57.5 61.5t-82 41.5t-105 15.5q-73 0 -131.5 -28t-99.5 -80t-63 -126t-22 -165q0 -93 22.5 -168.5t63.5 -128.5t99.5 -81.5t130.5 -28.5q109 0 181.5 48.5t96.5 140.5h174q-12 -74 -47.5 -137t-92.5 -109t-135.5 -72t-175.5 -26
q-113 0 -204.5 39.5t-156 113t-99.5 177t-35 232.5q0 126 34.5 228.5t99 174.5t156 111.5t204.5 39.5q98 0 177 -27.5t136 -75t92.5 -111t46.5 -135.5h-174z" />
    <glyph glyph-name="d" unicode="d" horiz-adv-x="1258"
d="M561 -19q-104 0 -187.5 39.5t-142.5 112.5t-91 176t-32 230t32 230t91.5 176t143 112.5t186.5 39.5q113 0 202.5 -50t135.5 -139h15v598h172v-1506h-164v172h-16q-51 -91 -142 -141t-203 -50zM601 942q-74 0 -132 -27.5t-99 -79.5t-62.5 -127t-21.5 -169
q0 -95 21.5 -169.5t62 -126.5t99 -79.5t132.5 -27.5q73 0 132 28t100 80t63 127t22 168t-22 167.5t-63.5 127t-100 80.5t-131.5 28z" />
    <glyph glyph-name="e" unicode="e" horiz-adv-x="1170"
d="M592 945q-65 0 -118.5 -22.5t-93.5 -64t-64 -100t-29 -130.5h594q-2 72 -23 130.5t-59 100t-90.5 64t-116.5 22.5zM1048 279q-20 -69 -60 -124.5t-98 -94t-133 -59t-163 -20.5q-112 0 -202 39t-153 111.5t-97 175.5t-34 231q0 127 34.5 230.5t97.5 176.5t153 112.5
t201 39.5q109 0 196 -37.5t147.5 -108t92.5 -170.5t32 -226v-66h-775v-8q3 -80 26.5 -144.5t64 -109.5t96 -69.5t124.5 -24.5q105 0 174.5 37t103.5 109h172z" />
    <glyph glyph-name="f" unicode="f" horiz-adv-x="741"
d="M234 934h-179v144h179v105q0 83 21 142t62.5 97t101.5 56t138 18q26 0 50 -2.5t56 -7.5v-144q-17 4 -43.5 6.5t-52.5 2.5q-78 0 -119.5 -41t-41.5 -132v-100h247v-144h-247v-934h-172v934z" />
    <glyph glyph-name="g" unicode="g" horiz-adv-x="1248"
d="M598 168q75 0 134.5 27.5t100.5 78t63 122t22 159.5t-22 159.5t-63.5 122t-100.5 78t-134 27.5t-133 -27.5t-98 -78t-60.5 -122t-20.5 -159.5t20.5 -159.5t60.5 -122t98 -78t133 -27.5zM606 -414q-98 0 -177 21t-137 59.5t-93 93t-45 121.5h182q14 -66 83.5 -105.5
t186.5 -39.5q72 0 129.5 17.5t97 50t60.5 79.5t21 107v212h-16q-51 -90 -138.5 -138t-199.5 -48q-105 0 -188.5 39t-142 109.5t-90 170t-31.5 220.5t31.5 221t90.5 171t142.5 110.5t187.5 39.5q57 0 109 -13.5t97 -38t81 -60t59 -78.5h16v171h164v-1097q0 -90 -33.5 -163
t-96 -124.5t-151.5 -79.5t-199 -28z" />
    <glyph glyph-name="h" unicode="h" horiz-adv-x="1216"
d="M172 1506h172v-598h16q41 90 124 139.5t208 49.5q85 0 154 -27t117.5 -78t74.5 -125t26 -169v-698h-172v656q0 144 -63 215t-186 71q-72 0 -128 -22t-94 -62t-57.5 -96t-19.5 -124v-638h-172v1506z" />
    <glyph glyph-name="i" unicode="i" horiz-adv-x="504"
d="M166 1078h172v-1078h-172v1078zM252 1297q-25 0 -46.5 9.5t-38 26t-26 38t-9.5 46.5t9.5 46.5t26 38t38 26t46.5 9.5t46.5 -9.5t38 -26t26 -38t9.5 -46.5t-9.5 -46.5t-26 -38t-38 -26t-46.5 -9.5z" />
    <glyph glyph-name="j" unicode="j" horiz-adv-x="504"
d="M338 -53q0 -83 -20 -143t-60.5 -98.5t-102.5 -57t-147 -18.5h-30v147h26q46 0 77 9.5t50 29.5t27 51.5t8 76.5v1134h172v-1131zM252 1297q-25 0 -46.5 9.5t-38 26t-26 38t-9.5 46.5t9.5 46.5t26 38t38 26t46.5 9.5t46.5 -9.5t38 -26t26 -38t9.5 -46.5t-9.5 -46.5t-26 -38
t-38 -26t-46.5 -9.5z" />
    <glyph glyph-name="k" unicode="k" horiz-adv-x="1112"
d="M828 1078h211l-464 -462l495 -616h-219l-404 505l-103 -96v-409h-172v1506h172v-899h16z" />
    <glyph glyph-name="l" unicode="l" horiz-adv-x="516"
d="M172 1506h172v-1506h-172v1506z" />
    <glyph glyph-name="m" unicode="m" horiz-adv-x="1782"
d="M162 1078h164v-170h16q37 91 114.5 140t186.5 49q55 0 101 -14t83.5 -38.5t66 -59.5t47.5 -77h16q22 43 55 77.5t75.5 59.5t93 38.5t106.5 13.5q166 0 254.5 -90.5t88.5 -261.5v-745h-172v705q0 237 -227 237q-56 0 -102 -19.5t-79 -53.5t-51 -79.5t-18 -96.5v-693h-172
v732q0 48 -16 87t-45.5 66t-71 42t-92.5 15q-53 0 -98.5 -21.5t-79.5 -58.5t-53 -87t-19 -107v-668h-172v1078z" />
    <glyph glyph-name="n" unicode="n" horiz-adv-x="1195"
d="M162 1078h164v-170h16q41 90 120 139.5t204 49.5q183 0 280 -103t97 -296v-698h-172v656q0 146 -62 216t-192 70q-65 0 -117 -21t-89 -60t-57 -95.5t-20 -127.5v-638h-172v1078z" />
    <glyph glyph-name="o" unicode="o" horiz-adv-x="1210"
d="M605 -19q-115 0 -207 38.5t-156.5 110.5t-99 175.5t-34.5 233.5t34.5 233.5t99 175.5t156.5 110.5t207 38.5t207 -38.5t156.5 -110.5t99 -175.5t34.5 -233.5t-34.5 -233.5t-99 -175.5t-156.5 -110.5t-207 -38.5zM605 136q76 0 135.5 27t100.5 79t62 126.5t21 170.5
t-21 171t-62 126.5t-100.5 78.5t-135.5 27q-77 0 -136 -27t-100 -78.5t-62 -126.5t-21 -171t21 -170.5t62 -126.5t100 -79t136 -27z" />
    <glyph glyph-name="p" unicode="p" horiz-adv-x="1248"
d="M687 1097q103 0 186.5 -39.5t143 -112.5t91.5 -176t32 -230q0 -126 -32.5 -229t-91.5 -176t-142.5 -113t-186.5 -40q-116 0 -204 47.5t-133 133.5h-16v-522h-172v1438h164v-180h16q52 94 143 146.5t202 52.5zM646 136q74 0 133 27.5t99.5 79.5t62 126.5t21.5 169.5
q0 94 -21.5 169t-62 127t-99 79.5t-132.5 27.5q-73 0 -132 -28t-100 -80.5t-63.5 -127t-22.5 -167.5t22 -167.5t63.5 -127t100 -80.5t131.5 -28z" />
    <glyph glyph-name="q" unicode="q" horiz-adv-x="1248"
d="M559 1097q55 0 107 -14t97 -40t81 -63t60 -82h16v180h166v-1438h-174v522h-16q-52 -89 -137 -135t-200 -46q-103 0 -186.5 39.5t-142 112t-90.5 175.5t-32 231q0 127 32 230t91 176t142.5 112.5t185.5 39.5zM598 136q74 0 133 28t100.5 80.5t63.5 127t22 167.5
t-22.5 167.5t-63.5 127t-100 80.5t-132 28q-74 0 -132 -27.5t-98 -79.5t-61.5 -127t-21.5 -169q0 -95 21 -170t61.5 -126.5t98 -79t131.5 -27.5z" />
    <glyph glyph-name="r" unicode="r" horiz-adv-x="780"
d="M162 1078h164v-160h16q12 39 40 72t68 57t88.5 37t102.5 13q21 0 45 -1.5t41 -3.5v-172q-5 1 -18 3t-29.5 3.5t-33 2.5t-29.5 1q-62 0 -113.5 -19.5t-89.5 -54.5t-59 -83t-21 -105v-668h-172v1078z" />
    <glyph glyph-name="s" unicode="s" horiz-adv-x="1072"
d="M137 783q0 67 30.5 124.5t84.5 99.5t127.5 66t159.5 24q85 0 155.5 -20.5t123.5 -58t85.5 -91t41.5 -119.5h-170q-17 65 -78 104t-159 39q-48 0 -89.5 -11.5t-72.5 -33t-48.5 -51t-17.5 -65.5q0 -56 45.5 -92t141.5 -59l166 -40q153 -37 227 -106t74 -186q0 -72 -33 -132
t-91 -103t-137 -67t-171 -24q-90 0 -165 21t-130 59t-88.5 92.5t-40.5 121.5h177q22 -69 85.5 -109t167.5 -40q54 0 100 12.5t79 34.5t51.5 53t18.5 68q0 110 -171 152l-185 45q-76 18 -131.5 44t-91.5 61.5t-53.5 81.5t-17.5 105z" />
    <glyph glyph-name="t" unicode="t" horiz-adv-x="744"
d="M406 1357v-279h240v-144h-240v-610q0 -96 37.5 -138.5t122.5 -42.5q23 0 39.5 1t40.5 3v-145q-26 -5 -50.5 -7.5t-50.5 -2.5q-83 0 -142 16t-96.5 50.5t-55 89.5t-17.5 132v654h-174v144h174v279h172z" />
    <glyph glyph-name="u" unicode="u" horiz-adv-x="1196"
d="M1034 0h-164v169h-16q-41 -91 -125 -139.5t-209 -48.5q-182 0 -275 104t-93 295v698h172v-656q0 -146 57.5 -215t186.5 -69q71 0 126 20.5t92.5 59.5t56.5 95t19 127v638h172v-1078z" />
    <glyph glyph-name="v" unicode="v" horiz-adv-x="1110"
d="M643 0h-176l-399 1078h184l295 -888h16l295 888h184z" />
    <glyph glyph-name="w" unicode="w" horiz-adv-x="1586"
d="M1216 0h-175l-241 834h-16l-240 -834h-174l-302 1078h174l212 -862h16l241 862h165l241 -862h16l212 862h173z" />
    <glyph glyph-name="x" unicode="x" horiz-adv-x="1076"
d="M528 407l-256 -407h-195l369 539l-373 539h205l256 -401h16l253 401h195l-366 -532l371 -546h-204l-255 407h-16z" />
    <glyph glyph-name="y" unicode="y" horiz-adv-x="1112"
d="M254 -390q-17 0 -38 1.5t-39 4.5v147q16 -3 35 -4t37 -1q37 0 66.5 9.5t53 30.5t42.5 54.5t36 82.5l20 64l-399 1079h186l296 -887h16l295 887h183l-421 -1144q-35 -94 -70 -156t-77.5 -99.5t-96 -53t-125.5 -15.5z" />
    <glyph glyph-name="z" unicode="z" horiz-adv-x="1104"
d="M137 126l622 792v16h-621v144h826v-129l-619 -789v-16h622v-144h-830v126z" />
    <glyph glyph-name="braceleft" unicode="{" horiz-adv-x="824"
d="M287 606q179 -17 179 -241v-334q0 -60 13 -102.5t41.5 -69.5t73 -39.5t106.5 -12.5h45v-141h-60q-195 0 -289 86.5t-94 266.5v289q0 59 -9 99.5t-30 65t-55 35.5t-84 11v191q50 0 84 11t55 36t30 65.5t9 100.5v255q0 176 93.5 260t289.5 84h60v-141h-45q-63 0 -107 -12.5
t-72.5 -39.5t-41.5 -70t-13 -103v-296q0 -220 -179 -238v-16v0z" />
    <glyph glyph-name="bar" unicode="|" horiz-adv-x="676"
d="M264 -326v1769h148v-1769h-148z" />
    <glyph glyph-name="braceright" unicode="}" horiz-adv-x="824"
d="M537 622q-179 18 -179 238v296q0 60 -13 103t-41.5 70t-72.5 39.5t-107 12.5h-45v141h60q196 0 289.5 -84t93.5 -260v-255q0 -60 9 -100.5t30 -65.5t55 -36t84 -11v-191q-50 0 -84 -11t-55 -35.5t-30 -65t-9 -99.5v-289q0 -180 -94 -266.5t-289 -86.5h-60v141h45
q124 0 179 52.5t55 171.5v334q0 224 179 241v16z" />
    <glyph glyph-name="asciitilde" unicode="~" horiz-adv-x="1202"
d="M557 636q-27 28 -49 47.5t-41 31.5t-36 17t-34 5q-130 0 -141 -179h-160q0 80 19.5 143.5t58.5 108t96 68.5t131 24q64 0 122.5 -30t123.5 -95q52 -55 88 -77.5t70 -22.5q131 0 142 179h159q0 -80 -19.5 -143.5t-57.5 -108t-94 -68.5t-128 -24q-34 0 -65 7t-61 22
t-60.5 38.5t-63.5 56.5z" />
    <glyph glyph-name="nonbreakingspace" unicode="&#xa0;" horiz-adv-x="578"
 />
    <glyph glyph-name="exclamdown" unicode="&#xa1;" horiz-adv-x="637"
d="M235 622h166l17 -964h-200zM319 841q-30 0 -55.5 10.5t-44 29t-29 44t-10.5 56.5q0 30 10.5 55.5t29 44t44 29t55.5 10.5t55.5 -10.5t44 -29t28.5 -44t10 -55.5q0 -31 -10 -56.5t-28.5 -44t-44 -29t-55.5 -10.5z" />
    <glyph glyph-name="cent" unicode="&#xa2;" horiz-adv-x="1328"
d="M1167 508q-11 -71 -44.5 -129t-85.5 -101.5t-120.5 -71.5t-148.5 -37v-169h-172v171q-96 15 -175.5 60t-137.5 116t-90 166.5t-32 211.5q0 114 32 208t90 164.5t137.5 115.5t175.5 59v171h172v-169q78 -11 146 -39.5t120.5 -73t87 -103t45.5 -128.5h-174
q-31 92 -111.5 143t-196.5 51q-73 0 -136 -28t-109.5 -80t-73.5 -126t-27 -165q0 -93 27 -168t73.5 -128t110 -81.5t135.5 -28.5q128 0 206 49t102 140h174v0z" />
    <glyph glyph-name="sterling" unicode="&#xa3;" horiz-adv-x="1328"
d="M1190 154v-154h-1062v152q66 15 122.5 49t98 80.5t64.5 103t23 116.5q0 38 -6.5 76t-17.5 76h-284v144h234q-23 66 -42 131t-19 132q0 98 35.5 175.5t102 131t162.5 82t217 28.5q92 0 171 -15t129 -38v-160q-19 11 -50 20.5t-70 17t-83 12t-88 4.5q-80 0 -143.5 -17.5
t-107.5 -50t-67.5 -79.5t-23.5 -107q0 -69 18.5 -135t41.5 -132h471v-144h-424q9 -36 15 -72t6 -73q0 -62 -17 -114.5t-45.5 -95.5t-66.5 -75.5t-80 -54.5v-14h786z" />
    <glyph glyph-name="currency" unicode="&#xa4;" horiz-adv-x="1328"
d="M401 656q0 -54 21 -102t57 -84t84 -57t102 -21t102 21t84 57t57 84t21 102t-21 102t-57 84t-84 57t-102 21t-102 -21t-84 -57t-57 -84t-21 -102zM989 874q32 -47 49.5 -102t17.5 -116t-18 -116.5t-50 -102.5l169 -169l-106 -106l-169 169q-47 -32 -102 -49t-115 -17
q-61 0 -116 17.5t-103 49.5l-169 -170l-106 106l170 170q-32 48 -49.5 103t-17.5 115t17.5 115t49.5 102l-170 170l106 106l169 -169q48 32 103 49.5t116 17.5t116 -17.5t102 -49.5l168 169l106 -106z" />
    <glyph glyph-name="yen" unicode="&#xa5;" horiz-adv-x="1328"
d="M754 269v-269h-180v269h-277v136h277v166h-277v136h223l-458 736h205l389 -641h16l389 641h205l-458 -736h223v-136h-277v-166h277v-136h-277z" />
    <glyph glyph-name="brokenbar" unicode="&#xa6;" horiz-adv-x="676"
d="M264 774v669h148v-669h-148zM264 -326v669h148v-669h-148z" />
    <glyph glyph-name="section" unicode="&#xa7;" horiz-adv-x="1032"
d="M534 382q46 0 86 14.5t69 40.5t46 60.5t17 75.5q0 63 -43.5 106t-126.5 61l-83 18q-45 0 -85 -15t-70 -41t-47 -61t-17 -74q0 -62 44.5 -105.5t126.5 -61.5zM521 -257q-86 0 -159 22t-127 61.5t-86 94.5t-37 121h176q5 -35 25 -63t52 -48t74 -31t91 -11q51 0 93 11.5
t72.5 32.5t47 50t16.5 64q0 57 -47 94.5t-151 65.5l-141 38q-164 44 -240.5 113.5t-76.5 174.5q0 96 58.5 164.5t164.5 97.5v16q-219 85 -219 273q0 70 29 127.5t82 98.5t126.5 64t163.5 23q83 0 152.5 -20t121 -57.5t83.5 -91t41 -120.5h-173q-11 66 -72.5 104.5
t-156.5 38.5q-50 0 -91.5 -11.5t-71 -32t-45.5 -49.5t-16 -64q0 -57 46 -95t149 -66l141 -38q162 -44 237.5 -111.5t75.5 -168.5q0 -51 -18.5 -97.5t-52 -84t-80.5 -64t-103 -37.5v-16q254 -57 254 -257q0 -69 -30 -127t-84 -100t-129 -65.5t-165 -23.5z" />
    <glyph glyph-name="dieresis" unicode="&#xa8;" horiz-adv-x="1092"
d="M344 1263q-25 0 -47 9.5t-38.5 26t-26 38.5t-9.5 47t9.5 47t26 38.5t38.5 26t47 9.5t47 -9.5t38.5 -26t26 -38.5t9.5 -47t-9.5 -47t-26 -38.5t-38.5 -26t-47 -9.5zM748 1263q-25 0 -47 9.5t-38.5 26t-26 38.5t-9.5 47t9.5 47t26 38.5t38.5 26t47 9.5t47 -9.5t38.5 -26
t26 -38.5t9.5 -47t-9.5 -47t-26 -38.5t-38.5 -26t-47 -9.5z" />
    <glyph glyph-name="copyright" unicode="&#xa9;" horiz-adv-x="1742"
d="M871 -168q-112 0 -214.5 27.5t-190.5 78.5t-159.5 122.5t-122.5 160t-78.5 191t-27.5 214.5t27.5 215t78.5 191t122.5 159.5t159.5 122.5t190.5 78.5t214.5 27.5t214.5 -27.5t191 -78t160 -122t122 -160t78 -191t27.5 -215.5q0 -112 -27.5 -215t-78.5 -191t-122.5 -159.5
t-159.5 -122.5t-190.5 -78.5t-214.5 -27.5zM871 -28q139 0 258 50t206.5 138t137.5 207.5t50 258.5t-49.5 259t-137 207.5t-207 137.5t-258.5 50t-258 -50t-206.5 -138t-137.5 -207.5t-50 -258.5t50 -258.5t137.5 -207.5t207 -138t257.5 -50zM1110 768q-9 36 -29 64.5
t-49 49t-65.5 31.5t-78.5 11q-58 0 -105 -20.5t-80 -59t-50.5 -93.5t-17.5 -123q0 -69 17.5 -124.5t50.5 -94.5t80 -60t105 -21q88 0 146 39.5t76 111.5h139q-9 -63 -39 -114t-77 -86.5t-109 -55t-135 -19.5q-91 0 -164 30t-124.5 85t-79.5 133.5t-28 175.5q0 96 28 173.5
t79.5 132.5t124.5 84.5t163 29.5q72 0 133.5 -20t109 -57t78 -88.5t40.5 -114.5h-139z" />
    <glyph glyph-name="ordfeminine" unicode="&#xaa;" horiz-adv-x="942"
d="M438 652q51 0 95 16.5t76.5 46t50.5 69t18 85.5v96l-227 -17q-94 -6 -142.5 -43.5t-48.5 -104.5q0 -68 48.5 -108t129.5 -40zM390 515q-67 0 -122 20t-94.5 57t-61 88t-21.5 114q0 124 87 194.5t252 80.5l245 15v80q0 75 -52 116t-147 41q-75 0 -124.5 -29.5t-60.5 -80.5
h-165q6 57 34 103.5t74.5 79.5t109.5 51t138 18q84 0 149.5 -21t111.5 -60t70 -95.5t24 -128.5v-618h-155v119h-16q-41 -69 -112.5 -106.5t-163.5 -37.5z" />
    <glyph glyph-name="guillemotleft" unicode="&#xab;" horiz-adv-x="1391"
d="M382 557l351 -412h-204l-350 416v8l350 416h204l-351 -412v-16zM861 557l351 -412h-205l-350 416v8l351 416h204l-351 -412v-16z" />
    <glyph glyph-name="logicalnot" unicode="&#xac;" horiz-adv-x="1328"
d="M1138 126h-148v380h-800v148h948v-528z" />
    <glyph glyph-name="registered" unicode="&#xae;" horiz-adv-x="1260"
d="M630 449q-109 0 -204.5 40.5t-166 111t-111 166t-40.5 204.5t40.5 204.5t111 166t166 111t204.5 40.5t204.5 -40.5t166 -111t111 -166t40.5 -204.5t-40.5 -204.5t-111 -166t-166 -111t-204.5 -40.5zM630 553q88 0 164 32.5t132.5 89t89 133t32.5 163.5q0 88 -32.5 164
t-89 132.5t-132.5 89t-164 32.5q-87 0 -163.5 -32.5t-133 -89t-89 -132.5t-32.5 -164q0 -87 32.5 -163.5t89 -133t133 -89t163.5 -32.5zM429 733v499h249q37 0 69 -11.5t55.5 -32t36.5 -48.5t13 -61q0 -60 -29.5 -98t-86.5 -52l138 -196h-120l-129 183h-98v-183h-98z
M527 1000h124q92 0 92 74q0 69 -89 69h-127v-143z" />
    <glyph glyph-name="macron" unicode="&#xaf;" horiz-adv-x="1048"
d="M861 1286h-674v136h674v-136z" />
    <glyph glyph-name="degree" unicode="&#xb0;" horiz-adv-x="901"
d="M450 813q-71 0 -130 25.5t-102.5 69.5t-67.5 103t-24 127q0 67 24 126.5t67.5 103.5t102.5 69.5t130 25.5q70 0 130 -25.5t103 -69.5t67.5 -103.5t24.5 -126.5q0 -68 -24.5 -127t-67.5 -103t-103 -69.5t-130 -25.5zM450 941q45 0 82 15.5t63 42.5t40 63t14 76
q0 41 -14 77t-40.5 62.5t-63 42t-81.5 15.5t-81.5 -15.5t-62 -42t-39.5 -62.5t-14 -77q0 -40 14 -76t39.5 -63t62 -42.5t81.5 -15.5z" />
    <glyph glyph-name="plusminus" unicode="&#xb1;" horiz-adv-x="1328"
d="M155 112v148h1018v-148h-1018zM738 371h-148v291h-435v136h435v291h148v-291h435v-136h-435v-291z" />
    <glyph glyph-name="two.sups" unicode="&#xb2;" horiz-adv-x="825"
d="M95 1539q0 63 23 115.5t64.5 90.5t99.5 59t127 21q67 0 124 -19.5t97.5 -54t63.5 -82t23 -104.5q0 -35 -9 -67.5t-32 -70.5t-62.5 -84t-99.5 -106l-185 -186v-16h401v-135h-627v110l301 310q45 46 75 79.5t47 60t24 49.5t7 47q0 30 -11.5 55.5t-31.5 44t-48.5 29
t-61.5 10.5q-35 0 -64 -11.5t-49.5 -32t-32 -49t-11.5 -63.5v-2h-152v2v0z" />
    <glyph glyph-name="three.sups" unicode="&#xb3;" horiz-adv-x="853"
d="M311 1422h109q34 0 63 10t49 28t31.5 43.5t11.5 56.5q0 61 -41.5 97t-113.5 36q-69 0 -112.5 -37t-48.5 -102h-151q3 62 26 111.5t64.5 84.5t98.5 54t128 19q66 0 122 -18.5t97.5 -50.5t64.5 -76t23 -96q0 -39 -12 -73t-33.5 -61t-52.5 -45.5t-68 -26.5v-16
q46 -4 83.5 -21t63.5 -45t40.5 -66t14.5 -83q0 -58 -25.5 -107.5t-71.5 -85.5t-108.5 -56.5t-136.5 -20.5q-73 0 -133.5 19.5t-105 55t-69.5 85.5t-28 112h156q5 -63 54 -100.5t127 -37.5q39 0 71 10.5t55 30t36 46t13 58.5q0 69 -47.5 107.5t-131.5 38.5h-112v122z" />
    <glyph glyph-name="acute" unicode="&#xb4;" horiz-adv-x="1093"
d="M286 1263l252 338h220l-278 -338h-194z" />
    <glyph glyph-name="mugreek" unicode="&#x3bc;" horiz-adv-x="1258"
d="M162 1078h172v-654q0 -146 61 -216t183 -70q65 0 117.5 21t89.5 60t57 95t20 126v638h172v-809q0 -37 5.5 -61.5t17.5 -39.5t31 -21t46 -6q12 0 23.5 1t25.5 3v-145q-20 -5 -37.5 -7.5t-44.5 -2.5q-56 0 -95.5 9t-66.5 28.5t-43 51.5t-24 79l-2 12h-16
q-42 -94 -108.5 -141.5t-175.5 -47.5q-78 0 -134 32t-86 97h-16v-470h-172v1438z" />
    <glyph glyph-name="mugreek" unicode="&#xb5;" horiz-adv-x="1258"
d="M162 1078h172v-654q0 -146 61 -216t183 -70q65 0 117.5 21t89.5 60t57 95t20 126v638h172v-809q0 -37 5.5 -61.5t17.5 -39.5t31 -21t46 -6q12 0 23.5 1t25.5 3v-145q-20 -5 -37.5 -7.5t-44.5 -2.5q-56 0 -95.5 9t-66.5 28.5t-43 51.5t-24 79l-2 12h-16
q-42 -94 -108.5 -141.5t-175.5 -47.5q-78 0 -134 32t-86 97h-16v-470h-172v1438z" />
    <glyph glyph-name="paragraph" unicode="&#xb6;" horiz-adv-x="1321"
d="M654 -220v795h-20q-101 0 -187.5 32t-150 89t-100 135t-36.5 171q0 96 36.5 177t100.5 139.5t151 91.5t187 33h199v-1663h-180zM981 1443h180v-1663h-180v1663z" />
    <glyph glyph-name="periodcentered" unicode="&#xb7;" horiz-adv-x="630"
d="M315 605q-27 0 -51 10.5t-42.5 29t-29 42.5t-10.5 51t10.5 51.5t29 42.5t42.5 28.5t51 10.5t51.5 -10.5t42.5 -28.5t28.5 -42.5t10.5 -51.5t-10.5 -51t-28.5 -42.5t-42.5 -29t-51.5 -10.5z" />
    <glyph glyph-name="cedilla" unicode="&#xb8;" horiz-adv-x="1093"
d="M394 -150l70 172h123v-22l-51 -132q103 0 159 -42.5t56 -120.5q0 -42 -16.5 -76.5t-48 -59.5t-77 -39t-102.5 -14q-45 0 -80 4.5t-66 13.5v108q9 -3 24 -5.5t32.5 -4.5t34.5 -3t31 -1q58 0 88.5 19t30.5 54t-34.5 50t-114.5 15h-59v84z" />
    <glyph glyph-name="one.sups" unicode="&#xb9;" horiz-adv-x="664"
d="M321 1642h-16q-5 -3 -23 -16l-42 -30l-51 -36.5l-50 -36l-38 -27.5t-16 -12v152l45.5 33l59.5 43l66 46.5l65 44.5h156v-903h-156v742z" />
    <glyph glyph-name="ordmasculine" unicode="&#xba;" horiz-adv-x="1024"
d="M512 515q-99 0 -177.5 32.5t-133 94t-84 149.5t-29.5 198t29.5 197.5t84.5 149t133.5 94.5t176.5 33q99 0 177.5 -32.5t133 -94t84 -149.5t29.5 -198t-29.5 -198t-84 -149.5t-133 -94t-177.5 -32.5zM512 659q120 0 185.5 86t65.5 244q0 159 -65 244.5t-186 85.5
q-120 0 -185 -86t-65 -244t65 -244t185 -86z" />
    <glyph glyph-name="guillemotright" unicode="&#xbb;" horiz-adv-x="1391"
d="M179 985h204l351 -416v-8l-350 -416h-205l351 412v16zM658 985h204l350 -416v-8l-350 -416h-204l351 412v16z" />
    <glyph glyph-name="onequarter" unicode="&#xbc;" horiz-adv-x="1944"
d="M321 1282h-16q-5 -3 -23 -16l-42 -30l-51 -36.5l-50 -36l-38 -27.5t-16 -12v152l45.5 33l59.5 43l66 46.5l65 44.5h156v-903h-156v742zM504 0l335 758l302 685h167l-318 -721l-319 -722h-167zM1587 170h-452v141l51.5 90t71.5 114.5l104.5 160l150.5 227.5h230v-600h121
v-133h-121v-170h-156v170zM1285 299h304v477h-6l-95.5 -142.5l-79.5 -122.5l-66.5 -107t-56.5 -97v-8z" />
    <glyph glyph-name="onehalf" unicode="&#xbd;" horiz-adv-x="1949"
d="M321 1282h-16q-5 -3 -23 -16l-42 -30l-51 -36.5l-50 -36l-38 -27.5t-16 -12v152l45.5 33l59.5 43l66 46.5l65 44.5h156v-903h-156v742zM504 0l335 758l302 685h167l-318 -721l-319 -722h-167zM1219 639q0 63 23 115.5t64.5 90.5t99.5 59t127 21q67 0 124 -19.5t97.5 -54
t63.5 -82t23 -104.5q0 -35 -9 -67.5t-32 -70.5t-62.5 -84t-99.5 -106l-185 -186v-16h401v-135h-627v110l301 310q45 46 75 79.5t47 60t24 49.5t7 47q0 30 -11.5 55.5t-31.5 44t-48.5 29t-61.5 10.5q-35 0 -64 -11.5t-49.5 -32t-32 -49t-11.5 -63.5v-2h-152v2z" />
    <glyph glyph-name="threequarters" unicode="&#xbe;" horiz-adv-x="2134"
d="M311 1062h109q34 0 63 10t49 28t31.5 43.5t11.5 56.5q0 61 -41.5 97t-113.5 36q-69 0 -112.5 -37t-48.5 -102h-151q3 62 26 111.5t64.5 84.5t98.5 54t128 19q66 0 122 -18.5t97.5 -50.5t64.5 -76t23 -96q0 -39 -12 -73t-33.5 -61t-52.5 -45.5t-68 -26.5v-16
q46 -4 83.5 -21t63.5 -45t40.5 -66t14.5 -83q0 -58 -25.5 -107.5t-71.5 -85.5t-108.5 -56.5t-136.5 -20.5q-73 0 -133.5 19.5t-105 55t-69.5 85.5t-28 112h156q5 -63 54 -100.5t127 -37.5q39 0 71 10.5t55 30t36 46t13 58.5q0 69 -47.5 107.5t-131.5 38.5h-112v122zM694 0
l335 758l302 685h167l-318 -721l-319 -722h-167zM1777 170h-452v141l51.5 90t71.5 114.5l104.5 160l150.5 227.5h230v-600h121v-133h-121v-170h-156v170zM1475 299h304v477h-6l-95.5 -142.5l-79.5 -122.5l-66.5 -107t-56.5 -97v-8z" />
    <glyph glyph-name="questiondown" unicode="&#xbf;" horiz-adv-x="1050"
d="M970 35q-4 -81 -33 -152t-83.5 -123.5t-134 -83t-184.5 -30.5q-95 0 -173 27.5t-134 76.5t-87 115.5t-31 144.5q0 58 15 108t42 92.5t65.5 78t86.5 64.5q48 28 79 54t49.5 53t26 58.5t7.5 70.5v65h175v-92q1 -50 -10.5 -92t-36.5 -78.5t-62.5 -69.5t-89.5 -64
q-43 -27 -73.5 -52.5t-50 -54t-28.5 -61t-9 -71.5q0 -47 17.5 -87t49.5 -69t77.5 -45t101.5 -16t102 16t79 46.5t52.5 73.5t23.5 97h171zM557 840q-30 0 -55.5 10.5t-44 29t-29 44t-10.5 55.5t10.5 55.5t29 44.5t44 29.5t55.5 10.5t55.5 -10.5t44 -29.5t28.5 -44.5t10 -55.5
t-10 -55.5t-28.5 -44t-44 -29t-55.5 -10.5z" />
    <glyph glyph-name="Agrave" unicode="&#xc0;" horiz-adv-x="1380"
d="M977 413h-574l-145 -413h-189l532 1443h178l532 -1443h-189zM456 566h468l-226 644h-16zM252 1873h226l310 -298h-204z" />
    <glyph glyph-name="Aacute" unicode="&#xc1;" horiz-adv-x="1380"
d="M977 413h-574l-145 -413h-189l532 1443h178l532 -1443h-189zM456 566h468l-226 644h-16zM584 1575l310 298h226l-332 -298h-204z" />
    <glyph glyph-name="Acircumflex" unicode="&#xc2;" horiz-adv-x="1380"
d="M977 413h-574l-145 -413h-189l532 1443h178l532 -1443h-189zM456 566h468l-226 644h-16zM772 1873l300 -298h-202l-172 177h-16l-172 -177h-202l300 298h164z" />
    <glyph glyph-name="Atilde" unicode="&#xc3;" horiz-adv-x="1380"
d="M977 413h-574l-145 -413h-189l532 1443h178l532 -1443h-189zM456 566h468l-226 644h-16zM835 1580q-40 0 -71 11.5t-56 29t-45 38l-38.5 38t-36 29t-37.5 11.5q-53 0 -75.5 -36t-22.5 -121h-142q0 68 16 122t46 91.5t73 57.5t97 20q40 0 71 -11.5t56 -29t45 -38l38.5 -38
t36 -29t37.5 -11.5q53 0 75.5 36t22.5 121h142q0 -68 -16 -122t-46 -91.5t-73 -57.5t-97 -20z" />
    <glyph glyph-name="Adieresis" unicode="&#xc4;" horiz-adv-x="1380"
d="M977 413h-574l-145 -413h-189l532 1443h178l532 -1443h-189zM456 566h468l-226 644h-16zM488 1575q-25 0 -47 9.5t-38.5 26t-26 38.5t-9.5 47t9.5 47t26 38.5t38.5 26t47 9.5t47 -9.5t38.5 -26t26 -38.5t9.5 -47t-9.5 -47t-26 -38.5t-38.5 -26t-47 -9.5zM892 1575
q-25 0 -47 9.5t-38.5 26t-26 38.5t-9.5 47t9.5 47t26 38.5t38.5 26t47 9.5t47 -9.5t38.5 -26t26 -38.5t9.5 -47t-9.5 -47t-26 -38.5t-38.5 -26t-47 -9.5z" />
    <glyph glyph-name="Aring" unicode="&#xc5;" horiz-adv-x="1380"
d="M977 413h-574l-145 -413h-189l532 1443h178l532 -1443h-189zM456 566h468l-226 644h-16zM690 1551q-41 0 -77.5 15t-63.5 41.5t-42.5 62.5t-15.5 78t15.5 78t42.5 62.5t63.5 41.5t77.5 15t77.5 -15t63.5 -41.5t42.5 -62.5t15.5 -78t-15.5 -78t-42.5 -62.5t-63.5 -41.5
t-77.5 -15zM690 1643q46 0 75.5 30t29.5 75q0 46 -29.5 75.5t-75.5 29.5t-75.5 -29.5t-29.5 -75.5q0 -45 29.5 -75t75.5 -30z" />
    <glyph glyph-name="AE" unicode="&#xc6;" horiz-adv-x="1966"
d="M529 612h457v680h-147zM986 459h-527l-209 -459h-181l651 1443h1104v-162h-658v-473h621v-160h-621v-486h658v-162h-838v459z" />
    <glyph glyph-name="Ccedilla" unicode="&#xc7;" horiz-adv-x="1466"
d="M1165 1008q-18 70 -55 126t-89 95.5t-117 60.5t-140 21q-104 0 -187.5 -41.5t-142 -118t-90 -185.5t-31.5 -245t31.5 -245t90 -185.5t142.5 -117.5t188 -41q75 0 140.5 18.5t117.5 53.5t88.5 85t53.5 113h183q-17 -93 -62 -169t-112.5 -132.5t-155.5 -90.5t-191 -42
l-39 -100q103 0 159 -42.5t56 -120.5q0 -42 -16.5 -76.5t-48 -59.5t-77 -39t-102.5 -14q-45 0 -80 4.5t-66 13.5v108q9 -3 24 -5.5t32.5 -4.5t34.5 -3t31 -1q58 0 88.5 19t30.5 54t-34.5 50t-114.5 15h-59v84l49 119q-132 12 -237 70t-178.5 155t-112.5 230t-39 297
q0 175 44 315t126.5 238t200.5 150.5t265 52.5q114 0 213.5 -34t176.5 -96t127.5 -148.5t66.5 -190.5h-183z" />
    <glyph glyph-name="Egrave" unicode="&#xc8;" horiz-adv-x="1220"
d="M1078 0h-894v1443h894v-162h-714v-463h677v-160h-677v-496h714v-162zM193 1873h226l310 -298h-204z" />
    <glyph glyph-name="Eacute" unicode="&#xc9;" horiz-adv-x="1220"
d="M1078 0h-894v1443h894v-162h-714v-463h677v-160h-677v-496h714v-162zM525 1575l310 298h226l-332 -298h-204z" />
    <glyph glyph-name="Ecircumflex" unicode="&#xca;" horiz-adv-x="1220"
d="M1078 0h-894v1443h894v-162h-714v-463h677v-160h-677v-496h714v-162zM713 1873l300 -298h-202l-172 177h-16l-172 -177h-202l300 298h164z" />
    <glyph glyph-name="Edieresis" unicode="&#xcb;" horiz-adv-x="1220"
d="M1078 0h-894v1443h894v-162h-714v-463h677v-160h-677v-496h714v-162zM429 1575q-25 0 -47 9.5t-38.5 26t-26 38.5t-9.5 47t9.5 47t26 38.5t38.5 26t47 9.5t47 -9.5t38.5 -26t26 -38.5t9.5 -47t-9.5 -47t-26 -38.5t-38.5 -26t-47 -9.5zM833 1575q-25 0 -47 9.5t-38.5 26
t-26 38.5t-9.5 47t9.5 47t26 38.5t38.5 26t47 9.5t47 -9.5t38.5 -26t26 -38.5t9.5 -47t-9.5 -47t-26 -38.5t-38.5 -26t-47 -9.5z" />
    <glyph glyph-name="Igrave" unicode="&#xcc;" horiz-adv-x="548"
d="M184 0v1443h180v-1443h-180zM-164 1873h226l310 -298h-204z" />
    <glyph glyph-name="Iacute" unicode="&#xcd;" horiz-adv-x="548"
d="M184 0v1443h180v-1443h-180zM168 1575l310 298h226l-332 -298h-204z" />
    <glyph glyph-name="Icircumflex" unicode="&#xce;" horiz-adv-x="548"
d="M184 0v1443h180v-1443h-180zM356 1873l300 -298h-202l-172 177h-16l-172 -177h-202l300 298h164z" />
    <glyph glyph-name="Idieresis" unicode="&#xcf;" horiz-adv-x="548"
d="M184 0v1443h180v-1443h-180zM72 1575q-25 0 -47 9.5t-38.5 26t-26 38.5t-9.5 47t9.5 47t26 38.5t38.5 26t47 9.5t47 -9.5t38.5 -26t26 -38.5t9.5 -47t-9.5 -47t-26 -38.5t-38.5 -26t-47 -9.5zM476 1575q-25 0 -47 9.5t-38.5 26t-26 38.5t-9.5 47t9.5 47t26 38.5t38.5 26
t47 9.5t47 -9.5t38.5 -26t26 -38.5t9.5 -47t-9.5 -47t-26 -38.5t-38.5 -26t-47 -9.5z" />
    <glyph glyph-name="Eth" unicode="&#xd0;" horiz-adv-x="1487"
d="M667 162q121 0 215.5 37.5t159.5 109.5t99.5 175.5t34.5 235.5t-34.5 236.5t-100 176.5t-160 110t-214.5 38h-303v-455h248v-163h-248v-501h303zM679 1443q160 0 286.5 -49t214.5 -141.5t134 -226.5t46 -304q0 -171 -46 -305t-133.5 -226.5t-214 -141.5t-287.5 -49h-495
v663h-158v163h158v617h495z" />
    <glyph glyph-name="Ntilde" unicode="&#xd1;" horiz-adv-x="1520"
d="M184 0v1443h175l783 -1123h16v1123h178v-1443h-175l-783 1119h-16v-1119h-178zM905 1580q-40 0 -71 11.5t-56 29t-45 38l-38.5 38t-36 29t-37.5 11.5q-53 0 -75.5 -36t-22.5 -121h-142q0 68 16 122t46 91.5t73 57.5t97 20q40 0 71 -11.5t56 -29t45 -38l38.5 -38t36 -29
t37.5 -11.5q53 0 75.5 36t22.5 121h142q0 -68 -16 -122t-46 -91.5t-73 -57.5t-97 -20z" />
    <glyph glyph-name="Ograve" unicode="&#xd2;" horiz-adv-x="1579"
d="M791 1477q154 0 276 -53t207.5 -151t131 -237.5t45.5 -313.5q0 -173 -45 -312.5t-130.5 -238t-208 -152t-276.5 -53.5q-155 0 -278 53t-208.5 151.5t-131 238.5t-45.5 313q0 174 46 313.5t132.5 238t209 151t275.5 52.5zM791 1311q-110 0 -198.5 -41.5t-150.5 -118
t-95.5 -185.5t-33.5 -244q0 -134 32.5 -243t94 -186t150 -119t201.5 -42q111 0 199 42t149.5 119t94 186t32.5 243q0 135 -32.5 244t-94 185.5t-149.5 118t-199 41.5zM353 1873h226l310 -298h-204z" />
    <glyph glyph-name="Oacute" unicode="&#xd3;" horiz-adv-x="1579"
d="M791 1477q154 0 276 -53t207.5 -151t131 -237.5t45.5 -313.5q0 -173 -45 -312.5t-130.5 -238t-208 -152t-276.5 -53.5q-155 0 -278 53t-208.5 151.5t-131 238.5t-45.5 313q0 174 46 313.5t132.5 238t209 151t275.5 52.5zM791 1311q-110 0 -198.5 -41.5t-150.5 -118
t-95.5 -185.5t-33.5 -244q0 -134 32.5 -243t94 -186t150 -119t201.5 -42q111 0 199 42t149.5 119t94 186t32.5 243q0 135 -32.5 244t-94 185.5t-149.5 118t-199 41.5zM685 1575l310 298h226l-332 -298h-204z" />
    <glyph glyph-name="Ocircumflex" unicode="&#xd4;" horiz-adv-x="1579"
d="M791 1477q154 0 276 -53t207.5 -151t131 -237.5t45.5 -313.5q0 -173 -45 -312.5t-130.5 -238t-208 -152t-276.5 -53.5q-155 0 -278 53t-208.5 151.5t-131 238.5t-45.5 313q0 174 46 313.5t132.5 238t209 151t275.5 52.5zM791 1311q-110 0 -198.5 -41.5t-150.5 -118
t-95.5 -185.5t-33.5 -244q0 -134 32.5 -243t94 -186t150 -119t201.5 -42q111 0 199 42t149.5 119t94 186t32.5 243q0 135 -32.5 244t-94 185.5t-149.5 118t-199 41.5zM873 1873l300 -298h-202l-172 177h-16l-172 -177h-202l300 298h164z" />
    <glyph glyph-name="Otilde" unicode="&#xd5;" horiz-adv-x="1579"
d="M791 1477q154 0 276 -53t207.5 -151t131 -237.5t45.5 -313.5q0 -173 -45 -312.5t-130.5 -238t-208 -152t-276.5 -53.5q-155 0 -278 53t-208.5 151.5t-131 238.5t-45.5 313q0 174 46 313.5t132.5 238t209 151t275.5 52.5zM791 1311q-110 0 -198.5 -41.5t-150.5 -118
t-95.5 -185.5t-33.5 -244q0 -134 32.5 -243t94 -186t150 -119t201.5 -42q111 0 199 42t149.5 119t94 186t32.5 243q0 135 -32.5 244t-94 185.5t-149.5 118t-199 41.5zM936 1580q-40 0 -71 11.5t-56 29t-45 38l-38.5 38t-36 29t-37.5 11.5q-53 0 -75.5 -36t-22.5 -121h-142
q0 68 16 122t46 91.5t73 57.5t97 20q40 0 71 -11.5t56 -29t45 -38l38.5 -38t36 -29t37.5 -11.5q53 0 75.5 36t22.5 121h142q0 -68 -16 -122t-46 -91.5t-73 -57.5t-97 -20z" />
    <glyph glyph-name="Odieresis" unicode="&#xd6;" horiz-adv-x="1579"
d="M791 1477q154 0 276 -53t207.5 -151t131 -237.5t45.5 -313.5q0 -173 -45 -312.5t-130.5 -238t-208 -152t-276.5 -53.5q-155 0 -278 53t-208.5 151.5t-131 238.5t-45.5 313q0 174 46 313.5t132.5 238t209 151t275.5 52.5zM791 1311q-110 0 -198.5 -41.5t-150.5 -118
t-95.5 -185.5t-33.5 -244q0 -134 32.5 -243t94 -186t150 -119t201.5 -42q111 0 199 42t149.5 119t94 186t32.5 243q0 135 -32.5 244t-94 185.5t-149.5 118t-199 41.5zM589 1575q-25 0 -47 9.5t-38.5 26t-26 38.5t-9.5 47t9.5 47t26 38.5t38.5 26t47 9.5t47 -9.5t38.5 -26
t26 -38.5t9.5 -47t-9.5 -47t-26 -38.5t-38.5 -26t-47 -9.5zM993 1575q-25 0 -47 9.5t-38.5 26t-26 38.5t-9.5 47t9.5 47t26 38.5t38.5 26t47 9.5t47 -9.5t38.5 -26t26 -38.5t9.5 -47t-9.5 -47t-26 -38.5t-38.5 -26t-47 -9.5z" />
    <glyph glyph-name="multiply" unicode="&#xd7;" horiz-adv-x="1328"
d="M356 168l-104 104l307 308l-307 308l104 104l308 -307l308 307l104 -104l-307 -308l307 -308l-104 -104l-308 307z" />
    <glyph glyph-name="Oslash" unicode="&#xd8;" horiz-adv-x="1551"
d="M483 246q59 -55 136.5 -84.5t171.5 -29.5q111 0 199 42t149.5 119t94 186t32.5 243q0 125 -27.5 227t-80.5 178zM1075 1217q-57 46 -128 70t-156 24q-110 0 -198.5 -41.5t-150.5 -118t-95.5 -185.5t-33.5 -244q0 -227 90 -376zM1272 1276q88 -99 133.5 -238.5
t45.5 -315.5q0 -173 -45 -312.5t-130.5 -238t-208 -152t-276.5 -53.5q-127 0 -231.5 35.5t-186.5 101.5l-115 -150l-100 76l127 165q-77 98 -117 230.5t-40 297.5q0 174 46 313.5t132.5 238t209 151t275.5 52.5q117 0 215.5 -30.5t176.5 -88.5l101 130l98 -69z" />
    <glyph glyph-name="Ugrave" unicode="&#xd9;" horiz-adv-x="1524"
d="M369 508q0 -82 26 -151t76.5 -119t123.5 -78t167 -28t167 28t123 78t76.5 119t26.5 151v935h180v-947q0 -116 -39 -213t-113 -167.5t-180.5 -110t-240.5 -39.5t-240.5 39.5t-180.5 110t-113 167.5t-39 213v947h180v-935zM324 1873h226l310 -298h-204z" />
    <glyph glyph-name="Uacute" unicode="&#xda;" horiz-adv-x="1524"
d="M369 508q0 -82 26 -151t76.5 -119t123.5 -78t167 -28t167 28t123 78t76.5 119t26.5 151v935h180v-947q0 -116 -39 -213t-113 -167.5t-180.5 -110t-240.5 -39.5t-240.5 39.5t-180.5 110t-113 167.5t-39 213v947h180v-935zM656 1575l310 298h226l-332 -298h-204z" />
    <glyph glyph-name="Ucircumflex" unicode="&#xdb;" horiz-adv-x="1524"
d="M369 508q0 -82 26 -151t76.5 -119t123.5 -78t167 -28t167 28t123 78t76.5 119t26.5 151v935h180v-947q0 -116 -39 -213t-113 -167.5t-180.5 -110t-240.5 -39.5t-240.5 39.5t-180.5 110t-113 167.5t-39 213v947h180v-935zM844 1873l300 -298h-202l-172 177h-16l-172 -177
h-202l300 298h164z" />
    <glyph glyph-name="Udieresis" unicode="&#xdc;" horiz-adv-x="1524"
d="M369 508q0 -82 26 -151t76.5 -119t123.5 -78t167 -28t167 28t123 78t76.5 119t26.5 151v935h180v-947q0 -116 -39 -213t-113 -167.5t-180.5 -110t-240.5 -39.5t-240.5 39.5t-180.5 110t-113 167.5t-39 213v947h180v-935zM560 1575q-25 0 -47 9.5t-38.5 26t-26 38.5
t-9.5 47t9.5 47t26 38.5t38.5 26t47 9.5t47 -9.5t38.5 -26t26 -38.5t9.5 -47t-9.5 -47t-26 -38.5t-38.5 -26t-47 -9.5zM964 1575q-25 0 -47 9.5t-38.5 26t-26 38.5t-9.5 47t9.5 47t26 38.5t38.5 26t47 9.5t47 -9.5t38.5 -26t26 -38.5t9.5 -47t-9.5 -47t-26 -38.5t-38.5 -26
t-47 -9.5z" />
    <glyph glyph-name="Yacute" unicode="&#xdd;" horiz-adv-x="1344"
d="M582 0v621l-512 822h205l389 -641h16l389 641h205l-512 -822v-621h-180zM566 1575l310 298h226l-332 -298h-204z" />
    <glyph glyph-name="Thorn" unicode="&#xde;" horiz-adv-x="1280"
d="M364 1443v-266h373q82 0 158.5 -27.5t135 -81t93.5 -130.5t35 -176t-35.5 -176.5t-94 -131t-135.5 -81.5t-159 -28h-371v-345h-180v1443h180zM364 505h322q62 0 115 16t91.5 48t60 80t21.5 113q0 64 -21.5 112t-60 80t-91.5 47.5t-115 15.5h-322v-512z" />
    <glyph glyph-name="germandbls" unicode="&#xdf;" horiz-adv-x="1274"
d="M225 0v1101q0 92 30.5 165t86 124t132.5 78.5t170 27.5q91 0 167.5 -27.5t131.5 -77.5t85.5 -119t30.5 -151q0 -62 -17.5 -116t-48.5 -97.5t-73 -74.5t-90 -46v-18q76 -8 138 -34.5t106 -72t68 -109.5t24 -146q0 -89 -32.5 -166t-92 -133.5t-143.5 -89t-187 -32.5
q-83 0 -144 13v153q26 -6 61.5 -10t70.5 -4q71 0 126.5 20t93 56t57 86t19.5 109q0 62 -22.5 111.5t-66 84.5t-107 54t-144.5 19h-61v170h51q55 0 100.5 17t77.5 50.5t49.5 82.5t17.5 114q0 48 -16.5 90.5t-48 74t-76.5 49.5t-102 18q-118 0 -184.5 -68t-66.5 -192v-1084
h-171z" />
    <glyph glyph-name="agrave" unicode="&#xe0;" horiz-adv-x="1130"
d="M494 132q66 0 122.5 20.5t98 56.5t64.5 85.5t23 107.5v99l-290 -19q-124 -8 -180 -51.5t-56 -124.5q0 -41 16.5 -73.5t45.5 -55t69 -34t87 -11.5zM462 -19q-78 0 -145 22.5t-115.5 64t-76 101t-27.5 133.5q0 146 102 227t291 92l311 19v98q0 100 -61.5 153t-182.5 53
q-97 0 -161 -35t-82 -99h-174q9 65 43.5 118t90 90.5t129.5 58t160 20.5q99 0 175 -24.5t128.5 -71t79.5 -113t27 -150.5v-738h-164v159h-16q-53 -87 -138 -132.5t-194 -45.5zM492 1263l-278 338h220l252 -338h-194z" />
    <glyph glyph-name="aacute" unicode="&#xe1;" horiz-adv-x="1130"
d="M494 132q66 0 122.5 20.5t98 56.5t64.5 85.5t23 107.5v99l-290 -19q-124 -8 -180 -51.5t-56 -124.5q0 -41 16.5 -73.5t45.5 -55t69 -34t87 -11.5zM462 -19q-78 0 -145 22.5t-115.5 64t-76 101t-27.5 133.5q0 146 102 227t291 92l311 19v98q0 100 -61.5 153t-182.5 53
q-97 0 -161 -35t-82 -99h-174q9 65 43.5 118t90 90.5t129.5 58t160 20.5q99 0 175 -24.5t128.5 -71t79.5 -113t27 -150.5v-738h-164v159h-16q-53 -87 -138 -132.5t-194 -45.5zM450 1263l252 338h220l-278 -338h-194z" />
    <glyph glyph-name="acircumflex" unicode="&#xe2;" horiz-adv-x="1130"
d="M494 132q66 0 122.5 20.5t98 56.5t64.5 85.5t23 107.5v99l-290 -19q-124 -8 -180 -51.5t-56 -124.5q0 -41 16.5 -73.5t45.5 -55t69 -34t87 -11.5zM462 -19q-78 0 -145 22.5t-115.5 64t-76 101t-27.5 133.5q0 146 102 227t291 92l311 19v98q0 100 -61.5 153t-182.5 53
q-97 0 -161 -35t-82 -99h-174q9 65 43.5 118t90 90.5t129.5 58t160 20.5q99 0 175 -24.5t128.5 -71t79.5 -113t27 -150.5v-738h-164v159h-16q-53 -87 -138 -132.5t-194 -45.5zM947 1228h-198l-177 227h-16l-177 -227h-198l282 340h202z" />
    <glyph glyph-name="atilde" unicode="&#xe3;" horiz-adv-x="1130"
d="M494 132q66 0 122.5 20.5t98 56.5t64.5 85.5t23 107.5v99l-290 -19q-124 -8 -180 -51.5t-56 -124.5q0 -41 16.5 -73.5t45.5 -55t69 -34t87 -11.5zM462 -19q-78 0 -145 22.5t-115.5 64t-76 101t-27.5 133.5q0 146 102 227t291 92l311 19v98q0 100 -61.5 153t-182.5 53
q-97 0 -161 -35t-82 -99h-174q9 65 43.5 118t90 90.5t129.5 58t160 20.5q99 0 175 -24.5t128.5 -71t79.5 -113t27 -150.5v-738h-164v159h-16q-53 -87 -138 -132.5t-194 -45.5zM710 1231q-40 0 -71 11.5t-56 29t-45 38l-38.5 38t-36 29t-37.5 11.5q-53 0 -75.5 -36
t-22.5 -121h-142q0 68 16 122t46 91.5t73 57.5t97 20q40 0 71 -11.5t56 -29t45 -38l38.5 -38t36 -29t37.5 -11.5q53 0 75.5 36t22.5 121h142q0 -68 -16 -122t-46 -91.5t-73 -57.5t-97 -20z" />
    <glyph glyph-name="adieresis" unicode="&#xe4;" horiz-adv-x="1130"
d="M494 132q66 0 122.5 20.5t98 56.5t64.5 85.5t23 107.5v99l-290 -19q-124 -8 -180 -51.5t-56 -124.5q0 -41 16.5 -73.5t45.5 -55t69 -34t87 -11.5zM462 -19q-78 0 -145 22.5t-115.5 64t-76 101t-27.5 133.5q0 146 102 227t291 92l311 19v98q0 100 -61.5 153t-182.5 53
q-97 0 -161 -35t-82 -99h-174q9 65 43.5 118t90 90.5t129.5 58t160 20.5q99 0 175 -24.5t128.5 -71t79.5 -113t27 -150.5v-738h-164v159h-16q-53 -87 -138 -132.5t-194 -45.5zM362 1228q-25 0 -47 9.5t-38.5 26t-26 38.5t-9.5 47t9.5 47t26 38.5t38.5 26t47 9.5t47 -9.5
t38.5 -26t26 -38.5t9.5 -47t-9.5 -47t-26 -38.5t-38.5 -26t-47 -9.5zM766 1228q-25 0 -47 9.5t-38.5 26t-26 38.5t-9.5 47t9.5 47t26 38.5t38.5 26t47 9.5t47 -9.5t38.5 -26t26 -38.5t9.5 -47t-9.5 -47t-26 -38.5t-38.5 -26t-47 -9.5z" />
    <glyph glyph-name="aring" unicode="&#xe5;" horiz-adv-x="1130"
d="M494 132q66 0 122.5 20.5t98 56.5t64.5 85.5t23 107.5v99l-290 -19q-124 -8 -180 -51.5t-56 -124.5q0 -41 16.5 -73.5t45.5 -55t69 -34t87 -11.5zM462 -19q-78 0 -145 22.5t-115.5 64t-76 101t-27.5 133.5q0 146 102 227t291 92l311 19v98q0 100 -61.5 153t-182.5 53
q-97 0 -161 -35t-82 -99h-174q9 65 43.5 118t90 90.5t129.5 58t160 20.5q99 0 175 -24.5t128.5 -71t79.5 -113t27 -150.5v-738h-164v159h-16q-53 -87 -138 -132.5t-194 -45.5zM564 1228q-48 0 -90.5 17.5t-74 48.5t-49.5 73t-18 90t18 90t49.5 73t74 48.5t90.5 17.5
t90 -17.5t73.5 -48.5t50 -73t18.5 -90t-18.5 -90t-50 -73t-73.5 -48.5t-90 -17.5zM564 1334q26 0 48.5 9.5t39 26t25.5 39t9 48.5t-9 48.5t-25.5 39t-39 26t-48.5 9.5t-48.5 -9.5t-39 -26t-25.5 -39t-9 -48.5t9 -48.5t25.5 -39t39 -26t48.5 -9.5z" />
    <glyph glyph-name="ae" unicode="&#xe6;" horiz-adv-x="1849"
d="M1287 -19q-65 0 -125.5 17t-111 48t-89.5 73.5t-60 92.5h-16q-53 -109 -157 -170t-249 -61q-85 0 -155 22.5t-120.5 64t-78 101t-27.5 133.5q0 146 102 227t291 92l311 19v98q0 100 -61.5 153t-182.5 53q-97 0 -161 -35t-82 -99h-174q9 65 43.5 118t90 90.5t129 58
t160.5 20.5q64 0 118.5 -14t99 -38.5t77 -58.5t53.5 -74h16q24 40 60.5 73.5t83 58.5t101 39t112.5 14q107 0 191.5 -36t143.5 -104.5t90 -166.5t31 -222v-68h-768v-18q3 -80 27.5 -144t65.5 -109.5t98.5 -70t126.5 -24.5q101 0 165 35t99 110h172q-41 -143 -155 -220.5
t-285 -77.5zM1276 946q-65 0 -119 -21.5t-93 -61t-62.5 -96.5t-28.5 -128h587q-2 67 -23.5 123.5t-59 97.5t-89 63.5t-112.5 22.5zM504 132q64 0 119 22t94.5 59.5t62 88t22.5 108.5v91l-290 -19q-124 -8 -180 -51.5t-56 -124.5q0 -41 16.5 -73.5t46.5 -55t72 -34t93 -11.5z
" />
    <glyph glyph-name="ccedilla" unicode="&#xe7;" horiz-adv-x="1146"
d="M880 748q-11 40 -33.5 75.5t-57.5 61.5t-82 41.5t-105 15.5q-73 0 -131.5 -28t-99.5 -80t-63 -126t-22 -165q0 -93 22.5 -168.5t63.5 -128.5t99.5 -81.5t130.5 -28.5q109 0 181.5 48.5t96.5 140.5h174q-11 -68 -41 -126t-78.5 -103t-114.5 -73.5t-148 -37.5l-45 -117
q103 0 159 -42.5t56 -120.5q0 -42 -16.5 -76.5t-48 -59.5t-77 -39t-102.5 -14q-45 0 -80 4.5t-66 13.5v108q9 -3 24 -5.5t32.5 -4.5t34.5 -3t31 -1q58 0 88.5 19t30.5 54t-34.5 50t-114.5 15h-59v84l55 134q-100 11 -180 55t-136 116t-86 170.5t-30 217.5q0 126 34.5 228.5
t99 174.5t156 111.5t204.5 39.5q98 0 177 -27.5t136 -75t92.5 -111t46.5 -135.5h-174z" />
    <glyph glyph-name="egrave" unicode="&#xe8;" horiz-adv-x="1170"
d="M592 945q-65 0 -118.5 -22.5t-93.5 -64t-64 -100t-29 -130.5h594q-2 72 -23 130.5t-59 100t-90.5 64t-116.5 22.5zM1048 279q-20 -69 -60 -124.5t-98 -94t-133 -59t-163 -20.5q-112 0 -202 39t-153 111.5t-97 175.5t-34 231q0 127 34.5 230.5t97.5 176.5t153 112.5
t201 39.5q109 0 196 -37.5t147.5 -108t92.5 -170.5t32 -226v-66h-775v-8q3 -80 26.5 -144.5t64 -109.5t96 -69.5t124.5 -24.5q105 0 174.5 37t103.5 109h172zM522 1263l-278 338h220l252 -338h-194z" />
    <glyph glyph-name="eacute" unicode="&#xe9;" horiz-adv-x="1170"
d="M592 945q-65 0 -118.5 -22.5t-93.5 -64t-64 -100t-29 -130.5h594q-2 72 -23 130.5t-59 100t-90.5 64t-116.5 22.5zM1048 279q-20 -69 -60 -124.5t-98 -94t-133 -59t-163 -20.5q-112 0 -202 39t-153 111.5t-97 175.5t-34 231q0 127 34.5 230.5t97.5 176.5t153 112.5
t201 39.5q109 0 196 -37.5t147.5 -108t92.5 -170.5t32 -226v-66h-775v-8q3 -80 26.5 -144.5t64 -109.5t96 -69.5t124.5 -24.5q105 0 174.5 37t103.5 109h172zM480 1263l252 338h220l-278 -338h-194z" />
    <glyph glyph-name="ecircumflex" unicode="&#xea;" horiz-adv-x="1170"
d="M592 945q-65 0 -118.5 -22.5t-93.5 -64t-64 -100t-29 -130.5h594q-2 72 -23 130.5t-59 100t-90.5 64t-116.5 22.5zM1048 279q-20 -69 -60 -124.5t-98 -94t-133 -59t-163 -20.5q-112 0 -202 39t-153 111.5t-97 175.5t-34 231q0 127 34.5 230.5t97.5 176.5t153 112.5
t201 39.5q109 0 196 -37.5t147.5 -108t92.5 -170.5t32 -226v-66h-775v-8q3 -80 26.5 -144.5t64 -109.5t96 -69.5t124.5 -24.5q105 0 174.5 37t103.5 109h172zM977 1228h-198l-177 227h-16l-177 -227h-198l282 340h202z" />
    <glyph glyph-name="edieresis" unicode="&#xeb;" horiz-adv-x="1170"
d="M592 945q-65 0 -118.5 -22.5t-93.5 -64t-64 -100t-29 -130.5h594q-2 72 -23 130.5t-59 100t-90.5 64t-116.5 22.5zM1048 279q-20 -69 -60 -124.5t-98 -94t-133 -59t-163 -20.5q-112 0 -202 39t-153 111.5t-97 175.5t-34 231q0 127 34.5 230.5t97.5 176.5t153 112.5
t201 39.5q109 0 196 -37.5t147.5 -108t92.5 -170.5t32 -226v-66h-775v-8q3 -80 26.5 -144.5t64 -109.5t96 -69.5t124.5 -24.5q105 0 174.5 37t103.5 109h172zM392 1228q-25 0 -47 9.5t-38.5 26t-26 38.5t-9.5 47t9.5 47t26 38.5t38.5 26t47 9.5t47 -9.5t38.5 -26t26 -38.5
t9.5 -47t-9.5 -47t-26 -38.5t-38.5 -26t-47 -9.5zM796 1228q-25 0 -47 9.5t-38.5 26t-26 38.5t-9.5 47t9.5 47t26 38.5t38.5 26t47 9.5t47 -9.5t38.5 -26t26 -38.5t9.5 -47t-9.5 -47t-26 -38.5t-38.5 -26t-47 -9.5z" />
    <glyph glyph-name="igrave" unicode="&#xec;" horiz-adv-x="504"
d="M166 1078h172v-1078h-172v1078zM180 1263l-278 338h220l252 -338h-194z" />
    <glyph glyph-name="iacute" unicode="&#xed;" horiz-adv-x="504"
d="M166 1078h172v-1078h-172v1078zM138 1263l252 338h220l-278 -338h-194z" />
    <glyph glyph-name="icircumflex" unicode="&#xee;" horiz-adv-x="504"
d="M166 1078h172v-1078h-172v1078zM635 1228h-198l-177 227h-16l-177 -227h-198l282 340h202z" />
    <glyph glyph-name="idieresis" unicode="&#xef;" horiz-adv-x="504"
d="M166 1078h172v-1078h-172v1078zM50 1228q-25 0 -47 9.5t-38.5 26t-26 38.5t-9.5 47t9.5 47t26 38.5t38.5 26t47 9.5t47 -9.5t38.5 -26t26 -38.5t9.5 -47t-9.5 -47t-26 -38.5t-38.5 -26t-47 -9.5zM454 1228q-25 0 -47 9.5t-38.5 26t-26 38.5t-9.5 47t9.5 47t26 38.5
t38.5 26t47 9.5t47 -9.5t38.5 -26t26 -38.5t9.5 -47t-9.5 -47t-26 -38.5t-38.5 -26t-47 -9.5z" />
    <glyph glyph-name="eth" unicode="&#xf0;" horiz-adv-x="1188"
d="M601 -19q-114 0 -205.5 37t-155.5 107t-98 169.5t-34 224.5q0 121 32.5 220t92 169.5t143 109.5t185.5 39q51 0 100 -13t92 -35.5t75.5 -53.5t50.5 -67h15q-22 89 -68.5 179t-113.5 172l-278 -90l-35 112l231 75q-35 42 -82 86t-118 104h206q37 -31 73.5 -66t71.5 -75
l250 81l35 -112l-209 -68q111 -150 169 -333t58 -382q0 -137 -33.5 -246t-96 -185.5t-152 -117.5t-201.5 -41zM601 902q-72 0 -130 -27t-99.5 -77t-63.5 -121t-22 -158t22 -158t63.5 -121t99.5 -77t130 -27t131 27t100 77t63.5 121t22.5 158t-22.5 157.5t-64 120.5
t-100 77.5t-130.5 27.5z" />
    <glyph glyph-name="ntilde" unicode="&#xf1;" horiz-adv-x="1195"
d="M162 1078h164v-170h16q41 90 120 139.5t204 49.5q183 0 280 -103t97 -296v-698h-172v656q0 146 -62 216t-192 70q-65 0 -117 -21t-89 -60t-57 -95.5t-20 -127.5v-638h-172v1078zM749 1231q-40 0 -71 11.5t-56 29t-45 38l-38.5 38t-36 29t-37.5 11.5q-53 0 -75.5 -36
t-22.5 -121h-142q0 68 16 122t46 91.5t73 57.5t97 20q40 0 71 -11.5t56 -29t45 -38l38.5 -38t36 -29t37.5 -11.5q53 0 75.5 36t22.5 121h142q0 -68 -16 -122t-46 -91.5t-73 -57.5t-97 -20z" />
    <glyph glyph-name="ograve" unicode="&#xf2;" horiz-adv-x="1210"
d="M605 -19q-115 0 -207 38.5t-156.5 110.5t-99 175.5t-34.5 233.5t34.5 233.5t99 175.5t156.5 110.5t207 38.5t207 -38.5t156.5 -110.5t99 -175.5t34.5 -233.5t-34.5 -233.5t-99 -175.5t-156.5 -110.5t-207 -38.5zM605 136q76 0 135.5 27t100.5 79t62 126.5t21 170.5
t-21 171t-62 126.5t-100.5 78.5t-135.5 27q-77 0 -136 -27t-100 -78.5t-62 -126.5t-21 -171t21 -170.5t62 -126.5t100 -79t136 -27zM533 1263l-278 338h220l252 -338h-194z" />
    <glyph glyph-name="oacute" unicode="&#xf3;" horiz-adv-x="1210"
d="M605 -19q-115 0 -207 38.5t-156.5 110.5t-99 175.5t-34.5 233.5t34.5 233.5t99 175.5t156.5 110.5t207 38.5t207 -38.5t156.5 -110.5t99 -175.5t34.5 -233.5t-34.5 -233.5t-99 -175.5t-156.5 -110.5t-207 -38.5zM605 136q76 0 135.5 27t100.5 79t62 126.5t21 170.5
t-21 171t-62 126.5t-100.5 78.5t-135.5 27q-77 0 -136 -27t-100 -78.5t-62 -126.5t-21 -171t21 -170.5t62 -126.5t100 -79t136 -27zM491 1263l252 338h220l-278 -338h-194z" />
    <glyph glyph-name="ocircumflex" unicode="&#xf4;" horiz-adv-x="1210"
d="M605 -19q-115 0 -207 38.5t-156.5 110.5t-99 175.5t-34.5 233.5t34.5 233.5t99 175.5t156.5 110.5t207 38.5t207 -38.5t156.5 -110.5t99 -175.5t34.5 -233.5t-34.5 -233.5t-99 -175.5t-156.5 -110.5t-207 -38.5zM605 136q76 0 135.5 27t100.5 79t62 126.5t21 170.5
t-21 171t-62 126.5t-100.5 78.5t-135.5 27q-77 0 -136 -27t-100 -78.5t-62 -126.5t-21 -171t21 -170.5t62 -126.5t100 -79t136 -27zM988 1228h-198l-177 227h-16l-177 -227h-198l282 340h202z" />
    <glyph glyph-name="otilde" unicode="&#xf5;" horiz-adv-x="1210"
d="M605 -19q-115 0 -207 38.5t-156.5 110.5t-99 175.5t-34.5 233.5t34.5 233.5t99 175.5t156.5 110.5t207 38.5t207 -38.5t156.5 -110.5t99 -175.5t34.5 -233.5t-34.5 -233.5t-99 -175.5t-156.5 -110.5t-207 -38.5zM605 136q76 0 135.5 27t100.5 79t62 126.5t21 170.5
t-21 171t-62 126.5t-100.5 78.5t-135.5 27q-77 0 -136 -27t-100 -78.5t-62 -126.5t-21 -171t21 -170.5t62 -126.5t100 -79t136 -27zM751 1231q-40 0 -71 11.5t-56 29t-45 38l-38.5 38t-36 29t-37.5 11.5q-53 0 -75.5 -36t-22.5 -121h-142q0 68 16 122t46 91.5t73 57.5t97 20
q40 0 71 -11.5t56 -29t45 -38l38.5 -38t36 -29t37.5 -11.5q53 0 75.5 36t22.5 121h142q0 -68 -16 -122t-46 -91.5t-73 -57.5t-97 -20z" />
    <glyph glyph-name="odieresis" unicode="&#xf6;" horiz-adv-x="1210"
d="M605 -19q-115 0 -207 38.5t-156.5 110.5t-99 175.5t-34.5 233.5t34.5 233.5t99 175.5t156.5 110.5t207 38.5t207 -38.5t156.5 -110.5t99 -175.5t34.5 -233.5t-34.5 -233.5t-99 -175.5t-156.5 -110.5t-207 -38.5zM605 136q76 0 135.5 27t100.5 79t62 126.5t21 170.5
t-21 171t-62 126.5t-100.5 78.5t-135.5 27q-77 0 -136 -27t-100 -78.5t-62 -126.5t-21 -171t21 -170.5t62 -126.5t100 -79t136 -27zM403 1228q-25 0 -47 9.5t-38.5 26t-26 38.5t-9.5 47t9.5 47t26 38.5t38.5 26t47 9.5t47 -9.5t38.5 -26t26 -38.5t9.5 -47t-9.5 -47
t-26 -38.5t-38.5 -26t-47 -9.5zM807 1228q-25 0 -47 9.5t-38.5 26t-26 38.5t-9.5 47t9.5 47t26 38.5t38.5 26t47 9.5t47 -9.5t38.5 -26t26 -38.5t9.5 -47t-9.5 -47t-26 -38.5t-38.5 -26t-47 -9.5z" />
    <glyph glyph-name="divide" unicode="&#xf7;" horiz-adv-x="1328"
d="M665 812q-27 0 -50 9.5t-40 26t-26.5 39.5t-9.5 50t9.5 50t26.5 39.5t40 26t50 9.5t49.5 -9.5t39 -26t26 -39.5t9.5 -50t-9.5 -50t-26 -39.5t-39 -26t-49.5 -9.5zM665 98q-27 0 -50 9.5t-40 26t-26.5 39.5t-9.5 50t9.5 50t26.5 39.5t40 26t50 9.5t49.5 -9.5t39 -26
t26 -39.5t9.5 -50t-9.5 -50t-26 -39.5t-39 -26t-49.5 -9.5zM155 506v148h1018v-148h-1018z" />
    <glyph glyph-name="oslash" unicode="&#xf8;" horiz-adv-x="1210"
d="M429 186q73 -50 176 -50q76 0 135.5 27t100.5 79t62 126.5t21 170.5q0 175 -68 276zM769 900q-69 42 -164 42q-77 0 -136 -27t-100 -78.5t-62 -126.5t-21 -171q0 -158 58 -259zM956 962q71 -72 108.5 -179t37.5 -244q0 -130 -34.5 -233.5t-99 -175.5t-156.5 -110.5
t-207 -38.5q-155 0 -268 69l-59 -87l-104 69l67 98q-65 73 -99 175.5t-34 233.5q0 130 34.5 233.5t99 175.5t156.5 110.5t207 38.5q74 0 138 -16t118 -46l57 83l100 -64z" />
    <glyph glyph-name="ugrave" unicode="&#xf9;" horiz-adv-x="1196"
d="M1034 0h-164v169h-16q-41 -91 -125 -139.5t-209 -48.5q-182 0 -275 104t-93 295v698h172v-656q0 -146 57.5 -215t186.5 -69q71 0 126 20.5t92.5 59.5t56.5 95t19 127v638h172v-1078zM521 1263l-278 338h220l252 -338h-194z" />
    <glyph glyph-name="uacute" unicode="&#xfa;" horiz-adv-x="1196"
d="M1034 0h-164v169h-16q-41 -91 -125 -139.5t-209 -48.5q-182 0 -275 104t-93 295v698h172v-656q0 -146 57.5 -215t186.5 -69q71 0 126 20.5t92.5 59.5t56.5 95t19 127v638h172v-1078zM479 1263l252 338h220l-278 -338h-194z" />
    <glyph glyph-name="ucircumflex" unicode="&#xfb;" horiz-adv-x="1196"
d="M1034 0h-164v169h-16q-41 -91 -125 -139.5t-209 -48.5q-182 0 -275 104t-93 295v698h172v-656q0 -146 57.5 -215t186.5 -69q71 0 126 20.5t92.5 59.5t56.5 95t19 127v638h172v-1078zM976 1228h-198l-177 227h-16l-177 -227h-198l282 340h202z" />
    <glyph glyph-name="udieresis" unicode="&#xfc;" horiz-adv-x="1196"
d="M1034 0h-164v169h-16q-41 -91 -125 -139.5t-209 -48.5q-182 0 -275 104t-93 295v698h172v-656q0 -146 57.5 -215t186.5 -69q71 0 126 20.5t92.5 59.5t56.5 95t19 127v638h172v-1078zM391 1228q-25 0 -47 9.5t-38.5 26t-26 38.5t-9.5 47t9.5 47t26 38.5t38.5 26t47 9.5
t47 -9.5t38.5 -26t26 -38.5t9.5 -47t-9.5 -47t-26 -38.5t-38.5 -26t-47 -9.5zM795 1228q-25 0 -47 9.5t-38.5 26t-26 38.5t-9.5 47t9.5 47t26 38.5t38.5 26t47 9.5t47 -9.5t38.5 -26t26 -38.5t9.5 -47t-9.5 -47t-26 -38.5t-38.5 -26t-47 -9.5z" />
    <glyph glyph-name="yacute" unicode="&#xfd;" horiz-adv-x="1112"
d="M254 -390q-17 0 -38 1.5t-39 4.5v147q16 -3 35 -4t37 -1q37 0 66.5 9.5t53 30.5t42.5 54.5t36 82.5l20 64l-399 1079h186l296 -887h16l295 887h183l-421 -1144q-35 -94 -70 -156t-77.5 -99.5t-96 -53t-125.5 -15.5zM437 1263l252 338h220l-278 -338h-194z" />
    <glyph glyph-name="thorn" unicode="&#xfe;" horiz-adv-x="1258"
d="M697 1097q103 0 186.5 -39.5t143 -112.5t91.5 -176t32 -230q0 -126 -32.5 -229t-91.5 -176t-142.5 -113t-186.5 -40q-116 0 -204 47.5t-133 133.5h-16v-522h-172v1866h164v-608h16q52 94 143 146.5t202 52.5zM656 136q74 0 133 27.5t99.5 79.5t62 126.5t21.5 169.5
q0 94 -21.5 169t-62 127t-99 79.5t-132.5 27.5q-73 0 -132 -28t-100 -80.5t-63.5 -127t-22.5 -167.5t22 -167.5t63.5 -127t100 -80.5t131.5 -28z" />
    <glyph glyph-name="ydieresis" unicode="&#xff;" horiz-adv-x="1112"
d="M254 -390q-17 0 -38 1.5t-39 4.5v147q16 -3 35 -4t37 -1q37 0 66.5 9.5t53 30.5t42.5 54.5t36 82.5l20 64l-399 1079h186l296 -887h16l295 887h183l-421 -1144q-35 -94 -70 -156t-77.5 -99.5t-96 -53t-125.5 -15.5zM349 1228q-25 0 -47 9.5t-38.5 26t-26 38.5t-9.5 47
t9.5 47t26 38.5t38.5 26t47 9.5t47 -9.5t38.5 -26t26 -38.5t9.5 -47t-9.5 -47t-26 -38.5t-38.5 -26t-47 -9.5zM753 1228q-25 0 -47 9.5t-38.5 26t-26 38.5t-9.5 47t9.5 47t26 38.5t38.5 26t47 9.5t47 -9.5t38.5 -26t26 -38.5t9.5 -47t-9.5 -47t-26 -38.5t-38.5 -26t-47 -9.5
z" />
    <glyph glyph-name="Amacron" unicode="&#x100;" horiz-adv-x="1380"
d="M977 413h-574l-145 -413h-189l532 1443h178l532 -1443h-189zM456 566h468l-226 644h-16zM1027 1620h-674v136h674v-136z" />
    <glyph glyph-name="amacron" unicode="&#x101;" horiz-adv-x="1130"
d="M494 132q66 0 122.5 20.5t98 56.5t64.5 85.5t23 107.5v99l-290 -19q-124 -8 -180 -51.5t-56 -124.5q0 -41 16.5 -73.5t45.5 -55t69 -34t87 -11.5zM462 -19q-78 0 -145 22.5t-115.5 64t-76 101t-27.5 133.5q0 146 102 227t291 92l311 19v98q0 100 -61.5 153t-182.5 53
q-97 0 -161 -35t-82 -99h-174q9 65 43.5 118t90 90.5t129.5 58t160 20.5q99 0 175 -24.5t128.5 -71t79.5 -113t27 -150.5v-738h-164v159h-16q-53 -87 -138 -132.5t-194 -45.5zM901 1286h-674v136h674v-136z" />
    <glyph glyph-name="Abreve" unicode="&#x102;" horiz-adv-x="1380"
d="M977 413h-574l-145 -413h-189l532 1443h178l532 -1443h-189zM456 566h468l-226 644h-16zM480 1873q0 -79 56 -126t154 -47t154 47t56 126h154q0 -67 -25 -122t-72 -94t-114.5 -60.5t-152.5 -21.5t-152.5 21.5t-114.5 60.5t-72 94t-25 122h154z" />
    <glyph glyph-name="abreve" unicode="&#x103;" horiz-adv-x="1130"
d="M494 132q66 0 122.5 20.5t98 56.5t64.5 85.5t23 107.5v99l-290 -19q-124 -8 -180 -51.5t-56 -124.5q0 -41 16.5 -73.5t45.5 -55t69 -34t87 -11.5zM462 -19q-78 0 -145 22.5t-115.5 64t-76 101t-27.5 133.5q0 146 102 227t291 92l311 19v98q0 100 -61.5 153t-182.5 53
q-97 0 -161 -35t-82 -99h-174q9 65 43.5 118t90 90.5t129.5 58t160 20.5q99 0 175 -24.5t128.5 -71t79.5 -113t27 -150.5v-738h-164v159h-16q-53 -87 -138 -132.5t-194 -45.5zM352 1556q0 -43 13.5 -79.5t40.5 -63.5t66 -42t90 -15t90 15t66 42t40.5 63.5t13.5 79.5h154
q0 -71 -25 -131t-71.5 -104t-114.5 -68.5t-153 -24.5q-86 0 -153.5 24.5t-114 68.5t-71.5 104t-25 131h154z" />
    <glyph glyph-name="Aogonek" unicode="&#x104;" horiz-adv-x="1380"
d="M456 566h468l-226 644h-16zM1294 -416q-17 -6 -42.5 -11t-61.5 -5q-56 0 -100.5 16t-76.5 43.5t-49 64.5t-17 80q0 36 13 70.5t36.5 65t55 56t68.5 44.5l-143 405h-574l-145 -413h-189l532 1443h178l532 -1443l-11 -5q-35 -16 -68 -34.5t-58.5 -41t-41.5 -49.5t-16 -60
q0 -24 9.5 -42.5t25 -31t36 -18.5t41.5 -6q24 0 40.5 2t25.5 4v-134z" />
    <glyph glyph-name="aogonek" unicode="&#x105;" horiz-adv-x="1130"
d="M494 132q66 0 122.5 20.5t97.5 56.5t64.5 85.5t23.5 107.5v99l-290 -19q-122 -8 -179 -50.5t-57 -125.5q0 -39 15.5 -71.5t44 -55t69 -35t89.5 -12.5zM966 -416q-45 -16 -104 -16q-53 0 -98 15t-77 42t-50 64.5t-18 82.5q0 42 15 79.5t41 68.5t61 54.5t74 37.5v147h-16
q-53 -87 -138 -132.5t-194 -45.5q-81 0 -148 23.5t-115 65.5t-74.5 101t-26.5 131q0 144 100.5 226t292.5 93l311 19v98q0 101 -62 153.5t-182 52.5q-98 0 -161.5 -35t-81.5 -99h-174q9 64 43.5 117t90 91t129 58.5t160.5 20.5q97 0 173.5 -24t129 -70t80 -113t27.5 -152
v-738l-12 -5q-81 -33 -127.5 -81.5t-46.5 -103.5q0 -43 31 -70.5t81 -27.5q43 0 66 6v-134z" />
    <glyph glyph-name="Cacute" unicode="&#x106;" horiz-adv-x="1466"
d="M765 -34q-147 0 -265 52.5t-200.5 150.5t-127 238t-44.5 314q0 175 44 315t126.5 238t200.5 150.5t265 52.5q114 0 213.5 -34t176.5 -96t127.5 -148.5t66.5 -190.5h-183q-18 70 -55 126t-89 95.5t-117 60.5t-140 21q-104 0 -187.5 -41.5t-142 -118t-90 -185.5t-31.5 -245
t31.5 -245t90 -185.5t142.5 -117.5t188 -41q75 0 140.5 18.5t117.5 53.5t88.5 85t53.5 113h183q-18 -99 -68 -179.5t-126 -137.5t-175 -88t-214 -31zM658 1577l310 298h226l-332 -298h-204z" />
    <glyph glyph-name="cacute" unicode="&#x107;" horiz-adv-x="1146"
d="M880 748q-11 40 -33.5 75.5t-57.5 61.5t-82 41.5t-105 15.5q-73 0 -131.5 -28t-99.5 -80t-63 -126t-22 -165q0 -93 22.5 -168.5t63.5 -128.5t99.5 -81.5t130.5 -28.5q109 0 181.5 48.5t96.5 140.5h174q-12 -74 -47.5 -137t-92.5 -109t-135.5 -72t-175.5 -26
q-113 0 -204.5 39.5t-156 113t-99.5 177t-35 232.5q0 126 34.5 228.5t99 174.5t156 111.5t204.5 39.5q98 0 177 -27.5t136 -75t92.5 -111t46.5 -135.5h-174zM486 1263l252 338h220l-278 -338h-194z" />
    <glyph glyph-name="Ccircumflex" unicode="&#x108;" horiz-adv-x="1466"
d="M765 -34q-147 0 -265 52.5t-200.5 150.5t-127 238t-44.5 314q0 175 44 315t126.5 238t200.5 150.5t265 52.5q114 0 213.5 -34t176.5 -96t127.5 -148.5t66.5 -190.5h-183q-18 70 -55 126t-89 95.5t-117 60.5t-140 21q-104 0 -187.5 -41.5t-142 -118t-90 -185.5t-31.5 -245
t31.5 -245t90 -185.5t142.5 -117.5t188 -41q75 0 140.5 18.5t117.5 53.5t88.5 85t53.5 113h183q-18 -99 -68 -179.5t-126 -137.5t-175 -88t-214 -31zM846 1875l300 -298h-202l-172 177h-16l-172 -177h-202l300 298h164z" />
    <glyph glyph-name="ccircumflex" unicode="&#x109;" horiz-adv-x="1146"
d="M880 748q-11 40 -33.5 75.5t-57.5 61.5t-82 41.5t-105 15.5q-73 0 -131.5 -28t-99.5 -80t-63 -126t-22 -165q0 -93 22.5 -168.5t63.5 -128.5t99.5 -81.5t130.5 -28.5q109 0 181.5 48.5t96.5 140.5h174q-12 -74 -47.5 -137t-92.5 -109t-135.5 -72t-175.5 -26
q-113 0 -204.5 39.5t-156 113t-99.5 177t-35 232.5q0 126 34.5 228.5t99 174.5t156 111.5t204.5 39.5q98 0 177 -27.5t136 -75t92.5 -111t46.5 -135.5h-174zM983 1228h-198l-177 227h-16l-177 -227h-198l282 340h202z" />
    <glyph glyph-name="Cdotaccent" unicode="&#x10a;" horiz-adv-x="1466"
d="M765 -34q-147 0 -265 52.5t-200.5 150.5t-127 238t-44.5 314q0 175 44 315t126.5 238t200.5 150.5t265 52.5q114 0 213.5 -34t176.5 -96t127.5 -148.5t66.5 -190.5h-183q-18 70 -55 126t-89 95.5t-117 60.5t-140 21q-104 0 -187.5 -41.5t-142 -118t-90 -185.5t-31.5 -245
t31.5 -245t90 -185.5t142.5 -117.5t188 -41q75 0 140.5 18.5t117.5 53.5t88.5 85t53.5 113h183q-18 -99 -68 -179.5t-126 -137.5t-175 -88t-214 -31zM764 1577q-25 0 -47 9.5t-38.5 26t-26 38.5t-9.5 47t9.5 47t26 38.5t38.5 26t47 9.5t47 -9.5t38.5 -26t26 -38.5t9.5 -47
t-9.5 -47t-26 -38.5t-38.5 -26t-47 -9.5z" />
    <glyph glyph-name="cdotaccent" unicode="&#x10b;" horiz-adv-x="1146"
d="M880 748q-11 40 -33.5 75.5t-57.5 61.5t-82 41.5t-105 15.5q-73 0 -131.5 -28t-99.5 -80t-63 -126t-22 -165q0 -93 22.5 -168.5t63.5 -128.5t99.5 -81.5t130.5 -28.5q109 0 181.5 48.5t96.5 140.5h174q-12 -74 -47.5 -137t-92.5 -109t-135.5 -72t-175.5 -26
q-113 0 -204.5 39.5t-156 113t-99.5 177t-35 232.5q0 126 34.5 228.5t99 174.5t156 111.5t204.5 39.5q98 0 177 -27.5t136 -75t92.5 -111t46.5 -135.5h-174zM600 1287q-26 0 -49.5 10t-41 27.5t-27.5 41t-10 49.5t10 49t27.5 40.5t41 27.5t49.5 10t49.5 -10t41 -27.5
t27.5 -40.5t10 -49t-10 -49.5t-27.5 -41t-41 -27.5t-49.5 -10z" />
    <glyph glyph-name="Ccaron" unicode="&#x10c;" horiz-adv-x="1466"
d="M765 -34q-147 0 -265 52.5t-200.5 150.5t-127 238t-44.5 314q0 175 44 315t126.5 238t200.5 150.5t265 52.5q114 0 213.5 -34t176.5 -96t127.5 -148.5t66.5 -190.5h-183q-18 70 -55 126t-89 95.5t-117 60.5t-140 21q-104 0 -187.5 -41.5t-142 -118t-90 -185.5t-31.5 -245
t31.5 -245t90 -185.5t142.5 -117.5t188 -41q75 0 140.5 18.5t117.5 53.5t88.5 85t53.5 113h183q-18 -99 -68 -179.5t-126 -137.5t-175 -88t-214 -31zM382 1875h202l172 -177h16l172 177h202l-300 -298h-164z" />
    <glyph glyph-name="ccaron" unicode="&#x10d;" horiz-adv-x="1146"
d="M880 748q-11 40 -33.5 75.5t-57.5 61.5t-82 41.5t-105 15.5q-73 0 -131.5 -28t-99.5 -80t-63 -126t-22 -165q0 -93 22.5 -168.5t63.5 -128.5t99.5 -81.5t130.5 -28.5q109 0 181.5 48.5t96.5 140.5h174q-12 -74 -47.5 -137t-92.5 -109t-135.5 -72t-175.5 -26
q-113 0 -204.5 39.5t-156 113t-99.5 177t-35 232.5q0 126 34.5 228.5t99 174.5t156 111.5t204.5 39.5q98 0 177 -27.5t136 -75t92.5 -111t46.5 -135.5h-174zM499 1228l-282 340h198l177 -227h16l177 227h198l-282 -340h-202z" />
    <glyph glyph-name="Dcaron" unicode="&#x10e;" horiz-adv-x="1487"
d="M679 1443q160 0 286.5 -49t214.5 -141.5t134 -226.5t46 -304q0 -171 -46 -305t-133.5 -226.5t-214 -141.5t-287.5 -49h-495v1443h495zM364 162h303q121 0 215.5 37.5t159.5 109.5t99.5 175.5t34.5 235.5t-34.5 236.5t-100 176.5t-160 110t-214.5 38h-303v-1119zM212 1873
h202l172 -177h16l172 177h202l-300 -298h-164z" />
    <glyph glyph-name="dcaron" unicode="&#x10f;" horiz-adv-x="1387"
d="M1407 1506l-50 -488h-120v488h170zM561 -19q-104 0 -187.5 39.5t-142.5 112.5t-91 176t-32 230t32 230t91.5 176t143 112.5t186.5 39.5q113 0 202.5 -50t135.5 -139h15v598h172v-1506h-164v172h-16q-51 -91 -142 -141t-203 -50zM601 942q-74 0 -132 -27.5t-99 -79.5
t-62.5 -127t-21.5 -169q0 -95 21.5 -169.5t62 -126.5t99 -79.5t132.5 -27.5q73 0 132 28t100 80t63 127t22 168t-22 167.5t-63.5 127t-100 80.5t-131.5 28z" />
    <glyph glyph-name="Dcroat" unicode="&#x110;" horiz-adv-x="1492"
d="M672 162q121 0 215.5 37.5t159.5 109.5t99.5 175.5t34.5 235.5t-34.5 236.5t-100 176.5t-160 110t-214.5 38h-303v-455h243v-163h-243v-501h303zM684 1443q160 0 286.5 -49t214.5 -141.5t134 -226.5t46 -304q0 -171 -46 -305t-133.5 -226.5t-214 -141.5t-287.5 -49h-495
v663h-163v163h163v617h495z" />
    <glyph glyph-name="dcroat" unicode="&#x111;" horiz-adv-x="1258"
d="M601 136q73 0 132 28t100 80t63 127t22 168t-22 167.5t-63.5 127t-100 80.5t-131.5 28q-74 0 -132 -27.5t-99 -79.5t-62.5 -127t-21.5 -169q0 -95 21.5 -169.5t62 -126.5t99 -79.5t132.5 -27.5zM1230 1277h-144v-1277h-164v172h-16q-51 -91 -142 -141t-203 -50
q-104 0 -187.5 39.5t-142.5 112.5t-91 176t-32 230t32 230t91.5 176t143 112.5t186.5 39.5q113 0 202.5 -50t135.5 -139h15v369h-260v124h260v105h172v-105h144v-124z" />
    <glyph glyph-name="Emacron" unicode="&#x112;" horiz-adv-x="1220"
d="M1078 0h-894v1443h894v-162h-714v-463h677v-160h-677v-496h714v-162zM968 1620h-674v136h674v-136z" />
    <glyph glyph-name="emacron" unicode="&#x113;" horiz-adv-x="1170"
d="M592 945q-65 0 -118.5 -22.5t-93.5 -64t-64 -100t-29 -130.5h594q-2 72 -23 130.5t-59 100t-90.5 64t-116.5 22.5zM1048 279q-20 -69 -60 -124.5t-98 -94t-133 -59t-163 -20.5q-112 0 -202 39t-153 111.5t-97 175.5t-34 231q0 127 34.5 230.5t97.5 176.5t153 112.5
t201 39.5q109 0 196 -37.5t147.5 -108t92.5 -170.5t32 -226v-66h-775v-8q3 -80 26.5 -144.5t64 -109.5t96 -69.5t124.5 -24.5q105 0 174.5 37t103.5 109h172zM931 1286h-674v136h674v-136z" />
    <glyph glyph-name="Ebreve" unicode="&#x114;" horiz-adv-x="1220"
d="M1078 0h-894v1443h894v-162h-714v-463h677v-160h-677v-496h714v-162zM421 1873q0 -79 56 -126t154 -47t154 47t56 126h154q0 -67 -25 -122t-72 -94t-114.5 -60.5t-152.5 -21.5t-152.5 21.5t-114.5 60.5t-72 94t-25 122h154z" />
    <glyph glyph-name="ebreve" unicode="&#x115;" horiz-adv-x="1170"
d="M592 945q-65 0 -118.5 -22.5t-93.5 -64t-64 -100t-29 -130.5h594q-2 72 -23 130.5t-59 100t-90.5 64t-116.5 22.5zM1048 279q-20 -69 -60 -124.5t-98 -94t-133 -59t-163 -20.5q-112 0 -202 39t-153 111.5t-97 175.5t-34 231q0 127 34.5 230.5t97.5 176.5t153 112.5
t201 39.5q109 0 196 -37.5t147.5 -108t92.5 -170.5t32 -226v-66h-775v-8q3 -80 26.5 -144.5t64 -109.5t96 -69.5t124.5 -24.5q105 0 174.5 37t103.5 109h172zM382 1556q0 -43 13.5 -79.5t40.5 -63.5t66 -42t90 -15t90 15t66 42t40.5 63.5t13.5 79.5h154q0 -71 -25 -131
t-71.5 -104t-114.5 -68.5t-153 -24.5q-86 0 -153.5 24.5t-114 68.5t-71.5 104t-25 131h154z" />
    <glyph glyph-name="Edotaccent" unicode="&#x116;" horiz-adv-x="1220"
d="M1078 0h-894v1443h894v-162h-714v-463h677v-160h-677v-496h714v-162zM631 1575q-25 0 -47 9.5t-38.5 26t-26 38.5t-9.5 47t9.5 47t26 38.5t38.5 26t47 9.5t47 -9.5t38.5 -26t26 -38.5t9.5 -47t-9.5 -47t-26 -38.5t-38.5 -26t-47 -9.5z" />
    <glyph glyph-name="edotaccent" unicode="&#x117;" horiz-adv-x="1170"
d="M592 945q-65 0 -118.5 -22.5t-93.5 -64t-64 -100t-29 -130.5h594q-2 72 -23 130.5t-59 100t-90.5 64t-116.5 22.5zM1048 279q-20 -69 -60 -124.5t-98 -94t-133 -59t-163 -20.5q-112 0 -202 39t-153 111.5t-97 175.5t-34 231q0 127 34.5 230.5t97.5 176.5t153 112.5
t201 39.5q109 0 196 -37.5t147.5 -108t92.5 -170.5t32 -226v-66h-775v-8q3 -80 26.5 -144.5t64 -109.5t96 -69.5t124.5 -24.5q105 0 174.5 37t103.5 109h172zM594 1287q-26 0 -49.5 10t-41 27.5t-27.5 41t-10 49.5t10 49t27.5 40.5t41 27.5t49.5 10t49.5 -10t41 -27.5
t27.5 -40.5t10 -49t-10 -49.5t-27.5 -41t-41 -27.5t-49.5 -10z" />
    <glyph glyph-name="Eogonek" unicode="&#x118;" horiz-adv-x="1220"
d="M184 1443h894v-162h-714v-463h677v-160h-677v-496h714v-150l-42 -16q-35 -14 -68.5 -32.5t-59 -41.5t-41 -51t-15.5 -61q0 -24 9.5 -42.5t25 -31t36 -18.5t41.5 -6q24 0 40.5 2t25.5 4v-134q-17 -6 -42.5 -11t-61.5 -5q-56 0 -100.5 16t-76.5 43.5t-49 64.5t-17 80
q0 69 39 124t102 88v16h-640v1443z" />
    <glyph glyph-name="eogonek" unicode="&#x119;" horiz-adv-x="1170"
d="M788 -432q-56 0 -100.5 16t-76.5 43.5t-49 64.5t-17 80q0 60 33 113t98 95v16q-12 -6 -37.5 -10.5t-44.5 -4.5q-112 0 -202 39t-153 111.5t-97 175.5t-34 231q0 127 34.5 230.5t97.5 176.5t153 112.5t201 39.5q109 0 196 -37.5t147.5 -108t92.5 -170.5t32 -226v-66h-775
v-8q3 -80 26.5 -144.5t64 -109.5t96 -69.5t124.5 -24.5q105 0 174.5 37t103.5 109h172q-6 -24 -20.5 -54t-36 -61.5t-49.5 -62.5t-60 -57q-78 -64 -123 -119t-45 -115q0 -24 9.5 -42.5t25 -31t36 -18.5t41.5 -6q24 0 40.5 2t25.5 4v-134q-17 -6 -42.5 -11t-61.5 -5zM592 945
q-65 0 -118.5 -22.5t-93.5 -64t-64 -100t-29 -130.5h594q-2 72 -23 130.5t-59 100t-90.5 64t-116.5 22.5z" />
    <glyph glyph-name="Ecaron" unicode="&#x11a;" horiz-adv-x="1220"
d="M1078 0h-894v1443h894v-162h-714v-463h677v-160h-677v-496h714v-162zM249 1873h202l172 -177h16l172 177h202l-300 -298h-164z" />
    <glyph glyph-name="ecaron" unicode="&#x11b;" horiz-adv-x="1170"
d="M592 945q-65 0 -118.5 -22.5t-93.5 -64t-64 -100t-29 -130.5h594q-2 72 -23 130.5t-59 100t-90.5 64t-116.5 22.5zM1048 279q-20 -69 -60 -124.5t-98 -94t-133 -59t-163 -20.5q-112 0 -202 39t-153 111.5t-97 175.5t-34 231q0 127 34.5 230.5t97.5 176.5t153 112.5
t201 39.5q109 0 196 -37.5t147.5 -108t92.5 -170.5t32 -226v-66h-775v-8q3 -80 26.5 -144.5t64 -109.5t96 -69.5t124.5 -24.5q105 0 174.5 37t103.5 109h172zM493 1228l-282 340h198l177 -227h16l177 227h198l-282 -340h-202z" />
    <glyph glyph-name="Gcircumflex" unicode="&#x11c;" horiz-adv-x="1529"
d="M1395 558q0 -134 -44 -243t-124 -186.5t-193.5 -120t-251.5 -42.5q-150 0 -270.5 53t-206 151.5t-131.5 238.5t-46 313q0 171 46.5 310.5t132 238t206.5 152.5t269 54q120 0 222 -32.5t180.5 -92.5t130 -146t71.5 -193h-183q-47 147 -153.5 222.5t-267.5 75.5
q-107 0 -194 -41.5t-148 -118.5t-94 -185.5t-33 -243.5q0 -137 32.5 -246t93.5 -185.5t148 -117.5t196 -41q97 0 176.5 29.5t136.5 83.5t88.5 129t31.5 167v35h-406v158h585v-176zM864 1873l300 -298h-202l-172 177h-16l-172 -177h-202l300 298h164z" />
    <glyph glyph-name="gcircumflex" unicode="&#x11d;" horiz-adv-x="1248"
d="M598 168q75 0 134.5 27.5t100.5 78t63 122t22 159.5t-22 159.5t-63.5 122t-100.5 78t-134 27.5t-133 -27.5t-98 -78t-60.5 -122t-20.5 -159.5t20.5 -159.5t60.5 -122t98 -78t133 -27.5zM606 -414q-98 0 -177 21t-137 59.5t-93 93t-45 121.5h182q14 -66 83.5 -105.5
t186.5 -39.5q72 0 129.5 17.5t97 50t60.5 79.5t21 107v212h-16q-51 -90 -138.5 -138t-199.5 -48q-105 0 -188.5 39t-142 109.5t-90 170t-31.5 220.5t31.5 221t90.5 171t142.5 110.5t187.5 39.5q57 0 109 -13.5t97 -38t81 -60t59 -78.5h16v171h164v-1097q0 -90 -33.5 -163
t-96 -124.5t-151.5 -79.5t-199 -28zM977 1228h-198l-177 227h-16l-177 -227h-198l282 340h202z" />
    <glyph glyph-name="Gbreve" unicode="&#x11e;" horiz-adv-x="1529"
d="M1395 558q0 -134 -44 -243t-124 -186.5t-193.5 -120t-251.5 -42.5q-150 0 -270.5 53t-206 151.5t-131.5 238.5t-46 313q0 171 46.5 310.5t132 238t206.5 152.5t269 54q120 0 222 -32.5t180.5 -92.5t130 -146t71.5 -193h-183q-47 147 -153.5 222.5t-267.5 75.5
q-107 0 -194 -41.5t-148 -118.5t-94 -185.5t-33 -243.5q0 -137 32.5 -246t93.5 -185.5t148 -117.5t196 -41q97 0 176.5 29.5t136.5 83.5t88.5 129t31.5 167v35h-406v158h585v-176zM572 1873q0 -79 56 -126t154 -47t154 47t56 126h154q0 -67 -25 -122t-72 -94t-114.5 -60.5
t-152.5 -21.5t-152.5 21.5t-114.5 60.5t-72 94t-25 122h154z" />
    <glyph glyph-name="gbreve" unicode="&#x11f;" horiz-adv-x="1248"
d="M598 168q75 0 134.5 27.5t100.5 78t63 122t22 159.5t-22 159.5t-63.5 122t-100.5 78t-134 27.5t-133 -27.5t-98 -78t-60.5 -122t-20.5 -159.5t20.5 -159.5t60.5 -122t98 -78t133 -27.5zM606 -414q-98 0 -177 21t-137 59.5t-93 93t-45 121.5h182q14 -66 83.5 -105.5
t186.5 -39.5q72 0 129.5 17.5t97 50t60.5 79.5t21 107v212h-16q-51 -90 -138.5 -138t-199.5 -48q-105 0 -188.5 39t-142 109.5t-90 170t-31.5 220.5t31.5 221t90.5 171t142.5 110.5t187.5 39.5q57 0 109 -13.5t97 -38t81 -60t59 -78.5h16v171h164v-1097q0 -90 -33.5 -163
t-96 -124.5t-151.5 -79.5t-199 -28zM382 1556q0 -43 13.5 -79.5t40.5 -63.5t66 -42t90 -15t90 15t66 42t40.5 63.5t13.5 79.5h154q0 -71 -25 -131t-71.5 -104t-114.5 -68.5t-153 -24.5q-86 0 -153.5 24.5t-114 68.5t-71.5 104t-25 131h154z" />
    <glyph glyph-name="Gdotaccent" unicode="&#x120;" horiz-adv-x="1529"
d="M1395 558q0 -134 -44 -243t-124 -186.5t-193.5 -120t-251.5 -42.5q-150 0 -270.5 53t-206 151.5t-131.5 238.5t-46 313q0 171 46.5 310.5t132 238t206.5 152.5t269 54q120 0 222 -32.5t180.5 -92.5t130 -146t71.5 -193h-183q-47 147 -153.5 222.5t-267.5 75.5
q-107 0 -194 -41.5t-148 -118.5t-94 -185.5t-33 -243.5q0 -137 32.5 -246t93.5 -185.5t148 -117.5t196 -41q97 0 176.5 29.5t136.5 83.5t88.5 129t31.5 167v35h-406v158h585v-176zM782 1575q-25 0 -47 9.5t-38.5 26t-26 38.5t-9.5 47t9.5 47t26 38.5t38.5 26t47 9.5t47 -9.5
t38.5 -26t26 -38.5t9.5 -47t-9.5 -47t-26 -38.5t-38.5 -26t-47 -9.5z" />
    <glyph glyph-name="gdotaccent" unicode="&#x121;" horiz-adv-x="1248"
d="M598 168q75 0 134.5 27.5t100.5 78t63 122t22 159.5t-22 159.5t-63.5 122t-100.5 78t-134 27.5t-133 -27.5t-98 -78t-60.5 -122t-20.5 -159.5t20.5 -159.5t60.5 -122t98 -78t133 -27.5zM606 -414q-98 0 -177 21t-137 59.5t-93 93t-45 121.5h182q14 -66 83.5 -105.5
t186.5 -39.5q72 0 129.5 17.5t97 50t60.5 79.5t21 107v212h-16q-51 -90 -138.5 -138t-199.5 -48q-105 0 -188.5 39t-142 109.5t-90 170t-31.5 220.5t31.5 221t90.5 171t142.5 110.5t187.5 39.5q57 0 109 -13.5t97 -38t81 -60t59 -78.5h16v171h164v-1097q0 -90 -33.5 -163
t-96 -124.5t-151.5 -79.5t-199 -28zM594 1287q-26 0 -49.5 10t-41 27.5t-27.5 41t-10 49.5t10 49t27.5 40.5t41 27.5t49.5 10t49.5 -10t41 -27.5t27.5 -40.5t10 -49t-10 -49.5t-27.5 -41t-41 -27.5t-49.5 -10z" />
    <glyph glyph-name="Gcommaaccent" unicode="&#x122;" horiz-adv-x="1529"
d="M1395 558q0 -134 -44 -243t-124 -186.5t-193.5 -120t-251.5 -42.5q-150 0 -270.5 53t-206 151.5t-131.5 238.5t-46 313q0 171 46.5 310.5t132 238t206.5 152.5t269 54q120 0 222 -32.5t180.5 -92.5t130 -146t71.5 -193h-183q-47 147 -153.5 222.5t-267.5 75.5
q-107 0 -194 -41.5t-148 -118.5t-94 -185.5t-33 -243.5q0 -137 32.5 -246t93.5 -185.5t148 -117.5t196 -41q97 0 176.5 29.5t136.5 83.5t88.5 129t31.5 167v35h-406v158h585v-176zM618 -518l102 377h182l-117 -377h-167z" />
    <glyph glyph-name="gcommaaccent" unicode="&#x123;" horiz-adv-x="1248"
d="M598 168q75 0 134.5 27.5t100.5 78t63 122t22 159.5t-22 159.5t-63.5 122t-100.5 78t-134 27.5t-133 -27.5t-98 -78t-60.5 -122t-20.5 -159.5t20.5 -159.5t60.5 -122t98 -78t133 -27.5zM606 -414q-98 0 -177 21t-137 59.5t-93 93t-45 121.5h182q14 -66 83.5 -105.5
t186.5 -39.5q72 0 129.5 17.5t97 50t60.5 79.5t21 107v212h-16q-51 -90 -138.5 -138t-199.5 -48q-105 0 -188.5 39t-142 109.5t-90 170t-31.5 220.5t31.5 221t90.5 171t142.5 110.5t187.5 39.5q57 0 109 -13.5t97 -38t81 -60t59 -78.5h16v171h164v-1097q0 -90 -33.5 -163
t-96 -124.5t-151.5 -79.5t-199 -28zM771 1663l-102 -377h-182l117 377h167z" />
    <glyph glyph-name="Hcircumflex" unicode="&#x124;" horiz-adv-x="1520"
d="M1156 0v657h-792v-657h-180v1443h180v-624h792v624h180v-1443h-180zM842 1873l300 -298h-202l-172 177h-16l-172 -177h-202l300 298h164z" />
    <glyph glyph-name="hcircumflex" unicode="&#x125;" horiz-adv-x="1216"
d="M172 1506h172v-598h16q41 90 124 139.5t208 49.5q85 0 154 -27t117.5 -78t74.5 -125t26 -169v-698h-172v656q0 144 -63 215t-186 71q-72 0 -128 -22t-94 -62t-57.5 -96t-19.5 -124v-638h-172v1506zM340 1936l300 -298h-202l-172 177h-16l-172 -177h-202l300 298h164z" />
    <glyph glyph-name="Hbar" unicode="&#x126;" horiz-adv-x="1520"
d="M1156 1075h-792v-256h792v256zM1472 1075h-136v-1075h-180v657h-792v-657h-180v1075h-136v143h136v225h180v-225h792v225h180v-225h136v-143z" />
    <glyph glyph-name="hbar" unicode="&#x127;" horiz-adv-x="1216"
d="M360 908q41 90 124 139.5t208 49.5q85 0 154 -27t117.5 -78t74.5 -125t26 -169v-698h-172v656q0 144 -63 215t-186 71q-72 0 -128 -22t-94 -62t-57.5 -96t-19.5 -124v-638h-172v1277h-144v124h144v105h172v-105h260v-124h-260v-369h16z" />
    <glyph glyph-name="Itilde" unicode="&#x128;" horiz-adv-x="548"
d="M184 0v1443h180v-1443h-180zM419 1580q-40 0 -71 11.5t-56 29t-45 38l-38.5 38t-36 29t-37.5 11.5q-53 0 -75.5 -36t-22.5 -121h-142q0 68 16 122t46 91.5t73 57.5t97 20q40 0 71 -11.5t56 -29t45 -38l38.5 -38t36 -29t37.5 -11.5q53 0 75.5 36t22.5 121h142
q0 -68 -16 -122t-46 -91.5t-73 -57.5t-97 -20z" />
    <glyph glyph-name="itilde" unicode="&#x129;" horiz-adv-x="504"
d="M166 1078h172v-1078h-172v1078zM398 1231q-40 0 -71 11.5t-56 29t-45 38l-38.5 38t-36 29t-37.5 11.5q-53 0 -75.5 -36t-22.5 -121h-142q0 68 16 122t46 91.5t73 57.5t97 20q40 0 71 -11.5t56 -29t45 -38l38.5 -38t36 -29t37.5 -11.5q53 0 75.5 36t22.5 121h142
q0 -68 -16 -122t-46 -91.5t-73 -57.5t-97 -20z" />
    <glyph glyph-name="Imacron" unicode="&#x12a;" horiz-adv-x="548"
d="M184 0v1443h180v-1443h-180zM611 1620h-674v136h674v-136z" />
    <glyph glyph-name="imacron" unicode="&#x12b;" horiz-adv-x="504"
d="M166 1078h172v-1078h-172v1078zM589 1286h-674v136h674v-136z" />
    <glyph glyph-name="Ibreve" unicode="&#x12c;" horiz-adv-x="548"
d="M184 0v1443h180v-1443h-180zM64 1873q0 -79 56 -126t154 -47t154 47t56 126h154q0 -67 -25 -122t-72 -94t-114.5 -60.5t-152.5 -21.5t-152.5 21.5t-114.5 60.5t-72 94t-25 122h154z" />
    <glyph glyph-name="ibreve" unicode="&#x12d;" horiz-adv-x="504"
d="M166 1078h172v-1078h-172v1078zM40 1556q0 -43 13.5 -79.5t40.5 -63.5t66 -42t90 -15t90 15t66 42t40.5 63.5t13.5 79.5h154q0 -71 -25 -131t-71.5 -104t-114.5 -68.5t-153 -24.5q-86 0 -153.5 24.5t-114 68.5t-71.5 104t-25 131h154z" />
    <glyph glyph-name="Iogonek" unicode="&#x12e;" horiz-adv-x="548"
d="M184 1443h180v-1443l-5 -3q-147 -88 -147 -187q0 -43 31 -70.5t81 -27.5q43 0 66 6v-134q-45 -16 -104 -16q-53 0 -98 15t-77 42t-50 64.5t-18 82.5q0 69 36 127.5t105 100.5v1443z" />
    <glyph glyph-name="iogonek" unicode="&#x12f;" horiz-adv-x="504"
d="M252 1297q-25 0 -46.5 9.5t-38 26t-26 38t-9.5 46.5t9.5 46.5t26 38t38 26t46.5 9.5t46.5 -9.5t38 -26t26 -38t9.5 -46.5t-9.5 -46.5t-26 -38t-38 -26t-46.5 -9.5zM166 1078h172v-1078l-5 -3q-147 -88 -147 -187q0 -24 9.5 -42.5t25 -31t36 -18.5t41.5 -6q24 0 40.5 2
t25.5 4v-134q-17 -6 -42.5 -11t-61.5 -5q-56 0 -100.5 16t-76.5 43.5t-49 64.5t-17 80q0 70 38 129.5t111 102.5v1074z" />
    <glyph glyph-name="Idotaccent" unicode="&#x130;" horiz-adv-x="548"
d="M184 0v1443h180v-1443h-180zM274 1575q-25 0 -47 9.5t-38.5 26t-26 38.5t-9.5 47t9.5 47t26 38.5t38.5 26t47 9.5t47 -9.5t38.5 -26t26 -38.5t9.5 -47t-9.5 -47t-26 -38.5t-38.5 -26t-47 -9.5z" />
    <glyph glyph-name="dotlessi" unicode="&#x131;" horiz-adv-x="504"
d="M166 1078h172v-1078h-172v1078z" />
    <glyph glyph-name="IJ" unicode="&#x132;" horiz-adv-x="1650"
d="M184 0v1443h180v-1443h-180zM813 337q1 -45 18.5 -83t48 -65t72.5 -42t93 -15q116 0 178.5 68.5t62.5 202.5v1040h180v-1041q0 -103 -29 -184t-83 -137t-132 -85.5t-176 -29.5q-91 0 -166.5 27t-130 75.5t-85 117t-30.5 151.5h179z" />
    <glyph glyph-name="ij" unicode="&#x133;" horiz-adv-x="1032"
d="M166 1078h172v-1078h-172v1078zM252 1297q-25 0 -46.5 9.5t-38 26t-26 38t-9.5 46.5t9.5 46.5t26 38t38 26t46.5 9.5t46.5 -9.5t38 -26t26 -38t9.5 -46.5t-9.5 -46.5t-26 -38t-38 -26t-46.5 -9.5zM854 -53q0 -83 -20 -143t-60.5 -98.5t-102.5 -57t-147 -18.5h-30v147h26
q46 0 77 9.5t50 29.5t27 51.5t8 76.5v1134h172v-1131zM768 1297q-25 0 -46.5 9.5t-38 26t-26 38t-9.5 46.5t9.5 46.5t26 38t38 26t46.5 9.5t46.5 -9.5t38 -26t26 -38t9.5 -46.5t-9.5 -46.5t-26 -38t-38 -26t-46.5 -9.5z" />
    <glyph glyph-name="Jcircumflex" unicode="&#x134;" horiz-adv-x="1102"
d="M265 337q1 -45 18.5 -83t48 -65t72.5 -42t93 -15q116 0 178.5 68.5t62.5 202.5v1040h180v-1041q0 -103 -29 -184t-83 -137t-132 -85.5t-176 -29.5q-91 0 -166.5 27t-130 75.5t-85 117t-30.5 151.5h179zM910 1873l300 -298h-202l-172 177h-16l-172 -177h-202l300 298h164z
" />
    <glyph glyph-name="jcircumflex" unicode="&#x135;" horiz-adv-x="504"
d="M332 -53q0 -83 -20 -143t-60.5 -98.5t-102.5 -57t-147 -18.5h-30v147h26q46 0 77 9.5t50 29.5t27 51.5t8 76.5v1134h172v-1131zM637 1228h-198l-177 227h-16l-177 -227h-198l282 340h202z" />
    <glyph glyph-name="Kcommaaccent" unicode="&#x136;" horiz-adv-x="1349"
d="M184 0v1443h180v-701h16l632 701h226l-577 -623l630 -820h-233l-521 695l-173 -191v-504h-180zM489 -518l102 377h182l-117 -377h-167z" />
    <glyph glyph-name="kcommaaccent" unicode="&#x137;" horiz-adv-x="1112"
d="M828 1078h211l-464 -462l495 -616h-219l-404 505l-103 -96v-409h-172v1506h172v-899h16zM439 -518l102 377h182l-117 -377h-167z" />
    <glyph glyph-name="Lacute" unicode="&#x139;" horiz-adv-x="1163"
d="M1060 0h-876v1443h180v-1281h696v-162zM168 1575l310 298h226l-332 -298h-204z" />
    <glyph glyph-name="lacute" unicode="&#x13a;" horiz-adv-x="516"
d="M172 1506h172v-1506h-172v1506zM152 1638l310 298h226l-332 -298h-204z" />
    <glyph glyph-name="Lcommaaccent" unicode="&#x13b;" horiz-adv-x="1163"
d="M1060 0h-876v1443h180v-1281h696v-162zM458 -518l102 377h182l-117 -377h-167z" />
    <glyph glyph-name="lcommaaccent" unicode="&#x13c;" horiz-adv-x="516"
d="M172 1506h172v-1506h-172v1506zM94 -518l102 377h182l-117 -377h-167z" />
    <glyph glyph-name="Lcaron" unicode="&#x13d;" horiz-adv-x="1163"
d="M759 1443l-50 -488h-120v488h170zM1060 0h-876v1443h180v-1281h696v-162z" />
    <glyph glyph-name="lcaron" unicode="&#x13e;" horiz-adv-x="645"
d="M665 1506l-50 -488h-120v488h170zM172 1506h172v-1506h-172v1506z" />
    <glyph glyph-name="Lslash" unicode="&#x141;" horiz-adv-x="1163"
d="M1060 162v-162h-876v719l-166 -76v143l166 76v581h180v-499l292 133v-143l-292 -133v-639h696z" />
    <glyph glyph-name="lslash" unicode="&#x142;" horiz-adv-x="516"
d="M472 851l-128 -61v-790h-172v707l-128 -61v143l128 61v656h172v-573l128 61v-143z" />
    <glyph glyph-name="Nacute" unicode="&#x143;" horiz-adv-x="1520"
d="M184 0v1443h175l783 -1123h16v1123h178v-1443h-175l-783 1119h-16v-1119h-178zM654 1575l310 298h226l-332 -298h-204z" />
    <glyph glyph-name="nacute" unicode="&#x144;" horiz-adv-x="1195"
d="M162 1078h164v-170h16q41 90 120 139.5t204 49.5q183 0 280 -103t97 -296v-698h-172v656q0 146 -62 216t-192 70q-65 0 -117 -21t-89 -60t-57 -95.5t-20 -127.5v-638h-172v1078zM489 1263l252 338h220l-278 -338h-194z" />
    <glyph glyph-name="Ncommaaccent" unicode="&#x145;" horiz-adv-x="1520"
d="M184 0v1443h175l783 -1123h16v1123h178v-1443h-175l-783 1119h-16v-1119h-178zM596 -518l102 377h182l-117 -377h-167z" />
    <glyph glyph-name="ncommaaccent" unicode="&#x146;" horiz-adv-x="1195"
d="M162 1078h164v-170h16q41 90 120 139.5t204 49.5q183 0 280 -103t97 -296v-698h-172v656q0 146 -62 216t-192 70q-65 0 -117 -21t-89 -60t-57 -95.5t-20 -127.5v-638h-172v1078zM439 -518l102 377h182l-117 -377h-167z" />
    <glyph glyph-name="Ncaron" unicode="&#x147;" horiz-adv-x="1520"
d="M184 0v1443h175l783 -1123h16v1123h178v-1443h-175l-783 1119h-16v-1119h-178zM378 1873h202l172 -177h16l172 177h202l-300 -298h-164z" />
    <glyph glyph-name="ncaron" unicode="&#x148;" horiz-adv-x="1195"
d="M162 1078h164v-170h16q41 90 120 139.5t204 49.5q183 0 280 -103t97 -296v-698h-172v656q0 146 -62 216t-192 70q-65 0 -117 -21t-89 -60t-57 -95.5t-20 -127.5v-638h-172v1078zM502 1228l-282 340h198l177 -227h16l177 227h198l-282 -340h-202z" />
    <glyph glyph-name="Omacron" unicode="&#x14c;" horiz-adv-x="1579"
d="M791 1477q154 0 276 -53t207.5 -151t131 -237.5t45.5 -313.5q0 -173 -45 -312.5t-130.5 -238t-208 -152t-276.5 -53.5q-155 0 -278 53t-208.5 151.5t-131 238.5t-45.5 313q0 174 46 313.5t132.5 238t209 151t275.5 52.5zM791 1311q-110 0 -198.5 -41.5t-150.5 -118
t-95.5 -185.5t-33.5 -244q0 -134 32.5 -243t94 -186t150 -119t201.5 -42q111 0 199 42t149.5 119t94 186t32.5 243q0 135 -32.5 244t-94 185.5t-149.5 118t-199 41.5zM1128 1620h-674v136h674v-136z" />
    <glyph glyph-name="omacron" unicode="&#x14d;" horiz-adv-x="1210"
d="M605 -19q-115 0 -207 38.5t-156.5 110.5t-99 175.5t-34.5 233.5t34.5 233.5t99 175.5t156.5 110.5t207 38.5t207 -38.5t156.5 -110.5t99 -175.5t34.5 -233.5t-34.5 -233.5t-99 -175.5t-156.5 -110.5t-207 -38.5zM605 136q76 0 135.5 27t100.5 79t62 126.5t21 170.5
t-21 171t-62 126.5t-100.5 78.5t-135.5 27q-77 0 -136 -27t-100 -78.5t-62 -126.5t-21 -171t21 -170.5t62 -126.5t100 -79t136 -27zM942 1286h-674v136h674v-136z" />
    <glyph glyph-name="Obreve" unicode="&#x14e;" horiz-adv-x="1579"
d="M791 1477q154 0 276 -53t207.5 -151t131 -237.5t45.5 -313.5q0 -173 -45 -312.5t-130.5 -238t-208 -152t-276.5 -53.5q-155 0 -278 53t-208.5 151.5t-131 238.5t-45.5 313q0 174 46 313.5t132.5 238t209 151t275.5 52.5zM791 1311q-110 0 -198.5 -41.5t-150.5 -118
t-95.5 -185.5t-33.5 -244q0 -134 32.5 -243t94 -186t150 -119t201.5 -42q111 0 199 42t149.5 119t94 186t32.5 243q0 135 -32.5 244t-94 185.5t-149.5 118t-199 41.5zM581 1873q0 -79 56 -126t154 -47t154 47t56 126h154q0 -67 -25 -122t-72 -94t-114.5 -60.5t-152.5 -21.5
t-152.5 21.5t-114.5 60.5t-72 94t-25 122h154z" />
    <glyph glyph-name="obreve" unicode="&#x14f;" horiz-adv-x="1210"
d="M605 -19q-115 0 -207 38.5t-156.5 110.5t-99 175.5t-34.5 233.5t34.5 233.5t99 175.5t156.5 110.5t207 38.5t207 -38.5t156.5 -110.5t99 -175.5t34.5 -233.5t-34.5 -233.5t-99 -175.5t-156.5 -110.5t-207 -38.5zM605 136q76 0 135.5 27t100.5 79t62 126.5t21 170.5
t-21 171t-62 126.5t-100.5 78.5t-135.5 27q-77 0 -136 -27t-100 -78.5t-62 -126.5t-21 -171t21 -170.5t62 -126.5t100 -79t136 -27zM393 1556q0 -43 13.5 -79.5t40.5 -63.5t66 -42t90 -15t90 15t66 42t40.5 63.5t13.5 79.5h154q0 -71 -25 -131t-71.5 -104t-114.5 -68.5
t-153 -24.5q-86 0 -153.5 24.5t-114 68.5t-71.5 104t-25 131h154z" />
    <glyph glyph-name="Ohungarumlaut" unicode="&#x150;" horiz-adv-x="1579"
d="M791 1477q154 0 276 -53t207.5 -151t131 -237.5t45.5 -313.5q0 -173 -45 -312.5t-130.5 -238t-208 -152t-276.5 -53.5q-155 0 -278 53t-208.5 151.5t-131 238.5t-45.5 313q0 174 46 313.5t132.5 238t209 151t275.5 52.5zM791 1311q-110 0 -198.5 -41.5t-150.5 -118
t-95.5 -185.5t-33.5 -244q0 -134 32.5 -243t94 -186t150 -119t201.5 -42q111 0 199 42t149.5 119t94 186t32.5 243q0 135 -32.5 244t-94 185.5t-149.5 118t-199 41.5zM841 1575l310 298h226l-332 -298h-204zM427 1575l310 298h226l-332 -298h-204z" />
    <glyph glyph-name="ohungarumlaut" unicode="&#x151;" horiz-adv-x="1210"
d="M605 -19q-115 0 -207 38.5t-156.5 110.5t-99 175.5t-34.5 233.5t34.5 233.5t99 175.5t156.5 110.5t207 38.5t207 -38.5t156.5 -110.5t99 -175.5t34.5 -233.5t-34.5 -233.5t-99 -175.5t-156.5 -110.5t-207 -38.5zM605 136q76 0 135.5 27t100.5 79t62 126.5t21 170.5
t-21 171t-62 126.5t-100.5 78.5t-135.5 27q-77 0 -136 -27t-100 -78.5t-62 -126.5t-21 -171t21 -170.5t62 -126.5t100 -79t136 -27zM922 1601h210l-280 -338h-182zM522 1601h210l-280 -338h-182z" />
    <glyph glyph-name="OE" unicode="&#x152;" horiz-adv-x="2325"
d="M801 1311q-113 0 -203.5 -41t-153.5 -117t-97 -185.5t-34 -245.5q0 -137 33.5 -246.5t96.5 -186t153.5 -117t204.5 -40.5q109 0 195.5 40.5t147 117t92.5 186t32 246.5t-32 246.5t-92.5 185.5t-147 116.5t-195.5 40.5zM1289 247h-16q-33 -63 -85 -115t-116.5 -88.5
t-138.5 -57t-152 -20.5q-151 0 -272 52.5t-205.5 151t-130 238.5t-45.5 314q0 173 46 312.5t130.5 238t205.5 151.5t271 53q76 0 150 -19.5t139 -55.5t117.5 -86t85.5 -110h16v237h894v-162h-732v-463h695v-160h-695v-496h732v-162h-894v247z" />
    <glyph glyph-name="oe" unicode="&#x153;" horiz-adv-x="1987"
d="M1411 -19q-67 0 -128.5 16.5t-113 46.5t-89.5 72t-59 93h-16q-21 -51 -60 -93t-91.5 -72t-116 -46.5t-132.5 -16.5q-116 0 -208 38.5t-156 111t-98.5 176t-34.5 232.5q0 130 34.5 233.5t98.5 175.5t156 110.5t208 38.5q67 0 128 -15.5t113 -45.5t92.5 -73t67.5 -98h16
q27 55 67 98t90 73t108.5 45.5t123.5 15.5q109 0 195.5 -37.5t147 -107t93 -170t32.5 -226.5v-66h-775v-8q3 -80 26.5 -144.5t64 -109.5t96.5 -69.5t124 -24.5q104 0 174 36.5t104 108.5h172q-20 -70 -60.5 -125.5t-99 -93.5t-133 -58.5t-161.5 -20.5zM1698 629
q-2 72 -23 130.5t-59 100t-90.5 64t-116.5 22.5t-118 -22.5t-94 -64t-64 -100t-29 -130.5h594zM286 539q0 -96 21.5 -171t62 -126.5t100 -78.5t135.5 -27t135.5 27t100 78.5t62 126.5t21.5 171t-21.5 171t-62 126.5t-100 78.5t-135.5 27t-135.5 -27t-100 -78.5t-62 -126.5
t-21.5 -171z" />
    <glyph glyph-name="Racute" unicode="&#x154;" horiz-adv-x="1338"
d="M364 731h355q140 0 215 71t75 205q0 65 -20.5 116t-59 86.5t-93.5 54.5t-125 19h-347v-552zM364 0h-180v1443h551q104 0 189 -30.5t145 -87t93 -136t33 -176.5q0 -75 -20 -141.5t-57.5 -119.5t-91 -92.5t-121.5 -60.5l334 -599h-211l-309 571h-355v-571zM503 1575
l310 298h226l-332 -298h-204z" />
    <glyph glyph-name="racute" unicode="&#x155;" horiz-adv-x="780"
d="M162 1078h164v-160h16q12 39 40 72t68 57t88.5 37t102.5 13q21 0 45 -1.5t41 -3.5v-172q-5 1 -18 3t-29.5 3.5t-33 2.5t-29.5 1q-62 0 -113.5 -19.5t-89.5 -54.5t-59 -83t-21 -105v-668h-172v1078zM264 1263l252 338h220l-278 -338h-194z" />
    <glyph glyph-name="Rcommaaccent" unicode="&#x156;" horiz-adv-x="1338"
d="M364 731h355q140 0 215 71t75 205q0 65 -20.5 116t-59 86.5t-93.5 54.5t-125 19h-347v-552zM364 0h-180v1443h551q104 0 189 -30.5t145 -87t93 -136t33 -176.5q0 -75 -20 -141.5t-57.5 -119.5t-91 -92.5t-121.5 -60.5l334 -599h-211l-309 571h-355v-571zM445 -518
l102 377h182l-117 -377h-167z" />
    <glyph glyph-name="rcommaaccent" unicode="&#x157;" horiz-adv-x="780"
d="M162 1078h164v-160h16q12 39 40 72t68 57t88.5 37t102.5 13q21 0 45 -1.5t41 -3.5v-172q-5 1 -18 3t-29.5 3.5t-33 2.5t-29.5 1q-62 0 -113.5 -19.5t-89.5 -54.5t-59 -83t-21 -105v-668h-172v1078zM84 -518l102 377h182l-117 -377h-167z" />
    <glyph glyph-name="Rcaron" unicode="&#x158;" horiz-adv-x="1338"
d="M364 731h355q140 0 215 71t75 205q0 65 -20.5 116t-59 86.5t-93.5 54.5t-125 19h-347v-552zM364 0h-180v1443h551q104 0 189 -30.5t145 -87t93 -136t33 -176.5q0 -75 -20 -141.5t-57.5 -119.5t-91 -92.5t-121.5 -60.5l334 -599h-211l-309 571h-355v-571zM227 1873h202
l172 -177h16l172 177h202l-300 -298h-164z" />
    <glyph glyph-name="rcaron" unicode="&#x159;" horiz-adv-x="780"
d="M162 1078h164v-160h16q12 39 40 72t68 57t88.5 37t102.5 13q21 0 45 -1.5t41 -3.5v-172q-5 1 -18 3t-29.5 3.5t-33 2.5t-29.5 1q-62 0 -113.5 -19.5t-89.5 -54.5t-59 -83t-21 -105v-668h-172v1078zM277 1228l-282 340h198l177 -227h16l177 227h198l-282 -340h-202z" />
    <glyph glyph-name="Sacute" unicode="&#x15a;" horiz-adv-x="1305"
d="M297 377q8 -57 38.5 -102.5t78.5 -77.5t112.5 -49.5t141.5 -17.5q73 0 134.5 18.5t106.5 51.5t70.5 78.5t25.5 99.5q0 93 -69.5 153t-219.5 98l-185 48q-98 25 -168.5 60t-116.5 82.5t-67.5 108.5t-21.5 138q0 92 37 167.5t104 129.5t161 84t208 30q105 0 194 -29.5
t156 -82.5t106.5 -126.5t45.5 -160.5h-181q-19 112 -105 174t-222 62q-72 0 -131 -17.5t-100.5 -49t-64.5 -76t-23 -99.5q0 -42 15.5 -76t49 -61.5t86 -50t127.5 -41.5l151 -40q112 -28 191.5 -64.5t130 -85.5t74 -111.5t23.5 -141.5q0 -99 -38 -179.5t-108 -137t-169.5 -87
t-223.5 -30.5q-115 0 -210.5 29t-165.5 83t-111.5 130t-48.5 169h182zM561 1575l310 298h226l-332 -298h-204z" />
    <glyph glyph-name="sacute" unicode="&#x15b;" horiz-adv-x="1072"
d="M137 783q0 67 30.5 124.5t84.5 99.5t127.5 66t159.5 24q85 0 155.5 -20.5t123.5 -58t85.5 -91t41.5 -119.5h-170q-17 65 -78 104t-159 39q-48 0 -89.5 -11.5t-72.5 -33t-48.5 -51t-17.5 -65.5q0 -56 45.5 -92t141.5 -59l166 -40q153 -37 227 -106t74 -186q0 -72 -33 -132
t-91 -103t-137 -67t-171 -24q-90 0 -165 21t-130 59t-88.5 92.5t-40.5 121.5h177q22 -69 85.5 -109t167.5 -40q54 0 100 12.5t79 34.5t51.5 53t18.5 68q0 110 -171 152l-185 45q-76 18 -131.5 44t-91.5 61.5t-53.5 81.5t-17.5 105zM425 1263l252 338h220l-278 -338h-194z
" />
    <glyph glyph-name="Scircumflex" unicode="&#x15c;" horiz-adv-x="1305"
d="M297 377q8 -57 38.5 -102.5t78.5 -77.5t112.5 -49.5t141.5 -17.5q73 0 134.5 18.5t106.5 51.5t70.5 78.5t25.5 99.5q0 93 -69.5 153t-219.5 98l-185 48q-98 25 -168.5 60t-116.5 82.5t-67.5 108.5t-21.5 138q0 92 37 167.5t104 129.5t161 84t208 30q105 0 194 -29.5
t156 -82.5t106.5 -126.5t45.5 -160.5h-181q-19 112 -105 174t-222 62q-72 0 -131 -17.5t-100.5 -49t-64.5 -76t-23 -99.5q0 -42 15.5 -76t49 -61.5t86 -50t127.5 -41.5l151 -40q112 -28 191.5 -64.5t130 -85.5t74 -111.5t23.5 -141.5q0 -99 -38 -179.5t-108 -137t-169.5 -87
t-223.5 -30.5q-115 0 -210.5 29t-165.5 83t-111.5 130t-48.5 169h182zM749 1873l300 -298h-202l-172 177h-16l-172 -177h-202l300 298h164z" />
    <glyph glyph-name="scircumflex" unicode="&#x15d;" horiz-adv-x="1072"
d="M137 783q0 67 30.5 124.5t84.5 99.5t127.5 66t159.5 24q85 0 155.5 -20.5t123.5 -58t85.5 -91t41.5 -119.5h-170q-17 65 -78 104t-159 39q-48 0 -89.5 -11.5t-72.5 -33t-48.5 -51t-17.5 -65.5q0 -56 45.5 -92t141.5 -59l166 -40q153 -37 227 -106t74 -186q0 -72 -33 -132
t-91 -103t-137 -67t-171 -24q-90 0 -165 21t-130 59t-88.5 92.5t-40.5 121.5h177q22 -69 85.5 -109t167.5 -40q54 0 100 12.5t79 34.5t51.5 53t18.5 68q0 110 -171 152l-185 45q-76 18 -131.5 44t-91.5 61.5t-53.5 81.5t-17.5 105zM922 1228h-198l-177 227h-16l-177 -227
h-198l282 340h202z" />
    <glyph glyph-name="Scedilla" unicode="&#x15e;" horiz-adv-x="1305"
d="M771 803q112 -28 191.5 -64.5t130 -85.5t74 -111.5t23.5 -141.5q0 -93 -33 -169.5t-95 -132t-150 -89.5t-198 -41l-39 -100q103 0 159 -42.5t56 -120.5q0 -42 -16.5 -76.5t-48 -59.5t-77 -39t-102.5 -14q-45 0 -80 4.5t-66 13.5v108q9 -3 24 -5.5t32.5 -4.5t34.5 -3
t31 -1q58 0 88.5 19t30.5 54t-34.5 50t-114.5 15h-59v84l48 119q-101 9 -183.5 41.5t-143 85t-96.5 124t-43 157.5h182q8 -57 38.5 -102.5t78.5 -77.5t112.5 -49.5t141.5 -17.5q73 0 134.5 18.5t106.5 51.5t70.5 78.5t25.5 99.5q0 93 -69.5 153t-219.5 98l-185 48
q-98 25 -168.5 60t-116.5 82.5t-67.5 108.5t-21.5 138q0 92 37 167.5t104 129.5t161 84t208 30q105 0 194 -29.5t156 -82.5t106.5 -126.5t45.5 -160.5h-181q-19 112 -105 174t-222 62q-72 0 -131 -17.5t-100.5 -49t-64.5 -76t-23 -99.5q0 -42 15.5 -76t49 -61.5t86 -50
t127.5 -41.5z" />
    <glyph glyph-name="scedilla" unicode="&#x15f;" horiz-adv-x="1072"
d="M663 599q153 -37 227 -106t74 -186q0 -65 -27 -120.5t-75.5 -97.5t-115 -69t-145.5 -35l-45 -117q103 0 159 -42.5t56 -120.5q0 -42 -16.5 -76.5t-48 -59.5t-77 -39t-102.5 -14q-45 0 -80 4.5t-66 13.5v108q9 -3 24 -5.5t32.5 -4.5t34.5 -3t31 -1q58 0 88.5 19t30.5 54
t-34.5 50t-114.5 15h-59v84l54 134q-77 7 -140.5 30.5t-110 61t-75 88t-34.5 111.5h177q22 -69 85.5 -109t167.5 -40q54 0 100 12.5t79 34.5t51.5 53t18.5 68q0 110 -171 152l-185 45q-76 18 -131.5 44t-91.5 61.5t-53.5 81.5t-17.5 105q0 67 30.5 124.5t84.5 99.5t127.5 66
t159.5 24q85 0 155.5 -20.5t123.5 -58t85.5 -91t41.5 -119.5h-170q-17 65 -78 104t-159 39q-48 0 -89.5 -11.5t-72.5 -33t-48.5 -51t-17.5 -65.5q0 -56 45.5 -92t141.5 -59z" />
    <glyph glyph-name="Scaron" unicode="&#x160;" horiz-adv-x="1305"
d="M297 377q8 -57 38.5 -102.5t78.5 -77.5t112.5 -49.5t141.5 -17.5q73 0 134.5 18.5t106.5 51.5t70.5 78.5t25.5 99.5q0 93 -69.5 153t-219.5 98l-185 48q-98 25 -168.5 60t-116.5 82.5t-67.5 108.5t-21.5 138q0 92 37 167.5t104 129.5t161 84t208 30q105 0 194 -29.5
t156 -82.5t106.5 -126.5t45.5 -160.5h-181q-19 112 -105 174t-222 62q-72 0 -131 -17.5t-100.5 -49t-64.5 -76t-23 -99.5q0 -42 15.5 -76t49 -61.5t86 -50t127.5 -41.5l151 -40q112 -28 191.5 -64.5t130 -85.5t74 -111.5t23.5 -141.5q0 -99 -38 -179.5t-108 -137t-169.5 -87
t-223.5 -30.5q-115 0 -210.5 29t-165.5 83t-111.5 130t-48.5 169h182zM285 1873h202l172 -177h16l172 177h202l-300 -298h-164z" />
    <glyph glyph-name="scaron" unicode="&#x161;" horiz-adv-x="1072"
d="M137 783q0 67 30.5 124.5t84.5 99.5t127.5 66t159.5 24q85 0 155.5 -20.5t123.5 -58t85.5 -91t41.5 -119.5h-170q-17 65 -78 104t-159 39q-48 0 -89.5 -11.5t-72.5 -33t-48.5 -51t-17.5 -65.5q0 -56 45.5 -92t141.5 -59l166 -40q153 -37 227 -106t74 -186q0 -72 -33 -132
t-91 -103t-137 -67t-171 -24q-90 0 -165 21t-130 59t-88.5 92.5t-40.5 121.5h177q22 -69 85.5 -109t167.5 -40q54 0 100 12.5t79 34.5t51.5 53t18.5 68q0 110 -171 152l-185 45q-76 18 -131.5 44t-91.5 61.5t-53.5 81.5t-17.5 105zM438 1228l-282 340h198l177 -227h16
l177 227h198l-282 -340h-202z" />
    <glyph glyph-name="Tcedilla" unicode="&#x162;" horiz-adv-x="1298"
d="M739 0l-51 -132q103 0 159 -42.5t56 -120.5q0 -42 -16.5 -76.5t-48 -59.5t-77 -39t-102.5 -14q-45 0 -80 4.5t-66 13.5v108q9 -3 24 -5.5t32.5 -4.5t34.5 -3t31 -1q58 0 88.5 19t30.5 54t-34.5 50t-114.5 15h-59v84l61 150h-48v1281h-465v162h1110v-162h-465v-1259v-22z
" />
    <glyph glyph-name="tcedilla" unicode="&#x163;" horiz-adv-x="744"
d="M440 -132q103 0 159 -42.5t56 -120.5q0 -42 -16.5 -76.5t-48 -59.5t-77 -39t-102.5 -14q-45 0 -80 4.5t-66 13.5v108q9 -3 24 -5.5t32.5 -4.5t34.5 -3t31 -1q58 0 88.5 19t30.5 54t-34.5 50t-114.5 15h-59v84l69 170q-70 30 -101.5 93t-31.5 167v654h-174v144h174v279
h172v-279h240v-144h-240v-610q0 -96 37.5 -138.5t122.5 -42.5q23 0 39.5 1t40.5 3v-145q-26 -5 -50.5 -7.5t-50.5 -2.5q-15 0 -29 0.5t-27 1.5z" />
    <glyph glyph-name="Tcaron" unicode="&#x164;" horiz-adv-x="1298"
d="M559 0v1281h-465v162h1110v-162h-465v-1281h-180zM267 1873h202l172 -177h16l172 177h202l-300 -298h-164z" />
    <glyph glyph-name="tcaron" unicode="&#x165;" horiz-adv-x="744"
d="M709 1720l-50 -488h-120v488h170zM406 1357v-279h240v-144h-240v-610q0 -96 37.5 -138.5t122.5 -42.5q23 0 39.5 1t40.5 3v-145q-26 -5 -50.5 -7.5t-50.5 -2.5q-83 0 -142 16t-96.5 50.5t-55 89.5t-17.5 132v654h-174v144h174v279h172z" />
    <glyph glyph-name="Tbar" unicode="&#x166;" horiz-adv-x="1298"
d="M739 1281v-488h305v-143h-305v-650h-180v650h-305v143h305v488h-465v162h1110v-162h-465z" />
    <glyph glyph-name="tbar" unicode="&#x167;" horiz-adv-x="739"
d="M406 495v-171q0 -96 37.5 -138.5t122.5 -42.5q23 0 39.5 1t40.5 3v-145q-26 -5 -50.5 -7.5t-50.5 -2.5q-83 0 -142 16t-96.5 50.5t-55 89.5t-17.5 132v215h-178v144h178v295h-174v144h174v279h172v-279h240v-144h-240v-295h249v-144h-249z" />
    <glyph glyph-name="Utilde" unicode="&#x168;" horiz-adv-x="1524"
d="M369 508q0 -82 26 -151t76.5 -119t123.5 -78t167 -28t167 28t123 78t76.5 119t26.5 151v935h180v-947q0 -116 -39 -213t-113 -167.5t-180.5 -110t-240.5 -39.5t-240.5 39.5t-180.5 110t-113 167.5t-39 213v947h180v-935zM907 1580q-40 0 -71 11.5t-56 29t-45 38l-38.5 38
t-36 29t-37.5 11.5q-53 0 -75.5 -36t-22.5 -121h-142q0 68 16 122t46 91.5t73 57.5t97 20q40 0 71 -11.5t56 -29t45 -38l38.5 -38t36 -29t37.5 -11.5q53 0 75.5 36t22.5 121h142q0 -68 -16 -122t-46 -91.5t-73 -57.5t-97 -20z" />
    <glyph glyph-name="utilde" unicode="&#x169;" horiz-adv-x="1196"
d="M1034 0h-164v169h-16q-41 -91 -125 -139.5t-209 -48.5q-182 0 -275 104t-93 295v698h172v-656q0 -146 57.5 -215t186.5 -69q71 0 126 20.5t92.5 59.5t56.5 95t19 127v638h172v-1078zM739 1231q-40 0 -71 11.5t-56 29t-45 38l-38.5 38t-36 29t-37.5 11.5q-53 0 -75.5 -36
t-22.5 -121h-142q0 68 16 122t46 91.5t73 57.5t97 20q40 0 71 -11.5t56 -29t45 -38l38.5 -38t36 -29t37.5 -11.5q53 0 75.5 36t22.5 121h142q0 -68 -16 -122t-46 -91.5t-73 -57.5t-97 -20z" />
    <glyph glyph-name="Umacron" unicode="&#x16a;" horiz-adv-x="1524"
d="M369 508q0 -82 26 -151t76.5 -119t123.5 -78t167 -28t167 28t123 78t76.5 119t26.5 151v935h180v-947q0 -116 -39 -213t-113 -167.5t-180.5 -110t-240.5 -39.5t-240.5 39.5t-180.5 110t-113 167.5t-39 213v947h180v-935zM1099 1620h-674v136h674v-136z" />
    <glyph glyph-name="umacron" unicode="&#x16b;" horiz-adv-x="1196"
d="M1034 0h-164v169h-16q-41 -91 -125 -139.5t-209 -48.5q-182 0 -275 104t-93 295v698h172v-656q0 -146 57.5 -215t186.5 -69q71 0 126 20.5t92.5 59.5t56.5 95t19 127v638h172v-1078zM930 1286h-674v136h674v-136z" />
    <glyph glyph-name="Ubreve" unicode="&#x16c;" horiz-adv-x="1524"
d="M369 508q0 -82 26 -151t76.5 -119t123.5 -78t167 -28t167 28t123 78t76.5 119t26.5 151v935h180v-947q0 -116 -39 -213t-113 -167.5t-180.5 -110t-240.5 -39.5t-240.5 39.5t-180.5 110t-113 167.5t-39 213v947h180v-935zM552 1873q0 -79 56 -126t154 -47t154 47t56 126
h154q0 -67 -25 -122t-72 -94t-114.5 -60.5t-152.5 -21.5t-152.5 21.5t-114.5 60.5t-72 94t-25 122h154z" />
    <glyph glyph-name="ubreve" unicode="&#x16d;" horiz-adv-x="1196"
d="M1034 0h-164v169h-16q-41 -91 -125 -139.5t-209 -48.5q-182 0 -275 104t-93 295v698h172v-656q0 -146 57.5 -215t186.5 -69q71 0 126 20.5t92.5 59.5t56.5 95t19 127v638h172v-1078zM381 1556q0 -43 13.5 -79.5t40.5 -63.5t66 -42t90 -15t90 15t66 42t40.5 63.5
t13.5 79.5h154q0 -71 -25 -131t-71.5 -104t-114.5 -68.5t-153 -24.5q-86 0 -153.5 24.5t-114 68.5t-71.5 104t-25 131h154z" />
    <glyph glyph-name="Uring" unicode="&#x16e;" horiz-adv-x="1524"
d="M369 508q0 -82 26 -151t76.5 -119t123.5 -78t167 -28t167 28t123 78t76.5 119t26.5 151v935h180v-947q0 -116 -39 -213t-113 -167.5t-180.5 -110t-240.5 -39.5t-240.5 39.5t-180.5 110t-113 167.5t-39 213v947h180v-935zM762 1551q-41 0 -77.5 15t-63.5 41.5t-42.5 62.5
t-15.5 78t15.5 78t42.5 62.5t63.5 41.5t77.5 15t77.5 -15t63.5 -41.5t42.5 -62.5t15.5 -78t-15.5 -78t-42.5 -62.5t-63.5 -41.5t-77.5 -15zM762 1643q46 0 75.5 30t29.5 75q0 46 -29.5 75.5t-75.5 29.5t-75.5 -29.5t-29.5 -75.5q0 -45 29.5 -75t75.5 -30z" />
    <glyph glyph-name="uring" unicode="&#x16f;" horiz-adv-x="1196"
d="M1034 0h-164v169h-16q-41 -91 -125 -139.5t-209 -48.5q-182 0 -275 104t-93 295v698h172v-656q0 -146 57.5 -215t186.5 -69q71 0 126 20.5t92.5 59.5t56.5 95t19 127v638h172v-1078zM593 1228q-48 0 -90.5 17.5t-74 48.5t-49.5 73t-18 90t18 90t49.5 73t74 48.5
t90.5 17.5t90 -17.5t73.5 -48.5t50 -73t18.5 -90t-18.5 -90t-50 -73t-73.5 -48.5t-90 -17.5zM593 1334q26 0 48.5 9.5t39 26t25.5 39t9 48.5t-9 48.5t-25.5 39t-39 26t-48.5 9.5t-48.5 -9.5t-39 -26t-25.5 -39t-9 -48.5t9 -48.5t25.5 -39t39 -26t48.5 -9.5z" />
    <glyph glyph-name="Uhungarumlaut" unicode="&#x170;" horiz-adv-x="1524"
d="M369 508q0 -82 26 -151t76.5 -119t123.5 -78t167 -28t167 28t123 78t76.5 119t26.5 151v935h180v-947q0 -116 -39 -213t-113 -167.5t-180.5 -110t-240.5 -39.5t-240.5 39.5t-180.5 110t-113 167.5t-39 213v947h180v-935zM812 1575l310 298h226l-332 -298h-204zM398 1575
l310 298h226l-332 -298h-204z" />
    <glyph glyph-name="uhungarumlaut" unicode="&#x171;" horiz-adv-x="1196"
d="M1034 0h-164v169h-16q-41 -91 -125 -139.5t-209 -48.5q-182 0 -275 104t-93 295v698h172v-656q0 -146 57.5 -215t186.5 -69q71 0 126 20.5t92.5 59.5t56.5 95t19 127v638h172v-1078zM910 1601h210l-280 -338h-182zM510 1601h210l-280 -338h-182z" />
    <glyph glyph-name="Uogonek" unicode="&#x172;" horiz-adv-x="1524"
d="M1023 -432q-56 0 -100.5 16t-76.5 43.5t-49 64.5t-17 80q0 36 11 67t29 56.5t41.5 46.5t49.5 38v16q-11 -6 -28 -11.5t-37 -9.5t-42 -6.5t-42 -2.5q-129 0 -235 38t-181 107t-116 167t-41 218v947h180v-935q0 -86 28 -155.5t79 -118.5t123.5 -75.5t162.5 -26.5
t162.5 26.5t123.5 75.5t79 118.5t28 155.5v935h180v-947q0 -68 -14 -128.5t-44.5 -118.5t-78.5 -116t-116 -119q-65 -57 -99 -109.5t-34 -94.5q0 -24 9.5 -42.5t25 -31t36 -18.5t41.5 -6q24 0 40.5 2t25.5 4v-134q-17 -6 -42.5 -11t-61.5 -5z" />
    <glyph glyph-name="uogonek" unicode="&#x173;" horiz-adv-x="1196"
d="M1026 -416q-45 -16 -104 -16q-53 0 -98 15t-77 42t-50 64.5t-18 82.5q0 42 15 79.5t41 68.5t61 54.5t74 37.5v157h-16q-41 -91 -125 -139.5t-209 -48.5q-182 0 -275 104t-93 295v698h172v-656q0 -146 57.5 -215t186.5 -69q71 0 126 20.5t92.5 59.5t56.5 95t19 127v638
h172v-1078l-12 -5q-81 -33 -127.5 -81.5t-46.5 -103.5q0 -43 31 -70.5t81 -27.5q43 0 66 6v-134v0z" />
    <glyph glyph-name="Wcircumflex" unicode="&#x174;" horiz-adv-x="1982"
d="M653 0h-170l-393 1443h188l287 -1173h12l323 1173h182l323 -1173h12l287 1173h188l-393 -1443h-170l-332 1139h-12zM1073 1873l300 -298h-202l-172 177h-16l-172 -177h-202l300 298h164z" />
    <glyph glyph-name="wcircumflex" unicode="&#x175;" horiz-adv-x="1586"
d="M1216 0h-175l-241 834h-16l-240 -834h-174l-302 1078h174l212 -862h16l241 862h165l241 -862h16l212 862h173zM1176 1228h-198l-177 227h-16l-177 -227h-198l282 340h202z" />
    <glyph glyph-name="Ycircumflex" unicode="&#x176;" horiz-adv-x="1344"
d="M582 0v621l-512 822h205l389 -641h16l389 641h205l-512 -822v-621h-180zM754 1873l300 -298h-202l-172 177h-16l-172 -177h-202l300 298h164z" />
    <glyph glyph-name="ycircumflex" unicode="&#x177;" horiz-adv-x="1112"
d="M254 -390q-17 0 -38 1.5t-39 4.5v147q16 -3 35 -4t37 -1q37 0 66.5 9.5t53 30.5t42.5 54.5t36 82.5l20 64l-399 1079h186l296 -887h16l295 887h183l-421 -1144q-35 -94 -70 -156t-77.5 -99.5t-96 -53t-125.5 -15.5zM934 1228h-198l-177 227h-16l-177 -227h-198l282 340
h202z" />
    <glyph glyph-name="Ydieresis" unicode="&#x178;" horiz-adv-x="1344"
d="M582 0v621l-512 822h205l389 -641h16l389 641h205l-512 -822v-621h-180zM470 1575q-25 0 -47 9.5t-38.5 26t-26 38.5t-9.5 47t9.5 47t26 38.5t38.5 26t47 9.5t47 -9.5t38.5 -26t26 -38.5t9.5 -47t-9.5 -47t-26 -38.5t-38.5 -26t-47 -9.5zM874 1575q-25 0 -47 9.5
t-38.5 26t-26 38.5t-9.5 47t9.5 47t26 38.5t38.5 26t47 9.5t47 -9.5t38.5 -26t26 -38.5t9.5 -47t-9.5 -47t-26 -38.5t-38.5 -26t-47 -9.5z" />
    <glyph glyph-name="Zacute" unicode="&#x179;" horiz-adv-x="1355"
d="M144 128l817 1137v16h-789v162h1022v-128l-813 -1137v-16h830v-162h-1067v128zM572 1575l310 298h226l-332 -298h-204z" />
    <glyph glyph-name="zacute" unicode="&#x17a;" horiz-adv-x="1104"
d="M137 126l622 792v16h-621v144h826v-129l-619 -789v-16h622v-144h-830v126zM431 1263l252 338h220l-278 -338h-194z" />
    <glyph glyph-name="Zdotaccent" unicode="&#x17b;" horiz-adv-x="1355"
d="M144 128l817 1137v16h-789v162h1022v-128l-813 -1137v-16h830v-162h-1067v128zM678 1575q-25 0 -47 9.5t-38.5 26t-26 38.5t-9.5 47t9.5 47t26 38.5t38.5 26t47 9.5t47 -9.5t38.5 -26t26 -38.5t9.5 -47t-9.5 -47t-26 -38.5t-38.5 -26t-47 -9.5z" />
    <glyph glyph-name="zdotaccent" unicode="&#x17c;" horiz-adv-x="1104"
d="M137 126l622 792v16h-621v144h826v-129l-619 -789v-16h622v-144h-830v126zM545 1287q-26 0 -49.5 10t-41 27.5t-27.5 41t-10 49.5t10 49t27.5 40.5t41 27.5t49.5 10t49.5 -10t41 -27.5t27.5 -40.5t10 -49t-10 -49.5t-27.5 -41t-41 -27.5t-49.5 -10z" />
    <glyph glyph-name="Zcaron" unicode="&#x17d;" horiz-adv-x="1355"
d="M144 128l817 1137v16h-789v162h1022v-128l-813 -1137v-16h830v-162h-1067v128zM296 1873h202l172 -177h16l172 177h202l-300 -298h-164z" />
    <glyph glyph-name="zcaron" unicode="&#x17e;" horiz-adv-x="1104"
d="M137 126l622 792v16h-621v144h826v-129l-619 -789v-16h622v-144h-830v126zM444 1228l-282 340h198l177 -227h16l177 227h198l-282 -340h-202z" />
    <glyph glyph-name="florin" unicode="&#x192;" horiz-adv-x="1328"
d="M1243 1289q-42 13 -88 17.5t-102 4.5q-116 0 -178 -55.5t-78 -165.5l-31 -216h369v-144h-390l-58 -408q-13 -92 -44.5 -157.5t-80.5 -107.5t-116 -61.5t-151 -19.5q-32 0 -58.5 1.5t-52 4.5t-51.5 8t-56 13v167q99 -35 202 -35q49 0 89 10.5t70 34.5t49.5 62t27.5 93
l57 395h-336v144h356l33 227q26 178 130 272t276 94q66 0 115.5 -4.5t96.5 -16.5v-157z" />
    <glyph glyph-name="Ohorn" unicode="&#x1a0;" horiz-adv-x="1603"
d="M791 -34q-155 0 -278 53t-208.5 151.5t-131 238.5t-45.5 313q0 174 46 313.5t132.5 238t209 151t275.5 52.5q56 0 107 -6.5t101 -14t101 -13.5t107 -6q63 0 86 21.5t23 71.5v140h159v-192q0 -41 -14.5 -73t-39.5 -54t-58 -33t-70 -11h-59v-12q48 -34 88 -92.5
t68.5 -134.5t44.5 -164.5t16 -181.5q0 -173 -45 -312.5t-130.5 -238t-208 -152t-276.5 -53.5zM791 132q111 0 199 42t149.5 119t94 186t32.5 243q0 135 -32.5 244t-94 185.5t-149.5 118t-199 41.5q-110 0 -198.5 -41.5t-150.5 -118t-95.5 -185.5t-33.5 -244
q0 -134 32.5 -243t94 -186t150 -119t201.5 -42z" />
    <glyph glyph-name="ohorn" unicode="&#x1a1;" horiz-adv-x="1254"
d="M605 136q76 0 135.5 27t100 78.5t62 126.5t21.5 171t-21.5 171t-62 126.5t-100 78.5t-135.5 27t-135.5 -27t-100 -78.5t-62 -126.5t-21.5 -171t21.5 -171t62 -126.5t100 -78.5t135.5 -27zM1102 539q0 -129 -34.5 -232.5t-98.5 -176t-156.5 -111t-207.5 -38.5
q-116 0 -208 38.5t-156 111t-98.5 176t-34.5 232.5q0 130 34.5 233.5t98.5 175.5t156 110.5t208 38.5q48 0 81 -4t62 -8.5t59 -8.5t71 -4q64 0 86.5 21.5t22.5 71.5v137h159v-189q0 -40 -13 -70t-33.5 -50t-46 -30t-51.5 -10h-56v-7q70 -49 113 -155t43 -252z" />
    <glyph glyph-name="Uhorn" unicode="&#x1af;" horiz-adv-x="1659"
d="M762 -34q-129 0 -235 38t-181 107t-116 167t-41 218v947h180v-935q0 -86 28 -155.5t79 -118.5t123.5 -75.5t162.5 -26.5t162.5 26.5t123.5 75.5t79 118.5t28 155.5v935h182q48 0 69.5 21.5t21.5 66.5v159h159v-189q0 -47 -15 -81.5t-42 -58t-64 -35t-81 -11.5h-50v-819
q0 -120 -41 -218t-116 -167t-181 -107t-235 -38z" />
    <glyph glyph-name="uhorn" unicode="&#x1b0;" horiz-adv-x="1316"
d="M854 169q-41 -91 -125 -139.5t-209 -48.5q-182 0 -275 104t-93 295v698h172v-656q0 -146 57.5 -215t186.5 -69q71 0 126 20.5t92.5 59.5t56.5 95t19 127v638h144q48 0 69.5 21.5t21.5 66.5v152h159v-182q0 -47 -15 -81.5t-42 -58t-64 -35t-81 -11.5h-20v-950h-164v169
h-16v0z" />
    <glyph glyph-name="uni01C4" unicode="&#x1c4;" horiz-adv-x="2842"
d="M679 1443q160 0 286.5 -49t214.5 -141.5t134 -226.5t46 -304q0 -171 -46 -305t-133.5 -226.5t-214 -141.5t-287.5 -49h-495v1443h495zM364 162h303q121 0 215.5 37.5t159.5 109.5t99.5 175.5t34.5 235.5t-34.5 236.5t-100 176.5t-160 110t-214.5 38h-303v-1119zM1631 128
l817 1137v16h-789v162h1022v-128l-813 -1137v-16h830v-162h-1067v128zM1783 1873h202l172 -177h16l172 177h202l-300 -298h-164z" />
    <glyph glyph-name="uni01C5" unicode="&#x1c5;" horiz-adv-x="2591"
d="M679 1443q160 0 286.5 -49t214.5 -141.5t134 -226.5t46 -304q0 -171 -46 -305t-133.5 -226.5t-214 -141.5t-287.5 -49h-495v1443h495zM364 162h303q121 0 215.5 37.5t159.5 109.5t99.5 175.5t34.5 235.5t-34.5 236.5t-100 176.5t-160 110t-214.5 38h-303v-1119zM1624 126
l622 792v16h-621v144h826v-129l-619 -789v-16h622v-144h-830v126zM1931 1228l-282 340h198l177 -227h16l177 227h198l-282 -340h-202z" />
    <glyph glyph-name="uni01C6" unicode="&#x1c6;" horiz-adv-x="2362"
d="M561 -19q-104 0 -187.5 39.5t-142.5 112.5t-91 176t-32 230t32 230t91.5 176t143 112.5t186.5 39.5q113 0 202.5 -50t135.5 -139h15v598h172v-1506h-164v172h-16q-51 -91 -142 -141t-203 -50zM601 942q-74 0 -132 -27.5t-99 -79.5t-62.5 -127t-21.5 -169
q0 -95 21.5 -169.5t62 -126.5t99 -79.5t132.5 -27.5q73 0 132 28t100 80t63 127t22 168t-22 167.5t-63.5 127t-100 80.5t-131.5 28zM1395 126l622 792v16h-621v144h826v-129l-619 -789v-16h622v-144h-830v126zM1702 1228l-282 340h198l177 -227h16l177 227h198l-282 -340
h-202z" />
    <glyph glyph-name="uni01C7" unicode="&#x1c7;" horiz-adv-x="2265"
d="M1060 0h-876v1443h180v-1281h696v-162zM1428 337q1 -45 18.5 -83t48 -65t72.5 -42t93 -15q116 0 178.5 68.5t62.5 202.5v1040h180v-1041q0 -103 -29 -184t-83 -137t-132 -85.5t-176 -29.5q-91 0 -166.5 27t-130 75.5t-85 117t-30.5 151.5h179z" />
    <glyph glyph-name="uni01C8" unicode="&#x1c8;" horiz-adv-x="1679"
d="M1060 0h-876v1443h180v-1281h696v-162zM1501 -53q0 -83 -20 -143t-60.5 -98.5t-102.5 -57t-147 -18.5h-30v147h26q46 0 77 9.5t50 29.5t27 51.5t8 76.5v1134h172v-1131zM1415 1297q-25 0 -46.5 9.5t-38 26t-26 38t-9.5 46.5t9.5 46.5t26 38t38 26t46.5 9.5t46.5 -9.5
t38 -26t26 -38t9.5 -46.5t-9.5 -46.5t-26 -38t-38 -26t-46.5 -9.5z" />
    <glyph glyph-name="uni01C9" unicode="&#x1c9;" horiz-adv-x="1032"
d="M172 1506h172v-1506h-172v1506zM854 -53q0 -83 -20 -143t-60.5 -98.5t-102.5 -57t-147 -18.5h-30v147h26q46 0 77 9.5t50 29.5t27 51.5t8 76.5v1134h172v-1131zM768 1297q-25 0 -46.5 9.5t-38 26t-26 38t-9.5 46.5t9.5 46.5t26 38t38 26t46.5 9.5t46.5 -9.5t38 -26
t26 -38t9.5 -46.5t-9.5 -46.5t-26 -38t-38 -26t-46.5 -9.5z" />
    <glyph glyph-name="uni01CA" unicode="&#x1ca;" horiz-adv-x="2622"
d="M184 0v1443h175l783 -1123h16v1123h178v-1443h-175l-783 1119h-16v-1119h-178zM1785 337q1 -45 18.5 -83t48 -65t72.5 -42t93 -15q116 0 178.5 68.5t62.5 202.5v1040h180v-1041q0 -103 -29 -184t-83 -137t-132 -85.5t-176 -29.5q-91 0 -166.5 27t-130 75.5t-85 117
t-30.5 151.5h179z" />
    <glyph glyph-name="uni01CB" unicode="&#x1cb;" horiz-adv-x="2036"
d="M184 0v1443h175l783 -1123h16v1123h178v-1443h-175l-783 1119h-16v-1119h-178zM1858 -53q0 -83 -20 -143t-60.5 -98.5t-102.5 -57t-147 -18.5h-30v147h26q46 0 77 9.5t50 29.5t27 51.5t8 76.5v1134h172v-1131zM1772 1297q-25 0 -46.5 9.5t-38 26t-26 38t-9.5 46.5
t9.5 46.5t26 38t38 26t46.5 9.5t46.5 -9.5t38 -26t26 -38t9.5 -46.5t-9.5 -46.5t-26 -38t-38 -26t-46.5 -9.5z" />
    <glyph glyph-name="uni01CC" unicode="&#x1cc;" horiz-adv-x="1699"
d="M162 1078h164v-170h16q41 90 120 139.5t204 49.5q183 0 280 -103t97 -296v-698h-172v656q0 146 -62 216t-192 70q-65 0 -117 -21t-89 -60t-57 -95.5t-20 -127.5v-638h-172v1078zM1533 -53q0 -83 -20 -143t-60.5 -98.5t-102.5 -57t-147 -18.5h-30v147h26q46 0 77 9.5
t50 29.5t27 51.5t8 76.5v1134h172v-1131zM1447 1297q-25 0 -46.5 9.5t-38 26t-26 38t-9.5 46.5t9.5 46.5t26 38t38 26t46.5 9.5t46.5 -9.5t38 -26t26 -38t9.5 -46.5t-9.5 -46.5t-26 -38t-38 -26t-46.5 -9.5z" />
    <glyph glyph-name="Acaron" unicode="&#x1cd;" horiz-adv-x="1380"
d="M977 413h-574l-145 -413h-189l532 1443h178l532 -1443h-189zM456 566h468l-226 644h-16zM308 1873h202l172 -177h16l172 177h202l-300 -298h-164z" />
    <glyph glyph-name="acaron" unicode="&#x1ce;" horiz-adv-x="1130"
d="M494 132q66 0 122.5 20.5t98 56.5t64.5 85.5t23 107.5v99l-290 -19q-124 -8 -180 -51.5t-56 -124.5q0 -41 16.5 -73.5t45.5 -55t69 -34t87 -11.5zM462 -19q-78 0 -145 22.5t-115.5 64t-76 101t-27.5 133.5q0 146 102 227t291 92l311 19v98q0 100 -61.5 153t-182.5 53
q-97 0 -161 -35t-82 -99h-174q9 65 43.5 118t90 90.5t129.5 58t160 20.5q99 0 175 -24.5t128.5 -71t79.5 -113t27 -150.5v-738h-164v159h-16q-53 -87 -138 -132.5t-194 -45.5zM463 1228l-282 340h198l177 -227h16l177 227h198l-282 -340h-202z" />
    <glyph glyph-name="Icaron" unicode="&#x1cf;" horiz-adv-x="548"
d="M184 0v1443h180v-1443h-180zM-108 1873h202l172 -177h16l172 177h202l-300 -298h-164z" />
    <glyph glyph-name="icaron" unicode="&#x1d0;" horiz-adv-x="504"
d="M166 1078h172v-1078h-172v1078zM151 1228l-282 340h198l177 -227h16l177 227h198l-282 -340h-202z" />
    <glyph glyph-name="Ocaron" unicode="&#x1d1;" horiz-adv-x="1579"
d="M791 1477q154 0 276 -53t207.5 -151t131 -237.5t45.5 -313.5q0 -173 -45 -312.5t-130.5 -238t-208 -152t-276.5 -53.5q-155 0 -278 53t-208.5 151.5t-131 238.5t-45.5 313q0 174 46 313.5t132.5 238t209 151t275.5 52.5zM791 1311q-110 0 -198.5 -41.5t-150.5 -118
t-95.5 -185.5t-33.5 -244q0 -134 32.5 -243t94 -186t150 -119t201.5 -42q111 0 199 42t149.5 119t94 186t32.5 243q0 135 -32.5 244t-94 185.5t-149.5 118t-199 41.5zM409 1873h202l172 -177h16l172 177h202l-300 -298h-164z" />
    <glyph glyph-name="ocaron" unicode="&#x1d2;" horiz-adv-x="1210"
d="M605 -19q-115 0 -207 38.5t-156.5 110.5t-99 175.5t-34.5 233.5t34.5 233.5t99 175.5t156.5 110.5t207 38.5t207 -38.5t156.5 -110.5t99 -175.5t34.5 -233.5t-34.5 -233.5t-99 -175.5t-156.5 -110.5t-207 -38.5zM605 136q76 0 135.5 27t100.5 79t62 126.5t21 170.5
t-21 171t-62 126.5t-100.5 78.5t-135.5 27q-77 0 -136 -27t-100 -78.5t-62 -126.5t-21 -171t21 -170.5t62 -126.5t100 -79t136 -27zM504 1228l-282 340h198l177 -227h16l177 227h198l-282 -340h-202z" />
    <glyph glyph-name="Ucaron" unicode="&#x1d3;" horiz-adv-x="1524"
d="M369 508q0 -82 26 -151t76.5 -119t123.5 -78t167 -28t167 28t123 78t76.5 119t26.5 151v935h180v-947q0 -116 -39 -213t-113 -167.5t-180.5 -110t-240.5 -39.5t-240.5 39.5t-180.5 110t-113 167.5t-39 213v947h180v-935zM380 1873h202l172 -177h16l172 177h202l-300 -298
h-164z" />
    <glyph glyph-name="ucaron" unicode="&#x1d4;" horiz-adv-x="1196"
d="M1034 0h-164v169h-16q-41 -91 -125 -139.5t-209 -48.5q-182 0 -275 104t-93 295v698h172v-656q0 -146 57.5 -215t186.5 -69q71 0 126 20.5t92.5 59.5t56.5 95t19 127v638h172v-1078zM492 1228l-282 340h198l177 -227h16l177 227h198l-282 -340h-202z" />
    <glyph glyph-name="Udieresismacron" unicode="&#x1d5;" horiz-adv-x="1524"
d="M369 508q0 -82 26 -151t76.5 -119t123.5 -78t167 -28t167 28t123 78t76.5 119t26.5 151v935h180v-947q0 -116 -39 -213t-113 -167.5t-180.5 -110t-240.5 -39.5t-240.5 39.5t-180.5 110t-113 167.5t-39 213v947h180v-935zM560 1809q24 0 45.5 -9t37.5 -25t25 -37.5
t9 -45.5t-9 -45.5t-25 -37.5t-37.5 -25t-45.5 -9t-45.5 9t-37.5 25t-25 37.5t-9 45.5t9 45.5t25 37.5t37.5 25t45.5 9zM1099 2062v-130h-674v130h674zM964 1809q24 0 45.5 -9t37.5 -25t25 -37.5t9 -45.5t-9 -45.5t-25 -37.5t-37.5 -25t-45.5 -9t-45.5 9t-37.5 25t-25 37.5
t-9 45.5t9 45.5t25 37.5t37.5 25t45.5 9z" />
    <glyph glyph-name="udieresismacron" unicode="&#x1d6;" horiz-adv-x="1196"
d="M1034 0h-164v169h-16q-41 -91 -125 -139.5t-209 -48.5q-182 0 -275 104t-93 295v698h172v-656q0 -146 57.5 -215t186.5 -69q71 0 126 20.5t92.5 59.5t56.5 95t19 127v638h172v-1078zM391 1228q-24 0 -45.5 9t-37.5 25t-25 37.5t-9 45.5t9 45.5t25 37.5t37.5 25t45.5 9
t45.5 -9t37.5 -25t25 -37.5t9 -45.5t-9 -45.5t-25 -37.5t-37.5 -25t-45.5 -9zM795 1228q-24 0 -45.5 9t-37.5 25t-25 37.5t-9 45.5t9 45.5t25 37.5t37.5 25t45.5 9t45.5 -9t37.5 -25t25 -37.5t9 -45.5t-9 -45.5t-25 -37.5t-37.5 -25t-45.5 -9zM930 1620h-674v136h674v-136z
" />
    <glyph glyph-name="Udieresisacute" unicode="&#x1d7;" horiz-adv-x="1524"
d="M369 508q0 -82 26 -151t76.5 -119t123.5 -78t167 -28t167 28t123 78t76.5 119t26.5 151v935h180v-947q0 -116 -39 -213t-113 -167.5t-180.5 -110t-240.5 -39.5t-240.5 39.5t-180.5 110t-113 167.5t-39 213v947h180v-935zM904 2095h227l-281 -222h-176zM560 1575
q-25 0 -47 9.5t-38.5 26t-26 38.5t-9.5 47t9.5 47t26 38.5t38.5 26t47 9.5t47 -9.5t38.5 -26t26 -38.5t9.5 -47t-9.5 -47t-26 -38.5t-38.5 -26t-47 -9.5zM964 1575q-25 0 -47 9.5t-38.5 26t-26 38.5t-9.5 47t9.5 47t26 38.5t38.5 26t47 9.5t47 -9.5t38.5 -26t26 -38.5
t9.5 -47t-9.5 -47t-26 -38.5t-38.5 -26t-47 -9.5z" />
    <glyph glyph-name="udieresisacute" unicode="&#x1d8;" horiz-adv-x="1196"
d="M1034 0h-164v169h-16q-41 -91 -125 -139.5t-209 -48.5q-182 0 -275 104t-93 295v698h172v-656q0 -146 57.5 -215t186.5 -69q71 0 126 20.5t92.5 59.5t56.5 95t19 127v638h172v-1078zM683 1873h198l-218 -298h-170zM391 1228q-25 0 -47 9.5t-38.5 26t-26 38.5t-9.5 47
t9.5 47t26 38.5t38.5 26t47 9.5t47 -9.5t38.5 -26t26 -38.5t9.5 -47t-9.5 -47t-26 -38.5t-38.5 -26t-47 -9.5zM795 1228q-25 0 -47 9.5t-38.5 26t-26 38.5t-9.5 47t9.5 47t26 38.5t38.5 26t47 9.5t47 -9.5t38.5 -26t26 -38.5t9.5 -47t-9.5 -47t-26 -38.5t-38.5 -26t-47 -9.5
z" />
    <glyph glyph-name="Udieresiscaron" unicode="&#x1d9;" horiz-adv-x="1524"
d="M369 508q0 -82 26 -151t76.5 -119t123.5 -78t167 -28t167 28t123 78t76.5 119t26.5 151v935h180v-947q0 -116 -39 -213t-113 -167.5t-180.5 -110t-240.5 -39.5t-240.5 39.5t-180.5 110t-113 167.5t-39 213v947h180v-935zM370 2095h222l162 -135h16l162 135h222l-294 -233
h-196zM560 1809q24 0 45.5 -9t37.5 -25t25 -37.5t9 -45.5t-9 -45.5t-25 -37.5t-37.5 -25t-45.5 -9t-45.5 9t-37.5 25t-25 37.5t-9 45.5t9 45.5t25 37.5t37.5 25t45.5 9zM964 1809q24 0 45.5 -9t37.5 -25t25 -37.5t9 -45.5t-9 -45.5t-25 -37.5t-37.5 -25t-45.5 -9t-45.5 9
t-37.5 25t-25 37.5t-9 45.5t9 45.5t25 37.5t37.5 25t45.5 9z" />
    <glyph glyph-name="udieresiscaron" unicode="&#x1da;" horiz-adv-x="1196"
d="M1034 0h-164v169h-16q-41 -91 -125 -139.5t-209 -48.5q-182 0 -275 104t-93 295v698h172v-656q0 -146 57.5 -215t186.5 -69q71 0 126 20.5t92.5 59.5t56.5 95t19 127v638h172v-1078zM391 1228q-24 0 -45.5 9t-37.5 25t-25 37.5t-9 45.5t9 45.5t25 37.5t37.5 25t45.5 9
t45.5 -9t37.5 -25t25 -37.5t9 -45.5t-9 -45.5t-25 -37.5t-37.5 -25t-45.5 -9zM795 1228q-24 0 -45.5 9t-37.5 25t-25 37.5t-9 45.5t9 45.5t25 37.5t37.5 25t45.5 9t45.5 -9t37.5 -25t25 -37.5t9 -45.5t-9 -45.5t-25 -37.5t-37.5 -25t-45.5 -9zM492 1575l-282 320h200
l175 -207h16l175 207h200l-282 -320h-202z" />
    <glyph glyph-name="Udieresisgrave" unicode="&#x1db;" horiz-adv-x="1524"
d="M369 508q0 -82 26 -151t76.5 -119t123.5 -78t167 -28t167 28t123 78t76.5 119t26.5 151v935h180v-947q0 -116 -39 -213t-113 -167.5t-180.5 -110t-240.5 -39.5t-240.5 39.5t-180.5 110t-113 167.5t-39 213v947h180v-935zM692 1873l-281 222h227l230 -222h-176zM560 1575
q-25 0 -47 9.5t-38.5 26t-26 38.5t-9.5 47t9.5 47t26 38.5t38.5 26t47 9.5t47 -9.5t38.5 -26t26 -38.5t9.5 -47t-9.5 -47t-26 -38.5t-38.5 -26t-47 -9.5zM964 1575q-25 0 -47 9.5t-38.5 26t-26 38.5t-9.5 47t9.5 47t26 38.5t38.5 26t47 9.5t47 -9.5t38.5 -26t26 -38.5
t9.5 -47t-9.5 -47t-26 -38.5t-38.5 -26t-47 -9.5z" />
    <glyph glyph-name="udieresisgrave" unicode="&#x1dc;" horiz-adv-x="1196"
d="M1034 0h-164v169h-16q-41 -91 -125 -139.5t-209 -48.5q-182 0 -275 104t-93 295v698h172v-656q0 -146 57.5 -215t186.5 -69q71 0 126 20.5t92.5 59.5t56.5 95t19 127v638h172v-1078zM523 1575l-218 298h198l190 -298h-170zM391 1228q-25 0 -47 9.5t-38.5 26t-26 38.5
t-9.5 47t9.5 47t26 38.5t38.5 26t47 9.5t47 -9.5t38.5 -26t26 -38.5t9.5 -47t-9.5 -47t-26 -38.5t-38.5 -26t-47 -9.5zM795 1228q-25 0 -47 9.5t-38.5 26t-26 38.5t-9.5 47t9.5 47t26 38.5t38.5 26t47 9.5t47 -9.5t38.5 -26t26 -38.5t9.5 -47t-9.5 -47t-26 -38.5t-38.5 -26
t-47 -9.5z" />
    <glyph glyph-name="Adieresismacron" unicode="&#x1de;" horiz-adv-x="1380"
d="M977 413h-574l-145 -413h-189l532 1443h178l532 -1443h-189zM456 566h468l-226 644h-16zM488 1809q24 0 45.5 -9t37.5 -25t25 -37.5t9 -45.5t-9 -45.5t-25 -37.5t-37.5 -25t-45.5 -9t-45.5 9t-37.5 25t-25 37.5t-9 45.5t9 45.5t25 37.5t37.5 25t45.5 9zM1027 2062v-130
h-674v130h674zM892 1809q24 0 45.5 -9t37.5 -25t25 -37.5t9 -45.5t-9 -45.5t-25 -37.5t-37.5 -25t-45.5 -9t-45.5 9t-37.5 25t-25 37.5t-9 45.5t9 45.5t25 37.5t37.5 25t45.5 9z" />
    <glyph glyph-name="adieresismacron" unicode="&#x1df;" horiz-adv-x="1130"
d="M494 132q66 0 122.5 20.5t98 56.5t64.5 85.5t23 107.5v99l-290 -19q-124 -8 -180 -51.5t-56 -124.5q0 -41 16.5 -73.5t45.5 -55t69 -34t87 -11.5zM462 -19q-78 0 -145 22.5t-115.5 64t-76 101t-27.5 133.5q0 146 102 227t291 92l311 19v98q0 100 -61.5 153t-182.5 53
q-97 0 -161 -35t-82 -99h-174q9 65 43.5 118t90 90.5t129.5 58t160 20.5q99 0 175 -24.5t128.5 -71t79.5 -113t27 -150.5v-738h-164v159h-16q-53 -87 -138 -132.5t-194 -45.5zM362 1228q-24 0 -45.5 9t-37.5 25t-25 37.5t-9 45.5t9 45.5t25 37.5t37.5 25t45.5 9t45.5 -9
t37.5 -25t25 -37.5t9 -45.5t-9 -45.5t-25 -37.5t-37.5 -25t-45.5 -9zM766 1228q-24 0 -45.5 9t-37.5 25t-25 37.5t-9 45.5t9 45.5t25 37.5t37.5 25t45.5 9t45.5 -9t37.5 -25t25 -37.5t9 -45.5t-9 -45.5t-25 -37.5t-37.5 -25t-45.5 -9zM901 1620h-674v136h674v-136z" />
    <glyph glyph-name="Adotmacron" unicode="&#x1e0;" horiz-adv-x="1380"
d="M977 413h-574l-145 -413h-189l532 1443h178l532 -1443h-189zM456 566h468l-226 644h-16zM690 1577q-25 0 -46.5 9.5t-37.5 25.5t-25.5 37.5t-9.5 46.5t9.5 46.5t25.5 37.5t37.5 25.5t46.5 9.5t46.5 -9.5t37.5 -25.5t25.5 -37.5t9.5 -46.5t-9.5 -46.5t-25.5 -37.5
t-37.5 -25.5t-46.5 -9.5zM1027 1932h-674v130h674v-130z" />
    </font>
</defs>
</svg>
