<?xml version="1.0" encoding="UTF-8" standalone="no"?>
<!-- Created with Inkscape (http://www.inkscape.org/) -->

<svg
   width="140mm"
   height="140mm"
   viewBox="0 0 140 140"
   version="1.1"
   id="svg1"
   xml:space="preserve"
   xmlns="http://www.w3.org/2000/svg"
   xmlns:svg="http://www.w3.org/2000/svg"><defs
     id="defs1" /><g
     id="layer1"
     transform="translate(-69.577787)"><rect
       style="fill:#247d83;fill-opacity:1;stroke-width:0.264583"
       id="rect1"
       width="140"
       height="140"
       x="69.605064"
       y="-140.00502"
       transform="scale(1,-1)" /><g
       id="g1"
       transform="matrix(0.20201964,0,0,0.20201964,87.758016,40.083412)"
       style="fill:#ffffff;fill-opacity:1"><path
         d="m 128,293.2 c 0,-0.6 0.5,-2.2 1.1,-3.4 0.8,-1.9 4.4,-3.6 18.7,-8.6 9.7,-3.4 18,-6.2 18.4,-6.2 0.4,0 0.3,1.1 -0.4,2.5 -0.7,1.6 -2.7,3 -6,4.1 -3.9,1.3 -21.2,8.1 -30.5,12.1 -0.7,0.3 -1.3,0 -1.3,-0.5 z M 322.1,293 c -6,-1.4 -11.3,-6.1 -14.9,-13 -1.9,-3.6 -3.5,-6.6 -3.7,-6.8 -0.2,-0.2 -3.9,0.8 -8.4,2.2 -24.1,7.6 -44.5,4.5 -57.4,-8.7 -5.9,-6 -11.1,-15.6 -12.8,-23.8 -2.1,-9.9 0.5,-31.6 4.7,-38.9 l 1.5,-2.5 -0.5,3 c -0.3,1.7 -1.3,6.4 -2.2,10.5 -4.6,21.4 5.3,39.1 25.7,46 5.6,1.9 8,2.2 18.9,1.8 8.8,-0.3 15.1,-1.2 21.1,-2.8 l 8.6,-2.3 0.7,-6.7 c 0.6,-7.2 4.6,-22.2 7.2,-27.2 1.2,-2.3 1.6,-6.7 1.7,-18.7 0.2,-16 -4.1,-84.2 -5.4,-86.2 -0.5,-0.8 -3,-0.2 -8.4,2 -4.2,1.8 -7.9,3 -8.2,2.8 -0.2,-0.3 3.5,-2.7 8.2,-5.3 l 8.7,-4.9 -0.6,-6.5 c -0.3,-3.6 -1,-15 -1.6,-25.5 -0.6,-10.4 -1.5,-21.1 -2.1,-23.6 -0.9,-3.8 -0.7,-5.4 1.2,-10.5 1.2,-3.2 2.5,-6.3 2.9,-6.7 0.7,-0.8 12.6,29 13.7,34.4 0.7,3.8 -0.8,3.7 -4.2,-0.2 -1.4,-1.7 -2.8,-3 -3,-2.8 -0.7,0.8 1.9,35.9 2.7,35.9 1.3,0 11.6,-6.7 16.6,-10.8 l 4.3,-3.5 -3,-2.5 c -4.5,-3.5 -5.4,-5.6 -4.1,-9.7 1.4,-4.2 7.2,-9.5 10.6,-9.5 3.7,0 4.9,3.5 3.5,10.1 -1.2,5.2 -1.1,5.5 1.3,7.4 2.4,1.9 2.4,2.1 0.9,5.2 -1.5,3.1 -1.6,3.2 -3.9,1.6 -2.3,-1.5 -2.6,-1.4 -8.3,4 -3.3,3 -8.7,7.1 -12,9.2 -3.6,2.1 -6.1,4.3 -6.1,5.3 0,0.9 0.9,13.9 2,28.7 3.2,44.3 2.5,58.8 -3.5,73.8 -3.3,8.5 -7.1,23.4 -8,32 l -0.7,6.9 2.4,-0.7 c 4.4,-1.4 20.3,-9.7 27.1,-14.3 7.3,-4.8 18.1,-14.3 19.8,-17.3 0.7,-1.4 -0.2,-4.1 -4,-11.7 -2.7,-5.4 -6.4,-14.1 -8.2,-19.3 -1.8,-5.2 -3.9,-10.2 -4.8,-11.2 -1.3,-1.5 -1.3,-2.8 -0.3,-8.9 0.7,-4 1.5,-7.4 1.8,-7.7 0.6,-0.6 17.4,16 17.4,17.3 0,0.5 -2,0.6 -4.4,0.3 l -4.5,-0.6 1.6,3.7 c 0.8,2 3,6.7 4.8,10.3 7,13.9 7.9,23.3 3.4,35.4 -3.4,9.1 -19.5,23 -39.2,33.9 l -6.9,3.8 2.8,2.9 c 5.9,6.1 15.2,7.3 27.1,3.3 13.8,-4.6 36.2,-18.8 48.8,-30.7 l 7.5,-7.2 -0.6,-5 c -0.8,-7.1 -3.1,-14.9 -6.6,-22.9 l -3,-6.9 1.7,-6.4 c 1,-3.5 2.1,-6.6 2.6,-6.8 0.4,-0.3 1.7,1.2 2.9,3.5 3.1,6.1 5.7,7.4 14.1,6.8 3.9,-0.3 7.5,-1 8.1,-1.6 0.6,-0.6 0.6,-2.2 -0.1,-4.8 -2.9,-10.3 -0.4,-21 7.4,-31.8 5.3,-7.4 10.3,-11.6 14,-11.6 5.3,0 10.5,10.7 10.5,21.6 0,6.5 -2.2,15.4 -4.9,19.9 -1.1,2 -1.9,4.1 -1.6,4.6 0.4,0.5 5.4,0.9 11.3,0.9 11.5,0 16.8,-1.5 20.7,-6 3.1,-3.4 3,-12.6 -0.4,-61 -1.7,-23.9 -3.5,-51.2 -4,-60.6 -0.4,-9.3 -1.3,-17.9 -1.9,-19.1 -0.7,-1.3 -0.8,-3.1 -0.3,-4.9 1.5,-5 4.3,-11.4 5,-11.4 0.7,0 10.4,25 12.7,32.7 1.5,5 0.5,5.5 -3.3,1.7 -1.4,-1.4 -2.8,-2.3 -3.1,-1.9 -0.3,0.3 0.9,21.8 2.7,47.8 3.5,49.4 3.6,60.7 0.6,72.2 -3.6,13.7 -10.1,23 -18.1,26.1 -5.8,2.2 -20,1.3 -29.8,-2 l -6.9,-2.4 -7.6,4.1 c -6,3.3 -8.6,4.1 -12.7,4.1 h -5.1 l -0.6,10.1 c -1.2,19.1 -4.7,27.6 -15.7,37.7 -14.1,13 -33.1,24.4 -46.8,27.9 -7.9,2 -11.6,2.2 -17.1,0.9 z M 434,189.9 c 5.1,-3 9,-7 9,-9 0,-3.1 -3.9,-12.5 -5.9,-14.3 -2.5,-2.3 -4.4,-1.3 -11,5.9 -6,6.7 -7,9.4 -4.4,12.8 1.7,2.3 7.2,6.7 8.3,6.7 0.3,0 2.1,-1 4,-2.1 z M 340.8,83.4 c 0.4,-3 -2.1,-5.8 -4.6,-5 -2.8,0.9 -2.8,4.1 0,6 2.7,1.9 4.2,1.6 4.6,-1 z M 202.3,288.1 c -0.6,-2.7 -2.2,-7 -3.5,-9.7 -2,-4.2 -2.7,-4.9 -4.9,-4.6 -1.7,0.1 -3.3,-0.6 -4.9,-2.3 -2.3,-2.5 -2.3,-2.6 -0.7,-6 2.1,-4.4 4.5,-4.5 8.6,-0.5 3,3.1 7.1,12.3 7.1,16.2 0,4.1 1.6,0.4 3.4,-7.7 1.9,-8.3 4.6,-13.9 7.1,-14.9 3.3,-1.2 6.5,2 6.5,6.7 0,3.3 -1,4 -3.1,2.1 -2.3,-2.1 -5.1,-1.4 -6.6,1.6 -0.6,1.4 -2.1,6.8 -3.2,12 -2.6,11.9 -4.2,13.8 -5.8,7.1 z"
         id="path1"
         style="fill:#ffffff;fill-opacity:1" /><path
         d="m 93,281.9 c -7.1,-1.4 -12,-5.5 -16,-13.3 l -3.5,-6.9 v -14.1 c 0,-11.6 0.5,-15.5 2.3,-22 2.1,-7.3 9.9,-25.6 10.9,-25.6 0.8,0 11.3,7.2 11.9,8.1 1.1,1.8 2.2,0.8 4.3,-4.1 1.4,-3.3 2.6,-4.8 3.4,-4.4 0.7,0.4 3.8,2.5 7,4.6 6.5,4.4 6.5,4.7 2,12.5 l -2.5,4.2 -6.6,-4.4 -6.7,-4.5 -1.3,2.8 c -0.8,1.5 -2,3.7 -2.8,4.9 L 94,221.9 88.3,218 c -3.1,-2.2 -6,-4 -6.4,-4 -1,0 -4.9,16.7 -5.6,24.4 -0.8,8.7 1.6,15.4 7.6,21.6 7.9,8.2 17.3,8.7 33.8,1.8 12.6,-5.2 33.4,-19.2 44.1,-29.6 4.9,-4.7 5.2,-5.4 5.2,-9.9 0,-6.3 -2.3,-15.2 -6,-23.2 -1.7,-3.5 -3,-7 -3,-7.7 0,-2.6 3.3,-13.4 4.1,-13.4 0.4,0 1.8,1.9 3.1,4.2 2.8,5.1 5.8,6.8 11.8,6.8 8,0 19,-6.7 19,-11.5 0,-3.1 -5.1,-10.6 -11.7,-17.2 -3.2,-3.2 -16.8,-14.3 -30.2,-24.7 l -24.3,-18.9 0.6,-6 c 0.9,-8.4 3.6,-16.4 6.5,-19.4 10.5,-10.4 67.3,-38.4 101.6,-49.9 7.2,-2.4 14,-4.4 15.3,-4.4 2.6,0 2.8,-1.4 0.8,-8.9 -1.3,-4.9 -1.2,-5.9 0.4,-10.7 1.1,-3 2.3,-6.2 2.9,-7.1 1.1,-2.1 1.5,-1.5 9.2,19.1 5.1,13.4 5.9,17.2 3.5,16.3 -1.1,-0.4 -1.9,1 -3.2,5 -1.7,5.4 -1.7,6.8 1.1,46.6 2.9,42.7 2.9,53 0,64.2 -3.5,13.3 -11,24.2 -18.2,26.6 -4.7,1.5 -14,0.5 -19.7,-2.2 -2.5,-1.1 -8,-5.1 -12.2,-8.7 -15.9,-13.8 -22.4,-18.7 -22.4,-16.9 0,0.1 0.9,2.6 2,5.5 4,10.6 1.9,21.7 -5.6,30.1 -6.1,6.8 -10.5,9.4 -15.8,9.3 l -4.3,-0.1 -0.7,9 c -1.5,20.3 -4.3,27.8 -14.1,37.3 -20.6,20.1 -48.9,33.5 -64.5,30.5 z M 251.6,171.5 c 2.7,-0.8 6.3,-2.6 7.9,-3.9 l 3,-2.4 V 150.8 C 262.4,135.2 258.1,71 257,69.7 256,68.5 241.3,85.8 237.6,92.5 l -1.6,3 0.6,-3 c 1.1,-5 7.4,-15.6 14.1,-23.4 6.6,-7.8 7.5,-10.7 5.3,-16.5 -0.8,-2.2 -1.3,-2.4 -4.7,-1.9 -19.3,2.8 -90.8,35.5 -113,51.7 -2.3,1.7 -4.2,3.3 -4.3,3.6 0,0.3 2.6,1.8 5.8,3.4 22,10.7 48,27.3 69.7,44.6 16.4,13.1 20.2,15.4 27.5,17.4 7.1,1.9 8.6,1.9 14.6,0.1 z"
         id="path2"
         style="fill:#ffffff;fill-opacity:1" /><path
         d="m 234.7,161.5 c -3.6,-3.5 -3.1,-13.1 1.3,-24.8 1.2,-3.2 2.3,-5.7 2.5,-5.5 0.1,0.2 -0.7,4 -1.8,8.6 -1.5,6.3 -1.8,9.2 -1.1,12 1.2,4.8 4,5.4 7.1,1.6 l 2.3,-2.9 -1,3.5 c -1.2,4.2 -4.2,8.4 -6.2,8.8 -0.9,0.2 -2.3,-0.4 -3.1,-1.3 z m -49.8,-35 c -1.5,-0.8 -2.9,-2.1 -3.2,-2.8 -0.4,-1.2 0.2,-1.3 3.1,-0.6 5.5,1.3 30.2,-2.9 30.2,-5.1 0,-1.7 -4.5,-2.2 -14.1,-1.5 -11.4,0.8 -13.9,0.3 -13.9,-2.8 0,-5.8 12.1,-17.7 18,-17.7 1.7,0 2.1,0.5 1.8,2.8 -0.3,2.3 -0.7,2.7 -3,2.4 -2.8,-0.3 -9.5,3.5 -13.2,7.7 -2.6,2.9 -1.2,3.3 12.4,2.9 l 11.4,-0.3 1.5,2.7 c 1.4,2.4 1.4,3 -0.1,6 -1.5,3.2 -2.2,3.6 -10.5,5.6 -10.2,2.5 -16.7,2.7 -20.4,0.7 z m 242.7,150.4 c -0.2,-0.8 -0.9,-3.4 -1.6,-5.9 -0.7,-2.5 -2.1,-6.4 -3.2,-8.8 -1.8,-3.8 -2.4,-4.2 -4.7,-3.7 -2,0.4 -3.3,0 -5,-1.9 l -2.3,-2.5 1.9,-3.3 c 1,-1.8 2.7,-3.4 3.7,-3.6 3.1,-0.6 8.4,6.3 10.8,14.1 l 2.2,7.2 1.3,-5.5 c 2.6,-11.1 4.3,-15.7 6.7,-17.9 2,-1.9 2.8,-2.1 4.5,-1.2 2.9,1.6 4.3,4.6 3.5,7.6 -0.7,2.9 -1.6,3.1 -3.4,1 a 4,4 0 0 0 -3.4,-1.3 c -2.3,0.3 -3.9,4.6 -7,18.3 -1.7,7.1 -3.2,10 -4,7.4 z m 45.6,-20.7 c -2.3,-1.5 -3.2,-7.3 -2.2,-13.9 1,-5.8 4.8,-17.9 5.5,-17.1 0.1,0.2 -0.6,4 -1.8,8.4 -2.3,9.6 -1.8,14.9 1.5,16 1.7,0.5 2.7,0 4.5,-2.2 l 2.3,-2.9 -1,3.5 c -1.8,6.5 -5.7,10.1 -8.8,8.2 z M 44.3,252.8 c -3.1,-3.9 -1.9,-16.9 2.3,-25.3 1.3,-2.7 2.2,-4.1 1.8,-3 -0.3,1.1 -1.3,5.4 -2.2,9.6 -1.3,6.1 -1.4,8.2 -0.4,10.3 1.3,3 3.7,3.3 6.5,0.9 2,-1.8 2,-1.7 1.3,1.2 -1.1,4.7 -3.4,7.5 -6,7.5 -1.3,0 -2.8,-0.6 -3.3,-1.2 z m 154,-11.3 c -2.7,-1.9 -3.5,-6.7 -2.3,-14 0.9,-5.3 4.8,-17 5.5,-16.3 0.2,0.2 -0.5,3.5 -1.5,7.3 -2.4,9.1 -2.4,12.7 -0.1,15.6 l 1.9,2.4 2.6,-2.4 c 2.9,-2.7 3.3,-1.7 1.2,3.4 -1.9,4.4 -4.6,5.9 -7.3,4 z m 306.1,-16 c 0.5,-10.8 -0.5,-30.5 -4.4,-84.5 -1,-15.1 -2.4,-36.3 -3,-47 -0.6,-10.7 -1.6,-21 -2.1,-22.8 -0.9,-2.6 -0.6,-4.5 1.1,-9.7 1.2,-3.6 2.5,-6.7 3,-7 1.2,-0.7 14,32.5 14,36.4 0,1 -1.2,0.3 -3.5,-1.9 -1.9,-1.8 -3.7,-3.1 -3.9,-2.9 -0.3,0.3 1.1,23 3,50.4 4.7,66.4 4.3,80.8 -2.6,95.7 l -2,4.3 z m -237.6,5.7 c -0.3,-2.1 -1.9,-6.5 -3.4,-9.8 -2.5,-5.1 -3.2,-5.9 -5.5,-5.6 -1.6,0.1 -3.3,-0.6 -4.8,-2.2 -2.1,-2.3 -2.2,-2.5 -0.7,-5.4 2.1,-4.2 3.1,-4.5 6.5,-2.8 3.2,1.7 9.1,12.2 9.1,16.2 0,5.4 1.8,2.6 3.9,-6.1 2.5,-10.3 5,-14.5 8.6,-14.5 3,0 5.7,4.2 4.9,7.5 -0.7,2.9 -1.6,3.1 -3.4,1 -0.7,-0.8 -2.1,-1.5 -3.2,-1.5 -2.4,0 -4.1,3.9 -6.3,15 -2.5,12.4 -4.8,15.6 -5.7,8.2 z m 101.9,-22.7 c 0.3,-10.4 -0.3,-26.1 -2.1,-51.5 -1.4,-20.1 -3.3,-48.2 -4.1,-62.5 -0.9,-14.3 -2,-28.9 -2.6,-32.5 -0.6,-3.6 -1,-7.4 -1,-8.5 0,-3.1 4.3,-13.7 5.2,-12.8 1,1 10.3,25.3 12.2,32.1 0.9,2.8 1.3,5.2 0.9,5.2 -0.3,0 -2.1,-1.5 -4,-3.2 l -3.5,-3.3 0.7,12 c 0.4,6.6 1.8,27.8 3.3,47 3.3,45 3.4,66.1 0.5,76.7 -1.2,4.3 -3,9.7 -4.1,12 l -1.9,4.3 z M 16.6,216.6 C 11,214.5 5.3,208.5 2.9,202 -1,191.7 2.2,173.5 11,156.1 c 3.5,-7 3.5,-7.1 1.5,-7.1 -2.3,0 -3.5,-3.4 -3.5,-9.8 0,-5.8 2.9,-17.2 5.1,-20.2 0.9,-1.2 1,-1.1 0.4,0.5 -2,6 -3.5,15.8 -2.7,18.8 1.1,4.3 4.2,4.7 7.2,1 l 2.2,-2.8 -0.7,3 c -0.4,1.7 -1.6,4.5 -2.6,6.3 -1.1,1.9 -4.4,10.7 -7.4,19.6 -4.7,13.8 -5.5,17.4 -5.5,23.5 0,12.3 4.3,16.8 15,15.8 8,-0.7 12.1,-3.1 26.7,-15.8 7,-6.1 16.6,-13.8 21.3,-17.2 10.1,-7.4 27.4,-16.4 33,-17.3 2.2,-0.4 4,-0.9 4,-1.3 0,-0.3 -1.3,-5.1 -2.9,-10.6 -1.6,-5.5 -3.4,-13.4 -4,-17.5 -0.7,-4.1 -1.7,-8.7 -2.2,-10.1 -0.8,-2.1 -0.6,-3.7 1.1,-7.8 1.3,-2.8 2.5,-5.1 2.9,-5.1 1.1,0 13.4,21 12.8,21.7 -0.4,0.3 -1.9,0.1 -3.3,-0.6 -1.5,-0.6 -2.9,-1 -3.1,-0.7 -0.6,0.6 2.3,13.1 4.4,19.1 0.8,2.2 2.6,5.2 4.1,6.8 3.1,3.3 11.1,7.9 16.4,9.7 2.1,0.6 4.2,1.8 4.6,2.6 0.7,1.3 -0.5,13.1 -1.4,14.2 -0.1,0.2 -3.2,-0.8 -6.8,-2.2 -8.8,-3.5 -19.9,-4.4 -28.3,-2.3 -12.8,3.3 -22.4,9.3 -46.7,28.9 -21.9,17.7 -27.6,20.4 -36,17.4 z m 269.3,-52.2 -6.7,-4.6 2.8,-6.2 c 1.6,-3.3 3.4,-6 4,-5.8 0.7,0.1 3.9,2.1 7.2,4.3 5,3.4 5.8,4.4 5.2,6.2 -0.6,1.9 -5.3,10.7 -5.7,10.7 -0.1,0 -3.2,-2.1 -6.8,-4.6 z"
         id="path3"
         style="fill:#ffffff;fill-opacity:1" /><path
         d="M 43.8,140.5 C 43.5,135 42,124.6 40.5,117.3 c -2.7,-13 -2.8,-13.1 -0.9,-17 1.2,-2.4 3.2,-4.4 5.7,-5.6 4,-2 4.1,-3.7 0.2,-3.7 -1.4,0 -2.9,0.9 -3.5,2.1 -0.7,1.1 -1.4,1.9 -1.6,1.6 -0.9,-0.9 1.6,-8.5 3.2,-10.2 1.9,-1.9 1.2,-5.6 -2.7,-14.4 -2.5,-5.6 -3.1,-6.3 -5.2,-5.7 -1.6,0.4 -3.1,-0.2 -5,-2 l -2.8,-2.6 1.9,-3.1 c 1,-1.8 2.7,-3.3 3.9,-3.5 3.2,-0.5 8.7,6.7 10.8,13.9 0.9,3.4 1.9,5.9 2.1,5.6 0.3,-0.2 1.4,-4.2 2.5,-8.8 C 51,55.7 54.8,49 57.4,49 c 1.9,0 5.6,4.4 5.6,6.6 0,1 -0.5,2.6 -1,3.4 -0.9,1.3 -1.2,1.3 -2.4,-0.2 -1.4,-1.9 -5.1,-2.4 -6.1,-0.9 -1.4,2.4 -6.4,24.6 -5.6,24.9 2.1,0.7 9.1,6.3 10,8 1.9,3.5 -1.8,7.6 -8.5,9.4 -9.8,2.8 -9.7,2.7 -6.8,13.8 2.8,10.6 4.2,27.5 2.7,33 -0.8,3 -1,2.2 -1.5,-6.5 z m 378.1,-5.3 c -1.9,-1.5 -4.6,-3.4 -6,-4.3 l -2.4,-1.6 2.9,-6.2 c 1.6,-3.3 3.3,-6.1 3.6,-6.1 0.4,0 3.5,2 7.1,4.5 l 6.4,4.4 2.6,-5 2.5,-5 6.5,4.3 c 3.5,2.4 6.5,5 6.7,5.8 0.1,0.8 -1.1,3.8 -2.8,6.7 l -3,5.2 -6.6,-4.5 c -3.6,-2.6 -6.7,-4.5 -6.8,-4.3 -0.2,0.2 -1.3,2.3 -2.5,4.7 -1.2,2.3 -2.7,4.2 -3.4,4.1 -0.6,0 -2.8,-1.2 -4.8,-2.7 z M 68.6,134.8 c -2.9,-4.2 -1.9,-14.1 2.6,-25.6 2.8,-7.1 3.2,-6.1 0.7,1.8 -2.4,7.8 -2.3,16.7 0.3,18.4 1.3,0.8 2.3,0.5 4.3,-1.4 2.9,-2.7 2.9,-2.6 1.4,2.1 -2.3,6.8 -6.4,8.9 -9.3,4.7 z m 319.9,-17.5 c 0.6,-0.6 6.4,-4.2 13,-8 11.5,-6.8 24.5,-15.8 24.5,-17.1 0,-0.3 -1.6,-2 -3.5,-3.8 -4.1,-3.7 -4.5,-7 -1.5,-11.9 2.6,-4.2 8.4,-7.4 10.8,-5.9 2,1.3 2.7,6.8 1.4,11.6 -0.8,2.9 -0.6,3.6 1.6,5.4 2.4,2 2.5,2.3 1.3,5.3 -1.5,3.5 -2.3,3.8 -4.1,1.6 -0.7,-0.8 -1.5,-1.5 -1.9,-1.5 -0.4,0 -3.4,2.6 -6.7,5.8 -3.3,3.1 -8.5,7.2 -11.6,9 -7.8,4.6 -25.9,11.9 -23.3,9.5 z M 430,80.5 c 0,-4 -1.7,-5.2 -4.9,-3.5 -2.9,1.5 -2.6,3.7 0.7,5.4 3.9,2.2 4.2,2 4.2,-1.9 z m -34.4,0.3 c -2.9,-4.1 -1.6,-15.8 2.8,-26 2.4,-5.6 2.6,-4.6 0.5,2.3 -1.9,6 -2.5,14.2 -1.3,17.3 0.9,2.3 5.1,2 6.4,-0.5 1.7,-3.1 2.2,-1.7 0.9,2.2 -2.3,6.8 -6.4,8.9 -9.3,4.7 z M 94,79 c -2,-2 -2.2,-3 -1.8,-10.4 0.4,-5.1 1.4,-10.3 2.8,-13.9 1.3,-3.1 2.4,-5.6 2.6,-5.4 0.2,0.1 -0.4,3 -1.2,6.2 -2,7.5 -2.2,14.8 -0.5,16.9 1.9,2.2 2.8,2 5.8,-1.1 l 2.6,-2.8 -0.8,2.5 c -1.3,4.5 -3,7.3 -5.2,8.7 C 96.4,81 95.9,80.9 94,79 Z m 40,-19.8 c 0,-4.7 1.6,-5.6 35.3,-18 18.3,-6.7 33.5,-12.2 33.9,-12.2 0.4,0 0.3,1.1 -0.3,2.4 -0.8,1.8 -4,3.4 -13.7,7.1 -10.2,3.8 -48.5,18.9 -53.9,21.2 -0.7,0.3 -1.3,0 -1.3,-0.5 z m 298.6,-7.8 c -0.9,-0.8 -1.6,-2.9 -1.6,-4.7 0,-4.6 2.9,-15.4 6,-22.3 3.8,-8.6 7,-10.2 3.5,-1.8 -1.4,3.5 -1.4,3.5 2.5,7.4 4.2,4.2 4.8,6.3 3.9,12.9 -1.1,7.8 -9.9,13 -14.3,8.5 z m 9.5,-7.1 c 4,-2.4 3.6,-4.8 -1.1,-7.9 -5,-3.3 -6.1,-2.5 -6.8,4.5 -0.4,5 -0.4,5.1 2.3,5.1 1.5,0 4,-0.8 5.6,-1.7 z M 121.2,39.7 c -1.2,-4 -3.2,-8.8 -4.3,-10.6 -1.6,-2.7 -2.2,-3.1 -3.5,-2.1 -1.2,1 -1.9,0.9 -3.7,-0.6 -3.5,-3 -3.6,-3.5 -1.9,-7.1 2,-4.1 4.8,-4.3 8.5,-0.5 3,3.1 6.6,10.7 6.7,13.9 0,5.1 1.9,2.7 3.5,-4.5 2.8,-12.4 6,-17.1 10.5,-15.7 2.7,0.9 4.4,5.8 3,8.5 l -1.2,2.2 -1.9,-2.1 C 135.8,19.9 134.5,19 134,19 c -1.9,0 -4.1,5 -6,14 -1.2,5.1 -2.6,10.3 -3.3,11.6 -1.2,2.2 -1.4,2 -3.5,-4.9 z m 98,-4 c -2.1,-2.5 -2.2,-6.4 -0.3,-14 2.5,-9.5 6.8,-19.4 8.8,-20.1 1.1,-0.5 1.3,-0.2 0.8,1.1 -2.9,7.2 -2.9,7.3 0.3,10.6 5.3,5.7 6.1,8.8 4.1,16 -1.6,5.9 -10.6,10.1 -13.7,6.4 z m 9.6,-7.7 c 1.7,-1.1 3.2,-2.4 3.2,-2.9 0,-1.3 -7.1,-7.1 -8.6,-7.1 -2.2,0 -4.5,9.6 -2.7,11.3 1.2,1.3 4.8,0.7 8.1,-1.3 z m 57.3,7.6 c -3,-3.6 -2.2,-13.8 1.9,-24.9 1.2,-3.2 2.3,-5.7 2.5,-5.5 0.2,0.2 -0.5,3.5 -1.6,7.3 -2.1,7.8 -2.4,12.7 -0.9,15.6 1.4,2.6 4.5,2.4 6.4,-0.3 1.4,-1.9 1.6,-2 1.6,-0.5 0,2.2 -2.8,7.9 -4.4,8.9 -1.8,1.2 -4.3,0.9 -5.5,-0.6 z m 43.7,-7.8 c -0.3,-2.9 -1.8,-6.6 -3.6,-9.5 -2.1,-3.3 -2.9,-5.6 -2.5,-7.1 0.7,-2.8 1.1,-2.8 6,0.8 6.7,4.9 14.2,7 25.2,7 12.1,0 19.9,-1.9 32.4,-7.6 5.9,-2.7 11,-4.4 12.5,-4.2 2.3,0.3 2.7,0.8 3,4.1 0.3,3.9 -1.6,7.1 -10.9,17.7 l -3,3.5 1.6,-3.4 c 0.9,-1.8 3.5,-5.3 5.7,-7.7 4.2,-4.5 4.5,-7.4 1,-7.4 -1.1,0 -4.9,1.3 -8.5,3 -13,5.9 -23.1,8.3 -35.2,8.3 -8.9,0.1 -12,-0.3 -16.2,-2 l -5.3,-2.1 -0.1,3.6 c 0,2.1 -0.4,4.6 -0.8,5.7 -0.6,1.5 -0.9,0.8 -1.3,-2.7 z"
         id="path4"
         style="fill:#ffffff;fill-opacity:1" /></g></g></svg>
