<svg width="24" height="21" viewBox="0 0 24 21" fill="none" xmlns="http://www.w3.org/2000/svg">
    <path fill-rule="evenodd" clip-rule="evenodd"
        d="M13.7143 0H23.1429L24 0.867993V18.2278L23.1429 19.0958H14.0743L12.6 20.5714H11.4L9.92571 19.0958H0.857143L0 18.2278V0.867993L0.857143 0H10.2857L10.8857 0.260398L12 1.37143L13.1143 0.260398L13.7143 0ZM13.7143 17.3599H22.2857V1.73599H14.0743L12.8743 2.95118V17.8459L13.1143 17.6203L13.7143 17.3599ZM15.4286 5.20796H20.5714V6.94394H15.4286V5.20796ZM20.5714 8.67993H15.4286V10.4159H20.5714V8.67993ZM20.5714 12.1519H15.4286V13.8879H20.5714V12.1519ZM4.2449 7.33929C4.2449 6.44786 5.10476 5.71429 6.14966 5.71429C6.48163 5.71429 6.81361 5.78857 7.10204 5.9325L6.55782 6.73571C6.42177 6.67536 6.29116 6.64286 6.14966 6.64286C5.69252 6.64286 5.33333 6.94929 5.33333 7.33929C5.33333 7.70143 5.64898 7.98929 6.05714 8.03571L8.47891 7.47393L8.7619 8.37L5.92653 9.02C5.52154 9.11222 5.16368 9.31614 4.90872 9.6C4.65377 9.88385 4.51604 10.2317 4.51701 10.5893C4.51701 11.4946 5.36599 12.2143 6.42177 12.2143C7.18367 12.2143 7.93469 12.0425 8.59864 11.7175L9.14286 12.5207C8.32653 12.9293 7.37959 13.1429 6.42177 13.1429C4.77279 13.1429 3.42857 11.9961 3.42857 10.5893C3.42857 9.71643 3.95646 8.9225 4.78912 8.45821C4.4517 8.16571 4.2449 7.77107 4.2449 7.33929Z"
        fill="#868E96" />
</svg>
