<svg width="24" height="21" viewBox="0 0 24 21" fill="none" xmlns="http://www.w3.org/2000/svg">
    <g clip-path="url(#clip0_2061_4731)">
        <path fill-rule="evenodd" clip-rule="evenodd"
            d="M13.7143 0H23.1429L24 0.867993V18.2278L23.1429 19.0958H14.0743L12.6 20.5714H11.4L9.92571 19.0958H0.857143L0 18.2278V0.867993L0.857143 0H10.2857L10.8857 0.260398L12 1.37143L13.1143 0.260398L13.7143 0ZM10.8343 17.6203L11.1429 17.9154L11.1943 3.02061L9.92571 1.73599H1.71429V17.3599H10.2857L10.8343 17.6203ZM13.7143 17.3599H22.2857V1.73599H14.0743L12.8743 2.95118V17.8459L13.1143 17.6203L13.7143 17.3599ZM3.42857 12.1519H8.57143V13.8879H3.42857V12.1519ZM15.4286 5.20796H20.5714V6.94394H15.4286V5.20796ZM20.5714 8.67993H15.4286V10.4159H20.5714V8.67993Z"
            fill="#868E96" />
    </g>
    <defs>
        <clipPath id="clip0_2061_4731">
            <rect width="24" height="20.5714" fill="white" />
        </clipPath>
    </defs>
</svg>
