<svg width="24" height="21" viewBox="0 0 24 21" fill="none" xmlns="http://www.w3.org/2000/svg">
    <path fill-rule="evenodd" clip-rule="evenodd"
        d="M23.1429 0H13.7143L13.1143 0.260398L12 1.37143L10.8857 0.260398L10.2857 0H0.857143L0 0.867993V18.2278L0.857143 19.0958H9.92571L11.4 20.5714H12.6L14.0743 19.0958H23.1429L24 18.2278V0.867993L23.1429 0ZM11.1429 17.9154L10.8343 17.6203L10.2857 17.3599H1.71429V1.73599H9.92571L11.1943 3.02061L11.1429 17.9154ZM22.2857 17.3599H13.7143L13.1143 17.6203L12.8743 17.8459V2.95118L14.0743 1.73599H22.2857V17.3599ZM8.57143 5.20796H3.42857V6.94394H8.57143V5.20796ZM8.57143 12.1519H3.42857V13.8879H8.57143V12.1519ZM3.42857 8.67993H8.57143V10.4159H3.42857V8.67993ZM20.5714 5.20796H15.4286V6.94394H20.5714V5.20796ZM15.4286 8.67993H20.5714V10.4159H15.4286V8.67993ZM15.4286 12.1519H20.5714V13.8879H15.4286V12.1519Z"
        fill="#868E96" />
</svg>
