<svg width="24" height="21" viewBox="0 0 24 21" fill="none" xmlns="http://www.w3.org/2000/svg">
    <path fill-rule="evenodd" clip-rule="evenodd"
        d="M13.7143 0H23.1429L24 0.867993V18.2278L23.1429 19.0958H14.0743L12.6 20.5714H11.4L9.92571 19.0958H0.857143L0 18.2278V0.867993L0.857143 0H10.2857L10.8857 0.260398L12 1.37143L13.1143 0.260398L13.7143 0ZM13.7143 17.3599H22.2857V1.73599H14.0743L12.8743 2.95118V17.8459L13.1143 17.6203L13.7143 17.3599ZM15.4286 5.20796H20.5714V6.94394H15.4286V5.20796ZM20.5714 8.67993H15.4286V10.4159H20.5714V8.67993ZM20.5714 12.1519H15.4286V13.8879H20.5714V12.1519ZM9.08729 7.15577C9.09962 6.87759 9.11814 6.58757 9.14286 6.28571C8.87119 6.29163 8.56557 6.29755 8.22598 6.30347C7.88639 6.30939 7.54681 6.31235 7.20722 6.31235H6.29034H5.37347C5.03388 6.31235 4.6943 6.30939 4.35471 6.30347C4.0213 6.29755 3.71259 6.29163 3.42857 6.28571C3.45327 6.58757 3.4687 6.87759 3.47488 7.15577C3.48723 7.43395 3.4934 7.64703 3.4934 7.795C3.4934 7.92521 3.49031 8.0495 3.48414 8.16788C3.48414 8.28625 3.47797 8.38687 3.46562 8.46973H3.67863C3.78977 7.96664 3.91943 7.57304 4.06761 7.28894C4.21579 6.99892 4.39484 6.79472 4.60477 6.67635C4.8147 6.55206 5.06166 6.48991 5.34568 6.48991H5.54943V11.5593C5.54943 11.7961 5.52473 11.9737 5.47534 12.092C5.42595 12.2104 5.33024 12.2903 5.18824 12.3317C5.04623 12.3672 4.8363 12.3879 4.55846 12.3939V12.5714C4.74369 12.5655 4.98757 12.5596 5.29011 12.5537C5.59265 12.5477 5.91371 12.5448 6.2533 12.5448C6.59906 12.5448 6.92938 12.5477 7.24427 12.5537C7.56533 12.5596 7.82156 12.5655 8.01297 12.5714V12.3939C7.7413 12.3879 7.53446 12.3672 7.39245 12.3317C7.25045 12.2903 7.15166 12.2104 7.09609 12.092C7.04669 11.9737 7.022 11.7961 7.022 11.5593V6.48991H7.23501C7.51903 6.48991 7.76599 6.55206 7.97592 6.67635C8.18585 6.79472 8.3649 6.99892 8.51308 7.28894C8.66744 7.57896 8.79401 7.97256 8.8928 8.46973H9.10581C9.09962 8.38687 9.09348 8.28625 9.08729 8.16788C9.08109 8.0495 9.07803 7.92521 9.07803 7.795C9.07803 7.64703 9.08109 7.43395 9.08729 7.15577Z"
        fill="#868E96" />
</svg>
