<svg width="136" height="40" xmlns="http://www.w3.org/2000/svg"><g fill-rule="nonzero" fill="none"><path d="M9.542 39.999c-.35 0-.69-.004-1.036-.011a15.87 15.87 0 0 1-2.14-.17 7.19 7.19 0 0 1-1.896-.574 6.198 6.198 0 0 1-1.6-1.063 5.62 5.62 0 0 1-1.79-3.193 11.887 11.887 0 0 1-.19-1.96c-.007-.221-.017-.956-.017-.956V7.916s.01-.723.017-.935c.009-.656.072-1.31.19-1.958a5.67 5.67 0 0 1 1.784-3.2A6.38 6.38 0 0 1 4.469.754 7.117 7.117 0 0 1 6.362.185C7.072.08 7.79.022 8.509.014L9.542 0h117.656l1.046.013a15.49 15.49 0 0 1 2.127.17c.665.103 1.31.297 1.913.573 1.188.56 2.155 1.444 2.765 2.53.298.544.505 1.125.613 1.725.118.652.185 1.312.199 1.973.003.297.003.615.003.931.009.392.009.766.009 1.142v21.885c0 .38 0 .75-.009 1.124 0 .34 0 .652-.004.972-.014.65-.08 1.298-.196 1.939a5.642 5.642 0 0 1-.618 1.746 5.79 5.79 0 0 1-1.163 1.449 6.203 6.203 0 0 1-1.602 1.07 7.163 7.163 0 0 1-1.91.574c-.708.106-1.423.163-2.14.17-.335.008-.686.012-1.027.012l-1.241.002-116.421-.002z" fill="#000"/><g fill="#FFF"><path d="M33.642 20.302a4.949 4.949 0 0 1 2.356-4.152 5.066 5.066 0 0 0-3.99-2.158c-1.68-.176-3.308 1.005-4.164 1.005-.872 0-2.19-.988-3.608-.958a5.315 5.315 0 0 0-4.473 2.728c-1.934 3.348-.491 8.269 1.361 10.976.927 1.325 2.01 2.805 3.428 2.753 1.387-.058 1.905-.885 3.58-.885 1.658 0 2.144.885 3.59.852 1.489-.025 2.426-1.332 3.32-2.67a10.962 10.962 0 0 0 1.52-3.092 4.782 4.782 0 0 1-2.92-4.4zM30.91 12.212a4.872 4.872 0 0 0 1.115-3.49 4.957 4.957 0 0 0-3.208 1.659 4.636 4.636 0 0 0-1.144 3.361 4.1 4.1 0 0 0 3.237-1.53zM51.175 27.14h-4.733l-1.137 3.357H43.3l4.484-12.418h2.083l4.483 12.418h-2.039l-1.136-3.356zm-4.243-1.548h3.752l-1.85-5.447h-.051l-1.85 5.447zM64.033 25.97c0 2.814-1.506 4.622-3.779 4.622a3.07 3.07 0 0 1-2.848-1.584h-.043v4.484h-1.859V21.443h1.8v1.506h.033a3.212 3.212 0 0 1 2.883-1.6c2.298 0 3.813 1.816 3.813 4.622zm-1.91 0c0-1.832-.948-3.037-2.393-3.037-1.42 0-2.375 1.23-2.375 3.038 0 1.824.955 3.046 2.375 3.046 1.445 0 2.393-1.197 2.393-3.046zM73.998 25.97c0 2.814-1.506 4.622-3.779 4.622a3.07 3.07 0 0 1-2.848-1.584h-.043v4.484h-1.859V21.443h1.799v1.506h.034a3.212 3.212 0 0 1 2.883-1.6c2.298 0 3.813 1.816 3.813 4.622zm-1.91 0c0-1.832-.948-3.037-2.393-3.037-1.42 0-2.375 1.23-2.375 3.038 0 1.824.955 3.046 2.375 3.046 1.445 0 2.392-1.197 2.392-3.046zM80.583 27.037c.138 1.232 1.334 2.04 2.97 2.04 1.566 0 2.693-.808 2.693-1.919 0-.964-.68-1.54-2.29-1.936l-1.609-.388c-2.28-.55-3.339-1.617-3.339-3.348 0-2.142 1.867-3.614 4.519-3.614 2.624 0 4.423 1.472 4.483 3.614h-1.876c-.112-1.239-1.136-1.987-2.634-1.987-1.497 0-2.521.757-2.521 1.858 0 .878.654 1.395 2.255 1.79l1.368.336c2.548.603 3.606 1.626 3.606 3.443 0 2.323-1.85 3.778-4.793 3.778-2.754 0-4.614-1.42-4.734-3.667h1.902zM92.22 19.3v2.143h1.72v1.472h-1.72v4.991c0 .776.344 1.137 1.1 1.137.205-.004.41-.018.612-.043v1.463c-.34.063-.686.092-1.032.086-1.833 0-2.548-.689-2.548-2.445v-5.189h-1.316v-1.472h1.316v-2.142h1.867zM94.938 25.97c0-2.848 1.678-4.638 4.294-4.638 2.625 0 4.295 1.79 4.295 4.639 0 2.856-1.661 4.638-4.295 4.638-2.633 0-4.294-1.782-4.294-4.638zm6.695 0c0-1.953-.895-3.107-2.401-3.107-1.506 0-2.4 1.162-2.4 3.108 0 1.962.894 3.106 2.4 3.106 1.506 0 2.401-1.144 2.401-3.106zM105.06 21.443h1.772v1.541h.043a2.16 2.16 0 0 1 2.177-1.635c.214-.001.428.022.637.069v1.738a2.598 2.598 0 0 0-.835-.112 1.873 1.873 0 0 0-1.937 2.083v5.37h-1.858v-9.054zM118.257 27.838c-.25 1.643-1.85 2.771-3.898 2.771-2.634 0-4.269-1.764-4.269-4.595 0-2.84 1.644-4.682 4.19-4.682 2.506 0 4.08 1.72 4.08 4.466v.637h-6.394v.112a2.358 2.358 0 0 0 2.436 2.564 2.048 2.048 0 0 0 2.09-1.273h1.765zm-6.282-2.702h4.526a2.177 2.177 0 0 0-2.22-2.298 2.292 2.292 0 0 0-2.306 2.298z"/><g><path d="M46.7 8.732a2.64 2.64 0 0 1 2.807 2.965c0 1.906-1.03 3.002-2.808 3.002h-2.155V8.732h2.155zm-1.23 5.123h1.126a1.876 1.876 0 0 0 1.967-2.146 1.881 1.881 0 0 0-1.967-2.134H45.47v4.28zM50.554 12.445a2.133 2.133 0 1 1 4.247 0 2.134 2.134 0 1 1-4.247 0zm3.333 0c0-.976-.439-1.547-1.208-1.547-.773 0-1.207.571-1.207 1.547 0 .984.434 1.55 1.207 1.55.77 0 1.208-.57 1.208-1.55zM60.446 14.699h-.922l-.93-3.317h-.07l-.927 3.317h-.913l-1.242-4.503h.902l.806 3.436h.067l.926-3.436h.852l.926 3.436h.07l.803-3.436h.889zM62.727 10.196h.855v.715h.066c.231-.527.771-.849 1.344-.802a1.465 1.465 0 0 1 1.559 1.675v2.915h-.889v-2.692c0-.724-.314-1.084-.972-1.084a1.033 1.033 0 0 0-1.075 1.141V14.7h-.888v-4.503zM67.967 8.438h.888v6.26h-.888zM70.09 12.445a2.133 2.133 0 1 1 4.248 0 2.134 2.134 0 1 1-4.247 0zm3.334 0c0-.976-.439-1.547-1.208-1.547-.773 0-1.207.571-1.207 1.547 0 .984.434 1.55 1.207 1.55.77 0 1.208-.57 1.208-1.55zM75.274 13.425c0-.81.603-1.278 1.675-1.344l1.22-.07v-.389c0-.475-.315-.744-.922-.744-.497 0-.84.182-.939.5h-.86c.09-.773.818-1.27 1.84-1.27 1.128 0 1.765.563 1.765 1.514V14.7h-.855v-.633h-.07c-.291.462-.808.732-1.353.707a1.36 1.36 0 0 1-1.501-1.348zm2.894-.384v-.377l-1.1.07c-.62.042-.9.253-.9.65 0 .405.351.64.834.64a1.062 1.062 0 0 0 1.166-.983zM80.221 12.445c0-1.423.732-2.324 1.87-2.324a1.484 1.484 0 0 1 1.38.79h.067V8.438h.888v6.26h-.851v-.71h-.07a1.563 1.563 0 0 1-1.415.785c-1.145 0-1.869-.901-1.869-2.328zm.918 0c0 .955.45 1.53 1.203 1.53.75 0 1.212-.583 1.212-1.526 0-.938-.468-1.53-1.212-1.53-.748 0-1.203.58-1.203 1.526zM88.103 12.445a2.133 2.133 0 1 1 4.247 0 2.134 2.134 0 1 1-4.247 0zm3.333 0c0-.976-.438-1.547-1.208-1.547-.772 0-1.207.571-1.207 1.547 0 .984.435 1.55 1.207 1.55.77 0 1.208-.57 1.208-1.55zM93.542 10.196h.856v.715h.066c.231-.527.77-.849 1.344-.802a1.465 1.465 0 0 1 1.559 1.675v2.915h-.889v-2.692c0-.724-.314-1.084-.972-1.084a1.033 1.033 0 0 0-1.075 1.141V14.7h-.889v-4.503zM102.388 9.075v1.141h.976v.749h-.976v2.315c0 .472.195.679.637.679.113 0 .226-.008.339-.021v.74c-.16.029-.322.044-.484.046-.988 0-1.381-.348-1.381-1.216v-2.543h-.715v-.749h.715V9.075h.89zM104.578 8.438h.88v2.481h.07a1.386 1.386 0 0 1 1.374-.806 1.483 1.483 0 0 1 1.55 1.679v2.907h-.889V12.01c0-.72-.335-1.084-.963-1.084a1.052 1.052 0 0 0-1.134 1.142v2.63h-.888V8.438zM113.634 13.483a1.828 1.828 0 0 1-1.95 1.303 2.045 2.045 0 0 1-2.081-2.325 2.077 2.077 0 0 1 2.076-2.352c1.253 0 2.009.856 2.009 2.27v.31h-3.18v.05a1.19 1.19 0 0 0 1.2 1.29 1.08 1.08 0 0 0 1.07-.546h.856zm-3.126-1.451h2.275a1.086 1.086 0 0 0-1.109-1.167 1.152 1.152 0 0 0-1.166 1.167z"/></g></g></g></svg>