<svg xmlns="http://www.w3.org/2000/svg" xmlns:xlink="http://www.w3.org/1999/xlink" fill="none" width="48px"
    height="48px" viewBox="0 0 48 48" version="1.1">
    <g id="surface1">
        <path fill="black"
            d="M 28.667969 0 L 14.878906 0 C 12.347656 0 10.164062 2.007812 10.164062 4.539062 L 10.164062 5.492188 L 9.289062 5.492188 C 6.757812 5.492188 4.574219 7.5 4.574219 10.03125 L 4.574219 43.285156 C 4.574219 45.816406 6.664062 48 9.289062 48 L 33.289062 48 C 35.820312 48 37.828125 45.910156 37.828125 43.285156 L 37.828125 42.414062 L 38.878906 42.414062 C 41.410156 42.414062 43.414062 40.320312 43.414062 37.695312 L 43.414062 14.746094 Z M 28.667969 5.148438 L 38.269531 14.746094 L 28.667969 14.746094 Z M 34.171875 43.285156 C 34.171875 43.808594 33.824219 44.242188 33.300781 44.242188 L 9.300781 44.242188 C 8.773438 44.242188 8.34375 43.800781 8.34375 43.285156 L 8.34375 10.125 C 8.34375 9.683594 8.785156 9.253906 9.300781 9.253906 L 10.171875 9.253906 L 10.171875 38.746094 C 10.171875 41.277344 11.390625 42.496094 13.921875 42.496094 L 34.171875 42.496094 Z M 39.75 37.789062 C 39.75 38.316406 39.402344 38.746094 38.878906 38.746094 L 14.878906 38.746094 C 14.351562 38.746094 13.921875 38.304688 13.921875 37.789062 L 13.921875 4.539062 C 13.921875 4.097656 14.363281 3.664062 14.878906 3.664062 L 25.003906 3.664062 L 25.003906 18.414062 L 39.75 18.414062 Z M 39.75 37.789062 " />
    </g>
</svg>