<svg width="24" height="24" viewBox="0 0 24 24" fill="none" xmlns="http://www.w3.org/2000/svg">
<path d="M0 17.8523V21.0227H3.17045C3.17045 19.2684 1.75432 17.8523 0 17.8523ZM0 13.625V15.7386C2.91682 15.7386 5.28409 18.1059 5.28409 21.0227H7.39773C7.39773 16.9328 4.08989 13.625 0 13.625ZM19.0227 6.22727H4.22727V7.94989C8.41227 9.30261 11.7201 12.6105 13.0728 16.7955H19.0227V6.22727ZM0 9.39773V11.5114C5.25239 11.5114 9.51136 15.7703 9.51136 21.0227H11.625C11.625 14.5973 6.41489 9.39773 0 9.39773ZM21.1364 2H2.11364C0.951136 2 0 2.95114 0 4.11364V7.28409H2.11364V4.11364H21.1364V18.9091H13.7386V21.0227H21.1364C22.2989 21.0227 23.25 20.0716 23.25 18.9091V4.11364C23.25 2.95114 22.2989 2 21.1364 2Z" fill="black"/>
</svg>
