<svg width="24" height="24" viewBox="0 0 24 24" fill="none" xmlns="http://www.w3.org/2000/svg">
    <path
        d="M20.8906 0H3.45312C2.58125 0 2 0.58125 2 1.45312V21.7969C2 22.6688 2.58125 23.25 3.45312 23.25H20.8906C21.7625 23.25 22.3438 22.6688 22.3438 21.7969V1.45312C22.3438 0.58125 21.7625 0 20.8906 0ZM6.35938 18.8906C5.4875 18.8906 4.90625 18.3094 4.90625 17.4375C4.90625 16.5656 5.4875 15.9844 6.35938 15.9844C7.23125 15.9844 7.8125 16.5656 7.8125 17.4375C7.8125 18.3094 7.23125 18.8906 6.35938 18.8906ZM6.35938 13.0781C5.4875 13.0781 4.90625 12.4969 4.90625 11.625C4.90625 10.7531 5.4875 10.1719 6.35938 10.1719C7.23125 10.1719 7.8125 10.7531 7.8125 11.625C7.8125 12.4969 7.23125 13.0781 6.35938 13.0781ZM6.35938 7.26562C5.4875 7.26562 4.90625 6.68437 4.90625 5.8125C4.90625 4.94063 5.4875 4.35938 6.35938 4.35938C7.23125 4.35938 7.8125 4.94063 7.8125 5.8125C7.8125 6.68437 7.23125 7.26562 6.35938 7.26562ZM19.4375 10.1719H10.7188V5.8125H19.4375V10.1719Z"
        fill="currentColor" />
</svg>