<svg width="25" height="24" viewBox="0 0 25 24" fill="none" xmlns="http://www.w3.org/2000/svg">
<g clip-path="url(#clip0)">
<path d="M14.0689 0C13.0633 0 12.0803 0.298183 11.2442 0.856842C10.4081 1.4155 9.75649 2.20954 9.37168 3.13856C8.98687 4.06758 8.88619 5.08984 9.08236 6.07608C9.27854 7.06231 9.76276 7.96823 10.4738 8.67927C11.1848 9.39031 12.0908 9.87453 13.077 10.0707C14.0632 10.2669 15.0855 10.1662 16.0145 9.78139C16.9435 9.39657 17.7376 8.74492 18.2962 7.90883C18.8549 7.07274 19.1531 6.08976 19.1531 5.0842C19.1517 3.7362 18.6156 2.4438 17.6625 1.49062C16.7093 0.537435 15.4169 0.00134733 14.0689 0ZM14.7908 7.27041H13.3367V2.90816H14.7908V7.27041Z" fill="black"/>
<path d="M23.4492 16.2225C23.3443 15.7458 23.0798 15.3192 22.6994 15.0134C22.319 14.7076 21.8455 14.5409 21.3575 14.5408H16.8629C16.9355 14.8851 16.972 15.2359 16.9719 15.5878V16.3148C16.9719 16.5076 16.8953 16.6926 16.759 16.8289C16.6227 16.9652 16.4377 17.0418 16.2449 17.0418H7.52041V15.5878H15.5179C15.5179 14.6236 15.1349 13.699 14.4531 13.0173C13.7714 12.3356 12.8468 11.9526 11.8827 11.9526H7.18452C6.67431 11.3923 6.05249 10.945 5.35906 10.6395C4.66562 10.334 3.91592 10.177 3.15816 10.1786H0.25V18.176L6.93151 21.5204C8.2446 22.1771 9.75745 22.313 11.1665 21.9007L21.9587 18.7417C22.4805 18.5894 22.9249 18.2443 23.2016 17.7765C23.4784 17.3087 23.5669 16.7531 23.4492 16.2225Z" fill="black"/>
</g>
<defs>
<clipPath id="clip0">
<rect width="24" height="24" fill="white" transform="translate(0.25)"/>
</clipPath>
</defs>
</svg>
