<svg width="24" height="24" viewBox="0 0 24 24" fill="none" xmlns="http://www.w3.org/2000/svg">
<path d="M13.0795 4.35938H10.1733V10.1719H13.0795V4.35938Z" fill="black"/>
<path d="M11.6264 14.5312C12.4289 14.5312 13.0795 13.8807 13.0795 13.0781C13.0795 12.2756 12.4289 11.625 11.6264 11.625C10.8239 11.625 10.1733 12.2756 10.1733 13.0781C10.1733 13.8807 10.8239 14.5312 11.6264 14.5312Z" fill="black"/>
<path d="M21.7969 23.25C21.4825 23.25 21.1765 23.148 20.925 22.9594L15.5005 18.8906H1.45312C1.06773 18.8906 0.698124 18.7375 0.42561 18.465C0.153097 18.1925 0 17.8229 0 17.4375V1.45312C0 1.06773 0.153097 0.698124 0.42561 0.42561C0.698124 0.153097 1.06773 0 1.45312 0L21.7969 0C22.1823 0 22.5519 0.153097 22.8244 0.42561C23.0969 0.698124 23.25 1.06773 23.25 1.45312V21.7969C23.25 22.1823 23.0969 22.5519 22.8244 22.8244C22.5519 23.0969 22.1823 23.25 21.7969 23.25ZM2.90625 15.9844H15.9844C16.2988 15.9844 16.6047 16.0864 16.8563 16.275L20.3438 18.8906V2.90625H2.90625V15.9844Z" fill="black"/>
</svg>
