<svg width="24" height="24" viewBox="0 0 24 24" fill="none" xmlns="http://www.w3.org/2000/svg">
<path d="M19.275 13.95C19.275 17.7979 16.1479 20.925 12.3 20.925C8.45213 20.925 5.325 17.7979 5.325 13.95C5.325 10.1021 8.45213 6.975 12.3 6.975V11.625L18.1125 5.8125L12.3 0V4.65C7.16175 4.65 3 8.81175 3 13.95C3 19.0883 7.16175 23.25 12.3 23.25C17.4383 23.25 21.6 19.0883 21.6 13.95H19.275Z" fill="#323232"/>
<path d="M11.0213 17.4375V12.4736H10.9167L8.85905 13.206V14.0081L10.0332 13.6478V17.4375H11.0213Z" fill="#323232"/>
<path d="M14.9971 12.5317C14.7878 12.4504 14.5669 12.4155 14.3112 12.4155C14.0554 12.4155 13.8346 12.4504 13.6253 12.5317C13.4161 12.6131 13.2417 12.741 13.1022 12.9154C12.9627 13.0897 12.8348 13.3106 12.7651 13.578C12.6953 13.8454 12.6488 14.1592 12.6488 14.5312V15.3915C12.6488 15.7635 12.6953 16.089 12.7767 16.3447C12.8581 16.6005 12.9743 16.833 13.1254 17.0074C13.2766 17.1817 13.4509 17.3096 13.6602 17.391C13.8694 17.4724 14.0903 17.5072 14.3461 17.5072C14.6018 17.5072 14.8227 17.4724 15.0319 17.391C15.2412 17.3096 15.4156 17.1817 15.5551 17.0074C15.6946 16.833 15.8108 16.6121 15.8922 16.3447C15.9736 16.0774 16.0084 15.7635 16.0084 15.3915V14.5312C16.0084 14.1592 15.9619 13.8337 15.8806 13.578C15.7992 13.3222 15.6829 13.0897 15.5318 12.9154C15.3807 12.741 15.1947 12.6131 14.9971 12.5317ZM15.0087 15.5194C15.0087 15.7402 14.9971 15.9262 14.9622 16.0774C14.9273 16.2285 14.8924 16.3564 14.8343 16.4494C14.7762 16.5424 14.7064 16.6121 14.6134 16.647C14.5204 16.6819 14.4274 16.7051 14.3228 16.7051C14.2182 16.7051 14.1136 16.6819 14.0322 16.647C13.9508 16.6121 13.8694 16.5424 13.8113 16.4494C13.7532 16.3564 13.7067 16.2285 13.6718 16.0774C13.6369 15.9262 13.6253 15.7402 13.6253 15.5194V14.3917C13.6253 14.1709 13.6369 13.9849 13.6718 13.8337C13.7067 13.6826 13.7416 13.5664 13.8113 13.4734C13.8811 13.3804 13.9392 13.3106 14.0322 13.2757C14.1252 13.2409 14.2182 13.2176 14.3228 13.2176C14.4274 13.2176 14.5321 13.2409 14.6134 13.2757C14.6948 13.3106 14.7762 13.3804 14.8343 13.4734C14.8924 13.5664 14.9389 13.6826 14.9738 13.8337C15.0087 13.9849 15.0203 14.1709 15.0203 14.3917V15.5194H15.0087Z" fill="#323232"/>
</svg>
