<svg width="24" height="24" viewBox="0 0 24 24" fill="none" xmlns="http://www.w3.org/2000/svg">
<path d="M13.2857 2C7.78321 2 3.32143 6.46179 3.32143 11.9643H0L4.30679 16.2711L4.38429 16.4261L8.85714 11.9643H5.53571C5.53571 7.67964 9.00107 4.21429 13.2857 4.21429C17.5704 4.21429 21.0357 7.67964 21.0357 11.9643C21.0357 16.2489 17.5704 19.7143 13.2857 19.7143C11.1489 19.7143 9.21143 18.8396 7.81643 17.4336L6.24429 19.0057C8.04893 20.8104 10.5289 21.9286 13.2857 21.9286C18.7882 21.9286 23.25 17.4668 23.25 11.9643C23.25 6.46179 18.7882 2 13.2857 2ZM12.1786 7.53571V13.0714L16.9171 15.8836L17.7143 14.5439L13.8393 12.2411V7.53571H12.1786Z" fill="black"/>
</svg>
