<svg width="24" height="24" viewBox="0 0 24 24" fill="none" xmlns="http://www.w3.org/2000/svg">
<path d="M11.625 0L19.8451 3.40488L23.25 11.625L19.8451 19.8451L11.625 23.25L3.40488 19.8451L0 11.625L3.40488 3.40488L11.625 0Z" fill="black"/>
<path d="M17.0543 17.7976C17.1189 17.7976 17.1728 17.8191 17.2159 17.8622C17.2697 17.9053 17.2966 17.9591 17.2966 18.0238C17.2966 18.0884 17.2697 18.1423 17.2159 18.1854C17.1728 18.2285 17.1189 18.25 17.0543 18.25H15.9716H14.7436C14.3881 18.25 14.0326 18.1369 13.6771 17.9107C13.3216 17.6845 13.0523 17.399 12.8692 17.0543C12.2983 17.2159 11.722 17.2966 11.1402 17.2966H10.9787C10.1492 17.2751 9.36819 17.0974 8.63567 16.7634C7.91392 16.4295 7.28374 15.9878 6.74512 15.4384C6.2065 14.8783 5.781 14.2319 5.4686 13.4994C5.1562 12.7669 5 11.9805 5 11.1402C5 10.3108 5.1562 9.52978 5.4686 8.79726C5.781 8.05396 6.2065 7.40762 6.74512 6.85823C7.28374 6.30884 7.91392 5.86718 8.63567 5.53323C9.36819 5.19929 10.1492 5.02155 10.9787 5H11.1402C11.9913 5 12.7884 5.16159 13.5317 5.48476C14.275 5.80793 14.9267 6.24959 15.4869 6.80976C16.0471 7.35915 16.4887 8.01087 16.8119 8.76494C17.1351 9.50823 17.2966 10.3 17.2966 11.1402C17.2966 12.0236 17.1189 12.8638 16.7634 13.661C16.4079 14.4474 15.907 15.1314 15.2607 15.7131L16.1332 17.7976H17.0543ZM16.828 11.1402C16.828 10.3646 16.6772 9.63211 16.3756 8.94268C16.0848 8.25325 15.6808 7.65 15.1637 7.13293C14.6466 6.61585 14.0434 6.21189 13.354 5.92104C12.6645 5.61941 11.9266 5.4686 11.1402 5.4686H10.9787C10.6124 5.47937 10.2677 5.55478 9.94451 5.69482C9.62134 5.82409 9.34126 6.00183 9.10427 6.22805C8.86728 6.4435 8.67876 6.70203 8.53872 7.00366C8.39868 7.29451 8.32866 7.60691 8.32866 7.94085V12.1582H11.1402H12.3683C12.5622 12.1582 12.7561 12.1959 12.95 12.2713C13.1547 12.336 13.3432 12.4329 13.5155 12.5622C13.6879 12.6807 13.8441 12.8261 13.9841 12.9985C14.1242 13.1601 14.2373 13.3378 14.3235 13.5317L15.0668 15.2607C15.6269 14.7221 16.0578 14.0973 16.3595 13.3863C16.6718 12.6753 16.828 11.9266 16.828 11.1402ZM11.1402 16.828C11.4096 16.828 11.6681 16.8119 11.9159 16.7796C12.1744 16.7365 12.4275 16.6826 12.6753 16.618L10.9948 12.6268H8.32866V14.3558C8.32866 14.6897 8.39868 15.0021 8.53872 15.293C8.67876 15.5838 8.86728 15.8424 9.10427 16.0686C9.34126 16.2948 9.62134 16.4779 9.94451 16.618C10.2677 16.7473 10.6124 16.8173 10.9787 16.828H11.1402Z" fill="white"/>
</svg>
