<svg width="24" height="25" viewBox="0 0 24 25" fill="none" xmlns="http://www.w3.org/2000/svg">
<g clip-path="url(#clip0)">
<path d="M9.3 17.0564L16.275 11.8252L9.3 6.59395V17.0564ZM11.625 0.200195C5.208 0.200195 0 5.4082 0 11.8252C0 18.2422 5.208 23.4502 11.625 23.4502C18.042 23.4502 23.25 18.2422 23.25 11.8252C23.25 5.4082 18.042 0.200195 11.625 0.200195ZM11.625 21.1252C6.49838 21.1252 2.325 16.9518 2.325 11.8252C2.325 6.69857 6.49838 2.5252 11.625 2.5252C16.7516 2.5252 20.925 6.69857 20.925 11.8252C20.925 16.9518 16.7516 21.1252 11.625 21.1252Z" fill="black"/>
</g>
<defs>
<clipPath id="clip0">
<rect width="24" height="24" fill="white" transform="translate(0 0.200195)"/>
</clipPath>
</defs>
</svg>
