<svg width="24" height="24" viewBox="0 0 24 24" fill="none" xmlns="http://www.w3.org/2000/svg">
<path d="M16.9902 16.5571L15.6198 15.1868L16.305 14.5016C17.8169 12.9897 17.8169 10.5301 16.305 9.01921L15.6198 8.33403L16.9902 6.96367L17.6754 7.64885C19.9422 9.91565 19.9422 13.6051 17.6754 15.872L16.9902 16.5571Z" fill="black"/>
<path d="M19.7308 19.2978L18.3604 17.9275L19.0456 17.2423C22.0683 14.2196 22.0683 9.30121 19.0456 6.27849L18.3604 5.59234L19.7308 4.22198L20.416 4.90716C24.1946 8.68581 24.1946 14.834 20.416 18.6126L19.7308 19.2978Z" fill="black"/>
<path d="M6.25992 16.5571L5.57474 15.8719C3.30794 13.6051 3.30794 9.91565 5.57474 7.64884L6.25992 6.9627L7.63028 8.33305L6.9451 9.01823C5.43325 10.5301 5.43325 12.9897 6.9451 14.5006L7.63028 15.1858L6.25992 16.5571Z" fill="black"/>
<path d="M3.51917 19.2978L2.83399 18.6126C-0.944663 14.834 -0.944663 8.68581 2.83399 4.90716L3.51917 4.22198L4.88952 5.59234L4.20434 6.27752C1.18162 9.30025 1.18162 14.2186 4.20434 17.2413L4.88952 17.9265L3.51917 19.2978Z" fill="black"/>
<path d="M11.625 14.6673C10.022 14.6673 8.71759 13.3629 8.71759 11.7599C8.71759 10.157 10.022 8.85252 11.625 8.85252C13.2279 8.85252 14.5324 10.157 14.5324 11.7599C14.5324 13.3629 13.2279 14.6673 11.625 14.6673Z" fill="black"/>
</svg>
