<svg width="24" height="24" viewBox="0 0 24 24" fill="none" xmlns="http://www.w3.org/2000/svg">
<path d="M20.375 14.59V12.6454H23.2422C23.0351 10.1584 22.0502 7.89296 20.5247 6.09133L18.4985 8.11755L17.1237 6.74275L19.1499 4.71653C17.3493 3.19201 15.0839 2.20612 12.5968 2V4.86724H10.6522V2C4.99457 2.46961 0.476415 6.98777 0.00680592 12.6454H2.87404V14.59H0C0.198344 16.9497 1.11228 19.2102 2.62514 21.043C2.80987 21.2666 3.08405 21.3959 3.37476 21.3959H19.8752C20.165 21.3959 20.4401 21.2666 20.6249 21.043C22.1377 19.2112 23.0517 16.9497 23.25 14.59H20.375ZM11.6245 16.5345C10.0164 16.5345 8.70769 15.2258 8.70769 13.6177C8.70769 13.1685 8.81756 12.7485 9.00035 12.3683L5.10347 8.47146L6.47826 7.09666L10.3751 10.9935C10.7553 10.8108 11.1753 10.7009 11.6245 10.7009C13.2327 10.7009 14.5413 12.0096 14.5413 13.6177C14.5413 15.2258 13.2327 16.5345 11.6245 16.5345Z" fill="black"/>
</svg>
