<svg width="24" height="24" viewBox="0 0 24 24" fill="none" xmlns="http://www.w3.org/2000/svg">
<path d="M21.3845 8.30096L19.9425 10.464C20.6323 11.8398 20.97 13.3652 20.9253 14.9036C20.8807 16.4421 20.4551 17.9453 19.6866 19.2788H3.5687C2.56995 17.5462 2.1561 15.5379 2.38851 13.5516C2.62091 11.5653 3.48719 9.70672 4.85892 8.25146C6.23065 6.79619 8.03481 5.82169 10.0039 5.47241C11.9731 5.12314 14.0023 5.41768 15.7909 6.31239L17.9539 4.87038C15.6624 3.38525 12.9214 2.75384 10.2112 3.08679C7.50088 3.41975 4.99421 4.69582 3.13034 6.69143C1.26648 8.68704 0.164313 11.2749 0.0169548 14.0016C-0.130404 16.7282 0.686448 19.4198 2.32438 21.6047H20.9309C22.3573 19.6989 23.1646 17.4014 23.2436 15.0223C23.3226 12.6432 22.6696 10.2971 21.3728 8.30096H21.3845Z" fill="#323232"/>
<path d="M9.98797 16.2669C10.204 16.4831 10.4605 16.6547 10.7428 16.7717C11.0252 16.8888 11.3278 16.949 11.6335 16.949C11.9391 16.949 12.2418 16.8888 12.5241 16.7717C12.8065 16.6547 13.063 16.4831 13.279 16.2669L19.8611 6.3938L9.98797 12.9759C9.77172 13.1919 9.60017 13.4484 9.48313 13.7307C9.36608 14.0131 9.30583 14.3157 9.30583 14.6214C9.30583 14.927 9.36608 15.2297 9.48313 15.512C9.60017 15.7944 9.77172 16.0509 9.98797 16.2669Z" fill="#323232"/>
</svg>
