<svg width="24" height="24" viewBox="0 0 24 24" fill="none" xmlns="http://www.w3.org/2000/svg">
<g clip-path="url(#clip0)">
<path d="M13 21L13 7L11 7L11 21L13 21Z" fill="black"/>
<path d="M23 1H1C0.734784 1 0.48043 1.10536 0.292893 1.29289C0.105357 1.48043 0 1.73478 0 2L0 22C0 22.2652 0.105357 22.5196 0.292893 22.7071C0.48043 22.8946 0.734784 23 1 23H23C23.2652 23 23.5196 22.8946 23.7071 22.7071C23.8946 22.5196 24 22.2652 24 22V2C24 1.73478 23.8946 1.48043 23.7071 1.29289C23.5196 1.10536 23.2652 1 23 1ZM7 3C7.19778 3 7.39112 3.05865 7.55557 3.16853C7.72002 3.27841 7.84819 3.43459 7.92388 3.61732C7.99957 3.80004 8.01937 4.00111 7.98079 4.19509C7.9422 4.38907 7.84696 4.56725 7.70711 4.70711C7.56725 4.84696 7.38907 4.9422 7.19509 4.98079C7.00111 5.01937 6.80004 4.99957 6.61732 4.92388C6.43459 4.84819 6.27841 4.72002 6.16853 4.55557C6.05865 4.39112 6 4.19778 6 4C6 3.73478 6.10536 3.48043 6.29289 3.29289C6.48043 3.10536 6.73478 3 7 3ZM22 21H2V7H22V21Z" fill="black"/>
</g>
<defs>
<clipPath id="clip0">
<rect width="24" height="24" fill="white"/>
</clipPath>
</defs>
</svg>
