<svg width="746" height="477" viewBox="0 0 746 477" fill="none" xmlns="http://www.w3.org/2000/svg">
<path fill-rule="evenodd" clip-rule="evenodd" d="M502.421 149.917C478.898 173.439 467.137 185.201 452.522 185.201C437.907 185.201 426.145 173.439 402.623 149.916L287.992 35.2844C264.469 11.7615 252.707 3.77532e-07 238.092 0C223.477 -3.77531e-07 211.716 11.7615 188.193 35.2844L35.2841 188.195C11.7614 211.718 -2.119e-07 223.479 0 238.095C2.119e-07 252.71 11.7614 264.471 35.2841 287.994L188.193 440.905C211.716 464.428 223.477 476.189 238.092 476.189C252.707 476.189 264.469 464.428 287.992 440.905L402.622 326.273C426.145 302.75 437.906 290.988 452.521 290.988C467.137 290.988 478.898 302.75 502.421 326.273L537.158 361.01C560.68 384.533 572.442 396.295 587.057 396.295C601.672 396.295 613.433 384.533 636.956 361.01L709.971 287.995C733.494 264.472 745.255 252.71 745.255 238.095C745.255 223.48 733.494 211.718 709.971 188.195L636.956 115.18C613.433 91.6567 601.672 79.8952 587.057 79.8952C572.442 79.8952 560.68 91.6567 537.158 115.18L502.421 149.917Z" fill="white"/>
</svg>
