<svg width="24" height="24" viewBox="0 0 24 24" fill="none" xmlns="http://www.w3.org/2000/svg">
<path d="M12 0.375C5.58975 0.375 0.375 5.59013 0.375 12C0.375 18.4099 5.58975 23.625 12 23.625C18.4102 23.625 23.625 18.4099 23.625 12C23.625 5.59013 18.4102 0.375 12 0.375ZM7.5 10.5C7.5 8.01862 9.51863 6 12 6C14.4814 6 16.5 8.01862 16.5 10.5V11.625C16.5 14.1064 14.4814 16.125 12 16.125C9.51863 16.125 7.5 14.1064 7.5 11.625V10.5ZM12 22.875C9.48713 22.875 7.17263 22.0159 5.32913 20.5793C6.40575 18.7463 8.3475 17.625 10.5 17.625H13.5C15.6499 17.625 17.5916 18.7463 18.6705 20.5796C16.827 22.0163 14.5125 22.875 12 22.875Z" fill="black"/>
</svg>
