<?xml version="1.0" encoding="utf-8"?>
<!-- Generator: Adobe Illustrator 18.1.1, SVG Export Plug-In . SVG Version: 6.00 Build 0)  -->
<!DOCTYPE svg PUBLIC "-//W3C//DTD SVG 1.1//EN" "http://www.w3.org/Graphics/SVG/1.1/DTD/svg11.dtd">
<svg version="1.1" id="Layer_1" xmlns="http://www.w3.org/2000/svg" xmlns:xlink="http://www.w3.org/1999/xlink" x="0px" y="0px"
	 viewBox="50 90 695 434" width="695" height="434" xml:space="preserve">
<g>
	<rect width="100%" height="100%" x="50" y="90" fill="#336e6a"/>
	<path fill="#fff" d="M426.8,228.6c0-4.8-0.7-8.6-2.2-11.8c0-1.7,1.2-5.8,4.1-12c0.2-0.7,0.5-1.2,0.7-1.2c0.5,0,0.7,0.5,1.2,1.2
		c0.7,1.7,2.4,6.2,5.3,13.7c3.1,7.9,4.8,12.7,5.3,14.6c0.5,1.2,0.5,2.4,0.5,2.9c0,2.2-1.9,1-6.2-3.8c-0.5-0.7-0.7-0.2-0.7,1
		c0,0.5,1.2,15.4,3.4,45.1c2.2,29.5,3.1,46.1,3.1,49.9c0,11.3-1.7,21.4-5,30c-1,1.7-1.4,2.9-1.9,3.8l0,0c-0.7,1.2-1,1.2-1.2,0.5
		c-0.2-1,0-2.9,0.2-5.5c0.5-4.1,0.7-8.6,0.7-13.7c0-4.8-1.2-24-3.6-57.8C428,251.6,426.8,232.7,426.8,228.6L426.8,228.6L426.8,228.6
		L426.8,228.6z"/>
	<path fill="#fff" d="M418.4,313.3c0,14.2-2.6,25.2-7.7,33.4c-4.3,6.7-9.4,10.3-15.1,10.3v-14.6c4.6,0,9.1-1.9,13.4-5.5
		c1.2-1,1.9-5,1.9-11.8c0-4.1-1.2-20.6-3.4-49.4c-2.2-28.8-3.1-45.8-3.1-51.1c0-4.6-0.7-8.4-2.2-11.5c0-1.7,1.4-5.8,4.1-12.2
		c0.2-0.7,0.5-1,1-1c0.2,0,0.5,0.2,1,1.2c0.7,1.7,2.6,6.2,5.5,13.7c2.9,7.9,4.6,12.7,5.3,14.4c0.2,1.4,0.5,2.6,0.5,3.1
		c0,2.2-2.2,1-6.2-3.8c-0.5-0.5-0.7-0.2-0.7,1c0,0.2,1,13.2,2.9,38.6C417.5,293.2,418.4,308.3,418.4,313.3L418.4,313.3L418.4,313.3
		L418.4,313.3z"/>
	<path fill="#fff" d="M300.1,285.5c7,3.1,13.7,6.7,20.4,10.6c16.1,9.1,30.2,18.5,42.5,28.6c7.7,6.5,12.7,10.3,15.1,11.8
		c6,4.1,11.8,6,17.3,6V357c-5.5,0-10.6-1.2-14.9-3.8c-2.6-1.4-6.5-4.6-11.5-9.1c-5.8-5.3-10.6-9.1-14.4-11.8c-1-0.7-1.4-1-1.7-1
		c-0.2,0,0,0.7,0.7,1.9c2.2,5,3.1,8.6,3.1,11c0,8.4-2.4,14.6-7.2,19c-3.4,2.9-11,7-23,12.2v-13.2c6.7-3.1,11.3-4.8,13-5.8
		c5.8-2.6,9.8-5,12.2-7c1.2-1,1.4-2.2,1-3.4c-2.2-6.5-8.6-13.9-19.7-22.6c-12.2-9.6-24.7-19.4-37.2-29c-0.2-0.2-0.5-1.2-0.5-2.9
		c0-3.1,0.5-6.7,1.7-11c1.2-4.6,2.4-7.7,3.8-8.9c8.4-7.4,26.2-17.3,53.5-29.5c27.6-12.5,45.8-18.5,54.7-18.5c2.6,0,4.6,0.5,5.5,1.4
		c1,1.2,1.4,2.9,1.4,5.5c0,5.8-3.4,13-10.3,21.6c-2.6,2.9-5.3,5.8-7.9,8.9c-4.1,4.8-7,8.6-8.4,11.8c-1,2.2-1.7,3.1-1.9,3.1
		c-0.2,0,0-1.4,0.5-4.1c0.2-1.7,1.4-4.3,3.4-7.9c1.9-3.4,3.4-5.5,4.3-6.7c7.7-8.9,12.5-14.6,13.9-17.5c0.2-0.2,0.2-0.5,0.2-0.7
		c0-1.7-2.2-2.6-6.5-2.6c-7.2,0-23.8,6-49.7,17.8c-26.2,12.2-44.2,22.1-53.8,29.8C299.4,284.5,299.4,285,300.1,285.5L300.1,285.5
		L300.1,285.5L300.1,285.5z"/>
	<path fill="#fff" d="M308.3,346.9c0-3.1-1.4-8.2-4.3-15.1c-5.3,13.7-8.4,22.8-8.9,27.4C304,355.8,308.3,351.7,308.3,346.9
		L308.3,346.9L308.3,346.9L308.3,346.9z M326.3,394.9c-1.9-2.9-5.3-5.5-10.6-8.2c-4.8-2.4-8.9-3.6-12-4.1c1.7,4.3,4.1,8.2,7.4,11
		c3.8,3.4,7.4,5.3,11.3,5.3c3.4,0,5-0.7,5-1.7C327.5,396.6,327,395.9,326.3,394.9L326.3,394.9L326.3,394.9L326.3,394.9z
		 M306.8,366.8c10.3-1.7,16.8-3.4,19.7-4.6v13.2c-1.7,0.7-3.1,1-4.1,1.2c2.9,1.2,5.5,3.4,7.4,6.5c1.9,3.1,3.1,6.2,3.1,9.6
		c0,13-4.8,19.4-14.2,19.4c-5.8,0-11.5-2.9-16.8-8.6c-5.8-6.2-9.4-14.2-10.6-23.5c0-0.7-0.5-1.2-1.4-1c-1,0-1.4,0-1.7-0.2
		c-0.2-0.2-0.2-0.5-0.2-1.2c0-1,0.2-1.4,0.2-1.2c0-0.5-0.2-0.5-1-0.2c-5,1.4-10.8,2.4-17,2.4V364c6.2,0,13.2-1.2,21.1-3.6
		c2.2-8.4,5.3-18.7,9.1-30.7c0.7-1.9,2.4-6.5,5-13.9c0.7-1.2,1.2-1.7,1.7-1.7c0.7,0,1.2,0.7,1.2,2.6c0.2,1.7,0.7,6,1.9,13
		c1.2,6.2,1.7,10.3,1.7,12.2C312.1,353.4,310.2,361.8,306.8,366.8L306.8,366.8L306.8,366.8L306.8,366.8z"/>
	<path fill="#fff" d="M253.1,336.4c0-1.9-1.2-4.6-3.4-8.2c-2.2-4.1-4.3-6-6.2-6c-1.7,0-3.1,1-4.6,2.9c-1.4,1.7-2.2,3.8-2.2,6
		c0,1.4,0.7,3.8,1.9,7c1,3.4,2.2,5.8,3.4,7.4c1.9-1,4.1-2.6,6.7-4.6C251.6,338.8,253.1,337.3,253.1,336.4L253.1,336.4L253.1,336.4
		L253.1,336.4z M247.6,353.6c5,6.7,12.7,10.3,23,10.3v14.6c-6.7,0-12.2-1.2-16.8-3.8c-5.5-2.9-10.3-8.4-14.4-16.1
		c-7,4.3-16.8,9.1-29.3,13.9c-19.9,7.9-37.7,11.8-53.5,11.8c-24.5,0-36.7-12.2-36.7-36.7c0-9.4,1.4-17.3,4.3-23.5
		c1.2-2.6,2.2-3.8,2.6-3.8c0,0,0.2,0.2,0.2,0.7c0,0.7-0.2,1.9-0.7,3.6c-1.9,7.9-3.1,13.2-3.1,15.8c0,10.3,4.3,18.2,12.7,23.5
		c6.5,3.8,14.2,5.8,23.3,5.8c15.6,0,32.4-3.4,50.4-9.8c10.6-3.8,19.2-7.7,26.2-11.8c-2.6-6.5-3.8-11.5-3.8-14.9c0-7,1.7-13,4.6-18.2
		c2.6-4.8,5.8-7.2,8.9-7.4c3.1,0.2,6.2,2.6,9.1,7.9c2.6,4.8,3.8,9.6,3.8,14.2C258.4,340.9,254.8,348.8,247.6,353.6L247.6,353.6
		L247.6,353.6L247.6,353.6z"/>
	<path fill="#fff" d="M228.6,290c-0.2-0.2-0.2-0.5,0-1l4.6-9.6c0.2-0.5,0.7-0.7,1-0.7c0.5,0,2.6,1.2,6.2,3.6
		c3.8,2.6,5.8,4.1,5.8,4.6c0,1.7-1.7,5-5,10.3c-0.5,0.7-0.7,1-1.2,0.7C236.3,295.1,232.4,292.4,228.6,290L228.6,290L228.6,290
		L228.6,290z"/>
	<path fill="#fff" d="M319.3,225.7c18.5-6.7,37.7-13.9,57.8-21.4c0.7-0.2,1.2-0.5,1.4-0.2c0,0,0,0.5-0.2,1.2
		c-1,2.2-1.7,3.4-2.2,3.8c-16.8,6.2-36.7,13.9-59.3,23.3C317.4,230.3,318.1,228.1,319.3,225.7L319.3,225.7L319.3,225.7L319.3,225.7z
		"/>
	<path fill="#fff" d="M396.8,306.1c0-1.2-2.4-3.4-7.4-6.2c-1.7,2.9-2.4,5.5-2.4,7.9c0,1.4,0.7,2.4,2.2,2.4c1.2,0,2.6-0.5,4.3-1.4
		C395.2,308,396.4,307.1,396.8,306.1L396.8,306.1L396.8,306.1L396.8,306.1z M391.6,286.9c0.7-1.2,1.7-1.7,2.4-1.7c0.5,0,1,0.2,1,0.7
		c0,0-0.2,0.2-0.2,0.5c-1,2.2-1.9,4.6-2.6,7c5,3.6,7.4,7.4,7.2,11c-0.5,4.1-1,6.7-1.7,7.7c-2.4,2.9-5,4.6-8.4,4.6
		c-3.4,0-4.8-2.2-4.8-6c0-0.7,0-1.7,0.2-2.6C385.8,300.4,388.2,293.4,391.6,286.9L391.6,286.9L391.6,286.9L391.6,286.9z"/>
	<path fill="#fff" d="M282.1,310.7c0-1.2-2.4-3.4-7.4-6.2c-1.7,2.9-2.4,5.5-2.4,7.9c0,1.4,0.7,2.4,2.2,2.4c1.2,0,2.6-0.5,4.3-1.4
		C280.4,312.6,281.6,311.6,282.1,310.7L282.1,310.7L282.1,310.7L282.1,310.7z M276.8,291.5c0.7-1.2,1.7-1.7,2.4-1.7
		c0.5,0,1,0.2,1,0.7c0,0-0.2,0.2-0.2,0.5c-1,2.2-1.9,4.6-2.6,7c5,3.6,7.4,7.4,7.2,11c-0.5,4.1-1,6.7-1.7,7.7c-2.4,2.9-5,4.6-8.4,4.6
		c-3.4,0-4.8-2.2-4.8-6c0-0.7,0-1.7,0.2-2.6C271.1,304.9,273.5,298,276.8,291.5L276.8,291.5L276.8,291.5L276.8,291.5z"/>
	<path fill="#fff" d="M181.6,398c18.5-6.7,37.7-13.9,57.8-21.4c0.7-0.2,1.2-0.5,1.4-0.2c0,0,0,0.5-0.2,1.2
		c-1,2.2-1.7,3.4-2.2,3.8c-16.8,6.2-36.7,13.9-59.3,23.3C179.6,402.6,180.4,400.4,181.6,398L181.6,398L181.6,398L181.6,398z"/>
	<path fill="#fff" d="M302.3,243.2c-1.2-2.9-3.4-4.8-6.5-6c0,2.6-0.2,4.8-1,6.5c0.5,0,2.9,0.5,7.2,1c0.2,0,0.5,0,0.5,0
		C302.8,244.4,302.8,244,302.3,243.2L302.3,243.2L302.3,243.2L302.3,243.2z M292.7,243.2c0.5-1.4,0.5-2.9,0-4.6
		c-0.5-1.7-1.2-2.4-2.4-2.4c-0.5,0-1.4,0.5-2.6,1.4c-1,1.2-1.7,2.2-1.7,2.6C286,241.8,288.1,242.8,292.7,243.2L292.7,243.2
		L292.7,243.2L292.7,243.2z M285.7,235.6c-1-3.1-0.7-5.3,0.5-6.5c1-1,2.2-1.4,3.4-1.4c1.4,0,2.9,0.2,4.6,1.2
		c5.8,3.1,9.6,7,11.5,11.5c0,0.2,0.2,0.7,0.2,1.2c0,1.7-0.5,3.4-1.7,5.5c-1,1.9-1.9,2.9-2.9,2.9c-0.2,0-2.9-0.2-7.9-0.7
		c-2.6,3.6-5.8,6.7-9.6,9.4c-4.3,3.4-8.4,5.8-12.2,7.4c-0.7,0.5-5,2.2-13,5c-1.2,0.5-1.9,0.7-2.4,0.7c-0.2,0-0.2-0.2-0.2-0.2
		c0-0.2,0.7-1,1.9-1.7c5.8-3.4,11.5-6.7,17.3-10.1c6.5-4.1,11.5-7.7,15.1-11c-4.3-1-6.5-3.1-6.5-6.2
		C283.8,240.1,284.3,237.7,285.7,235.6L285.7,235.6L285.7,235.6L285.7,235.6z"/>
	<path fill="#fff" d="M398.3,378.6c0,0.5,0.2,0.7,0.2,1.2c0,1.7-0.5,3.4-1.7,5.5c-1,2.2-1.9,3.1-2.6,3.1c0.7,0-2.2-0.5-8.2-1.4
		c-2.2,3.8-4.6,6.7-7,8.9c-1.9,1.7-5,3.6-9.1,5.5c-1,0.5-1.7,1.2-1.7,1.7c0,0.5,0.5,0.7,1.2,1c2.6,0.7,6.2,1,11.3,0.2
		c2.2-0.2,7.2-1.2,15.4-3.1c1-0.2,1.4-0.2,1.4-0.2c0,0.2-1.4,1.2-4.6,3.4c-1.4,1-3.8,2.2-7.2,3.4c-4.8,1.7-9.1,2.6-13,2.6
		c-4.6,0-6.7-1.7-6.7-4.6c0-3.1,1.2-5.8,3.8-7.9c2.2-1.4,4.3-3.1,6.7-4.6c3.1-2.2,5.5-4.6,7-6.7c-4.8-1-7.2-2.6-7.2-5.8
		c0-1.9,0.5-4.3,1.9-7c-1-3.1-0.7-5.3,0.5-6.5c1-1,2.2-1.4,3.4-1.4c1.4,0,2.9,0.2,4.6,1.2C392.5,370.2,396.4,374.3,398.3,378.6
		L398.3,378.6L398.3,378.6L398.3,378.6z M395.2,381.5c-1.2-2.6-3.4-4.6-6.5-5.8c0,2.6-0.2,4.8-0.7,6.2c0.5,0.2,2.9,0.5,7,1
		c0.2,0.2,0.2,0.2,0.5,0C395.6,382.7,395.4,382.2,395.2,381.5L395.2,381.5L395.2,381.5L395.2,381.5z M385.6,381.5
		c0.2-1.4,0.2-2.9-0.2-4.3c-0.5-1.9-1.2-2.6-2.2-2.6c-0.7,0-1.4,0.5-2.6,1.7c-1.2,1-1.7,1.9-1.7,2.4C378.8,380,381,381,385.6,381.5
		L385.6,381.5L385.6,381.5L385.6,381.5z"/>
	<path fill="#fff" d="M252.1,213c2.9,0,5.3,1.4,7.4,4.8c2.2,3.1,3.8,7.4,4.6,12.7c0.2,0.5,0.2,0.7,0.2,1h0.2c0-0.2,0.2-0.5,0.2-1
		c0.5-3.1,1.7-7.9,3.4-14.2c1.9-4.3,3.8-6.5,6-6.5c1.2,0,2.4,0.7,3.4,2.2c1,1.4,1.4,2.4,1.4,3.4c0,0.5,0,1.4-0.5,2.4
		c-0.5,1.4-1,2.2-1.4,2.2c-0.2,0-0.7-0.7-1.7-1.7c-0.7-1-1.7-1.4-2.6-1.4c-1.9,0-3.6,4.6-5.3,13.7c-0.7,4.1-1.7,7-2.4,8.6
		c-0.7,1-1.2,1.7-1.7,1.7c-0.5,0-0.5-0.7-0.7-1.7c0.2-1.7-0.7-4.8-2.6-9.4c-1.9-4.8-3.1-7-4.1-7c-0.5,0-0.7,0-1,0.5
		c-0.2,0.2-0.5,0.5-1.2,0.5c-1,0-1.9-0.7-3.4-1.9c-1.4-1.2-1.9-2.2-1.9-2.9c0-0.2,0.5-1.4,1.7-3.4C251.2,213.7,251.9,213,252.1,213
		L252.1,213L252.1,213L252.1,213z"/>
	<path fill="#fff" d="M155.4,251.9c2.9,0,5.3,1.4,7.4,4.8c2.2,3.1,3.8,7.4,4.6,12.7c0.2,0.5,0.2,0.7,0.2,1h0.2
		c0-0.2,0.2-0.5,0.2-1c0.5-3.1,1.7-7.9,3.4-14.2c1.9-4.3,3.8-6.5,6-6.5c1.2,0,2.4,0.7,3.4,2.2c1,1.4,1.4,2.4,1.4,3.4
		c0,0.5,0,1.4-0.5,2.4c-0.5,1.4-1,2.2-1.4,2.2c-0.2,0-0.7-0.7-1.7-1.7c-0.7-1-1.7-1.4-2.6-1.4c-1.9,0-3.6,4.6-5.3,13.7
		c-0.7,4.1-1.7,7-2.4,8.6c-0.7,1-1.2,1.7-1.7,1.7c-0.5,0-0.5-0.7-0.7-1.7c0.2-1.7-0.7-4.8-2.6-9.4c-1.9-4.8-3.1-7-4.1-7
		c-0.5,0-0.7,0-1,0.5c-0.2,0.2-0.5,0.5-1.2,0.5c-1,0-1.9-0.7-3.4-1.9c-1.4-1.2-1.9-2.2-1.9-2.9c0-0.2,0.5-1.4,1.7-3.4
		C154.4,252.6,155.2,251.9,155.4,251.9L155.4,251.9L155.4,251.9L155.4,251.9z"/>
	<path fill="#fff" d="M210.4,295.1c0,0.5-0.2,1.4-0.7,2.4c-0.2,1.4-0.7,2.2-1.4,2.2c-0.2,0-0.7-0.7-1.7-1.7
		c-0.7-1-1.7-1.4-2.4-1.4c-1.9,0-3.8,4.6-5.5,13.7c-0.7,4.1-1.4,7-2.4,8.6c-0.7,1-1.2,1.7-1.7,1.7c-0.2,0-0.5-0.7-0.5-1.7
		c0-1.7-1-4.8-2.9-9.4c-1.9-4.8-3.1-7-3.8-7c-0.7,0-1,0-1.2,0.5c0,0.2-0.5,0.5-1.2,0.5c-1,0-1.9-0.7-3.4-1.9
		c-1.2-1.2-1.9-2.2-1.9-2.9c0-0.2,0.5-1.4,1.7-3.4c1.2-1.9,1.9-2.6,2.2-2.6c2.6,0,5,1.4,7.2,4.8c2.4,3.4,3.8,7.4,4.8,12.7
		c0,0.5,0,0.7,0,1c0.2,0.2,0.2,0.2,0.2,0c0-0.2,0.2-0.5,0.5-1c0.2-3.1,1.4-7.9,3.1-14.2c1.9-4.3,3.8-6.5,6-6.5
		c1.2,0,2.4,0.7,3.6,2.2C209.9,293.2,210.4,294.1,210.4,295.1L210.4,295.1L210.4,295.1L210.4,295.1z M194.5,322.7
		c-1.7,3.8-5,7.7-10.1,11.3c-4.6,3.4-8.6,5.8-12.2,7.4c-0.7,0.5-5,2.2-13,5c-1.2,0.5-1.9,0.7-2.4,0.7c-0.2,0-0.2-0.2-0.2-0.2
		c0-0.2,0.7-1,1.9-1.7c6.5-3.8,15.6-9.4,27.6-17.3c2.9-2.2,5-4.3,6.7-6.2c1.9-2.2,2.9-3.4,3.1-3.4c0,0,0,0,0,0.2
		C196,318.8,195.5,320.3,194.5,322.7L194.5,322.7L194.5,322.7L194.5,322.7z"/>
	<path fill="#fff" d="M133.8,310c0-0.2,0.2-0.5,0.2-0.5c0.2-0.2,0.2-0.2,0.2,0c0.2,0.2,0.2,0.5,0,0.7c-1.2,7.2-3.4,10.8-6.5,10.8
		c-3.1,0-4.6-2.6-4.6-7.9c0-6.5,1.7-13.4,5.5-20.4c1-1.7,1.4-2.6,1.7-2.6l0,0c0,0.2-0.2,1.2-0.7,2.9c-2.4,7.4-3.6,12.5-3.6,15.6
		c0,3.8,1,6,3.1,6C130.7,314.5,132.1,312.8,133.8,310L133.8,310L133.8,310L133.8,310z"/>
	<path fill="#fff" d="M222.4,239.6c0-0.2,0.2-0.5,0.2-0.5c0.2-0.2,0.2-0.2,0.2,0c0.2,0.2,0.2,0.5,0,0.7
		c-1.2,7.2-3.4,10.8-6.5,10.8s-4.6-2.6-4.6-7.9c0-6.5,1.7-13.4,5.5-20.4c1-1.7,1.4-2.6,1.7-2.6l0,0c0,0.2-0.2,1.2-0.7,2.9
		c-2.4,7.4-3.6,12.5-3.6,15.6c0,3.8,1,6,3.1,6C219.2,244.2,220.7,242.5,222.4,239.6L222.4,239.6L222.4,239.6L222.4,239.6z"/>
	<path fill="#fff" d="M358.2,266c2.4,0,3.1,1,2.6,2.9c-0.7,2.2-1.2,3.1-1.7,3.1c0,0-0.2,0-0.7-0.5c-0.5-0.5-1-0.7-1.9-0.7
		c-0.7,0-2.6,0.7-5.3,2.6c-2.9,1.9-5.3,3.6-6.7,5.5c-0.2,0.2-0.5,0.7-0.5,1c0,0.7,1.7,1.2,4.6,1.2c2.2,0,4.6-0.5,7.4-1
		c2.9-0.5,4.6-0.7,5.3-0.7c4.1,0,6.5,1.2,7.7,3.6c0.2,0.5,0.5,1.2,0.5,2.2c0,1.2-0.5,2.6-1.2,4.1c-0.5,1.7-1.2,2.4-1.7,2.6
		c-9.6,2.9-16.6,4.3-21.6,4.3c-2.4,0-4.6-1-6.5-2.4c-1.4-1.2-2.4-2.4-2.6-4.1c1.7,1,4.6,1.7,8.6,1.7c1.9,0,6-0.7,12.5-1.9
		c5.8-1.2,9.4-1.9,10.6-2.2c-0.5-1.9-3.1-2.6-7.7-2.6c-1,0-2.9,0.2-6,0.7c-2.9,0.5-4.8,0.7-6,0.7c-4.6,0-6.7-1.2-6.7-3.1
		c0-1,0.2-2.2,1-3.6c2.2-4.1,5-7.4,8.6-10.1C353.6,267,356,266,358.2,266L358.2,266L358.2,266L358.2,266z"/>
	<path fill="#fff" d="M613.3,316.4c1.2-1,2.2-1.4,2.9-1.4c0.5,0,0.7,0.5,0.7,1.4c0,0.7-0.2,2.2-0.7,4.1c-0.5,1.9-0.7,3.4-0.7,4.6
		c0,5.3,3.8,8.2,11.3,8.2c6,0,11-2.6,14.9-7.7c2.4-4.1,5-7.9,7.4-11.8c1-1,1.7-1.4,2.4-1.4c1,0,1.2,1,0.7,3.1c-1,4.1-1.7,6-1.7,5.5
		c0,1.7,1,3.4,2.9,4.8c1.7,1.4,4.1,2.4,6.7,2.4c3.4,0,5.5-1,6.5-2.6c0-0.2-1-2.2-3.1-5.8c0.2-1.9,1.2-5.3,2.6-9.8
		c0.2-1.4,0.7-2.2,1.2-2.2c0.5,0,1,0.2,1.7,1.2c1.9,2.9,3.1,6.2,3.1,10.1c0,6-1.4,11-4.1,15.4c-2.9,5.3-7.2,7.9-13,7.9
		c-3.8,0-7.4-3.1-10.6-8.9c-5.3,9.6-12.2,14.4-20.6,14.4c-10.1,0-14.9-5.8-14.9-16.8c-3.8,4.6-10.3,8.6-18.7,12.5v-13.2
		c6.2-3.1,10.3-5,11.5-5.8C605.6,322.7,609.5,319.8,613.3,316.4L613.3,316.4L613.3,316.4L613.3,316.4z"/>
	<path fill="#fff" d="M576.6,332.3c-3.6-4.6-6.7-6.7-9.6-6.7c-4.3,0-6.2,1-6.2,3.4c0,2.9,2.9,4.3,8.6,4.3
		C571.6,333.2,574,332.8,576.6,332.3L576.6,332.3L576.6,332.3L576.6,332.3z M584,349.8c0-1.4-0.5-3.1-1-4.8c-2.9,1-7.2,1.7-12.5,1.7
		c-11.5,0-17.3-4.1-17.3-12c0-6,1.7-11.3,5.5-16.1c3.6-4.1,7.4-6.2,11.5-6.2c3.1,0,6.2,1.9,9.8,5.5c3.1,3.6,6,7.7,8.4,12.7
		c0.2,0,0.7,0,1.7-0.5v13.2l-0.5,0.5c0,2.9-0.7,6.2-2.2,10.6c-1.7,5.5-4.3,10.1-7.4,13.7c-7.2,8.6-15.1,16.1-23.8,22.6
		c-13,9.6-24,14.6-33.6,14.6c-8.2,0-14.4-3.1-18.7-9.1c-3.8-5-5.8-11.8-5.8-19.7c0-10.1,2.2-20.4,6.2-31.2c1.2-2.4,1.7-3.4,2.2-3.4
		c0.2,0,0.2,0.2,0.2,0.7c0,0.7-0.2,1.9-0.5,3.4c-3.1,10.6-4.6,18.5-4.6,24c0,5,1.2,9.4,3.6,13c3.8,5,9.8,7.7,18.2,7.7
		c7.2,0,15.8-3.1,26.2-9.4c8.2-5,16.1-11,23.8-18.2C580.4,356.3,584,352,584,349.8L584,349.8L584,349.8L584,349.8z"/>
	<path fill="#fff" d="M518.5,313.3c-0.5-2.2-1.2-3.8-2.2-5c-0.7-1.4-1.2-2.2-1.4-2.6c0-0.5,0-2.2,0.5-5.5
		c0.5-3.1,0.7-5.3,1.2-6.5c0.2-1.2,0.5-1.7,1-1.7c0.2,0,0.5,0.2,1,0.7c3.4,3.8,7,7.7,11,11.8c1.7,1.7,2.4,2.6,2.4,3.1
		c0,0.2-0.2,0.5-0.7,0.5c-0.7,0-2.6-0.5-5.5-1.2c1.7,4.1,3.6,8.2,5.3,12c2.6,6.7,4.1,12.2,4.1,17.3c0,2.4-0.5,5.3-1.4,8.9
		c-1.2,4.1-2.6,7.2-4.6,9.4c-7,7.9-18.7,16.6-35.3,25.9c-14.4,8.4-22.8,12.5-25.4,12.5c-0.5,0-7.7,1.7-21.4,5
		c-14.4,3.4-23.5,5.5-27.1,6c-3.8,0.7-6.2,1-7.2,1c-0.5,0-0.5,0-0.5-0.2c0-0.2,2.6-1.7,7.9-4.1c1.9-1,13-5.8,33.4-14.4
		c14.2-6,25.9-11.5,35.3-16.6c14.2-7.7,25-14.4,32.4-19.9c5.5-4.3,8.4-7.4,8.4-9.4c0-0.5-1.4-3.8-4.3-10.1
		C522.1,323.2,519.7,317.4,518.5,313.3L518.5,313.3L518.5,313.3L518.5,313.3z"/>
	<path fill="#fff" d="M498.8,280c0,3.8-1.9,9.1-5.8,15.6c-2.4,4.1-6,9.6-10.8,16.8c4.8,5.5,8.2,10.6,9.8,14.9
		c1,3.1,1.7,7.2,1.7,11.8c0,1.9-0.5,4.3-1.4,7.4c-0.7,2.9-1.7,5-2.6,6.5c-1.9,2.9-5,5.8-9.8,8.6c-5,3.4-9.4,5-13,5
		c-5.8,0-8.6-4.3-8.6-13c0-5.8,1-11.5,2.9-16.8c1.9-4.6,5-10.6,10.1-18.5c-4.3-4.1-8.9-9.8-13.9-17c-0.5-0.7-1.7-1.9-3.6-3.8
		c-1-1-1.4-2.2-1.4-3.6c0-2.2,0.2-4.6,0.7-7.4c0.7-2.9,1.2-4.1,1.4-4.1c0.7,0,2.9,1.2,7,3.8c3.8,2.6,7,4.6,8.9,6.2
		c1.2,0.7,1.7,1.4,1.7,1.4v0.2c0,0.2-0.7,0.5-2.4,0.5c-3.1,0-4.8,0.2-4.8,0.5c0,0.2,0.5,0.7,1.4,1.9c3.8,4.8,7.7,8.4,11.8,11.3
		c1-1.4,4.3-6.2,9.6-14.4c4.6-7,7.2-11.8,8.4-14.6c1.2-2.9,1.9-4.1,2.4-4.1C498.6,275.2,498.8,276.6,498.8,280L498.8,280L498.8,280
		L498.8,280z M489.5,339c-2.6-5.3-7.2-10.8-13.4-16.1c-2.2,2.2-4.8,6.2-8.2,12c-3.8,6.5-5.5,10.6-5.5,12.7c0,2.9,1.9,4.3,6.2,4.3
		c1.9,0,4.3-0.7,7.4-1.9c4.3-1.9,8.4-4.6,11.8-7.9C489.2,340.7,489.7,339.7,489.5,339L489.5,339L489.5,339L489.5,339z"/>
	<path fill="#fff" d="M476,262l3.8-7.9c0.2-0.5,0.5-0.7,1-0.7c0.5,0,2.4,1.2,6.2,3.8c3.6,2.4,5.5,3.8,5.5,4.3
		c0,1.7-1.7,5.3-4.8,10.6c-0.5,0.7-1,0.7-1.4,0.5c-3.1-2.4-6.7-4.8-10.8-7.4c-1.4,2.9-2.6,5.5-4.1,7.7c-0.2,0.7-0.7,1-1.2,0.7
		c-3.6-2.9-7.4-5.5-11.3-7.9c-0.2-0.2-0.2-0.5,0-1l4.6-9.6c0.2-0.5,0.7-1,1-1c0.5,0,2.2,1.2,5.3,3.4C472.9,259.3,475.1,261,476,262
		L476,262L476,262L476,262z"/>
	<path fill="#fff" d="M602.5,395.9c-2.6,0.7-4.1,1.2-4.6,1.2v-0.2c0,0,1-0.7,2.9-1.9c1.9-1.2,4.8-3.1,8.9-6.2
		c1.9-1.9,4.8-5,8.4-9.4c2.4-2.9,5-5.5,7.9-7.4c3.6-2.6,7-3.8,10.6-3.8c0.7,0,1.9,0.2,3.4,0.7c1.2,0.5,2.4,0.7,3.4,0.7
		c1.9,0,3.4-0.7,4.6-2.2c0.7-1.4,1.7-2.6,2.6-4.1c0.5-1,1.2-1.4,1.7-1.4c0.2,0,0.2,0.2,0.2,0.7c0,0.5-0.2,1.7-0.7,3.1
		c-0.5,0.7,1.4,1,5,1c0.5,0,0.7,0,0.7-0.2c0,0-0.2-1-0.7-2.6c-0.2-0.5,0-1.2,0.7-2.2c1-1.7,1.4-2.4,1.7-2.2c1,0.7,1.4,2.2,1.4,3.8
		c0,1.7-0.5,3.4-1.2,5.3c-0.7,2.2-1.4,3.4-1.9,3.8c-1.7,1-4.3,0.7-7.9-1c-2.9,2.9-5.8,4.6-8.6,4.6c-0.7,0-1.9-0.2-3.1-0.7
		c-1.2-0.5-2.2-0.7-2.9-0.7c-4.8,0-9.8,2.2-14.9,7c-3.6,3.6-7.2,7.2-10.8,10.8C607.1,394,604.9,395.2,602.5,395.9L602.5,395.9
		L602.5,395.9L602.5,395.9z"/>
	<path fill="#fff" d="M550.9,266.3c2.9,0,5.3,1.4,7.4,4.8c2.2,3.1,3.8,7.4,4.6,12.7c0.2,0.5,0.2,0.7,0.2,1h0.2
		c0-0.2,0.2-0.5,0.2-1c0.5-3.1,1.7-7.9,3.4-14.2c1.9-4.3,3.8-6.5,6-6.5c1.2,0,2.4,0.7,3.4,2.2c1,1.4,1.4,2.4,1.4,3.4
		c0,0.5,0,1.4-0.5,2.4c-0.5,1.4-1,2.2-1.4,2.2c-0.2,0-0.7-0.7-1.7-1.7c-0.7-1-1.7-1.4-2.6-1.4c-1.9,0-3.6,4.6-5.3,13.7
		c-0.7,4.1-1.7,7-2.4,8.6c-0.7,1-1.2,1.7-1.7,1.7c-0.5,0-0.5-0.7-0.7-1.7c0.2-1.7-0.7-4.8-2.6-9.4c-1.9-4.8-3.1-7-4.1-7
		c-0.5,0-0.7,0-1,0.5c-0.2,0.2-0.5,0.5-1.2,0.5c-1,0-1.9-0.7-3.4-1.9c-1.4-1.2-1.9-2.2-1.9-2.9c0-0.2,0.5-1.4,1.7-3.4
		C550,267,550.7,266.3,550.9,266.3L550.9,266.3L550.9,266.3L550.9,266.3z"/>
	<path fill="#fff" d="M510.4,263.2c24.2-9.1,49.4-18.2,75.4-27.8c0.7-0.2,1.2-0.5,1.2-0.2c0.2,0,0.2,0.5,0,1.2
		c-1,2.2-1.7,3.4-2.2,3.8c-0.2,0.2-12.5,4.8-36.2,13.7c-24.2,8.9-37.9,14.4-40.6,16.1C508.4,267.7,509.2,265.6,510.4,263.2
		L510.4,263.2L510.4,263.2L510.4,263.2z"/>
	<path fill="#fff" d="M486.8,219.2c0.5-1.4,0.5-2.9,0.2-4.3c-0.2-1.4-1-2.2-2.2-2.2c-0.5,0-1.2,0.2-2.2,0.7c-1,0.5-1.4,1-1.4,1.4
		C481.3,216.1,483.2,217.6,486.8,219.2L486.8,219.2L486.8,219.2L486.8,219.2z M484,225.5c-4.6-2.4-6.7-4.8-6.7-7.4
		c0-3.1,1.4-6,4.3-8.4c2.9-2.6,5.3-3.6,7.2-2.9c1.7,0.5,2.4,2.2,2.4,5c0,2.6-0.5,5.5-1.7,8.9c2.4,1.2,3.8,2.4,4.3,3.4
		c0,1.2-1,3.4-3.1,6.2c-0.5-1-1.9-2.2-4.1-3.4c-2.6,3.6-5.8,6.7-9.6,9.6c-4.6,3.1-8.6,5.8-12.2,7.2c-1,0.5-5.3,2.2-13,5
		c-1.2,0.5-2.2,0.7-2.4,0.7s-0.2-0.2-0.2-0.2c0-0.2,0.5-1,1.9-1.7c5.8-3.6,11.5-7,17.5-10.3C475.6,232.9,480.6,229.1,484,225.5
		L484,225.5L484,225.5L484,225.5z"/>
	<path fill="#fff" d="M635.6,255.5c0.5-1.4,0.5-2.9,0.2-4.3c-0.2-1.4-1-2.2-2.2-2.2c-0.5,0-1.2,0.2-2.2,0.7c-1,0.5-1.4,1-1.4,1.4
		C630.1,252.4,632,253.8,635.6,255.5L635.6,255.5L635.6,255.5L635.6,255.5z M640.9,264.4c-2.4,5.8-3.6,10.3-3.6,13.7
		c0,4.1,1,6.2,3.1,6.2c1.2,0,2.6-1.7,4.3-4.6c0.2-0.2,0.2-0.5,0.5-0.7c0,0,0.2,0,0.2,0.2c0,0,0,0.2,0,0.7
		c-1.4,7.2-3.6,10.8-6.5,10.8c-3.1,0-4.6-2.6-4.6-7.9c0-2.6,0.5-6,1.9-10.3c1.4-4.3,2.2-6.5,2.2-6.7c0-0.5-1-1.4-3.1-2.6
		c-3.8,5-9.1,9.8-15.8,13.9c-4.6,2.6-9.1,5-13.9,7c-8.9,3.6-14.2,5.5-15.4,6.2c-1.2,0.5-1.9,0.7-2.4,0.7c-0.2,0-0.2-0.2-0.2-0.2
		c0-0.5,0.5-1,1.9-1.9c7.7-4.3,15.1-8.6,22.8-13c10.1-5.8,17-10.6,20.4-14.2c-4.6-2.4-6.7-4.8-6.7-7.4c0-3.1,1.4-6,4.3-8.6
		c2.9-2.4,5.3-3.4,7.2-2.6c1.4,0.5,2.4,2.2,2.4,5c0,2.6-0.5,5.5-1.7,8.6c2.4,1.4,3.4,2.9,3.4,4.3
		C641.6,261.7,641.4,262.9,640.9,264.4L640.9,264.4L640.9,264.4L640.9,264.4z"/>
	<path fill="#fff" d="M528.4,232.7c0-0.2,0.2-0.5,0.2-0.5c0.2-0.2,0.2-0.2,0.2,0c0.2,0.2,0.2,0.5,0,0.7
		c-1.2,7.2-3.4,10.8-6.5,10.8c-3.1,0-4.6-2.6-4.6-7.9c0-6.5,1.7-13.4,5.5-20.4c1-1.7,1.4-2.6,1.7-2.6l0,0c0,0.2-0.2,1.2-0.7,2.9
		c-2.4,7.4-3.6,12.5-3.6,15.6c0,3.8,1,6,3.1,6C525.2,237.2,526.7,235.6,528.4,232.7L528.4,232.7L528.4,232.7L528.4,232.7z"/>
</g>
</svg>
